<?xml version="1.0" encoding="UTF-8" standalone="no"?>
<svg width="110px" height="21px" viewBox="0 0 110 21" version="1.1" xmlns="http://www.w3.org/2000/svg" xmlns:xlink="http://www.w3.org/1999/xlink">
    <!-- Generator: Sketch 43.2 (39069) - http://www.bohemiancoding.com/sketch -->
    <title>Yandex_Money_rgb_ru</title>
    <desc>Created with Sketch.</desc>
    <defs></defs>
    <g id="Презентация" stroke="none" stroke-width="1" fill="none" fill-rule="evenodd">
        <g id="Artboard" transform="translate(-570.000000, -1001.000000)">
            <g id="Yandex_Money_rgb_ru" transform="translate(570.000000, 997.000000)">
                <path d="M6.91288889,5.76468148 L5.89327407,5.76468148 C4.35140741,5.76468148 2.85952593,6.7842963 2.85952593,9.74379259 C2.85952593,12.6035259 4.22696296,13.5237926 5.89327407,13.5237926 L6.91288889,13.5237926 L6.91288889,5.76468148 Z M5.32124444,15.115437 L2.2874963,21.9293926 L0.0740444444,21.9293926 L3.40666667,14.6427556 C1.8394963,13.8469333 0.794992593,12.4046222 0.794992593,9.74379259 C0.794992593,6.01336296 3.15757037,4.14814815 5.96794074,4.14814815 L8.82788148,4.14814815 L8.82788148,21.9293926 L6.91288889,21.9293926 L6.91288889,15.115437 L5.32124444,15.115437 L5.32124444,15.115437 Z" id="Fill-1" fill="#FF0000"></path>
                <path d="M46.0340741,15.6625778 C46.0340741,11.733037 47.5514667,9.22154074 50.4860741,9.22154074 C51.6048296,9.22154074 52.2515259,9.52 52.7986667,9.86782222 L52.5250963,11.708563 C52.0028444,11.260563 51.2568,10.8380741 50.4609778,10.8380741 C49.068237,10.8380741 48.0737185,12.4046222 48.0737185,15.5630222 C48.0737185,18.6963259 48.8195556,20.4872889 50.3863111,20.4872889 C51.3312593,20.4872889 52.0526222,20.114163 52.5002074,19.7163556 L52.9477926,21.1584593 C52.2764148,21.7302815 51.4805926,22.1034074 50.3365333,22.1034074 C47.6506074,22.1034074 46.0340741,19.9401481 46.0340741,15.6625778 Z M40.3641778,15.6870519 L40.3641778,21.9293926 L38.4242963,21.9293926 L38.4242963,9.39534815 L40.3641778,9.39534815 L40.3641778,15.1898963 L43.3732444,9.39534815 L45.3380148,9.39534815 L42.2293926,15.2894519 L45.7853926,21.9293926 L43.6717037,21.9293926 L40.3641778,15.6870519 Z M31.2372148,14.5185185 L34.4453926,14.5185185 C34.4453926,12.3797333 34.0971556,10.8129778 32.9781926,10.8129778 C31.7843556,10.8129778 31.3616593,12.2801778 31.2372148,14.5185185 Z M33.376,22.1034074 C30.7896296,22.1034074 29.1981926,20.0397037 29.1981926,16.1852444 C29.1981926,12.1559407 30.317363,9.22154074 32.9781926,9.22154074 C35.0672,9.22154074 36.4350519,10.7880889 36.4350519,15.0403556 L36.4350519,16.110163 L31.2123259,16.110163 C31.2123259,18.9454222 32.0081481,20.4375111 33.5500148,20.4375111 C34.6442963,20.4375111 35.5147852,19.9401481 36.0121481,19.5921185 L36.4599407,21.0833778 C35.6641185,21.7056 34.6194074,22.1034074 33.376,22.1034074 Z M25.1195259,10.9621037 L22.9558519,10.9621037 L22.9558519,11.1863111 C22.9558519,13.8222519 22.8316148,17.6765037 21.7871111,20.3377481 L25.1195259,20.3377481 L25.1195259,10.9621037 Z M28.029037,24.3915259 L26.2884741,24.3915259 L26.2884741,21.9293926 L20.9166222,21.9293926 L20.9166222,24.3915259 L19.1760593,24.3915259 L19.1760593,20.3377481 L19.9469926,20.3377481 C21.090637,17.6765037 21.2150815,13.797363 21.2150815,10.4647407 L21.2150815,9.39534815 L27.0345185,9.39534815 L27.0345185,20.3377481 L28.029037,20.3377481 L28.029037,24.3915259 Z M18.0568889,9.39534815 L18.0568889,21.9293926 L16.1418963,21.9293926 L16.1418963,16.3092741 L13.2570667,16.3092741 L13.2570667,21.9293926 L11.3171852,21.9293926 L11.3171852,9.39534815 L13.2570667,9.39534815 L13.2570667,14.7170074 L16.1418963,14.7170074 L16.1418963,9.39534815 L18.0568889,9.39534815 L18.0568889,9.39534815 Z" id="Fill-2" fill="#000000"></path>
                <path d="M64.8208296,5.16776296 L60.9663704,5.16776296 C60.8914963,9.66891852 60.7670519,13.1008889 60.5681481,15.6625778 C60.3443556,18.3232 59.9463407,20.0888593 59.2751704,20.9101926 L64.8208296,20.9101926 L64.8208296,5.16776296 Z M66.1389037,21.9293926 L58.5291259,21.9293926 L58.3546963,24.8888889 L57.3850667,24.8888889 L57.3850667,20.9101926 L57.9073185,20.9101926 C58.7778074,20.1884148 59.2002963,18.1991704 59.4489778,15.6625778 C59.6976593,13.026637 59.7723259,9.09688889 59.8472,4.14814815 L66.064237,4.14814815 L66.064237,20.9101926 L67.2833778,20.9101926 L67.2833778,24.8888889 L66.3127111,24.8888889 L66.1389037,21.9293926 L66.1389037,21.9293926 Z" id="Fill-3" fill="#000000"></path>
                <path d="M69.6971852,14.9408 L74.2489481,14.9408 C74.447437,11.6088 73.4529185,10.1169185 72.1846222,10.1169185 C70.8665481,10.1169185 69.7967407,11.8077037 69.6971852,14.9408 Z M72.4328889,21.1584593 C74.0987852,21.1584593 74.9692741,19.8159111 74.9692741,19.8159111 L75.3426074,20.7600296 C75.3426074,20.7600296 74.3976593,22.1776593 72.4084148,22.1776593 C69.7477926,22.1776593 68.5286519,19.7653037 68.5286519,15.6625778 C68.5286519,11.5590222 70.0703111,9.14666667 72.1846222,9.14666667 C74.3478815,9.14666667 75.7402074,11.4101037 75.3426074,15.8618963 L69.6727111,15.8618963 C69.7224889,19.2934519 70.6174519,21.1584593 72.4328889,21.1584593 L72.4328889,21.1584593 Z" id="Fill-4" fill="#000000"></path>
                <polyline id="Fill-5" fill="#000000" points="83.0040296 15.8863704 78.7264593 15.8863704 78.7264593 21.9293926 77.5579259 21.9293926 77.5579259 9.39534815 78.7264593 9.39534815 78.7264593 14.9408 83.0040296 14.9408 83.0040296 9.39534815 84.172563 9.39534815 84.172563 21.9293926 83.0040296 21.9293926 83.0040296 15.8863704"></polyline>
                <path d="M88.103763,14.9661037 L88.103763,21.0091259 L88.8502222,21.0091259 C90.6156741,21.0091259 91.8095111,20.1392593 91.8095111,17.9753778 C91.8095111,15.8618963 90.7652148,14.9661037 88.9742519,14.9661037 L88.103763,14.9661037 Z M86.9358519,9.39534815 L88.103763,9.39534815 L88.103763,14.0460444 L89.0248593,14.0460444 C91.4119111,14.0460444 92.9537778,15.3392296 92.9537778,17.9506963 C92.9537778,20.6113185 91.3123556,21.9293926 88.9497778,21.9293926 L86.9358519,21.9293926 L86.9358519,9.39534815 L86.9358519,9.39534815 Z" id="Fill-6" fill="#000000"></path>
                <polyline id="Fill-7" fill="#000000" points="96.1132148 10.3656 96.1132148 21.9293926 94.9697778 21.9293926 94.9697778 9.39534815 100.266548 9.39534815 100.266548 10.3656 96.1132148 10.3656"></polyline>
                <path d="M107.903496,13.2004444 C107.903496,12.5537481 107.952444,12.0066074 108.003052,11.4843556 L107.92797,11.4843556 C107.753956,12.0314963 107.53037,12.5537481 107.2568,13.1008889 L103.178548,21.9293926 L102.183822,21.9293926 L102.183822,9.39534815 L103.278104,9.39534815 L103.278104,18.0994074 C103.278104,18.7707852 103.227496,19.3179259 103.178548,19.8650667 L103.2528,19.8650667 C103.426815,19.2934519 103.675081,18.7463111 103.924178,18.1991704 L108.003052,9.39534815 L109.022252,9.39534815 L109.022252,21.9293926 L107.903496,21.9293926 L107.903496,13.2004444" id="Fill-8" fill="#000000"></path>
            </g>
        </g>
    </g>
</svg>