<?xml version="1.0" encoding="UTF-8"?>
<svg version="1.1" viewBox="0 0 112 32" xml:space="preserve" xmlns="http://www.w3.org/2000/svg" xmlns:cc="http://creativecommons.org/ns#" xmlns:dc="http://purl.org/dc/elements/1.1/" xmlns:rdf="http://www.w3.org/1999/02/22-rdf-syntax-ns#"><metadata><rdf:RDF><cc:Work rdf:about=""><dc:format>image/svg+xml</dc:format><dc:type rdf:resource="http://purl.org/dc/dcmitype/StillImage"/><dc:title/></cc:Work></rdf:RDF></metadata><defs><mask id="b" x="65.5" y="92.3454" width="103.9951" height="90.915" maskUnits="userSpaceOnUse"><g filter="url(#a)"><polygon points="65.5 92.345 65.5 183.26 169.5 183.26 169.5 92.345" fill="#fff"/></g></mask><filter id="a" x="65.5" y="92.345" width="104" height="90.915" filterUnits="userSpaceOnUse"><feColorMatrix values="1 0 0 0 0  0 1 0 0 0  0 0 1 0 0  0 0 0 1 0"/></filter></defs><g transform="matrix(.21745 0 0 .21745 -1.9748 -16.486)"><path d="m83.336 79.317c11.107 0 21.675 2.5448 31.158 7.0969 1.4872 0.67097 2.9842 1.474 4.4665 2.2778l-6.5024 5.7598-9.748-10.044-16.797 14.73-9.8913-10.581-30.887 27.454 19.775 21.561-7.7199 6.6942 19.51 21.561-7.7206 6.6915 27.908 30.668 16.517-15 14.366 16.074c-2.8472 2.1429-5.9628 4.29-9.3455 6.1617-10.297 5.7577-22.22 9.0993-34.952 9.0993-39.153 0-70.983-31.464-70.983-70.163-0.13827-38.437 31.697-70.042 70.846-70.042zm-13.007 65.754 16.934-15 15.176 16.739-16.937 14.998-15.172-16.738zm12.06 28.927 16.796-15.132 15.309 16.738-16.935 15-15.171-16.606zm-24.109-57.45 16.929-15 15.172 16.739-16.935 14.999-15.166-16.738zm31.016-8.0376 12.599-11.248 11.382 12.455-12.599 11.381-11.382-12.588zm22.49 51.558 12.595-11.249 11.381 12.585-12.6 11.256-11.376-12.592zm11.107 25.313 12.6-11.251 11.372 12.454-12.595 11.38-11.377-12.583zm5.1487-57.855 8.3978-7.5002 7.5836 8.306-8.3964 7.4974-7.585-8.3032zm-10.838-24.775 8.3984-7.6316 7.5892 8.4353-8.4048 7.4994-7.5829-8.3032zm21.538 49.552 8.3978-7.4994 7.7212 8.3032-8.5313 7.4974-7.5877-8.3011zm-37.794-18.615 12.6-11.249 11.376 12.452-12.595 11.251-11.382-12.454z" fill="#036cb5"/><g transform="matrix(.59904 0 0 .59904 121.75 59.629)"><mask x="65.5" y="92.3454" width="103.9951" height="90.915" maskUnits="userSpaceOnUse"><g filter="url(#a)"><polygon points="169.5 92.345 65.5 92.345 65.5 183.26 169.5 183.26" fill="#fff"/></g></mask><polygon points="86.172 183.26 65.5 92.345 79.789 92.345 94.081 160.18 94.973 160.18 111.56 92.345 122.92 92.345 140.65 160.18 141.55 160.18 154.56 92.345 169.5 92.345 148.82 183.26 135.04 183.26 117.69 119.27 116.79 119.27 99.944 183.26" fill="#036cb5" mask="url(#b)"/></g><path d="m234.15 146.22h17.501c-0.37968-8.0631-4.2802-11.286-8.4062-11.286-4.6625 0-8.2573 3.6095-9.0945 11.286m23.615 14.445v5.8389c-3.4389 1.9966-8.0227 3.534-13.529 3.534-12.838 0-18.112-7.9888-18.112-20.124 0-11.681 5.8843-20.131 17.35-20.131 9.5519 0 15.441 6.2262 15.441 18.744v2.8425h-24.918c0 9.215 3.7431 13.287 11.619 13.287 4.1264 6e-5 7.9482-1.4619 12.149-3.992" fill="#036cb5"/><path d="m276.69 163.88c2.4465 1.0752 5.1237 1.2343 7.0378 1.2343 5.6549 0 9.9307-3.5387 9.9307-15.979 0-9.7555-3.5156-12.905-8.6346-12.905-3.0598 0-5.2755 0.84765-8.3339 2.5342v25.116zm0.0804-30.799c2.2874-1.225 6.1849-2.8437 10.314-2.8437 9.4791 0 14.601 6.6058 14.601 18.897 0 14.365-6.8805 21.355-17.958 21.355-4.0544 0-10.322-1.3063-14.911-3.7698v-53.611l7.9531-1.9176v21.89z" fill="#036cb5"/><polygon transform="matrix(.59904 0 0 .59904 121.75 58.066)" points="401.57 94.898 401.57 185.82 387.79 185.82 387.79 119.9 386.64 119.9 360.6 185.82 352.44 185.82 326.41 121.45 325.26 121.45 325.26 185.82 313.78 185.82 313.78 94.898 329.22 94.898 357.8 166.58 358.44 166.58 385.74 94.898" fill="#036cb5"/><path d="m396.04 149.92c0-10.369-4.2009-14.746-9.3984-14.746-5.043 0-9.4036 4.3764-9.4036 14.746 0 10.525 3.9795 14.746 9.4036 14.746s9.3984-4.2207 9.3984-14.746m-26.825 0c0-13.447 7.3397-20.128 17.426-20.128 10.093 0 17.428 6.6807 17.428 20.128 0 13.133-6.9551 20.126-17.428 20.126-10.471 0-17.426-6.9937-17.426-20.126" fill="#036cb5"/><path d="m410.11 135.48c3.4392-2.0774 10.704-5.6886 19.492-5.6886 9.1716 0 12.605 3.6112 12.605 11.521v27.811h-7.9437v-26.042c0-6.067-2.9759-7.1423-6.879-7.1423-3.0537 0-6.9568 1.3847-9.3243 2.767v30.417h-7.9496v-33.643h-6e-5z" fill="#036cb5"/><path d="m459.03 146.22h17.502c-0.37613-8.0631-4.2787-11.286-8.4065-11.286-4.6637 0-8.2514 3.6095-9.0956 11.286m23.615 14.445v5.8389c-3.4375 1.9966-8.0239 3.534-13.528 3.534-12.834 0-18.111-7.9888-18.111-20.124 0-11.681 5.8822-20.131 17.349-20.131 9.5578 0 15.446 6.2262 15.446 18.744v2.8425h-24.921c0 9.215 3.7458 13.287 11.619 13.287 4.1231 6e-5 7.9508-1.4619 12.147-3.992" fill="#036cb5"/><path d="m515.55 129.79h8.1807l-13.836 38.402c-3.8271 10.601-8.4843 16.133-17.273 16.133v-6.2946c5.2006 0 8.4059-4.15 10.245-9.838l-14.677-38.402h8.4094l9.783 28.267h0.45862l8.7088-28.267z" fill="#036cb5"/></g></svg>