<?xml version="1.0" encoding="UTF-8"?>
<svg version="1.1" viewBox="0 0 30 32" xml:space="preserve" xmlns="http://www.w3.org/2000/svg" xmlns:cc="http://creativecommons.org/ns#" xmlns:dc="http://purl.org/dc/elements/1.1/" xmlns:rdf="http://www.w3.org/1999/02/22-rdf-syntax-ns#"><metadata><rdf:RDF><cc:Work rdf:about=""><dc:format>image/svg+xml</dc:format><dc:type rdf:resource="http://purl.org/dc/dcmitype/StillImage"/><dc:title/></cc:Work></rdf:RDF></metadata><defs><clipPath id="a"><path d="m0 155.91h240.94v-155.91h-240.94v155.91z"/></clipPath></defs><g transform="matrix(1.25 0 0 -1.25 0 32)"><g clip-path="url(#a)"><g transform="matrix(.721 0 0 .721 19.691 7.561)"><path d="m0 0c-0.058 0.261-0.257 0.807-0.598 0.939-0.334 0.124-0.364-0.271-0.28-0.527 0.188-0.602 0.44-1.063 0.624-1.155 0.178-0.107 0.387 0.14 0.254 0.743" fill="#f68b11"/></g><g transform="matrix(.721 0 0 .721 17.768 7.1062)"><path d="m0 0c-0.15 0.222-0.353 0.377-0.572 0.455-5e-3 3e-3 -9e-3 3e-3 -0.015 8e-3 -0.011 0-0.018 4e-3 -0.024 6e-3 -0.012 4e-3 -0.022 9e-3 -0.032 0.012-6e-3 0-0.015 0-0.018 3e-3 -0.017 4e-3 -0.033 9e-3 -0.051 0.015-0.212 0.038-0.421 6e-3 -0.597-0.107-0.393-0.269-0.454-0.876-0.13-1.36 0.15-0.219 0.353-0.372 0.571-0.455 3e-3 0 8e-3 0 0.016-6e-3 6e-3 -1e-3 0.017-6e-3 0.023-8e-3 0.011-4e-3 0.02-4e-3 0.03-7e-3 9e-3 0 0.013-3e-3 0.02-6e-3 0.016-3e-3 0.031-0.01 0.049-0.012 0.209-0.042 0.42-0.011 0.596 0.107 0.397 0.269 0.457 0.873 0.134 1.355" fill="#f68b11"/></g><g transform="matrix(.721 0 0 .721 19.411 4.4338)"><path d="m0 0c0.633-0.208 1.357-0.478 2-0.861 1.854-1.104 3.564-2.545 4.528-4.506 0.432-0.869 0.306-1.016 0.261-1.039-0.169-0.086-0.231 0.093-0.231 0.093-0.214 0.514-0.608 0.964-0.608 0.964-4.555 5.38-11.099 4.808-13.011 4.207-5.055-1.6-13.874 0.171-17.633 5.977-4.577 7.058-2.244 16.692 5.211 21.525 7.45 4.831 17.204 3.028 21.778-4.031 3.591-5.537 2.921-12.668-1.138-17.816-0.142 0.82-0.476 1.628-1.011 2.355-0.046 0.068-0.094 0.132-0.14 0.195-0.208 0.259-0.436 0.493-0.673 0.704 0.098 0.251 0.189 0.504 0.268 0.766 1.032 3.388 0.415 7.554-1.995 11.135-3.838 5.707-11.008 7.936-15.711 4.775-4.704-3.16-5.948-10.315-2.419-16.22 1.917-3.208 6.101-5.854 10.874-6.069-0.519 1.473-0.257 2.523-0.257 2.523-0.038-0.157 0.339-0.616 0.414-0.733 0.401-0.586 0.883-1.137 1.472-1.54 1.13-0.768 2.184-1.317 3.518-1.545 1.641-0.279 3.049-0.389 4.503-0.859" fill="#f68b11"/></g><g transform="matrix(.721 0 0 .721 18.93 10.033)"><path d="m0 0s-1.616 1.627-3.66 1.417c0 0 1.883 0.766 3.935-0.75" fill="#f68b11"/></g></g></g></svg>