<svg width="40" height="40" viewBox="0 0 40 40" fill="none" xmlns="http://www.w3.org/2000/svg">
<path d="M25.7712 23.7779C25.8246 24.1487 25.7109 24.3051 25.599 24.3051C25.4871 24.3051 25.3166 24.1557 25.1306 23.8588C24.9446 23.5618 24.8792 23.2314 24.9705 23.0627C25.0041 23.0038 25.0587 22.9605 25.1229 22.9418C25.1871 22.9231 25.2559 22.9305 25.3149 22.9625C25.6197 23.0785 25.7402 23.5582 25.7712 23.7779ZM24.0733 24.5845C24.4418 24.9026 24.5538 25.2875 24.3592 25.5458C24.3 25.6206 24.2245 25.6801 24.1386 25.7194C24.0528 25.7588 23.959 25.777 23.865 25.7725C23.6593 25.773 23.4599 25.6996 23.3019 25.5652C22.9678 25.2664 22.8697 24.7831 23.0866 24.5107C23.1353 24.4547 23.1957 24.4105 23.2634 24.3816C23.3311 24.3527 23.4043 24.3398 23.4775 24.3438C23.6976 24.3504 23.9085 24.4356 24.0733 24.5845ZM23.4569 27.6512C25.0428 27.6512 26.763 28.2065 28.6675 29.9358C28.8587 30.1115 29.1118 29.8936 28.9465 29.6792C27.0747 27.261 25.3441 26.8024 23.617 26.414C21.5059 25.9395 20.4193 24.7251 19.6617 23.3948C19.5119 23.1294 19.443 23.1769 19.4292 23.5178C19.4139 24.0233 19.4485 24.529 19.5325 25.0274C19.4481 25.0274 19.3603 25.0274 19.2759 25.0274C18.1939 25.0274 17.1361 24.6999 16.2364 24.0863C15.3367 23.4728 14.6355 22.6007 14.2215 21.5804C13.8075 20.5601 13.6993 19.4374 13.9105 18.3543C14.1217 17.2713 14.6429 16.2764 15.4082 15.4957C16.1735 14.7149 17.1484 14.1833 18.2097 13.9681C19.271 13.7529 20.3711 13.8637 21.3707 14.2865C22.3703 14.7094 23.2246 15.4253 23.8255 16.3436C24.4264 17.262 24.747 18.3416 24.7466 19.446C24.7473 19.6626 24.7358 19.8791 24.7122 20.0944C24.1358 20.0206 23.5534 20.0094 22.9747 20.0611C22.7681 20.0786 22.8025 20.1788 22.9541 20.2069C24.7621 20.5408 26.0054 21.6849 26.2878 23.7586C26.2891 23.7689 26.2936 23.7785 26.3004 23.7862C26.3073 23.7938 26.3163 23.7992 26.3262 23.8015C26.3362 23.8037 26.3465 23.8029 26.356 23.799C26.3654 23.7951 26.3735 23.7884 26.379 23.7797C27.3166 22.1791 27.7087 20.3069 27.4944 18.455C27.28 16.6032 26.4711 14.8758 25.1939 13.5422C23.9167 12.2087 22.243 11.3441 20.4338 11.0831C18.6246 10.8222 16.7817 11.1796 15.1924 12.0997C13.6031 13.0198 12.3569 14.4508 11.6481 16.1695C10.9393 17.8882 10.8077 19.798 11.2739 21.6011C11.7402 23.4041 12.778 24.9989 14.2255 26.1369C15.673 27.2749 17.4488 27.892 19.2759 27.8919C20.4899 27.8919 21.6919 27.6512 23.4569 27.6512Z" fill="#FF8C00"/>
</svg>
