<svg width="40" height="40" viewBox="0 0 40 40" fill="none" xmlns="http://www.w3.org/2000/svg">
<path d="M27.3682 24.1007C27.4363 24.5645 27.2913 24.7602 27.1484 24.7602C27.0055 24.7602 26.7878 24.5733 26.5504 24.2018C26.313 23.8303 26.2294 23.417 26.346 23.2059C26.3888 23.1323 26.4586 23.0781 26.5406 23.0547C26.6225 23.0313 26.7104 23.0406 26.7856 23.0806C27.1747 23.2257 27.3286 23.8259 27.3682 24.1007ZM25.2006 25.1097C25.6711 25.5076 25.8139 25.9891 25.5655 26.3122C25.49 26.4057 25.3936 26.4801 25.2839 26.5294C25.1743 26.5787 25.0546 26.6014 24.9346 26.5958C24.672 26.5964 24.4175 26.5046 24.2157 26.3364C23.7892 25.9627 23.6639 25.3581 23.9409 25.0174C24.003 24.9473 24.0801 24.892 24.1666 24.8559C24.253 24.8197 24.3464 24.8035 24.44 24.8085C24.7209 24.8168 24.9901 24.9233 25.2006 25.1097ZM24.4136 28.9459C26.4383 28.9459 28.6345 29.6406 31.0659 31.8038C31.3099 32.0236 31.6331 31.751 31.422 31.4828C29.0324 28.4578 26.823 27.8841 24.618 27.3982C21.9228 26.8047 20.5356 25.2856 19.5683 23.6214C19.3771 23.2895 19.2891 23.3488 19.2716 23.7753C19.252 24.4076 19.2962 25.0403 19.4035 25.6637C19.2957 25.6637 19.1836 25.6637 19.0759 25.6637C17.6945 25.6637 16.344 25.254 15.1954 24.4865C14.0468 23.719 13.1516 22.628 12.6231 21.3517C12.0945 20.0754 11.9563 18.671 12.226 17.3161C12.4957 15.9612 13.1611 14.7167 14.1381 13.7401C15.1151 12.7634 16.3597 12.0984 17.7147 11.8291C19.0697 11.5599 20.474 11.6985 21.7502 12.2275C23.0264 12.7564 24.117 13.652 24.8842 14.8008C25.6514 15.9496 26.0606 17.3002 26.0602 18.6816C26.0611 18.9527 26.0464 19.2235 26.0162 19.4929C25.2804 19.4004 24.5368 19.3864 23.798 19.4511C23.5342 19.4731 23.5782 19.5984 23.7717 19.6335C26.08 20.0512 27.6672 21.4824 28.0277 24.0765C28.0295 24.0894 28.0351 24.1014 28.0439 24.111C28.0526 24.1206 28.0641 24.1272 28.0768 24.1301C28.0895 24.133 28.1027 24.1319 28.1148 24.127C28.1268 24.1222 28.1371 24.1137 28.1442 24.1029C29.3412 22.1006 29.8418 19.7586 29.5681 17.442C29.2944 15.1254 28.2618 12.9646 26.6312 11.2964C25.0007 9.62824 22.8639 8.5466 20.5541 8.22018C18.2444 7.89376 15.8915 8.34091 13.8626 9.49189C11.8336 10.6429 10.2426 12.433 9.33766 14.583C8.43273 16.733 8.26478 19.1221 8.85999 21.3775C9.4552 23.633 10.7801 25.6281 12.6281 27.0516C14.4761 28.4752 16.7432 29.2471 19.0759 29.2471C20.6258 29.2471 22.1602 28.9459 24.4136 28.9459Z" fill="#FF8C00"/>
</svg>
