<svg width="40" height="40" viewBox="0 0 40 40" fill="none" xmlns="http://www.w3.org/2000/svg">
<circle cx="20" cy="20" r="19.5" fill="white" stroke="#F1F1F1"/>
<path d="M10.6878 14.2358C10.5183 14.3137 10.367 14.4741 10.3029 14.6437C10.2708 14.7308 10.2524 15.5465 10.2524 17.0406V19.3047H11.3066V17.8839H12.709L13.0756 18.5943L13.4377 19.3047H14.0473C14.3772 19.3047 14.6522 19.2909 14.6522 19.2772C14.6522 19.2589 14.4643 18.883 14.2306 18.4431L13.8135 17.6364L13.9235 17.5677C14.5422 17.1598 14.8172 16.3578 14.6522 15.4411C14.5468 14.882 14.2764 14.4878 13.8593 14.3045C13.6256 14.1991 13.5844 14.1945 12.2232 14.1854C11.1232 14.1762 10.7978 14.1854 10.6878 14.2358ZM13.346 15.2716C13.4194 15.2991 13.4927 15.3816 13.5339 15.487C13.621 15.6932 13.6302 16.2203 13.5523 16.3761C13.3552 16.7565 13.1123 16.8298 12.0765 16.8298H11.3066V15.2257H12.2644C12.7915 15.2257 13.2773 15.2441 13.346 15.2716ZM16.2105 14.2129C15.7567 14.3504 15.4313 14.6758 15.2939 15.1203C15.1839 15.4778 15.0647 16.3211 15.0647 16.729C15.0647 17.1231 15.1747 17.9252 15.2709 18.2506C15.4405 18.8143 15.7292 19.103 16.2609 19.2405C16.49 19.3001 16.7329 19.3093 17.5121 19.2955C18.4058 19.2818 18.4974 19.268 18.722 19.1718C19.3682 18.883 19.6478 18.1497 19.6478 16.7381C19.6432 15.2532 19.3545 14.5199 18.6716 14.2679C18.4287 14.1808 18.3233 14.1716 17.3654 14.1762C16.7925 14.1762 16.2746 14.1945 16.2105 14.2129ZM18.3416 15.3311C18.6487 15.7528 18.6441 17.8289 18.3325 18.136C18.2408 18.2322 16.4763 18.2368 16.3984 18.1452C16.183 17.8839 16.1051 16.3761 16.2701 15.6703C16.3388 15.3907 16.3755 15.3036 16.4534 15.2716C16.5084 15.2486 16.9438 15.2349 17.4158 15.2395C18.1904 15.2486 18.2866 15.2578 18.3416 15.3311ZM20.6378 14.2724C20.5369 14.332 20.4132 14.4512 20.3628 14.5383C20.2711 14.6941 20.2665 14.7766 20.2528 16.6098C20.2436 17.8885 20.2574 18.5806 20.2894 18.7089C20.3674 18.993 20.569 19.1993 20.844 19.2543C21.1281 19.3184 23.1493 19.3184 23.5114 19.2589C24.2172 19.1443 24.5792 18.7318 24.6296 17.9756C24.6617 17.5494 24.593 17.2331 24.4142 16.949L24.2813 16.7427L24.4509 16.4127C24.6159 16.0965 24.6205 16.0644 24.6205 15.6199C24.6205 15.2395 24.5976 15.1157 24.5151 14.9278C24.3821 14.6391 24.2217 14.4695 23.933 14.3183L23.7038 14.1945L22.2602 14.1808C20.8302 14.1716 20.8165 14.1716 20.6378 14.2724ZM23.4747 15.2807C23.5389 15.3449 23.5801 15.652 23.5389 15.794C23.5159 15.8765 23.4426 15.9911 23.3784 16.0553C23.2639 16.1653 23.2455 16.1653 22.3014 16.179L21.3436 16.1928V15.2211L22.3931 15.2349C22.9706 15.2441 23.4564 15.2624 23.4747 15.2807ZM23.273 17.3248C23.4564 17.3981 23.5572 17.5952 23.5526 17.8564C23.548 18.0214 23.5251 18.1039 23.4701 18.1452C23.4105 18.191 23.1218 18.2047 22.3656 18.2047H21.3436V17.2331L22.251 17.2515C22.746 17.2652 23.2089 17.2973 23.273 17.3248ZM26.165 14.2679C25.7204 14.442 25.4958 14.7537 25.3217 15.4411C25.2346 15.7894 25.2209 15.9728 25.2209 16.7381C25.2209 17.5723 25.23 17.6639 25.3446 18.0902C25.4867 18.6081 25.6196 18.8326 25.8854 19.0297C26.2154 19.2634 26.3162 19.2818 27.4849 19.2818C28.6536 19.2818 28.7544 19.2634 29.0844 19.0297C29.3502 18.8326 29.4831 18.6081 29.6252 18.0902C29.7398 17.6639 29.749 17.5723 29.749 16.7381C29.749 15.9728 29.7352 15.7894 29.6481 15.4411C29.474 14.7445 29.2494 14.4374 28.7911 14.2679C28.5574 14.1808 28.4428 14.1716 27.4712 14.1762C26.5133 14.1762 26.385 14.1854 26.165 14.2679ZM28.374 15.2716C28.4978 15.3174 28.5528 15.4595 28.6399 15.9774C28.7498 16.6144 28.6536 17.8152 28.4703 18.0947C28.4015 18.2047 28.3969 18.2047 27.4849 18.2047C26.4125 18.2047 26.4766 18.2368 26.3575 17.6273C26.1879 16.784 26.3254 15.377 26.582 15.2716C26.7195 15.2166 28.2274 15.2166 28.374 15.2716Z" fill="#0279BD"/>
<path d="M8.42088 20.8794L8.27881 21.0215V25.5587L8.41172 25.6916C8.53088 25.8062 8.58129 25.8245 8.81503 25.8245C9.0396 25.8245 9.10377 25.8062 9.18626 25.7191C9.34667 25.5496 9.37875 25.3525 9.37875 24.555V23.808H10.0525L10.3916 24.1013C11.0699 24.6834 11.3037 24.995 11.3037 25.3067C11.3037 25.4808 11.3266 25.5358 11.4595 25.6687C11.597 25.8062 11.6428 25.8245 11.849 25.8245C12.0415 25.8245 12.1057 25.8016 12.2294 25.6916C12.3761 25.5633 12.3807 25.545 12.3761 25.2104C12.3715 24.9217 12.3486 24.8163 12.2294 24.5734C12.069 24.2525 11.6016 23.6797 11.3082 23.4459L11.1157 23.2947L11.4137 23.0243C11.7711 22.6943 12.1011 22.2681 12.2569 21.9335C12.344 21.741 12.3715 21.6035 12.3761 21.3469C12.3807 21.0169 12.3761 20.9985 12.2294 20.8702C12.0965 20.7511 12.0461 20.7373 11.7895 20.7373C11.5236 20.7373 11.4824 20.7511 11.3999 20.8565C11.3357 20.939 11.3037 21.0444 11.3037 21.1819C11.3037 21.2919 11.2762 21.4477 11.2395 21.5302C11.1616 21.7227 10.8133 22.1031 10.3916 22.4651L10.0525 22.7539H9.37875V22.0068C9.37875 21.5989 9.35584 21.1864 9.33292 21.0948C9.26418 20.8473 9.09918 20.7373 8.80128 20.7373C8.59504 20.7373 8.54005 20.7556 8.42088 20.8794ZM14.2552 20.8015C13.6365 20.9985 13.2973 21.4385 13.059 22.3368C12.949 22.7401 12.9398 22.8776 12.9215 24.0417C12.894 25.4167 12.9123 25.5679 13.1231 25.7329C13.2744 25.852 13.664 25.8566 13.806 25.7421C13.971 25.6091 14.0077 25.4808 14.0077 25.0042V24.5413H16.3909V25.05C16.3909 25.5496 16.3909 25.5587 16.5238 25.6916C16.643 25.8062 16.6934 25.8245 16.918 25.8245C17.1517 25.8245 17.1929 25.8108 17.3167 25.6779L17.4496 25.5312L17.4358 24.0646C17.4175 22.708 17.4084 22.566 17.3167 22.2589C17.0967 21.5348 16.7759 21.081 16.3451 20.8794C16.1067 20.7694 16.0426 20.7602 15.268 20.7511C14.6814 20.7419 14.3881 20.7556 14.2552 20.8015ZM15.8363 21.8418C16.0884 21.9289 16.3038 22.4835 16.3634 23.1755L16.3863 23.4872H13.9939L14.026 23.1205C14.081 22.4743 14.3331 21.8693 14.5668 21.8235C14.7914 21.7822 15.6989 21.796 15.8363 21.8418ZM18.8887 20.8015C18.4395 20.9435 18.1875 21.1635 18.0317 21.5623C17.9537 21.7639 17.9308 21.9106 17.9308 22.2726C17.9308 23.0059 18.1508 23.423 18.6687 23.6751C18.8749 23.7759 18.9574 23.7851 19.8603 23.808C20.7953 23.8309 20.8365 23.8355 20.9373 23.9363C21.0703 24.0692 21.084 24.4588 20.9603 24.6467L20.8823 24.7704H19.6495C18.4854 24.7704 18.4121 24.775 18.3021 24.8621C18.0454 25.0638 18.0362 25.5037 18.2791 25.71L18.4166 25.8245H19.7503C20.4928 25.8245 21.1619 25.8016 21.2536 25.7787C21.5056 25.71 21.776 25.4441 21.9456 25.1004C22.0877 24.8117 22.0969 24.7704 22.0969 24.2892C22.0969 23.8401 22.0831 23.7576 21.9777 23.533C21.8265 23.2122 21.6202 22.9739 21.3957 22.8639C21.249 22.7905 21.0794 22.7722 20.1811 22.7539C18.9666 22.7264 19.0033 22.7447 19.0033 22.2726C19.0033 21.796 18.9345 21.8189 20.3965 21.7914L21.6615 21.7685L21.7852 21.6448C21.8952 21.5348 21.909 21.4798 21.9273 21.1314L21.9502 20.7373L20.5111 20.7419C19.4845 20.7419 19.0216 20.7602 18.8887 20.8015ZM23.426 20.8015C23.3251 20.8335 23.1831 20.8931 23.1051 20.9298C22.5139 21.2414 22.2664 22.2864 22.6056 23.0289C22.7477 23.3405 22.9035 23.5055 23.1968 23.6613C23.4168 23.7805 23.4535 23.7851 24.3426 23.7988C24.8467 23.8034 25.3142 23.8355 25.383 23.8584C25.5434 23.9226 25.6213 24.1563 25.58 24.4313C25.5296 24.7796 25.5663 24.7704 24.1776 24.7704H22.9356L22.8027 24.9033C22.6881 25.0225 22.6698 25.0729 22.6698 25.2975C22.6698 25.5221 22.6881 25.5725 22.8027 25.6916L22.9356 25.8245H24.3197C25.8596 25.8245 25.8963 25.82 26.2171 25.5129C26.4966 25.2425 26.625 24.9217 26.6479 24.3946C26.6754 23.7851 26.5608 23.4276 26.2217 23.093C26.0704 22.9418 25.9192 22.8364 25.8046 22.8043C25.7038 22.7768 25.2455 22.7539 24.7734 22.7539C24.3013 22.7539 23.8568 22.7401 23.7789 22.7264C23.6139 22.6943 23.5405 22.5522 23.5405 22.2726C23.5405 21.9931 23.6139 21.851 23.7789 21.8189C23.8568 21.8052 24.4113 21.7914 25.0163 21.7914C26.4416 21.7914 26.4737 21.7731 26.4737 21.081V20.7373L25.0438 20.7419C24.0218 20.7419 23.5543 20.7602 23.426 20.8015ZM28.449 20.829C28.3161 20.8748 28.1328 20.971 28.0457 21.0398C27.6791 21.3194 27.3491 22.0527 27.2574 22.7997C27.1887 23.3222 27.1933 25.3571 27.2574 25.545C27.3216 25.7237 27.5049 25.8245 27.7753 25.8245C27.9403 25.8245 28.0137 25.797 28.1328 25.6916L28.2841 25.5587L28.2978 25.05L28.3161 24.5413H30.6352L30.6535 25.05L30.6673 25.5587L30.8185 25.6916C30.9377 25.8016 31.0064 25.8245 31.1943 25.8245C31.3822 25.8245 31.451 25.8016 31.5701 25.6916L31.7214 25.5587L31.7168 24.1196C31.7122 22.8043 31.7076 22.6576 31.616 22.3276C31.4097 21.5714 31.1027 21.1131 30.6581 20.8931C30.3969 20.7648 30.374 20.7602 29.5444 20.7511C28.7974 20.7373 28.669 20.7465 28.449 20.829ZM30.2823 21.9747C30.4656 22.1901 30.6031 22.6485 30.6306 23.1068L30.6581 23.4872H28.307V23.2076C28.307 22.6255 28.5636 21.9472 28.8203 21.8372C28.8799 21.8143 29.2007 21.8006 29.5398 21.8052L30.1494 21.8143L30.2823 21.9747Z" fill="#E73841"/>
</svg>
