<svg width="40" height="40" viewBox="0 0 40 40" fill="none" xmlns="http://www.w3.org/2000/svg">
<path d="M20.2534 11.333C21.654 11.333 22.9804 11.6592 24.1617 12.2382C24.3473 12.3262 24.5324 12.4231 24.7179 12.53L23.8968 13.2649L22.6631 11.9893L20.5808 13.8465L19.344 12.4967L15.4652 15.993L17.9519 18.7335L16.9747 19.593L19.424 22.3377L18.4525 23.1952L21.9524 27.0909L24.03 25.1782L25.8262 27.2279C25.4689 27.5056 25.0797 27.767 24.651 28.0086C23.3521 28.7493 21.8509 29.1733 20.2534 29.1733C15.3405 29.1733 11.3335 25.1658 11.3335 20.2534C11.3335 15.34 15.3405 11.333 20.2534 11.333Z" fill="#0085BA"/>
<path d="M18.5332 19.7235L20.6545 17.8135L22.5645 19.9348L20.4432 21.8448L18.5332 19.7235Z" fill="#0085BA"/>
<path d="M20.1533 23.3224L22.2747 21.4131L24.1847 23.5344L22.064 25.4444L20.1533 23.3224Z" fill="#0085BA"/>
<path d="M17.0933 16.1222L19.2146 14.2129L21.1239 16.3342L19.0026 18.2436L17.0933 16.1222Z" fill="#0085BA"/>
<path d="M20.873 15.1049L22.4637 13.6729L23.8964 15.2635L22.305 16.6962L20.873 15.1049Z" fill="#0085BA"/>
<path d="M23.7534 21.586L25.3448 20.1533L26.7768 21.7447L25.1861 23.1767L23.7534 21.586Z" fill="#0085BA"/>
<path d="M25.1924 24.8252L26.783 23.3926L28.2157 24.9832L26.6244 26.4159L25.1924 24.8252Z" fill="#0085BA"/>
<path d="M25.7324 17.5074L26.7931 16.5527L27.7478 17.6134L26.6878 18.5681L25.7324 17.5074Z" fill="#0085BA"/>
<path d="M24.4736 14.2681L25.5343 13.3135L26.489 14.3741L25.4283 15.3288L24.4736 14.2681Z" fill="#0085BA"/>
<path d="M27.1729 20.5679L28.2335 19.6133L29.1882 20.6739L28.1275 21.6286L27.1729 20.5679Z" fill="#0085BA"/>
<path d="M22.4932 18.1661L24.0838 16.7334L25.5158 18.3241L23.9258 19.7567L22.4932 18.1661Z" fill="#0085BA"/>
</svg>
