<svg width="40" height="40" viewBox="0 0 40 40" fill="none" xmlns="http://www.w3.org/2000/svg">
<circle cx="20" cy="20" r="19.5" fill="white" stroke="#F1F1F1"/>
<mask id="mask0" mask-type="alpha" maskUnits="userSpaceOnUse" x="3" y="5" width="27" height="27">
<path d="M25.0798 28.8317L10.673 6.089L6.47919 11.229L5.86967 20.7205L8.96837 26.4833L15.5949 29.3215L25.0798 28.8317Z" fill="#C4C4C4"/>
</mask>
<g mask="url(#mask0)">
<path fill-rule="evenodd" clip-rule="evenodd" d="M27.9211 17.5465C27.9258 17.743 27.9248 17.9385 27.9181 18.1328L28.4748 18.1517C28.4606 18.5679 28.4222 18.9788 28.3608 19.3831L27.8101 19.2994C27.7807 19.4933 27.7457 19.6855 27.7052 19.8759L28.25 19.9917C28.1638 20.3977 28.0541 20.7958 27.9225 21.1843L27.395 21.0056C27.3321 21.1911 27.264 21.3744 27.1908 21.5551L27.707 21.7643C27.5515 22.1478 27.3743 22.5207 27.1766 22.8812L26.6882 22.6134C26.5942 22.7849 26.4953 22.9534 26.3916 23.1189L26.8637 23.4145C26.6446 23.7644 26.4055 24.1009 26.148 24.4224L25.7132 24.0742C25.5911 24.2267 25.4645 24.3756 25.3338 24.5208L25.7477 24.8936C25.472 25.1997 25.1785 25.49 24.8687 25.7627L24.5006 25.3447C24.3541 25.4737 24.2038 25.5985 24.0497 25.719L24.3929 26.1577C24.0691 26.411 23.7297 26.6462 23.3764 26.8616L23.0865 26.386C22.92 26.4875 22.7502 26.5843 22.5773 26.6763L22.8389 27.168C22.4767 27.3607 22.1016 27.5332 21.7148 27.6839L21.5125 27.165C21.3312 27.2357 21.1472 27.3013 20.9606 27.3617L21.1321 27.8916C20.7431 28.0175 20.3437 28.1219 19.9354 28.2031L19.8267 27.6568C19.6361 27.6947 19.4433 27.7273 19.2486 27.7544L19.3255 28.3061C19.1225 28.3344 18.9176 28.357 18.7109 28.3738C18.5042 28.3906 18.2983 28.4014 18.0934 28.4063L18.0802 27.8495C17.8836 27.8542 17.6882 27.8531 17.4939 27.8465L17.475 28.4032C17.0588 28.389 16.6478 28.3506 16.2436 28.2892L16.3272 27.7385C16.1334 27.709 15.9412 27.674 15.7508 27.6336L15.635 28.1784C15.229 28.0921 14.8309 27.9825 14.4423 27.8509L14.621 27.3233C14.4355 27.2605 14.2523 27.1924 14.0716 27.1191L13.8624 27.6353C13.4789 27.4799 13.106 27.3026 12.7455 27.1049L13.0133 26.6165C12.8418 26.5225 12.6732 26.4236 12.5078 26.32L12.2122 26.792C11.8623 26.5729 11.5258 26.3339 11.2043 26.0763L11.5525 25.6416C11.4 25.5195 11.251 25.3929 11.1058 25.2621L10.7331 25.676C10.427 25.4003 10.1367 25.1069 9.86394 24.797L10.282 24.429C10.153 24.2825 10.0282 24.1321 9.90768 23.9781L9.46898 24.3213C9.21564 23.9974 8.98044 23.6581 8.76508 23.3047L9.24069 23.0149C9.13921 22.8484 9.04238 22.6786 8.9504 22.5057L8.45866 22.7672C8.26599 22.4051 8.09348 22.0299 7.94274 21.6432L8.46169 21.4409C8.39101 21.2595 8.32538 21.0755 8.26499 20.889L7.73507 21.0605C7.60914 20.6715 7.50482 20.2721 7.4236 19.8637L7.96989 19.7551C7.93198 19.5644 7.89937 19.3717 7.87224 19.177L7.32058 19.2539C7.2923 19.0509 7.26967 18.846 7.25286 18.6393C7.23605 18.4325 7.22527 18.2267 7.22039 18.0218L7.77722 18.0085C7.77253 17.812 7.77357 17.6165 7.78018 17.4223L7.22351 17.4033C7.23768 16.9872 7.2761 16.5762 7.33751 16.1719L7.88818 16.2556C7.91763 16.0617 7.95266 15.8695 7.99312 15.6791L7.44829 15.5634C7.53457 15.1573 7.6442 14.7593 7.77581 14.3707L8.30335 14.5494C8.36618 14.3639 8.43431 14.1807 8.50755 14L7.99135 13.7908C8.14679 13.4072 8.32407 13.0344 8.52175 12.6738L9.01014 12.9416C9.10417 12.7702 9.20307 12.6016 9.30668 12.4362L8.83464 12.1405C9.05376 11.7907 9.29281 11.4542 9.55035 11.1326L9.98508 11.4808C10.1072 11.3283 10.2338 11.1794 10.3645 11.0342L9.95066 10.6615C10.2263 10.3553 10.5198 10.0651 10.8297 9.7923L11.1977 10.2104C11.3442 10.0814 11.4946 9.95654 11.6486 9.83604L11.3054 9.39734C11.6293 9.144 11.9686 8.9088 12.3219 8.69344L12.6118 9.16905C12.7783 9.06757 12.9481 8.97074 13.121 8.87876L12.8594 8.38702C13.2216 8.19436 13.5968 8.02184 13.9835 7.8711L14.1858 8.39005C14.3671 8.31937 14.5512 8.25374 14.7377 8.19335L14.5662 7.66343C14.9552 7.53751 15.3546 7.43319 15.763 7.35197L15.8716 7.89825C16.0622 7.86034 16.255 7.82773 16.4497 7.8006L16.3728 7.24895C16.5758 7.22066 16.7807 7.19803 16.9874 7.18122C17.1941 7.16441 17.4 7.15363 17.6049 7.14875L17.6182 7.70558C17.8147 7.70089 18.0101 7.70193 18.2044 7.70854L18.2234 7.15187C18.6395 7.16604 19.0505 7.20446 19.4547 7.26587L19.3711 7.81654C19.5649 7.84599 19.7572 7.88102 19.9475 7.92148L20.0633 7.37665C20.4693 7.46293 20.8674 7.57256 21.256 7.70417L21.0773 8.23171C21.2628 8.29455 21.446 8.36267 21.6267 8.43591L21.8359 7.91971C22.2194 8.07515 22.5923 8.25243 22.9528 8.45011L22.685 8.9385C22.8565 9.03253 23.0251 9.13143 23.1905 9.23504L23.4862 8.763C23.836 8.98212 24.1725 9.22117 24.494 9.47871L24.1458 9.91344C24.2983 10.0356 24.4473 10.1621 24.5925 10.2929L24.9652 9.87902C25.2713 10.1547 25.5616 10.4482 25.8344 10.758L25.4163 11.1261C25.5453 11.2726 25.6701 11.4229 25.7906 11.577L26.2293 11.2338C26.4827 11.5576 26.7179 11.8969 26.9332 12.2503L26.4576 12.5402C26.5591 12.7067 26.6559 12.8765 26.7479 13.0494L27.2397 12.7878C27.4323 13.15 27.6048 13.5251 27.7556 13.9119L27.2366 14.1142C27.3073 14.2955 27.3729 14.4795 27.4333 14.6661L27.9632 14.4945C28.0892 14.8836 28.1935 15.2829 28.2747 15.6913L27.7284 15.8C27.7663 15.9906 27.7989 16.1834 27.8261 16.378L28.3777 16.3012C28.406 16.5041 28.4286 16.7091 28.4455 16.9158C28.4623 17.1225 28.473 17.3284 28.4779 17.5332L27.9211 17.5465ZM25.392 17.1641C25.7307 21.3299 22.6283 24.9815 18.4626 25.3203C14.2968 25.6591 10.6451 22.5567 10.3064 18.3909C9.96758 14.2252 13.07 10.5735 17.2357 10.2347C21.4015 9.89595 25.0532 12.9983 25.392 17.1641Z" fill="#FF5700"/>
<path fill-rule="evenodd" clip-rule="evenodd" d="M17.7017 15.9564C16.6962 16.0382 15.9475 16.9195 16.0292 17.925C16.111 18.9304 16.9923 19.6791 17.9978 19.5974C19.0032 19.5156 19.752 18.6343 19.6702 17.6289C19.5884 16.6234 18.7071 15.8747 17.7017 15.9564ZM13.8086 18.1055C13.6271 15.8737 15.2892 13.9173 17.5211 13.7358C19.7529 13.5543 21.7093 15.2164 21.8908 17.4483C22.0723 19.6801 20.4102 21.6365 18.1784 21.818C15.9465 21.9995 13.9901 20.3374 13.8086 18.1055Z" fill="#FF5F00"/>
<path fill-rule="evenodd" clip-rule="evenodd" d="M10.3196 14.1807L15.6933 16.4661L15.2573 17.4912L9.88361 15.2059L10.3196 14.1807Z" fill="#FF5F00"/>
<path fill-rule="evenodd" clip-rule="evenodd" d="M23.7634 10.1498L19.9826 14.6L20.8315 15.3213L24.6124 10.871L23.7634 10.1498Z" fill="#FF5F00"/>
<path fill-rule="evenodd" clip-rule="evenodd" d="M11.928 25.3131L15.7088 20.8629L14.8599 20.1416L11.079 24.5919L11.928 25.3131Z" fill="#FF5F00"/>
<path fill-rule="evenodd" clip-rule="evenodd" d="M21.5505 24.7774L18.2508 19.9595L19.1699 19.3301L22.4696 24.1479L21.5505 24.7774Z" fill="#FF5F00"/>
</g>
<mask id="mask1" mask-type="alpha" maskUnits="userSpaceOnUse" x="10" y="8" width="27" height="27">
<path d="M14.9207 11.1703L29.3275 33.913L33.5213 28.7729L34.1308 19.2815L31.0321 13.5187L24.4056 10.6804L14.9207 11.1703Z" fill="#C4C4C4"/>
</mask>
<g mask="url(#mask1)">
<path fill-rule="evenodd" clip-rule="evenodd" d="M12.0794 22.4554C12.0747 22.2589 12.0757 22.0634 12.0823 21.8692L11.5257 21.8502C11.5398 21.4341 11.5783 21.0231 11.6397 20.6189L12.1903 20.7025C12.2198 20.5086 12.2548 20.3164 12.2953 20.126L11.7505 20.0103C11.8367 19.6043 11.9464 19.2062 12.078 18.8176L12.6055 18.9963C12.6684 18.8108 12.7365 18.6276 12.8097 18.4469L12.2935 18.2377C12.449 17.8541 12.6262 17.4813 12.8239 17.1208L13.3123 17.3885C13.4063 17.2171 13.5052 17.0485 13.6088 16.8831L13.1368 16.5874C13.3559 16.2376 13.595 15.9011 13.8525 15.5795L14.2872 15.9278C14.4094 15.7753 14.5359 15.6263 14.6667 15.4811L14.2528 15.1084C14.5285 14.8023 14.822 14.512 15.1318 14.2392L15.4999 14.6573C15.6464 14.5283 15.7967 14.4035 15.9508 14.283L15.6076 13.8443C15.9314 13.5909 16.2707 13.3557 16.6241 13.1404L16.914 13.616C17.0805 13.5145 17.2503 13.4176 17.4232 13.3257L17.1616 12.8339C17.5238 12.6413 17.8989 12.4688 18.2857 12.318L18.488 12.837C18.6693 12.7663 18.8533 12.7007 19.0399 12.6403L18.8684 12.1103C19.2574 11.9844 19.6567 11.8801 20.0651 11.7989L20.1738 12.3452C20.3644 12.3073 20.5572 12.2746 20.7519 12.2475L20.675 11.6959C20.8779 11.6676 21.0829 11.6449 21.2896 11.6281C21.4963 11.6113 21.7022 11.6005 21.907 11.5957L21.9203 12.1525C22.1168 12.1478 22.3123 12.1488 22.5066 12.1555L22.5255 11.5988C22.9417 11.6129 23.3526 11.6514 23.7569 11.7128L23.6732 12.2635C23.8671 12.2929 24.0593 12.3279 24.2497 12.3684L24.3655 11.8236C24.7715 11.9098 25.1696 12.0195 25.5581 12.1511L25.3794 12.6786C25.5649 12.7415 25.7482 12.8096 25.9289 12.8828L26.1381 12.3666C26.5216 12.5221 26.8945 12.6993 27.255 12.897L26.9872 13.3854C27.1587 13.4794 27.3272 13.5783 27.4927 13.682L27.7883 13.2099C28.1382 13.429 28.4747 13.6681 28.7962 13.9256L28.448 14.3603C28.6005 14.4825 28.7495 14.609 28.8946 14.7398L29.2674 14.3259C29.5735 14.6016 29.8638 14.8951 30.1366 15.2049L29.7185 15.573C29.8475 15.7195 29.9723 15.8698 30.0928 16.0239L30.5315 15.6807C30.7848 16.0045 31.02 16.3438 31.2354 16.6972L30.7598 16.9871C30.8613 17.1536 30.9581 17.3234 31.0501 17.4963L31.5418 17.2347C31.7345 17.5969 31.907 17.972 32.0578 18.3588L31.5388 18.5611C31.6095 18.7424 31.6751 18.9264 31.7355 19.113L32.2654 18.9415C32.3913 19.3305 32.4957 19.7298 32.5769 20.1382L32.0306 20.2469C32.0685 20.4375 32.1011 20.6303 32.1282 20.825L32.6799 20.7481C32.7082 20.951 32.7308 21.156 32.7476 21.3627C32.7644 21.5694 32.7752 21.7753 32.7801 21.9801L32.2233 21.9934C32.228 22.1899 32.2269 22.3854 32.2203 22.5797L32.777 22.5986C32.7628 23.0148 32.7244 23.4258 32.663 23.83L32.1123 23.7464C32.0829 23.9402 32.0478 24.1324 32.0074 24.3228L32.5522 24.4386C32.4659 24.8446 32.3563 25.2427 32.2247 25.6312L31.6971 25.4526C31.6343 25.6381 31.5662 25.8213 31.4929 26.002L32.0091 26.2112C31.8537 26.5947 31.6764 26.9676 31.4787 27.3281L30.9903 27.0603C30.8963 27.2318 30.7974 27.4004 30.6938 27.5658L31.1658 27.8614C30.9467 28.2113 30.7077 28.5478 30.4501 28.8693L30.0154 28.5211C29.8933 28.6736 29.7667 28.8226 29.636 28.9677L30.0498 29.3405C29.7741 29.6466 29.4807 29.9369 29.1708 30.2097L28.8028 29.7916C28.6563 29.9206 28.5059 30.0454 28.3519 30.1659L28.6951 30.6046C28.3712 30.858 28.0319 31.0931 27.6786 31.3085L27.3887 30.8329C27.2222 30.9344 27.0524 31.0312 26.8795 31.1232L27.141 31.6149C26.7789 31.8076 26.4037 31.9801 26.017 32.1309L25.8147 31.6119C25.6334 31.6826 25.4493 31.7482 25.2628 31.8086L25.4343 32.3385C25.0453 32.4644 24.6459 32.5688 24.2375 32.65L24.1289 32.1037C23.9382 32.1416 23.7455 32.1742 23.5508 32.2014L23.6277 32.753C23.4247 32.7813 23.2198 32.8039 23.0131 32.8207C22.8064 32.8375 22.6005 32.8483 22.3956 32.8532L22.3823 32.2964C22.1858 32.3011 21.9903 32.3 21.7961 32.2934L21.7771 32.8501C21.361 32.8359 20.95 32.7975 20.5458 32.7361L20.6294 32.1854C20.4355 32.156 20.2433 32.1209 20.0529 32.0805L19.9372 32.6253C19.5312 32.539 19.1331 32.4294 18.7445 32.2978L18.9232 31.7702C18.7377 31.7074 18.5545 31.6393 18.3738 31.566L18.1646 32.0822C17.781 31.9268 17.4082 31.7495 17.0477 31.5518L17.3154 31.0635C17.144 30.9694 16.9754 30.8705 16.81 30.7669L16.5143 31.239C16.1645 31.0198 15.828 30.7808 15.5064 30.5232L15.8547 30.0885C15.7021 29.9664 15.5532 29.8398 15.408 29.7091L15.0353 30.1229C14.7292 29.8472 14.4389 29.5538 14.1661 29.2439L14.5842 28.8759C14.4552 28.7294 14.3303 28.579 14.2098 28.425L13.7711 28.7682C13.5178 28.4443 13.2826 28.105 13.0672 27.7517L13.5429 27.4618C13.4414 27.2953 13.3445 27.1255 13.2526 26.9526L12.7608 27.2141C12.5682 26.852 12.3956 26.4768 12.2449 26.0901L12.7639 25.8878C12.6932 25.7065 12.6275 25.5224 12.5672 25.3359L12.0372 25.5074C11.9113 25.1184 11.807 24.719 11.7258 24.3106L12.2721 24.202C12.2341 24.0113 12.2015 23.8186 12.1744 23.6239L11.6228 23.7008C11.5945 23.4978 11.5718 23.2929 11.555 23.0862C11.5382 22.8795 11.5274 22.6736 11.5226 22.4687L12.0794 22.4554ZM14.6085 22.8379C14.2698 18.6721 17.3721 15.0204 21.5379 14.6816C25.7037 14.3429 29.3553 17.4452 29.6941 21.611C30.0329 25.7768 26.9305 29.4284 22.7647 29.7672C18.599 30.106 14.9473 27.0036 14.6085 22.8379Z" fill="#679AD3"/>
<path fill-rule="evenodd" clip-rule="evenodd" d="M22.2993 24.0445C23.3047 23.9628 24.0535 23.0814 23.9717 22.076C23.89 21.0706 23.0086 20.3218 22.0032 20.4036C20.9978 20.4854 20.249 21.3667 20.3308 22.3721C20.4125 23.3775 21.2939 24.1263 22.2993 24.0445ZM26.1924 21.8954C26.3739 24.1273 24.7117 26.0837 22.4799 26.2652C20.2481 26.4467 18.2917 24.7845 18.1102 22.5527C17.9287 20.3209 19.5908 18.3645 21.8226 18.183C24.0544 18.0015 26.0108 19.6636 26.1924 21.8954Z" fill="#679AD3"/>
<path fill-rule="evenodd" clip-rule="evenodd" d="M29.6819 25.8193L24.3082 23.5339L24.7441 22.5088L30.1179 24.7941L29.6819 25.8193Z" fill="#679AD3"/>
<path fill-rule="evenodd" clip-rule="evenodd" d="M16.238 29.8522L20.0189 25.4019L19.1699 24.6807L15.3891 29.1309L16.238 29.8522Z" fill="#679AD3"/>
<path fill-rule="evenodd" clip-rule="evenodd" d="M28.0725 14.6869L24.2917 19.1371L25.1406 19.8584L28.9215 15.4081L28.0725 14.6869Z" fill="#679AD3"/>
<path fill-rule="evenodd" clip-rule="evenodd" d="M18.4504 15.2246L21.7501 20.0424L20.8311 20.6719L17.5314 15.854L18.4504 15.2246Z" fill="#679AD3"/>
</g>
</svg>
