<?xml version="1.0" encoding="UTF-8" standalone="no"?>
<svg width="112px" height="57px" viewBox="0 0 112 57" version="1.1" xmlns="http://www.w3.org/2000/svg" xmlns:xlink="http://www.w3.org/1999/xlink">
    <!-- Generator: Sketch 43.2 (39069) - http://www.bohemiancoding.com/sketch -->
    <title>Group 2</title>
    <desc>Created with Sketch.</desc>
    <defs></defs>
    <g id="Презентация" stroke="none" stroke-width="1" fill="none" fill-rule="evenodd">
        <g id="Artboard" transform="translate(-402.000000, -981.000000)">
            <g id="Group-2" transform="translate(402.000000, 981.000000)">
                <g id="Group" transform="translate(56.000000, 23.000000)">
                    <polyline id="Fill-2" fill="#F2AD3D" points="39.0477872 33.3745106 39.9083404 33.3518723 40.7578723 33.2902128 41.5907234 33.1835745 42.417617 33.0370213 43.2218723 32.8514468 44.0154043 32.6262553 44.7916596 32.3620426 45.551234 32.0638723 46.2935319 31.726383 47.0137872 31.3605957 47.7114043 30.9554894 48.3920426 30.522383 49.0446809 30.055617 49.6746809 29.5605532 50.2823404 29.0371915 50.8617021 28.4804681 51.4187234 27.9008085 51.9417872 27.2931489 52.4368511 26.6631489 52.9039149 26.0108085 53.3370213 25.3298723 53.7421277 24.6322553 54.107617 23.9122979 54.4454043 23.1697021 54.7435745 22.4101277 55.0077872 21.6338723 55.2329787 20.8406383 55.4185532 20.0360851 55.5648085 19.2091915 55.6717447 18.3766383 55.7337021 17.5271064 55.7560426 16.6665532 55.7337021 15.8113617 55.6717447 14.9674894 55.5648085 14.1349362 55.4185532 13.3190638 55.2329787 12.5145106 55.0077872 11.727234 54.7435745 10.9506809 54.4454043 10.196766 54.107617 9.45982979 53.7421277 8.73987234 53.3370213 8.04791489 52.9039149 7.3672766 52.4368511 6.7146383 51.9417872 6.09 51.4187234 5.4826383 50.8617021 4.9032766 50.2823404 4.35161702 49.6746809 3.82855319 49.0446809 3.33348936 48.3920426 2.8667234 47.7114043 2.43331915 47.0137872 2.03387234 46.2935319 1.66838298 45.551234 1.33089362 44.7916596 1.0327234 44.0154043 0.768212766 43.2218723 0.543319149 42.417617 0.357446809 41.5907234 0.211191489 40.7578723 0.104255319 39.9083404 0.0425957447 39.0477872 0.0199574468 38.1925957 0.0425957447 37.3433617 0.104255319 36.5105106 0.211191489 35.6892766 0.357446809 34.8847234 0.543319149 34.0914894 0.768212766 33.3208936 1.0327234 32.5613191 1.33089362 31.824383 1.66838298 31.1100851 2.03387234 30.4124681 2.43331915 29.7371915 2.8667234 29.0845532 3.33348936 28.4545532 3.82855319 27.8525532 4.35161702 27.2731915 4.9032766 26.7218298 5.4826383 26.198766 6.09 25.7037021 6.7146383 25.2422979 7.3672766 24.8091915 8.04791489 24.4097447 8.73987234 24.0385957 9.45982979 23.7064681 10.196766 23.4082979 10.9506809 23.1497447 11.727234 22.9245532 12.5145106 22.7389787 13.3190638 22.5927234 14.1349362 22.4857872 14.9674894 22.4238298 15.8113617 22.4014894 16.6665532 22.4238298 17.5271064 22.4857872 18.3766383 22.5927234 19.2091915 22.7389787 20.0360851 22.9245532 20.8406383 23.1497447 21.6338723 23.4082979 22.4101277 23.7064681 23.1697021 24.0385957 23.9122979 24.4097447 24.6322553 24.8091915 25.3298723 25.2422979 26.0108085 25.7037021 26.6631489 26.198766 27.2931489 26.7218298 27.9008085 27.2731915 28.4804681 27.8525532 29.0371915 28.4545532 29.5605532 29.0845532 30.055617 29.7371915 30.522383 30.4124681 30.9554894 31.1100851 31.3605957 31.824383 31.726383 32.5613191 32.0638723 33.3208936 32.3620426 34.0914894 32.6262553 34.8847234 32.8514468 35.6892766 33.0370213 36.5105106 33.1835745 37.3433617 33.2902128 38.1925957 33.3518723 39.0477872 33.3745106"></polyline>
                    <polyline id="Fill-3" fill="#D82331" points="16.7362553 33.3745106 17.5914468 33.3518723 18.4409787 33.2902128 19.2735319 33.1835745 20.094766 33.0370213 20.8993191 32.8514468 21.6925532 32.6262553 22.4631489 32.3620426 23.2227234 32.0638723 23.9596596 31.726383 24.6742553 31.3605957 25.3718723 30.9554894 26.0468511 30.522383 26.6994894 30.055617 27.3294894 29.5605532 27.9314894 29.0371915 28.5108511 28.4804681 29.0622128 27.9008085 29.5852766 27.2931489 30.0803404 26.6631489 30.5417447 26.0108085 30.9748511 25.3298723 31.3742979 24.6322553 31.7457447 23.9122979 32.0775745 23.1697021 32.3757447 22.4101277 32.6345957 21.6338723 32.8594894 20.8406383 33.0450638 20.0360851 33.1913191 19.2091915 33.2982553 18.3766383 33.3602128 17.5271064 33.3828511 16.6665532 33.3602128 15.8113617 33.2982553 14.9674894 33.1913191 14.1349362 33.0450638 13.3190638 32.8594894 12.5145106 32.6345957 11.727234 32.3757447 10.9506809 32.0775745 10.196766 31.7457447 9.45982979 31.3742979 8.73987234 30.9748511 8.04791489 30.5417447 7.3672766 30.0803404 6.7146383 29.5852766 6.09 29.0622128 5.4826383 28.5108511 4.9032766 27.9314894 4.35161702 27.3294894 3.82855319 26.6994894 3.33348936 26.0468511 2.8667234 25.3718723 2.43331915 24.6742553 2.03387234 23.9596596 1.66838298 23.2227234 1.33089362 22.4631489 1.0327234 21.6925532 0.768212766 20.8993191 0.543319149 20.094766 0.357446809 19.2735319 0.211191489 18.4409787 0.104255319 17.5914468 0.0425957447 16.7362553 0.0199574468 15.8757021 0.0425957447 15.0261702 0.104255319 14.193617 0.211191489 13.3664255 0.357446809 12.5621702 0.543319149 11.7689362 0.768212766 10.9926809 1.0327234 10.2331064 1.33089362 9.49051064 1.66838298 8.77025532 2.03387234 8.07293617 2.43331915 7.392 2.8667234 6.7393617 3.33348936 6.1093617 3.82855319 5.50170213 4.35161702 4.92234043 4.9032766 4.36531915 5.4826383 3.84225532 6.09 3.34719149 6.7146383 2.88042553 7.3672766 2.44702128 8.04791489 2.04191489 8.73987234 1.67642553 9.45982979 1.33893617 10.196766 1.04076596 10.9506809 0.776255319 11.727234 0.551361702 12.5145106 0.365489362 13.3190638 0.219234043 14.1349362 0.112297872 14.9674894 0.0506382979 15.8113617 0.028 16.6665532 0.0506382979 17.5271064 0.112297872 18.3766383 0.219234043 19.2091915 0.365489362 20.0360851 0.551361702 20.8406383 0.776255319 21.6338723 1.04076596 22.4101277 1.33893617 23.1697021 1.67642553 23.9122979 2.04191489 24.6322553 2.44702128 25.3298723 2.88042553 26.0108085 3.34719149 26.6631489 3.84225532 27.2931489 4.36531915 27.9008085 4.92234043 28.4804681 5.50170213 29.0371915 6.1093617 29.5605532 6.7393617 30.055617 7.392 30.522383 8.07293617 30.9554894 8.77025532 31.3605957 9.49051064 31.726383 10.2331064 32.0638723 10.9926809 32.3620426 11.7689362 32.6262553 12.5621702 32.8514468 13.3664255 33.0370213 14.193617 33.1835745 15.0261702 33.2902128 15.8757021 33.3518723 16.7362553 33.3745106"></polyline>
                    <polyline id="Fill-4" fill="#F2AD3D" points="25.9399149 6.41646809 34.8004255 6.41646809 34.8004255 5.5106383 26.7051489 5.5106383 25.9399149 6.41646809"></polyline>
                    <polyline id="Fill-5" fill="#F2AD3D" points="24.6122979 8.43038298 34.8004255 8.43038298 34.8004255 7.52485106 25.1466809 7.52485106 24.6122979 8.43038298"></polyline>
                    <polyline id="Fill-6" fill="#F2AD3D" points="23.6221702 10.4386383 34.8004255 10.4386383 34.8004255 9.53280851 24.0159574 9.53280851 23.6221702 10.4386383"></polyline>
                    <polyline id="Fill-7" fill="#F2AD3D" points="22.9415319 12.4525532 34.8004255 12.4525532 34.8004255 11.5470213 23.2227234 11.5470213 22.9415319 12.4525532"></polyline>
                    <polyline id="Fill-8" fill="#F2AD3D" points="23.3353191 22.185234 34.8284255 22.185234 34.8284255 21.2794043 23.0541277 21.2794043 23.3353191 22.185234"></polyline>
                    <polyline id="Fill-9" fill="#F2AD3D" points="24.1848511 24.1991489 34.8284255 24.1991489 34.8284255 23.2933191 23.762766 23.2933191 24.1848511 24.1991489"></polyline>
                    <polyline id="Fill-10" fill="#F2AD3D" points="25.3775319 26.2077021 34.8284255 26.2077021 34.8284255 25.3018723 24.8091915 25.3018723 25.3775319 26.2077021"></polyline>
                    <polyline id="Fill-11" fill="#F2AD3D" points="27.02 28.221617 34.8284255 28.221617 34.8284255 27.3101277 26.226766 27.3101277 27.02 28.221617"></polyline>
                    <polyline id="Fill-12" fill="#F2AD3D" points="22.5420851 14.4611064 34.8004255 14.4611064 34.8004255 13.5552766 22.7163404 13.5552766 22.5420851 14.4611064"></polyline>
                    <polyline id="Fill-13" fill="#F2AD3D" points="30.0130213 20.1766809 34.6878298 20.1766809 34.6878298 19.2711489 30.181617 19.2711489 30.0130213 20.1766809"></polyline>
                    <polyline id="Fill-14" fill="#F2AD3D" points="30.3841702 18.1684255 34.6878298 18.1684255 34.6878298 17.2569362 30.5530638 17.2569362 30.3841702 18.1684255"></polyline>
                    <polyline id="Fill-15" fill="#F2AD3D" points="22.2325957 17.2569362 23.4479149 17.2569362 23.4479149 18.1684255 22.2888936 18.1684255 22.2325957 17.2569362"></polyline>
                    <polyline id="Fill-16" fill="#FFFFFF" points="19.9654894 16.1601702 19.8868511 16.1545106 19.8079149 16.1431915 19.7349362 16.1318723 19.6616596 16.1208511 19.5943404 16.1095319 19.5210638 16.0982128 19.4477872 16.0868936 19.3691489 16.0758723 19.2905106 16.0645532 19.2005532 16.0588936 19.0992766 16.053234 18.9923404 16.0475745 18.8740851 16.0475745 18.7448085 16.053234 18.5985532 16.0645532 18.4353191 16.0758723 18.3227234 16.0925532 18.2157872 16.1095319 18.1201702 16.1431915 18.0358723 16.1768511 17.9569362 16.2161702 17.8839574 16.2614468 17.8276596 16.3177447 17.7770213 16.3680851 17.7433617 16.4300426 17.7150638 16.492 17.7040426 16.559617 17.7040426 16.6269362 17.7207234 16.7002128 17.7433617 16.7731915 17.7883404 16.8464681 17.8446383 16.9194468 17.9569362 17.026383 18.0921702 17.1109787 18.2497447 17.1839574 18.4183404 17.2459149 18.5985532 17.3022128 18.7841277 17.3638723 18.9697021 17.4314894 19.149617 17.504766 19.3185106 17.6000851 19.4760851 17.7183404 19.6166809 17.8589362 19.7349362 18.0334894 19.8248936 18.2470638 19.8811915 18.5002553 19.9035319 18.8040851 19.8811915 19.1585532 19.8415745 19.4230638 19.7742553 19.653617 19.6842979 19.8674894 19.5717021 20.0530638 19.4424255 20.2162979 19.2958723 20.3568936 19.1385957 20.4805106 18.9640426 20.5874468 18.7841277 20.6717447 18.5985532 20.7450213 18.4070213 20.8013191 18.2104255 20.8462979 18.0188936 20.8799574 17.8333191 20.8969362 17.6477447 20.9082553 17.4731915 20.913617 17.2313191 20.913617 17.0064255 20.9082553 16.8095319 20.9082553 16.6239574 20.9022979 16.4550638 20.8969362 16.3031489 20.885617 16.1682128 20.8742979 16.0386383 20.857617 15.9206809 20.8462979 15.8137447 20.8236596 15.7068085 20.8069787 15.6111915 20.7786809 15.5155745 20.7563404 15.425617 20.722383 15.3353617 20.6887234 15.2400426 20.6550638 15.4929362 19.4117447 15.5438723 19.4230638 15.6055319 19.4397447 15.6841702 19.462383 15.7800851 19.4847234 15.8813617 19.5073617 15.9936596 19.53 16.1175745 19.558 16.2525106 19.5806383 16.3931064 19.6029787 16.5393617 19.625617 16.6912766 19.6422979 16.8488511 19.6592766 17.0120851 19.6649362 17.1750213 19.6705957 17.3382553 19.6705957 17.5014894 19.6649362 17.6647234 19.6309787 17.794 19.586 17.8952766 19.5243404 17.9739149 19.4454043 18.0302128 19.366766 18.0751915 19.2768085 18.1034894 19.1868511 18.1258298 19.1022553 18.1371489 18.9390213 18.0865106 18.7984255 17.9908936 18.6861277 17.8502979 18.5905106 17.6814043 18.5059149 17.4845106 18.421617 17.2649787 18.3429787 17.0457447 18.2527234 16.8208511 18.1517447 16.6069787 18.0334894 16.4100851 17.887234 16.2301702 17.7126809 16.0892766 17.4991064 15.988 17.2459149 15.9373617 16.9420851 15.9430213 16.5819574 15.9713191 16.3627234 16.0106383 16.1545106 16.0669362 15.9632766 16.1342553 15.7830638 16.2245106 15.6144681 16.3257872 15.4682128 16.4437447 15.327617 16.5846383 15.2037021 16.7475745 15.096766 16.9274894 15.0068085 17.1300426 14.9225106 17.355234 14.8605532 17.6084255 14.8099149 17.8839574 14.7705957 18.1877872 14.7479574 18.519617 14.7422979 18.7278298 14.7422979 18.9190638 14.7479574 19.093617 14.753617 19.2508936 14.7592766 19.3917872 14.7705957 19.5210638 14.7819149 19.6336596 14.7929362 19.7349362 14.8042553 19.8305532 14.8155745 19.9091915 14.8325532 19.9824681 14.8438723 20.0497872 14.8548936 20.1060851 14.8662128 20.1567234 14.8718723 20.2073617 14.8831915 20.2523404 14.8888511 19.9654894 16.1601702"></polyline>
                    <polyline id="Stroke-17" stroke="#FFFFFF" stroke-width="0.216" points="19.9654894 16.1601702 19.9654894 16.1601702 19.8868511 16.1545106 19.8079149 16.1431915 19.7349362 16.1318723 19.6616596 16.1208511 19.5943404 16.1095319 19.5210638 16.0982128 19.4477872 16.0868936 19.3691489 16.0758723 19.2905106 16.0645532 19.2005532 16.0588936 19.0992766 16.053234 18.9923404 16.0475745 18.8740851 16.0475745 18.7448085 16.053234 18.5985532 16.0645532 18.4353191 16.0758723 18.3227234 16.0925532 18.2157872 16.1095319 18.1201702 16.1431915 18.0358723 16.1768511 17.9569362 16.2161702 17.8839574 16.2614468 17.8276596 16.3177447 17.7770213 16.3680851 17.7433617 16.4300426 17.7150638 16.492 17.7040426 16.559617 17.7040426 16.6269362 17.7207234 16.7002128 17.7433617 16.7731915 17.7883404 16.8464681 17.8446383 16.9194468 17.9569362 17.026383 18.0921702 17.1109787 18.2497447 17.1839574 18.4183404 17.2459149 18.5985532 17.3022128 18.7841277 17.3638723 18.9697021 17.4314894 19.149617 17.504766 19.3185106 17.6000851 19.4760851 17.7183404 19.6166809 17.8589362 19.7349362 18.0334894 19.8248936 18.2470638 19.8811915 18.5002553 19.9035319 18.8040851 19.8811915 19.1585532 19.8415745 19.4230638 19.7742553 19.653617 19.6842979 19.8674894 19.5717021 20.0530638 19.4424255 20.2162979 19.2958723 20.3568936 19.1385957 20.4805106 18.9640426 20.5874468 18.7841277 20.6717447 18.5985532 20.7450213 18.4070213 20.8013191 18.2104255 20.8462979 18.0188936 20.8799574 17.8333191 20.8969362 17.6477447 20.9082553 17.4731915 20.913617 17.2313191 20.913617 17.0064255 20.9082553 16.8095319 20.9082553 16.6239574 20.9022979 16.4550638 20.8969362 16.3031489 20.885617 16.1682128 20.8742979 16.0386383 20.857617 15.9206809 20.8462979 15.8137447 20.8236596 15.7068085 20.8069787 15.6111915 20.7786809 15.5155745 20.7563404 15.425617 20.722383 15.3353617 20.6887234 15.2400426 20.6550638 15.4929362 19.4117447 15.5438723 19.4230638 15.6055319 19.4397447 15.6841702 19.462383 15.7800851 19.4847234 15.8813617 19.5073617 15.9936596 19.53 16.1175745 19.558 16.2525106 19.5806383 16.3931064 19.6029787 16.5393617 19.625617 16.6912766 19.6422979 16.8488511 19.6592766 17.0120851 19.6649362 17.1750213 19.6705957 17.3382553 19.6705957 17.5014894 19.6649362 17.6647234 19.6309787 17.794 19.586 17.8952766 19.5243404 17.9739149 19.4454043 18.0302128 19.366766 18.0751915 19.2768085 18.1034894 19.1868511 18.1258298 19.1022553 18.1371489 18.9390213 18.0865106 18.7984255 17.9908936 18.6861277 17.8502979 18.5905106 17.6814043 18.5059149 17.4845106 18.421617 17.2649787 18.3429787 17.0457447 18.2527234 16.8208511 18.1517447 16.6069787 18.0334894 16.4100851 17.887234 16.2301702 17.7126809 16.0892766 17.4991064 15.988 17.2459149 15.9373617 16.9420851 15.9430213 16.5819574 15.9713191 16.3627234 16.0106383 16.1545106 16.0669362 15.9632766 16.1342553 15.7830638 16.2245106 15.6144681 16.3257872 15.4682128 16.4437447 15.327617 16.5846383 15.2037021 16.7475745 15.096766 16.9274894 15.0068085 17.1300426 14.9225106 17.355234 14.8605532 17.6084255 14.8099149 17.8839574 14.7705957 18.1877872 14.7479574 18.519617 14.7422979 18.7278298 14.7422979 18.9190638 14.7479574 19.093617 14.753617 19.2508936 14.7592766 19.3917872 14.7705957 19.5210638 14.7819149 19.6336596 14.7929362 19.7349362 14.8042553 19.8305532 14.8155745 19.9091915 14.8325532 19.9824681 14.8438723 20.0497872 14.8548936 20.1060851 14.8662128 20.1567234 14.8718723 20.2073617 14.8831915 20.2523404 14.8888511 19.9654894 16.1601702"></polyline>
                    <polyline id="Fill-18" fill="#FFFFFF" points="21.298766 13.4992766 22.857234 13.4992766 22.626383 14.8605532 23.5658723 14.8605532 23.3633191 16.1318723 22.3731915 16.1038723 21.8331489 19.2428511 21.8274894 19.3554468 21.8557872 19.4510638 21.9120851 19.5243404 21.9850638 19.586 22.0863404 19.625617 22.1989362 19.6592766 22.3225532 19.681617 22.4574894 19.6929362 22.5814043 19.6872766 22.694 19.6759574 22.7952766 19.6592766 22.885234 19.6366383 22.9582128 19.6142979 23.0088511 19.5973191 23.0428085 19.586 23.0541277 19.5806383 22.857234 20.626766 22.817617 20.6550638 22.7389787 20.7000426 22.6996596 20.722383 22.6600426 20.7393617 22.6153617 20.7563404 22.5644255 20.7733191 22.5140851 20.79 22.4574894 20.8069787 22.4014894 20.8182979 22.3338723 20.8293191 22.2665532 20.8406383 22.1932766 20.8519574 22.1089787 20.8632766 22.0190213 20.8742979 21.9231064 20.885617 21.4956596 20.885617 21.270766 20.8686383 21.0735745 20.8462979 20.8936596 20.8126383 20.7417447 20.7733191 20.6124681 20.722383 20.5055319 20.666383 20.4099149 20.598766 20.3366383 20.5254894 20.2806383 20.4468511 20.2410213 20.351234 20.2130213 20.255617 20.1960426 20.1486809 20.190383 20.0304255 20.190383 19.9068085 20.2073617 19.7775319 20.2243404 19.6366383 21.298766 13.4992766"></polyline>
                    <polyline id="Stroke-19" stroke="#FFFFFF" stroke-width="0.216" points="21.298766 13.4992766 22.857234 13.4992766 22.626383 14.8605532 23.5658723 14.8605532 23.3633191 16.1318723 22.3731915 16.1038723 21.8331489 19.2428511 21.8274894 19.3554468 21.8557872 19.4510638 21.9120851 19.5243404 21.9850638 19.586 22.0863404 19.625617 22.1989362 19.6592766 22.3225532 19.681617 22.4574894 19.6929362 22.5814043 19.6872766 22.694 19.6759574 22.7952766 19.6592766 22.885234 19.6366383 22.9582128 19.6142979 23.0088511 19.5973191 23.0428085 19.586 23.0541277 19.5806383 22.857234 20.626766 22.817617 20.6550638 22.7389787 20.7000426 22.6996596 20.722383 22.6600426 20.7393617 22.6153617 20.7563404 22.5644255 20.7733191 22.5140851 20.79 22.4574894 20.8069787 22.4014894 20.8182979 22.3338723 20.8293191 22.2665532 20.8406383 22.1932766 20.8519574 22.1089787 20.8632766 22.0190213 20.8742979 21.9231064 20.885617 21.4956596 20.885617 21.270766 20.8686383 21.0735745 20.8462979 20.8936596 20.8126383 20.7417447 20.7733191 20.6124681 20.722383 20.5055319 20.666383 20.4099149 20.598766 20.3366383 20.5254894 20.2806383 20.4468511 20.2410213 20.351234 20.2130213 20.255617 20.1960426 20.1486809 20.190383 20.0304255 20.190383 19.9068085 20.2073617 19.7775319 20.2243404 19.6366383 21.298766 13.4992766"></polyline>
                    <polyline id="Fill-20" fill="#FFFFFF" points="24.8091915 18.2527234 24.7922128 18.3486383 24.7868511 18.449617 24.7978723 18.5565532 24.8205106 18.6634894 24.8598298 18.7704255 24.9048085 18.8717021 24.966766 18.9786383 25.0340851 19.0742553 25.1130213 19.1698723 25.1973191 19.2541702 25.2875745 19.3384681 25.3885532 19.4060851 25.4898298 19.4680426 25.6024255 19.5186809 25.7150213 19.558 25.827617 19.5806383 25.9735745 19.6029787 26.1144681 19.6199574 26.2607234 19.6366383 26.4069787 19.6479574 26.553234 19.653617 26.7051489 19.653617 26.8514043 19.6479574 27.0033191 19.6366383 27.155234 19.6142979 27.3068511 19.586 27.4644255 19.5523404 27.6163404 19.5017021 27.7739149 19.4397447 27.9371489 19.3724255 28.0947234 19.2824681 28.2576596 19.1868511 28.032766 20.5704681 27.8525532 20.6607234 27.7625957 20.694383 27.6782979 20.7280426 27.594 20.7563404 27.5037447 20.7843404 27.4140851 20.8069787 27.3181702 20.8236596 27.2168936 20.8406383 27.1045957 20.8519574 26.9863404 20.8632766 26.856766 20.8742979 26.7108085 20.8799574 26.5588936 20.8799574 26.3843404 20.885617 26.198766 20.885617 25.9229362 20.8799574 25.6417447 20.8519574 25.3605532 20.8126383 25.0790638 20.7450213 24.8035319 20.6607234 24.5390213 20.5537872 24.2861277 20.4131915 24.049617 20.2499574 23.830383 20.0587234 23.6391489 19.8278723 23.4759149 19.5693191 23.3409787 19.2711489 23.2453617 18.9390213 23.1834043 18.5622128 23.1664255 18.1460851 23.1947234 17.6846809 23.2170638 17.504766 23.2510213 17.2965532 23.296 17.0770213 23.3576596 16.8408085 23.4422553 16.5989362 23.5435319 16.3570638 23.6728085 16.1095319 23.830383 15.8733191 24.0102979 15.6481277 24.2298298 15.4342553 24.4773617 15.2430213 24.7585532 15.0744255 25.0847234 14.9338298 25.4505106 14.8325532 25.855617 14.7649362 26.3113617 14.7422979 26.5305957 14.7479574 26.7614468 14.7705957 26.992 14.8099149 27.2225532 14.8662128 27.4477447 14.9505106 27.6669787 15.0517872 27.8695319 15.1867234 28.0551064 15.3442979 28.224 15.5355319 28.3645957 15.7607234 28.4771915 16.0195745 28.5558298 16.3177447 28.6008085 16.655234 28.6064681 17.0377021 28.5671489 17.4651489 28.4828511 17.9378723 28.4545532 18.2810213 24.3534468 18.2810213 24.6122979 17.1726383 27.0762979 17.1726383 27.087617 17.0320426 27.0819574 16.8971064 27.0706383 16.7731915 27.0482979 16.6608936 27.0086809 16.5539574 26.9693617 16.4583404 26.9133617 16.3737447 26.856766 16.2951064 26.7894468 16.2274894 26.7164681 16.1711915 26.6318723 16.1208511 26.5475745 16.0758723 26.457617 16.0419149 26.3676596 16.0195745 26.2717447 16.0025957 26.170766 15.9912766 26.0638298 15.9969362 25.9625532 16.0139149 25.8669362 16.0362553 25.7710213 16.0702128 25.6757021 16.1151915 25.5911064 16.1658298 25.5068085 16.2274894 25.4335319 16.2951064 25.3605532 16.3737447 25.2929362 16.4583404 25.2309787 16.5482979 25.1806383 16.6439149 25.13 16.7451915 25.090383 16.8577872 25.0567234 16.9700851 25.0340851 17.0883404 24.8091915 18.2527234"></polyline>
                    <polyline id="Stroke-21" stroke="#FFFFFF" stroke-width="0.216" points="24.8091915 18.2527234 24.8091915 18.2527234 24.7922128 18.3486383 24.7868511 18.449617 24.7978723 18.5565532 24.8205106 18.6634894 24.8598298 18.7704255 24.9048085 18.8717021 24.966766 18.9786383 25.0340851 19.0742553 25.1130213 19.1698723 25.1973191 19.2541702 25.2875745 19.3384681 25.3885532 19.4060851 25.4898298 19.4680426 25.6024255 19.5186809 25.7150213 19.558 25.827617 19.5806383 25.9735745 19.6029787 26.1144681 19.6199574 26.2607234 19.6366383 26.4069787 19.6479574 26.553234 19.653617 26.7051489 19.653617 26.8514043 19.6479574 27.0033191 19.6366383 27.155234 19.6142979 27.3068511 19.586 27.4644255 19.5523404 27.6163404 19.5017021 27.7739149 19.4397447 27.9371489 19.3724255 28.0947234 19.2824681 28.2576596 19.1868511 28.032766 20.5704681 27.8525532 20.6607234 27.7625957 20.694383 27.6782979 20.7280426 27.594 20.7563404 27.5037447 20.7843404 27.4140851 20.8069787 27.3181702 20.8236596 27.2168936 20.8406383 27.1045957 20.8519574 26.9863404 20.8632766 26.856766 20.8742979 26.7108085 20.8799574 26.5588936 20.8799574 26.3843404 20.885617 26.198766 20.885617 25.9229362 20.8799574 25.6417447 20.8519574 25.3605532 20.8126383 25.0790638 20.7450213 24.8035319 20.6607234 24.5390213 20.5537872 24.2861277 20.4131915 24.049617 20.2499574 23.830383 20.0587234 23.6391489 19.8278723 23.4759149 19.5693191 23.3409787 19.2711489 23.2453617 18.9390213 23.1834043 18.5622128 23.1664255 18.1460851 23.1947234 17.6846809 23.2170638 17.504766 23.2510213 17.2965532 23.296 17.0770213 23.3576596 16.8408085 23.4422553 16.5989362 23.5435319 16.3570638 23.6728085 16.1095319 23.830383 15.8733191 24.0102979 15.6481277 24.2298298 15.4342553 24.4773617 15.2430213 24.7585532 15.0744255 25.0847234 14.9338298 25.4505106 14.8325532 25.855617 14.7649362 26.3113617 14.7422979 26.5305957 14.7479574 26.7614468 14.7705957 26.992 14.8099149 27.2225532 14.8662128 27.4477447 14.9505106 27.6669787 15.0517872 27.8695319 15.1867234 28.0551064 15.3442979 28.224 15.5355319 28.3645957 15.7607234 28.4771915 16.0195745 28.5558298 16.3177447 28.6008085 16.655234 28.6064681 17.0377021 28.5671489 17.4651489 28.4828511 17.9378723 28.4545532 18.2810213 24.3534468 18.2810213 24.6122979 17.1726383 27.0762979 17.1726383 27.087617 17.0320426 27.0819574 16.8971064 27.0706383 16.7731915 27.0482979 16.6608936 27.0086809 16.5539574 26.9693617 16.4583404 26.9133617 16.3737447 26.856766 16.2951064 26.7894468 16.2274894 26.7164681 16.1711915 26.6318723 16.1208511 26.5475745 16.0758723 26.457617 16.0419149 26.3676596 16.0195745 26.2717447 16.0025957 26.170766 15.9912766 26.0638298 15.9969362 25.9625532 16.0139149 25.8669362 16.0362553 25.7710213 16.0702128 25.6757021 16.1151915 25.5911064 16.1658298 25.5068085 16.2274894 25.4335319 16.2951064 25.3605532 16.3737447 25.2929362 16.4583404 25.2309787 16.5482979 25.1806383 16.6439149 25.13 16.7451915 25.090383 16.8577872 25.0567234 16.9700851 25.0340851 17.0883404 24.8091915 18.2527234"></polyline>
                    <polyline id="Fill-22" fill="#FFFFFF" points="38.2265532 15.1980426 38.1532766 15.1587234 38.0802979 15.1250638 38.0013617 15.0857447 37.9170638 15.0461277 37.832766 15.0124681 37.7371489 14.9788085 37.641234 14.9448511 37.5402553 14.9111915 37.4333191 14.8831915 37.326383 14.8605532 37.2081277 14.8382128 37.0901702 14.821234 36.9605957 14.8099149 36.8313191 14.7985957 36.4148936 14.7985957 36.2686383 14.8099149 36.1167234 14.8268936 35.9594468 14.8548936 35.8018723 14.8998723 35.6442979 14.9618298 35.4867234 15.040766 35.3291489 15.1417447 35.177234 15.2656596 35.0309787 15.4119149 34.890383 15.5918298 34.7554468 15.8000426 34.6315319 16.0475745 34.5135745 16.328766 34.4066383 16.6439149 34.3166809 17.0040426 34.2827234 17.2062979 34.260383 17.4031915 34.2490638 17.6000851 34.2547234 17.791617 34.2717021 17.9828511 34.3110213 18.162766 34.3616596 18.3316596 34.423617 18.5002553 34.5079149 18.6521702 34.6091915 18.7984255 34.7271489 18.928 34.862383 19.0459574 35.014 19.147234 35.1885532 19.2318298 35.3797872 19.3048085 35.5936596 19.3554468 35.6666383 19.3724255 35.751234 19.3894043 35.8525106 19.4004255 35.9648085 19.4117447 36.0887234 19.4230638 36.3585957 19.4230638 36.4994894 19.4117447 36.6457447 19.394766 36.792 19.366766 36.9325957 19.3274468 37.0731915 19.2824681 37.2137872 19.2205106 37.3433617 19.147234 37.4613191 19.0572766 37.5739149 18.956 37.3207234 20.4581702 37.286766 20.4861702 37.2531064 20.5198298 37.2081277 20.5594468 37.1574894 20.5931064 37.0955319 20.6380851 37.0168936 20.6774043 36.9269362 20.7167234 36.8256596 20.7506809 36.696383 20.79 36.5498298 20.8182979 36.381234 20.8406383 36.1843404 20.8632766 35.9648085 20.8742979 35.711617 20.8799574 35.424766 20.8742979 35.1099149 20.857617 34.8510638 20.8293191 34.5922128 20.7733191 34.3333617 20.6887234 34.0748085 20.5761277 33.8272766 20.4411915 33.590766 20.2725957 33.3658723 20.0757021 33.1576596 19.8505106 32.9720851 19.5973191 32.8145106 19.3161277 32.6795745 19.0009787 32.5782979 18.6578298 32.5106809 18.2810213 32.4883404 17.8815745 32.4993617 17.4428085 32.5613191 16.9757447 32.6062979 16.7451915 32.6569362 16.52 32.713234 16.300766 32.7695319 16.0925532 32.8314894 15.8956596 32.9044681 15.698766 32.9777447 15.5131915 33.056383 15.3386383 33.1409787 15.164383 33.2252766 15.0011489 33.3208936 14.8438723 33.4221702 14.6973191 33.5234468 14.5567234 33.6357447 14.4217872 33.7483404 14.2978723 33.8665957 14.1799149 33.9958723 14.0673191 34.1251489 13.960383 34.260383 13.864766 34.4009787 13.7748085 34.5528936 13.6905106 34.7048085 13.617234 34.862383 13.5499149 35.0253191 13.4879574 35.1998723 13.4316596 35.3741277 13.3866809 35.5543404 13.3473617 35.7455745 13.3134043 35.9368085 13.2854043 36.1393617 13.262766 36.3419149 13.2514468 36.5554894 13.2460851 36.7357021 13.2514468 36.9099574 13.262766 37.0788511 13.2797447 37.2474468 13.302383 37.4050213 13.3247234 37.5569362 13.358383 37.7031915 13.3866809 37.8384255 13.4203404 37.9677021 13.4542979 38.0802979 13.4879574 38.1869362 13.521617 38.2771915 13.5552766 38.3558298 13.5835745 38.4234468 13.6062128 38.4740851 13.6285532 38.5077447 13.6398723 38.2265532 15.1980426"></polyline>
                    <polyline id="Stroke-23" stroke="#FFFFFF" stroke-width="0.216" points="38.2265532 15.1980426 38.2265532 15.1980426 38.1532766 15.1587234 38.0802979 15.1250638 38.0013617 15.0857447 37.9170638 15.0461277 37.832766 15.0124681 37.7371489 14.9788085 37.641234 14.9448511 37.5402553 14.9111915 37.4333191 14.8831915 37.326383 14.8605532 37.2081277 14.8382128 37.0901702 14.821234 36.9605957 14.8099149 36.8313191 14.7985957 36.4148936 14.7985957 36.2686383 14.8099149 36.1167234 14.8268936 35.9594468 14.8548936 35.8018723 14.8998723 35.6442979 14.9618298 35.4867234 15.040766 35.3291489 15.1417447 35.177234 15.2656596 35.0309787 15.4119149 34.890383 15.5918298 34.7554468 15.8000426 34.6315319 16.0475745 34.5135745 16.328766 34.4066383 16.6439149 34.3166809 17.0040426 34.2827234 17.2062979 34.260383 17.4031915 34.2490638 17.6000851 34.2547234 17.791617 34.2717021 17.9828511 34.3110213 18.162766 34.3616596 18.3316596 34.423617 18.5002553 34.5079149 18.6521702 34.6091915 18.7984255 34.7271489 18.928 34.862383 19.0459574 35.014 19.147234 35.1885532 19.2318298 35.3797872 19.3048085 35.5936596 19.3554468 35.6666383 19.3724255 35.751234 19.3894043 35.8525106 19.4004255 35.9648085 19.4117447 36.0887234 19.4230638 36.3585957 19.4230638 36.4994894 19.4117447 36.6457447 19.394766 36.792 19.366766 36.9325957 19.3274468 37.0731915 19.2824681 37.2137872 19.2205106 37.3433617 19.147234 37.4613191 19.0572766 37.5739149 18.956 37.3207234 20.4581702 37.286766 20.4861702 37.2531064 20.5198298 37.2081277 20.5594468 37.1574894 20.5931064 37.0955319 20.6380851 37.0168936 20.6774043 36.9269362 20.7167234 36.8256596 20.7506809 36.696383 20.79 36.5498298 20.8182979 36.381234 20.8406383 36.1843404 20.8632766 35.9648085 20.8742979 35.711617 20.8799574 35.424766 20.8742979 35.1099149 20.857617 34.8510638 20.8293191 34.5922128 20.7733191 34.3333617 20.6887234 34.0748085 20.5761277 33.8272766 20.4411915 33.590766 20.2725957 33.3658723 20.0757021 33.1576596 19.8505106 32.9720851 19.5973191 32.8145106 19.3161277 32.6795745 19.0009787 32.5782979 18.6578298 32.5106809 18.2810213 32.4883404 17.8815745 32.4993617 17.4428085 32.5613191 16.9757447 32.6062979 16.7451915 32.6569362 16.52 32.713234 16.300766 32.7695319 16.0925532 32.8314894 15.8956596 32.9044681 15.698766 32.9777447 15.5131915 33.056383 15.3386383 33.1409787 15.164383 33.2252766 15.0011489 33.3208936 14.8438723 33.4221702 14.6973191 33.5234468 14.5567234 33.6357447 14.4217872 33.7483404 14.2978723 33.8665957 14.1799149 33.9958723 14.0673191 34.1251489 13.960383 34.260383 13.864766 34.4009787 13.7748085 34.5528936 13.6905106 34.7048085 13.617234 34.862383 13.5499149 35.0253191 13.4879574 35.1998723 13.4316596 35.3741277 13.3866809 35.5543404 13.3473617 35.7455745 13.3134043 35.9368085 13.2854043 36.1393617 13.262766 36.3419149 13.2514468 36.5554894 13.2460851 36.7357021 13.2514468 36.9099574 13.262766 37.0788511 13.2797447 37.2474468 13.302383 37.4050213 13.3247234 37.5569362 13.358383 37.7031915 13.3866809 37.8384255 13.4203404 37.9677021 13.4542979 38.0802979 13.4879574 38.1869362 13.521617 38.2771915 13.5552766 38.3558298 13.5835745 38.4234468 13.6062128 38.4740851 13.6285532 38.5077447 13.6398723 38.2265532 15.1980426"></polyline>
                    <polyline id="Fill-24" fill="#FFFFFF" points="52.0767234 20.885617 50.5185532 20.885617 50.6311489 20.2612766 50.6311489 20.2049787 50.5408936 20.3172766 50.4455745 20.4188511 50.3496596 20.5088085 50.2486809 20.5874468 50.1471064 20.6607234 50.0461277 20.722383 49.9448511 20.7733191 49.8379149 20.8236596 49.7309787 20.8632766 49.6240426 20.8912766 49.5171064 20.9192766 49.4048085 20.9362553 49.2922128 20.953234 49.1852766 20.9642553 49.0726809 20.9702128 48.9600851 20.9702128 48.6678723 20.9475745 48.3977021 20.885617 48.1501702 20.79 47.9249787 20.6607234 47.7224255 20.4974894 47.5425106 20.3062553 47.3849362 20.0980426 47.25 19.8618298 47.1374043 19.6086383 47.0474468 19.3441277 46.9854894 19.0685957 46.9405106 18.7817447 46.9238298 18.4948936 46.9294894 18.2020851 46.9574894 17.915234 47.0081277 17.628383 47.0924255 17.2965532 47.1937021 16.9814043 47.3119574 16.6945532 47.4525532 16.4246809 47.5988085 16.1711915 47.7677021 15.9462979 47.9419574 15.7437447 48.1275319 15.5581702 48.3247234 15.3949362 48.5326383 15.2543404 48.7465106 15.1307234 48.9600851 15.0351064 49.1852766 14.9561702 49.4101702 14.9055319 49.6353617 14.8718723 49.8659149 14.8605532 50.0291489 14.8662128 50.1867234 14.8831915 50.3329787 14.9111915 50.4679149 14.9505106 50.5974894 14.9954894 50.7097872 15.0461277 50.822383 15.1080851 50.9236596 15.1700426 51.013617 15.2373617 51.0979149 15.3106383 51.1711915 15.3839149 51.2385106 15.4568936 51.2948085 15.5298723 51.3454468 15.6031489 51.3904255 15.670766 51.424383 15.7380851 51.8181702 13.5272766 53.3483404 13.5272766 52.0767234 20.885617"></polyline>
                    <polyline id="Stroke-25" stroke="#FFFFFF" stroke-width="0.216" points="52.0767234 20.885617 50.5185532 20.885617 50.6311489 20.2612766 50.6311489 20.2049787 50.5408936 20.3172766 50.4455745 20.4188511 50.3496596 20.5088085 50.2486809 20.5874468 50.1471064 20.6607234 50.0461277 20.722383 49.9448511 20.7733191 49.8379149 20.8236596 49.7309787 20.8632766 49.6240426 20.8912766 49.5171064 20.9192766 49.4048085 20.9362553 49.2922128 20.953234 49.1852766 20.9642553 49.0726809 20.9702128 48.9600851 20.9702128 48.6678723 20.9475745 48.3977021 20.885617 48.1501702 20.79 47.9249787 20.6607234 47.7224255 20.4974894 47.5425106 20.3062553 47.3849362 20.0980426 47.25 19.8618298 47.1374043 19.6086383 47.0474468 19.3441277 46.9854894 19.0685957 46.9405106 18.7817447 46.9238298 18.4948936 46.9294894 18.2020851 46.9574894 17.915234 47.0081277 17.628383 47.0924255 17.2965532 47.1937021 16.9814043 47.3119574 16.6945532 47.4525532 16.4246809 47.5988085 16.1711915 47.7677021 15.9462979 47.9419574 15.7437447 48.1275319 15.5581702 48.3247234 15.3949362 48.5326383 15.2543404 48.7465106 15.1307234 48.9600851 15.0351064 49.1852766 14.9561702 49.4101702 14.9055319 49.6353617 14.8718723 49.8659149 14.8605532 50.0291489 14.8662128 50.1867234 14.8831915 50.3329787 14.9111915 50.4679149 14.9505106 50.5974894 14.9954894 50.7097872 15.0461277 50.822383 15.1080851 50.9236596 15.1700426 51.013617 15.2373617 51.0979149 15.3106383 51.1711915 15.3839149 51.2385106 15.4568936 51.2948085 15.5298723 51.3454468 15.6031489 51.3904255 15.670766 51.424383 15.7380851 51.8181702 13.5272766 53.3483404 13.5272766 52.0767234 20.885617"></polyline>
                    <polyline id="Fill-26" fill="#F2AD3D" points="49.5284255 19.5243404 49.686 19.5130213 49.8322553 19.4793617 49.9671915 19.4397447 50.096766 19.3780851 50.2147234 19.3104681 50.3273191 19.2261702 50.4342553 19.1305532 50.5298723 19.0292766 50.6141702 18.9166809 50.6928085 18.792766 50.7660851 18.6634894 50.8280426 18.5285532 50.8843404 18.3879574 50.9293191 18.2417021 50.9686383 18.0897872 50.9966383 17.9378723 51.0249362 17.7802979 51.041617 17.6170638 51.041617 17.4651489 51.0359574 17.3078723 51.0192766 17.1613191 50.9966383 17.0207234 50.9573191 16.8857872 50.9123404 16.7565106 50.8560426 16.6439149 50.7887234 16.5369787 50.7154468 16.4470213 50.6311489 16.3680851 50.5355319 16.300766 50.4342553 16.2557872 50.3273191 16.2274894 50.2090638 16.2161702 50.0571489 16.2274894 49.9168511 16.2501277 49.7872766 16.2951064 49.6577021 16.3514043 49.5454043 16.4246809 49.4328085 16.5146383 49.3371915 16.6102553 49.2415745 16.7168936 49.1569787 16.8408085 49.0783404 16.9700851 49.0053617 17.1053191 48.9434043 17.2515745 48.8871064 17.4031915 48.8421277 17.5551064 48.7971489 17.7183404 48.7634894 17.8815745 48.7351915 18.1291064 48.7465106 18.3989787 48.7858298 18.6748085 48.8591064 18.9390213 48.9714043 19.1698723 49.1176596 19.3554468 49.3035319 19.4793617 49.5284255 19.5243404"></polyline>
                    <polyline id="Fill-27" fill="#FFFFFF" points="14.9811915 19.6366383 14.756 20.885617 13.3384255 20.885617 13.3777447 20.6550638 13.4060426 20.4468511 13.428383 20.2892766 13.4510213 20.2049787 13.3720851 20.2949362 13.2821277 20.3848936 13.1754894 20.4694894 13.057234 20.5481277 12.922 20.626766 12.7814043 20.694383 12.6351489 20.762 12.483234 20.8182979 12.3202979 20.8686383 12.1570638 20.9082553 11.9938298 20.9419149 11.825234 20.9642553 11.662 20.9755745 11.498766 20.981234 11.3411915 20.9642553 11.1895745 20.9419149 10.9926809 20.8912766 10.8124681 20.8349787 10.6548936 20.762 10.5142979 20.6774043 10.3906809 20.5874468 10.2780851 20.4861702 10.1881277 20.379234 10.1091915 20.2669362 10.0418723 20.1486809 9.98557447 20.024766 9.94059574 19.9011489 9.9066383 19.7775319 9.88429787 19.6479574 9.86731915 19.5186809 9.856 19.394766 9.856 19.2711489 9.87297872 19.051617 9.9066383 18.8434043 9.96293617 18.6465106 10.0362128 18.4552766 10.1261702 18.2753617 10.2274468 18.1121277 10.3457021 17.9545532 10.4806383 17.8139574 10.621234 17.6846809 10.7788085 17.5664255 10.9417447 17.4597872 11.1106383 17.3695319 11.2905532 17.2908936 11.4764255 17.2289362 11.6676596 17.1782979 11.8645532 17.1446383 11.8758723 17.1446383 11.9038723 17.1389787 11.9434894 17.1333191 12.0051489 17.1276596 12.072766 17.1163404 12.1514043 17.1109787 12.2357021 17.0996596 12.3313191 17.0883404 12.427234 17.0770213 12.5225532 17.0657021 12.6241277 17.0600426 12.7140851 17.0490213 12.8040426 17.0433617 12.8883404 17.0377021 12.9672766 17.0320426 13.1585106 17.0320426 13.2934468 17.0377021 13.4170638 17.0433617 13.5409787 17.0433617 13.6422553 17.0490213 13.7208936 17.0546809 13.7771915 17.0600426 13.7941702 17.0600426 13.8054894 17.0207234 13.8391489 16.9194468 13.8671489 16.8014894 13.8784681 16.6945532 13.8561277 16.5709362 13.8054894 16.4583404 13.7378723 16.3570638 13.6479149 16.272766 13.5409787 16.1994894 13.4227234 16.1488511 13.2877872 16.1151915 13.1415319 16.1038723 12.9839574 16.0982128 12.8153617 16.0925532 12.6408085 16.0925532 12.4608936 16.0982128 12.2753191 16.1095319 12.0951064 16.1262128 11.9151915 16.1431915 11.7406383 16.1658298 11.5720426 16.1881702 11.4088085 16.2161702 11.2625532 16.2444681 11.127617 16.272766 11.0037021 16.3064255 10.9024255 16.3400851 10.8237872 16.3794043 10.7618298 16.4133617 11.1612766 15.0574468 11.2848936 15.0068085 11.4088085 14.9618298 11.5437447 14.9225106 11.8139149 14.8662128 11.9601702 14.8438723 12.1064255 14.821234 12.2583404 14.8099149 12.4159149 14.7985957 12.5788511 14.7929362 12.7477447 14.7872766 13.2877872 14.7872766 13.4846809 14.7929362 13.6815745 14.7985957 13.8391489 14.8099149 14.0080426 14.8382128 14.1822979 14.8775319 14.3622128 14.9281702 14.536766 14.9954894 14.7053617 15.0744255 14.8742553 15.1700426 15.0318298 15.2769787 15.1724255 15.4005957 15.2960426 15.5355319 15.4086383 15.6874468 15.4929362 15.8563404 15.549234 16.0362553 15.5831915 16.2274894 15.5831915 16.4413617 15.549234 16.6665532 14.9811915 19.6366383"></polyline>
                    <polyline id="Stroke-28" stroke="#FFFFFF" stroke-width="0.216" points="14.9811915 19.6366383 14.756 20.885617 13.3384255 20.885617 13.3777447 20.6550638 13.4060426 20.4468511 13.428383 20.2892766 13.4510213 20.2049787 13.3720851 20.2949362 13.2821277 20.3848936 13.1754894 20.4694894 13.057234 20.5481277 12.922 20.626766 12.7814043 20.694383 12.6351489 20.762 12.483234 20.8182979 12.3202979 20.8686383 12.1570638 20.9082553 11.9938298 20.9419149 11.825234 20.9642553 11.662 20.9755745 11.498766 20.981234 11.3411915 20.9642553 11.1895745 20.9419149 10.9926809 20.8912766 10.8124681 20.8349787 10.6548936 20.762 10.5142979 20.6774043 10.3906809 20.5874468 10.2780851 20.4861702 10.1881277 20.379234 10.1091915 20.2669362 10.0418723 20.1486809 9.98557447 20.024766 9.94059574 19.9011489 9.9066383 19.7775319 9.88429787 19.6479574 9.86731915 19.5186809 9.856 19.394766 9.856 19.2711489 9.87297872 19.051617 9.9066383 18.8434043 9.96293617 18.6465106 10.0362128 18.4552766 10.1261702 18.2753617 10.2274468 18.1121277 10.3457021 17.9545532 10.4806383 17.8139574 10.621234 17.6846809 10.7788085 17.5664255 10.9417447 17.4597872 11.1106383 17.3695319 11.2905532 17.2908936 11.4764255 17.2289362 11.6676596 17.1782979 11.8645532 17.1446383 11.8758723 17.1446383 11.9038723 17.1389787 11.9434894 17.1333191 12.0051489 17.1276596 12.072766 17.1163404 12.1514043 17.1109787 12.2357021 17.0996596 12.3313191 17.0883404 12.427234 17.0770213 12.5225532 17.0657021 12.6241277 17.0600426 12.7140851 17.0490213 12.8040426 17.0433617 12.8883404 17.0377021 12.9672766 17.0320426 13.1585106 17.0320426 13.2934468 17.0377021 13.4170638 17.0433617 13.5409787 17.0433617 13.6422553 17.0490213 13.7208936 17.0546809 13.7771915 17.0600426 13.7941702 17.0600426 13.8054894 17.0207234 13.8391489 16.9194468 13.8671489 16.8014894 13.8784681 16.6945532 13.8561277 16.5709362 13.8054894 16.4583404 13.7378723 16.3570638 13.6479149 16.272766 13.5409787 16.1994894 13.4227234 16.1488511 13.2877872 16.1151915 13.1415319 16.1038723 12.9839574 16.0982128 12.8153617 16.0925532 12.6408085 16.0925532 12.4608936 16.0982128 12.2753191 16.1095319 12.0951064 16.1262128 11.9151915 16.1431915 11.7406383 16.1658298 11.5720426 16.1881702 11.4088085 16.2161702 11.2625532 16.2444681 11.127617 16.272766 11.0037021 16.3064255 10.9024255 16.3400851 10.8237872 16.3794043 10.7618298 16.4133617 11.1612766 15.0574468 11.2848936 15.0068085 11.4088085 14.9618298 11.5437447 14.9225106 11.8139149 14.8662128 11.9601702 14.8438723 12.1064255 14.821234 12.2583404 14.8099149 12.4159149 14.7985957 12.5788511 14.7929362 12.7477447 14.7872766 13.2877872 14.7872766 13.4846809 14.7929362 13.6815745 14.7985957 13.8391489 14.8099149 14.0080426 14.8382128 14.1822979 14.8775319 14.3622128 14.9281702 14.536766 14.9954894 14.7053617 15.0744255 14.8742553 15.1700426 15.0318298 15.2769787 15.1724255 15.4005957 15.2960426 15.5355319 15.4086383 15.6874468 15.4929362 15.8563404 15.549234 16.0362553 15.5831915 16.2274894 15.5831915 16.4413617 15.549234 16.6665532 14.9811915 19.6366383"></polyline>
                    <polyline id="Fill-29" fill="#D82331" points="13.6252766 18.1684255 13.619617 18.1404255 13.5972766 18.1121277 13.5633191 18.0951489 13.5073191 18.0841277 13.4453617 18.0728085 13.3720851 18.0671489 13.2034894 18.0671489 13.1135319 18.0728085 13.017617 18.0841277 12.9276596 18.0951489 12.8377021 18.1064681 12.7534043 18.1177872 12.6744681 18.134766 12.6071489 18.1517447 12.5451915 18.1684255 12.5058723 18.1797447 12.4608936 18.1967234 12.3989362 18.2190638 12.3369787 18.2470638 12.264 18.2810213 12.1907234 18.3203404 12.1120851 18.3596596 12.0388085 18.4046383 11.9601702 18.4609362 11.8871915 18.517234 11.8195745 18.5848511 11.757617 18.6521702 11.7013191 18.7254468 11.662 18.8040851 11.6283404 18.8940426 11.6113617 18.984 11.6057021 19.1755319 11.6337021 19.3274468 11.69 19.4397447 11.7632766 19.5243404 11.8475745 19.5806383 11.9434894 19.6142979 12.0331489 19.6309787 12.1234043 19.6366383 12.292 19.6309787 12.4439149 19.6142979 12.5901702 19.5916596 12.7194468 19.558 12.8320426 19.5186809 12.9389787 19.4680426 13.0345957 19.4174043 13.1191915 19.3554468 13.1921702 19.2991489 13.2597872 19.2318298 13.3160851 19.1698723 13.3610638 19.1022553 13.400383 19.0349362 13.4340426 18.9673191 13.4623404 18.9053617 13.4790213 18.8434043 13.524 18.6804681 13.5633191 18.4948936 13.5972766 18.3146809 13.6252766 18.1684255"></polyline>
                    <polyline id="Fill-30" fill="#FFFFFF" points="3.1446383 20.885617 1.61446809 20.885617 2.89144681 13.4992766 5.55234043 13.4992766 5.80553191 17.8815745 7.64519149 13.4992766 10.4243404 13.4992766 9.11906383 20.885617 7.58889362 20.885617 8.55668085 15.3669362 8.4947234 15.3669362 6.20497872 20.885617 4.47791489 20.885617 4.46659574 20.6550638 4.4272766 20.0417447 4.3766383 19.1698723 4.26434043 17.1613191 4.21370213 16.2781277 4.17408511 15.6368085 4.16276596 15.3669362 4.07846809 15.3669362 3.1446383 20.885617"></polyline>
                    <polyline id="Stroke-31" stroke="#FFFFFF" stroke-width="0.216" points="3.1446383 20.885617 1.61446809 20.885617 2.89144681 13.4992766 5.55234043 13.4992766 5.80553191 17.8815745 7.64519149 13.4992766 10.4243404 13.4992766 9.11906383 20.885617 7.58889362 20.885617 8.55668085 15.3669362 8.4947234 15.3669362 6.20497872 20.885617 4.47791489 20.885617 4.46659574 20.6550638 4.4272766 20.0417447 4.3766383 19.1698723 4.26434043 17.1613191 4.21370213 16.2781277 4.17408511 15.6368085 4.16276596 15.3669362 4.07846809 15.3669362 3.1446383 20.885617"></polyline>
                    <polyline id="Fill-32" fill="#FFFFFF" points="42.9013617 19.6366383 42.6708085 20.885617 41.2588936 20.885617 41.2699149 20.6550638 41.2755745 20.4525106 41.2755745 20.3005957 41.2868936 20.2329787 41.213617 20.3172766 41.1293191 20.4018723 41.0280426 20.4805106 40.9154468 20.5594468 40.7974894 20.6324255 40.6622553 20.7000426 40.5216596 20.7676596 40.3810638 20.8236596 40.2291489 20.8686383 40.0718723 20.913617 39.914 20.9419149 39.7567234 20.9642553 39.5934894 20.9755745 39.4359149 20.981234 39.284 20.9642553 39.1320851 20.9419149 38.9295319 20.8912766 38.749617 20.8349787 38.5920426 20.762 38.4457872 20.6774043 38.3221702 20.5874468 38.215234 20.4861702 38.1252766 20.379234 38.0463404 20.2669362 37.9790213 20.1486809 37.928383 20.024766 37.8834043 19.9011489 37.8551064 19.7775319 37.832766 19.6479574 37.8157872 19.5186809 37.8044681 19.394766 37.8044681 19.2711489 37.8157872 19.051617 37.8494468 18.8434043 37.9000851 18.6465106 37.9733617 18.4552766 38.0576596 18.2753617 38.1645957 18.1121277 38.2825532 17.9545532 38.4121277 17.8139574 38.558383 17.6846809 38.7102979 17.5664255 38.873234 17.4597872 39.0477872 17.3695319 39.2220426 17.2908936 39.4079149 17.2289362 39.5934894 17.1782979 39.7847234 17.1446383 39.7960426 17.1446383 39.8240426 17.1389787 39.8633617 17.1333191 39.9196596 17.1276596 39.9929362 17.1163404 40.0718723 17.1109787 40.1561702 17.0996596 40.2461277 17.0883404 40.3417447 17.0770213 40.4430213 17.0657021 40.5386383 17.0600426 40.6342553 17.0490213 40.7242128 17.0433617 40.8031489 17.0377021 40.8817872 17.0320426 41.0786809 17.0320426 41.213617 17.0377021 41.3431915 17.0433617 41.4668085 17.0433617 41.5737447 17.0490213 41.6637021 17.0546809 41.7146383 17.0600426 41.7369787 17.0600426 41.748 17.0207234 41.7649787 16.9194468 41.7819574 16.8014894 41.7929787 16.6945532 41.7706383 16.5709362 41.7256596 16.4583404 41.652383 16.3570638 41.5680851 16.272766 41.4668085 16.1994894 41.3488511 16.1488511 41.2249362 16.1151915 41.09 16.1038723 40.9324255 16.0982128 40.7635319 16.0925532 40.5892766 16.0925532 40.4090638 16.0982128 40.2234894 16.1095319 40.0435745 16.1262128 39.8633617 16.1431915 39.6891064 16.1658298 39.5202128 16.1881702 39.3572766 16.2161702 39.2110213 16.2444681 39.0760851 16.272766 38.9521702 16.3064255 38.8508936 16.3400851 38.7722553 16.3794043 38.7102979 16.4133617 39.1040851 15.0574468 39.2277021 15.0068085 39.3572766 14.9618298 39.4865532 14.9225106 39.6214894 14.8942128 39.762383 14.8662128 39.9029787 14.8438723 40.049234 14.821234 40.2011489 14.8099149 40.3587234 14.7985957 40.5216596 14.7929362 40.6848936 14.7872766 41.213617 14.7872766 41.4048511 14.7929362 41.5960851 14.7985957 41.7536596 14.8099149 41.9225532 14.8382128 42.0968085 14.8775319 42.2770213 14.9281702 42.4512766 14.9954894 42.6258298 15.0744255 42.7944255 15.1700426 42.952 15.2769787 43.0925957 15.4005957 43.2218723 15.5355319 43.3344681 15.6874468 43.4190638 15.8563404 43.4807234 16.0362553 43.5203404 16.2274894 43.5203404 16.4413617 43.4920426 16.6665532 42.9013617 19.6366383"></polyline>
                    <polyline id="Fill-36" fill="#FFFFFF" points="39.1264255 20.9755745 39.1264255 20.9755745 39.284 20.9982128 39.4359149 21.0151915 39.5934894 21.0095319 39.7567234 20.9982128 39.9196596 20.9755745 40.077234 20.9475745 40.2348085 20.9022979 40.392383 20.857617 40.5329787 20.8013191 40.679234 20.7337021 40.8141702 20.666383 40.9324255 20.5874468 41.0506809 20.5088085 41.1516596 20.4298723 41.2419149 20.3399149 41.3148936 20.255617 41.2588936 20.2106383 41.185617 20.2949362 41.1066809 20.3735745 41.0057021 20.4525106 40.898766 20.5311489 40.7805106 20.598766 40.5103404 20.7337021 40.3697447 20.79 40.2234894 20.8349787 40.0659149 20.8799574 39.9083404 20.9082553 39.7567234 20.9305957 39.5934894 20.9419149 39.4359149 20.9475745 39.284 20.9305957 39.1377447 20.9082553 39.1264255 20.9755745"></polyline>
                    <polyline id="Fill-37" fill="#FFFFFF" points="37.7651489 19.2711489 37.7651489 19.2711489 37.7708085 19.394766 37.7821277 19.5186809 37.7988085 19.653617 37.8214468 19.7828936 37.8494468 19.9068085 37.8944255 20.0360851 37.9450638 20.1656596 38.0183404 20.283617 38.0969787 20.4018723 38.1869362 20.5088085 38.2995319 20.6157447 38.4291064 20.7057021 38.5753617 20.7956596 38.7382979 20.8686383 38.9241702 20.9249362 39.1264255 20.9755745 39.1377447 20.9082553 38.9351915 20.857617 38.7609362 20.8013191 38.6090213 20.7280426 38.462766 20.6494043 38.3445106 20.5594468 38.243234 20.4638298 38.1532766 20.3568936 38.0746383 20.2499574 38.0126809 20.1317021 37.9620426 20.0137447 37.9170638 19.8954894 37.8890638 19.7718723 37.8664255 19.6422979 37.8494468 19.5186809 37.8384255 19.394766 37.8437872 19.2711489 37.7651489 19.2711489"></polyline>
                    <polyline id="Fill-38" fill="#FFFFFF" points="39.7847234 17.1109787 39.7847234 17.1109787 39.5878298 17.1446383 39.3965957 17.1952766 39.2110213 17.2569362 39.0308085 17.3358723 38.8565532 17.4258298 38.6876596 17.5384255 38.5357447 17.6566809 38.3894894 17.791617 38.2545532 17.9322128 38.1362979 18.0897872 38.024 18.258383 37.9394043 18.4439574 37.8664255 18.6354894 37.8157872 18.8380426 37.7821277 19.051617 37.7651489 19.2711489 37.8437872 19.2711489 37.8494468 19.051617 37.8834043 18.8490638 37.9340426 18.6578298 38.0070213 18.4665957 38.0913191 18.2920426 38.1925957 18.134766 38.3108511 17.9771915 38.4344681 17.8365957 38.5810213 17.7126809 38.7326383 17.5947234 38.8902128 17.4934468 39.064766 17.4031915 39.2333617 17.3245532 39.419234 17.2625957 39.5991489 17.2119574 39.7847234 17.1782979 39.7847234 17.1109787"></polyline>
                    <polyline id="Fill-42" fill="#FFFFFF" points="41.09 16.1375319 41.09 16.1431915 41.2192766 16.1488511 41.3375319 16.1825106 41.4498298 16.2331489 41.5457447 16.300766 41.624383 16.3794043 41.692 16.4750213 41.7369787 16.5762979 41.7593191 16.6945532 41.8269362 16.6945532 41.8042979 16.5652766 41.7593191 16.4413617 41.6806809 16.3344255 41.5907234 16.2444681 41.4837872 16.1658298 41.3598723 16.1151915 41.2305957 16.081234 41.09 16.0645532 41.09 16.1375319"></polyline>
                    <polyline id="Fill-46" fill="#FFFFFF" points="43.5257021 16.6719149 43.5257021 16.6719149 43.554 16.4413617 43.554 16.2274894 43.5146809 16.0305957 43.4527234 15.8450213 43.362766 15.670766 43.2501702 15.5131915 43.115234 15.3725957 42.9746383 15.2486809 42.8114043 15.1417447 42.6425106 15.040766 42.4625957 14.9618298 42.2880426 14.8942128 42.1024681 14.8438723 41.9282128 14.8042553 41.7536596 14.7762553 41.5960851 14.7649362 41.5960851 14.8325532 41.7536596 14.8438723 41.9168936 14.8718723 42.0911489 14.9111915 42.2657021 14.9618298 42.4402553 15.0294468 42.6088511 15.1080851 42.7777447 15.1980426 42.9296596 15.3049787 43.0702553 15.4288936 43.1938723 15.5581702 43.3064681 15.7044255 43.3851064 15.8676596 43.4470638 16.0419149 43.486383 16.2274894 43.486383 16.4413617 43.458383 16.6608936 43.5257021 16.6719149"></polyline>
                    <polyline id="Fill-47" fill="#FFFFFF" points="42.9350213 19.6422979 42.9350213 19.6422979 43.5257021 16.6719149 43.458383 16.6608936 42.8677021 19.6309787 42.9350213 19.6422979"></polyline>
                    <polyline id="Fill-48" fill="#F2AD3D" points="41.5400851 18.1684255 41.528766 18.134766 41.5061277 18.1064681 41.4668085 18.0897872 41.4105106 18.0728085 41.3488511 18.0671489 41.2755745 18.0614894 41.1912766 18.0614894 41.1066809 18.0671489 41.0170213 18.0784681 40.926766 18.0897872 40.8368085 18.1008085 40.7522128 18.1121277 40.6679149 18.1291064 40.5949362 18.1404255 40.5216596 18.1571064 40.4653617 18.1684255 40.4260426 18.1740851 40.3810638 18.1910638 40.3250638 18.2077447 40.2628085 18.230383 40.1898298 18.2640426 40.1222128 18.2977021 40.0435745 18.3373191 39.8973191 18.4385957 39.8240426 18.5002553 39.762383 18.5622128 39.7004255 18.6354894 39.6497872 18.7141277 39.6104681 18.7984255 39.5765106 18.8886809 39.5598298 18.984 39.5541702 19.1755319 39.5821702 19.3274468 39.6271489 19.4397447 39.694766 19.5243404 39.7790638 19.5806383 39.8746809 19.6142979 39.9702979 19.6309787 40.0659149 19.6366383 40.2348085 19.6309787 40.392383 19.6142979 40.5386383 19.586 40.6679149 19.5466809 40.7918298 19.5017021 40.898766 19.4510638 41.0000426 19.394766 41.09 19.3274468 41.1686383 19.2654894 41.2362553 19.1922128 41.2979149 19.1248936 41.3488511 19.051617 41.3881702 18.984 41.4161702 18.9166809 41.4388085 18.8490638 41.4554894 18.7874043 41.4781277 18.6298298 41.5061277 18.4665957 41.528766 18.3090213 41.5400851 18.1684255"></polyline>
                    <polyline id="Fill-54" fill="#FFFFFF" points="43.3234468 20.885617 44.909617 20.885617 45.4779574 17.6846809 45.5002979 17.560766 45.5679149 17.313234 45.6128936 17.189617 45.6691915 17.0657021 45.7368085 16.9477447 45.8097872 16.8351489 45.9000426 16.7282128 46.0010213 16.6325957 46.113617 16.5426383 46.2431915 16.4583404 46.3894468 16.3907234 46.552383 16.3344255 46.7325957 16.2894468 46.9294894 16.2557872 47.1487234 16.2444681 47.2893191 16.2444681 47.5425106 14.7985957 47.3849362 14.8099149 47.2330213 14.8268936 47.0924255 14.8548936 46.9574894 14.8942128 46.8338723 14.9391915 46.715617 14.9954894 46.6030213 15.0574468 46.4960851 15.1250638 46.3951064 15.2037021 46.2991915 15.2826383 46.1192766 15.4625532 46.0349787 15.5581702 45.9506809 15.6651064 45.8660851 15.766383 45.7874468 15.8786809 45.9563404 14.8605532 44.375234 14.8605532 43.3234468 20.885617"></polyline>
                    <polyline id="Stroke-55" stroke="#FFFFFF" stroke-width="0.216" points="43.3234468 20.885617 44.909617 20.885617 45.4779574 17.6846809 45.5002979 17.560766 45.5679149 17.313234 45.6128936 17.189617 45.6691915 17.0657021 45.7368085 16.9477447 45.8097872 16.8351489 45.9000426 16.7282128 46.0010213 16.6325957 46.113617 16.5426383 46.2431915 16.4583404 46.3894468 16.3907234 46.552383 16.3344255 46.7325957 16.2894468 46.9294894 16.2557872 47.1487234 16.2444681 47.2893191 16.2444681 47.5425106 14.7985957 47.3849362 14.8099149 47.2330213 14.8268936 47.0924255 14.8548936 46.9574894 14.8942128 46.8338723 14.9391915 46.715617 14.9954894 46.6030213 15.0574468 46.4960851 15.1250638 46.3951064 15.2037021 46.2991915 15.2826383 46.1192766 15.4625532 46.0349787 15.5581702 45.9506809 15.6651064 45.8660851 15.766383 45.7874468 15.8786809 45.9563404 14.8605532 44.375234 14.8605532 43.3234468 20.885617"></polyline>
                    <polyline id="Fill-56" fill="#FFFFFF" points="28.4265532 20.885617 30.0410213 20.885617 30.5810638 17.6846809 30.6037021 17.560766 30.6317021 17.4428085 30.66 17.3245532 30.6993191 17.2119574 30.7442979 17.0996596 30.8005957 16.9927234 30.8682128 16.8914468 30.9468511 16.7958298 31.0368085 16.711234 31.1380851 16.6269362 31.262 16.559617 31.3969362 16.4976596 31.5542128 16.4470213 31.728766 16.4020426 31.92 16.3737447 32.1395319 16.3570638 32.1562128 16.3570638 32.1788511 16.3627234 32.2068511 16.3680851 32.2351489 16.3680851 32.2631489 16.3737447 32.2857872 16.3794043 32.3024681 16.3850638 32.3081277 16.3850638 32.3137872 16.3627234 32.330766 16.2951064 32.3531064 16.1938298 32.3814043 16.0702128 32.4207234 15.9239574 32.4600426 15.766383 32.5106809 15.6088085 32.5613191 15.451234 32.6062979 15.3442979 32.7188936 15.1307234 32.7751915 15.0351064 32.8258298 14.9505106 32.8651489 14.8831915 32.8931489 14.8438723 32.9044681 14.8268936 32.8988085 14.8268936 32.8764681 14.821234 32.8481702 14.8155745 32.8088511 14.8099149 32.7695319 14.8099149 32.7245532 14.8042553 32.685234 14.7985957 32.6459149 14.7985957 32.4713617 14.8099149 32.3137872 14.8268936 32.1675319 14.8548936 32.0325957 14.8888511 31.9030213 14.9338298 31.7850638 14.9898298 31.6781277 15.0461277 31.5768511 15.1137447 31.481234 15.1867234 31.3912766 15.2713191 31.3069787 15.355617 31.222383 15.451234 31.1380851 15.5468511 31.0594468 15.6537872 30.8905532 15.8786809 31.0931064 14.8605532 29.4786383 14.8605532 28.4265532 20.885617"></polyline>
                    <polyline id="Stroke-57" stroke="#FFFFFF" stroke-width="0.216" points="28.4265532 20.885617 30.0410213 20.885617 30.5810638 17.6846809 30.6037021 17.560766 30.6317021 17.4428085 30.66 17.3245532 30.6993191 17.2119574 30.7442979 17.0996596 30.8005957 16.9927234 30.8682128 16.8914468 30.9468511 16.7958298 31.0368085 16.711234 31.1380851 16.6269362 31.262 16.559617 31.3969362 16.4976596 31.5542128 16.4470213 31.728766 16.4020426 31.92 16.3737447 32.1395319 16.3570638 32.1562128 16.3570638 32.1788511 16.3627234 32.2068511 16.3680851 32.2351489 16.3680851 32.2631489 16.3737447 32.2857872 16.3794043 32.3024681 16.3850638 32.3081277 16.3850638 32.3137872 16.3627234 32.330766 16.2951064 32.3531064 16.1938298 32.3814043 16.0702128 32.4207234 15.9239574 32.4600426 15.766383 32.5106809 15.6088085 32.5613191 15.451234 32.6062979 15.3442979 32.7188936 15.1307234 32.7751915 15.0351064 32.8258298 14.9505106 32.8651489 14.8831915 32.8931489 14.8438723 32.9044681 14.8268936 32.8988085 14.8268936 32.8764681 14.821234 32.8481702 14.8155745 32.8088511 14.8099149 32.7695319 14.8099149 32.7245532 14.8042553 32.685234 14.7985957 32.6459149 14.7985957 32.4713617 14.8099149 32.3137872 14.8268936 32.1675319 14.8548936 32.0325957 14.8888511 31.9030213 14.9338298 31.7850638 14.9898298 31.6781277 15.0461277 31.5768511 15.1137447 31.481234 15.1867234 31.3912766 15.2713191 31.3069787 15.355617 31.222383 15.451234 31.1380851 15.5468511 31.0594468 15.6537872 30.8905532 15.8786809 31.0931064 14.8605532 29.4786383 14.8605532 28.4265532 20.885617"></polyline>
                </g>
                <g id="Group">
                    <polyline id="Fill-1" fill="#001AA9" points="26.9675 20.4195 22.101 20.4195 25.1425 1.7275 30.0095 1.7275 26.9675 20.4195"></polyline>
                    <path d="M18.007,1.7275 L13.367,14.5835 L12.8185,11.815 L12.819,11.816 L11.181,3.411 C11.181,3.411 10.9835,1.7275 8.8725,1.7275 L1.203,1.7275 L1.1135,2.0435 C1.1135,2.0435 3.4595,2.5315 6.2035,4.181 L10.4315,20.4195 L15.502,20.4195 L23.2445,1.7275 L18.007,1.7275" id="Fill-2" fill="#001AA9"></path>
                    <path d="M50.9295,13.8075 L53.487,6.812 L54.9255,13.8075 L50.9295,13.8075 Z M56.2845,20.4195 L60.753,20.4195 L56.857,1.7275 L52.9445,1.7275 C51.1375,1.7275 50.698,3.1205 50.698,3.1205 L43.4405,20.4195 L48.5125,20.4195 L49.5275,17.6435 L55.714,17.6435 L56.2845,20.4195 L56.2845,20.4195 Z" id="Fill-3" fill="#001AA9"></path>
                    <path d="M43.821,6.2225 L44.515,2.208 C44.515,2.208 42.372,1.393 40.138,1.393 C37.723,1.393 31.9885,2.449 31.9885,7.581 C31.9885,12.4105 38.719,12.4705 38.719,15.006 C38.719,17.5415 32.682,17.0885 30.69,15.489 L29.966,19.6855 C29.966,19.6855 32.1385,20.7415 35.4595,20.7415 C38.78,20.7415 43.7905,19.021 43.7905,14.342 C43.7905,9.482 36.999,9.0295 36.999,6.9165 C36.999,4.8035 41.7385,5.075 43.821,6.2225" id="Fill-4" fill="#001AA9"></path>
                    <path d="M13.1135,12.5574999 L11.2943552,2.70160962 C11.2943552,2.70160962 11.0750138,0.7275 8.73056036,0.7275 L0.212897719,0.7275 L0.1135,1.09804864 C0.1135,1.09804864 4.20768649,1.99451838 8.13528463,5.35056336 C11.8890756,8.55885793 13.1135,12.5574999 13.1135,12.5574999" id="Fill-5" fill="#FFA500"></path>
                </g>
            </g>
        </g>
    </g>
</svg>