<svg xmlns="http://www.w3.org/2000/svg"><symbol id="icon-card" viewBox="0 0 24 18"><path d="M21.764.238H2.236A2.239 2.239 0 0 0 0 2.474v12.652a2.239 2.239 0 0 0 2.236 2.236h19.528A2.239 2.239 0 0 0 24 15.126V2.474A2.239 2.239 0 0 0 21.764.238zm1.064 14.888c0 .587-.478 1.064-1.065 1.064H2.236a1.065 1.065 0 0 1-1.064-1.064V6.432h21.656v8.694zm0-11.039H1.172V2.474c0-.587.478-1.064 1.065-1.064h19.527c.587 0 1.064.477 1.064 1.064v1.613z"/></symbol><symbol id="pic-money-middle" viewBox="0 0 100 97"><g fill="none" fill-rule="evenodd"><path d="M10.408 39.31C9.496 37.803 9 36.185 9 34.5 9 26.492 20.193 20 34 20s25 6.492 25 14.5c0 1.901-.63 3.716-1.777 5.38 1.122.511 1.777 1.227 1.777 2.218V53c0 7.732-11.193 14-25 14S9 60.732 9 53V40.349c0-.45.518-.788 1.408-1.04z" fill="#FFF"/><path d="M50.374 44.113c-4.423 2.704-10.338 4.193-16.656 4.193-6.317 0-12.232-1.489-16.655-4.193-4.167-2.548-6.462-5.848-6.462-9.293 0-3.445 2.295-6.746 6.462-9.293 4.423-2.705 10.338-4.194 16.655-4.194 6.318 0 12.233 1.49 16.656 4.194 4.167 2.547 6.461 5.848 6.461 9.293 0 3.445-2.294 6.745-6.461 9.293zm6.461-.567c0 2.735-1.45 5.376-4.13 7.624v-4.589c1.633-1.062 3.015-2.242 4.13-3.511v.476zm0 8.873c0 2.735-1.45 5.376-4.13 7.624v-4.588c1.633-1.063 3.015-2.243 4.13-3.512v.476zm-5.241-.39c-.389.277-.792.549-1.22.81a25.106 25.106 0 0 1-3.902 1.92v-5.176a29.515 29.515 0 0 0 5.122-2.324v4.77zm0 8.873c-.389.277-.792.549-1.22.81a25.082 25.082 0 0 1-3.902 1.92v-5.176a29.494 29.494 0 0 0 5.122-2.324v4.77zM45.36 55.17c-1.615.56-3.33.999-5.122 1.31v-5.35a37.08 37.08 0 0 0 5.122-1.183v5.223zm0 8.873c-1.615.56-3.33.999-5.122 1.31v-5.35a37.08 37.08 0 0 0 5.122-1.183v5.223zm-6.233-7.389c-1.66.235-3.374.362-5.121.375v-5.394a41.948 41.948 0 0 0 5.121-.346v5.365zm0 8.873c-1.66.235-3.374.362-5.121.375v-5.394a41.893 41.893 0 0 0 5.121-.345v5.364zm-6.233-8.506a38.202 38.202 0 0 1-5.121-.445v-5.36c1.666.24 3.38.378 5.121.41v5.395zm0 8.873a38.248 38.248 0 0 1-5.121-.445v-5.36c1.666.24 3.38.378 5.121.411v5.394zm-6.232-9.51a32.086 32.086 0 0 1-5.122-1.402v-5.2c1.63.532 3.347.95 5.122 1.258v5.344zm0 8.873a32.085 32.085 0 0 1-5.122-1.401v-5.202c1.63.533 3.347.952 5.122 1.259v5.344zM20.43 54.544a24.735 24.735 0 0 1-3.367-1.704c-.63-.386-1.212-.79-1.755-1.207v-4.686l.016.01a28.76 28.76 0 0 0 5.106 2.44v5.147zm0 8.873a24.656 24.656 0 0 1-3.367-1.705c-.63-.384-1.212-.789-1.755-1.206V55.82l.016.01a28.798 28.798 0 0 0 5.106 2.44v5.147zm-6.233-12.713c-2.338-2.143-3.596-4.61-3.596-7.158v-.476c.991 1.128 2.194 2.186 3.596 3.153v4.48zm0 8.873c-2.338-2.143-3.596-4.61-3.596-7.158v-.476c.991 1.128 2.194 2.185 3.596 3.153v4.481zM33.718 18c-3.726 0-7.335.486-10.648 1.402 0 0-15.07 4.897-15.07 12.941v24.074c1.156 3.092 3.658 5.898 7.324 8.14 4.939 3.02 11.471 4.682 18.394 4.682 6.923 0 13.455-1.663 18.395-4.683 5.195-3.176 8.056-7.486 8.056-12.137v-17.6c0-4.65-2.861-8.96-8.056-12.136C47.173 19.663 40.64 18 33.718 18z" fill="#1DB318" fill-rule="nonzero"/><path d="M10.408 21.31C9.496 19.803 9 18.185 9 16.5 9 8.492 20.193 2 34 2s25 6.492 25 14.5c0 1.901-.63 3.716-1.777 5.38 1.122.511 1.777 1.227 1.777 2.218V35c0 7.732-11.193 14-25 14S9 42.732 9 35V22.349c0-.45.518-.788 1.408-1.04z" fill="#FFF"/><path d="M50.374 26.113c-4.423 2.704-10.338 4.193-16.656 4.193-6.317 0-12.232-1.489-16.655-4.193-4.167-2.548-6.462-5.848-6.462-9.293 0-3.445 2.295-6.746 6.462-9.293 4.423-2.705 10.338-4.194 16.655-4.194 6.318 0 12.233 1.49 16.656 4.194 4.167 2.547 6.461 5.848 6.461 9.293 0 3.445-2.294 6.745-6.461 9.293zm6.461-.567c0 2.735-1.45 5.376-4.13 7.624v-4.589c1.633-1.062 3.015-2.242 4.13-3.511v.476zm0 8.873c0 2.735-1.45 5.376-4.13 7.624v-4.588c1.633-1.063 3.015-2.243 4.13-3.512v.476zm-5.241-.39c-.389.277-.792.549-1.22.81a25.106 25.106 0 0 1-3.902 1.92v-5.176a29.515 29.515 0 0 0 5.122-2.324v4.77zm0 8.873c-.389.277-.792.549-1.22.81a25.082 25.082 0 0 1-3.902 1.92v-5.176a29.494 29.494 0 0 0 5.122-2.324v4.77zM45.36 37.17c-1.615.56-3.33.999-5.122 1.31v-5.35a37.08 37.08 0 0 0 5.122-1.183v5.223zm0 8.873c-1.615.56-3.33.999-5.122 1.31v-5.35a37.08 37.08 0 0 0 5.122-1.183v5.223zm-6.233-7.389c-1.66.235-3.374.362-5.121.375v-5.394a41.948 41.948 0 0 0 5.121-.346v5.365zm0 8.873c-1.66.235-3.374.362-5.121.375v-5.394a41.893 41.893 0 0 0 5.121-.345v5.364zm-6.233-8.506a38.202 38.202 0 0 1-5.121-.445v-5.36c1.666.24 3.38.378 5.121.41v5.395zm0 8.873a38.248 38.248 0 0 1-5.121-.445v-5.36c1.666.24 3.38.378 5.121.411v5.394zm-6.232-9.51a32.086 32.086 0 0 1-5.122-1.402v-5.2c1.63.532 3.347.95 5.122 1.258v5.344zm0 8.873a32.085 32.085 0 0 1-5.122-1.401v-5.202c1.63.533 3.347.952 5.122 1.259v5.344zM20.43 36.544a24.735 24.735 0 0 1-3.367-1.704c-.63-.386-1.212-.79-1.755-1.207v-4.686l.016.01a28.76 28.76 0 0 0 5.106 2.44v5.147zm0 8.873a24.656 24.656 0 0 1-3.367-1.705c-.63-.384-1.212-.789-1.755-1.206V37.82l.016.01a28.798 28.798 0 0 0 5.106 2.44v5.147zm-6.233-12.713c-2.338-2.143-3.596-4.61-3.596-7.158v-.476c.991 1.128 2.194 2.186 3.596 3.153v4.48zm0 8.873c-2.338-2.143-3.596-4.61-3.596-7.158v-.476c.991 1.128 2.194 2.185 3.596 3.153v4.481zM33.718 0c-3.726 0-7.335.486-10.648 1.402 0 0-15.07 4.897-15.07 12.941v24.074c1.156 3.092 3.658 5.898 7.324 8.14 4.939 3.02 11.471 4.682 18.394 4.682 6.923 0 13.455-1.663 18.395-4.683 5.195-3.176 8.056-7.486 8.056-12.137v-17.6c0-4.65-2.861-8.96-8.056-12.136C47.173 1.663 40.64 0 33.718 0z" fill="#1DB318" fill-rule="nonzero"/><path d="M49.408 50.31C48.496 48.803 48 47.185 48 45.5 48 37.492 59.193 31 73 31s25 6.492 25 14.5c0 1.901-.63 3.716-1.777 5.38 1.122.511 1.777 1.227 1.777 2.218V64c0 7.732-11.193 14-25 14s-25-6.268-25-14V51.349c0-.45.518-.788 1.408-1.04z" fill="#FFF"/><path d="M89.374 55.113c-4.423 2.704-10.338 4.193-16.656 4.193-6.317 0-12.232-1.489-16.655-4.193-4.167-2.548-6.462-5.848-6.462-9.293 0-3.445 2.295-6.746 6.462-9.293 4.423-2.705 10.338-4.194 16.655-4.194 6.318 0 12.233 1.49 16.656 4.194 4.167 2.547 6.461 5.848 6.461 9.293 0 3.445-2.294 6.745-6.461 9.293zm6.461-.567c0 2.735-1.45 5.376-4.13 7.624v-4.589c1.633-1.062 3.015-2.242 4.13-3.511v.476zm0 8.873c0 2.735-1.45 5.376-4.13 7.624v-4.588c1.633-1.063 3.015-2.243 4.13-3.512v.476zm-5.241-.39c-.389.277-.792.549-1.22.81a25.106 25.106 0 0 1-3.902 1.92v-5.176a29.515 29.515 0 0 0 5.122-2.324v4.77zm0 8.873c-.389.277-.792.549-1.22.81a25.082 25.082 0 0 1-3.902 1.92v-5.176a29.494 29.494 0 0 0 5.122-2.324v4.77zM84.36 66.17c-1.615.56-3.33.999-5.122 1.31v-5.35a37.08 37.08 0 0 0 5.122-1.183v5.223zm0 8.873c-1.615.56-3.33.999-5.122 1.31v-5.35a37.08 37.08 0 0 0 5.122-1.183v5.223zm-6.233-7.389c-1.66.235-3.374.362-5.121.375v-5.394a41.948 41.948 0 0 0 5.121-.346v5.365zm0 8.873c-1.66.235-3.374.362-5.121.375v-5.394a41.893 41.893 0 0 0 5.121-.345v5.364zm-6.233-8.506a38.202 38.202 0 0 1-5.121-.445v-5.36c1.666.24 3.38.378 5.121.41v5.395zm0 8.873a38.248 38.248 0 0 1-5.121-.445v-5.36c1.666.24 3.38.378 5.121.411v5.394zm-6.232-9.51a32.086 32.086 0 0 1-5.122-1.402v-5.2c1.63.532 3.347.95 5.122 1.258v5.344zm0 8.873a32.085 32.085 0 0 1-5.122-1.401v-5.202c1.63.533 3.347.952 5.122 1.259v5.344zM59.43 65.544a24.735 24.735 0 0 1-3.367-1.704c-.63-.386-1.212-.79-1.755-1.207v-4.686l.016.01a28.76 28.76 0 0 0 5.106 2.44v5.147zm0 8.873a24.656 24.656 0 0 1-3.367-1.705c-.63-.384-1.212-.789-1.755-1.206V66.82l.016.01a28.798 28.798 0 0 0 5.106 2.44v5.147zm-6.233-12.713c-2.338-2.143-3.596-4.61-3.596-7.158v-.476c.991 1.128 2.194 2.186 3.596 3.153v4.48zm0 8.873c-2.338-2.143-3.596-4.61-3.596-7.158v-.476c.991 1.128 2.194 2.185 3.596 3.153v4.481zM72.718 29c-3.726 0-7.335.486-10.648 1.402 0 0-15.07 4.897-15.07 12.941v24.074c1.156 3.092 3.658 5.898 7.324 8.14 4.939 3.02 11.471 4.682 18.394 4.682 6.923 0 13.455-1.663 18.395-4.683 5.195-3.176 8.056-7.486 8.056-12.137v-17.6c0-4.65-2.861-8.96-8.056-12.136C86.173 30.663 79.64 29 72.718 29z" fill="#1DB318" fill-rule="nonzero"/><path d="M2.408 66.31C1.496 64.803 1 63.185 1 61.5 1 53.492 12.193 47 26 47s25 6.492 25 14.5c0 1.901-.63 3.716-1.777 5.38 1.122.511 1.777 1.227 1.777 2.218V80c0 7.732-11.193 14-25 14S1 87.732 1 80V67.349c0-.45.518-.788 1.408-1.04z" fill="#FFF"/><path d="M42.374 71.113c-4.423 2.704-10.338 4.193-16.656 4.193-6.317 0-12.232-1.489-16.655-4.193-4.167-2.548-6.462-5.848-6.462-9.293 0-3.445 2.295-6.746 6.462-9.293 4.423-2.705 10.338-4.194 16.655-4.194 6.318 0 12.233 1.49 16.656 4.194 4.167 2.547 6.461 5.848 6.461 9.293 0 3.445-2.294 6.745-6.461 9.293zm6.461-.567c0 2.735-1.45 5.376-4.13 7.624v-4.589c1.633-1.062 3.015-2.242 4.13-3.511v.476zm0 8.873c0 2.735-1.45 5.376-4.13 7.624v-4.588c1.633-1.063 3.015-2.243 4.13-3.512v.476zm-5.241-.39c-.389.277-.792.549-1.22.81a25.106 25.106 0 0 1-3.902 1.92v-5.176a29.515 29.515 0 0 0 5.122-2.324v4.77zm0 8.873c-.389.277-.792.549-1.22.81a25.082 25.082 0 0 1-3.902 1.92v-5.176a29.494 29.494 0 0 0 5.122-2.324v4.77zM37.36 82.17c-1.615.56-3.33.999-5.122 1.31v-5.35a37.08 37.08 0 0 0 5.122-1.183v5.223zm0 8.873c-1.615.56-3.33.999-5.122 1.31v-5.35a37.08 37.08 0 0 0 5.122-1.183v5.223zm-6.233-7.389c-1.66.235-3.374.362-5.121.375v-5.394a41.948 41.948 0 0 0 5.121-.346v5.365zm0 8.873c-1.66.235-3.374.362-5.121.375v-5.394a41.893 41.893 0 0 0 5.121-.345v5.364zm-6.233-8.506a38.202 38.202 0 0 1-5.121-.445v-5.36c1.666.24 3.38.378 5.121.41v5.395zm0 8.873a38.248 38.248 0 0 1-5.121-.445v-5.36c1.666.24 3.38.378 5.121.411v5.394zm-6.232-9.51a32.086 32.086 0 0 1-5.122-1.402v-5.2c1.63.532 3.347.95 5.122 1.258v5.344zm0 8.873a32.085 32.085 0 0 1-5.122-1.401v-5.202c1.63.533 3.347.952 5.122 1.259v5.344zM12.43 81.544a24.735 24.735 0 0 1-3.367-1.704c-.63-.386-1.212-.79-1.755-1.207v-4.686l.016.01a28.76 28.76 0 0 0 5.106 2.44v5.147zm0 8.873a24.656 24.656 0 0 1-3.367-1.705c-.63-.384-1.212-.789-1.755-1.206V82.82l.016.01a28.798 28.798 0 0 0 5.106 2.44v5.147zM6.197 77.704c-2.338-2.143-3.596-4.61-3.596-7.158v-.476c.991 1.128 2.194 2.186 3.596 3.153v4.48zm0 8.873c-2.338-2.143-3.596-4.61-3.596-7.158v-.476c.991 1.128 2.194 2.185 3.596 3.153v4.481zM25.718 45c-3.726 0-7.335.486-10.648 1.402 0 0-15.07 4.897-15.07 12.941v24.074c1.156 3.092 3.658 5.898 7.324 8.14 4.939 3.02 11.471 4.682 18.394 4.682 6.923 0 13.455-1.663 18.395-4.683 5.195-3.176 8.056-7.486 8.056-12.137v-17.6c0-4.65-2.861-8.96-8.056-12.136C39.173 46.663 32.64 45 25.718 45z" fill="#1DB318" fill-rule="nonzero"/></g></symbol></svg>