<?xml version="1.0" encoding="UTF-8" standalone="no"?>
<svg
        xmlns:dc="http://purl.org/dc/elements/1.1/"
        xmlns:cc="http://creativecommons.org/ns#"
        xmlns:rdf="http://www.w3.org/1999/02/22-rdf-syntax-ns#"
        xmlns:svg="http://www.w3.org/2000/svg"
        xmlns="http://www.w3.org/2000/svg"
        xmlns:sodipodi="http://sodipodi.sourceforge.net/DTD/sodipodi-0.dtd"
        xmlns:inkscape="http://www.inkscape.org/namespaces/inkscape"
        inkscape:version="1.0 (4035a4fb49, 2020-05-01)"
        sodipodi:docname="Liqpay_logo_full.svg"
        id="svg449"
        version="1.1"
        height="30"
        width="42">
    <metadata
            id="metadata455">
        <rdf:RDF>
            <cc:Work
                    rdf:about="">
                <dc:format>image/svg+xml</dc:format>
                <dc:type
                        rdf:resource="http://purl.org/dc/dcmitype/StillImage" />
                <dc:title></dc:title>
            </cc:Work>
        </rdf:RDF>
    </metadata>
    <defs
            id="defs453" />
    <sodipodi:namedview
            inkscape:current-layer="svg449"
            inkscape:window-maximized="1"
            inkscape:window-y="84"
            inkscape:window-x="-8"
            inkscape:cy="16.324877"
            inkscape:cx="15.197292"
            inkscape:zoom="12.925"
            inkscape:guide-bbox="true"
            showguides="true"
            showgrid="false"
            id="namedview451"
            inkscape:window-height="653"
            inkscape:window-width="1366"
            inkscape:pageshadow="2"
            inkscape:pageopacity="0"
            guidetolerance="10"
            gridtolerance="10"
            objecttolerance="10"
            borderopacity="1"
            bordercolor="#666666"
            pagecolor="#ffffff">
        <sodipodi:guide
                id="guide457"
                orientation="0,-1"
                position="-15.170213,10.980658" />
        <sodipodi:guide
                id="guide459"
                orientation="0,-1"
                position="18.646035,15.067698" />
    </sodipodi:namedview>
    <g
            transform="translate(1,1)"
            id="g422">
        <title
                id="title419">background</title>
        <rect
                x="-1"
                y="-1"
                width="42"
                height="42"
                id="canvas_background"
                fill="none" />
    </g>
    <g
            transform="translate(0.7463134,-4.7731854)"
            id="g447">
        <title
                id="title424">Layer 1</title>
        <metadata
                id="metadata426"
                transform="matrix(0.02442116900831426,0,0,0.02442116900831426,0,0) ">image/svg+xml</metadata>
        <style
                id="style428"
                type="text/css"
                transform="matrix(0.02442116900831426,0,0,0.02442116900831426,0,0) ">.st0{fill:none;}
            .st1{fill:#76A62D;}</style>
        <style
                id="style430"
                type="text/css"
                transform="matrix(0.0010365953835634323,0,0,0.0010365953835634323,0,0) ">.st0{fill:none;}
            .st1{fill:#76A62D;}</style>
        <g
                id="svg_43"
                stroke="null">
            <g
                    id="svg_29"
                    transform="matrix(0.01421855,0,0,0.01421855,-254.02592,-254.39598)"
                    stroke="null">
                <polygon
                        class="st0"
                        points="19498.076,19332.736 19416.576,19101.937 19337.477,19332.736 "
                        id="svg_30"
                        stroke="null" />
                <g
                        id="svg_31"
                        stroke="null">
                    <polygon
                            class="st0"
                            points="19498.076,19332.736 19416.576,19101.937 19337.477,19332.736 "
                            id="svg_32"
                            stroke="null" />
                    <path
                            class="st1"
                            d="m 19465.575,19061.237 c -4.5,-13.2 -10.4,-24.4 -23.1,-24.9 v 0 h -0.8 -10.6 -20.4 c -0.9,-0.1 -1.9,-0.2 -2.9,-0.2 h -10.2 c -1,0 -2,0.1 -2.9,0.2 v 0 c -10.6,1.6 -15.9,12.2 -19.9,24.6 l -157,438.7 c 0,5.8 4.7,10.5 10.5,10.5 h 32.8 c 13,0 19.7,-10.7 23.6,-23.6 l 31.3,-91.4 c 2.2,-6.3 8.1,-10.5 14.8,-10.5 h 174.6 c 6.6,0 12.5,4.2 14.7,10.4 l 32.6,92.4 c 4,12.9 11,23.6 24.6,23.6 h 34.3 c 6.1,0 11,-4.7 11,-10.5 z m -128.1,271.5 79.2,-230.8 81.5,230.8 z"
                            id="svg_33"
                            stroke="null" />
                </g>
                <g
                        id="svg_34"
                        stroke="null">
                    <path
                            class="st1"
                            d="m 19924.575,19037.537 c -4.2,-1.6 -28.5,-1.4 -28.5,-1.4 -16.3,0.4 -26.7,0 -34,10.1 -1.1,1.5 -1.9,3.1 -2.7,4.7 l -97.3,210.5 -100.2,-210.4 c -0.8,-1.6 -1.6,-3.2 -2.7,-4.7 -7.3,-10.1 -17.7,-9.8 -34,-10.1 0,0 -24.3,-0.2 -28.5,1.4 -10,3.8 -3.4,16.1 1.3,26.2 l 122.9,245.2 c 5.6,11.2 8.5,23.5 8.5,36 v 148 c 0,10 8.1,18.1 18.1,18.1 h 25.7 c 10,0 18.1,-8.1 18.1,-18.1 v -147.3 c 0,-12.5 2.9,-24.8 8.5,-36 l 123.4,-246 c 4.8,-10.1 11.4,-22.4 1.4,-26.2 z"
                            id="svg_35"
                            stroke="null" />
                    <path
                            class="st1"
                            d="m 20394.375,19266.537 v 0 0 0 l -295,-247.1 c -2.2,-1.8 -5.4,-1.7 -7.4,0.4 l -43.6,45.4 240.9,201.3 -240.9,201.3 43.6,45.4 c 2,2.1 5.2,2.2 7.4,0.4 z"
                            id="svg_36"
                            stroke="null" />
                    <path
                            class="st1"
                            d="m 20606.375,19268.537 v 0 l -295,-247.1 c -2.2,-1.8 -5.4,-1.7 -7.4,0.4 l -43.6,45.4 240.9,201.3 -240.9,201.3 43.6,45.4 c 2,2.1 5.2,2.2 7.4,0.4 z"
                            id="svg_37"
                            stroke="null" />
                </g>
                <g
                        id="svg_38"
                        stroke="null">
                    <path
                            class="st1"
                            d="m 18299.575,19035.837 h -37.2 c -7.8,0 -14,6.3 -14,14 v 445.5 c 0,8.1 6.6,14.8 14.8,14.8 h 35.8 c 8.1,0 14.8,-6.6 14.8,-14.8 v -445.4 c -0.1,-7.8 -6.4,-14.1 -14.2,-14.1 z"
                            id="svg_39"
                            stroke="null" />
                    <path
                            class="st1"
                            d="m 18166.475,19453.637 h -166.1 v -403.7 c 0,-7.8 -6.3,-14 -14,-14 h -33.9 c -7.8,0 -14,6.3 -14,14 v 403.8 36.9 0 c 0,9.2 7.4,16.6 16.6,16.6 v 0 h 45.4 166.1 c 8,0 14.4,-6.4 14.4,-14.4 v -24.8 c -0.1,-7.9 -6.6,-14.4 -14.5,-14.4 z"
                            id="svg_40"
                            stroke="null" />
                    <path
                            class="st1"
                            d="m 19169.075,19062.037 c -20.7,-14 -49.3,-23.9 -104,-23.9 h -86.3 -19.6 c -12.6,0 -22.9,10.2 -22.9,22.9 v 425.6 c 0,13 10.5,23.6 23.6,23.6 h 18.2 c 13,0 23.6,-10.5 23.6,-23.6 v -159.9 c 19.6,0 87.4,0 95.4,0 9.3,0 128.7,-18.7 128.7,-148.7 -0.1,-56.6 -29.1,-97.2 -56.7,-116 z m -93.7,215.7 c -6.2,0 -66.5,0 -66.5,0 h -7.3 v -190.6 h 52.6 c 36.1,0 55,6.5 68.7,15.8 18.3,12.4 37.4,39.2 37.4,76.6 0.1,85.9 -78.7,98.2 -84.9,98.2 z"
                            id="svg_41"
                            stroke="null" />
                    <path
                            class="st1"
                            d="m 18875.775,19520.737 c -2.6,-1.9 -5.5,-3.3 -8.6,-4.5 -24.6,-9.4 -60.5,-34.3 -80.5,-47.2 -15.5,-10 -13.1,-17.9 -11,-21.2 0.4,-0.5 0.9,-1.1 1.3,-1.6 0.1,-0.1 0.1,-0.1 0.1,-0.1 v 0 c 34,-41.7 53.7,-101.1 53.7,-176.1 0,-132.6 -56.7,-240.1 -210.6,-240.1 -141.6,0 -209.6,107.5 -209.6,240.1 0,132.6 45.7,246.1 209.6,246.1 33.3,0 63.9,-6.4 90.8,-18.8 h 0.1 c 7.9,-3.4 15.6,-3.3 26.2,4.4 76,56.3 113.7,77 140.7,77 13,0 10.7,-40 10.7,-40 0,0 -1.9,-10.1 -12.9,-18 z m -398,-249.7 c 0,-0.3 0,-0.6 0,-1 0.2,-90 33,-185.5 142.6,-185.5 124.2,0 143.2,95.5 143.3,185.5 0,0.3 0,0.6 0,1 0,107.1 -34.7,188.5 -143.3,188.5 -124.7,0 -142.6,-98.2 -142.6,-188.5 z"
                            id="svg_42"
                            stroke="null" />
                </g>
            </g>
        </g>
    </g>
</svg>