<svg width="40" height="40" xmlns="http://www.w3.org/2000/svg">

 <g>
  <title>background</title>
  <rect fill="none" id="canvas_background" height="42" width="42" y="-1" x="-1"/>
 </g>
 <g>
  <title>Layer 1</title>
  <metadata transform="matrix(0.02442116900831426,0,0,0.02442116900831426,0,0) ">image/svg+xml</metadata>
  <style transform="matrix(0.02442116900831426,0,0,0.02442116900831426,0,0) " type="text/css">.st0{fill:none;}
	.st1{fill:#76A62D;}</style>
  <style transform="matrix(0.0010365953835634323,0,0,0.0010365953835634323,0,0) " type="text/css">.st0{fill:none;}
	.st1{fill:#76A62D;}</style>
  <g stroke="null" id="svg_43">
   <g stroke="null" transform="matrix(0.014218548772839477,0,0,0.014218548772839477,-254.02592208713935,-254.39597796850984) " id="svg_29">
    <polygon stroke="null" id="svg_30" points="19337.4765625,19332.735768318176 19498.076171875,19332.735768318176 19416.576171875,19101.936940193176 " class="st0"/>
    <g stroke="null" id="svg_31">
     <polygon stroke="null" id="svg_32" points="19337.4765625,19332.735768318176 19498.076171875,19332.735768318176 19416.576171875,19101.936940193176 " class="st0"/>
     <path stroke="null" id="svg_33" d="m19465.57539,19061.23655c-4.5,-13.2 -10.4,-24.4 -23.1,-24.9l0,0l-0.8,0l-10.6,0l-20.4,0c-0.9,-0.1 -1.9,-0.2 -2.9,-0.2l-10.2,0c-1,0 -2,0.1 -2.9,0.2l0,0c-10.6,1.6 -15.9,12.2 -19.9,24.6l-157,438.7c0,5.8 4.7,10.5 10.5,10.5l32.8,0c13,0 19.7,-10.7 23.6,-23.6l31.3,-91.4c2.2,-6.3 8.1,-10.5 14.8,-10.5l174.6,0c6.6,0 12.5,4.2 14.7,10.4l32.6,92.4c4,12.9 11,23.6 24.6,23.6l34.3,0c6.1,0 11,-4.7 11,-10.5l-157,-439.3zm-128.1,271.5l79.2,-230.8l81.5,230.8l-160.7,0z" class="st1"/>
    </g>
    <g stroke="null" id="svg_34">
     <path stroke="null" id="svg_35" d="m19924.57539,19037.53655c-4.2,-1.6 -28.5,-1.4 -28.5,-1.4c-16.3,0.4 -26.7,0 -34,10.1c-1.1,1.5 -1.9,3.1 -2.7,4.7l-97.3,210.5l-100.2,-210.4c-0.8,-1.6 -1.6,-3.2 -2.7,-4.7c-7.3,-10.1 -17.7,-9.8 -34,-10.1c0,0 -24.3,-0.2 -28.5,1.4c-10,3.8 -3.4,16.1 1.3,26.2l122.9,245.2c5.6,11.2 8.5,23.5 8.5,36l0,148c0,10 8.1,18.1 18.1,18.1l25.7,0c10,0 18.1,-8.1 18.1,-18.1l0,-147.3c0,-12.5 2.9,-24.8 8.5,-36l123.4,-246c4.8,-10.1 11.4,-22.4 1.4,-26.2z" class="st1"/>
     <path stroke="null" id="svg_36" d="m20394.37539,19266.53655l0,0l0,0l0,0l-295,-247.1c-2.2,-1.8 -5.4,-1.7 -7.4,0.4l-43.6,45.4l240.9,201.3l-240.9,201.3l43.6,45.4c2,2.1 5.2,2.2 7.4,0.4l295,-247.1l0,0z" class="st1"/>
     <path stroke="null" id="svg_37" d="m20606.37539,19268.53655l0,0l-295,-247.1c-2.2,-1.8 -5.4,-1.7 -7.4,0.4l-43.6,45.4l240.9,201.3l-240.9,201.3l43.6,45.4c2,2.1 5.2,2.2 7.4,0.4l295,-247.1l0,0l0,0l0,0z" class="st1"/>
    </g>
    <g stroke="null" id="svg_38">
     <path stroke="null" id="svg_39" d="m18299.57539,19035.83655l-37.2,0c-7.8,0 -14,6.3 -14,14l0,445.5c0,8.1 6.6,14.8 14.8,14.8l35.8,0c8.1,0 14.8,-6.6 14.8,-14.8l0,-445.4c-0.1,-7.8 -6.4,-14.1 -14.2,-14.1z" class="st1"/>
     <path stroke="null" id="svg_40" d="m18166.47539,19453.63655l-166.1,0l0,-403.7c0,-7.8 -6.3,-14 -14,-14l-33.9,0c-7.8,0 -14,6.3 -14,14l0,403.8l0,36.9l0,0c0,9.2 7.4,16.6 16.6,16.6l0,0l45.4,0l166.1,0c8,0 14.4,-6.4 14.4,-14.4l0,-24.8c-0.1,-7.9 -6.6,-14.4 -14.5,-14.4z" class="st1"/>
     <path stroke="null" id="svg_41" d="m19169.07539,19062.03655c-20.7,-14 -49.3,-23.9 -104,-23.9l-86.3,0l-19.6,0c-12.6,0 -22.9,10.2 -22.9,22.9l0,425.6c0,13 10.5,23.6 23.6,23.6l18.2,0c13,0 23.6,-10.5 23.6,-23.6l0,-159.9c19.6,0 87.4,0 95.4,0c9.3,0 128.7,-18.7 128.7,-148.7c-0.1,-56.6 -29.1,-97.2 -56.7,-116zm-93.7,215.7c-6.2,0 -66.5,0 -66.5,0l-7.3,0l0,-190.6l52.6,0c36.1,0 55,6.5 68.7,15.8c18.3,12.4 37.4,39.2 37.4,76.6c0.1,85.9 -78.7,98.2 -84.9,98.2z" class="st1"/>
     <path stroke="null" id="svg_42" d="m18875.77539,19520.73655c-2.6,-1.9 -5.5,-3.3 -8.6,-4.5c-24.6,-9.4 -60.5,-34.3 -80.5,-47.2c-15.5,-10 -13.1,-17.9 -11,-21.2c0.4,-0.5 0.9,-1.1 1.3,-1.6c0.1,-0.1 0.1,-0.1 0.1,-0.1l0,0c34,-41.7 53.7,-101.1 53.7,-176.1c0,-132.6 -56.7,-240.1 -210.6,-240.1c-141.6,0 -209.6,107.5 -209.6,240.1s45.7,246.1 209.6,246.1c33.3,0 63.9,-6.4 90.8,-18.8l0.1,0c7.9,-3.4 15.6,-3.3 26.2,4.4c76,56.3 113.7,77 140.7,77c13,0 10.7,-40 10.7,-40s-1.9,-10.1 -12.9,-18zm-398,-249.7c0,-0.3 0,-0.6 0,-1c0.2,-90 33,-185.5 142.6,-185.5c124.2,0 143.2,95.5 143.3,185.5c0,0.3 0,0.6 0,1c0,107.1 -34.7,188.5 -143.3,188.5c-124.7,0 -142.6,-98.2 -142.6,-188.5z" class="st1"/>
    </g>
   </g>
  </g>
 </g>
</svg>