<svg width="40" height="40" xmlns="http://www.w3.org/2000/svg">

 <g>
  <title>background</title>
  <rect fill="none" id="canvas_background" height="42" width="42" y="-1" x="-1"/>
 </g>
 <g>
  <title>Layer 1</title>
  <metadata transform="matrix(0.02442116900831426,0,0,0.02442116900831426,0,0) ">image/svg+xml</metadata>
  <style transform="matrix(0.02442116900831426,0,0,0.02442116900831426,0,0) " type="text/css">.st0{fill:none;}
	.st1{fill:#76A62D;}</style>
  <g stroke="null" id="svg_24">
   <g stroke="null" transform="matrix(0.05730393220545019,0,0,0.05730393220545019,-29.713730091182853,-29.418053566402705) " id="svg_21" fill="#76a62d">
    <path stroke="null" id="svg_22" d="m934.544733,861.384912l-295,-247.1c-2.2,-1.8 -5.4,-1.7 -7.4,0.4l-43.6,45.4l240.9,201.3l-240.9,201.3l43.6,45.4c2,2.1 5.2,2.2 7.4,0.4l295,-247.1z" class="st1"/>
    <path stroke="null" id="svg_23" d="m1146.544733,863.384912l-295,-247.1c-2.2,-1.8 -5.4,-1.7 -7.4,0.4l-43.6,45.4l240.9,201.3l-240.9,201.3l43.6,45.4c2,2.1 5.2,2.2 7.4,0.4l295,-247.1z" class="st1"/>
   </g>
  </g>
 </g>
</svg>