<svg width="40" height="40" xmlns="http://www.w3.org/2000/svg">

 <g>
  <title>background</title>
  <rect fill="none" id="canvas_background" height="42" width="42" y="-1" x="-1"/>
 </g>
 <g>
  <title>Layer 1</title>
  <g stroke="null" id="svg_3">
   <path stroke="null" id="svg_1" d="m20,5.05855c2.0183,0 3.973615,0.394349 5.813226,1.172778a14.823691,14.823691 0 0 1 4.74862,3.203402a14.905162,14.905162 0 0 1 3.202717,4.747935a14.849022,14.849022 0 0 1 1.173462,5.81391a14.836014,14.836014 0 0 1 -1.173462,5.812541a14.823691,14.823691 0 0 1 -3.202717,4.749305a14.905162,14.905162 0 0 1 -4.74862,3.202717a14.849022,14.849022 0 0 1 -5.813226,1.172778a14.836014,14.836014 0 0 1 -5.813226,-1.172778a14.823691,14.823691 0 0 1 -4.74862,-3.202717a14.905162,14.905162 0 0 1 -3.202717,-4.74862a14.849022,14.849022 0 0 1 -1.173462,-5.813226c0,-2.018985 0.395034,-3.974299 1.173462,-5.81391a14.823691,14.823691 0 0 1 3.202717,-4.747935a14.905162,14.905162 0 0 1 4.74862,-3.203402a14.836014,14.836014 0 0 1 5.813226,-1.172778zm0,-1.489763c-9.07619,0 -16.431211,7.355021 -16.431211,16.431211c0,9.072082 7.355021,16.431211 16.431211,16.431211c9.072082,0 16.431211,-7.355021 16.431211,-16.431211c-0.003423,-9.07619 -7.359129,-16.431211 -16.431211,-16.431211z" fill="#8BC34A"/>
   <path stroke="null" id="svg_2" d="m19.006596,25.694097l-7.417323,0c0.145142,-2.615986 1.413769,-3.550511 3.386199,-4.78559c1.220702,-0.770898 2.713204,-1.604782 2.713204,-3.260911c0,-1.268626 -0.900293,-2.151119 -2.199044,-2.151119c-1.701315,0 -2.289415,1.444577 -2.322962,2.858346l-1.261095,0l-0.015062,-0.304662c0,-2.248337 1.462378,-3.740839 3.662106,-3.740839c2.151119,0 3.550511,1.299435 3.550511,3.308835c0,2.214106 -1.734177,3.275288 -3.405368,4.287177c-1.042013,0.625071 -2.233275,1.239187 -2.537937,2.52356l5.846773,0l0,1.265203zm9.378114,-2.754282l-1.555488,0l0,2.754282l-1.269311,0l0,-2.754282l-4.994404,0l0,-1.387753l5.02042,-7.242741l1.243295,0l0,7.373506l1.555488,0l0,1.256988zm-2.824799,-6.661487l-3.639513,5.400391l3.639513,0l0,-5.400391z" fill="#303030"/>
  </g>
  <g transform="matrix(4.7524210811848775,0,0,4.7524210811848775,0,0) " id="svg_15">
   <title transform="translate(-15.791619300842285,0) translate(0,-15.791619300842285) ">background</title>
   <rect x="-16.791619" y="-16.791619" width="42" height="42" id="svg_13" fill="none"/>
  </g>
 </g>
</svg>