<?xml version="1.0" encoding="UTF-8" standalone="no"?>
<svg
        xmlns:dc="http://purl.org/dc/elements/1.1/"
        xmlns:cc="http://creativecommons.org/ns#"
        xmlns:rdf="http://www.w3.org/1999/02/22-rdf-syntax-ns#"
        xmlns:svg="http://www.w3.org/2000/svg"
        xmlns="http://www.w3.org/2000/svg"
        xmlns:sodipodi="http://sodipodi.sourceforge.net/DTD/sodipodi-0.dtd"
        xmlns:inkscape="http://www.inkscape.org/namespaces/inkscape"
        inkscape:version="1.0 (4035a4fb49, 2020-05-01)"
        sodipodi:docname="privat_logo_short.svg"
        id="svg307"
        version="1.1"
        height="30"
        width="30">
    <metadata
            id="metadata313">
        <rdf:RDF>
            <cc:Work
                    rdf:about="">
                <dc:format>image/svg+xml</dc:format>
                <dc:type
                        rdf:resource="http://purl.org/dc/dcmitype/StillImage" />
            </cc:Work>
        </rdf:RDF>
    </metadata>
    <defs
            id="defs311" />
    <sodipodi:namedview
            inkscape:current-layer="g305"
            inkscape:window-maximized="1"
            inkscape:window-y="53"
            inkscape:window-x="-8"
            inkscape:cy="20"
            inkscape:cx="20"
            inkscape:zoom="10.496621"
            showgrid="false"
            id="namedview309"
            inkscape:window-height="684"
            inkscape:window-width="1366"
            inkscape:pageshadow="2"
            inkscape:pageopacity="0"
            guidetolerance="10"
            gridtolerance="10"
            objecttolerance="10"
            borderopacity="1"
            bordercolor="#666666"
            pagecolor="#ffffff" />
    <g
            id="g294">
        <title
                id="title291">background</title>
        <rect
                x="-1"
                y="-1"
                width="42"
                height="42"
                id="canvas_background"
                fill="none" />
    </g>
    <g
            id="g305">
        <title
                id="title296">Layer 1</title>
        <g
                transform="matrix(0.9128968,0,0,0.9128968,-3.2579361,-3.2579342)"
                id="svg_3"
                stroke="null">
            <path
                    fill="#8bc34a"
                    d="m 20,5.05855 c 2.0183,0 3.973615,0.394349 5.813226,1.172778 a 14.823691,14.823691 0 0 1 4.74862,3.203402 14.905162,14.905162 0 0 1 3.202717,4.747935 14.849022,14.849022 0 0 1 1.173462,5.81391 14.836014,14.836014 0 0 1 -1.173462,5.812541 14.823691,14.823691 0 0 1 -3.202717,4.749305 14.905162,14.905162 0 0 1 -4.74862,3.202717 A 14.849022,14.849022 0 0 1 20,34.933916 14.836014,14.836014 0 0 1 14.186774,33.761138 14.823691,14.823691 0 0 1 9.438154,30.558421 14.905162,14.905162 0 0 1 6.235437,25.809801 14.849022,14.849022 0 0 1 5.061975,19.996575 c 0,-2.018985 0.395034,-3.974299 1.173462,-5.81391 A 14.823691,14.823691 0 0 1 9.438154,9.43473 14.905162,14.905162 0 0 1 14.186774,6.231328 14.836014,14.836014 0 0 1 20,5.05855 Z m 0,-1.489763 c -9.07619,0 -16.431211,7.355021 -16.431211,16.431211 0,9.072082 7.355021,16.431211 16.431211,16.431211 9.072082,0 16.431211,-7.355021 16.431211,-16.431211 C 36.427788,10.923808 29.072082,3.568787 20,3.568787 Z"
                    id="svg_1"
                    stroke="null" />
            <path
                    fill="#303030"
                    d="m 19.006596,25.694097 h -7.417323 c 0.145142,-2.615986 1.413769,-3.550511 3.386199,-4.78559 1.220702,-0.770898 2.713204,-1.604782 2.713204,-3.260911 0,-1.268626 -0.900293,-2.151119 -2.199044,-2.151119 -1.701315,0 -2.289415,1.444577 -2.322962,2.858346 h -1.261095 l -0.01506,-0.304662 c 0,-2.248337 1.462378,-3.740839 3.662106,-3.740839 2.151119,0 3.550511,1.299435 3.550511,3.308835 0,2.214106 -1.734177,3.275288 -3.405368,4.287177 -1.042013,0.625071 -2.233275,1.239187 -2.537937,2.52356 H 19.0066 v 1.265203 z m 9.378114,-2.754282 h -1.555488 v 2.754282 h -1.269311 v -2.754282 h -4.994404 v -1.387753 l 5.02042,-7.242741 h 1.243295 v 7.373506 h 1.555488 z m -2.824799,-6.661487 -3.639513,5.400391 h 3.639513 z"
                    id="svg_2"
                    stroke="null" />
        </g>
        <g
                id="svg_15"
                transform="scale(4.7524211)">
            <title
                    id="title301"
                    transform="translate(-15.791619300842285,0) translate(0,-15.791619300842285) ">background</title>
            <rect
                    fill="none"
                    id="svg_13"
                    height="42"
                    width="42"
                    y="-16.791618"
                    x="-16.791618" />
        </g>
    </g>
</svg>