<?xml version="1.0" encoding="UTF-8" standalone="no"?>
<svg
        xmlns:dc="http://purl.org/dc/elements/1.1/"
        xmlns:cc="http://creativecommons.org/ns#"
        xmlns:rdf="http://www.w3.org/1999/02/22-rdf-syntax-ns#"
        xmlns:svg="http://www.w3.org/2000/svg"
        xmlns="http://www.w3.org/2000/svg"
        xmlns:sodipodi="http://sodipodi.sourceforge.net/DTD/sodipodi-0.dtd"
        xmlns:inkscape="http://www.inkscape.org/namespaces/inkscape"
        inkscape:version="1.0 (4035a4fb49, 2020-05-01)"
        sodipodi:docname="privat_logo_full.svg"
        id="svg98"
        version="1.1"
        height="30"
        width="99.531242">
    <metadata
            id="metadata104">
        <rdf:RDF>
            <cc:Work
                    rdf:about="">
                <dc:format>image/svg+xml</dc:format>
                <dc:type
                        rdf:resource="http://purl.org/dc/dcmitype/StillImage" />
            </cc:Work>
        </rdf:RDF>
    </metadata>
    <defs
            id="defs102" />
    <sodipodi:namedview
            inkscape:current-layer="svg98"
            inkscape:window-maximized="1"
            inkscape:window-y="53"
            inkscape:window-x="-8"
            inkscape:cy="20"
            inkscape:cx="18.85347"
            inkscape:zoom="10.236842"
            showgrid="false"
            id="namedview100"
            inkscape:window-height="684"
            inkscape:window-width="1366"
            inkscape:pageshadow="2"
            inkscape:pageopacity="0"
            guidetolerance="10"
            gridtolerance="10"
            objecttolerance="10"
            borderopacity="1"
            bordercolor="#666666"
            pagecolor="#ffffff"
            inkscape:document-rotation="0" />
    <g
            id="g79" />
    <g
            transform="matrix(0.9172192,0,0,0.9172192,-2.5158549,-3.3443756)"
            id="g96">
        <title
                id="title81">Layer 1</title>
        <metadata
                id="metadata83"
                transform="matrix(0.02442116900831426,0,0,0.02442116900831426,0,0) ">image/svg+xml</metadata>
        <style
                id="style85"
                type="text/css"
                transform="matrix(0.02442116900831426,0,0,0.02442116900831426,0,0) ">.st0{fill:none;}
            .st1{fill:#76A62D;}</style>
        <style
                id="style87"
                type="text/css"
                transform="matrix(0.0010365953835634323,0,0,0.0010365953835634323,0,0) ">.st0{fill:none;}
            .st1{fill:#76A62D;}</style>
        <g
                id="svg_53"
                stroke="null">
            <g
                    fill="none"
                    fill-rule="evenodd"
                    id="svg_47"
                    transform="matrix(0.39926525,0,0,0.39926525,-164.9666,-57.533933)"
                    stroke="null">
                <g
                        fill-rule="nonzero"
                        id="svg_48"
                        stroke="null">
                    <path
                            fill="#71b03e"
                            d="m 461.00513,156.45067 c 5.09639,0 10.03868,0.99744 14.6895,2.96455 4.49383,1.90073 8.53034,4.62242 11.99743,8.08952 3.4671,3.46709 6.18887,7.5036 8.08952,11.99735 1.96711,4.65082 2.96455,9.59311 2.96455,14.6895 0,5.0964 -0.99744,10.03861 -2.96455,14.68943 -1.90073,4.49375 -4.62242,8.53025 -8.08952,11.99735 -3.46709,3.46709 -7.5036,6.18879 -11.99743,8.08951 -4.65082,1.96712 -9.59303,2.96456 -14.6895,2.96456 -5.0964,0 -10.03869,-0.99744 -14.68943,-2.96456 -4.49375,-1.90072 -8.53025,-4.62242 -11.99735,-8.08951 -3.46709,-3.4671 -6.18879,-7.5036 -8.08951,-11.99735 -1.96712,-4.65082 -2.96456,-9.59303 -2.96456,-14.68943 0,-5.09639 0.99744,-10.03868 2.96456,-14.6895 1.90072,-4.49375 4.62242,-8.53026 8.08951,-11.99735 3.4671,-3.4671 7.5036,-6.18879 11.99735,-8.08952 4.65074,-1.96711 9.59303,-2.96455 14.68943,-2.96455 z m 0,-3.21884 c -22.62138,0 -40.95977,18.33823 -40.95977,40.95976 0,22.62138 18.33831,40.95961 40.95977,40.95961 22.62145,0 40.95976,-18.33831 40.95976,-40.95961 0,-22.62153 -18.33831,-40.95976 -40.95976,-40.95976 z"
                            id="svg_49"
                            stroke="null" />
                    <g
                            fill="#424242"
                            id="svg_50"
                            stroke="null">
                        <path
                                d="m 458.51521,208.37294 h -18.50738 c 0.36051,-6.52974 3.5252,-8.8531 8.45252,-11.93764 3.04446,-1.92285 6.77003,-4.00593 6.77003,-8.132 0,-3.16469 -2.24329,-5.3679 -5.48812,-5.3679 -4.2463,0 -5.70967,3.60534 -5.78982,7.13054 h -3.14899 l -0.0344,-0.7611 c 0,-5.60827 3.64534,-9.33383 9.13354,-9.33383 5.36783,0 8.85303,3.24475 8.85303,8.25214 0,5.52812 -4.32637,8.17216 -8.49251,10.69589 -2.60389,1.56227 -5.56828,3.09315 -6.32937,6.29791 h 14.58159 v 3.15599 z m 23.39334,-6.87086 h -3.88064 l 10e-4,6.87086 h -3.16983 l -0.001,-6.87086 h -12.45845 l 10e-4,-3.46259 12.52765,-18.06857 h 3.10063 v 18.38909 H 481.91 Z m -7.04902,-16.61872 -9.08261,13.47665 h 9.08261 z"
                                id="svg_51"
                                stroke="null" />
                    </g>
                </g>
                <path
                        fill="#424242"
                        d="m 520.07392,181.34551 h 21.684 v 27.846 h -3.705 v -24.726 h -14.274 v 24.726 h -3.705 z m 27.339,7.683 h 3.315 v 2.73 h 0.078 c 0.54601,-1.118 1.404,-1.93049 2.574,-2.4375 1.17001,-0.507 2.457,-0.7605 3.861,-0.7605 1.56001,0 2.9185,0.286 4.0755,0.858 1.15701,0.57201 2.119,1.3455 2.886,2.3205 0.76701,0.97501 1.3455,2.0995 1.7355,3.3735 0.39001,1.27401 0.585,2.626 0.585,4.056 0,1.45601 -0.18849,2.8145 -0.5655,4.0755 -0.377,1.26101 -0.94899,2.366 -1.716,3.315 -0.767,0.94901 -1.72899,1.6965 -2.886,2.2425 -1.157,0.54601 -2.50249,0.819 -4.0365,0.819 -0.52,0 -1.07899,-0.052 -1.677,-0.156 -0.598,-0.104 -1.19599,-0.273 -1.794,-0.507 -0.598,-0.234 -1.16349,-0.55249 -1.6965,-0.9555 -0.533,-0.403 -0.98149,-0.90349 -1.3455,-1.5015 h -0.078 v 10.374 h -3.315 z m 9.555,17.706 c 1.11801,0 2.067,-0.22099 2.847,-0.663 0.78001,-0.442 1.404,-1.02699 1.872,-1.755 0.468,-0.728 0.806,-1.55999 1.014,-2.496 0.208,-0.936 0.312,-1.89799 0.312,-2.886 0,-0.936 -0.1235,-1.85249 -0.3705,-2.7495 -0.247,-0.897 -0.62399,-1.69649 -1.131,-2.3985 -0.507,-0.702 -1.15699,-1.26099 -1.95,-1.677 -0.793,-0.416 -1.72249,-0.624 -2.7885,-0.624 -1.118,0 -2.06699,0.221 -2.847,0.663 -0.78,0.44201 -1.417,1.0205 -1.911,1.7355 -0.494,0.71501 -0.8515,1.5275 -1.0725,2.4375 -0.221,0.91001 -0.3315,1.833 -0.3315,2.769 0,0.98801 0.117,1.9435 0.351,2.8665 0.234,0.92301 0.6045,1.7355 1.1115,2.4375 0.50701,0.70201 1.1635,1.2675 1.9695,1.6965 0.80601,0.42901 1.781,0.6435 2.925,0.6435 z m 13.455,-17.706 h 3.315 v 16.458 l 9.516,-16.458 h 4.251 v 20.163 h -3.315 v -16.458 l -9.516,16.458 h -4.251 z m 22.074,0 h 9.321 c 0.88401,0 1.7355,0.065 2.5545,0.195 0.81901,0.13 1.5535,0.3705 2.2035,0.7215 0.65001,0.35101 1.17,0.8515 1.56,1.5015 0.39,0.65001 0.585,1.482 0.585,2.496 0,1.09201 -0.25999,1.976 -0.78,2.652 -0.52,0.67601 -1.24799,1.235 -2.184,1.677 v 0.039 c 1.17001,0.234 2.0995,0.78 2.7885,1.638 0.68901,0.85801 1.0335,1.963 1.0335,3.315 0,0.85801 -0.1495,1.651 -0.4485,2.379 -0.299,0.72801 -0.72149,1.352 -1.2675,1.872 -0.546,0.52001 -1.19599,0.9295 -1.95,1.2285 -0.754,0.29901 -1.57299,0.4485 -2.457,0.4485 h -10.959 z m 10.335,17.355 c 1.09201,0 1.9175,-0.31849 2.4765,-0.9555 0.55901,-0.637 0.8385,-1.43649 0.8385,-2.3985 0,-0.91 -0.29899,-1.63799 -0.897,-2.184 -0.598,-0.546 -1.59899,-0.819 -3.003,-0.819 h -6.474 v 6.357 z m -1.365,-9.087 c 1.43001,0 2.4245,-0.25999 2.9835,-0.78 0.55901,-0.52 0.8385,-1.20899 0.8385,-2.067 0,-0.832 -0.27299,-1.47549 -0.819,-1.9305 -0.546,-0.455 -1.54699,-0.6825 -3.003,-0.6825 h -5.694 v 5.46 z m 17.667,12.324 c -0.91,0 -1.76799,-0.0975 -2.574,-0.2925 -0.806,-0.195 -1.51449,-0.51999 -2.1255,-0.975 -0.611,-0.455 -1.09199,-1.03999 -1.443,-1.755 -0.351,-0.715 -0.5265,-1.57949 -0.5265,-2.5935 0,-1.144 0.195,-2.07999 0.585,-2.808 0.39001,-0.728 0.9035,-1.31949 1.5405,-1.7745 0.63701,-0.455 1.365,-0.79949 2.184,-1.0335 0.81901,-0.234 1.6575,-0.42899 2.5155,-0.585 0.91001,-0.182 1.7745,-0.31849 2.5935,-0.4095 0.81901,-0.091 1.5405,-0.22099 2.1645,-0.39 0.62401,-0.169 1.118,-0.41599 1.482,-0.741 0.364,-0.325 0.546,-0.79949 0.546,-1.4235 0,-0.728 -0.1365,-1.31299 -0.4095,-1.755 -0.273,-0.442 -0.624,-0.77999 -1.053,-1.014 -0.429,-0.234 -0.90999,-0.39 -1.443,-0.468 -0.533,-0.078 -1.05949,-0.117 -1.5795,-0.117 -1.404,0 -2.57399,0.2665 -3.51,0.7995 -0.936,0.53301 -1.443,1.5405 -1.521,3.0225 h -3.315 c 0.052,-1.248 0.312,-2.30099 0.78,-3.159 0.468,-0.858 1.092,-1.55349 1.872,-2.0865 0.78001,-0.533 1.6705,-0.91649 2.6715,-1.1505 1.00101,-0.234 2.0735,-0.351 3.2175,-0.351 0.91001,0 1.8135,0.065 2.7105,0.195 0.89701,0.13001 1.7095,0.3965 2.4375,0.7995 0.72801,0.40301 1.313,0.9685 1.755,1.6965 0.442,0.72801 0.663,1.677 0.663,2.847 v 10.374 c 0,0.78001 0.0455,1.352 0.1365,1.716 0.091,0.36401 0.3965,0.546 0.9165,0.546 0.234,0 0.572,-0.065 1.014,-0.195 v 2.574 c -0.572,0.33801 -1.36499,0.507 -2.379,0.507 -0.858,0 -1.54049,-0.24049 -2.0475,-0.7215 -0.507,-0.481 -0.7605,-1.26749 -0.7605,-2.3595 -0.91,1.09201 -1.96949,1.8785 -3.1785,2.3595 -1.209,0.48101 -2.51549,0.7215 -3.9195,0.7215 z m 0.741,-2.886 c 1.09201,0 2.028,-0.14949 2.808,-0.4485 0.78001,-0.299 1.417,-0.67599 1.911,-1.131 0.49401,-0.455 0.858,-0.94899 1.092,-1.482 0.234,-0.533 0.351,-1.03349 0.351,-1.5015 v -3.393 c -0.416,0.33801 -0.96199,0.572 -1.638,0.702 -0.676,0.13001 -1.38449,0.247 -2.1255,0.351 -0.741,0.104 -1.48849,0.208 -2.2425,0.312 -0.754,0.10401 -1.42999,0.286 -2.028,0.546 -0.598,0.26001 -1.0855,0.6305 -1.4625,1.1115 -0.377,0.48101 -0.5655,1.1375 -0.5655,1.9695 0,0.54601 0.1105,1.0075 0.3315,1.3845 0.221,0.37701 0.507,0.6825 0.858,0.9165 0.351,0.23401 0.7605,0.403 1.2285,0.507 0.468,0.104 0.962,0.156 1.482,0.156 z m 19.5,-14.781 h -7.215 v -2.925 h 17.745 v 2.925 h -7.215 v 17.238 h -3.315 z m 12.402,-0.624 h 3.315 c -0.026,-0.832 0.0585,-1.65749 0.2535,-2.4765 0.195,-0.819 0.5135,-1.55349 0.9555,-2.2035 0.44201,-0.65 1.0075,-1.17649 1.6965,-1.5795 0.68901,-0.403 1.5145,-0.6045 2.4765,-0.6045 0.72801,0 1.417,0.117 2.067,0.351 0.65001,0.23401 1.2155,0.572 1.6965,1.014 0.48101,0.44201 0.8645,0.9685 1.1505,1.5795 0.286,0.61101 0.429,1.2935 0.429,2.0475 0,0.96201 -0.1495,1.807 -0.4485,2.535 -0.299,0.72801 -0.74099,1.404 -1.326,2.028 -0.585,0.62401 -1.31949,1.2415 -2.2035,1.8525 -0.884,0.61101 -1.91099,1.2805 -3.081,2.0085 -0.962,0.57201 -1.88499,1.183 -2.769,1.833 -0.884,0.65001 -1.67699,1.404 -2.379,2.262 -0.702,0.85801 -1.28049,1.8655 -1.7355,3.0225 -0.455,1.15701 -0.7475,2.5545 -0.8775,4.1925 h 18.057 v -2.925 h -14.196 c 0.156,-0.858 0.4875,-1.61849 0.9945,-2.2815 0.50701,-0.663 1.118,-1.28049 1.833,-1.8525 0.71501,-0.572 1.5015,-1.11149 2.3595,-1.6185 0.85801,-0.507 1.716,-1.02049 2.574,-1.5405 0.85801,-0.546 1.69,-1.11799 2.496,-1.716 0.80601,-0.598 1.521,-1.26749 2.145,-2.0085 0.62401,-0.741 1.1245,-1.57949 1.5015,-2.5155 0.377,-0.936 0.5655,-2.01499 0.5655,-3.237 0,-1.3 -0.22749,-2.44399 -0.6825,-3.432 -0.455,-0.988 -1.07249,-1.81349 -1.8525,-2.4765 -0.78,-0.663 -1.69649,-1.16999 -2.7495,-1.521 -1.053,-0.351 -2.17749,-0.5265 -3.3735,-0.5265 -1.456,0 -2.75599,0.247 -3.9,0.741 -1.144,0.49401 -2.09949,1.1765 -2.8665,2.0475 -0.767,0.87101 -1.33249,1.9045 -1.6965,3.1005 -0.364,1.19601 -0.507,2.496 -0.429,3.9 z m 33.189,8.463 v -13.533 h -0.078 l -9.204,13.533 z m 3.12,0 h 3.744 v 2.925 h -3.744 v 6.474 h -3.12 v -6.474 h -12.129 v -3.198 l 12.597,-17.979 h 2.652 z"
                        id="svg_52"
                        stroke="null" />
            </g>
        </g>
    </g>
</svg>