<svg width="114.00000000000001" height="40" xmlns="http://www.w3.org/2000/svg">

 <g>
  <title>background</title>
  <rect fill="none" id="canvas_background" height="42" width="116" y="-1" x="-1"/>
 </g>
 <g>
  <title>Layer 1</title>
  <metadata transform="matrix(0.02442116900831426,0,0,0.02442116900831426,0,0) ">image/svg+xml</metadata>
  <style transform="matrix(0.02442116900831426,0,0,0.02442116900831426,0,0) " type="text/css">.st0{fill:none;}
	.st1{fill:#76A62D;}</style>
  <style transform="matrix(0.0010365953835634323,0,0,0.0010365953835634323,0,0) " type="text/css">.st0{fill:none;}
	.st1{fill:#76A62D;}</style>
  <g stroke="null" id="svg_53">
   <g stroke="null" transform="matrix(0.39926525052126505,0,0,0.39926525052126505,-164.9666016539124,-57.53393342155991) " id="svg_47" fill-rule="evenodd" fill="none">
    <g stroke="null" id="svg_48" fill-rule="nonzero">
     <path stroke="null" id="svg_49" d="m461.005126,156.450672c5.096393,0 10.038683,0.997439 14.689508,2.964553c4.493825,1.900727 8.530333,4.622418 11.997428,8.089514c3.467096,3.467095 6.188868,7.503603 8.089514,11.997348c1.967114,4.650824 2.964553,9.593115 2.964553,14.689508c0,5.096392 -0.997439,10.038602 -2.964553,14.689426c-1.900727,4.493745 -4.622418,8.530254 -8.089514,11.997349c-3.467095,3.467095 -7.503603,6.188787 -11.997428,8.089513c-4.650825,1.967115 -9.593035,2.964553 -14.689508,2.964553c-5.096392,0 -10.038683,-0.997438 -14.689427,-2.964553c-4.493745,-1.900726 -8.530253,-4.622418 -11.997348,-8.089513c-3.467095,-3.467095 -6.188787,-7.503604 -8.089513,-11.997349c-1.967115,-4.650824 -2.964554,-9.593034 -2.964554,-14.689426c0,-5.096393 0.997439,-10.038684 2.964554,-14.689508c1.900726,-4.493745 4.622418,-8.530253 8.089513,-11.997348c3.467095,-3.467096 7.503603,-6.188787 11.997348,-8.089514c4.650744,-1.967114 9.593035,-2.964553 14.689427,-2.964553l0,0zm0,-3.218842c-22.621378,0 -40.959764,18.338226 -40.959764,40.959765c0,22.621377 18.338306,40.959603 40.959764,40.959603c22.621458,0 40.959765,-18.338306 40.959765,-40.959603c0,-22.621539 -18.338307,-40.959765 -40.959765,-40.959765l0,0z" fill="#71B03E"/>
     <g stroke="null" id="svg_50" fill="#424242">
      <path stroke="null" id="svg_51" d="m458.515211,208.37294l-18.507376,0c0.36051,-6.529743 3.525195,-8.853103 8.452518,-11.937639c3.044461,-1.922856 6.770029,-4.005929 6.770029,-8.132002c0,-3.164685 -2.243291,-5.367902 -5.488125,-5.367902c-4.246297,0 -5.709663,3.605345 -5.789812,7.13054l-3.148993,0l-0.034442,-0.761095c0,-5.608269 3.645339,-9.333837 9.133545,-9.333837c5.367821,0 8.853023,3.244753 8.853023,8.252145c0,5.52812 -4.326366,8.172157 -8.492513,10.69589c-2.603882,1.562265 -5.568274,3.093146 -6.32937,6.297906l14.581596,0l0,3.155994l-0.00008,0zm23.393336,-6.87086l-3.880636,0l0.001449,6.87086l-3.169835,0l-0.001449,-6.87086l-12.458447,0l0.001448,-3.462589l12.527653,-18.068567l3.10063,0l0,18.389084l3.880636,0l-0.001449,3.142072zm-7.049022,-16.61872l-9.082607,13.476648l9.082607,0l0,-13.476648l0,0z"/>
     </g>
    </g>
    <path stroke="null" id="svg_52" d="m520.073923,181.345514l21.684,0l0,27.846l-3.705,0l0,-24.726l-14.274,0l0,24.726l-3.705,0l0,-27.846zm27.339,7.683l3.315,0l0,2.73l0.078,0c0.546003,-1.118006 1.403994,-1.930498 2.574,-2.4375c1.170006,-0.507002 2.456993,-0.7605 3.861,-0.7605c1.560008,0 2.918494,0.285997 4.0755,0.858c1.157006,0.572003 2.118996,1.345495 2.886,2.3205c0.767004,0.975005 1.345498,2.099494 1.7355,3.3735c0.390002,1.274006 0.585,2.625993 0.585,4.056c0,1.456007 -0.188498,2.814494 -0.5655,4.0755c-0.377002,1.261006 -0.948996,2.365995 -1.716,3.315c-0.767004,0.949005 -1.728994,1.696497 -2.886,2.2425c-1.157006,0.546003 -2.502492,0.819 -4.0365,0.819c-0.520003,0 -1.078997,-0.051999 -1.677,-0.156c-0.598003,-0.104001 -1.195997,-0.272999 -1.794,-0.507c-0.598003,-0.234001 -1.163497,-0.552498 -1.6965,-0.9555c-0.533003,-0.403002 -0.981498,-0.903497 -1.3455,-1.5015l-0.078,0l0,10.374l-3.315,0l0,-27.846zm9.555,17.706c1.118006,0 2.066996,-0.220998 2.847,-0.663c0.780004,-0.442002 1.403998,-1.026996 1.872,-1.755c0.468002,-0.728004 0.805999,-1.559995 1.014,-2.496c0.208001,-0.936005 0.312,-1.897995 0.312,-2.886c0,-0.936005 -0.123499,-1.852496 -0.3705,-2.7495c-0.247001,-0.897004 -0.623997,-1.696496 -1.131,-2.3985c-0.507003,-0.702003 -1.156996,-1.260998 -1.95,-1.677c-0.793004,-0.416002 -1.722495,-0.624 -2.7885,-0.624c-1.118006,0 -2.066996,0.220998 -2.847,0.663c-0.780004,0.442002 -1.416998,1.020496 -1.911,1.7355c-0.494002,0.715004 -0.851499,1.527495 -1.0725,2.4375c-0.221001,0.910005 -0.3315,1.832995 -0.3315,2.769c0,0.988005 0.116999,1.943495 0.351,2.8665c0.234001,0.923005 0.604497,1.735496 1.1115,2.4375c0.507003,0.702003 1.163496,1.267498 1.9695,1.6965c0.806004,0.429002 1.780994,0.6435 2.925,0.6435zm13.455,-17.706l3.315,0l0,16.458l9.516,-16.458l4.251,0l0,20.163l-3.315,0l0,-16.458l-9.516,16.458l-4.251,0l0,-20.163zm22.074,0l9.321,0c0.884004,0 1.735496,0.064999 2.5545,0.195c0.819004,0.130001 1.553497,0.370498 2.2035,0.7215c0.650003,0.351002 1.169998,0.851497 1.56,1.5015c0.390002,0.650003 0.585,1.481995 0.585,2.496c0,1.092005 -0.259997,1.975997 -0.78,2.652c-0.520003,0.676003 -1.247995,1.234998 -2.184,1.677l0,0.039c1.170006,0.234001 2.099497,0.779996 2.7885,1.638c0.689003,0.858004 1.0335,1.962993 1.0335,3.315c0,0.858004 -0.149499,1.650996 -0.4485,2.379c-0.299001,0.728004 -0.721497,1.351997 -1.2675,1.872c-0.546003,0.520003 -1.195996,0.929499 -1.95,1.2285c-0.754004,0.299002 -1.572996,0.4485 -2.457,0.4485l-10.959,0l0,-20.163zm10.335,17.355c1.092005,0 1.917497,-0.318497 2.4765,-0.9555c0.559003,-0.637003 0.8385,-1.436495 0.8385,-2.3985c0,-0.910005 -0.298997,-1.637997 -0.897,-2.184c-0.598003,-0.546003 -1.598993,-0.819 -3.003,-0.819l-6.474,0l0,6.357l7.059,0zm-1.365,-9.087c1.430007,0 2.424497,-0.259997 2.9835,-0.78c0.559003,-0.520003 0.8385,-1.208996 0.8385,-2.067c0,-0.832004 -0.272997,-1.475498 -0.819,-1.9305c-0.546003,-0.455002 -1.546993,-0.6825 -3.003,-0.6825l-5.694,0l0,5.46l5.694,0zm17.667,12.324c-0.910005,0 -1.767996,-0.097499 -2.574,-0.2925c-0.806004,-0.195001 -1.514497,-0.519998 -2.1255,-0.975c-0.611003,-0.455002 -1.091998,-1.039996 -1.443,-1.755c-0.351002,-0.715004 -0.5265,-1.579495 -0.5265,-2.5935c0,-1.144006 0.194998,-2.079996 0.585,-2.808c0.390002,-0.728004 0.903497,-1.319498 1.5405,-1.7745c0.637003,-0.455002 1.364996,-0.799499 2.184,-1.0335c0.819004,-0.234001 1.657496,-0.428999 2.5155,-0.585c0.910005,-0.182001 1.774496,-0.318499 2.5935,-0.4095c0.819004,-0.091 1.540497,-0.220999 2.1645,-0.39c0.624003,-0.169001 1.117998,-0.415998 1.482,-0.741c0.364002,-0.325002 0.546,-0.799497 0.546,-1.4235c0,-0.728004 -0.136499,-1.312998 -0.4095,-1.755c-0.273001,-0.442002 -0.623998,-0.779999 -1.053,-1.014c-0.429002,-0.234001 -0.909997,-0.39 -1.443,-0.468c-0.533003,-0.078 -1.059497,-0.117 -1.5795,-0.117c-1.404007,0 -2.573995,0.266497 -3.51,0.7995c-0.936005,0.533003 -1.443,1.540493 -1.521,3.0225l-3.315,0c0.052,-1.248006 0.311998,-2.300996 0.78,-3.159c0.468002,-0.858004 1.091996,-1.553497 1.872,-2.0865c0.780004,-0.533003 1.670495,-0.916499 2.6715,-1.1505c1.001005,-0.234001 2.073494,-0.351 3.2175,-0.351c0.910005,0 1.813496,0.064999 2.7105,0.195c0.897004,0.130001 1.709496,0.396498 2.4375,0.7995c0.728004,0.403002 1.312998,0.968496 1.755,1.6965c0.442002,0.728004 0.663,1.676994 0.663,2.847l0,10.374c0,0.780004 0.0455,1.351998 0.1365,1.716c0.091,0.364002 0.396497,0.546 0.9165,0.546c0.234001,0 0.571998,-0.064999 1.014,-0.195l0,2.574c-0.572003,0.338002 -1.364995,0.507 -2.379,0.507c-0.858004,0 -1.540497,-0.240498 -2.0475,-0.7215c-0.507003,-0.481002 -0.7605,-1.267495 -0.7605,-2.3595c-0.910005,1.092005 -1.969494,1.878498 -3.1785,2.3595c-1.209006,0.481002 -2.515493,0.7215 -3.9195,0.7215zm0.741,-2.886c1.092005,0 2.027996,-0.149499 2.808,-0.4485c0.780004,-0.299001 1.416998,-0.675998 1.911,-1.131c0.494002,-0.455002 0.857999,-0.948997 1.092,-1.482c0.234001,-0.533003 0.351,-1.033498 0.351,-1.5015l0,-3.393c-0.416002,0.338002 -0.961997,0.571999 -1.638,0.702c-0.676003,0.130001 -1.384496,0.247 -2.1255,0.351c-0.741004,0.104 -1.488496,0.208 -2.2425,0.312c-0.754004,0.104001 -1.429997,0.285999 -2.028,0.546c-0.598003,0.260001 -1.085498,0.630498 -1.4625,1.1115c-0.377002,0.481002 -0.5655,1.137496 -0.5655,1.9695c0,0.546003 0.110499,1.007498 0.3315,1.3845c0.221001,0.377002 0.506998,0.682499 0.858,0.9165c0.351002,0.234001 0.760498,0.403 1.2285,0.507c0.468002,0.104 0.961997,0.156 1.482,0.156zm19.5,-14.781l-7.215,0l0,-2.925l17.745,0l0,2.925l-7.215,0l0,17.238l-3.315,0l0,-17.238zm12.402,-0.624l3.315,0c-0.026,-0.832004 0.058499,-1.657496 0.2535,-2.4765c0.195001,-0.819004 0.513498,-1.553497 0.9555,-2.2035c0.442002,-0.650003 1.007497,-1.176498 1.6965,-1.5795c0.689003,-0.403002 1.514495,-0.6045 2.4765,-0.6045c0.728004,0 1.416997,0.116999 2.067,0.351c0.650003,0.234001 1.215498,0.571998 1.6965,1.014c0.481002,0.442002 0.864499,0.968497 1.1505,1.5795c0.286001,0.611003 0.429,1.293496 0.429,2.0475c0,0.962005 -0.149499,1.806996 -0.4485,2.535c-0.299001,0.728004 -0.740997,1.403997 -1.326,2.028c-0.585003,0.624003 -1.319496,1.241497 -2.2035,1.8525c-0.884004,0.611003 -1.910994,1.280496 -3.081,2.0085c-0.962005,0.572003 -1.884996,1.182997 -2.769,1.833c-0.884004,0.650003 -1.676996,1.403996 -2.379,2.262c-0.702004,0.858004 -1.280498,1.865494 -1.7355,3.0225c-0.455002,1.157006 -0.747499,2.554492 -0.8775,4.1925l18.057,0l0,-2.925l-14.196,0c0.156001,-0.858004 0.487497,-1.618497 0.9945,-2.2815c0.507003,-0.663003 1.117996,-1.280497 1.833,-1.8525c0.715004,-0.572003 1.501496,-1.111498 2.3595,-1.6185c0.858004,-0.507003 1.715996,-1.020497 2.574,-1.5405c0.858004,-0.546003 1.689996,-1.117997 2.496,-1.716c0.806004,-0.598003 1.520997,-1.267496 2.145,-2.0085c0.624003,-0.741004 1.124498,-1.579495 1.5015,-2.5155c0.377002,-0.936005 0.5655,-2.014994 0.5655,-3.237c0,-1.300007 -0.227498,-2.443995 -0.6825,-3.432c-0.455002,-0.988005 -1.072496,-1.813497 -1.8525,-2.4765c-0.780004,-0.663003 -1.696495,-1.169998 -2.7495,-1.521c-1.053005,-0.351002 -2.177494,-0.5265 -3.3735,-0.5265c-1.456007,0 -2.755994,0.246997 -3.9,0.741c-1.144006,0.494003 -2.099496,1.176496 -2.8665,2.0475c-0.767004,0.871004 -1.332498,1.904494 -1.6965,3.1005c-0.364002,1.196006 -0.507,2.495993 -0.429,3.9zm33.189,8.463l0,-13.533l-0.078,0l-9.204,13.533l9.282,0zm3.12,0l3.744,0l0,2.925l-3.744,0l0,6.474l-3.12,0l0,-6.474l-12.129,0l0,-3.198l12.597,-17.979l2.652,0l0,18.252z" fill="#424242"/>
   </g>
  </g>
 </g>
</svg>