<svg width="40" height="40" viewBox="0 0 40 40" fill="none" xmlns="http://www.w3.org/2000/svg">
<path d="M39.5 20C39.5 30.7676 30.7676 39.5 20 39.5C9.23237 39.5 0.5 30.7676 0.5 20C0.5 9.23237 9.23237 0.5 20 0.5C30.7676 0.5 39.5 9.23237 39.5 20Z" fill="white" stroke="#F1F1F1"/>
<path d="M10.0002 17.7358C10.0002 16.4907 10.1071 15.7007 12.7463 13.7759C14.9313 12.1825 21.9346 6.7373 21.9346 6.7373V15.8271H27.2607V28.9096H11.6638C10.7489 28.9096 10 28.1779 10 27.2841L10.0002 17.7358Z" fill="#FFDB4D"/>
<path d="M21.9361 15.8271V21.0938L12.1494 27.6078L24.5227 23.6745V15.8271H21.9361Z" fill="white"/>
<path d="M17.4626 15.5551C18.0348 14.8889 18.8706 14.6536 19.3296 15.0299C19.7886 15.4062 19.6968 16.2515 19.1245 16.9176C18.5524 17.5838 17.7164 17.8187 17.2574 17.4424C16.7985 17.0662 16.8904 16.2213 17.4626 15.5551Z" fill="white"/>
</svg>
