<?xml version="1.0" encoding="UTF-8"?> <svg xmlns="http://www.w3.org/2000/svg" width="164" height="32" viewBox="0 0 164 32" fill="none"> <path fill-rule="evenodd" clip-rule="evenodd" d="M164 16C164 7.16344 156.837 0 148 0H16C7.16345 0 -2.38419e-06 7.16344 -2.38419e-06 16V16C-2.38419e-06 24.8366 7.16344 32 16 32H148C156.837 32 164 24.8366 164 16V16Z" fill="#292929"></path> <g opacity="0.3"> <mask id="mask0" mask-type="alpha" maskUnits="userSpaceOnUse" x="106" y="2" width="42" height="28"> <rect x="106.378" y="2.59473" width="41.5135" height="26.8108" fill="#C4C4C4"></rect> </mask> <g mask="url(#mask0)"> <g filter="url(#filter0_f)"> <path fill-rule="evenodd" clip-rule="evenodd" d="M162.595 16C162.595 7.16344 155.431 0 146.595 0V0C137.758 0 130.595 7.16344 130.595 16V16C130.595 24.8366 137.758 32 146.595 32V32C155.431 32 162.595 24.8366 162.595 16V16Z" fill="white"></path> </g> </g> </g> <path fill-rule="evenodd" clip-rule="evenodd" d="M160.865 16.0001C160.865 8.59653 154.863 2.59473 147.459 2.59473V2.59473C140.056 2.59473 134.054 8.59653 134.054 16.0001V16.0001C134.054 23.4037 140.056 29.4055 147.459 29.4055V29.4055C154.863 29.4055 160.865 23.4037 160.865 16.0001V16.0001Z" fill="white"></path> <path d="M8.7276 21.3252V12.0389H11.7365C12.8767 12.0389 13.6199 12.0853 13.9662 12.1782C14.4983 12.3176 14.9438 12.6216 15.3028 13.0904C15.6617 13.5549 15.8412 14.1567 15.8412 14.8957C15.8412 15.4658 15.7377 15.9451 15.5308 16.3336C15.3239 16.7222 15.0599 17.0283 14.739 17.2521C14.4223 17.4717 14.0992 17.6174 13.7698 17.6892C13.3222 17.7779 12.674 17.8222 11.8252 17.8222H10.6026V21.3252H8.7276ZM10.6026 13.6098V16.245H11.6288C12.3678 16.245 12.8619 16.1964 13.111 16.0993C13.3602 16.0021 13.5545 15.8501 13.6938 15.6432C13.8374 15.4363 13.9092 15.1956 13.9092 14.9211C13.9092 14.5832 13.8099 14.3045 13.6115 14.0849C13.413 13.8653 13.1617 13.7281 12.8577 13.6732C12.6339 13.6309 12.1841 13.6098 11.5084 13.6098H10.6026ZM29.5918 21.3252H27.5521L26.7413 19.2158H23.0293L22.2628 21.3252H20.2738L23.8908 12.0389H25.8735L29.5918 21.3252ZM26.1395 17.6512L24.8599 14.2053L23.6057 17.6512H26.1395ZM36.6405 21.3252V17.4168L33.2389 12.0389H35.437L37.6224 15.7129L39.7634 12.0389H41.9235L38.5092 17.4295V21.3252H36.6405ZM47.1795 18.3037L49.0039 18.1263C49.1137 18.7386 49.3354 19.1884 49.669 19.4755C50.0068 19.7627 50.4608 19.9063 51.0309 19.9063C51.6348 19.9063 52.0887 19.7796 52.3928 19.5262C52.7011 19.2686 52.8552 18.9688 52.8552 18.6267C52.8552 18.4071 52.7898 18.2213 52.6588 18.0693C52.5322 17.913 52.3083 17.7779 51.9874 17.6639C51.7678 17.5879 51.2674 17.4527 50.4861 17.2585C49.4811 17.0093 48.7758 16.7032 48.3704 16.34C47.8003 15.829 47.5153 15.2061 47.5153 14.4713C47.5153 13.9983 47.6483 13.557 47.9143 13.1474C48.1846 12.7336 48.571 12.4189 49.0735 12.2036C49.5803 11.9882 50.1905 11.8805 50.9042 11.8805C52.0697 11.8805 52.946 12.136 53.533 12.647C54.1242 13.158 54.4346 13.84 54.4642 14.693L52.5892 14.7754C52.5089 14.2982 52.3358 13.9561 52.0697 13.7492C51.8079 13.538 51.4131 13.4325 50.8852 13.4325C50.3404 13.4325 49.9139 13.5444 49.6056 13.7682C49.4072 13.9118 49.3079 14.1039 49.3079 14.3446C49.3079 14.5642 49.4008 14.7521 49.5866 14.9084C49.8231 15.1069 50.3974 15.3138 51.3096 15.5292C52.2218 15.7445 52.8953 15.9684 53.3303 16.2006C53.7695 16.4287 54.1116 16.7433 54.3565 17.1445C54.6056 17.5414 54.7302 18.0334 54.7302 18.6204C54.7302 19.1525 54.5824 19.6508 54.2868 20.1153C53.9912 20.5798 53.5731 20.9261 53.0326 21.1542C52.492 21.378 51.8185 21.4899 51.0119 21.4899C49.8379 21.4899 48.9363 21.2196 48.3071 20.6791C47.6779 20.1343 47.302 19.3425 47.1795 18.3037ZM61.1075 21.3252V12.0389H67.9931V13.6098H62.9825V15.6685H67.6447V17.2331H62.9825V19.7606H68.1704V21.3252H61.1075ZM74.611 21.3252V12.1149H76.486V19.7606H81.1482V21.3252H74.611ZM87.2911 21.3252V12.0389H94.1767V13.6098H89.1661V15.6685H93.8283V17.2331H89.1661V19.7606H94.354V21.3252H87.2911ZM106.686 17.9109L108.504 18.4874C108.225 19.5009 107.76 20.2547 107.11 20.7488C106.464 21.2386 105.643 21.4836 104.646 21.4836C103.413 21.4836 102.399 21.0634 101.605 20.223C100.812 19.3784 100.415 18.2255 100.415 16.7644C100.415 15.2188 100.814 14.0195 101.612 13.1664C102.41 12.3091 103.459 11.8805 104.76 11.8805C105.896 11.8805 106.819 12.2162 107.528 12.8877C107.95 13.2847 108.267 13.8548 108.478 14.598L106.622 15.0414C106.513 14.56 106.282 14.1799 105.932 13.9012C105.586 13.6225 105.163 13.4831 104.665 13.4831C103.977 13.4831 103.417 13.7302 102.986 14.2243C102.56 14.7184 102.347 15.5186 102.347 16.625C102.347 17.799 102.558 18.6352 102.98 19.1335C103.402 19.6318 103.951 19.8809 104.627 19.8809C105.125 19.8809 105.554 19.7226 105.913 19.4059C106.272 19.0891 106.529 18.5908 106.686 17.9109ZM117.009 21.3252V13.6098H114.254V12.0389H121.634V13.6098H118.884V21.3252H117.009ZM127.593 21.3252V12.0389H129.468V21.3252H127.593Z" fill="white"></path> <path d="M137.172 16.739C137.172 15.7931 137.314 14.9992 137.597 14.3573C137.808 13.8843 138.095 13.4599 138.458 13.0841C138.825 12.7082 139.227 12.4295 139.662 12.2479C140.24 12.003 140.907 11.8805 141.663 11.8805C143.032 11.8805 144.125 12.3049 144.945 13.1537C145.768 14.0026 146.18 15.1829 146.18 16.6947C146.18 18.1939 145.772 19.3678 144.957 20.2167C144.142 21.0613 143.053 21.4836 141.689 21.4836C140.308 21.4836 139.21 21.0634 138.395 20.223C137.58 19.3784 137.172 18.2171 137.172 16.739ZM139.104 16.6757C139.104 17.7272 139.347 18.5254 139.833 19.0701C140.318 19.6107 140.935 19.8809 141.682 19.8809C142.43 19.8809 143.042 19.6128 143.519 19.0765C144.001 18.5359 144.241 17.7272 144.241 16.6504C144.241 15.5862 144.007 14.7923 143.538 14.2686C143.074 13.745 142.455 13.4831 141.682 13.4831C140.91 13.4831 140.287 13.7492 139.814 14.2813C139.341 14.8091 139.104 15.6073 139.104 16.6757ZM149.095 21.3252V12.0389H150.92L154.72 18.2403V12.0389H156.462V21.3252H154.581L150.837 15.2695V21.3252H149.095Z" fill="black"></path> <defs> <filter id="filter0_f" x="121.946" y="-8.64865" width="49.2973" height="49.2973" filterUnits="userSpaceOnUse" color-interpolation-filters="sRGB"> <feFlood flood-opacity="0" result="BackgroundImageFix"></feFlood> <feBlend mode="normal" in="SourceGraphic" in2="BackgroundImageFix" result="shape"></feBlend> <feGaussianBlur stdDeviation="4.32432" result="effect1_foregroundBlur"></feGaussianBlur> </filter> </defs> </svg> 