<svg width="40" height="40" viewBox="0 0 40 40" fill="none" xmlns="http://www.w3.org/2000/svg">
<path d="M20 39.5C30.7696 39.5 39.5 30.7696 39.5 20C39.5 9.23045 30.7696 0.5 20 0.5C9.23045 0.5 0.5 9.23045 0.5 20C0.5 30.7696 9.23045 39.5 20 39.5Z" fill="white" stroke="#F1F1F1"/>
<path d="M17.8253 13.8938C17.5936 13.8938 17.3714 13.9858 17.2075 14.1497C17.0437 14.3135 16.9517 14.5357 16.9517 14.7674V25.2511C16.9517 25.4828 17.0437 25.705 17.2075 25.8688C17.3714 26.0326 17.5936 26.1247 17.8253 26.1247C18.057 26.1247 18.2792 26.0326 18.443 25.8688C18.6069 25.705 18.6989 25.4828 18.6989 25.2511V24.3774H20.4462V25.2511C20.4462 25.4828 20.5382 25.705 20.7021 25.8688C20.8659 26.0326 21.0881 26.1247 21.3198 26.1247C21.5515 26.1247 21.7737 26.0326 21.9376 25.8688C22.1014 25.705 22.1935 25.4828 22.1935 25.2511V24.2167C22.6003 24.0759 22.9657 23.8363 23.2569 23.5192C23.548 23.2022 23.7558 22.8178 23.8615 22.4005C23.9672 21.9832 23.9675 21.5462 23.8624 21.1288C23.7573 20.7114 23.55 20.3267 23.2593 20.0092C23.55 19.6918 23.7573 19.3071 23.8624 18.8897C23.9675 18.4722 23.9672 18.0352 23.8615 17.618C23.7558 17.2007 23.548 16.8163 23.2569 16.4992C22.9657 16.1822 22.6003 15.9425 22.1935 15.8018V14.7674C22.1935 14.5357 22.1014 14.3135 21.9376 14.1497C21.7737 13.9858 21.5515 13.8938 21.3198 13.8938C21.0881 13.8938 20.8659 13.9858 20.7021 14.1497C20.5382 14.3135 20.4462 14.5357 20.4462 14.7674V15.6411H18.6989V14.7674C18.6989 14.5357 18.6069 14.3135 18.443 14.1497C18.2792 13.9858 18.057 13.8938 17.8253 13.8938ZM21.3198 22.6301H18.6989V20.8829H21.3198C21.5515 20.8829 21.7737 20.9749 21.9376 21.1388C22.1014 21.3026 22.1935 21.5248 22.1935 21.7565C22.1935 21.9882 22.1014 22.2104 21.9376 22.3743C21.7737 22.5381 21.5515 22.6301 21.3198 22.6301ZM21.3198 17.3883C21.5515 17.3883 21.7737 17.4804 21.9376 17.6442C22.1014 17.8081 22.1935 18.0303 22.1935 18.262C22.1935 18.4937 22.1014 18.7159 21.9376 18.8797C21.7737 19.0436 21.5515 19.1356 21.3198 19.1356H18.6989V17.3883H21.3198Z" fill="#0085BA"/>
<circle cx="19.9998" cy="20" r="9.9124" stroke="#0085BA" stroke-width="1.5"/>
</svg>
