<svg width="40" height="40" viewBox="0 0 40 40" fill="none" xmlns="http://www.w3.org/2000/svg">
<path d="M20 39.5C30.7696 39.5 39.5 30.7696 39.5 20C39.5 9.23045 30.7696 0.5 20 0.5C9.23045 0.5 0.5 9.23045 0.5 20C0.5 30.7696 9.23045 39.5 20 39.5Z" fill="white" stroke="#F1F1F1"/>
<path d="M26.0562 8.64539C23.1343 8.64539 20.7573 11.023 20.7573 13.9442C20.7573 16.8655 23.1342 19.2431 26.0562 19.2431C28.9781 19.2431 31.355 16.8654 31.355 13.9442C31.355 11.0231 28.9781 8.64539 26.0562 8.64539ZM26.0562 17.7291C23.9692 17.7291 22.2713 16.0312 22.2713 13.9442C22.2713 11.8573 23.9692 10.1594 26.0562 10.1594C28.1432 10.1594 29.8411 11.8573 29.8411 13.9442C29.8411 16.0312 28.1432 17.7291 26.0562 17.7291Z" fill="#0085BA"/>
<path d="M13.9444 20.757C11.0224 20.757 8.64551 23.1346 8.64551 26.0558C8.64551 28.9769 11.0224 31.3546 13.9444 31.3546C16.8663 31.3546 19.2432 28.977 19.2432 26.0558C19.2432 23.1346 16.8663 20.757 13.9444 20.757ZM13.9444 29.8407C11.8574 29.8407 10.1595 28.1428 10.1595 26.0558C10.1595 23.9688 11.8574 22.2709 13.9444 22.2709C16.0313 22.2709 17.7292 23.9689 17.7292 26.0558C17.7292 28.1428 16.0313 29.8407 13.9444 29.8407Z" fill="#0085BA"/>
<mask id="path-4-inside-1_1379_32330" fill="white">
<path d="M18.0545 13.9382C18.4418 13.9382 18.7606 14.2535 18.7095 14.6375C18.603 15.4387 18.3142 16.2082 17.8618 16.8854C17.2788 17.7578 16.4503 18.4378 15.481 18.8393C14.5116 19.2408 13.445 19.3459 12.416 19.1412C11.3869 18.9365 10.4417 18.4312 9.69976 17.6893C8.95786 16.9474 8.45262 16.0022 8.24793 14.9731C8.04324 13.9441 8.14829 12.8774 8.54981 11.9081C8.95132 10.9388 9.63126 10.1102 10.5036 9.52734C11.1808 9.07485 11.9504 8.78613 12.7516 8.67959C13.1356 8.62853 13.4509 8.94728 13.4509 9.3346C13.4509 9.72192 13.1344 10.0295 12.7533 10.0987C12.2301 10.1938 11.7292 10.3953 11.2829 10.6936C10.6412 11.1223 10.141 11.7318 9.84564 12.4449C9.55028 13.1579 9.473 13.9425 9.62358 14.6995C9.77415 15.4565 10.1458 16.1518 10.6916 16.6975C11.2373 17.2433 11.9326 17.6149 12.6896 17.7655C13.4466 17.9161 14.2312 17.8388 14.9442 17.5435C15.6573 17.2481 16.2667 16.7479 16.6955 16.1062C16.9938 15.6599 17.1953 15.159 17.2903 14.6357C17.3596 14.2547 17.6672 13.9382 18.0545 13.9382Z"/>
</mask>
<path d="M18.0545 13.9382C18.4418 13.9382 18.7606 14.2535 18.7095 14.6375C18.603 15.4387 18.3142 16.2082 17.8618 16.8854C17.2788 17.7578 16.4503 18.4378 15.481 18.8393C14.5116 19.2408 13.445 19.3459 12.416 19.1412C11.3869 18.9365 10.4417 18.4312 9.69976 17.6893C8.95786 16.9474 8.45262 16.0022 8.24793 14.9731C8.04324 13.9441 8.14829 12.8774 8.54981 11.9081C8.95132 10.9388 9.63126 10.1102 10.5036 9.52734C11.1808 9.07485 11.9504 8.78613 12.7516 8.67959C13.1356 8.62853 13.4509 8.94728 13.4509 9.3346C13.4509 9.72192 13.1344 10.0295 12.7533 10.0987C12.2301 10.1938 11.7292 10.3953 11.2829 10.6936C10.6412 11.1223 10.141 11.7318 9.84564 12.4449C9.55028 13.1579 9.473 13.9425 9.62358 14.6995C9.77415 15.4565 10.1458 16.1518 10.6916 16.6975C11.2373 17.2433 11.9326 17.6149 12.6896 17.7655C13.4466 17.9161 14.2312 17.8388 14.9442 17.5435C15.6573 17.2481 16.2667 16.7479 16.6955 16.1062C16.9938 15.6599 17.1953 15.159 17.2903 14.6357C17.3596 14.2547 17.6672 13.9382 18.0545 13.9382Z" stroke="#0085BA" stroke-width="3" mask="url(#path-4-inside-1_1379_32330)"/>
<path d="M11.9507 13.5278L13.3965 14.9735L17.3557 10.5624" stroke="#0085BA" stroke-width="1.5" stroke-linecap="round" stroke-linejoin="round"/>
<mask id="path-6-inside-2_1379_32330" fill="white">
<path d="M30.6536 26.0498C31.0409 26.0498 31.3597 26.3651 31.3086 26.749C31.2021 27.5503 30.9134 28.3198 30.4609 28.997C29.878 29.8694 29.0495 30.5493 28.0801 30.9509C27.1108 31.3524 26.0441 31.4574 25.0151 31.2527C23.986 31.048 23.0408 30.5428 22.2989 29.8009C21.557 29.059 21.0517 28.1138 20.847 27.0847C20.6424 26.0557 20.7474 24.989 21.1489 24.0197C21.5504 23.0503 22.2304 22.2218 23.1028 21.6389C23.78 21.1864 24.5495 20.8977 25.3507 20.7912C25.7347 20.7401 26.05 21.0589 26.05 21.4462C26.05 21.8335 25.7335 22.1411 25.3525 22.2103C24.8292 22.3054 24.3283 22.5069 23.882 22.8051C23.2403 23.2339 22.7401 23.8434 22.4448 24.5564C22.1494 25.2695 22.0721 26.0541 22.2227 26.8111C22.3733 27.568 22.7449 28.2634 23.2907 28.8091C23.8364 29.3549 24.5317 29.7265 25.2887 29.8771C26.0457 30.0277 26.8303 29.9504 27.5434 29.655C28.2564 29.3597 28.8659 28.8595 29.2947 28.2178C29.5929 27.7715 29.7944 27.2706 29.8895 26.7473C29.9587 26.3662 30.2663 26.0498 30.6536 26.0498Z"/>
</mask>
<path d="M30.6536 26.0498C31.0409 26.0498 31.3597 26.3651 31.3086 26.749C31.2021 27.5503 30.9134 28.3198 30.4609 28.997C29.878 29.8694 29.0495 30.5493 28.0801 30.9509C27.1108 31.3524 26.0441 31.4574 25.0151 31.2527C23.986 31.048 23.0408 30.5428 22.2989 29.8009C21.557 29.059 21.0517 28.1138 20.847 27.0847C20.6424 26.0557 20.7474 24.989 21.1489 24.0197C21.5504 23.0503 22.2304 22.2218 23.1028 21.6389C23.78 21.1864 24.5495 20.8977 25.3507 20.7912C25.7347 20.7401 26.05 21.0589 26.05 21.4462C26.05 21.8335 25.7335 22.1411 25.3525 22.2103C24.8292 22.3054 24.3283 22.5069 23.882 22.8051C23.2403 23.2339 22.7401 23.8434 22.4448 24.5564C22.1494 25.2695 22.0721 26.0541 22.2227 26.8111C22.3733 27.568 22.7449 28.2634 23.2907 28.8091C23.8364 29.3549 24.5317 29.7265 25.2887 29.8771C26.0457 30.0277 26.8303 29.9504 27.5434 29.655C28.2564 29.3597 28.8659 28.8595 29.2947 28.2178C29.5929 27.7715 29.7944 27.2706 29.8895 26.7473C29.9587 26.3662 30.2663 26.0498 30.6536 26.0498Z" stroke="#0085BA" stroke-width="3" mask="url(#path-6-inside-2_1379_32330)"/>
<path d="M24.5498 25.6394L25.9956 27.085L29.9549 22.674" stroke="#0085BA" stroke-width="1.5" stroke-linecap="round" stroke-linejoin="round"/>
</svg>
