<svg width="40" height="40" viewBox="0 0 40 40" fill="none" xmlns="http://www.w3.org/2000/svg">
<path d="M20 39.5C30.7696 39.5 39.5 30.7696 39.5 20C39.5 9.23045 30.7696 0.5 20 0.5C9.23045 0.5 0.5 9.23045 0.5 20C0.5 30.7696 9.23045 39.5 20 39.5Z" fill="white" stroke="#F1F1F1"/>
<path fill-rule="evenodd" clip-rule="evenodd" d="M20.1321 20.3291L16.5901 21.5595L16.4001 17.8147L23.9432 6.61856C24.3923 5.95189 25.163 5.57548 25.965 5.63112C26.7669 5.68676 27.4782 6.166 27.831 6.88831C28.1838 7.61062 28.1244 8.46626 27.6752 9.13293L20.1321 20.3291Z" stroke="#0085BA" stroke-width="1.5" stroke-linecap="round" stroke-linejoin="round"/>
<path d="M16.9814 17.3636L20.3551 19.6366" stroke="#0085BA" stroke-width="1.4" stroke-linecap="round" stroke-linejoin="round"/>
<path d="M18.0116 15.1161H9.25C8.42157 15.1161 7.75 15.7877 7.75 16.6161V27.1161C7.75 27.9446 8.42157 28.6161 9.25 28.6161H28.75C29.5784 28.6161 30.25 27.9446 30.25 27.1161V16.6161C30.25 15.7877 29.5784 15.1161 28.75 15.1161H23.8987" stroke="#0085BA" stroke-width="1.5" stroke-linecap="round" stroke-linejoin="round"/>
<path d="M11.388 24.8661H19.7383" stroke="#0085BA" stroke-width="1.5" stroke-linecap="round" stroke-linejoin="round"/>
<path d="M11.3889 21.5595L14.3896 21.5595" stroke="#0085BA" stroke-width="1.5" stroke-linecap="round" stroke-linejoin="round"/>
</svg>
