<svg width="40" height="40" viewBox="0 0 40 40" fill="none" xmlns="http://www.w3.org/2000/svg">
<path d="M20 39.5C30.7696 39.5 39.5 30.7696 39.5 20C39.5 9.23045 30.7696 0.5 20 0.5C9.23045 0.5 0.5 9.23045 0.5 20C0.5 30.7696 9.23045 39.5 20 39.5Z" fill="white" stroke="#F1F1F1"/>
<path fill-rule="evenodd" clip-rule="evenodd" d="M29.1559 27.732H19.3956L13.8183 31.915V27.732H11.0296C10.2595 27.732 9.63525 27.1077 9.63525 26.3377V12.3943C9.63525 11.6243 10.2595 11 11.0296 11H29.1559C29.926 11 30.5503 11.6243 30.5503 12.3943V26.3377C30.5503 27.1077 29.926 27.732 29.1559 27.732Z" stroke="#007CBA" stroke-width="1.5" stroke-linecap="round" stroke-linejoin="round"/>
<path d="M15.5653 21.0276C15.5653 21.1675 15.5318 21.2913 15.4649 21.3992C15.4011 21.507 15.3151 21.5973 15.2067 21.6702C15.0951 21.746 14.9629 21.8028 14.8099 21.8407C14.6601 21.8786 14.4975 21.8975 14.3222 21.8975C14.1151 21.8975 13.9238 21.8742 13.7485 21.8276C13.5764 21.781 13.4266 21.7096 13.2991 21.6134C13.1684 21.5201 13.0649 21.4021 12.9884 21.2593C12.9151 21.1135 12.8704 20.943 12.8545 20.7478H11.7071C11.7103 21.0538 11.7772 21.3248 11.9079 21.5609C12.0418 21.797 12.2218 22.0025 12.4481 22.1773C12.6935 22.3639 12.982 22.5067 13.3135 22.6058C13.6449 22.7019 13.9812 22.75 14.3222 22.75C14.6441 22.75 14.9501 22.7136 15.2402 22.6407C15.5302 22.565 15.7852 22.4528 16.0051 22.3041C16.2218 22.1613 16.3939 21.9821 16.5214 21.7664C16.6521 21.5507 16.7174 21.3015 16.7174 21.0188C16.7174 20.7128 16.6425 20.4432 16.4927 20.21C16.3461 19.974 16.1501 19.7714 15.9047 19.6024C15.7071 19.4683 15.4904 19.3546 15.2545 19.2614C15.0218 19.1652 14.7828 19.085 14.5374 19.0209C14.3429 18.9685 14.1565 18.9116 13.978 18.8504C13.8027 18.7892 13.6465 18.7178 13.5095 18.6362C13.3756 18.5546 13.2688 18.4599 13.1892 18.352C13.1095 18.2413 13.068 18.113 13.0649 17.9673C13.0649 17.8303 13.0951 17.7065 13.1557 17.5957C13.2163 17.485 13.3007 17.3902 13.4091 17.3115C13.5174 17.2358 13.6449 17.1775 13.7916 17.1367C13.9414 17.093 14.1039 17.0711 14.2792 17.0711C14.48 17.0711 14.6569 17.0988 14.8099 17.1542C14.9661 17.2066 15.0983 17.2795 15.2067 17.3728C15.3119 17.4689 15.3931 17.5841 15.4505 17.7181C15.5111 17.8493 15.5493 17.995 15.5653 18.1553H16.7031C16.7031 17.8668 16.6394 17.6045 16.5119 17.3684C16.3876 17.1294 16.217 16.9239 16.0003 16.752C15.7836 16.5829 15.5286 16.4518 15.2354 16.3585C14.9453 16.2623 14.6314 16.2142 14.2935 16.2142C13.9748 16.2142 13.6704 16.255 13.3804 16.3366C13.0935 16.4153 12.8418 16.5305 12.625 16.682C12.4083 16.8365 12.2362 17.023 12.1087 17.2416C11.9812 17.4573 11.9175 17.7006 11.9175 17.9717C11.9175 18.2223 11.9716 18.4482 12.08 18.6493C12.1916 18.8475 12.3445 19.0253 12.539 19.1827C12.7334 19.3371 12.9676 19.477 13.2418 19.6024C13.519 19.7248 13.8218 19.8282 14.1501 19.9128C14.3637 19.9681 14.5565 20.0308 14.7286 20.1007C14.9039 20.1678 15.0553 20.2436 15.1828 20.3281C15.3039 20.4184 15.3979 20.5204 15.4649 20.6341C15.5318 20.7478 15.5653 20.8789 15.5653 21.0276Z" fill="#007CBA"/>
<path d="M19.1796 16.3017H17.7549V22.667H18.8306V20.5073L18.7684 17.7706L19.739 20.704H20.3366L21.4075 17.6657L21.3406 20.5073V22.667H22.421V16.3017H20.9915L20.0402 19.0253L19.1796 16.3017Z" fill="#007CBA"/>
<path d="M27.3262 21.0276C27.3262 21.1675 27.2927 21.2913 27.2258 21.3992C27.1621 21.507 27.076 21.5973 26.9676 21.6702C26.8561 21.746 26.7238 21.8028 26.5708 21.8407C26.421 21.8786 26.2585 21.8975 26.0832 21.8975C25.876 21.8975 25.6848 21.8742 25.5095 21.8276C25.3374 21.781 25.1876 21.7096 25.0601 21.6134C24.9294 21.5201 24.8258 21.4021 24.7493 21.2593C24.676 21.1135 24.6314 20.943 24.6154 20.7478H23.468C23.4712 21.0538 23.5382 21.3248 23.6688 21.5609C23.8027 21.797 23.9828 22.0025 24.2091 22.1773C24.4545 22.3639 24.7429 22.5067 25.0744 22.6058C25.4059 22.7019 25.7421 22.75 26.0832 22.75C26.4051 22.75 26.7111 22.7136 27.0011 22.6407C27.2911 22.565 27.5461 22.4528 27.766 22.3041C27.9828 22.1613 28.1549 21.9821 28.2824 21.7664C28.4131 21.5507 28.4784 21.3015 28.4784 21.0188C28.4784 20.7128 28.4035 20.4432 28.2537 20.21C28.1071 19.974 27.9111 19.7714 27.6656 19.6024C27.468 19.4683 27.2513 19.3546 27.0154 19.2614C26.7828 19.1652 26.5437 19.085 26.2983 19.0209C26.1039 18.9685 25.9174 18.9116 25.739 18.8504C25.5637 18.7892 25.4075 18.7178 25.2704 18.6362C25.1366 18.5546 25.0298 18.4599 24.9501 18.352C24.8704 18.2413 24.829 18.113 24.8258 17.9673C24.8258 17.8303 24.8561 17.7065 24.9166 17.5957C24.9772 17.485 25.0617 17.3902 25.17 17.3115C25.2784 17.2358 25.4059 17.1775 25.5525 17.1367C25.7023 17.093 25.8649 17.0711 26.0401 17.0711C26.2409 17.0711 26.4178 17.0988 26.5708 17.1542C26.727 17.2066 26.8593 17.2795 26.9676 17.3728C27.0728 17.4689 27.1541 17.5841 27.2115 17.7181C27.272 17.8493 27.3103 17.995 27.3262 18.1553H28.4641C28.4641 17.8668 28.4003 17.6045 28.2728 17.3684C28.1485 17.1294 27.978 16.9239 27.7613 16.752C27.5445 16.5829 27.2896 16.4518 26.9963 16.3585C26.7063 16.2623 26.3923 16.2142 26.0545 16.2142C25.7358 16.2142 25.4314 16.255 25.1413 16.3366C24.8545 16.4153 24.6027 16.5305 24.386 16.682C24.1692 16.8365 23.9971 17.023 23.8696 17.2416C23.7421 17.4573 23.6784 17.7006 23.6784 17.9717C23.6784 18.2223 23.7326 18.4482 23.8409 18.6493C23.9525 18.8475 24.1055 19.0253 24.2999 19.1827C24.4943 19.3371 24.7286 19.477 25.0027 19.6024C25.28 19.7248 25.5828 19.8282 25.9111 19.9128C26.1246 19.9681 26.3174 20.0308 26.4896 20.1007C26.6649 20.1678 26.8162 20.2436 26.9437 20.3281C27.0648 20.4184 27.1589 20.5204 27.2258 20.6341C27.2927 20.7478 27.3262 20.8789 27.3262 21.0276Z" fill="#007CBA"/>
</svg>
