<svg width="40" height="40" viewBox="0 0 40 40" fill="none" xmlns="http://www.w3.org/2000/svg">
<path fill-rule="evenodd" clip-rule="evenodd" d="M28.1557 28.1555C28.1557 28.8485 27.594 29.4102 26.901 29.4102H13.0994C12.4065 29.4102 11.8447 28.8485 11.8447 28.1555V11.8445C11.8447 11.1516 12.4065 10.5898 13.0994 10.5898H21.9902C22.3227 10.5899 22.6416 10.722 22.8768 10.957L27.7885 15.8687C28.0236 16.104 28.1556 16.4229 28.1557 16.7554V28.1555Z" stroke="#0085BA" stroke-width="1.5" stroke-linecap="round" stroke-linejoin="round"/>
<path d="M28.1558 16.8633H23.137C22.4441 16.8633 21.8823 16.3016 21.8823 15.6086V10.5898" stroke="#0085BA" stroke-width="1.5" stroke-linecap="round" stroke-linejoin="round"/>
<line x1="15.7808" y1="20.5205" x2="24.5186" y2="20.5205" stroke="#0085BA" stroke-linecap="round" stroke-linejoin="round"/>
<line x1="15.2808" y1="15.3633" x2="19.9998" y2="15.3633" stroke="#0085BA" stroke-width="3" stroke-linejoin="round"/>
<line x1="15.7808" y1="23.7197" x2="24.5186" y2="23.7197" stroke="#0085BA" stroke-linecap="round" stroke-linejoin="round"/>
</svg>
