<svg width="40" height="40" viewBox="0 0 40 40" fill="none" xmlns="http://www.w3.org/2000/svg">
<circle cx="20" cy="20" r="19.5" fill="white" stroke="#F1F1F1"/>
<path d="M10.0424 22.2108C10.0424 22.3751 9.99008 22.5071 9.88551 22.6067C9.78093 22.7013 9.65395 22.7486 9.50455 22.7486C9.31532 22.7486 9.17589 22.7063 9.08626 22.6216C9.0016 22.532 8.94682 22.4 8.92192 22.2257L8.93473 19.3675H8.91979L7.56992 22.3154C7.55499 22.3602 7.53258 22.4075 7.5027 22.4573C7.4778 22.5071 7.44294 22.5544 7.39812 22.5992C7.35331 22.644 7.29604 22.6789 7.22632 22.7038C7.15661 22.7337 7.07195 22.7486 6.97236 22.7486C6.87276 22.7486 6.7881 22.7337 6.71839 22.7038C6.64867 22.6789 6.5914 22.644 6.54659 22.5992C6.50177 22.5544 6.46442 22.5071 6.43454 22.4573C6.40964 22.4075 6.38973 22.3602 6.37479 22.3154L5.06271 19.3675H5.04777L5.02279 22.2257C4.99789 22.4 4.94062 22.532 4.85098 22.6216C4.76633 22.7063 4.62939 22.7486 4.44016 22.7486C4.29076 22.7486 4.16378 22.7013 4.05921 22.6067C3.95463 22.5071 3.90234 22.3751 3.90234 22.2108C3.90234 22.1909 3.90234 22.171 3.90234 22.151C3.90234 22.1311 3.90483 22.1087 3.90981 22.0838L4.07539 17.8261C4.08535 17.7614 4.11025 17.6942 4.15009 17.6245C4.18992 17.5547 4.24221 17.4925 4.30695 17.4377C4.37168 17.3829 4.44638 17.3381 4.53104 17.3033C4.61569 17.2684 4.70782 17.251 4.80741 17.251C4.99664 17.251 5.15848 17.3082 5.29294 17.4228C5.42739 17.5323 5.51454 17.6543 5.55437 17.7888L6.96489 20.7916H6.97983L8.42813 17.7888C8.46797 17.6543 8.55511 17.5323 8.68957 17.4228C8.82402 17.3082 8.98586 17.251 9.17509 17.251C9.26971 17.251 9.35934 17.2684 9.444 17.3033C9.53363 17.3381 9.61082 17.3829 9.67556 17.4377C9.74029 17.4925 9.79258 17.5547 9.83242 17.6245C9.87226 17.6942 9.89715 17.7614 9.90711 17.8261L10.0349 22.0838C10.0399 22.1087 10.0424 22.1311 10.0424 22.151C10.0424 22.171 10.0424 22.1909 10.0424 22.2108Z" fill="#383431"/>
<path d="M12.426 22.166C12.426 22.3552 12.3713 22.4996 12.2617 22.5992C12.1571 22.6988 12.0252 22.7486 11.8658 22.7486C11.7065 22.7486 11.572 22.6988 11.4625 22.5992C11.3579 22.4996 11.3056 22.3552 11.3056 22.166V17.8336C11.3056 17.6444 11.3579 17.5 11.4625 17.4004C11.572 17.3008 11.7065 17.251 11.8658 17.251C12.0252 17.251 12.1571 17.3008 12.2617 17.4004C12.3713 17.5 12.426 17.6444 12.426 17.8336V22.166Z" fill="#383431"/>
<path d="M18.0898 22.2257C18.0898 22.3851 18.035 22.5121 17.9254 22.6067C17.8209 22.7013 17.6864 22.7486 17.5221 22.7486C17.3328 22.7486 17.1785 22.6664 17.059 22.5021L15.7966 20.7542L14.5417 22.5021C14.4222 22.6664 14.2678 22.7486 14.0786 22.7486C13.9143 22.7486 13.7773 22.7013 13.6678 22.6067C13.5632 22.5121 13.5109 22.3851 13.5109 22.2257C13.5109 22.1461 13.5233 22.0739 13.5482 22.0091C13.5781 21.9394 13.608 21.8846 13.6379 21.8448L15.1467 19.8131L13.9068 18.1249C13.8271 18.0253 13.7873 17.9158 13.7873 17.7963C13.7873 17.6319 13.842 17.5 13.9516 17.4004C14.0612 17.3008 14.1956 17.251 14.355 17.251C14.4496 17.251 14.5392 17.2784 14.6239 17.3331C14.7135 17.3879 14.7857 17.4527 14.8405 17.5274L15.7966 18.8868L16.7527 17.5274C16.8075 17.4527 16.8772 17.3879 16.9619 17.3331C17.0515 17.2784 17.1436 17.251 17.2382 17.251C17.3976 17.251 17.532 17.3008 17.6416 17.4004C17.7511 17.5 17.8059 17.6319 17.8059 17.7963C17.8059 17.9158 17.7661 18.0253 17.6864 18.1249L16.4465 19.8131L17.9628 21.8448C17.9927 21.8846 18.0201 21.9394 18.0449 22.0091C18.0748 22.0739 18.0898 22.1461 18.0898 22.2257Z" fill="#383431"/>
<path d="M22.9846 19.1258C22.9846 19.3997 22.9348 19.6462 22.8352 19.8653C22.7357 20.0845 22.6012 20.2712 22.4319 20.4256C22.2626 20.575 22.0634 20.692 21.8343 20.7766C21.6102 20.8563 21.3712 20.8961 21.1172 20.8961H20.2881V22.166C20.2881 22.3552 20.2333 22.4996 20.1238 22.5992C20.0192 22.6988 19.8872 22.7486 19.7279 22.7486C19.5685 22.7486 19.4341 22.6988 19.3245 22.5992C19.22 22.4996 19.1677 22.3552 19.1677 22.166V17.9232C19.1677 17.749 19.2175 17.6095 19.3171 17.5049C19.4167 17.3954 19.5611 17.3406 19.7503 17.3406H21.0724C21.3463 17.3406 21.6003 17.3829 21.8343 17.4676C22.0684 17.5523 22.27 17.6743 22.4394 17.8336C22.6087 17.988 22.7406 18.1747 22.8352 18.3938C22.9348 18.6129 22.9846 18.8569 22.9846 19.1258ZM21.8194 19.1184C21.8194 18.8943 21.7497 18.7076 21.6102 18.5582C21.4758 18.4038 21.289 18.3266 21.05 18.3266H20.2881V19.9102H21.05C21.289 19.9102 21.4758 19.8355 21.6102 19.6861C21.7497 19.5317 21.8194 19.3425 21.8194 19.1184Z" fill="#383431"/>
<path d="M27.0531 22.166C27.0481 22.2905 26.9983 22.405 26.9037 22.5096C26.8091 22.6092 26.6796 22.659 26.5153 22.659H24.6479C24.4636 22.659 24.3192 22.6042 24.2146 22.4946C24.115 22.3851 24.0652 22.2357 24.0652 22.0465V17.8336C24.0652 17.6444 24.1175 17.5 24.2221 17.4004C24.3316 17.3008 24.4661 17.251 24.6254 17.251C24.7848 17.251 24.9168 17.3008 25.0213 17.4004C25.1309 17.5 25.1857 17.6444 25.1857 17.8336V21.6282H26.5153C26.6099 21.6282 26.692 21.6456 26.7618 21.6805C26.8315 21.7103 26.8862 21.7527 26.9261 21.8074C26.9709 21.8572 27.0033 21.9145 27.0232 21.9792C27.0431 22.039 27.0531 22.1012 27.0531 22.166Z" fill="#383431"/>
<path d="M32.3623 22.2556C32.3623 22.4 32.31 22.5195 32.2055 22.6142C32.1059 22.7038 31.9864 22.7486 31.8469 22.7486C31.6876 22.7486 31.5656 22.7138 31.4809 22.644C31.4012 22.5693 31.3415 22.4747 31.3016 22.3602L31.0626 21.6132H28.9861L28.747 22.3527C28.7072 22.4673 28.645 22.5619 28.5603 22.6366C28.4806 22.7113 28.3636 22.7486 28.2092 22.7486C28.0598 22.7486 27.9304 22.6988 27.8208 22.5992C27.7113 22.4996 27.6565 22.3751 27.6565 22.2257C27.6565 22.166 27.6615 22.1162 27.6714 22.0763C27.6864 22.0315 27.6988 21.9992 27.7088 21.9792L29.2251 17.871C29.2898 17.6967 29.3919 17.5498 29.5313 17.4302C29.6708 17.3107 29.8351 17.251 30.0243 17.251C30.2235 17.251 30.3904 17.3107 30.5248 17.4302C30.6593 17.5448 30.7589 17.6917 30.8236 17.871L32.3026 21.9792C32.3275 22.039 32.3424 22.0938 32.3474 22.1436C32.3574 22.1934 32.3623 22.2307 32.3623 22.2556ZM30.0318 18.4162H30.0169L29.3073 20.5824H30.7265L30.0318 18.4162Z" fill="#383431"/>
<path d="M36.0978 17.856C36.0978 17.9855 36.0579 18.105 35.9783 18.2146C35.8986 18.3191 35.7691 18.3714 35.5898 18.3714H34.7757V22.166C34.7757 22.3552 34.7209 22.4996 34.6113 22.5992C34.5068 22.6988 34.3748 22.7486 34.2154 22.7486C34.0561 22.7486 33.9216 22.6988 33.8121 22.5992C33.7075 22.4996 33.6552 22.3552 33.6552 22.166V18.3714H32.841C32.6618 18.3714 32.5323 18.3191 32.4526 18.2146C32.3729 18.105 32.3331 17.9855 32.3331 17.856C32.3331 17.7265 32.3779 17.6095 32.4675 17.5049C32.5572 17.3954 32.6817 17.3406 32.841 17.3406H35.5898C35.7492 17.3406 35.8737 17.3954 35.9633 17.5049C36.053 17.6095 36.0978 17.7265 36.0978 17.856Z" fill="#383431"/>
</svg>
