<svg width="40" height="40" viewBox="0 0 40 40" fill="none" xmlns="http://www.w3.org/2000/svg">
<path d="M20 39.5C30.7696 39.5 39.5 30.7696 39.5 20C39.5 9.23045 30.7696 0.5 20 0.5C9.23045 0.5 0.5 9.23045 0.5 20C0.5 30.7696 9.23045 39.5 20 39.5Z" fill="white" stroke="#F1F1F1"/>
<rect x="12.2778" y="8.15845" width="15.4443" height="23.6831" rx="1.25" stroke="#0085BA" stroke-width="1.5"/>
<path d="M17.29 9.1947L22.71 9.1947C23.4867 9.1947 23.5156 9.16058 23.5156 8.55608L23.5156 8.23988L16.4843 8.23988L16.4843 8.55608C16.4843 9.16057 16.5133 9.1947 17.29 9.1947Z" fill="#0085BA"/>
<path d="M17.29 9.1947L17.29 9.9447L17.29 9.1947ZM22.71 9.1947L22.71 8.4447L22.71 9.1947ZM23.5156 8.55608L22.7656 8.55608L22.7656 8.55608L23.5156 8.55608ZM23.5156 8.23988L24.2656 8.23988C24.2656 8.04097 24.1866 7.85021 24.046 7.70955C23.9053 7.5689 23.7145 7.48988 23.5156 7.48988L23.5156 8.23988ZM16.4843 8.23988L16.4843 7.48988C16.0701 7.48988 15.7343 7.82567 15.7343 8.23988L16.4843 8.23988ZM17.29 9.9447L22.71 9.9447L22.71 8.4447L17.29 8.4447L17.29 9.9447ZM22.71 9.9447C22.8971 9.9447 23.0868 9.94336 23.2477 9.92518C23.3979 9.90822 23.6518 9.86571 23.8747 9.68599C24.1268 9.48279 24.2082 9.21591 24.2386 9.0354C24.2657 8.87392 24.2656 8.69295 24.2656 8.55608L22.7656 8.55608C22.7656 8.63093 22.7651 8.6848 22.7634 8.72764C22.7617 8.77136 22.7593 8.78681 22.7594 8.78637C22.7595 8.78579 22.7654 8.74845 22.7912 8.6954C22.8047 8.66767 22.8233 8.63644 22.8483 8.6045C22.8735 8.57232 22.9022 8.54328 22.9334 8.51816C22.996 8.46767 23.0525 8.44572 23.0785 8.43743C23.1018 8.43 23.107 8.43154 23.0793 8.43466C23.0529 8.43765 23.0114 8.44053 22.9465 8.44235C22.8824 8.44416 22.8057 8.4447 22.71 8.4447L22.71 9.9447ZM24.2656 8.55608L24.2656 8.23988L22.7656 8.23988L22.7656 8.55608L24.2656 8.55608ZM23.5156 7.48988L16.4843 7.48988L16.4843 8.98988L23.5156 8.98988L23.5156 7.48988ZM15.7343 8.23988L15.7343 8.55608L17.2343 8.55608L17.2343 8.23988L15.7343 8.23988ZM15.7343 8.55608C15.7343 8.69296 15.7342 8.87394 15.7614 9.03544C15.7918 9.21597 15.8732 9.48283 16.1253 9.68602C16.3482 9.86571 16.6021 9.90822 16.7523 9.92518C16.9132 9.94336 17.1029 9.9447 17.29 9.9447L17.29 8.4447C17.1943 8.4447 17.1176 8.44416 17.0535 8.44235C16.9886 8.44053 16.9471 8.43765 16.9206 8.43466C16.893 8.43154 16.8982 8.43 16.9215 8.43743C16.9475 8.44571 17.0039 8.46766 17.0666 8.51814C17.0977 8.54325 17.1265 8.57228 17.1516 8.60445C17.1767 8.63639 17.1952 8.66762 17.2087 8.69535C17.2346 8.7484 17.2405 8.78575 17.2406 8.78633C17.2407 8.78678 17.2382 8.77134 17.2365 8.72763C17.2348 8.68479 17.2343 8.63092 17.2343 8.55608L15.7343 8.55608Z" fill="#0085BA"/>
<path d="M17.5 20.6317L18.9458 22.0774L22.9051 17.6663" stroke="#0085BA" stroke-width="1.5" stroke-linecap="round" stroke-linejoin="round"/>
</svg>
