<?xml version="1.0" encoding="UTF-8" standalone="no"?>
<svg width="50px" height="45px" viewBox="0 0 50 45" version="1.1" xmlns="http://www.w3.org/2000/svg" xmlns:xlink="http://www.w3.org/1999/xlink">
    <!-- Generator: Sketch 44 (41411) - http://www.bohemiancoding.com/sketch -->
    <title>Group 2</title>
    <desc>Created with Sketch.</desc>
    <defs></defs>
    <g id="Состояния" stroke="none" stroke-width="1" fill="none" fill-rule="evenodd">
        <g transform="translate(-4811.000000, -1547.000000)" id="Group-2">
            <g transform="translate(4812.000000, 1548.000000)">
                <path d="M38.016,0 L9.984,0 C4.464,0 0,4.464 0,9.984 L0,23.952 C0,29.52 4.464,33.984 10.032,33.984 C11.424,33.984 12.528,35.088 12.528,36.48 L12.528,41.04 C12.528,42.816 14.688,43.68 15.936,42.432 L23.232,35.184 C24,34.416 25.008,34.032 26.064,34.032 L38.016,34.032 C43.536,34.032 48,29.568 48,24.048 L48,9.984 C48,4.464 43.536,0 38.016,0 Z" id="Shape" stroke="#CCCCCC" fill="#FFFFFF" fill-rule="nonzero"></path>
                <text id="SMS" font-family=".AppleSystemUIFont" font-size="14" font-weight="normal" fill="#000000">
                    <tspan x="9" y="22">SMS</tspan>
                </text>
            </g>
        </g>
    </g>
</svg>