<svg width="40" height="41" viewBox="0 0 40 41" fill="none" xmlns="http://www.w3.org/2000/svg">
<path d="M19.7501 21.9322V26.9625C19.7501 28.1734 18.7684 29.155 17.5575 29.155H12.313C11.1019 29.155 10.1201 28.1735 10.1196 26.9625V14.4951C10.1201 13.2839 11.1018 12.3022 12.313 12.3018H14.3329" stroke="#0085BA" stroke-width="1.5" stroke-linecap="round" stroke-linejoin="round"/>
<path d="M10.1196 25.5439H19.7501" stroke="#0085BA" stroke-width="1.5" stroke-linecap="round" stroke-linejoin="round"/>
<path fill-rule="evenodd" clip-rule="evenodd" d="M28.25 8.80176H20C18.3431 8.80176 17 10.1449 17 11.8018V16.3018C17 17.9586 18.3431 19.3018 20 19.3018H23.75V23.0518L27.5 19.3018H28.25C29.9069 19.3018 31.25 17.9586 31.25 16.3018V11.8018C31.25 10.1449 29.9069 8.80176 28.25 8.80176Z" stroke="#0085BA" stroke-width="1.5" stroke-linecap="round" stroke-linejoin="round"/>
<path d="M21.3547 14.7669C21.3547 14.9468 21.3197 15.1085 21.2497 15.2518C21.183 15.3951 21.0913 15.5168 20.9747 15.6168C20.858 15.7168 20.7214 15.7934 20.5647 15.8468C20.4114 15.9001 20.2481 15.9268 20.0748 15.9268C19.9781 15.9268 19.8598 15.9184 19.7198 15.9018C19.5831 15.8884 19.4498 15.8618 19.3198 15.8218C19.1932 15.7818 19.0848 15.7251 18.9949 15.6518C18.9049 15.5785 18.8599 15.4835 18.8599 15.3668C18.8599 15.2701 18.8899 15.1868 18.9499 15.1168C19.0099 15.0468 19.0915 15.0118 19.1948 15.0118C19.2548 15.0118 19.3165 15.0218 19.3798 15.0418C19.4431 15.0618 19.5098 15.0852 19.5798 15.1118C19.6498 15.1352 19.7231 15.1568 19.7998 15.1768C19.8764 15.1968 19.9548 15.2068 20.0348 15.2068C20.2047 15.2068 20.3314 15.1668 20.4147 15.0868C20.5014 15.0035 20.5447 14.9002 20.5447 14.7769C20.5447 14.6769 20.5031 14.6002 20.4197 14.5469C20.3397 14.4935 20.2364 14.4486 20.1098 14.4119C19.9864 14.3719 19.8531 14.3319 19.7098 14.2919C19.5665 14.2519 19.4315 14.1969 19.3048 14.1269C19.1815 14.0569 19.0782 13.9636 18.9949 13.8469C18.9149 13.7303 18.8749 13.5753 18.8749 13.382C18.8749 13.2087 18.9082 13.052 18.9749 12.912C19.0415 12.7687 19.1315 12.6487 19.2448 12.552C19.3582 12.4554 19.4898 12.3804 19.6398 12.3271C19.7898 12.2737 19.9481 12.2471 20.1148 12.2471C20.1848 12.2471 20.2747 12.2554 20.3847 12.2721C20.4981 12.2854 20.6064 12.3121 20.7097 12.3521C20.8164 12.3887 20.9064 12.4387 20.9797 12.502C21.0563 12.5654 21.0947 12.647 21.0947 12.747C21.0947 12.8437 21.0647 12.9303 21.0047 13.007C20.9447 13.0803 20.863 13.117 20.7597 13.117C20.7097 13.117 20.6597 13.1103 20.6097 13.097C20.5631 13.0803 20.5131 13.062 20.4597 13.042C20.4097 13.022 20.3547 13.0053 20.2947 12.992C20.2347 12.9753 20.1681 12.967 20.0948 12.967C19.9881 12.967 19.8931 12.9953 19.8098 13.052C19.7265 13.1053 19.6848 13.1853 19.6848 13.292C19.6848 13.3786 19.7248 13.4453 19.8048 13.492C19.8881 13.5386 19.9914 13.582 20.1148 13.622C20.2414 13.6586 20.3764 13.6986 20.5197 13.7419C20.663 13.7853 20.7964 13.8469 20.9197 13.9269C21.0463 14.0069 21.1497 14.1136 21.2297 14.2469C21.313 14.3802 21.3547 14.5535 21.3547 14.7669Z" fill="#0085BA"/>
<path d="M26.1798 15.5668C26.1798 15.6768 26.1448 15.7651 26.0748 15.8318C26.0048 15.8951 25.9198 15.9268 25.8198 15.9268C25.6932 15.9268 25.5998 15.8984 25.5398 15.8418C25.4832 15.7818 25.4465 15.6934 25.4299 15.5768L25.1349 13.512H25.1249L24.5249 15.6368C24.5149 15.6668 24.4999 15.6984 24.4799 15.7318C24.4633 15.7651 24.4399 15.7968 24.4099 15.8268C24.3799 15.8568 24.3416 15.8801 24.2949 15.8968C24.2483 15.9168 24.1916 15.9268 24.125 15.9268C24.0583 15.9268 24.0016 15.9168 23.955 15.8968C23.9083 15.8801 23.87 15.8568 23.84 15.8268C23.81 15.7968 23.785 15.7651 23.765 15.7318C23.7483 15.6984 23.735 15.6668 23.725 15.6368L23.125 13.512H23.115L22.8201 15.5768C22.8034 15.6934 22.7651 15.7818 22.7051 15.8418C22.6484 15.8984 22.5568 15.9268 22.4301 15.9268C22.3301 15.9268 22.2451 15.8951 22.1751 15.8318C22.1051 15.7651 22.0701 15.6768 22.0701 15.5668C22.0701 15.5535 22.0701 15.5401 22.0701 15.5268C22.0701 15.5135 22.0718 15.4985 22.0751 15.4818L22.5401 12.632C22.5468 12.5887 22.5634 12.5437 22.5901 12.497C22.6168 12.4504 22.6518 12.4087 22.6951 12.3721C22.7384 12.3354 22.7884 12.3054 22.8451 12.2821C22.9017 12.2587 22.9634 12.2471 23.0301 12.2471C23.1567 12.2471 23.265 12.2854 23.355 12.3621C23.445 12.4354 23.5033 12.517 23.53 12.607L24.12 14.6169H24.13L24.7199 12.607C24.7466 12.517 24.8049 12.4354 24.8949 12.3621C24.9849 12.2854 25.0932 12.2471 25.2199 12.2471C25.2832 12.2471 25.3432 12.2587 25.3999 12.2821C25.4598 12.3054 25.5115 12.3354 25.5548 12.3721C25.5982 12.4087 25.6332 12.4504 25.6598 12.497C25.6865 12.5437 25.7032 12.5887 25.7098 12.632L26.1748 15.4818C26.1781 15.4985 26.1798 15.5135 26.1798 15.5268C26.1798 15.5401 26.1798 15.5535 26.1798 15.5668Z" fill="#0085BA"/>
<path d="M29.3901 14.7669C29.3901 14.9468 29.3551 15.1085 29.2851 15.2518C29.2184 15.3951 29.1268 15.5168 29.0101 15.6168C28.8935 15.7168 28.7568 15.7934 28.6002 15.8468C28.4468 15.9001 28.2835 15.9268 28.1102 15.9268C28.0136 15.9268 27.8952 15.9184 27.7552 15.9018C27.6186 15.8884 27.4853 15.8618 27.3553 15.8218C27.2286 15.7818 27.1203 15.7251 27.0303 15.6518C26.9403 15.5785 26.8953 15.4835 26.8953 15.3668C26.8953 15.2701 26.9253 15.1868 26.9853 15.1168C27.0453 15.0468 27.127 15.0118 27.2303 15.0118C27.2903 15.0118 27.3519 15.0218 27.4153 15.0418C27.4786 15.0618 27.5453 15.0852 27.6153 15.1118C27.6852 15.1352 27.7586 15.1568 27.8352 15.1768C27.9119 15.1968 27.9902 15.2068 28.0702 15.2068C28.2402 15.2068 28.3669 15.1668 28.4502 15.0868C28.5368 15.0035 28.5802 14.9002 28.5802 14.7769C28.5802 14.6769 28.5385 14.6002 28.4552 14.5469C28.3752 14.4935 28.2719 14.4486 28.1452 14.4119C28.0219 14.3719 27.8886 14.3319 27.7452 14.2919C27.6019 14.2519 27.4669 14.1969 27.3403 14.1269C27.217 14.0569 27.1136 13.9636 27.0303 13.8469C26.9503 13.7303 26.9103 13.5753 26.9103 13.382C26.9103 13.2087 26.9436 13.052 27.0103 12.912C27.077 12.7687 27.167 12.6487 27.2803 12.552C27.3936 12.4554 27.5253 12.3804 27.6752 12.3271C27.8252 12.2737 27.9836 12.2471 28.1502 12.2471C28.2202 12.2471 28.3102 12.2554 28.4202 12.2721C28.5335 12.2854 28.6418 12.3121 28.7452 12.3521C28.8518 12.3887 28.9418 12.4387 29.0151 12.502C29.0918 12.5654 29.1301 12.647 29.1301 12.747C29.1301 12.8437 29.1001 12.9303 29.0401 13.007C28.9801 13.0803 28.8985 13.117 28.7952 13.117C28.7452 13.117 28.6952 13.1103 28.6452 13.097C28.5985 13.0803 28.5485 13.062 28.4952 13.042C28.4452 13.022 28.3902 13.0053 28.3302 12.992C28.2702 12.9753 28.2035 12.967 28.1302 12.967C28.0236 12.967 27.9286 12.9953 27.8452 13.052C27.7619 13.1053 27.7202 13.1853 27.7202 13.292C27.7202 13.3786 27.7602 13.4453 27.8402 13.492C27.9236 13.5386 28.0269 13.582 28.1502 13.622C28.2769 13.6586 28.4119 13.6986 28.5552 13.7419C28.6985 13.7853 28.8318 13.8469 28.9551 13.9269C29.0818 14.0069 29.1851 14.1136 29.2651 14.2469C29.3484 14.3802 29.3901 14.5535 29.3901 14.7669Z" fill="#0085BA"/>
</svg>
