<svg width="214" height="121" viewBox="0 0 214 121" fill="none" xmlns="http://www.w3.org/2000/svg">
    <g clip-path="url(#clip0)">
        <rect x="0.5" width="213" height="121" rx="5" fill="white"/>
        <rect x="36.25" y="61.2844" width="135.5" height="27.5" rx="3.25" stroke="white" stroke-width="1.5"/>
        <path d="M106.66 14.2636C106.66 12.0874 108.248 10.3227 110.207 10.3227C112.166 10.3227 113.754 12.0874 113.754 14.2636C113.754 16.4399 112.166 18.2042 110.207 18.2042C108.248 18.2042 106.66 16.4399 106.66 14.2636Z" fill="url(#paint0_linear)"/>
        <path d="M113.749 23.4829H106.655C106.141 23.4829 105.725 23.02 105.725 22.4491C105.725 21.8786 106.141 21.4165 106.655 21.4165H113.749C114.263 21.4165 114.68 21.8786 114.68 22.4491C114.68 23.02 114.263 23.4829 113.749 23.4829ZM98.4427 32.7954C97.7579 32.7954 97.2018 32.1795 97.2018 31.4175C97.2018 30.6565 97.7579 30.039 98.4427 30.039C99.1282 30.039 99.6834 30.6565 99.6834 31.4175C99.6834 32.1795 99.1282 32.7954 98.4427 32.7954ZM88.7358 33.553C88.6813 31.7612 89.4095 30.1162 90.3911 28.7969C90.7618 28.2994 90.3224 28.2036 90.0607 27.8552C89.824 27.5422 89.6557 26.9389 89.3018 27.2164C86.4938 29.4197 85.131 33.4063 86.4453 37.3048C87.6412 40.852 90.7882 42.2935 93.6317 41.759C95.725 41.3636 97.2744 41.1226 98.4768 43.4338C99.276 44.9736 100.621 47.5622 101.224 48.7253C101.479 49.2132 101.631 49.3226 102.019 49.3226C103.18 49.3226 106.05 49.3226 106.235 49.3226C106.556 49.3226 106.638 49.0562 106.715 48.5964C107.021 46.7672 108.467 45.3817 110.202 45.3817C111.957 45.3817 113.415 46.7986 113.699 48.6583C113.778 49.1784 113.893 49.3226 114.225 49.3226C114.36 49.3226 117.235 49.3226 118.392 49.3226C118.685 49.3226 118.869 49.3226 119.122 48.8331C119.244 48.5981 125.732 36.1144 125.732 36.1144L125.745 36.0855C126.274 36.9595 127.206 37.3302 127.903 37.3141C128.065 37.3098 128.121 37.1088 127.984 36.9595C127.349 36.2663 126.897 35.2864 126.83 33.9493C126.801 33.3833 126.871 32.8412 126.953 32.2007C127.508 27.907 125.717 23.4736 122.129 21.1713C120.575 20.1758 118.878 19.7024 117.205 19.7041H103.199C101.526 19.7024 99.8295 20.1758 98.2764 21.1713C94.5467 23.5636 92.7666 28.2553 93.5362 32.7029C93.8355 34.4269 93.8235 36.4648 92.3973 37.2072C90.8157 38.0301 88.8432 37.0324 88.7358 33.553Z" fill="url(#paint1_linear)"/>
        <path d="M92.8107 22.2154C92.6807 21.1611 91.809 20.4434 90.8594 20.5706C89.8897 20.7005 89.22 21.6894 89.3788 22.738C89.528 23.7208 90.1305 23.8744 90.5219 24.9617C90.7356 25.5559 90.7945 26.1699 90.6926 26.6894C90.6521 26.8964 90.7272 26.9572 90.8323 26.8758C92.4707 25.6179 92.9507 23.3616 92.8107 22.2154Z" fill="url(#paint2_linear)"/>
        <path d="M63.3673 62.2804C63.3673 63.3368 63.1896 64.2599 62.8341 65.0496C62.4787 65.8345 61.9753 66.4342 61.3237 66.8489C60.6721 67.2635 59.9119 67.4708 59.0432 67.4708C58.1941 67.4708 57.4414 67.2635 56.7849 66.8489C56.1283 66.4293 55.6174 65.8345 55.2522 65.0644C54.8918 64.2895 54.7067 63.3936 54.6968 62.3767V61.5992C54.6968 60.5627 54.877 59.647 55.2374 58.8523C55.5977 58.0575 56.1061 57.4504 56.7626 57.0308C57.4241 56.6063 58.1793 56.394 59.0283 56.394C59.8922 56.394 60.6524 56.6038 61.3089 57.0234C61.9703 57.438 62.4787 58.0427 62.8341 58.8375C63.1896 59.6272 63.3673 60.5478 63.3673 61.5992V62.2804ZM61.953 61.5844C61.953 60.306 61.6964 59.3261 61.183 58.6449C60.6696 57.9588 59.9514 57.6157 59.0283 57.6157C58.13 57.6157 57.4216 57.9588 56.9033 58.6449C56.39 59.3261 56.1259 60.2739 56.1111 61.4882V62.2804C56.1111 63.5194 56.3702 64.4943 56.8885 65.2051C57.4117 65.911 58.13 66.2639 59.0432 66.2639C59.9613 66.2639 60.6721 65.9308 61.1756 65.2644C61.6791 64.593 61.9382 63.633 61.953 62.3841V61.5844ZM65.4034 59.3113H66.7806V66.2047H70.468V59.3113H71.8377V66.2047H72.7929L72.6596 69.6995H71.4305V67.3228H65.4034V59.3113ZM77.5983 67.4708C76.5123 67.4708 75.6287 67.1154 74.9475 66.4046C74.2663 65.6889 73.9257 64.7337 73.9257 63.5392V63.2874C73.9257 62.4927 74.0763 61.7844 74.3774 61.1624C74.6835 60.5355 75.108 60.0468 75.6509 59.6964C76.1989 59.3409 76.7912 59.1632 77.428 59.1632C78.4695 59.1632 79.279 59.5063 79.8566 60.1924C80.4341 60.8786 80.7229 61.8609 80.7229 63.1393V63.7095H75.2955C75.3153 64.4993 75.5448 65.1385 75.9841 65.6272C76.4284 66.1109 76.9911 66.3528 77.6723 66.3528C78.1561 66.3528 78.5658 66.2541 78.9014 66.0566C79.2371 65.8592 79.5308 65.5976 79.7825 65.2718L80.6192 65.9233C79.9479 66.955 78.9409 67.4708 77.5983 67.4708ZM77.428 60.2887C76.8751 60.2887 76.4111 60.4911 76.036 60.8958C75.6608 61.2957 75.4288 61.8584 75.34 62.584H79.3531V62.4804C79.3136 61.7844 79.126 61.2463 78.7904 60.8662C78.4547 60.4812 78.0006 60.2887 77.428 60.2887ZM88.8602 67.3228H87.4904V63.902H83.8105V67.3228H82.4333V59.3113H83.8105V62.7839H87.4904V59.3113H88.8602V67.3228ZM96.2496 59.3113H97.6194V67.3228H96.2496V61.4808L92.5549 67.3228H91.1851V59.3113H92.5549V65.1607L96.2496 59.3113ZM105.772 60.422H103.084V67.3228H101.714V60.422H99.0781V59.3113H105.772V60.422ZM109.836 67.4708C108.751 67.4708 107.867 67.1154 107.186 66.4046C106.505 65.6889 106.164 64.7337 106.164 63.5392V63.2874C106.164 62.4927 106.315 61.7844 106.616 61.1624C106.922 60.5355 107.346 60.0468 107.889 59.6964C108.437 59.3409 109.029 59.1632 109.666 59.1632C110.708 59.1632 111.517 59.5063 112.095 60.1924C112.672 60.8786 112.961 61.8609 112.961 63.1393V63.7095H107.534C107.554 64.4993 107.783 65.1385 108.222 65.6272C108.667 66.1109 109.229 66.3528 109.911 66.3528C110.394 66.3528 110.804 66.2541 111.14 66.0566C111.475 65.8592 111.769 65.5976 112.021 65.2718L112.857 65.9233C112.186 66.955 111.179 67.4708 109.836 67.4708ZM109.666 60.2887C109.113 60.2887 108.649 60.4911 108.274 60.8958C107.899 61.2957 107.667 61.8584 107.578 62.584H111.591V62.4804C111.552 61.7844 111.364 61.2463 111.029 60.8662C110.693 60.4812 110.239 60.2887 109.666 60.2887ZM126.681 56.5421V67.3228H125.26V57.712H121.395L121.202 61.9843C121.128 63.4158 120.98 64.4919 120.758 65.2125C120.541 65.9332 120.22 66.4639 119.795 66.8045C119.371 67.1401 118.803 67.3129 118.092 67.3228H117.626V66.1603L117.922 66.1455C118.381 66.1109 118.734 65.9628 118.981 65.7012C119.228 65.4347 119.415 65.0126 119.543 64.4351C119.672 63.8576 119.763 62.969 119.817 61.7695L120.04 56.5421H126.681ZM132.375 67.4708C131.289 67.4708 130.406 67.1154 129.724 66.4046C129.043 65.6889 128.703 64.7337 128.703 63.5392V63.2874C128.703 62.4927 128.853 61.7844 129.154 61.1624C129.46 60.5355 129.885 60.0468 130.428 59.6964C130.976 59.3409 131.568 59.1632 132.205 59.1632C133.246 59.1632 134.056 59.5063 134.633 60.1924C135.211 60.8786 135.5 61.8609 135.5 63.1393V63.7095H130.072C130.092 64.4993 130.322 65.1385 130.761 65.6272C131.205 66.1109 131.768 66.3528 132.449 66.3528C132.933 66.3528 133.343 66.2541 133.678 66.0566C134.014 65.8592 134.308 65.5976 134.559 65.2718L135.396 65.9233C134.725 66.955 133.718 67.4708 132.375 67.4708ZM132.205 60.2887C131.652 60.2887 131.188 60.4911 130.813 60.8958C130.438 61.2957 130.206 61.8584 130.117 62.584H134.13V62.4804C134.09 61.7844 133.903 61.2463 133.567 60.8662C133.232 60.4812 132.777 60.2887 132.205 60.2887ZM142.275 59.3113H143.644V67.3228H142.275V61.4808L138.58 67.3228H137.21V59.3113H138.58V65.1607L142.275 59.3113ZM142.645 56.394C142.645 56.9913 142.44 57.4726 142.03 57.8379C141.626 58.1982 141.092 58.3784 140.431 58.3784C139.77 58.3784 139.234 58.1958 138.824 57.8305C138.415 57.4652 138.21 56.9864 138.21 56.394H139.328C139.328 56.7396 139.422 57.0111 139.609 57.2085C139.797 57.401 140.071 57.4973 140.431 57.4973C140.776 57.4973 141.046 57.401 141.238 57.2085C141.435 57.016 141.534 56.7445 141.534 56.394H142.645ZM148.339 63.9094H147.339V67.3228H145.962V59.3113H147.339V62.7025H148.235L150.93 59.3113H152.589L149.42 63.1616L152.855 67.3228H151.115L148.339 63.9094ZM156.654 65.3162L158.52 59.3113H159.986L156.765 68.5593C156.266 69.892 155.474 70.5584 154.388 70.5584L154.129 70.5362L153.618 70.44V69.3293L153.988 69.3589C154.452 69.3589 154.813 69.2651 155.069 69.0776C155.331 68.89 155.546 68.5469 155.713 68.0484L156.017 67.2339L153.159 59.3113H154.655L156.654 65.3162Z" fill="#565656"/>
        <path d="M58.734 89.0761L61.1279 93.932C61.196 94.068 61.332 94.1632 61.4816 94.1904L66.8544 94.9794C67.2352 95.0338 67.3848 95.5098 67.1128 95.7819L63.2363 99.5632C63.1274 99.672 63.073 99.8216 63.1002 99.9713L64.0116 105.317C64.0796 105.698 63.6715 105.983 63.3315 105.807L58.53 103.277C58.394 103.209 58.2307 103.209 58.0947 103.277L53.2932 105.807C52.9532 105.983 52.5451 105.698 52.6131 105.317L53.5245 99.9713C53.5517 99.8216 53.4973 99.672 53.3884 99.5632L49.5119 95.7819C49.2399 95.5098 49.3895 95.0474 49.7703 94.9794L55.1431 94.204C55.2927 94.1768 55.4287 94.0816 55.4967 93.9456L57.8907 89.0897C58.0675 88.7361 58.5708 88.7361 58.734 89.0761Z" fill="#5AC147"/>
        <path d="M83.0778 89.0761L85.4717 93.932C85.5397 94.068 85.6757 94.1632 85.8254 94.1904L91.1981 94.9658C91.579 95.0202 91.7286 95.4962 91.4566 95.7683L87.58 99.5496C87.4712 99.6584 87.4168 99.808 87.444 99.9577L88.3553 105.317C88.4233 105.698 88.0153 105.983 87.6752 105.807L82.8737 103.277C82.7377 103.209 82.5745 103.209 82.4385 103.277L77.637 105.807C77.2969 105.983 76.8889 105.698 76.9569 105.317L77.8682 99.9713C77.8954 99.8216 77.841 99.672 77.7322 99.5632L73.8556 95.7819C73.5836 95.5098 73.7332 95.0474 74.1141 94.9794L79.4868 94.204C79.6365 94.1768 79.7725 94.0816 79.8405 93.9456L82.2344 89.0897C82.4113 88.7361 82.9009 88.7361 83.0778 89.0761Z" fill="#5AC147"/>
        <path d="M107.422 89.0761L109.815 93.932C109.883 94.068 110.019 94.1632 110.169 94.1904L115.542 94.9658C115.923 95.0202 116.072 95.4962 115.8 95.7683L111.924 99.5496C111.815 99.6584 111.761 99.808 111.788 99.9577L112.699 105.317C112.767 105.698 112.359 105.983 112.019 105.807L107.217 103.277C107.081 103.209 106.918 103.209 106.782 103.277L101.981 105.807C101.641 105.983 101.233 105.698 101.301 105.317L102.212 99.9713C102.239 99.8216 102.185 99.672 102.076 99.5632L98.1994 95.7819C97.9274 95.5098 98.077 95.0474 98.4578 94.9794L103.831 94.204C103.98 94.1768 104.116 94.0816 104.184 93.9456L106.578 89.0897C106.755 88.7361 107.245 88.7361 107.422 89.0761Z" fill="#5AC147"/>
        <path d="M131.767 89.0761L134.161 93.932C134.229 94.068 134.365 94.1632 134.515 94.1904L139.888 94.9794C140.268 95.0338 140.418 95.5098 140.146 95.7819L136.269 99.5632C136.161 99.672 136.106 99.8216 136.133 99.9713L137.045 105.317C137.113 105.698 136.705 105.983 136.365 105.807L131.563 103.277C131.427 103.209 131.264 103.209 131.128 103.277L126.326 105.807C125.986 105.983 125.578 105.698 125.646 105.317L126.558 99.9713C126.585 99.8216 126.53 99.672 126.422 99.5632L122.545 95.7819C122.273 95.5098 122.423 95.0474 122.804 94.9794L128.176 94.204C128.326 94.1768 128.462 94.0816 128.53 93.9456L130.924 89.0897C131.101 88.7361 131.604 88.7361 131.767 89.0761Z" fill="#5AC147"/>
        <path d="M156.111 89.0761L158.505 93.932C158.573 94.068 158.709 94.1632 158.859 94.1904L164.231 94.9658C164.612 95.0202 164.762 95.4962 164.49 95.7683L160.613 99.5496C160.504 99.6584 160.45 99.808 160.477 99.9577L161.389 105.317C161.457 105.698 161.048 105.983 160.708 105.807L155.907 103.277C155.771 103.209 155.608 103.209 155.472 103.277L150.67 105.807C150.33 105.983 149.922 105.698 149.99 105.317L150.901 99.9713C150.929 99.8216 150.874 99.672 150.765 99.5632L146.889 95.7819C146.617 95.5098 146.766 95.0474 147.147 94.9794L152.52 94.204C152.67 94.1768 152.806 94.0816 152.874 93.9456L155.268 89.0897C155.444 88.7361 155.934 88.7361 156.111 89.0761Z" fill="#5AC147"/>
        <line x1="0.869141" y1="79.9189" x2="213.5" y2="79.9189" stroke="#F1F1F1" stroke-width="0.5"/>
    </g>
    <defs>
        <linearGradient id="paint0_linear" x1="116.054" y1="20.759" x2="134.013" y2="36.9241" gradientUnits="userSpaceOnUse">
            <stop stop-color="#5AC147"/>
            <stop offset="1" stop-color="#2F8084"/>
        </linearGradient>
        <linearGradient id="paint1_linear" x1="106.265" y1="31.6284" x2="124.225" y2="47.7946" gradientUnits="userSpaceOnUse">
            <stop stop-color="#5AC147"/>
            <stop offset="1" stop-color="#2F8084"/>
        </linearGradient>
        <linearGradient id="paint2_linear" x1="102.323" y1="36.0138" x2="120.283" y2="52.1798" gradientUnits="userSpaceOnUse">
            <stop stop-color="#5AC147"/>
            <stop offset="1" stop-color="#2F8084"/>
        </linearGradient>
        <clipPath id="clip0">
            <rect x="0.5" width="213" height="121" rx="5" fill="white"/>
        </clipPath>
    </defs>
</svg>