<svg width="146" height="145" viewBox="0 0 146 145" fill="none" xmlns="http://www.w3.org/2000/svg">
<path fill-rule="evenodd" clip-rule="evenodd" d="M82.0218 67.9207C78.7794 65.0392 77.4007 60.5984 78.4409 56.3872C79.4812 52.176 82.7692 48.888 86.9804 47.8477C91.1916 46.8074 95.6325 48.1862 98.514 51.4286C99.6719 52.5852 100.583 53.9644 101.194 55.4829C101.566 56.4137 102.373 57.1005 103.352 57.3177C104.319 57.5312 105.328 57.2387 106.032 56.5412L115.109 47.4498C117.382 45.1215 117.342 41.3935 115.02 39.1144L105.489 29.5696C107.479 29.062 109.295 28.0269 110.746 26.5735C115.265 21.9009 115.202 14.4675 110.605 9.87181C106.007 5.27615 98.5738 5.21648 93.903 9.73775C92.4526 11.1871 91.42 13.0008 90.9138 14.9878L81.369 5.44291C80.2719 4.33114 78.778 3.70075 77.2161 3.69044C75.6542 3.68013 74.1521 4.29074 73.0404 5.38794L64.5882 13.8402C63.9678 14.4644 63.6645 15.3365 63.7636 16.2109C63.8628 17.0971 64.3482 17.8942 65.0898 18.3893C65.7551 18.8326 66.3743 19.3413 66.9383 19.9079C70.1807 22.7894 71.5595 27.2303 70.5192 31.4415C69.4789 35.6526 66.1909 38.9407 61.9797 39.981C57.7685 41.0212 53.3277 39.6425 50.4461 36.4001C49.8814 35.8319 49.3729 35.2106 48.9275 34.5447C48.4338 33.8017 47.6359 33.3159 46.7492 33.2185C45.8747 33.1194 45.0026 33.4227 44.3784 34.0431L35.9262 42.4953C33.6765 44.8195 33.7164 48.5212 36.0155 50.7964L69.687 84.4679C71.9664 86.7915 75.6976 86.8284 78.0224 84.5504L87.1344 75.4797C87.8306 74.7757 88.1206 73.7658 87.904 72.7997C87.6871 71.8234 87.0035 71.0164 86.0761 70.642C84.5532 70.021 83.1734 69.0949 82.0218 67.9207Z" fill="#5FD350" stroke="white" stroke-width="6" stroke-linecap="round" stroke-linejoin="round"/>
<path d="M24.045 144.674L10.2122 127.378C5.82368 121.896 3.43172 115.084 3.42975 108.062V72.5211C3.42975 66.8284 8.04462 62.2135 13.7374 62.2135V62.2135C19.4301 62.2135 24.045 66.8284 24.045 72.5211V98.2901" stroke="white" stroke-width="6" stroke-linecap="round" stroke-linejoin="round"/>
<path d="M54.9678 144.674V123.124C54.9726 117.01 53.1647 111.032 49.7728 105.945L41.9184 94.1669C40.5653 91.9106 38.3471 90.3069 35.7804 89.7291C33.2137 89.1514 30.5223 89.65 28.3329 91.109V91.109C24.2901 93.8102 22.8983 99.1033 25.0895 103.444L34.3526 118.905" stroke="white" stroke-width="6" stroke-linecap="round" stroke-linejoin="round"/>
<path d="M122.385 144.674L136.225 127.378C140.611 121.895 143 115.083 143 108.062V72.5211C143 66.8284 138.385 62.2135 132.692 62.2135V62.2135C127 62.2135 122.385 66.8284 122.385 72.5211V98.2901" stroke="white" stroke-width="6" stroke-linecap="round" stroke-linejoin="round"/>
<path d="M91.462 144.674V123.124C91.4593 117.01 93.2696 111.031 96.6639 105.945L104.518 94.1669C105.871 91.9106 108.09 90.3069 110.656 89.7291C113.223 89.1514 115.914 89.65 118.104 91.109V91.109C122.154 93.8039 123.555 99.0983 121.368 103.444L112.077 118.905" stroke="white" stroke-width="6" stroke-linecap="round" stroke-linejoin="round"/>
</svg>
