<svg width="641" height="176" viewBox="0 0 641 176" fill="none" xmlns="http://www.w3.org/2000/svg">
<g filter="url(#filter0_d)">
<rect x="4" y="2" width="633" height="168" rx="6" fill="url(#paint0_linear)"/>
</g>
<path d="M56.0859 66.7852L64.1719 48.5625H67.0039L56.0078 72.3711L55.3047 73.7188C53.9245 76.1797 51.8932 77.4102 49.2109 77.4102C48.4167 77.4102 47.8047 77.3385 47.375 77.1953L47.5898 75.2422C47.8633 75.3333 48.4102 75.3789 49.2305 75.3789C50.8451 75.3789 52.1406 74.5521 53.1172 72.8984L53.6055 72.0195L54.8359 69.4805L44.0742 48.5625H46.8281L56.0859 66.7852ZM77.6484 75.418C79.276 75.418 80.6367 74.9622 81.7305 74.0508C82.8372 73.1263 83.4362 71.9349 83.5273 70.4766H85.7734C85.7083 71.7656 85.3047 72.944 84.5625 74.0117C83.8203 75.0664 82.8307 75.8932 81.5938 76.4922C80.3698 77.0911 79.0547 77.3906 77.6484 77.3906C74.875 77.3906 72.6745 76.4271 71.0469 74.5C69.4323 72.5729 68.625 69.9818 68.625 66.7266V66.0234C68.625 63.9401 68.9896 62.0977 69.7188 60.4961C70.4479 58.8945 71.4896 57.6576 72.8438 56.7852C74.2109 55.9128 75.806 55.4766 77.6289 55.4766C79.9466 55.4766 81.8542 56.1667 83.3516 57.5469C84.862 58.9271 85.6693 60.7435 85.7734 62.9961H83.5273C83.4232 61.3424 82.8242 60.0078 81.7305 58.9922C80.6497 57.9766 79.2826 57.4688 77.6289 57.4688C75.5195 57.4688 73.8789 58.2305 72.707 59.7539C71.5482 61.2773 70.9688 63.4128 70.9688 66.1602V66.8438C70.9688 69.5391 71.5482 71.6419 72.707 73.1523C73.8789 74.6628 75.526 75.418 77.6484 75.418ZM105.637 57.8594H97.9414V77H95.5977V57.8594H88.1953V55.8672H105.637V57.8594ZM122.512 77C122.277 76.3359 122.128 75.3529 122.062 74.0508C121.242 75.1185 120.194 75.9453 118.918 76.5312C117.655 77.1042 116.314 77.3906 114.895 77.3906C112.863 77.3906 111.216 76.8242 109.953 75.6914C108.703 74.5586 108.078 73.1263 108.078 71.3945C108.078 69.3372 108.931 67.7096 110.637 66.5117C112.355 65.3138 114.745 64.7148 117.805 64.7148H122.043V62.3125C122.043 60.8021 121.574 59.6172 120.637 58.7578C119.712 57.8854 118.358 57.4492 116.574 57.4492C114.947 57.4492 113.599 57.8659 112.531 58.6992C111.464 59.5326 110.93 60.5352 110.93 61.707L108.586 61.6875C108.586 60.0078 109.367 58.556 110.93 57.332C112.492 56.0951 114.413 55.4766 116.691 55.4766C119.048 55.4766 120.904 56.069 122.258 57.2539C123.625 58.4258 124.328 60.0664 124.367 62.1758V72.1758C124.367 74.2201 124.582 75.75 125.012 76.7656V77H122.512ZM115.168 75.3203C116.73 75.3203 118.124 74.9427 119.348 74.1875C120.585 73.4323 121.483 72.4232 122.043 71.1602V66.5117H117.863C115.533 66.5378 113.71 66.9674 112.395 67.8008C111.079 68.6211 110.422 69.7539 110.422 71.1992C110.422 72.3841 110.858 73.3672 111.73 74.1484C112.616 74.9297 113.762 75.3203 115.168 75.3203ZM146.848 77H144.504V67.3125H133.117V77H130.773V55.8672H133.117V65.3398H144.504V55.8672H146.848V77ZM151.828 66.1211C151.828 64.0898 152.219 62.2604 153 60.6328C153.794 59.0052 154.908 57.7422 156.34 56.8438C157.785 55.9323 159.419 55.4766 161.242 55.4766C164.055 55.4766 166.333 56.4661 168.078 58.4453C169.823 60.4115 170.695 63.0221 170.695 66.2773V66.7656C170.695 68.8099 170.298 70.6523 169.504 72.293C168.723 73.9206 167.616 75.1771 166.184 76.0625C164.751 76.9479 163.117 77.3906 161.281 77.3906C158.482 77.3906 156.203 76.4076 154.445 74.4414C152.701 72.4622 151.828 69.8451 151.828 66.5898V66.1211ZM154.172 66.7656C154.172 69.2917 154.823 71.3685 156.125 72.9961C157.44 74.6107 159.159 75.418 161.281 75.418C163.391 75.418 165.096 74.6107 166.398 72.9961C167.714 71.3685 168.371 69.2266 168.371 66.5703V66.1211C168.371 64.5065 168.072 63.0286 167.473 61.6875C166.874 60.3464 166.034 59.3112 164.953 58.582C163.872 57.8398 162.635 57.4688 161.242 57.4688C159.159 57.4688 157.46 58.2891 156.145 59.9297C154.829 61.5573 154.172 63.6927 154.172 66.3359V66.7656ZM175.793 77V55.8672H183.547C186.229 55.8672 188.286 56.349 189.719 57.3125C191.151 58.263 191.867 59.6628 191.867 61.5117C191.867 62.5664 191.548 63.5104 190.91 64.3438C190.272 65.1641 189.341 65.763 188.117 66.1406C189.497 66.401 190.604 66.9935 191.438 67.918C192.284 68.8424 192.707 69.9167 192.707 71.1406C192.707 73.0026 192.017 74.4479 190.637 75.4766C189.27 76.4922 187.329 77 184.816 77H175.793ZM178.117 67.2734V75.0469H184.895C186.652 75.0469 188.007 74.7083 188.957 74.0312C189.908 73.3542 190.383 72.3776 190.383 71.1016C190.383 69.9297 189.908 68.9987 188.957 68.3086C188.007 67.6185 186.652 67.2734 184.895 67.2734H178.117ZM178.117 65.3203H184.035C187.707 65.2682 189.543 64.0182 189.543 61.5703C189.543 60.2812 189.035 59.3438 188.02 58.7578C187.017 58.1589 185.526 57.8594 183.547 57.8594H178.117V65.3203ZM211.809 55.8672H214.152V77H211.809V59.6367L200.402 77H198.078V55.8672H200.402V73.25L211.809 55.8672ZM235.598 57.8594H227.902V77H225.559V57.8594H218.156V55.8672H235.598V57.8594ZM246.066 77.3906C244.27 77.3906 242.642 76.9479 241.184 76.0625C239.738 75.1771 238.612 73.9466 237.805 72.3711C236.997 70.7826 236.594 69.0052 236.594 67.0391V66.1992C236.594 64.168 236.984 62.3385 237.766 60.7109C238.56 59.0833 239.66 57.8073 241.066 56.8828C242.473 55.9453 243.996 55.4766 245.637 55.4766C248.202 55.4766 250.233 56.3555 251.73 58.1133C253.241 59.8581 253.996 62.2474 253.996 65.2812V66.5898H238.918V67.0391C238.918 69.4349 239.602 71.4336 240.969 73.0352C242.349 74.6237 244.081 75.418 246.164 75.418C247.414 75.418 248.514 75.1901 249.465 74.7344C250.428 74.2786 251.301 73.5495 252.082 72.5469L253.547 73.6602C251.828 76.1471 249.335 77.3906 246.066 77.3906ZM245.637 57.4688C243.879 57.4688 242.395 58.1133 241.184 59.4023C239.986 60.6914 239.257 62.4232 238.996 64.5977H251.672V64.3438C251.607 62.3125 251.027 60.6589 249.934 59.3828C248.84 58.1068 247.408 57.4688 245.637 57.4688ZM289.66 48.5625V77H287.258V50.6133H275.246L274.582 62.3711C274.322 66.5768 273.918 69.6367 273.371 71.5508C272.837 73.4518 272.069 74.832 271.066 75.6914C270.077 76.5378 268.729 76.974 267.023 77H266.008V74.9688L266.789 74.9492C268.13 74.8841 269.139 74.4609 269.816 73.6797C270.493 72.8984 271.014 71.6354 271.379 69.8906C271.757 68.1328 272.049 65.4245 272.258 61.7656L272.961 48.5625H289.66ZM304.543 77.3906C302.746 77.3906 301.118 76.9479 299.66 76.0625C298.215 75.1771 297.089 73.9466 296.281 72.3711C295.474 70.7826 295.07 69.0052 295.07 67.0391V66.1992C295.07 64.168 295.461 62.3385 296.242 60.7109C297.036 59.0833 298.137 57.8073 299.543 56.8828C300.949 55.9453 302.473 55.4766 304.113 55.4766C306.678 55.4766 308.71 56.3555 310.207 58.1133C311.717 59.8581 312.473 62.2474 312.473 65.2812V66.5898H297.395V67.0391C297.395 69.4349 298.078 71.4336 299.445 73.0352C300.826 74.6237 302.557 75.418 304.641 75.418C305.891 75.418 306.991 75.1901 307.941 74.7344C308.905 74.2786 309.777 73.5495 310.559 72.5469L312.023 73.6602C310.305 76.1471 307.811 77.3906 304.543 77.3906ZM304.113 57.4688C302.355 57.4688 300.871 58.1133 299.66 59.4023C298.462 60.6914 297.733 62.4232 297.473 64.5977H310.148V64.3438C310.083 62.3125 309.504 60.6589 308.41 59.3828C307.316 58.1068 305.884 57.4688 304.113 57.4688ZM330.91 55.8672H333.254V77H330.91V59.6367L319.504 77H317.18V55.8672H319.504V73.25L330.91 55.8672ZM330.793 48.25C330.793 49.7474 330.279 50.9583 329.25 51.8828C328.234 52.8073 326.867 53.2695 325.148 53.2695C323.456 53.2695 322.089 52.8138 321.047 51.9023C320.018 50.9779 319.504 49.7604 319.504 48.25H321.496C321.496 49.3307 321.815 50.1576 322.453 50.7305C323.104 51.3034 324.003 51.5898 325.148 51.5898C326.294 51.5898 327.186 51.2904 327.824 50.6914C328.475 50.0924 328.801 49.2786 328.801 48.25H330.793ZM345.266 67.3125H342.023V77H339.66V55.8672H342.023V65.2422H345.227L352.98 55.8672H355.93L347.258 66.1211L356.887 77H353.801L345.266 67.3125ZM366.965 73.6406L373.137 55.8672H375.656L366.633 80.5938L366.164 81.6875C365.005 84.2526 363.215 85.5352 360.793 85.5352C360.233 85.5352 359.634 85.444 358.996 85.2617L358.977 83.3281L360.188 83.4453C361.333 83.4453 362.258 83.1589 362.961 82.5859C363.677 82.026 364.283 81.056 364.777 79.6758L365.812 76.8242L357.844 55.8672H360.402L366.965 73.6406Z" fill="white"/>
<path d="M58.4297 101.453C58.4297 100.177 57.9544 99.194 57.0039 98.5039C56.0534 97.8138 54.7448 97.4688 53.0781 97.4688C51.5677 97.4688 50.2721 97.8594 49.1914 98.6406C48.1237 99.4089 47.5898 100.385 47.5898 101.57H45.2656C45.2656 99.8125 46.0143 98.3607 47.5117 97.2148C49.0221 96.069 50.8776 95.4961 53.0781 95.4961C55.5 95.4961 57.388 96.0169 58.7422 97.0586C60.0964 98.1003 60.7734 99.5781 60.7734 101.492C60.7734 102.508 60.4609 103.426 59.8359 104.246C59.2109 105.066 58.2995 105.704 57.1016 106.16C59.8099 106.902 61.1641 108.582 61.1641 111.199C61.1641 113.1 60.4284 114.604 58.957 115.711C57.4857 116.818 55.5326 117.371 53.0977 117.371C50.7409 117.371 48.7878 116.779 47.2383 115.594C45.6888 114.409 44.9141 112.859 44.9141 110.945H47.2578C47.2578 112.221 47.8177 113.289 48.9375 114.148C50.0703 114.995 51.457 115.418 53.0977 115.418C54.8815 115.418 56.2747 115.047 57.2773 114.305C58.293 113.549 58.8008 112.527 58.8008 111.238C58.8008 109.819 58.3385 108.797 57.4141 108.172C56.4896 107.547 55.0768 107.234 53.1758 107.234H49.9531V105.203H53.5664C56.8086 105.125 58.4297 103.875 58.4297 101.453ZM79.6602 117C79.4258 116.336 79.276 115.353 79.2109 114.051C78.3906 115.118 77.3424 115.945 76.0664 116.531C74.8034 117.104 73.4622 117.391 72.043 117.391C70.0117 117.391 68.3646 116.824 67.1016 115.691C65.8516 114.559 65.2266 113.126 65.2266 111.395C65.2266 109.337 66.0794 107.71 67.7852 106.512C69.5039 105.314 71.8932 104.715 74.9531 104.715H79.1914V102.312C79.1914 100.802 78.7227 99.6172 77.7852 98.7578C76.8607 97.8854 75.5065 97.4492 73.7227 97.4492C72.0951 97.4492 70.7474 97.8659 69.6797 98.6992C68.612 99.5326 68.0781 100.535 68.0781 101.707L65.7344 101.688C65.7344 100.008 66.5156 98.556 68.0781 97.332C69.6406 96.0951 71.5612 95.4766 73.8398 95.4766C76.1966 95.4766 78.0521 96.069 79.4062 97.2539C80.7734 98.4258 81.4766 100.066 81.5156 102.176V112.176C81.5156 114.22 81.7305 115.75 82.1602 116.766V117H79.6602ZM72.3164 115.32C73.8789 115.32 75.2721 114.943 76.4961 114.188C77.7331 113.432 78.6315 112.423 79.1914 111.16V106.512H75.0117C72.681 106.538 70.8581 106.967 69.543 107.801C68.2279 108.621 67.5703 109.754 67.5703 111.199C67.5703 112.384 68.0065 113.367 68.8789 114.148C69.7643 114.93 70.9102 115.32 72.3164 115.32ZM113.723 117H111.379V97.8789H99.9922V117H97.6484V95.8672H113.723V117ZM133.332 117C133.098 116.336 132.948 115.353 132.883 114.051C132.062 115.118 131.014 115.945 129.738 116.531C128.475 117.104 127.134 117.391 125.715 117.391C123.684 117.391 122.036 116.824 120.773 115.691C119.523 114.559 118.898 113.126 118.898 111.395C118.898 109.337 119.751 107.71 121.457 106.512C123.176 105.314 125.565 104.715 128.625 104.715H132.863V102.312C132.863 100.802 132.395 99.6172 131.457 98.7578C130.533 97.8854 129.178 97.4492 127.395 97.4492C125.767 97.4492 124.419 97.8659 123.352 98.6992C122.284 99.5326 121.75 100.535 121.75 101.707L119.406 101.688C119.406 100.008 120.188 98.556 121.75 97.332C123.312 96.0951 125.233 95.4766 127.512 95.4766C129.868 95.4766 131.724 96.069 133.078 97.2539C134.445 98.4258 135.148 100.066 135.188 102.176V112.176C135.188 114.22 135.402 115.75 135.832 116.766V117H133.332ZM125.988 115.32C127.551 115.32 128.944 114.943 130.168 114.188C131.405 113.432 132.303 112.423 132.863 111.16V106.512H128.684C126.353 106.538 124.53 106.967 123.215 107.801C121.9 108.621 121.242 109.754 121.242 111.199C121.242 112.384 121.678 113.367 122.551 114.148C123.436 114.93 124.582 115.32 125.988 115.32ZM158.43 106.648C158.43 109.943 157.701 112.56 156.242 114.5C154.784 116.427 152.831 117.391 150.383 117.391C147.492 117.391 145.279 116.375 143.742 114.344V125.125H141.418V95.8672H143.586L143.703 98.8555C145.227 96.6029 147.434 95.4766 150.324 95.4766C152.85 95.4766 154.829 96.4336 156.262 98.3477C157.707 100.262 158.43 102.918 158.43 106.316V106.648ZM156.086 106.238C156.086 103.543 155.533 101.414 154.426 99.8516C153.319 98.2891 151.776 97.5078 149.797 97.5078C148.365 97.5078 147.134 97.8529 146.105 98.543C145.077 99.2331 144.289 100.236 143.742 101.551V111.688C144.302 112.898 145.103 113.823 146.145 114.461C147.186 115.099 148.417 115.418 149.836 115.418C151.802 115.418 153.332 114.637 154.426 113.074C155.533 111.499 156.086 109.22 156.086 106.238ZM170.09 113.641L176.262 95.8672H178.781L169.758 120.594L169.289 121.688C168.13 124.253 166.34 125.535 163.918 125.535C163.358 125.535 162.759 125.444 162.121 125.262L162.102 123.328L163.312 123.445C164.458 123.445 165.383 123.159 166.086 122.586C166.802 122.026 167.408 121.056 167.902 119.676L168.938 116.824L160.969 95.8672H163.527L170.09 113.641ZM194.641 95.8672V115.027H204.035V95.8672H206.379V115.027H215.695V95.8672H218.039V117H192.297V95.8672H194.641ZM237.238 117C237.004 116.336 236.854 115.353 236.789 114.051C235.969 115.118 234.921 115.945 233.645 116.531C232.382 117.104 231.04 117.391 229.621 117.391C227.59 117.391 225.943 116.824 224.68 115.691C223.43 114.559 222.805 113.126 222.805 111.395C222.805 109.337 223.658 107.71 225.363 106.512C227.082 105.314 229.471 104.715 232.531 104.715H236.77V102.312C236.77 100.802 236.301 99.6172 235.363 98.7578C234.439 97.8854 233.085 97.4492 231.301 97.4492C229.673 97.4492 228.326 97.8659 227.258 98.6992C226.19 99.5326 225.656 100.535 225.656 101.707L223.312 101.688C223.312 100.008 224.094 98.556 225.656 97.332C227.219 96.0951 229.139 95.4766 231.418 95.4766C233.775 95.4766 235.63 96.069 236.984 97.2539C238.352 98.4258 239.055 100.066 239.094 102.176V112.176C239.094 114.22 239.309 115.75 239.738 116.766V117H237.238ZM229.895 115.32C231.457 115.32 232.85 114.943 234.074 114.188C235.311 113.432 236.21 112.423 236.77 111.16V106.512H232.59C230.259 106.538 228.436 106.967 227.121 107.801C225.806 108.621 225.148 109.754 225.148 111.199C225.148 112.384 225.585 113.367 226.457 114.148C227.342 114.93 228.488 115.32 229.895 115.32ZM258.508 97.8789H247.824V117H245.48V95.8672H258.508V97.8789ZM260.539 106.121C260.539 104.09 260.93 102.26 261.711 100.633C262.505 99.0052 263.618 97.7422 265.051 96.8438C266.496 95.9323 268.13 95.4766 269.953 95.4766C272.766 95.4766 275.044 96.4661 276.789 98.4453C278.534 100.411 279.406 103.022 279.406 106.277V106.766C279.406 108.81 279.009 110.652 278.215 112.293C277.434 113.921 276.327 115.177 274.895 116.062C273.462 116.948 271.828 117.391 269.992 117.391C267.193 117.391 264.914 116.408 263.156 114.441C261.411 112.462 260.539 109.845 260.539 106.59V106.121ZM262.883 106.766C262.883 109.292 263.534 111.368 264.836 112.996C266.151 114.611 267.87 115.418 269.992 115.418C272.102 115.418 273.807 114.611 275.109 112.996C276.424 111.368 277.082 109.227 277.082 106.57V106.121C277.082 104.507 276.783 103.029 276.184 101.688C275.585 100.346 274.745 99.3112 273.664 98.582C272.583 97.8398 271.346 97.4688 269.953 97.4688C267.87 97.4688 266.171 98.2891 264.855 99.9297C263.54 101.557 262.883 103.693 262.883 106.336V106.766ZM284.504 117V95.8672H292.258C294.94 95.8672 296.997 96.349 298.43 97.3125C299.862 98.263 300.578 99.6628 300.578 101.512C300.578 102.566 300.259 103.51 299.621 104.344C298.983 105.164 298.052 105.763 296.828 106.141C298.208 106.401 299.315 106.993 300.148 107.918C300.995 108.842 301.418 109.917 301.418 111.141C301.418 113.003 300.728 114.448 299.348 115.477C297.98 116.492 296.04 117 293.527 117H284.504ZM286.828 107.273V115.047H293.605C295.363 115.047 296.717 114.708 297.668 114.031C298.618 113.354 299.094 112.378 299.094 111.102C299.094 109.93 298.618 108.999 297.668 108.309C296.717 107.618 295.363 107.273 293.605 107.273H286.828ZM286.828 105.32H292.746C296.418 105.268 298.254 104.018 298.254 101.57C298.254 100.281 297.746 99.3438 296.73 98.7578C295.728 98.1589 294.237 97.8594 292.258 97.8594H286.828V105.32Z" fill="#FAFAFA"/>
<path d="M343.033 113.42L350.301 106.152L343.033 98.8833" stroke="#9ADC98" stroke-width="1.5" stroke-linecap="round" stroke-linejoin="round"/>
<path d="M350.304 106.152H318.001" stroke="#9ADC98" stroke-width="1.5" stroke-linecap="round" stroke-linejoin="round"/>
<mask id="mask0" mask-type="alpha" maskUnits="userSpaceOnUse" x="4" y="2" width="633" height="168">
<rect x="4" y="2" width="633" height="168" rx="6" fill="url(#paint1_linear)"/>
</mask>
<g mask="url(#mask0)">
<g filter="url(#filter1_d)">
<circle cx="582" cy="116" r="76.3125" fill="#0085BA" stroke="#006799" stroke-width="3.375"/>
<path fill-rule="evenodd" clip-rule="evenodd" d="M561.161 92.7714L577.026 97.6698L588.574 88.1148C589.096 87.6377 589.853 87.5176 590.498 87.8094C591.142 88.1012 591.551 88.7489 591.538 89.4564L591.074 106.375L605.469 114.327C606.083 114.711 606.419 115.417 606.328 116.136C606.238 116.856 605.738 117.457 605.047 117.677L589.307 123.308L583.675 139.049C583.457 139.74 582.856 140.241 582.137 140.331C581.418 140.422 580.712 140.085 580.329 139.47L572.373 125.075L555.455 125.539C554.747 125.553 554.1 125.144 553.808 124.499C553.516 123.854 553.636 123.098 554.113 122.575L563.672 111.023L558.774 95.1582C558.594 94.4858 558.787 93.7687 559.279 93.2766C559.771 92.7845 560.488 92.592 561.161 92.7714Z" stroke="white" stroke-width="5.0625" stroke-linecap="round" stroke-linejoin="round"/>
<path d="M589.305 123.304L625.875 159.875" stroke="white" stroke-width="5.0625" stroke-linecap="round" stroke-linejoin="round"/>
<path d="M605.402 77.9751H617.102" stroke="white" stroke-width="5.0625" stroke-linecap="round" stroke-linejoin="round"/>
<path d="M611.25 72.1248V83.8248" stroke="white" stroke-width="5.0625" stroke-linecap="round" stroke-linejoin="round"/>
<path d="M543.975 148.175H555.675" stroke="white" stroke-width="5.0625" stroke-linecap="round" stroke-linejoin="round"/>
<path d="M549.828 142.325V154.025" stroke="white" stroke-width="5.0625" stroke-linecap="round" stroke-linejoin="round"/>
<path d="M570.301 80.8998V72.1248" stroke="white" stroke-width="5.0625" stroke-linecap="round" stroke-linejoin="round"/>
<path d="M538.127 107.224H546.902" stroke="white" stroke-width="5.0625" stroke-linecap="round" stroke-linejoin="round"/>
</g>
</g>
<defs>
<filter id="filter0_d" x="0" y="0" width="641" height="176" filterUnits="userSpaceOnUse" color-interpolation-filters="sRGB">
<feFlood flood-opacity="0" result="BackgroundImageFix"/>
<feColorMatrix in="SourceAlpha" type="matrix" values="0 0 0 0 0 0 0 0 0 0 0 0 0 0 0 0 0 0 127 0"/>
<feOffset dy="2"/>
<feGaussianBlur stdDeviation="2"/>
<feColorMatrix type="matrix" values="0 0 0 0 0 0 0 0 0 0 0 0 0 0 0 0 0 0 0.08 0"/>
<feBlend mode="normal" in2="BackgroundImageFix" result="effect1_dropShadow"/>
<feBlend mode="normal" in="SourceGraphic" in2="effect1_dropShadow" result="shape"/>
</filter>
<filter id="filter1_d" x="472" y="6" width="220" height="220" filterUnits="userSpaceOnUse" color-interpolation-filters="sRGB">
<feFlood flood-opacity="0" result="BackgroundImageFix"/>
<feColorMatrix in="SourceAlpha" type="matrix" values="0 0 0 0 0 0 0 0 0 0 0 0 0 0 0 0 0 0 127 0"/>
<feOffset/>
<feGaussianBlur stdDeviation="16"/>
<feColorMatrix type="matrix" values="0 0 0 0 0.10627 0 0 0 0 0.49373 0 0 0 0 0.170846 0 0 0 0.48 0"/>
<feBlend mode="normal" in2="BackgroundImageFix" result="effect1_dropShadow"/>
<feBlend mode="normal" in="SourceGraphic" in2="effect1_dropShadow" result="shape"/>
</filter>
<linearGradient id="paint0_linear" x1="320.5" y1="2" x2="320.5" y2="170" gradientUnits="userSpaceOnUse">
<stop stop-color="#5AC147"/>
<stop offset="1" stop-color="#39A94E"/>
</linearGradient>
<linearGradient id="paint1_linear" x1="320.5" y1="2" x2="320.5" y2="170" gradientUnits="userSpaceOnUse">
<stop stop-color="#4BAA5D"/>
<stop offset="1" stop-color="#5AC147"/>
</linearGradient>
</defs>
</svg>
