<svg width="40" height="40" viewBox="0 0 40 40" fill="none" xmlns="http://www.w3.org/2000/svg">
<circle cx="20" cy="20" r="19.5" fill="white" stroke="#F1F1F1"/>
<path fill-rule="evenodd" clip-rule="evenodd" d="M9.23676 22.0839C11.1161 22.0839 12.6395 20.5604 12.6395 18.6811C12.6395 16.8018 11.1161 15.2783 9.23676 15.2783C7.35746 15.2783 5.83398 16.8018 5.83398 18.6811C5.83398 20.5604 7.35746 22.0839 9.23676 22.0839Z" stroke="#0085BA" stroke-width="1.5" stroke-linecap="round" stroke-linejoin="round"/>
<path d="M14.6021 26.5984C13.9061 24.9713 12.509 23.7481 10.8041 23.2733C9.09924 22.7984 7.27098 23.1232 5.83398 24.1562" stroke="#0085BA" stroke-width="1.5" stroke-linecap="round" stroke-linejoin="round"/>
<path fill-rule="evenodd" clip-rule="evenodd" d="M31.5981 22.0839C33.4774 22.0839 35.0009 20.5604 35.0009 18.6811C35.0009 16.8018 33.4774 15.2783 31.5981 15.2783C29.7188 15.2783 28.1953 16.8018 28.1953 18.6811C28.1953 20.5604 29.7188 22.0839 31.5981 22.0839Z" stroke="#0085BA" stroke-width="1.5" stroke-linecap="round" stroke-linejoin="round"/>
<path d="M26.2324 26.5984C26.9285 24.9713 28.3256 23.7481 30.0304 23.2733C31.7353 22.7984 33.5636 23.1232 35.0006 24.1562" stroke="#0085BA" stroke-width="1.5" stroke-linecap="round" stroke-linejoin="round"/>
<path fill-rule="evenodd" clip-rule="evenodd" d="M20.418 22.0837C22.8342 22.0837 24.793 20.125 24.793 17.7087C24.793 15.2925 22.8342 13.3337 20.418 13.3337C18.0017 13.3337 16.043 15.2925 16.043 17.7087C16.043 20.125 18.0017 22.0837 20.418 22.0837Z" stroke="#0085BA" stroke-width="1.5" stroke-linecap="round" stroke-linejoin="round"/>
<path d="M26.5294 26.9431C25.0364 25.0991 22.7907 24.0278 20.418 24.0278C18.0454 24.0278 15.7996 25.0991 14.3066 26.9431" stroke="#0085BA" stroke-width="1.5" stroke-linecap="round" stroke-linejoin="round"/>
</svg>
