<svg width="24" height="24" viewBox="0 0 24 24" fill="none" xmlns="http://www.w3.org/2000/svg">
<path d="M13.726 12.1918C13.6164 12.0822 13.6164 11.9178 13.726 11.8082L17.8356 7.69863C17.9452 7.58904 18 7.42466 18 7.31507C18 7.20548 17.9452 7.0411 17.8356 6.93151L17.0685 6.16438C16.9589 6.05479 16.7945 6 16.6849 6C16.5205 6 16.411 6.05479 16.3014 6.16438L12.1918 10.274C12.0822 10.3836 11.9178 10.3836 11.8082 10.274L7.69863 6.16438C7.58904 6.05479 7.42466 6 7.31507 6C7.20548 6 7.0411 6.05479 6.93151 6.16438L6.16438 6.93151C6.05479 7.0411 6 7.20548 6 7.31507C6 7.42466 6.05479 7.58904 6.16438 7.69863L10.274 11.8082C10.3836 11.9178 10.3836 12.0822 10.274 12.1918L6.16438 16.3014C6.05479 16.411 6 16.5753 6 16.6849C6 16.7945 6.05479 16.9589 6.16438 17.0685L6.93151 17.8356C7.0411 17.9452 7.20548 18 7.31507 18C7.42466 18 7.58904 17.9452 7.69863 17.8356L11.8082 13.726C11.9178 13.6164 12.0822 13.6164 12.1918 13.726L16.3014 17.8356C16.411 17.9452 16.5753 18 16.6849 18C16.7945 18 16.9589 17.9452 17.0685 17.8356L17.8356 17.0685C17.9452 16.9589 18 16.7945 18 16.6849C18 16.5753 17.9452 16.411 17.8356 16.3014L13.726 12.1918Z" fill="#565656"/>
</svg>
