<svg width="24" height="24" viewBox="0 0 24 24" fill="none" xmlns="http://www.w3.org/2000/svg">
<circle cx="12" cy="11.9998" r="11.5" fill="#0085BA" stroke="#006799"/>
<path fill-rule="evenodd" clip-rule="evenodd" d="M6.59961 6.74976C6.59961 5.92133 7.27118 5.24976 8.09961 5.24976H15.8996C16.728 5.24976 17.3996 5.92133 17.3996 6.74976V17.2498C17.3996 18.0782 16.728 18.7498 15.8996 18.7498H8.09961C7.27118 18.7498 6.59961 18.0782 6.59961 17.2498V6.74976Z" stroke="white" stroke-width="1.5" stroke-linecap="round" stroke-linejoin="round"/>
<path d="M9.29883 5.24976V18.7498" stroke="white" stroke-width="1.5" stroke-linecap="round" stroke-linejoin="round"/>
<path fill-rule="evenodd" clip-rule="evenodd" d="M15.5996 8.84971C15.5996 9.34676 15.1967 9.74971 14.6996 9.74971H11.9996C11.5026 9.74971 11.0996 9.34676 11.0996 8.84971C11.0996 8.35265 11.5026 7.94971 11.9996 7.94971H14.6996C15.1967 7.94971 15.5996 8.35265 15.5996 8.84971Z" stroke="white" stroke-linecap="round" stroke-linejoin="round"/>
</svg>
