<svg width="24" height="24" viewBox="0 0 24 24" fill="none" xmlns="http://www.w3.org/2000/svg">
<circle cx="12" cy="12" r="11.5" fill="#0085BA" stroke="#006799"/>
<path fill-rule="evenodd" clip-rule="evenodd" d="M8.79409 8.42629L11.2349 9.17989L13.0115 7.70989C13.0919 7.6365 13.2083 7.61802 13.3075 7.66291C13.4067 7.70781 13.4696 7.80745 13.4675 7.91629L13.3961 10.5191L15.6107 11.7425C15.7053 11.8016 15.7569 11.9103 15.743 12.0209C15.7291 12.1316 15.6522 12.224 15.5459 12.2579L13.1243 13.1243L12.2579 15.5459C12.2243 15.6522 12.1319 15.7292 12.0212 15.7432C11.9106 15.7571 11.802 15.7054 11.7431 15.6107L10.5191 13.3961L7.91629 13.4675C7.80745 13.4696 7.70781 13.4067 7.66291 13.3075C7.61802 13.2083 7.6365 13.0919 7.70989 13.0115L9.18049 11.2343L8.42689 8.79349C8.39929 8.69005 8.42891 8.57973 8.50462 8.50402C8.58033 8.42831 8.69065 8.39869 8.79409 8.42629Z" stroke="white" stroke-width="1.5" stroke-linecap="round" stroke-linejoin="round"/>
<path d="M13.123 13.1238L18.7492 18.75" stroke="white" stroke-width="1.5" stroke-linecap="round" stroke-linejoin="round"/>
<path d="M15.5996 6.1499H17.3996" stroke="white" stroke-width="1.5" stroke-linecap="round" stroke-linejoin="round"/>
<path d="M16.5 5.25V7.05" stroke="white" stroke-width="1.5" stroke-linecap="round" stroke-linejoin="round"/>
<path d="M6.15039 16.95H7.95039" stroke="white" stroke-width="1.5" stroke-linecap="round" stroke-linejoin="round"/>
<path d="M7.05078 16.05V17.85" stroke="white" stroke-width="1.5" stroke-linecap="round" stroke-linejoin="round"/>
<path d="M10.1992 6.6V5.25" stroke="white" stroke-width="1.5" stroke-linecap="round" stroke-linejoin="round"/>
<path d="M5.25 10.6499H6.6" stroke="white" stroke-width="1.5" stroke-linecap="round" stroke-linejoin="round"/>
</svg>
