<svg width="40" height="40" viewBox="0 0 40 40" fill="none" xmlns="http://www.w3.org/2000/svg">
<circle cx="20" cy="20" r="19.5" fill="white" stroke="#F1F1F1"/>
<path fill-rule="evenodd" clip-rule="evenodd" d="M14.75 14.75C18.0637 14.75 20.75 13.4069 20.75 11.75C20.75 10.0931 18.0637 8.75 14.75 8.75C11.4363 8.75 8.75 10.0931 8.75 11.75C8.75 13.4069 11.4363 14.75 14.75 14.75Z" stroke="#0085BA" stroke-width="1.5" stroke-linecap="round" stroke-linejoin="round"/>
<path d="M20.75 14.75C20.75 16.407 18.064 17.75 14.75 17.75C11.436 17.75 8.75 16.407 8.75 14.75" stroke="#0085BA" stroke-width="1.5" stroke-linecap="round" stroke-linejoin="round"/>
<path d="M20.75 17.75V11.75" stroke="#0085BA" stroke-width="1.5" stroke-linecap="round" stroke-linejoin="round"/>
<path d="M8.75 11.75V26.75C8.75 28.407 11.436 29.75 14.75 29.75C15.5056 29.7512 16.2594 29.6765 17 29.527" stroke="#0085BA" stroke-width="1.5" stroke-linecap="round" stroke-linejoin="round"/>
<path d="M8.75 23.75C8.75 25.407 11.436 26.75 14.75 26.75C15.5056 26.7512 16.2594 26.6765 17 26.527" stroke="#0085BA" stroke-width="1.5" stroke-linecap="round" stroke-linejoin="round"/>
<path d="M8.75 20.75C8.75 22.407 11.436 23.75 14.75 23.75C15.5056 23.7512 16.2594 23.6765 17 23.527" stroke="#0085BA" stroke-width="1.5" stroke-linecap="round" stroke-linejoin="round"/>
<path d="M8.75 17.75C8.75 19.407 11.436 20.75 14.75 20.75C15.5056 20.7512 16.2594 20.6765 17 20.527" stroke="#0085BA" stroke-width="1.5" stroke-linecap="round" stroke-linejoin="round"/>
<path fill-rule="evenodd" clip-rule="evenodd" d="M25.25 25.25C28.5637 25.25 31.25 23.9069 31.25 22.25C31.25 20.5931 28.5637 19.25 25.25 19.25C21.9363 19.25 19.25 20.5931 19.25 22.25C19.25 23.9069 21.9363 25.25 25.25 25.25Z" stroke="#0085BA" stroke-width="1.5" stroke-linecap="round" stroke-linejoin="round"/>
<path d="M19.25 22.25V28.25C19.25 29.907 21.936 31.25 25.25 31.25C28.564 31.25 31.25 29.907 31.25 28.25V22.25" stroke="#0085BA" stroke-width="1.5" stroke-linecap="round" stroke-linejoin="round"/>
<path d="M31.25 25.25C31.25 26.907 28.564 28.25 25.25 28.25C21.936 28.25 19.25 26.907 19.25 25.25" stroke="#0085BA" stroke-width="1.5" stroke-linecap="round" stroke-linejoin="round"/>
</svg>
