<svg width="75" height="69" viewBox="0 0 75 69" fill="none" xmlns="http://www.w3.org/2000/svg">
<path d="M36.6562 6.97253C36.6562 3.12231 39.466 0.000117815 42.9315 0.000117815C46.3967 0.000117815 49.207 3.12231 49.207 6.97253C49.207 10.8228 46.3967 13.9443 42.9315 13.9443C39.466 13.9443 36.6562 10.8228 36.6562 6.97253Z" fill="url(#paint0_linear)"/>
<path d="M49.1977 23.2836H36.6469C35.7375 23.2836 35.0017 22.4647 35.0017 21.4545C35.0017 20.4452 35.7375 19.6277 36.6469 19.6277H49.1977C50.1073 19.6277 50.845 20.4452 50.845 21.4545C50.845 22.4647 50.1073 23.2836 49.1977 23.2836ZM22.1177 39.7595C20.9061 39.7595 19.9222 38.6698 19.9222 37.3217C19.9222 35.9753 20.9061 34.8829 22.1177 34.8829C23.3305 34.8829 24.3127 35.9753 24.3127 37.3217C24.3127 38.6698 23.3305 39.7595 22.1177 39.7595ZM4.94394 41.1C4.84747 37.9297 6.13587 35.0194 7.8726 32.6853C8.52839 31.8051 7.75099 31.6355 7.28806 31.0192C6.86925 30.4653 6.57147 29.398 5.94537 29.8889C0.977397 33.7871 -1.43377 40.8403 0.891466 47.7376C3.00728 54.0135 8.57515 56.5638 13.6058 55.6181C17.3095 54.9186 20.0508 54.4923 22.1779 58.5812C23.592 61.3056 25.9711 65.8853 27.0392 67.9433C27.49 68.8064 27.7585 69 28.4449 69C30.4993 69 35.5759 69 35.9037 69C36.4712 69 36.6171 68.5287 36.7536 67.7151C37.2954 64.4788 39.8524 62.0276 42.9221 62.0276C46.0283 62.0276 48.6075 64.5344 49.1102 67.8247C49.249 68.7448 49.4533 69 50.0394 69C50.2785 69 55.3654 69 57.4123 69C57.9311 69 58.2557 69 58.704 68.1339C58.9201 67.7181 70.3981 45.6316 70.3981 45.6316L70.4223 45.5805C71.3576 47.1267 73.0061 47.7826 74.2401 47.7541C74.5258 47.7466 74.6255 47.3908 74.3833 47.1267C73.2592 45.9003 72.4596 44.1666 72.3406 41.8009C72.2908 40.7997 72.4132 39.8406 72.5585 38.7073C73.5401 31.1107 70.3718 23.2671 64.0235 19.1938C61.2754 17.4326 58.2733 16.5949 55.313 16.5979H30.5331C27.5729 16.5949 24.5713 17.4326 21.8234 19.1938C15.2247 23.4263 12.0753 31.7271 13.4369 39.5959C13.9665 42.646 13.9452 46.2516 11.4219 47.565C8.62378 49.021 5.13391 47.2557 4.94394 41.1Z" fill="url(#paint1_linear)"/>
<path d="M12.156 21.0409C11.926 19.1757 10.3839 17.9058 8.7037 18.1309C6.98814 18.3607 5.80321 20.1102 6.08424 21.9656C6.34824 23.7044 7.41426 23.976 8.10657 25.8998C8.48483 26.9511 8.58887 28.0373 8.40866 28.9565C8.33707 29.3228 8.46995 29.4303 8.6559 29.2862C11.5545 27.0607 12.4038 23.0688 12.156 21.0409Z" fill="url(#paint2_linear)"/>
<defs>
<linearGradient id="paint0_linear" x1="53.2753" y1="18.4643" x2="85.0495" y2="47.064" gradientUnits="userSpaceOnUse">
<stop stop-color="#5AC147"/>
<stop offset="1" stop-color="#2F8084"/>
</linearGradient>
<linearGradient id="paint1_linear" x1="35.9564" y1="37.6948" x2="67.7328" y2="66.2966" gradientUnits="userSpaceOnUse">
<stop stop-color="#5AC147"/>
<stop offset="1" stop-color="#2F8084"/>
</linearGradient>
<linearGradient id="paint2_linear" x1="28.9847" y1="45.4535" x2="60.7606" y2="74.0548" gradientUnits="userSpaceOnUse">
<stop stop-color="#5AC147"/>
<stop offset="1" stop-color="#2F8084"/>
</linearGradient>
</defs>
</svg>
