<?xml version="1.0" encoding="utf-8"?>
<!-- Generator: Adobe Illustrator 19.2.1, SVG Export Plug-In . SVG Version: 6.00 Build 0)  -->
<svg version="1.1" id="Layer_1" xmlns="http://www.w3.org/2000/svg" xmlns:xlink="http://www.w3.org/1999/xlink" x="0px" y="0px"
	 viewBox="0 0 68.031 102.047" enable-background="new 0 0 68.031 102.047" xml:space="preserve">
<path fill="#F25046" d="M2.32,88.447c-0.56,0-1.012,0.463-1.012,1.036v11.528c0,0.575,0.452,1.036,1.012,1.036h63.399
	c0.555,0,1.004-0.461,1.004-1.036V89.484c0-0.573-0.448-1.036-1.004-1.036H2.32"/>
<path fill="#F25046" d="M64.295,63.025c-0.538-1.481-18.56-50.831-19.334-52.935c-1.823-4.975-4.004-9.944-10.942-9.944
	c-6.935,0-9.197,5.049-10.953,9.944C22.158,12.615,4.412,61.172,3.749,63.025c-0.191,0.517,0.056,1.129,0.594,1.333
	c0.556,0.216,9.963,3.86,10.512,4.079c0.547,0.217,1.108-0.115,1.288-0.608c0.181-0.492,4.102-11.269,4.542-12.474
	c1.289,0,25.411,0,26.701,0c0.438,1.205,4.32,11.962,4.512,12.474c0.19,0.515,0.773,0.803,1.291,0.608
	c0.516-0.194,9.882-3.836,10.521-4.079C64.347,64.115,64.447,63.433,64.295,63.025z M24.936,43.371l9.03-27.11h0.112l9.061,27.11
	H24.936z"/>
</svg>
