<?xml version="1.0" encoding="UTF-8" standalone="no"?>
<!-- Created with Inkscape (http://www.inkscape.org/) -->

<svg
   xmlns:dc="http://purl.org/dc/elements/1.1/"
   xmlns:cc="http://creativecommons.org/ns#"
   xmlns:rdf="http://www.w3.org/1999/02/22-rdf-syntax-ns#"
   xmlns:svg="http://www.w3.org/2000/svg"
   xmlns="http://www.w3.org/2000/svg"
   xmlns:sodipodi="http://sodipodi.sourceforge.net/DTD/sodipodi-0.dtd"
   xmlns:inkscape="http://www.inkscape.org/namespaces/inkscape"
   id="svg2"
   version="1.1"
   inkscape:version="0.91 r13725"
   xml:space="preserve"
   width="106.25012"
   height="55.520626"
   viewBox="0 0 106.25012 55.520626"
   sodipodi:docname="promsvyazbank.svg"><metadata
     id="metadata8"><rdf:RDF><cc:Work
         rdf:about=""><dc:format>image/svg+xml</dc:format><dc:type
           rdf:resource="http://purl.org/dc/dcmitype/StillImage" /><dc:title></dc:title></cc:Work></rdf:RDF></metadata><defs
     id="defs6"><clipPath
       clipPathUnits="userSpaceOnUse"
       id="clipPath20"><path
         d="M 0,240 240,240 240,0 0,0 0,240 Z"
         id="path22"
         inkscape:connector-curvature="0" /></clipPath></defs><sodipodi:namedview
     pagecolor="#ffffff"
     bordercolor="#666666"
     borderopacity="1"
     objecttolerance="10"
     gridtolerance="10"
     guidetolerance="10"
     inkscape:pageopacity="0"
     inkscape:pageshadow="2"
     inkscape:window-width="1920"
     inkscape:window-height="1005"
     id="namedview4"
     showgrid="false"
     fit-margin-top="0"
     fit-margin-left="0"
     fit-margin-right="0"
     fit-margin-bottom="0"
     inkscape:zoom="0.78666667"
     inkscape:cx="53.125"
     inkscape:cy="28.684125"
     inkscape:window-x="-9"
     inkscape:window-y="-9"
     inkscape:window-maximized="1"
     inkscape:current-layer="g16"
     showborder="false" /><g
     id="g10"
     inkscape:groupmode="layer"
     inkscape:label="promsvbank"
     transform="matrix(1.25,0,0,-1.25,-96.875,176.8365)"><g
       id="g12"
       transform="translate(149.7715,99.6602)"><path
         d="m 0,0 0,6.437 1.852,0 0,-2.385 2.04,0 0,2.385 1.851,0 0,-6.437 -1.851,0 0,2.873 -2.04,0 L 1.852,0 0,0 Z"
         style="fill:#2647a3;fill-opacity:1;fill-rule:nonzero;stroke:none"
         id="path14"
         inkscape:connector-curvature="0" /></g><g
       id="g16"><g
         id="g18"
         clip-path="url(#clipPath20)"><g
           id="g24"
           transform="translate(147.0723,100.6738)"><path
             d="M 0,0 0,2.287 C -0.78,2.18 -1.942,2.05 -1.942,0.929 -1.942,-0.453 -0.467,-0.18 0,0 m -3.65,0.825 c 0,0.881 0.464,1.535 1.345,1.875 0.399,0.155 0.755,0.252 1.07,0.295 0.315,0.051 0.725,0.106 1.223,0.172 l 0,0.217 c 0.037,0.933 -0.504,1.093 -1.15,1.105 -0.614,0 -1.235,-0.203 -1.776,-0.49 L -3.06,5.16 c 0.747,0.276 1.523,0.411 2.317,0.411 0.498,0 0.929,-0.054 1.28,-0.166 C 1.248,5.186 1.63,4.643 1.709,3.986 1.729,3.844 1.735,3.622 1.735,3.334 l 0,-4.022 C 0.107,-1.304 -3.65,-1.724 -3.65,0.825"
             style="fill:#2647a3;fill-opacity:1;fill-rule:nonzero;stroke:none"
             id="path26"
             inkscape:connector-curvature="0" /></g><g
           id="g28"
           transform="translate(140.6406,100.8945)"><path
             d="m 0,0 c -0.178,-0.245 -0.429,-0.367 -0.755,-0.367 -1.058,0 -1.323,1.746 -1.323,2.546 0,0.646 0.137,1.333 0.51,1.782 0.191,0.227 0.449,0.346 0.776,0.346 C -0.373,4.307 0,4.047 0.204,3.512 0.419,2.977 0.479,2.405 0.479,1.889 0.479,1.218 0.371,0.5 0,0 M 2.25,3.433 C 2.134,3.942 1.838,4.385 1.438,4.76 0.794,5.374 -1.441,5.865 -2.522,4.251 -2.524,5.953 -1.812,6.8 -0.364,7.032 1.083,7.266 1.891,7.411 1.891,7.411 l -0.15,1.386 c 0,0 -1.474,-0.21 -2.704,-0.491 C -2.274,8.003 -3.545,7.044 -3.862,5.102 -4.064,3.855 -4.039,1.67 -3.668,0.664 c 0.432,-1.17 1.305,-2.053 2.901,-2.053 2.194,0 3.197,1.348 3.197,3.444 0,0.412 -0.062,0.867 -0.18,1.378"
             style="fill:#2647a3;fill-opacity:1;fill-rule:nonzero;stroke:none"
             id="path30"
             inkscape:connector-curvature="0" /></g><g
           id="g32"
           transform="translate(156.5791,99.6602)"><path
             d="m 0,0 0,6.437 1.84,0 0,-2.951 2.077,2.951 1.802,0 L 3.616,3.565 5.921,0 3.868,0 1.84,3.21 1.84,0 0,0 Z"
             style="fill:#2647a3;fill-opacity:1;fill-rule:nonzero;stroke:none"
             id="path34"
             inkscape:connector-curvature="0" /></g><g
           id="g36"
           transform="translate(127.1865,99.5195)"><path
             d="m 0,0 c -0.586,0 -1.205,0.047 -1.765,0.264 l 0.154,1.126 c 0.442,-0.265 0.848,-0.382 1.358,-0.382 0.922,-0.012 1.44,0.43 1.408,1.02 0,0.302 -0.092,0.53 -0.283,0.676 C 0.688,2.858 0.473,2.944 0.228,2.963 -0.019,2.988 -0.229,3.001 -0.4,3.001 l -0.456,0 0,0.971 0.124,0 c 0.689,0 1.764,0.023 1.764,0.904 0.02,0.687 -0.7,0.853 -1.069,0.842 -0.584,0 -1.052,-0.137 -1.562,-0.412 l -0.11,1.082 C -1.054,6.64 -0.346,6.739 0.362,6.739 1.856,6.769 2.786,6.104 2.747,5.091 2.767,4.255 2.065,3.774 1.561,3.615 1.893,3.56 2.169,3.461 2.392,3.313 2.834,3.024 3.013,2.526 3.013,2.079 3.013,1.248 2.562,0.67 1.918,0.368 1.278,0.073 0.564,0 0,0"
             style="fill:#2647a3;fill-opacity:1;fill-rule:nonzero;stroke:none"
             id="path38"
             inkscape:connector-curvature="0" /></g><g
           id="g40"
           transform="translate(110.5811,99.5195)"><path
             d="m 0,0 c -2.116,0 -3.307,1.304 -3.307,3.399 0,2.091 1.265,3.34 3.35,3.34 0.559,0 0.984,-0.074 1.519,-0.253 L 1.34,5.317 C 1.002,5.484 0.707,5.594 0.332,5.594 c -1.249,0 -1.777,-1.032 -1.777,-2.153 0,-1.123 0.516,-2.267 1.789,-2.267 0.375,0 0.701,0.086 1.045,0.252 L 1.512,0.239 C 0.996,0.073 0.547,0 0,0"
             style="fill:#2647a3;fill-opacity:1;fill-rule:nonzero;stroke:none"
             id="path42"
             inkscape:connector-curvature="0" /></g><g
           id="g44"
           transform="translate(130.9912,99.6602)"><path
             d="m 0,0 0,6.437 1.825,0 0,-2.027 C 2.219,4.427 2.464,4.433 2.569,4.433 3.424,4.433 4.046,4.285 4.434,3.991 4.899,3.645 5.203,3.032 5.188,2.367 5.141,0.254 2.995,-0.141 1.854,-0.141 0.644,-0.141 0,0 0,0 m 1.825,1.029 c 0,0 1.673,-0.335 1.673,1.252 0,0.289 -0.05,0.51 -0.147,0.665 -0.198,0.32 -0.622,0.38 -1.071,0.38 l -0.171,0 -0.093,0 C 1.998,3.326 1.937,3.32 1.825,3.313 l 0,-2.284 z"
             style="fill:#2647a3;fill-opacity:1;fill-rule:nonzero;stroke:none"
             id="path46"
             inkscape:connector-curvature="0" /></g><g
           id="g48"
           transform="translate(114.8979,103.4229)"><path
             d="m 0,0 0,1.767 c 0,0 0.181,0.019 0.652,0.019 0.875,0 1.056,-0.515 1.056,-0.839 C 1.708,0.308 1.315,0 0.43,0 L 0,0 Z m 0.467,-1.001 c 0.166,0 0.356,-0.007 0.583,-0.02 0.228,-0.011 0.417,-0.085 0.584,-0.221 0.165,-0.129 0.253,-0.343 0.253,-0.644 0,-0.703 -0.617,-0.969 -1.433,-0.969 C 0.241,-2.855 0,-2.828 0,-2.828 l 0,1.827 0.467,0 z m 1.825,0.662 C 3.06,-0.098 3.447,0.394 3.447,1.139 3.447,1.459 3.37,1.722 3.234,1.933 3.077,2.189 2.838,2.389 2.537,2.502 1.939,2.774 1.138,2.836 0.424,2.836 c -1.352,0 -2.227,-0.162 -2.227,-0.162 l 0,-6.437 c 0,0 0.918,-0.14 2.227,-0.14 1.293,0 3.262,0.33 3.312,1.965 10e-4,0.02 0.002,0.042 0.002,0.063 0.03,0.715 -0.412,1.396 -1.446,1.536"
             style="fill:#2647a3;fill-opacity:1;fill-rule:nonzero;stroke:none"
             id="path50"
             inkscape:connector-curvature="0" /></g><g
           id="g52"
           transform="translate(122.6621,103.3125)"><path
             d="m 0,0 -0.454,0 c -0.884,0 -1.254,0.293 -1.254,1.011 0,0.75 0.571,0.926 1.036,0.926 C -0.223,1.937 0,1.893 0,1.893 L 0,0 Z m -0.41,2.946 c -1.353,0 -3.051,-0.223 -3.051,-1.963 0,-0.91 0.449,-1.487 1.348,-1.727 l -1.716,-2.908 1.906,0 1.383,2.57 0.54,0 0,-2.57 1.815,0 0,6.436 c 0,0 -0.874,0.162 -2.225,0.162"
             style="fill:#2647a3;fill-opacity:1;fill-rule:nonzero;stroke:none"
             id="path54"
             inkscape:connector-curvature="0" /></g><g
           id="g56"
           transform="translate(77.5,99.6602)"><path
             d="m 0,0 0,8.891 6.787,0 0,-8.891 -1.974,0 0,7.643 -2.834,0 L 1.979,0 0,0 Z"
             style="fill:#2647a3;fill-opacity:1;fill-rule:nonzero;stroke:none"
             id="path58"
             inkscape:connector-curvature="0" /></g><g
           id="g60"
           transform="translate(89.5415,103.0967)"><path
             d="m 0,0 c 0,2.425 -1.697,2.217 -2.306,2.065 l 0,-4.213 C -2.061,-2.191 0,-2.981 0,0 m -4.169,-6.044 0,8.88 c 1.613,0.326 5.994,1.245 5.994,-2.682 0,-1.039 -0.282,-1.942 -0.817,-2.557 -1.041,-1.252 -2.751,-1.117 -3.314,-0.89 l 0,-2.751 -1.863,0 z"
             style="fill:#2647a3;fill-opacity:1;fill-rule:nonzero;stroke:none"
             id="path62"
             inkscape:connector-curvature="0" /></g><g
           id="g64"
           transform="translate(95.2056,100.54)"><path
             d="M 0,0 C 0.542,0 0.903,0.43 1.05,1.002 1.198,1.586 1.211,1.993 1.211,2.434 1.211,3.05 1.143,3.511 0.964,3.984 0.786,4.47 0.388,4.709 0,4.709 -0.536,4.709 -0.91,4.321 -1.083,3.799 -1.262,3.283 -1.286,2.772 -1.286,2.434 -1.286,1.629 -1.107,0 0,0 m -0.143,-1.021 c -2.114,0 -3.043,1.353 -3.043,3.363 0,2.092 1.107,3.377 3.247,3.377 0.756,0 1.371,-0.173 1.838,-0.517 C 2.36,4.864 2.668,4.434 2.816,3.91 2.963,3.394 3.037,2.889 3.037,2.391 c 0,-2.176 -0.917,-3.412 -3.18,-3.412"
             style="fill:#2647a3;fill-opacity:1;fill-rule:nonzero;stroke:none"
             id="path66"
             inkscape:connector-curvature="0" /></g><g
           id="g68"
           transform="translate(98.6367,99.6602)"><path
             d="m 0,0 0.67,6.437 2.141,0 1.322,-4.382 1.333,4.382 2.127,0 L 8.208,0 6.5,0 6.143,4.636 4.734,0 3.26,0 1.839,4.66 1.489,0 0,0 Z"
             style="fill:#2647a3;fill-opacity:1;fill-rule:nonzero;stroke:none"
             id="path70"
             inkscape:connector-curvature="0" /></g><g
           id="g72"
           transform="translate(134.166,134.5752)"><path
             d="m 0,0 c 0,3.808 -3.086,6.894 -6.894,6.894 l -9.738,0 c -3.142,0 -5.823,-2.118 -6.636,-5.046 l 11.772,0 c 4.528,0 6.45,-2.106 6.45,-7.05 l 0,-11.172 C -2.124,-15.561 0,-12.871 0,-9.741 L 0,0 Z"
             style="fill:#2647a3;fill-opacity:1;fill-rule:nonzero;stroke:none"
             id="path74"
             inkscape:connector-curvature="0" /></g><g
           id="g76"
           transform="translate(105.833,120.0493)"><path
             d="m 0,0 c 0,-3.809 3.087,-6.893 6.894,-6.893 l 9.739,0 c 3.143,0 5.823,2.116 6.636,5.045 l -11.772,0 c -4.529,0 -6.451,2.106 -6.451,7.05 l 0,11.172 C 2.125,15.561 0,12.87 0,9.74 L 0,0 Z"
             style="fill:#f1511b;fill-opacity:1;fill-rule:nonzero;stroke:none"
             id="path78"
             inkscape:connector-curvature="0" /></g><g
           id="g80"
           transform="translate(124.1006,127.7061)"><path
             d="m 0,0 -0.91,0 0,2.216 0.91,0 C 1.114,2.216 1.418,1.68 1.418,1.113 1.418,0.546 1.013,0 0,0 m -0.91,5.444 0.728,0 c 1.235,0 1.296,-0.757 1.296,-0.99 0,-0.344 -0.182,-0.982 -1.235,-0.982 l -0.789,0 0,1.972 z m -1.599,-3.865 0,-1.932 c -0.386,0.232 -0.829,0.415 -1.294,0.617 -0.506,0.223 -1.052,0.507 -1.052,1.145 0,0.324 0.202,0.807 1.174,0.807 l 0.646,0 0.526,0 0.627,0 -0.627,-0.637 z m -6.192,-4.939 -0.749,0 0,2.603 0.749,0 c 0.931,0 1.356,-0.566 1.356,-1.254 0,-0.64 -0.384,-1.349 -1.356,-1.349 m 10.159,6.235 0,0.03 c 0.546,0.172 1.274,0.628 1.274,1.823 0,1.344 -1.092,1.961 -2.63,1.961 l -2.611,0 0,-3.217 -1.537,0 c -2.064,0 -2.49,-1.449 -2.49,-2.237 0,-1.122 0.649,-1.62 1.843,-2.215 0.728,-0.363 1.597,-0.586 1.597,-1.417 0,-0.437 -0.404,-0.963 -1.274,-0.963 l -1.618,0 c 0.242,0.416 0.343,0.871 0.343,1.266 0,0.515 -0.182,2.581 -3.056,2.581 l -2.347,0 0,-7.963 1.598,0 0,3.47 0.647,-0.648 4.373,0 c 2.041,0 3.014,1.051 3.014,2.306 0,0.445 -0.081,0.803 -0.223,1.093 l 1.639,0 c 2.53,0 3.118,1.255 3.118,2.238 0,1 -0.648,1.74 -1.66,1.892"
             style="fill:#2647a3;fill-opacity:1;fill-rule:nonzero;stroke:none"
             id="path82"
             inkscape:connector-curvature="0" /></g></g></g></g></svg>