<svg width="184" height="60" viewBox="0 0 184 60" fill="none" xmlns="http://www.w3.org/2000/svg">
    <path d="M7.60763 15.8636L3.20886 25.7196H0L4.83262 15.1789C2.56022 14.0282 1.04707 11.9432 1.04707 8.0925C1.04707 2.69786 4.47072 0 8.54623 0H12.6915V25.7196H9.91547V15.8625H7.60763V15.8636ZM9.91655 2.33571H8.43669C6.20079 2.33571 4.03685 3.81107 4.03685 8.09143C4.03685 12.2293 6.02038 13.56 8.43669 13.56H9.9144V2.33679L9.91655 2.33571Z" transform="translate(13 15)" fill="#FF0000"/>
    <path d="M9.77157 7.58893V25.7196H6.99442V17.5896H2.81259V25.7196H-4.1786e-07V7.58893H2.81259V15.2882H6.99442V7.58893H9.77157V7.58893ZM24.2286 29.2811H21.7049V25.7196H13.9169V29.2811H11.3932V23.4171H12.5101C14.1693 19.5686 14.3497 13.9564 14.3497 9.13714V7.58893H22.7874V23.4171H24.2286V29.2811ZM20.0103 9.85607H16.8734V10.1786C16.8734 13.9929 16.694 19.5675 15.1798 23.4161H20.0103V9.85607V9.85607ZM31.9812 25.9704C28.2322 25.9704 25.9243 22.9854 25.9243 17.4096C25.9243 11.5821 27.546 7.33821 31.4035 7.33821C34.4319 7.33821 36.4154 9.60429 36.4154 15.7554V17.3014H28.8443C28.8443 21.4018 29.9977 23.5607 32.2336 23.5607C33.8198 23.5607 35.0806 22.8418 35.8033 22.3382L36.452 24.4961C35.2986 25.3961 33.7833 25.9714 31.9812 25.9714V25.9704ZM28.8808 15H33.5309C33.5309 11.9079 33.0262 9.64179 31.4045 9.64179C29.6734 9.64179 29.0602 11.7632 28.8808 15ZM42.1115 16.6918V25.7207H39.3V7.58893H42.1126V15.9718L46.4748 7.58893H49.3239L44.8156 16.1154L49.9726 25.7196H46.9076L42.1126 16.6907L42.1115 16.6918ZM50.3323 16.6554C50.3323 10.9714 52.5328 7.33929 56.7866 7.33929C58.4082 7.33929 59.3468 7.77 60.1393 8.27357L59.7431 10.9361C58.9859 10.2889 57.9034 9.67714 56.75 9.67714C54.7311 9.67714 53.2888 11.9443 53.2888 16.5118C53.2888 21.0439 54.3703 23.6336 56.6427 23.6336C58.0119 23.6336 59.0579 23.0946 59.7076 22.5193L60.3563 24.6064C59.3833 25.4336 58.2299 25.9725 56.5707 25.9725C52.6767 25.9725 50.3323 22.8429 50.3323 16.6554ZM79.502 25.7196H68.4697L68.2173 30H66.8105V24.2443H67.5665C68.8295 23.2018 69.4427 20.3239 69.8024 16.6543C70.1633 12.8421 70.2717 7.15821 70.3791 0H79.3936V24.2443H81.1613V30H79.7544L79.502 25.7196ZM77.5905 1.47429H72.0029C71.8944 7.98536 71.7129 12.9493 71.4262 16.6543C71.1019 20.5029 70.5241 23.0571 69.5501 24.2443H77.5915V1.47429H77.5905ZM88.6325 24.6054C91.0488 24.6054 92.3106 22.6618 92.3106 22.6618L92.8508 24.0289C92.8508 24.0289 91.4816 26.0796 88.5981 26.0796C84.7385 26.0796 82.9719 22.59 82.9719 16.6543C82.9719 10.7186 85.2078 7.23 88.2727 7.23C91.4096 7.23 93.4275 10.5032 92.8508 16.9425H84.6321C84.7041 21.9054 86.0014 24.6054 88.6336 24.6054H88.6325ZM84.6665 15.6118H91.2647C91.5546 10.7914 90.1102 8.63357 88.2727 8.63357C86.3611 8.63357 84.8115 11.0786 84.6665 15.6118ZM103.963 16.9779H97.7608V25.7196H96.0661V7.58893H97.7608V15.6118H103.963V7.58893H105.657V25.7196H103.963V16.9768V16.9779ZM109.665 7.58893H111.36V14.3175H112.694C116.156 14.3175 118.391 16.1871 118.391 19.9639C118.391 23.8125 116.012 25.7196 112.585 25.7196H109.666V7.58893H109.665ZM111.36 15.6461V24.3889H112.441C115.001 24.3889 116.733 23.13 116.733 20.0004C116.733 16.9425 115.218 15.6461 112.623 15.6461H111.36V15.6461ZM122.975 8.99143V25.7196H121.316V7.58893H128.997V8.9925H122.975V8.99143ZM140.072 13.0939C140.072 12.1586 140.145 11.3679 140.217 10.6114H140.109C139.846 11.4149 139.521 12.1966 139.136 12.9493L133.223 25.7196H131.779V7.58893H133.366V20.1782C133.366 21.1511 133.295 21.9429 133.223 22.7336H133.33C133.582 21.9054 133.943 21.1157 134.303 20.3239L140.217 7.58893H141.695V25.7196H140.072V13.0929V13.0939Z" transform="translate(29.3052 15)" fill="black"/>
</svg>