<?xml version="1.0" encoding="UTF-8" standalone="no"?>
<svg width="112px" height="32px" viewBox="0 0 112 32" version="1.1" xmlns="http://www.w3.org/2000/svg" xmlns:xlink="http://www.w3.org/1999/xlink">
    <!-- Generator: Sketch 43.2 (39069) - http://www.bohemiancoding.com/sketch -->
    <title>Group 3</title>
    <desc>Created with Sketch.</desc>
    <defs></defs>
    <g id="Презентация" stroke="none" stroke-width="1" fill="none" fill-rule="evenodd">
        <g id="Artboard" transform="translate(-657.000000, -1136.000000)">
            <g id="Group-3" transform="translate(657.000000, 1136.000000)">
                <path d="M22.7831768,0.258392283 C23.5970675,0.0135048232 24.3029196,0.721157556 25.0177749,1.01466238 C20.0858135,3.82546624 15.1394469,6.60745981 10.2218907,9.44167203 C7.89726045,8.16861736 5.61044373,6.82713826 3.29841801,5.53247588 C3.69636013,5.06971061 4.00607074,4.50430868 4.49944695,4.13877814 C6.40812862,5.18315113 8.288,6.27974277 10.1822765,7.34932476 C14.3885788,4.99588424 18.5732733,2.60463023 22.7831768,0.258392283 Z M52.3245273,3.1592283 C53.9613119,2.37234727 55.7799614,2.09144695 57.5445916,1.72951768 C57.6364244,2.2066881 57.7282572,2.68385852 57.8164887,3.16282958 C56.4876141,3.38430868 55.1479357,3.58418006 53.8514727,3.96231511 C53.4427267,4.10096463 52.9691576,4.22340836 52.7170675,4.60334405 C52.3335305,5.17594855 52.2272926,5.87099678 52.0868424,6.5318328 C53.4733376,5.89980707 55.1065209,5.50006431 56.5758457,6.09607717 C57.4725659,6.44360129 58.0289646,7.34932476 58.1676141,8.27125402 C58.3764887,9.60553055 58.2612476,11.1000643 57.4275498,12.2146624 C56.3363601,13.6371704 54.2368103,13.9450804 52.6216334,13.3544695 C51.2999614,12.8592926 50.6625338,11.4331833 50.514881,10.1169132 C50.3276141,8.40990354 50.4788682,6.6614791 50.9470354,5.01028939 C51.1721158,4.25942122 51.5790611,3.4977492 52.3245273,3.1592283 Z M52.0256206,7.73106109 C51.9553955,8.92308682 51.9085788,10.2051447 52.4811833,11.2927331 C53.1762315,12.6720257 55.4216334,12.6342122 56.1869068,11.3431511 C56.6640772,10.5436656 56.7433055,9.55511254 56.5938521,8.65299035 C56.4876141,7.95434084 56.0032412,7.28990354 55.2955884,7.11344051 C54.1719871,6.82893891 53.0249775,7.23228296 52.0256206,7.73106109 Z M79.1793183,3.15742765 C80.8125016,2.36874598 82.6293505,2.09684887 84.3885788,1.72411576 C84.4840129,2.20488746 84.5776463,2.68565916 84.655074,3.17003215 C83.3189968,3.37890675 81.9793183,3.59138264 80.679254,3.96951768 C80.2651061,4.10456592 79.7951383,4.2378135 79.5484502,4.62675241 C79.1793183,5.19395498 79.0712797,5.87639871 78.9362315,6.52643087 C80.2831125,5.92141479 81.8442701,5.52707395 83.2865852,6.04205788 C84.1869068,6.33916399 84.806328,7.18546624 84.9809904,8.094791 C85.2186752,9.32463023 85.1466495,10.6697106 84.5524373,11.7915113 C84.0014405,12.8250804 82.8904437,13.4607074 81.7470354,13.5867524 C80.351537,13.8064309 78.7075498,13.3814791 77.985492,12.0706109 C77.0275498,10.3077814 77.2292219,8.19742765 77.4975177,6.28334405 C77.7153955,5.12192926 78.0034984,3.71742765 79.1793183,3.15742765 Z M78.8696077,7.74006431 C78.8029839,8.88707395 78.7633698,10.0989068 79.2603473,11.1648875 C79.8653633,12.6126045 82.1215691,12.6882315 82.9804759,11.454791 C83.4900579,10.6967203 83.5638842,9.73157556 83.4756527,8.84745981 C83.4000257,8.11639871 82.975074,7.36553055 82.2368103,7.14405145 C81.0898006,6.80553055 79.8905723,7.21427653 78.8696077,7.74006431 Z M10.2092862,11.4836013 C15.6868424,8.34327974 21.1860064,5.23897106 26.6725659,2.11125402 C27.1713441,2.494791 27.6575177,2.89273312 28.1040772,3.33749196 C22.1043344,6.71549839 16.1261994,10.1313183 10.1336592,13.5219293 C7.24902894,11.8869453 4.36439871,10.2537621 1.47976849,8.61877814 C1.74446302,8.08758842 2.01636013,7.56 2.28465595,7.02881029 C4.94780707,8.47652733 7.55513826,10.0214791 10.2092862,11.4836013 Z M44.8410547,2.59202572 C46.3481929,2.38495177 47.9255563,2.51639871 49.3354598,3.11061093 C49.1661994,3.52836013 48.9987395,3.94790997 48.8330804,4.36745981 C47.2827267,3.84347267 45.4856849,3.58778135 43.9677428,4.34585209 C42.7829196,4.94186495 42.2139164,6.29414791 42.1779035,7.56540193 C42.069865,9.02212219 42.4840129,10.6895177 43.7912797,11.5142122 C45.3308296,12.5027653 47.261119,12.2362701 48.9483215,11.8617363 C49.0977749,12.266881 49.2112154,12.6846302 49.3282572,13.0987781 C47.6860707,13.7001929 45.8602186,13.795627 44.1550096,13.417492 C42.5650418,13.0555627 41.2181608,11.8239228 40.7625981,10.2519614 C40.2548167,8.49273312 40.3286431,6.48141479 41.2577749,4.87163987 C41.9978392,3.58598071 43.3987395,2.79909968 44.8410547,2.59202572 Z M10.1552669,15.5620579 C16.5799614,11.9733762 22.9668424,8.31446945 29.3771318,4.70057878 C29.7660707,5.16154341 30.1334019,5.63871383 30.4791254,6.13389068 C23.710508,9.95845659 16.9490932,13.7938264 10.1732733,17.6021865 C6.93031511,15.7511254 3.67295177,13.927074 0.42459164,12.0886174 C0.554237942,11.4818006 0.700090032,10.8803859 0.858546624,10.2807717 C3.97005788,12.0183923 7.06896463,13.7794212 10.1552669,15.5620579 Z M62.1668424,5.10932476 C63.4434984,4.76180064 65.055074,4.83022508 65.9788039,5.90160772 C66.83591,6.94598071 66.880926,8.38289389 66.8503151,9.6703537 C64.9902508,9.66315113 63.1283859,9.6577492 61.2683215,9.67395498 C61.3133376,10.5454662 61.5258135,11.5772347 62.3955241,11.9913826 C63.6487717,12.5477814 65.0964887,12.3064952 66.3695434,11.939164 C66.4595756,12.342508 66.5496077,12.7458521 66.6414405,13.1491961 C65.3755884,13.5489389 64.0287074,13.6515756 62.7106367,13.5489389 C61.6572605,13.4697106 60.5840772,12.9259164 60.1231125,11.9373633 C59.5433055,10.687717 59.5523087,9.23819936 59.7899936,7.90572347 C60.009672,6.63807074 60.8883859,5.4496463 62.1668424,5.10932476 Z M62.0173891,6.72810289 C61.5510225,7.2214791 61.4303794,7.91472669 61.3259421,8.55935691 C62.608,8.56655949 63.8900579,8.56475884 65.1721158,8.55935691 C65.1108939,7.91472669 65.074881,7.21067524 64.6445273,6.6866881 C64.0016977,5.89980707 62.6620193,5.98623794 62.0173891,6.72810289 Z M70.0572605,5.79176849 C71.134045,4.97967846 72.6177749,4.63395498 73.8854277,5.2029582 C75.0936592,5.70713826 75.695074,7.03601286 75.8049132,8.27485531 C75.9597685,9.825209 75.7238842,11.6222508 74.4670354,12.6882315 C73.2389968,13.7272026 71.5157814,13.7254019 70.0032412,13.5345338 C70.0014405,14.6347267 70.0086431,15.7349196 69.9978392,16.8351125 C69.4666495,16.8315113 68.9354598,16.8315113 68.4060707,16.8315113 C68.4042701,12.9349196 68.4042701,9.04012862 68.4042701,5.14533762 C68.9552669,5.14353698 69.5080643,5.14353698 70.0590611,5.14713826 C70.0590611,5.30919614 70.0572605,5.63151125 70.0572605,5.79176849 Z M70.114881,6.89376206 C70.1112797,8.6673955 70.1112797,10.4410289 70.114881,12.216463 C71.1160386,12.3785209 72.2594469,12.5387781 73.147164,11.9247588 C74.1069068,11.2387138 74.2941736,9.94765273 74.2383537,8.85106109 C74.1987395,7.92733119 73.8638199,6.83794212 72.9328875,6.45800643 C71.9893505,6.07807074 70.9665852,6.45800643 70.114881,6.89376206 Z M86.9382894,5.44604502 C88.3103794,4.91305466 89.8553312,4.77440514 91.2976463,5.08771704 C92.2105723,5.27678457 92.9596399,6.07987138 92.9704437,7.03241158 C93.0352669,8.58636656 92.9524373,10.1439228 93.0046559,11.6978778 C92.9866495,12.1606431 93.5268424,12.2290675 93.8581608,12.3389068 C93.7879357,12.7296463 93.9067781,13.2176206 93.6744952,13.543537 C92.8750096,13.6605788 91.8864566,13.442701 91.5335305,12.6288103 C90.8582894,13.0753698 90.1434341,13.5147267 89.3223408,13.6011576 C88.3445916,13.7290032 87.1957814,13.5201286 86.587164,12.6738264 C85.8561029,11.6150482 86.0289646,9.8918328 87.1939807,9.20758842 C88.4616334,8.46392283 89.9939807,8.72321543 91.394881,8.62057878 C91.3642701,7.90212219 91.5731447,6.87395498 90.7772605,6.49221865 C89.6176463,6.09247588 88.3535949,6.37697749 87.2011833,6.68128617 C87.1183537,6.27434084 86.8914727,5.85839228 86.9382894,5.44604502 Z M88.4814405,9.95485531 C87.5829196,10.2807717 87.4820836,11.7392926 88.3625981,12.1444373 C89.3853633,12.5711897 90.5161672,12.1534405 91.400283,11.5934405 C91.3894791,10.9506109 91.3912797,10.309582 91.3912797,9.66855305 C90.4243344,9.73877814 89.3997685,9.58392283 88.4814405,9.95485531 Z M109.541762,5.08771704 C110.141376,5.09311897 110.74099,5.09131833 111.340605,5.08951768 C110.200797,6.43099678 109.008772,7.72745981 107.879768,9.07794212 C109.100605,10.208746 110.029736,11.782508 111.661119,12.373119 C111.583691,12.7908682 111.490058,13.2050161 111.387421,13.6155627 C110.452887,13.5543408 109.574174,13.1239871 108.94935,12.4289389 C107.99501,11.3665595 107.10009,10.2519614 106.169158,9.16977492 C107.290958,7.8066881 108.409158,6.44 109.541762,5.08771704 Z M95.2518585,5.14533762 C95.8028553,5.14353698 96.3520514,5.14353698 96.9048489,5.14533762 C96.9048489,6.32115756 96.9030482,7.49697749 96.9048489,8.67279743 L100.873466,8.67279743 C100.875267,7.49697749 100.873466,6.32115756 100.875267,5.14533762 C101.424463,5.14353698 101.97546,5.14353698 102.528257,5.14533762 C102.521055,7.92192926 102.544463,10.7003215 102.515653,13.4769132 C101.968257,13.46791 101.420862,13.46791 100.875267,13.4697106 C100.871666,12.2938907 100.875267,11.1180707 100.873466,9.9422508 C99.5499936,9.94045016 98.2283215,9.9422508 96.9048489,9.94045016 C96.9012476,11.1162701 96.9084502,12.2938907 96.9012476,13.4697106 L95.2554598,13.4697106 C95.2482572,10.6949196 95.2536592,7.92012862 95.2518585,5.14533762 Z M104.510765,13.5165273 C104.521569,10.7237299 104.498161,7.93093248 104.521569,5.13813505 C105.068965,5.14353698 105.61636,5.14533762 106.165556,5.14533762 C106.167357,7.93813505 106.167357,10.7309325 106.165556,13.5237299 C105.612759,13.5237299 105.061762,13.5237299 104.510765,13.5165273 Z M10.1354598,19.6423151 C17.1921801,15.6358842 24.250701,11.6294534 31.3092219,7.62302251 C32.9712154,10.7273312 33.5582251,14.3826367 32.9334019,17.8488746 C32.2113441,22.1091961 29.6562315,25.9949839 26.0891576,28.4168489 C23.3521801,30.3093248 20.0389968,31.3032797 16.7204116,31.3410932 L16.6231768,31.3410932 C11.415717,31.3464952 6.27668167,28.7823794 3.22099035,24.5562701 C0.980990354,21.5365916 -0.124604502,17.7120257 0.138289389,13.9612862 C3.47668167,15.8447588 6.80066881,17.7516399 10.1354598,19.6423151 L10.1354598,19.6423151 Z" id="Fill-2" fill="#299E30"></path>
                <path d="M81.3382894,17.6327974 C81.5795756,17.3717042 81.8226624,17.1106109 82.0693505,16.853119 C82.5573248,17.362701 83.1911511,17.816463 83.9348167,17.7678457 C84.6694791,17.7876527 85.2889003,17.3464952 85.7858778,16.8513183 C86.0073569,17.1142122 86.228836,17.3789068 86.4503151,17.6436013 C85.976746,18.225209 85.3951383,18.7636013 84.6460707,18.9400643 C83.4018264,19.2785852 82.0729518,18.6501608 81.3382894,17.6327974 Z M44.7582251,17.9245016 C46.3121801,17.6886174 48.0263923,17.8308682 49.3408617,18.7636013 C50.5490932,19.6117042 51.1883215,21.0684244 51.3197685,22.5053376 C51.5034341,24.1853376 51.2045273,26.04 50.0269068,27.3256592 C49.0059421,28.4600643 47.4411833,28.9372347 45.9502508,28.9552412 C44.5637556,29.0020579 43.0926302,28.6491318 42.0608617,27.6767846 C41.0362958,26.726045 40.5627267,25.3215434 40.4780965,23.9548553 C40.3664566,22.4837299 40.6311511,20.9117685 41.5584823,19.7251447 C42.3255563,18.7203859 43.5265852,18.1261736 44.7582251,17.9245016 Z M45.1255563,19.2155627 C44.1135949,19.3632154 43.1808617,19.9898392 42.7072926,20.9027653 C42.1094791,22.0461736 42.0536592,23.4110611 42.2985466,24.6589068 C42.523627,25.8473312 43.285299,26.9997428 44.4647203,27.4084887 C45.6135305,27.7866238 46.9478071,27.7181994 48.0065852,27.109582 C49.0365531,26.5009646 49.5605402,25.3143408 49.6721801,24.1637299 C49.8180322,22.7844373 49.6163601,21.2394855 48.6350096,20.1861093 C47.7562958,19.2371704 46.3517942,19.0102894 45.1255563,19.2155627 Z M53.2356527,20.4309968 C53.774045,20.4129904 54.3124373,20.4111897 54.8508296,20.4291961 C54.8310225,21.5978135 54.8526302,22.7646302 54.8346238,23.9314469 C56.1779035,23.9584566 57.5229839,23.9404502 58.8680643,23.9422508 C58.8788682,22.7646302 58.8410547,21.585209 58.8914727,20.4057878 C59.4154598,20.414791 59.9412476,20.4183923 60.4652347,20.4183923 C60.4670354,23.2093891 60.4634341,26.0003859 60.4670354,28.7913826 C59.934045,28.7949839 59.4010547,28.7949839 58.8680643,28.7949839 C58.8662637,27.6029582 58.864463,26.4109325 58.869865,25.2207074 C57.5247846,25.2063023 56.1797042,25.197299 54.8364244,25.2261093 C54.8454277,26.4163344 54.8454277,27.6065595 54.8364244,28.7967846 C54.3070354,28.7949839 53.7776463,28.7949839 53.2482572,28.7949839 C53.2338521,26.0075884 53.2590611,23.2201929 53.2356527,20.4309968 Z M63.9962958,20.4165916 C65.8149453,20.4183923 67.6335949,20.4129904 69.4504437,20.4183923 C69.454045,23.2093891 69.4486431,26.0003859 69.454045,28.789582 C68.9210547,28.7949839 68.3880643,28.7949839 67.8568746,28.7967846 C67.8478714,26.423537 67.8568746,24.05209 67.8514727,21.6806431 C67.0447846,21.6824437 66.2380965,21.6824437 65.4314084,21.6788424 C65.256746,23.4704823 65.1541093,25.3089389 64.5130804,27.008746 C64.1097363,28.1089389 63.0311511,28.7571704 61.9579678,29.0758842 C61.8103151,28.6203215 61.6626624,28.1647588 61.5186109,27.7091961 C62.0714084,27.442701 62.6674212,27.1780064 63.0401543,26.6666238 C63.2994469,26.29209 63.4128875,25.8419293 63.5137235,25.404373 C63.8630482,23.7657878 63.9440772,22.0857878 63.9962958,20.4165916 Z M71.7030482,20.8127331 C73.0589325,20.2455305 74.594881,20.1086817 76.0353955,20.3877814 C76.9015048,20.5498392 77.6955884,21.226881 77.7838199,22.1380064 C77.9170675,23.8180064 77.7568103,25.5106109 77.8612476,27.1906109 C77.929672,27.5849518 78.4086431,27.6011576 78.7075498,27.7308039 C78.6733376,28.1305466 78.6373248,28.5284887 78.6049132,28.9282315 C77.7658135,29.0236656 76.7520514,28.8562058 76.3541093,28.0099035 C75.2395113,28.8850161 73.6837556,29.3441801 72.3404759,28.7211576 C70.6640772,28.0801286 70.5200257,25.404373 72.0487717,24.5256592 C73.3164244,23.7891961 74.8397685,24.05209 76.2352669,23.9440514 C76.2046559,23.2255949 76.4135305,22.2010289 75.6176463,21.817492 C74.4598328,21.4141479 73.1957814,21.7076527 72.0451704,22.0011576 C71.9317299,21.6050161 71.8182894,21.2088746 71.7030482,20.8127331 Z M73.2011833,25.3107395 C72.3422765,25.681672 72.2954598,27.1149839 73.1795756,27.4841158 C74.1843344,27.8838585 75.2539164,27.4210932 76.1578392,26.9691318 C76.1830482,26.3100965 76.1812476,25.6510611 76.1758457,24.9920257 C75.1872926,25.0748553 74.1321158,24.894791 73.2011833,25.3107395 Z M80.0814405,20.4363987 C80.6342379,20.414791 81.188836,20.4111897 81.7434341,20.414791 C81.7218264,22.4909325 81.8046559,24.5688746 81.6858135,26.6432154 C83.0074855,24.4878457 84.6010547,22.5179421 86.0217621,20.4309968 C86.5799614,20.414791 87.1381608,20.4129904 87.6963601,20.4129904 C87.7035627,23.2075884 87.6981608,26.0003859 87.6981608,28.7931833 C87.1489646,28.7931833 86.6015691,28.7949839 86.052373,28.7985852 C86.0469711,26.7332476 86.0181608,24.66791 86.0829839,22.604373 C84.750508,24.7453376 83.1857492,26.7278457 81.7452347,28.7949839 C81.1960386,28.7931833 80.6468424,28.7949839 80.0994469,28.7985852 C80.0760386,26.0111897 80.1102508,23.2237942 80.0814405,20.4363987 Z M89.8697363,20.4075884 C90.3955241,20.414791 90.9213119,20.4183923 91.4470997,20.4183923 C91.4489003,21.5942122 91.4470997,22.7682315 91.4470997,23.9440514 C92.7885788,23.9440514 94.1300579,23.9458521 95.471537,23.9440514 C95.4769389,22.7664309 95.4643344,21.5888103 95.4787395,20.4111897 C96.006328,20.4165916 96.535717,20.4165916 97.0651061,20.4129904 C97.0777106,23.2075884 97.0687074,26.0021865 97.070508,28.7967846 C96.5375177,28.7949839 96.0045273,28.7949839 95.4733376,28.7949839 C95.471537,27.6011576 95.4733376,26.4055305 95.471537,25.2117042 C94.1300579,25.2099035 92.7903794,25.2099035 91.4489003,25.2117042 C91.4470997,26.4055305 91.4470997,27.5993569 91.4489003,28.7931833 C90.91591,28.7949839 90.3847203,28.7949839 89.8517299,28.7949839 C89.8589325,26.0003859 89.8247203,23.2039871 89.8697363,20.4075884 L89.8697363,20.4075884 Z" id="Fill-3" fill="#F69624"></path>
            </g>
        </g>
    </g>
</svg>