<svg width="40" height="40" viewBox="0 0 40 40" fill="none" xmlns="http://www.w3.org/2000/svg">
<path d="M20 30C25.5219 30 30 25.5219 30 20C30 14.4781 25.5219 10 20 10C14.4781 10 10 14.4781 10 20C10 25.5219 14.4781 30 20 30Z" fill="#4163AC"/>
<path d="M24.7778 17.5275C24.7778 16.2582 23.7492 15.2295 22.4798 15.2295H19.2338C18.1865 15.2295 17.2928 15.9355 17.0218 16.9115H20.9458C22.4552 16.9115 23.0958 17.6135 23.0958 19.2615V22.9855C24.0698 22.7145 24.7778 21.8178 24.7778 20.7745V17.5275ZM15.3335 22.3694C15.3335 23.6391 16.3625 24.6671 17.6315 24.6671H20.8778C21.9255 24.6671 22.8188 23.9618 23.0895 22.9854H19.1658C17.6562 22.9854 17.0155 22.2834 17.0155 20.6354V16.9114C16.0418 17.1824 15.3335 18.0794 15.3335 19.1228V22.3694Z" fill="white"/>
<path d="M21.4224 19.8166H21.1191V19.0779H21.4224C21.7937 19.0779 21.8951 19.2566 21.8951 19.4456C21.8951 19.6346 21.7601 19.8166 21.4224 19.8166ZM21.1191 18.0019H21.3617C21.7734 18.0019 21.7937 18.2546 21.7937 18.3319C21.7937 18.4466 21.7331 18.6592 21.3821 18.6592H21.1191V18.0019ZM20.5861 19.2902V19.9342C20.4574 19.8569 20.3097 19.7962 20.1547 19.7286C19.9861 19.6542 19.8041 19.5599 19.8041 19.3469C19.8041 19.2389 19.8714 19.0779 20.1954 19.0779H20.4107H20.5861H20.7951L20.5861 19.2902ZM18.5221 20.9366H18.2724V20.0689H18.5221C18.8324 20.0689 18.9741 20.2576 18.9741 20.4869C18.9741 20.7002 18.8461 20.9366 18.5221 20.9366ZM21.9084 18.8582V18.8482C22.0904 18.7909 22.3331 18.6389 22.3331 18.2409C22.3331 17.7926 21.9691 17.5869 21.4564 17.5869H20.5861V18.6592H20.0737C19.3857 18.6592 19.2437 19.1422 19.2437 19.4049C19.2437 19.7789 19.4601 19.9449 19.8581 20.1432C20.1007 20.2642 20.3904 20.3386 20.3904 20.6159C20.3904 20.7612 20.2557 20.9366 19.9657 20.9366H19.4264C19.5071 20.7979 19.5407 20.6462 19.5407 20.5146C19.5407 20.3429 19.4801 19.6542 18.5221 19.6542H17.7397V22.3086H18.2724V21.1519L18.4881 21.3679H19.9457C20.6261 21.3679 20.9504 21.0176 20.9504 20.5992C20.9504 20.4509 20.9234 20.3316 20.8761 20.2349H21.4224C22.2657 20.2349 22.4617 19.8166 22.4617 19.4889C22.4617 19.1556 22.2457 18.9089 21.9084 18.8582Z" fill="white"/>
</svg>
