<svg width="15" height="15" viewBox="0 0 15 15" fill="none" xmlns="http://www.w3.org/2000/svg">
<path fill-rule="evenodd" clip-rule="evenodd" d="M10.5333 14.0002C12.4479 14.0002 14 12.4481 14 10.5336C14 8.61897 12.4479 7.06689 10.5333 7.06689C8.61873 7.06689 7.06665 8.61897 7.06665 10.5336C7.06665 12.4481 8.61873 14.0002 10.5333 14.0002Z" stroke="#007CBA" stroke-linecap="round" stroke-linejoin="round"/>
<path d="M10.5334 12.2665V8.7998" stroke="#007CBA" stroke-linecap="round" stroke-linejoin="round"/>
<path d="M10.5334 8.7998L9.2334 10.0998" stroke="#007CBA" stroke-linecap="round" stroke-linejoin="round"/>
<path d="M10.5334 8.7998L11.8334 10.0998" stroke="#007CBA" stroke-linecap="round" stroke-linejoin="round"/>
<path d="M5.33333 9.66667H1.86667C1.38802 9.66667 1 9.27865 1 8.8V1.86667C1 1.38802 1.38802 1 1.86667 1H12.2667C12.7453 1 13.1333 1.38802 13.1333 1.86667V5.76667" stroke="#007CBA" stroke-linecap="round" stroke-linejoin="round"/>
<path d="M12.9374 1.31787L8.23198 4.93707C7.54494 5.46559 6.58826 5.46559 5.90122 4.93707L1.1958 1.31787" stroke="#007CBA" stroke-linecap="round" stroke-linejoin="round"/>
</svg>
