<svg width="40" height="40" viewBox="0 0 40 40" fill="none" xmlns="http://www.w3.org/2000/svg">
    <circle cx="20" cy="20" r="19.5" fill="white" stroke="#DDDDDD"/>
    <path fill-rule="evenodd" clip-rule="evenodd" d="M30.6628 14.75H19.0573C17.6862 14.75 16.5705 15.8658 16.5705 17.2369L15.4336 25.5265C15.4336 26.8976 16.5494 28.0134 17.9205 28.0134H29.5259C30.897 28.0134 32.0128 26.8976 32.0128 25.5265L33.1497 17.2369C33.1497 15.8658 32.0339 14.75 30.6628 14.75Z" fill="#0085BA"/>
    <path fill-rule="evenodd" clip-rule="evenodd" d="M29.5223 26.3586H17.9169C17.4601 26.3586 17.0879 25.9872 17.0879 25.5296L18.2248 17.4473L24.3591 22.048C24.5066 22.1591 24.6815 22.2138 24.8564 22.2138C25.0313 22.2138 25.2063 22.1591 25.3538 22.048L31.4881 17.4473L30.3513 25.5296C30.3513 25.9872 29.979 26.3586 29.5223 26.3586Z" fill="white"/>
    <path fill-rule="evenodd" clip-rule="evenodd" d="M30.107 16.4102L24.8572 20.3477L19.6074 16.4102H30.107Z" fill="white"/>
    <line x1="8.35245" y1="19.6495" x2="13.5002" y2="19.6495" stroke="#0085BA" stroke-width="1.28694" stroke-linecap="round"/>
    <line x1="4.49308" y1="22.8663" x2="9.64082" y2="22.8663" stroke="#0085BA" stroke-width="1.28694" stroke-linecap="round"/>
</svg>