<svg width="40" height="40" viewBox="0 0 40 40" fill="none" xmlns="http://www.w3.org/2000/svg">
<circle cx="20" cy="20" r="19.5" fill="white" stroke="#F1F1F1"/>
<path d="M10.958 17.0296L10.7991 16.041C10.6402 15.8816 10.4813 15.7859 10.2588 15.6902C10.0363 15.5946 9.78206 15.5627 9.46424 15.5627C8.8286 15.5627 8.32009 15.7859 7.97048 16.2643C7.65266 16.7426 7.49375 17.3485 7.49375 18.082V18.3372C7.49375 19.1025 7.65266 19.7084 8.00227 20.1868C8.35187 20.6652 8.8286 20.8884 9.46424 20.8884C9.75028 20.8884 10.0363 20.8565 10.2588 20.7608C10.513 20.6652 10.672 20.5695 10.8309 20.41L10.9898 19.4214H12.1021V20.8884C11.8161 21.2392 11.4347 21.4943 10.958 21.7176C10.4813 21.9089 9.97275 22.0365 9.40068 22.0365C8.41543 22.0365 7.5891 21.6857 6.95346 21.016C6.31782 20.3144 6 19.4533 6 18.369V18.1139C6 17.0296 6.31782 16.1686 6.95346 15.467C7.5891 14.7654 8.38365 14.4146 9.40068 14.4146C9.97275 14.4146 10.4813 14.5103 10.958 14.7335C11.4029 14.9567 11.7843 15.2119 12.1021 15.5627V17.0296H10.958Z" fill="#006799"/>
<path d="M12.6422 14.8929V14H14.9305V20.8884L15.6615 21.0478V21.9408H12.7376V21.0478L13.4686 20.8884V15.0524L12.6422 14.8929Z" fill="#006799"/>
<path d="M16.0117 19.1344C16.0117 18.3053 16.2342 17.6356 16.7109 17.1253C17.1559 16.6151 17.7915 16.328 18.6178 16.328C19.4442 16.328 20.0798 16.5832 20.5248 17.1253C20.9697 17.6356 21.224 18.3053 21.224 19.1344V19.2301C21.224 20.0592 21.0015 20.7289 20.5248 21.2392C20.0798 21.7494 19.4442 22.0046 18.6178 22.0046C17.7915 22.0046 17.1559 21.7494 16.7109 21.2392C16.266 20.7289 16.0117 20.0592 16.0117 19.2301V19.1344ZM17.4737 19.2301C17.4737 19.7403 17.569 20.123 17.7279 20.4419C17.9186 20.7608 18.1729 20.8884 18.5861 20.8884C18.9674 20.8884 19.2535 20.729 19.4124 20.4419C19.6031 20.123 19.6666 19.7403 19.6666 19.2301V19.1344C19.6666 18.6561 19.5713 18.2415 19.4124 17.9545C19.2217 17.6356 18.9357 17.4761 18.5543 17.4761C18.1729 17.4761 17.8869 17.6356 17.7279 17.9545C17.5373 18.2734 17.4737 18.6561 17.4737 19.1344V19.2301Z" fill="#006799"/>
<path d="M25.6733 21.2391C25.4826 21.4943 25.2919 21.6856 25.0059 21.8451C24.7516 21.9726 24.4656 22.0683 24.116 22.0683C23.5439 22.0683 23.099 21.877 22.7494 21.5262C22.4315 21.1435 22.2726 20.5694 22.2726 19.8041V17.5398L21.6688 17.3804V16.4874H23.7664V19.8041C23.7664 20.2186 23.83 20.5057 23.9571 20.6651C24.0842 20.8246 24.2749 20.9202 24.5609 20.9202C24.7834 20.9202 25.0059 20.8884 25.1648 20.7927C25.3237 20.7289 25.4826 20.6013 25.578 20.4738V17.5079L24.9423 17.3485V16.4556H27.0717V20.9202L27.7391 21.0797V21.9726H25.7687L25.6733 21.2391Z" fill="#006799"/>
<path d="M31.8706 21.2711C31.7117 21.5262 31.4892 21.7175 31.2667 21.8451C31.0443 21.9727 30.7582 22.0364 30.4722 22.0364C29.8048 22.0364 29.2645 21.7813 28.8831 21.303C28.5017 20.7927 28.311 20.1549 28.311 19.3257V19.2301C28.311 18.369 28.5017 17.6674 28.8831 17.1253C29.2645 16.5831 29.773 16.328 30.4722 16.328C30.7582 16.328 30.9807 16.3918 31.2032 16.5194C31.4257 16.6469 31.6163 16.8064 31.7753 17.0296V15.0524L31.0125 14.8929V14H33.3008V20.8884L34 21.0478V21.9408H31.9977L31.8706 21.2711ZM29.8048 19.3257C29.8048 19.8041 29.9001 20.1868 30.059 20.4738C30.2179 20.7608 30.4722 20.8884 30.8536 20.8884C31.076 20.8884 31.2667 20.8565 31.4257 20.7608C31.5846 20.6651 31.7117 20.5376 31.807 20.3781V18.0501C31.7117 17.8588 31.5846 17.7312 31.4257 17.6355C31.2667 17.5399 31.076 17.4761 30.8854 17.4761C30.5358 17.4761 30.2497 17.6355 30.0908 17.9544C29.9319 18.2733 29.8366 18.6879 29.8366 19.2301V19.3257H29.8048Z" fill="#006799"/>
<path d="M6 25.2574C6.19069 25.2255 6.47673 25.1936 6.79455 25.1936C7.20772 25.1936 7.52554 25.2893 7.71623 25.4169C7.87514 25.5444 8.00227 25.7358 8.00227 25.9909C8.00227 26.246 7.90692 26.4374 7.74801 26.5968C7.52554 26.7882 7.17593 26.9157 6.76277 26.9157C6.63564 26.9157 6.50851 26.9157 6.41317 26.8838V28H6V25.2574ZM6.44495 26.5968C6.54029 26.6287 6.66742 26.6287 6.79455 26.6287C7.30306 26.6287 7.62088 26.4055 7.62088 26.0547C7.62088 25.672 7.30306 25.5125 6.85811 25.5125C6.66742 25.5125 6.54029 25.5125 6.44495 25.5444V26.5968Z" fill="#006799"/>
<path d="M9.68691 27.1389L9.33731 27.9999H8.89236L10.0047 25.2255H10.5132L11.6256 27.9999H11.1807L10.8311 27.1389H9.68691ZM10.7357 26.8519L10.4179 26.0546C10.3543 25.8633 10.2908 25.7038 10.259 25.5444C10.1954 25.7038 10.1636 25.8633 10.1001 26.0546L9.78226 26.8519H10.7357Z" fill="#006799"/>
<path d="M13.437 27.9999V26.82L12.3882 25.2255H12.8649L13.3099 25.9908C13.437 26.2141 13.5324 26.3735 13.6277 26.5649C13.7231 26.3735 13.8184 26.2141 13.9455 25.9908L14.4223 25.2255H14.899L13.8184 26.82V27.9999H13.437Z" fill="#006799"/>
<path d="M18.9985 26.7881C18.9667 26.4054 18.9349 25.9271 18.9349 25.6082C18.8078 25.9271 18.6806 26.2779 18.5217 26.6605L17.9497 27.9999H17.6318L17.0915 26.6924C16.9326 26.3097 16.8055 25.9589 16.7102 25.6082C16.7102 25.9589 16.6784 26.4054 16.6466 26.82L16.5513 27.9999H16.1381L16.3606 25.2255H16.9009L17.4729 26.5649C17.6001 26.9157 17.7272 27.2027 17.7908 27.4897C17.8861 27.2027 17.9814 26.9157 18.1404 26.5649L18.7124 25.2255H19.2527L19.4434 27.9999H19.0303L18.9985 26.7881Z" fill="#006799"/>
<path d="M22.7815 26.6925H21.5102V27.6811H22.9086V27.9681H21.0653V25.1936H22.8451V25.4806H21.5102V26.3417H22.7815V26.6925Z" fill="#006799"/>
<path d="M24.4657 27.9999V25.2255H24.9424L25.9912 26.6287C26.2137 26.9476 26.4362 27.2346 26.5633 27.5216C26.5315 27.1389 26.4998 26.82 26.4998 26.3735V25.2255H26.8811V27.9999H26.468L25.451 26.5968C25.2285 26.2779 25.006 25.959 24.8471 25.6719C24.8789 26.0227 24.8789 26.3416 24.8789 26.82V27.9999H24.4657Z" fill="#006799"/>
<path d="M28.2478 25.5444V25.2255H30.6633V25.5444H29.678V27.9999H29.2649V25.5444H28.2478Z" fill="#006799"/>
<path d="M31.9022 27.5535C32.0929 27.6492 32.3472 27.7448 32.665 27.7448C33.1099 27.7448 33.3324 27.5535 33.3324 27.2665C33.3324 27.0114 33.1735 26.8519 32.7285 26.7243C32.1882 26.5649 31.8704 26.3098 31.8704 25.9271C31.8704 25.4806 32.2836 25.1617 32.9192 25.1617C33.2371 25.1617 33.4913 25.2255 33.6502 25.2893L33.5231 25.5763C33.4277 25.5125 33.2053 25.4487 32.9192 25.4487C32.4743 25.4487 32.3154 25.672 32.3154 25.8633C32.3154 26.1184 32.5061 26.246 32.951 26.4054C33.4913 26.5968 33.7773 26.82 33.7773 27.2027C33.7773 27.6173 33.396 28 32.6332 28C32.3154 28 31.9658 27.9043 31.8069 27.8086L31.9022 27.5535Z" fill="#006799"/>
</svg>
