<svg viewBox="0 0 184 60" fill="none" xmlns="http://www.w3.org/2000/svg">
    <path fill-rule="evenodd" clip-rule="evenodd" d="M144.1657 10.9397003v.00682421c-.0067 0-2.1299-.0068242-2.6961 2.04725549-.519 1.88348-1.9816 7.08355-2.02203 7.22685h-.40442s-1.49633-5.31607-2.02207-7.23367c-.56618-2.05408394-2.6961-2.0472597-2.6961-2.0472597H129.472V26.5671h4.85298v-9.28088h.40441l2.83091 9.28088h3.3701l2.8309-9.27406h.4044v9.27406h4.853V10.9397003h-4.853zm17.7267-3e-7s-1.4221.12966-2.0895 1.63781l-3.4374 7.64312h-.4045V10.9397h-4.8529v15.6274h4.5833s1.4897-.1364 2.1569-1.6378l3.3701-7.64308h.4044v9.28088h4.8531V10.9397h-4.5835zm6.7403 7.09716v8.53024h4.8531v-4.9816h5.2572c2.2918 0 4.233-1.48091 4.9541-3.54864h-15.0644z" fill="#4DB45E"/>
    <path fill-rule="evenodd" clip-rule="evenodd" d="M178.7431 10.9395H167.952c.53922 2.97535 2.74329 5.36383 5.59441 6.1418.64705.17742 1.32783.27296 2.02882.27296h8.31747c.0741-.35486.1078-.71654.1078-1.09187 0-2.94123-2.3523-5.32289-5.2574-5.32289z" fill="#03A7DE"/>
    <path d="M80.0712 11.212999L76.14884 21.5059l-1.58213-8.75409c-.19776-.99168-.9229-1.538811-1.74693-1.538811h-6.4273972l-.0988828.444544c1.31844.307757 2.80169.786497 3.72459 1.299437.56034.30776.72515.58133.88995 1.33363l2.99945 12.07109h4.02121l6.1308-15.148701h-3.9883zM85.6747 11.212999L82.5434 26.3617h3.7905l3.0983-15.148701h-3.7575zM94.4093 15.41914c0-.54713.5274-1.12846 1.6151-1.26524.5273-.06839 2.0436-.13679 3.7246.68391l.6592-3.214396c-.9229-.341957-2.0766-.683914-3.5268-.683914-3.7246 0-6.3615 2.05174-6.3945 5.02677-.0329 2.18853 1.8788 3.38538 3.2961 4.10349 1.4833.7523 1.9777 1.19684 1.9447 1.88074 0 1.0259-1.1866 1.4704-2.2413 1.4704-1.9118.0342-2.9995-.5471-3.8894-.9574l-.6922 3.3169c.8899.4104 2.505.7865 4.186.7865 3.9554 0 6.5593-2.0175 6.5593-5.1977.0659-3.93251-5.2738-4.17188-5.2408-5.95006zM105.3194 20.993l2.0106-5.67646 1.1207 5.67646h-3.1313zm1.4503-9.779951c-.7251 0-1.3514.444545-1.6151 1.094261L99.4853 26.3276h3.9553l.7911-2.257h4.8453l.4614 2.257h3.4939l-3.0324-15.148748h-3.2302v.034197z" fill="#1A1F71"/>
    <path d="M9.06983 38.85295V36.2659c.01496-.21758-.01626-.43587-.0916-.64033-.07533-.20446-.19305-.3904-.3453-.54543-.15226-.15503-.33555-.27559-.53768-.35365-.20212-.07806-.41844-.11183-.63453-.09906-.28286-.01868-.56551.03948-.81844.16842-.25293.12893-.46688.32391-.61949.56458-.13912-.23345-.33817-.42476-.57618-.55377-.238-.129-.50615-.19092-.77616-.17923-.23537-.01199-.46976.0382-.67994.1456-.21019.10739-.38887.26827-.518334.46667v-.50879h-.89014577v4.12204H3.480736v-2.26798c-.019117-.14096-.007089-.28443.035222-.42017.042311-.13573.113862-.26036.209532-.365.09568-.10463.21312-.18668.34392-.24027s.27174-.07741.41274-.06975c.59058 0 .89015.38806.89015 1.08656v2.29386h.8987v-2.28523c-.01833-.14082-.00576-.28398.03684-.41937.0426-.13538.11419-.25969.2097-.36415.09551-.10445.21262-.1865.34306-.24036.13043-.05385.27102-.0782.41182-.07131.60769 0 .8987.38806.8987 1.08656v2.29386l.89871-.01725zm13.2966-4.12204h-1.4637v-1.250404h-.8987v1.250404h-.8131v.81924h.8303v1.89717c0 .95721.368 1.52636 1.4208 1.52636.3933.00133.779-.10927 1.1127-.31907l-.2568-.7675c-.2387.14346-.5097.22357-.7875.23284-.4279 0-.5905-.27595-.5905-.68988v-1.87992h1.455l-.0085-.81924zm7.5919-.10348c-.2171-.00643-.4318.04625-.6216.15249-.1898.10624-.3476.2621-.4569.45116v-.50017h-.8816v4.12204h.8902v-2.3111c0-.68126.291-1.06069.8559-1.06069.1904-.00262.3794.03254.5563.10348l.2739-.86235c-.2033-.07327-.4174-.11118-.6333-.11211l.0171.01725zm-11.4778.43118c-.5038-.30184-1.0832-.4515-1.669-.43118-1.0357 0-1.7118.50016-1.7118 1.3194 0 .67263.4964 1.08656 1.4122 1.21591l.428.06037c.4879.06899.7189.19834.7189.43117 0 .31907-.3252.50016-.9329.50016-.4888.01426-.9682-.13761-1.3609-.43117l-.4279.6985c.5185.36477 1.1395.55219 1.7717.53466 1.1811 0 1.8659-.56053 1.8659-1.34527s-.5392-1.10381-1.4294-1.23316l-.4279-.06036c-.3852-.05174-.6933-.12935-.6933-.40531 0-.27595.291-.48291.7788-.48291.451.00527.893.12701 1.2839.35356l.3937-.72437zm23.8414-.43118c-.217-.00643-.4318.04625-.6216.15249-.1898.10624-.3476.2621-.4569.45116v-.50017h-.8815v4.12204h.8901v-2.3111c0-.68126.291-1.06069.8559-1.06069.1904-.00262.3794.03254.5564.10348l.2738-.86235c-.2032-.07327-.4174-.11118-.6333-.11211l.0171.01725zm-11.4692 2.15588c-.0106.28967.039.57838.1455.84765.1065.26927.2676.51317.4731.71609.2054.20293.4506.36042.7199.46238.2694.10196.5568.14615.8441.12975.5344.0274 1.0597-.14798 1.4721-.49154l-.4279-.72437c-.3077.23642-.683.36647-1.0699.37081-.329-.02682-.636-.17746-.8598-.42193-.2238-.24448-.3481-.56488-.3481-.89747 0-.33258.1243-.65299.3481-.89746.2238-.24448.5308-.39511.8598-.42193.3869.00434.7622.13439 1.0699.37081l.4279-.72438c-.4124-.34356-.9377-.51893-1.4721-.49154-.2873-.0164-.5747.0278-.8441.12976-.2693.10196-.5145.25944-.7199.46237-.2055.20293-.3666.44683-.4731.7161-.1065.26927-.1561.55798-.1455.84765v.01725zm8.3366 0v-2.0524h-.8902v.50017c-.1512-.19597-.3464-.35292-.5696-.45787-.2233-.10496-.4681-.15493-.7143-.14578-.5675 0-1.1117.22714-1.513.63144-.4013.40431-.6267.95266-.6267 1.52444 0 .57177.2254 1.12013.6267 1.52443.4013.40431.9455.63144 1.513.63144.2462.00915.491-.04081.7143-.14577.2232-.10496.4184-.2619.5696-.45787v.50016h.8902v-2.05239zm-3.3124 0c.0142-.24264.0985-.47579.2425-.67076.1441-.19497.3416-.34323.5682-.42654.2267-.08331.4725-.09802.7073-.04233.2349.0557.4484.17937.6143.35578.166.17642.2771.39788.3197.63712.0426.23923.0148.4858-.0799.70934-.0947.22353-.2523.41428-.4532.54874-.201.13447-.4366.20678-.6778.20804-.1695.00216-.3375-.03103-.4936-.09748-.1561-.06646-.2969-.16474-.4135-.28866-.1165-.12393-.2064-.27081-.2639-.43142-.0575-.16061-.0813-.33147-.0701-.50183zm-10.7417-2.15588c-.5675.00801-1.1086.24282-1.5043.65278-.3956.40997-.6134.96151-.6055 1.53328.0079.57177.241 1.11695.6479 1.51559.4069.39865.9543.61811 1.5218.6101.6158.03184 1.2213-.16792 1.699-.56052l-.4279-.66401c-.338.27305-.7566.42478-1.1898.43117-.2942.0255-.5867-.06566-.8153-.25408-.2285-.18842-.3751-.45924-.4086-.75487h3.0385v-.34494c0-1.29352-.796-2.15587-1.9429-2.15587l-.0129-.00863zm0 .80199c.1332-.00286.2657.02074.3898.06947.1242.04873.2376.12162.3337.21452.0962.09289.1733.20397.2268.32688.0536.12291.0826.25525.0854.38945h-2.1398c.0155-.27678.1379-.53646.3411-.72342.2032-.18696.4709-.28636.7459-.2769h.0171zm22.3007 1.36251v-3.71672974h-.8559V35.23108c-.1511-.19597-.3464-.35292-.5696-.45787-.2232-.10496-.4681-.15493-.7142-.14578-.5675 0-1.1118.22714-1.5131.63144-.4013.40431-.6267.95266-.6267 1.52444 0 .57177.2254 1.12013.6267 1.52443.4013.40431.9456.63144 1.5131.63144.2461.00915.491-.04081.7142-.14577.2232-.10496.4185-.2619.5696-.45787v.50016h.8559v-2.04377zm1.4851 1.46169c.0556-.00069.1108.00956.1626.03018.0491.0202.0941.04945.1326.08623.0376.03718.0681.08103.0899.12936.0217.05035.0329.10465.0329.15953s-.0112.10918-.0329.15953c-.0218.04833-.0523.09218-.0899.12936-.0385.03678-.0835.06603-.1326.08623-.0513.02278-.1066.03453-.1626.0345-.0812-.00062-.1605-.02446-.2286-.06873-.0682-.04428-.1225-.10718-.1566-.18136-.0214-.05041-.0325-.10469-.0325-.15953 0-.05485.0111-.10912.0325-.15953.0218-.04833.0523-.09218.0899-.12936.0385-.03678.0835-.06603.1326-.08623.0558-.02234.1156-.03262.1755-.03018h-.0128zm0 .72868c.0427.00026.085-.00855.1241-.02587.0368-.01656.0702-.03997.0984-.06899.0535-.05884.0832-.13577.0832-.21559s-.0297-.15674-.0832-.21558c-.0282-.02911-.0616-.05252-.0984-.06899-.0392-.0172-.0814-.026-.1241-.02587-.0427.00023-.0849.00902-.1242.02587-.0384.01588-.0733.03934-.1027.06899-.0535.05884-.0832.13576-.0832.21558s.0297.15675.0832.21559c.0295.02956.0643.053.1027.06899.0432.01876.09.0276.137.02587h-.0128zm.0256-.5131c.04-.00195.0793.01025.1113.0345.0131.01092.0234.02483.0301.04058.0067.01575.0096.03287.0084.04996.0006.01433-.0017.02862-.0069.04198-.0051.01336-.013.02549-.023.03563-.0248.0227-.0565.03637-.0899.03881l.1241.14229h-.0984l-.1156-.14229h-.0385v.14229h-.0813v-.37944l.1797-.00431zm-.0941.0733v.10348h.0941c.0168.00504.0346.00504.0514 0 .003-.00601.0046-.01266.0046-.0194 0-.00674-.0016-.01338-.0046-.0194.003-.00602.0046-.01267.0046-.01941 0-.00673-.0016-.01338-.0046-.0194-.0168-.00503-.0346-.00503-.0514 0l-.0941-.02587zm-4.7075-1.75057c.0142-.24263.0985-.47579.2425-.67076.1441-.19497.3416-.34323.5682-.42654.2266-.08331.4725-.09802.7073-.04232.2348.05569.4484.17936.6143.35578.166.17641.2771.39788.3197.63711.0426.23924.0148.48581-.0799.70934-.0947.22354-.2523.41428-.4533.54874-.2009.13447-.4365.20679-.6778.20805-.1694.00216-.3375-.03104-.4936-.09749-.1561-.06645-.2968-.16474-.4134-.28866-.1165-.12392-.2064-.27081-.2639-.43142-.0575-.16061-.0814-.33147-.0701-.50183zm-30.0553 0v-2.06102h-.8901v.50017c-.1512-.19597-.3465-.35292-.5697-.45787-.22323-.10496-.46803-.15493-.7142-.14578-.56751 0-1.11177.22714-1.51305.63144-.40129.40431-.62673.95266-.62673 1.52444 0 .57177.22544 1.12013.62673 1.52443.40128.40431.94554.63144 1.51305.63144.24617.00915.49097-.04081.7142-.14577.2232-.10496.4185-.2619.5697-.45787v.50016h.8901v-2.04377zm-3.31236 0c.01419-.24263.0985-.47579.24255-.67076.14405-.19497.34155-.34323.56818-.42654s.47249-.09802.70731-.04232c.23483.05569.44832.17936.61432.35578.1659.17641.277.39788.3196.63711.0426.23924.0149.48581-.0799.70934-.0947.22354-.2522.41428-.4532.54874-.20095.13447-.43656.20679-.67779.20805-.17017.00336-.33916-.02894-.49628-.09486-.15711-.06592-.29892-.16402-.41641-.28807-.1175-.12406-.20812-.27136-.26612-.43257-.05801-.16121-.08212-.3328-.07082-.5039h.00856z" fill="#231F20"/>
    <path d="M31.6666 3.31958H18.186v24.4088h13.4806V3.31958z" fill="#FF5F00"/>
    <path d="M19.0417 15.52620898c-.0025-2.3511.5261-4.6719 1.5455-6.78677 1.0195-2.11484 2.5033-3.96823 4.3389-5.41983-2.2728-1.79963-5.0023-2.918714-7.8765-3.2293495-2.8742-.3106355-5.7772.1997105-8.37716 1.4727095-2.59996 1.273-4.79199 3.25729-6.32558 5.72609C.813269 9.75786898 6e-8 12.61160898 6e-8 15.52400898c0 2.9125.81326894 5.7662 2.34685994 8.235 1.53359 2.4688 3.72562 4.4531 6.32558 5.7261 2.59996 1.273 5.50296 1.7833 8.37716 1.4727 2.8742-.3107 5.6037-1.4297 7.8765-3.2294-1.8351-1.4511-3.3185-3.3038-4.3379-5.4179-1.0195-2.114-1.5483-4.434-1.5465-6.7843z" fill="#EB001B"/>
    <path d="M49.8552 15.5263c-.0001 2.9126-.8136 5.7665-2.3474 8.2354-1.5339 2.4689-3.7262 4.4532-6.3265 5.726-2.6003 1.2728-5.5036 1.7828-8.37795 1.4717-2.87438-.3111-5.6039-1.4307-7.87654935-3.2309C26.76114 26.2761 28.24412 24.4229 29.26385 22.3087c1.01974-2.1141 1.5496-4.434 1.5496-6.7846s-.52986-4.6704-1.5496-6.7846c-1.01973-2.11415-2.50271-3.96736-4.33704935-5.4198C27.19945 1.5195 29.92897.399874 32.80335.0887927 35.6777-.222289 38.581.287728 41.1813 1.56055c2.6003 1.27281 4.7926 3.25707 6.3265 5.72596 1.5338 2.46888 2.3473 5.32279 2.3474 8.23549v.0043zM48.38183 25.141245v-.500162h.201133v-.10348405h-.50926391v.10348405h.21825791v.500162h.089873zm.98858 0v-.60364605h-.15407l-.179739.43117505-.17974-.43117505h-.136949v.60364605h.111266v-.452732l.166902.392368h.11555l.1669-.392368v.457045l.08988-.004313z" fill="#F79E1B"/>
</svg>