<?xml version="1.0" encoding="UTF-8"?>
<svg width="90.112" height="44.236" version="1.1" viewBox="0 0 90.111992 44.23563" xmlns="http://www.w3.org/2000/svg" xmlns:cc="http://creativecommons.org/ns#" xmlns:dc="http://purl.org/dc/elements/1.1/" xmlns:rdf="http://www.w3.org/1999/02/22-rdf-syntax-ns#">
    <metadata>
        <rdf:RDF>
            <cc:Work rdf:about="">
                <dc:format>image/svg+xml</dc:format>
                <dc:type rdf:resource="http://purl.org/dc/dcmitype/StillImage"/>
                <dc:title>Group 2</dc:title>
            </cc:Work>
        </rdf:RDF>
    </metadata>
    <title>Group 2</title>
    <desc>Created with Sketch.</desc>
    <g transform="translate(-.1135 -11.135)" fill="none" fill-rule="evenodd">
        <g transform="translate(-402,-981)">
            <g transform="translate(402,981)">
                <g transform="matrix(.53118 0 0 .53118 60.609 11.723)">
                    <polyline points="39.048 33.375 39.908 33.352 40.758 33.29 41.591 33.184 42.418 33.037 43.222 32.851 44.015 32.626 44.792 32.362 45.551 32.064 46.294 31.726 47.014 31.361 47.711 30.955 48.392 30.522 49.045 30.056 49.675 29.561 50.282 29.037 50.862 28.48 51.419 27.901 51.942 27.293 52.437 26.663 52.904 26.011 53.337 25.33 53.742 24.632 54.108 23.912 54.445 23.17 54.744 22.41 55.008 21.634 55.233 20.841 55.419 20.036 55.565 19.209 55.672 18.377 55.734 17.527 55.756 16.667 55.734 15.811 55.672 14.967 55.565 14.135 55.419 13.319 55.233 12.515 55.008 11.727 54.744 10.951 54.445 10.197 54.108 9.4598 53.742 8.7399 53.337 8.0479 52.904 7.3673 52.437 6.7146 51.942 6.09 51.419 5.4826 50.862 4.9033 50.282 4.3516 49.675 3.8286 49.045 3.3335 48.392 2.8667 47.711 2.4333 47.014 2.0339 46.294 1.6684 45.551 1.3309 44.792 1.0327 44.015 0.76821 43.222 0.54332 42.418 0.35745 41.591 0.21119 40.758 0.10426 39.908 0.042596 39.048 0.019957 38.193 0.042596 37.343 0.10426 36.511 0.21119 35.689 0.35745 34.885 0.54332 34.091 0.76821 33.321 1.0327 32.561 1.3309 31.824 1.6684 31.11 2.0339 30.412 2.4333 29.737 2.8667 29.085 3.3335 28.455 3.8286 27.853 4.3516 27.273 4.9033 26.722 5.4826 26.199 6.09 25.704 6.7146 25.242 7.3673 24.809 8.0479 24.41 8.7399 24.039 9.4598 23.706 10.197 23.408 10.951 23.15 11.727 22.925 12.515 22.739 13.319 22.593 14.135 22.486 14.967 22.424 15.811 22.401 16.667 22.424 17.527 22.486 18.377 22.593 19.209 22.739 20.036 22.925 20.841 23.15 21.634 23.408 22.41 23.706 23.17 24.039 23.912 24.41 24.632 24.809 25.33 25.242 26.011 25.704 26.663 26.199 27.293 26.722 27.901 27.273 28.48 27.853 29.037 28.455 29.561 29.085 30.056 29.737 30.522 30.412 30.955 31.11 31.361 31.824 31.726 32.561 32.064 33.321 32.362 34.091 32.626 34.885 32.851 35.689 33.037 36.511 33.184 37.343 33.29 38.193 33.352 39.048 33.375" fill="#f2ad3d"/>
                    <polyline points="16.736 33.375 17.591 33.352 18.441 33.29 19.274 33.184 20.095 33.037 20.899 32.851 21.693 32.626 22.463 32.362 23.223 32.064 23.96 31.726 24.674 31.361 25.372 30.955 26.047 30.522 26.699 30.056 27.329 29.561 27.931 29.037 28.511 28.48 29.062 27.901 29.585 27.293 30.08 26.663 30.542 26.011 30.975 25.33 31.374 24.632 31.746 23.912 32.078 23.17 32.376 22.41 32.635 21.634 32.859 20.841 33.045 20.036 33.191 19.209 33.298 18.377 33.36 17.527 33.383 16.667 33.36 15.811 33.298 14.967 33.191 14.135 33.045 13.319 32.859 12.515 32.635 11.727 32.376 10.951 32.078 10.197 31.746 9.4598 31.374 8.7399 30.975 8.0479 30.542 7.3673 30.08 6.7146 29.585 6.09 29.062 5.4826 28.511 4.9033 27.931 4.3516 27.329 3.8286 26.699 3.3335 26.047 2.8667 25.372 2.4333 24.674 2.0339 23.96 1.6684 23.223 1.3309 22.463 1.0327 21.693 0.76821 20.899 0.54332 20.095 0.35745 19.274 0.21119 18.441 0.10426 17.591 0.042596 16.736 0.019957 15.876 0.042596 15.026 0.10426 14.194 0.21119 13.366 0.35745 12.562 0.54332 11.769 0.76821 10.993 1.0327 10.233 1.3309 9.4905 1.6684 8.7703 2.0339 8.0729 2.4333 7.392 2.8667 6.7394 3.3335 6.1094 3.8286 5.5017 4.3516 4.9223 4.9033 4.3653 5.4826 3.8423 6.09 3.3472 6.7146 2.8804 7.3673 2.447 8.0479 2.0419 8.7399 1.6764 9.4598 1.3389 10.197 1.0408 10.951 0.77626 11.727 0.55136 12.515 0.36549 13.319 0.21923 14.135 0.1123 14.967 0.050638 15.811 0.028 16.667 0.050638 17.527 0.1123 18.377 0.21923 19.209 0.36549 20.036 0.55136 20.841 0.77626 21.634 1.0408 22.41 1.3389 23.17 1.6764 23.912 2.0419 24.632 2.447 25.33 2.8804 26.011 3.3472 26.663 3.8423 27.293 4.3653 27.901 4.9223 28.48 5.5017 29.037 6.1094 29.561 6.7394 30.056 7.392 30.522 8.0729 30.955 8.7703 31.361 9.4905 31.726 10.233 32.064 10.993 32.362 11.769 32.626 12.562 32.851 13.366 33.037 14.194 33.184 15.026 33.29 15.876 33.352 16.736 33.375" fill="#d82331"/>
                    <polyline points="25.94 6.4165 34.8 6.4165 34.8 5.5106 26.705 5.5106 25.94 6.4165" fill="#f2ad3d"/>
                    <polyline points="24.612 8.4304 34.8 8.4304 34.8 7.5249 25.147 7.5249 24.612 8.4304" fill="#f2ad3d"/>
                    <polyline points="23.622 10.439 34.8 10.439 34.8 9.5328 24.016 9.5328 23.622 10.439" fill="#f2ad3d"/>
                    <polyline points="22.942 12.453 34.8 12.453 34.8 11.547 23.223 11.547 22.942 12.453" fill="#f2ad3d"/>
                    <polyline points="23.335 22.185 34.828 22.185 34.828 21.279 23.054 21.279 23.335 22.185" fill="#f2ad3d"/>
                    <polyline points="24.185 24.199 34.828 24.199 34.828 23.293 23.763 23.293 24.185 24.199" fill="#f2ad3d"/>
                    <polyline points="25.378 26.208 34.828 26.208 34.828 25.302 24.809 25.302 25.378 26.208" fill="#f2ad3d"/>
                    <polyline points="27.02 28.222 34.828 28.222 34.828 27.31 26.227 27.31 27.02 28.222" fill="#f2ad3d"/>
                    <polyline points="22.542 14.461 34.8 14.461 34.8 13.555 22.716 13.555 22.542 14.461" fill="#f2ad3d"/>
                    <polyline points="30.013 20.177 34.688 20.177 34.688 19.271 30.182 19.271 30.013 20.177" fill="#f2ad3d"/>
                    <polyline points="30.384 18.168 34.688 18.168 34.688 17.257 30.553 17.257 30.384 18.168" fill="#f2ad3d"/>
                    <polyline points="22.233 17.257 23.448 17.257 23.448 18.168 22.289 18.168 22.233 17.257" fill="#f2ad3d"/>
                    <polyline points="19.965 16.16 19.887 16.155 19.808 16.143 19.735 16.132 19.662 16.121 19.594 16.11 19.521 16.098 19.448 16.087 19.369 16.076 19.291 16.065 19.201 16.059 19.099 16.053 18.992 16.048 18.874 16.048 18.745 16.053 18.599 16.065 18.435 16.076 18.323 16.093 18.216 16.11 18.12 16.143 18.036 16.177 17.957 16.216 17.884 16.261 17.828 16.318 17.777 16.368 17.743 16.43 17.715 16.492 17.704 16.56 17.704 16.627 17.721 16.7 17.743 16.773 17.788 16.846 17.845 16.919 17.957 17.026 18.092 17.111 18.25 17.184 18.418 17.246 18.599 17.302 18.784 17.364 18.97 17.431 19.15 17.505 19.319 17.6 19.476 17.718 19.617 17.859 19.735 18.033 19.825 18.247 19.881 18.5 19.904 18.804 19.881 19.159 19.842 19.423 19.774 19.654 19.684 19.867 19.572 20.053 19.442 20.216 19.296 20.357 19.139 20.481 18.964 20.587 18.784 20.672 18.599 20.745 18.407 20.801 18.21 20.846 18.019 20.88 17.833 20.897 17.648 20.908 17.473 20.914 17.231 20.914 17.006 20.908 16.81 20.908 16.624 20.902 16.455 20.897 16.303 20.886 16.168 20.874 16.039 20.858 15.921 20.846 15.814 20.824 15.707 20.807 15.611 20.779 15.516 20.756 15.426 20.722 15.335 20.689 15.24 20.655 15.493 19.412 15.544 19.423 15.606 19.44 15.684 19.462 15.78 19.485 15.881 19.507 15.994 19.53 16.118 19.558 16.253 19.581 16.393 19.603 16.539 19.626 16.691 19.642 16.849 19.659 17.012 19.665 17.175 19.671 17.338 19.671 17.501 19.665 17.665 19.631 17.794 19.586 17.895 19.524 17.974 19.445 18.03 19.367 18.075 19.277 18.103 19.187 18.126 19.102 18.137 18.939 18.087 18.798 17.991 18.686 17.85 18.591 17.681 18.506 17.485 18.422 17.265 18.343 17.046 18.253 16.821 18.152 16.607 18.033 16.41 17.887 16.23 17.713 16.089 17.499 15.988 17.246 15.937 16.942 15.943 16.582 15.971 16.363 16.011 16.155 16.067 15.963 16.134 15.783 16.225 15.614 16.326 15.468 16.444 15.328 16.585 15.204 16.748 15.097 16.927 15.007 17.13 14.923 17.355 14.861 17.608 14.81 17.884 14.771 18.188 14.748 18.52 14.742 18.728 14.742 18.919 14.748 19.094 14.754 19.251 14.759 19.392 14.771 19.521 14.782 19.634 14.793 19.735 14.804 19.831 14.816 19.909 14.833 19.982 14.844 20.05 14.855 20.106 14.866 20.157 14.872 20.207 14.883 20.252 14.889 19.965 16.16" fill="#fff"/>
                    <polyline points="19.965 16.16 19.965 16.16 19.887 16.155 19.808 16.143 19.735 16.132 19.662 16.121 19.594 16.11 19.521 16.098 19.448 16.087 19.369 16.076 19.291 16.065 19.201 16.059 19.099 16.053 18.992 16.048 18.874 16.048 18.745 16.053 18.599 16.065 18.435 16.076 18.323 16.093 18.216 16.11 18.12 16.143 18.036 16.177 17.957 16.216 17.884 16.261 17.828 16.318 17.777 16.368 17.743 16.43 17.715 16.492 17.704 16.56 17.704 16.627 17.721 16.7 17.743 16.773 17.788 16.846 17.845 16.919 17.957 17.026 18.092 17.111 18.25 17.184 18.418 17.246 18.599 17.302 18.784 17.364 18.97 17.431 19.15 17.505 19.319 17.6 19.476 17.718 19.617 17.859 19.735 18.033 19.825 18.247 19.881 18.5 19.904 18.804 19.881 19.159 19.842 19.423 19.774 19.654 19.684 19.867 19.572 20.053 19.442 20.216 19.296 20.357 19.139 20.481 18.964 20.587 18.784 20.672 18.599 20.745 18.407 20.801 18.21 20.846 18.019 20.88 17.833 20.897 17.648 20.908 17.473 20.914 17.231 20.914 17.006 20.908 16.81 20.908 16.624 20.902 16.455 20.897 16.303 20.886 16.168 20.874 16.039 20.858 15.921 20.846 15.814 20.824 15.707 20.807 15.611 20.779 15.516 20.756 15.426 20.722 15.335 20.689 15.24 20.655 15.493 19.412 15.544 19.423 15.606 19.44 15.684 19.462 15.78 19.485 15.881 19.507 15.994 19.53 16.118 19.558 16.253 19.581 16.393 19.603 16.539 19.626 16.691 19.642 16.849 19.659 17.012 19.665 17.175 19.671 17.338 19.671 17.501 19.665 17.665 19.631 17.794 19.586 17.895 19.524 17.974 19.445 18.03 19.367 18.075 19.277 18.103 19.187 18.126 19.102 18.137 18.939 18.087 18.798 17.991 18.686 17.85 18.591 17.681 18.506 17.485 18.422 17.265 18.343 17.046 18.253 16.821 18.152 16.607 18.033 16.41 17.887 16.23 17.713 16.089 17.499 15.988 17.246 15.937 16.942 15.943 16.582 15.971 16.363 16.011 16.155 16.067 15.963 16.134 15.783 16.225 15.614 16.326 15.468 16.444 15.328 16.585 15.204 16.748 15.097 16.927 15.007 17.13 14.923 17.355 14.861 17.608 14.81 17.884 14.771 18.188 14.748 18.52 14.742 18.728 14.742 18.919 14.748 19.094 14.754 19.251 14.759 19.392 14.771 19.521 14.782 19.634 14.793 19.735 14.804 19.831 14.816 19.909 14.833 19.982 14.844 20.05 14.855 20.106 14.866 20.157 14.872 20.207 14.883 20.252 14.889 19.965 16.16" stroke="#fff" stroke-width=".216"/>
                    <polyline points="21.299 13.499 22.857 13.499 22.626 14.861 23.566 14.861 23.363 16.132 22.373 16.104 21.833 19.243 21.827 19.355 21.856 19.451 21.912 19.524 21.985 19.586 22.086 19.626 22.199 19.659 22.323 19.682 22.457 19.693 22.581 19.687 22.694 19.676 22.795 19.659 22.885 19.637 22.958 19.614 23.009 19.597 23.043 19.586 23.054 19.581 22.857 20.627 22.818 20.655 22.739 20.7 22.7 20.722 22.66 20.739 22.615 20.756 22.564 20.773 22.514 20.79 22.457 20.807 22.401 20.818 22.334 20.829 22.267 20.841 22.193 20.852 22.109 20.863 22.019 20.874 21.923 20.886 21.496 20.886 21.271 20.869 21.074 20.846 20.894 20.813 20.742 20.773 20.612 20.722 20.506 20.666 20.41 20.599 20.337 20.525 20.281 20.447 20.241 20.351 20.213 20.256 20.196 20.149 20.19 20.03 20.19 19.907 20.207 19.778 20.224 19.637 21.299 13.499" fill="#fff"/>
                    <polyline points="21.299 13.499 22.857 13.499 22.626 14.861 23.566 14.861 23.363 16.132 22.373 16.104 21.833 19.243 21.827 19.355 21.856 19.451 21.912 19.524 21.985 19.586 22.086 19.626 22.199 19.659 22.323 19.682 22.457 19.693 22.581 19.687 22.694 19.676 22.795 19.659 22.885 19.637 22.958 19.614 23.009 19.597 23.043 19.586 23.054 19.581 22.857 20.627 22.818 20.655 22.739 20.7 22.7 20.722 22.66 20.739 22.615 20.756 22.564 20.773 22.514 20.79 22.457 20.807 22.401 20.818 22.334 20.829 22.267 20.841 22.193 20.852 22.109 20.863 22.019 20.874 21.923 20.886 21.496 20.886 21.271 20.869 21.074 20.846 20.894 20.813 20.742 20.773 20.612 20.722 20.506 20.666 20.41 20.599 20.337 20.525 20.281 20.447 20.241 20.351 20.213 20.256 20.196 20.149 20.19 20.03 20.19 19.907 20.207 19.778 20.224 19.637 21.299 13.499" stroke="#fff" stroke-width=".216"/>
                    <polyline points="24.809 18.253 24.792 18.349 24.787 18.45 24.798 18.557 24.821 18.663 24.86 18.77 24.905 18.872 24.967 18.979 25.034 19.074 25.113 19.17 25.197 19.254 25.288 19.338 25.389 19.406 25.49 19.468 25.602 19.519 25.715 19.558 25.828 19.581 25.974 19.603 26.114 19.62 26.261 19.637 26.407 19.648 26.553 19.654 26.705 19.654 26.851 19.648 27.003 19.637 27.155 19.614 27.307 19.586 27.464 19.552 27.616 19.502 27.774 19.44 27.937 19.372 28.095 19.282 28.258 19.187 28.033 20.57 27.853 20.661 27.763 20.694 27.678 20.728 27.594 20.756 27.504 20.784 27.414 20.807 27.318 20.824 27.217 20.841 27.105 20.852 26.986 20.863 26.857 20.874 26.711 20.88 26.559 20.88 26.384 20.886 26.199 20.886 25.923 20.88 25.642 20.852 25.361 20.813 25.079 20.745 24.804 20.661 24.539 20.554 24.286 20.413 24.05 20.25 23.83 20.059 23.639 19.828 23.476 19.569 23.341 19.271 23.245 18.939 23.183 18.562 23.166 18.146 23.195 17.685 23.217 17.505 23.251 17.297 23.296 17.077 23.358 16.841 23.442 16.599 23.544 16.357 23.673 16.11 23.83 15.873 24.01 15.648 24.23 15.434 24.477 15.243 24.759 15.074 25.085 14.934 25.451 14.833 25.856 14.765 26.311 14.742 26.531 14.748 26.761 14.771 26.992 14.81 27.223 14.866 27.448 14.951 27.667 15.052 27.87 15.187 28.055 15.344 28.224 15.536 28.365 15.761 28.477 16.02 28.556 16.318 28.601 16.655 28.606 17.038 28.567 17.465 28.483 17.938 28.455 18.281 24.353 18.281 24.612 17.173 27.076 17.173 27.088 17.032 27.082 16.897 27.071 16.773 27.048 16.661 27.009 16.554 26.969 16.458 26.913 16.374 26.857 16.295 26.789 16.227 26.716 16.171 26.632 16.121 26.548 16.076 26.458 16.042 26.368 16.02 26.272 16.003 26.171 15.991 26.064 15.997 25.963 16.014 25.867 16.036 25.771 16.07 25.676 16.115 25.591 16.166 25.507 16.227 25.434 16.295 25.361 16.374 25.293 16.458 25.231 16.548 25.181 16.644 25.13 16.745 25.09 16.858 25.057 16.97 25.034 17.088 24.809 18.253" fill="#fff"/>
                    <polyline points="24.809 18.253 24.809 18.253 24.792 18.349 24.787 18.45 24.798 18.557 24.821 18.663 24.86 18.77 24.905 18.872 24.967 18.979 25.034 19.074 25.113 19.17 25.197 19.254 25.288 19.338 25.389 19.406 25.49 19.468 25.602 19.519 25.715 19.558 25.828 19.581 25.974 19.603 26.114 19.62 26.261 19.637 26.407 19.648 26.553 19.654 26.705 19.654 26.851 19.648 27.003 19.637 27.155 19.614 27.307 19.586 27.464 19.552 27.616 19.502 27.774 19.44 27.937 19.372 28.095 19.282 28.258 19.187 28.033 20.57 27.853 20.661 27.763 20.694 27.678 20.728 27.594 20.756 27.504 20.784 27.414 20.807 27.318 20.824 27.217 20.841 27.105 20.852 26.986 20.863 26.857 20.874 26.711 20.88 26.559 20.88 26.384 20.886 26.199 20.886 25.923 20.88 25.642 20.852 25.361 20.813 25.079 20.745 24.804 20.661 24.539 20.554 24.286 20.413 24.05 20.25 23.83 20.059 23.639 19.828 23.476 19.569 23.341 19.271 23.245 18.939 23.183 18.562 23.166 18.146 23.195 17.685 23.217 17.505 23.251 17.297 23.296 17.077 23.358 16.841 23.442 16.599 23.544 16.357 23.673 16.11 23.83 15.873 24.01 15.648 24.23 15.434 24.477 15.243 24.759 15.074 25.085 14.934 25.451 14.833 25.856 14.765 26.311 14.742 26.531 14.748 26.761 14.771 26.992 14.81 27.223 14.866 27.448 14.951 27.667 15.052 27.87 15.187 28.055 15.344 28.224 15.536 28.365 15.761 28.477 16.02 28.556 16.318 28.601 16.655 28.606 17.038 28.567 17.465 28.483 17.938 28.455 18.281 24.353 18.281 24.612 17.173 27.076 17.173 27.088 17.032 27.082 16.897 27.071 16.773 27.048 16.661 27.009 16.554 26.969 16.458 26.913 16.374 26.857 16.295 26.789 16.227 26.716 16.171 26.632 16.121 26.548 16.076 26.458 16.042 26.368 16.02 26.272 16.003 26.171 15.991 26.064 15.997 25.963 16.014 25.867 16.036 25.771 16.07 25.676 16.115 25.591 16.166 25.507 16.227 25.434 16.295 25.361 16.374 25.293 16.458 25.231 16.548 25.181 16.644 25.13 16.745 25.09 16.858 25.057 16.97 25.034 17.088 24.809 18.253" stroke="#fff" stroke-width=".216"/>
                    <polyline points="38.227 15.198 38.153 15.159 38.08 15.125 38.001 15.086 37.917 15.046 37.833 15.012 37.737 14.979 37.641 14.945 37.54 14.911 37.433 14.883 37.326 14.861 37.208 14.838 37.09 14.821 36.961 14.81 36.831 14.799 36.415 14.799 36.269 14.81 36.117 14.827 35.959 14.855 35.802 14.9 35.644 14.962 35.487 15.041 35.329 15.142 35.177 15.266 35.031 15.412 34.89 15.592 34.755 15.8 34.632 16.048 34.514 16.329 34.407 16.644 34.317 17.004 34.283 17.206 34.26 17.403 34.249 17.6 34.255 17.792 34.272 17.983 34.311 18.163 34.362 18.332 34.424 18.5 34.508 18.652 34.609 18.798 34.727 18.928 34.862 19.046 35.014 19.147 35.189 19.232 35.38 19.305 35.594 19.355 35.667 19.372 35.751 19.389 35.853 19.4 35.965 19.412 36.089 19.423 36.359 19.423 36.499 19.412 36.646 19.395 36.792 19.367 36.933 19.327 37.073 19.282 37.214 19.221 37.343 19.147 37.461 19.057 37.574 18.956 37.321 20.458 37.287 20.486 37.253 20.52 37.208 20.559 37.157 20.593 37.096 20.638 37.017 20.677 36.927 20.717 36.826 20.751 36.696 20.79 36.55 20.818 36.381 20.841 36.184 20.863 35.965 20.874 35.712 20.88 35.425 20.874 35.11 20.858 34.851 20.829 34.592 20.773 34.333 20.689 34.075 20.576 33.827 20.441 33.591 20.273 33.366 20.076 33.158 19.851 32.972 19.597 32.815 19.316 32.68 19.001 32.578 18.658 32.511 18.281 32.488 17.882 32.499 17.443 32.561 16.976 32.606 16.745 32.657 16.52 32.713 16.301 32.77 16.093 32.831 15.896 32.904 15.699 32.978 15.513 33.056 15.339 33.141 15.164 33.225 15.001 33.321 14.844 33.422 14.697 33.523 14.557 33.636 14.422 33.748 14.298 33.867 14.18 33.996 14.067 34.125 13.96 34.26 13.865 34.401 13.775 34.553 13.691 34.705 13.617 34.862 13.55 35.025 13.488 35.2 13.432 35.374 13.387 35.554 13.347 35.746 13.313 35.937 13.285 36.139 13.263 36.342 13.251 36.555 13.246 36.736 13.251 36.91 13.263 37.079 13.28 37.247 13.302 37.405 13.325 37.557 13.358 37.703 13.387 37.838 13.42 37.968 13.454 38.08 13.488 38.187 13.522 38.277 13.555 38.356 13.584 38.423 13.606 38.474 13.629 38.508 13.64 38.227 15.198" fill="#fff"/>
                    <polyline points="38.227 15.198 38.227 15.198 38.153 15.159 38.08 15.125 38.001 15.086 37.917 15.046 37.833 15.012 37.737 14.979 37.641 14.945 37.54 14.911 37.433 14.883 37.326 14.861 37.208 14.838 37.09 14.821 36.961 14.81 36.831 14.799 36.415 14.799 36.269 14.81 36.117 14.827 35.959 14.855 35.802 14.9 35.644 14.962 35.487 15.041 35.329 15.142 35.177 15.266 35.031 15.412 34.89 15.592 34.755 15.8 34.632 16.048 34.514 16.329 34.407 16.644 34.317 17.004 34.283 17.206 34.26 17.403 34.249 17.6 34.255 17.792 34.272 17.983 34.311 18.163 34.362 18.332 34.424 18.5 34.508 18.652 34.609 18.798 34.727 18.928 34.862 19.046 35.014 19.147 35.189 19.232 35.38 19.305 35.594 19.355 35.667 19.372 35.751 19.389 35.853 19.4 35.965 19.412 36.089 19.423 36.359 19.423 36.499 19.412 36.646 19.395 36.792 19.367 36.933 19.327 37.073 19.282 37.214 19.221 37.343 19.147 37.461 19.057 37.574 18.956 37.321 20.458 37.287 20.486 37.253 20.52 37.208 20.559 37.157 20.593 37.096 20.638 37.017 20.677 36.927 20.717 36.826 20.751 36.696 20.79 36.55 20.818 36.381 20.841 36.184 20.863 35.965 20.874 35.712 20.88 35.425 20.874 35.11 20.858 34.851 20.829 34.592 20.773 34.333 20.689 34.075 20.576 33.827 20.441 33.591 20.273 33.366 20.076 33.158 19.851 32.972 19.597 32.815 19.316 32.68 19.001 32.578 18.658 32.511 18.281 32.488 17.882 32.499 17.443 32.561 16.976 32.606 16.745 32.657 16.52 32.713 16.301 32.77 16.093 32.831 15.896 32.904 15.699 32.978 15.513 33.056 15.339 33.141 15.164 33.225 15.001 33.321 14.844 33.422 14.697 33.523 14.557 33.636 14.422 33.748 14.298 33.867 14.18 33.996 14.067 34.125 13.96 34.26 13.865 34.401 13.775 34.553 13.691 34.705 13.617 34.862 13.55 35.025 13.488 35.2 13.432 35.374 13.387 35.554 13.347 35.746 13.313 35.937 13.285 36.139 13.263 36.342 13.251 36.555 13.246 36.736 13.251 36.91 13.263 37.079 13.28 37.247 13.302 37.405 13.325 37.557 13.358 37.703 13.387 37.838 13.42 37.968 13.454 38.08 13.488 38.187 13.522 38.277 13.555 38.356 13.584 38.423 13.606 38.474 13.629 38.508 13.64 38.227 15.198" stroke="#fff" stroke-width=".216"/>
                    <polyline points="52.077 20.886 50.519 20.886 50.631 20.261 50.631 20.205 50.541 20.317 50.446 20.419 50.35 20.509 50.249 20.587 50.147 20.661 50.046 20.722 49.945 20.773 49.838 20.824 49.731 20.863 49.624 20.891 49.517 20.919 49.405 20.936 49.292 20.953 49.185 20.964 49.073 20.97 48.96 20.97 48.668 20.948 48.398 20.886 48.15 20.79 47.925 20.661 47.722 20.497 47.543 20.306 47.385 20.098 47.25 19.862 47.137 19.609 47.047 19.344 46.985 19.069 46.941 18.782 46.924 18.495 46.929 18.202 46.957 17.915 47.008 17.628 47.092 17.297 47.194 16.981 47.312 16.695 47.453 16.425 47.599 16.171 47.768 15.946 47.942 15.744 48.128 15.558 48.325 15.395 48.533 15.254 48.747 15.131 48.96 15.035 49.185 14.956 49.41 14.906 49.635 14.872 49.866 14.861 50.029 14.866 50.187 14.883 50.333 14.911 50.468 14.951 50.597 14.995 50.71 15.046 50.822 15.108 50.924 15.17 51.014 15.237 51.098 15.311 51.171 15.384 51.239 15.457 51.295 15.53 51.345 15.603 51.39 15.671 51.424 15.738 51.818 13.527 53.348 13.527 52.077 20.886" fill="#fff"/>
                    <polyline points="52.077 20.886 50.519 20.886 50.631 20.261 50.631 20.205 50.541 20.317 50.446 20.419 50.35 20.509 50.249 20.587 50.147 20.661 50.046 20.722 49.945 20.773 49.838 20.824 49.731 20.863 49.624 20.891 49.517 20.919 49.405 20.936 49.292 20.953 49.185 20.964 49.073 20.97 48.96 20.97 48.668 20.948 48.398 20.886 48.15 20.79 47.925 20.661 47.722 20.497 47.543 20.306 47.385 20.098 47.25 19.862 47.137 19.609 47.047 19.344 46.985 19.069 46.941 18.782 46.924 18.495 46.929 18.202 46.957 17.915 47.008 17.628 47.092 17.297 47.194 16.981 47.312 16.695 47.453 16.425 47.599 16.171 47.768 15.946 47.942 15.744 48.128 15.558 48.325 15.395 48.533 15.254 48.747 15.131 48.96 15.035 49.185 14.956 49.41 14.906 49.635 14.872 49.866 14.861 50.029 14.866 50.187 14.883 50.333 14.911 50.468 14.951 50.597 14.995 50.71 15.046 50.822 15.108 50.924 15.17 51.014 15.237 51.098 15.311 51.171 15.384 51.239 15.457 51.295 15.53 51.345 15.603 51.39 15.671 51.424 15.738 51.818 13.527 53.348 13.527 52.077 20.886" stroke="#fff" stroke-width=".216"/>
                    <polyline points="49.528 19.524 49.686 19.513 49.832 19.479 49.967 19.44 50.097 19.378 50.215 19.31 50.327 19.226 50.434 19.131 50.53 19.029 50.614 18.917 50.693 18.793 50.766 18.663 50.828 18.529 50.884 18.388 50.929 18.242 50.969 18.09 50.997 17.938 51.025 17.78 51.042 17.617 51.042 17.465 51.036 17.308 51.019 17.161 50.997 17.021 50.957 16.886 50.912 16.757 50.856 16.644 50.789 16.537 50.715 16.447 50.631 16.368 50.536 16.301 50.434 16.256 50.327 16.227 50.209 16.216 50.057 16.227 49.917 16.25 49.787 16.295 49.658 16.351 49.545 16.425 49.433 16.515 49.337 16.61 49.242 16.717 49.157 16.841 49.078 16.97 49.005 17.105 48.943 17.252 48.887 17.403 48.842 17.555 48.797 17.718 48.763 17.882 48.735 18.129 48.747 18.399 48.786 18.675 48.859 18.939 48.971 19.17 49.118 19.355 49.304 19.479 49.528 19.524" fill="#f2ad3d"/>
                    <polyline points="14.981 19.637 14.756 20.886 13.338 20.886 13.378 20.655 13.406 20.447 13.428 20.289 13.451 20.205 13.372 20.295 13.282 20.385 13.175 20.469 13.057 20.548 12.922 20.627 12.781 20.694 12.635 20.762 12.483 20.818 12.32 20.869 12.157 20.908 11.994 20.942 11.825 20.964 11.662 20.976 11.499 20.981 11.341 20.964 11.19 20.942 10.993 20.891 10.812 20.835 10.655 20.762 10.514 20.677 10.391 20.587 10.278 20.486 10.188 20.379 10.109 20.267 10.042 20.149 9.9856 20.025 9.9406 19.901 9.9066 19.778 9.8843 19.648 9.8673 19.519 9.856 19.395 9.856 19.271 9.873 19.052 9.9066 18.843 9.9629 18.647 10.036 18.455 10.126 18.275 10.227 18.112 10.346 17.955 10.481 17.814 10.621 17.685 10.779 17.566 10.942 17.46 11.111 17.37 11.291 17.291 11.476 17.229 11.668 17.178 11.865 17.145 11.876 17.145 11.904 17.139 11.943 17.133 12.005 17.128 12.073 17.116 12.151 17.111 12.236 17.1 12.331 17.088 12.427 17.077 12.523 17.066 12.624 17.06 12.714 17.049 12.804 17.043 12.888 17.038 12.967 17.032 13.159 17.032 13.293 17.038 13.417 17.043 13.541 17.043 13.642 17.049 13.721 17.055 13.777 17.06 13.794 17.06 13.805 17.021 13.839 16.919 13.867 16.801 13.878 16.695 13.856 16.571 13.805 16.458 13.738 16.357 13.648 16.273 13.541 16.199 13.423 16.149 13.288 16.115 13.142 16.104 12.984 16.098 12.815 16.093 12.641 16.093 12.461 16.098 12.275 16.11 12.095 16.126 11.915 16.143 11.741 16.166 11.572 16.188 11.409 16.216 11.263 16.244 11.128 16.273 11.004 16.306 10.902 16.34 10.824 16.379 10.762 16.413 11.161 15.057 11.285 15.007 11.409 14.962 11.544 14.923 11.814 14.866 11.96 14.844 12.106 14.821 12.258 14.81 12.416 14.799 12.579 14.793 12.748 14.787 13.288 14.787 13.485 14.793 13.682 14.799 13.839 14.81 14.008 14.838 14.182 14.878 14.362 14.928 14.537 14.995 14.705 15.074 14.874 15.17 15.032 15.277 15.172 15.401 15.296 15.536 15.409 15.687 15.493 15.856 15.549 16.036 15.583 16.227 15.583 16.441 15.549 16.667 14.981 19.637" fill="#fff"/>
                    <polyline points="14.981 19.637 14.756 20.886 13.338 20.886 13.378 20.655 13.406 20.447 13.428 20.289 13.451 20.205 13.372 20.295 13.282 20.385 13.175 20.469 13.057 20.548 12.922 20.627 12.781 20.694 12.635 20.762 12.483 20.818 12.32 20.869 12.157 20.908 11.994 20.942 11.825 20.964 11.662 20.976 11.499 20.981 11.341 20.964 11.19 20.942 10.993 20.891 10.812 20.835 10.655 20.762 10.514 20.677 10.391 20.587 10.278 20.486 10.188 20.379 10.109 20.267 10.042 20.149 9.9856 20.025 9.9406 19.901 9.9066 19.778 9.8843 19.648 9.8673 19.519 9.856 19.395 9.856 19.271 9.873 19.052 9.9066 18.843 9.9629 18.647 10.036 18.455 10.126 18.275 10.227 18.112 10.346 17.955 10.481 17.814 10.621 17.685 10.779 17.566 10.942 17.46 11.111 17.37 11.291 17.291 11.476 17.229 11.668 17.178 11.865 17.145 11.876 17.145 11.904 17.139 11.943 17.133 12.005 17.128 12.073 17.116 12.151 17.111 12.236 17.1 12.331 17.088 12.427 17.077 12.523 17.066 12.624 17.06 12.714 17.049 12.804 17.043 12.888 17.038 12.967 17.032 13.159 17.032 13.293 17.038 13.417 17.043 13.541 17.043 13.642 17.049 13.721 17.055 13.777 17.06 13.794 17.06 13.805 17.021 13.839 16.919 13.867 16.801 13.878 16.695 13.856 16.571 13.805 16.458 13.738 16.357 13.648 16.273 13.541 16.199 13.423 16.149 13.288 16.115 13.142 16.104 12.984 16.098 12.815 16.093 12.641 16.093 12.461 16.098 12.275 16.11 12.095 16.126 11.915 16.143 11.741 16.166 11.572 16.188 11.409 16.216 11.263 16.244 11.128 16.273 11.004 16.306 10.902 16.34 10.824 16.379 10.762 16.413 11.161 15.057 11.285 15.007 11.409 14.962 11.544 14.923 11.814 14.866 11.96 14.844 12.106 14.821 12.258 14.81 12.416 14.799 12.579 14.793 12.748 14.787 13.288 14.787 13.485 14.793 13.682 14.799 13.839 14.81 14.008 14.838 14.182 14.878 14.362 14.928 14.537 14.995 14.705 15.074 14.874 15.17 15.032 15.277 15.172 15.401 15.296 15.536 15.409 15.687 15.493 15.856 15.549 16.036 15.583 16.227 15.583 16.441 15.549 16.667 14.981 19.637" stroke="#fff" stroke-width=".216"/>
                    <polyline points="13.625 18.168 13.62 18.14 13.597 18.112 13.563 18.095 13.507 18.084 13.445 18.073 13.372 18.067 13.203 18.067 13.114 18.073 13.018 18.084 12.928 18.095 12.838 18.106 12.753 18.118 12.674 18.135 12.607 18.152 12.545 18.168 12.506 18.18 12.461 18.197 12.399 18.219 12.337 18.247 12.264 18.281 12.191 18.32 12.112 18.36 12.039 18.405 11.96 18.461 11.887 18.517 11.82 18.585 11.758 18.652 11.701 18.725 11.662 18.804 11.628 18.894 11.611 18.984 11.606 19.176 11.634 19.327 11.69 19.44 11.763 19.524 11.848 19.581 11.943 19.614 12.033 19.631 12.123 19.637 12.292 19.631 12.444 19.614 12.59 19.592 12.719 19.558 12.832 19.519 12.939 19.468 13.035 19.417 13.119 19.355 13.192 19.299 13.26 19.232 13.316 19.17 13.361 19.102 13.4 19.035 13.434 18.967 13.462 18.905 13.479 18.843 13.524 18.68 13.563 18.495 13.597 18.315 13.625 18.168" fill="#d82331"/>
                    <polyline points="3.1446 20.886 1.6145 20.886 2.8914 13.499 5.5523 13.499 5.8055 17.882 7.6452 13.499 10.424 13.499 9.1191 20.886 7.5889 20.886 8.5567 15.367 8.4947 15.367 6.205 20.886 4.4779 20.886 4.4666 20.655 4.4273 20.042 4.3766 19.17 4.2643 17.161 4.2137 16.278 4.1741 15.637 4.1628 15.367 4.0785 15.367 3.1446 20.886" fill="#fff"/>
                    <polyline points="3.1446 20.886 1.6145 20.886 2.8914 13.499 5.5523 13.499 5.8055 17.882 7.6452 13.499 10.424 13.499 9.1191 20.886 7.5889 20.886 8.5567 15.367 8.4947 15.367 6.205 20.886 4.4779 20.886 4.4666 20.655 4.4273 20.042 4.3766 19.17 4.2643 17.161 4.2137 16.278 4.1741 15.637 4.1628 15.367 4.0785 15.367 3.1446 20.886" stroke="#fff" stroke-width=".216"/>
                    <polyline points="42.901 19.637 42.671 20.886 41.259 20.886 41.27 20.655 41.276 20.453 41.276 20.301 41.287 20.233 41.214 20.317 41.129 20.402 41.028 20.481 40.915 20.559 40.797 20.632 40.662 20.7 40.522 20.768 40.381 20.824 40.229 20.869 40.072 20.914 39.914 20.942 39.757 20.964 39.593 20.976 39.436 20.981 39.284 20.964 39.132 20.942 38.93 20.891 38.75 20.835 38.592 20.762 38.446 20.677 38.322 20.587 38.215 20.486 38.125 20.379 38.046 20.267 37.979 20.149 37.928 20.025 37.883 19.901 37.855 19.778 37.833 19.648 37.816 19.519 37.804 19.395 37.804 19.271 37.816 19.052 37.849 18.843 37.9 18.647 37.973 18.455 38.058 18.275 38.165 18.112 38.283 17.955 38.412 17.814 38.558 17.685 38.71 17.566 38.873 17.46 39.048 17.37 39.222 17.291 39.408 17.229 39.593 17.178 39.785 17.145 39.796 17.145 39.824 17.139 39.863 17.133 39.92 17.128 39.993 17.116 40.072 17.111 40.156 17.1 40.246 17.088 40.342 17.077 40.443 17.066 40.539 17.06 40.634 17.049 40.724 17.043 40.803 17.038 40.882 17.032 41.079 17.032 41.214 17.038 41.343 17.043 41.467 17.043 41.574 17.049 41.664 17.055 41.715 17.06 41.737 17.06 41.748 17.021 41.765 16.919 41.782 16.801 41.793 16.695 41.771 16.571 41.726 16.458 41.652 16.357 41.568 16.273 41.467 16.199 41.349 16.149 41.225 16.115 41.09 16.104 40.932 16.098 40.764 16.093 40.589 16.093 40.409 16.098 40.223 16.11 40.044 16.126 39.863 16.143 39.689 16.166 39.52 16.188 39.357 16.216 39.211 16.244 39.076 16.273 38.952 16.306 38.851 16.34 38.772 16.379 38.71 16.413 39.104 15.057 39.228 15.007 39.357 14.962 39.487 14.923 39.621 14.894 39.762 14.866 39.903 14.844 40.049 14.821 40.201 14.81 40.359 14.799 40.522 14.793 40.685 14.787 41.214 14.787 41.405 14.793 41.596 14.799 41.754 14.81 41.923 14.838 42.097 14.878 42.277 14.928 42.451 14.995 42.626 15.074 42.794 15.17 42.952 15.277 43.093 15.401 43.222 15.536 43.334 15.687 43.419 15.856 43.481 16.036 43.52 16.227 43.52 16.441 43.492 16.667 42.901 19.637" fill="#fff"/>
                    <polyline points="39.126 20.976 39.126 20.976 39.284 20.998 39.436 21.015 39.593 21.01 39.757 20.998 39.92 20.976 40.077 20.948 40.235 20.902 40.392 20.858 40.533 20.801 40.679 20.734 40.814 20.666 40.932 20.587 41.051 20.509 41.152 20.43 41.242 20.34 41.315 20.256 41.259 20.211 41.186 20.295 41.107 20.374 41.006 20.453 40.899 20.531 40.781 20.599 40.51 20.734 40.37 20.79 40.223 20.835 40.066 20.88 39.908 20.908 39.757 20.931 39.593 20.942 39.436 20.948 39.284 20.931 39.138 20.908 39.126 20.976" fill="#fff"/>
                    <polyline points="37.765 19.271 37.765 19.271 37.771 19.395 37.782 19.519 37.799 19.654 37.821 19.783 37.849 19.907 37.894 20.036 37.945 20.166 38.018 20.284 38.097 20.402 38.187 20.509 38.3 20.616 38.429 20.706 38.575 20.796 38.738 20.869 38.924 20.925 39.126 20.976 39.138 20.908 38.935 20.858 38.761 20.801 38.609 20.728 38.463 20.649 38.345 20.559 38.243 20.464 38.153 20.357 38.075 20.25 38.013 20.132 37.962 20.014 37.917 19.895 37.889 19.772 37.866 19.642 37.849 19.519 37.838 19.395 37.844 19.271 37.765 19.271" fill="#fff"/>
                    <polyline points="39.785 17.111 39.785 17.111 39.588 17.145 39.397 17.195 39.211 17.257 39.031 17.336 38.857 17.426 38.688 17.538 38.536 17.657 38.389 17.792 38.255 17.932 38.136 18.09 38.024 18.258 37.939 18.444 37.866 18.635 37.816 18.838 37.782 19.052 37.765 19.271 37.844 19.271 37.849 19.052 37.883 18.849 37.934 18.658 38.007 18.467 38.091 18.292 38.193 18.135 38.311 17.977 38.434 17.837 38.581 17.713 38.733 17.595 38.89 17.493 39.065 17.403 39.233 17.325 39.419 17.263 39.599 17.212 39.785 17.178 39.785 17.111" fill="#fff"/>
                    <polyline points="41.09 16.138 41.09 16.143 41.219 16.149 41.338 16.183 41.45 16.233 41.546 16.301 41.624 16.379 41.692 16.475 41.737 16.576 41.759 16.695 41.827 16.695 41.804 16.565 41.759 16.441 41.681 16.334 41.591 16.244 41.484 16.166 41.36 16.115 41.231 16.081 41.09 16.065 41.09 16.138" fill="#fff"/>
                    <polyline points="43.526 16.672 43.526 16.672 43.554 16.441 43.554 16.227 43.515 16.031 43.453 15.845 43.363 15.671 43.25 15.513 43.115 15.373 42.975 15.249 42.811 15.142 42.643 15.041 42.463 14.962 42.288 14.894 42.102 14.844 41.928 14.804 41.754 14.776 41.596 14.765 41.596 14.833 41.754 14.844 41.917 14.872 42.091 14.911 42.266 14.962 42.44 15.029 42.609 15.108 42.778 15.198 42.93 15.305 43.07 15.429 43.194 15.558 43.306 15.704 43.385 15.868 43.447 16.042 43.486 16.227 43.486 16.441 43.458 16.661 43.526 16.672" fill="#fff"/>
                    <polyline points="42.935 19.642 42.935 19.642 43.526 16.672 43.458 16.661 42.868 19.631 42.935 19.642" fill="#fff"/>
                    <polyline points="41.54 18.168 41.529 18.135 41.506 18.106 41.467 18.09 41.411 18.073 41.349 18.067 41.276 18.061 41.191 18.061 41.107 18.067 41.017 18.078 40.927 18.09 40.837 18.101 40.752 18.112 40.668 18.129 40.595 18.14 40.522 18.157 40.465 18.168 40.426 18.174 40.381 18.191 40.325 18.208 40.263 18.23 40.19 18.264 40.122 18.298 40.044 18.337 39.897 18.439 39.824 18.5 39.762 18.562 39.7 18.635 39.65 18.714 39.61 18.798 39.577 18.889 39.56 18.984 39.554 19.176 39.582 19.327 39.627 19.44 39.695 19.524 39.779 19.581 39.875 19.614 39.97 19.631 40.066 19.637 40.235 19.631 40.392 19.614 40.539 19.586 40.668 19.547 40.792 19.502 40.899 19.451 41 19.395 41.09 19.327 41.169 19.265 41.236 19.192 41.298 19.125 41.349 19.052 41.388 18.984 41.416 18.917 41.439 18.849 41.455 18.787 41.478 18.63 41.506 18.467 41.529 18.309 41.54 18.168" fill="#f2ad3d"/>
                    <polyline points="43.323 20.886 44.91 20.886 45.478 17.685 45.5 17.561 45.568 17.313 45.613 17.19 45.669 17.066 45.737 16.948 45.81 16.835 45.9 16.728 46.001 16.633 46.114 16.543 46.243 16.458 46.389 16.391 46.552 16.334 46.733 16.289 46.929 16.256 47.149 16.244 47.289 16.244 47.543 14.799 47.385 14.81 47.233 14.827 47.092 14.855 46.957 14.894 46.834 14.939 46.716 14.995 46.603 15.057 46.496 15.125 46.395 15.204 46.299 15.283 46.119 15.463 46.035 15.558 45.951 15.665 45.866 15.766 45.787 15.879 45.956 14.861 44.375 14.861 43.323 20.886" fill="#fff"/>
                    <polyline points="43.323 20.886 44.91 20.886 45.478 17.685 45.5 17.561 45.568 17.313 45.613 17.19 45.669 17.066 45.737 16.948 45.81 16.835 45.9 16.728 46.001 16.633 46.114 16.543 46.243 16.458 46.389 16.391 46.552 16.334 46.733 16.289 46.929 16.256 47.149 16.244 47.289 16.244 47.543 14.799 47.385 14.81 47.233 14.827 47.092 14.855 46.957 14.894 46.834 14.939 46.716 14.995 46.603 15.057 46.496 15.125 46.395 15.204 46.299 15.283 46.119 15.463 46.035 15.558 45.951 15.665 45.866 15.766 45.787 15.879 45.956 14.861 44.375 14.861 43.323 20.886" stroke="#fff" stroke-width=".216"/>
                    <polyline points="28.427 20.886 30.041 20.886 30.581 17.685 30.604 17.561 30.632 17.443 30.66 17.325 30.699 17.212 30.744 17.1 30.801 16.993 30.868 16.891 30.947 16.796 31.037 16.711 31.138 16.627 31.262 16.56 31.397 16.498 31.554 16.447 31.729 16.402 31.92 16.374 32.14 16.357 32.156 16.357 32.179 16.363 32.207 16.368 32.235 16.368 32.263 16.374 32.286 16.379 32.302 16.385 32.308 16.385 32.314 16.363 32.331 16.295 32.353 16.194 32.381 16.07 32.421 15.924 32.46 15.766 32.511 15.609 32.561 15.451 32.606 15.344 32.719 15.131 32.775 15.035 32.826 14.951 32.865 14.883 32.893 14.844 32.904 14.827 32.899 14.827 32.876 14.821 32.848 14.816 32.809 14.81 32.77 14.81 32.725 14.804 32.685 14.799 32.646 14.799 32.471 14.81 32.314 14.827 32.168 14.855 32.033 14.889 31.903 14.934 31.785 14.99 31.678 15.046 31.577 15.114 31.481 15.187 31.391 15.271 31.307 15.356 31.222 15.451 31.138 15.547 31.059 15.654 30.891 15.879 31.093 14.861 29.479 14.861 28.427 20.886" fill="#fff"/>
                    <polyline points="28.427 20.886 30.041 20.886 30.581 17.685 30.604 17.561 30.632 17.443 30.66 17.325 30.699 17.212 30.744 17.1 30.801 16.993 30.868 16.891 30.947 16.796 31.037 16.711 31.138 16.627 31.262 16.56 31.397 16.498 31.554 16.447 31.729 16.402 31.92 16.374 32.14 16.357 32.156 16.357 32.179 16.363 32.207 16.368 32.235 16.368 32.263 16.374 32.286 16.379 32.302 16.385 32.308 16.385 32.314 16.363 32.331 16.295 32.353 16.194 32.381 16.07 32.421 15.924 32.46 15.766 32.511 15.609 32.561 15.451 32.606 15.344 32.719 15.131 32.775 15.035 32.826 14.951 32.865 14.883 32.893 14.844 32.904 14.827 32.899 14.827 32.876 14.821 32.848 14.816 32.809 14.81 32.77 14.81 32.725 14.804 32.685 14.799 32.646 14.799 32.471 14.81 32.314 14.827 32.168 14.855 32.033 14.889 31.903 14.934 31.785 14.99 31.678 15.046 31.577 15.114 31.481 15.187 31.391 15.271 31.307 15.356 31.222 15.451 31.138 15.547 31.059 15.654 30.891 15.879 31.093 14.861 29.479 14.861 28.427 20.886" stroke="#fff" stroke-width=".216"/>
                </g>
                <g transform="matrix(.90217 0 0 .90217 .011104 10.478)">
                    <polyline points="26.968 20.42 22.101 20.42 25.142 1.7275 30.01 1.7275 26.968 20.42" fill="#001aa9"/>
                    <path d="m18.007 1.7275-4.64 12.856-0.5485-2.7685 5e-4 1e-3 -1.638-8.405s-0.1975-1.6835-2.3085-1.6835h-7.6695l-0.0895 0.316s2.346 0.488 5.09 2.1375l4.228 16.238h5.0705l7.7425-18.692h-5.2375" fill="#001aa9"/>
                    <path d="m50.93 13.808 2.5575-6.9955 1.4385 6.9955h-3.996zm5.355 6.612h4.4685l-3.896-18.692h-3.9125c-1.807 0-2.2465 1.393-2.2465 1.393l-7.2575 17.299h5.072l1.015-2.776h6.1865l0.5705 2.776z" fill="#001aa9"/>
                    <path d="m43.821 6.2225 0.694-4.0145s-2.143-0.815-4.377-0.815c-2.415 0-8.1495 1.056-8.1495 6.188 0 4.8295 6.7305 4.8895 6.7305 7.425s-6.037 2.0825-8.029 0.483l-0.724 4.1965s2.1725 1.056 5.4935 1.056c3.3205 0 8.331-1.7205 8.331-6.3995 0-4.86-6.7915-5.3125-6.7915-7.4255s4.7395-1.8415 6.822-0.694" fill="#001aa9"/>
                    <path d="m13.114 12.558-1.8191-9.8559s-0.21934-1.9741-2.5638-1.9741h-8.5177l-0.099398 0.37055s4.0942 0.89647 8.0218 4.2525c3.7538 3.2083 4.9782 7.2069 4.9782 7.2069" fill="#ffa500"/>
                </g>
                <g transform="matrix(.093595 0 0 .087168 9.4269 35.409)">
                    <path class="st0" d="m218 0v0.1c-0.1 0-31.6-0.1-40 30-7.7 27.6-29.4 103.8-30 105.9h-6s-22.2-77.9-30-106c-8.4-30.1-40-30-40-30h-72v229h72v-136h3 3l42 136h50l42-135.9h6v135.9h72v-229h-72z" clip-rule="evenodd" fill="#4db45e" fill-rule="evenodd"/>
                    <path class="st0" d="m481 0s-21.1 1.9-31 24l-51 112h-6v-136h-72v229h68s22.1-2 32-24l50-112h6v136h72v-229h-68z" clip-rule="evenodd" fill="#4db45e" fill-rule="evenodd"/>
                    <path class="st0" d="m581 104v125h72v-73h78c34 0 62.8-21.7 73.5-52h-223.5z" clip-rule="evenodd" fill="#4db45e" fill-rule="evenodd"/>
                    <linearGradient id="a" x1="570.92" x2="809" y1="47" y2="47" gradientUnits="userSpaceOnUse">
                        <stop stop-color="#00B4E6" offset=".3"/>
                        <stop stop-color="#088CCB" offset="1"/>
                    </linearGradient>
                    <path class="st1" d="m731 0h-160.1c8 43.6 40.7 78.6 83 90 9.6 2.6 19.7 4 30.1 4h123.4c1.1-5.2 1.6-10.5 1.6-16 0-43.1-34.9-78-78-78z" clip-rule="evenodd" fill="url(#a)" fill-rule="evenodd"/>
                </g>
            </g>
        </g>
    </g>
    <style type="text/css">.st0{fill-rule:evenodd;clip-rule:evenodd;fill:#4DB45E;}
        .st1{fill-rule:evenodd;clip-rule:evenodd;fill:url(#a);}</style>
</svg>
