<?xml version="1.0" encoding="UTF-8" standalone="no"?>
<svg width="40px" height="51px" viewBox="0 0 40 51" version="1.1" xmlns="http://www.w3.org/2000/svg" xmlns:xlink="http://www.w3.org/1999/xlink">
    <!-- Generator: Sketch 43.2 (39069) - http://www.bohemiancoding.com/sketch -->
    <title>Group Copy 2</title>
    <desc>Created with Sketch.</desc>
    <defs></defs>
    <g id="Презентация" stroke="none" stroke-width="1" fill="none" fill-rule="evenodd">
        <g id="Artboard" transform="translate(-713.000000, -981.000000)">
            <g id="Group-Copy-2" transform="translate(713.000000, 981.000000)">
                <polygon id="Rectangle-10" fill="#666666" points="0 0 40 0 40 49 38.0732422 49 35.0563965 51 32.0200195 49 29.0500488 51 26.0737305 49 23.0305176 51 20.0192871 49 17.0864258 51 14.0563965 49 11.048584 51 8.07495117 49 5.08642578 51 1.95922852 49 0 49"></polygon>
                <polygon id="Rectangle-11" fill="#FFFFFF" points="2 2 38 2 38 47 34.9805908 49 32.0026855 47 29.0135498 49 26.0180664 47 23.0263672 49 19.9899902 47 17.0031738 49 14.0333252 47 11.0140381 49 8.03198242 47 5.00915527 49 2 47"></polygon>
                <rect id="Rectangle" fill="#333333" x="7" y="9" width="26" height="4"></rect>
                <rect id="Rectangle-7" fill="#333333" x="27" y="20" width="6" height="2"></rect>
                <rect id="Rectangle-2" fill="#333333" x="7" y="20" width="15" height="2"></rect>
                <rect id="Rectangle-8" fill="#333333" x="27" y="25" width="6" height="2"></rect>
                <rect id="Rectangle-8-Copy" fill="#333333" x="27" y="31" width="6" height="2"></rect>
                <rect id="Rectangle-8-Copy-2" fill="#333333" x="27" y="36" width="6" height="2"></rect>
                <rect id="Rectangle-3" fill="#333333" x="7" y="25" width="8" height="2"></rect>
                <rect id="Rectangle-3-Copy" fill="#333333" x="7" y="36" width="8" height="2"></rect>
                <rect id="Rectangle-9" fill="#333333" x="7" y="31" width="15" height="2"></rect>
            </g>
        </g>
    </g>
</svg>