<svg width="40" height="40" viewBox="0 0 40 40" fill="none" xmlns="http://www.w3.org/2000/svg">
<circle cx="20" cy="20" r="19.5" fill="white" stroke="#F1F1F1"/>
<path d="M29.1969 13.081C28.9658 12.7601 28.7347 12.4391 28.5036 12.1182L15.7011 19.4086L9.50778 15.878C9.36912 16.2907 9.27669 16.6575 9.23047 17.0701L15.7473 20.7841L29.1969 13.081Z" fill="#1A9F29"/>
<path d="M15.7017 22.1598L9.04622 18.3541C9 18.5833 9 18.8585 9 19.0877C9 25.0943 13.8992 30.0004 20 30.0004C26.0546 30.0004 31 25.1401 31 19.0877C31 17.2995 30.584 15.603 29.7983 14.1357L15.7017 22.1598Z" fill="#1A9F29"/>
<path d="M27.6268 11.2003C27.3033 10.8794 26.9797 10.6501 26.6562 10.375L15.7024 16.6567L10.4335 13.6763C10.2487 13.9973 10.0638 14.3641 9.87891 14.7309L15.6562 18.0322L27.6268 11.2003Z" fill="#1A9F29"/>
<path d="M25.5465 9.64192C25.1305 9.41266 24.7145 9.18341 24.2523 9L15.7019 13.9061L11.8658 11.7511C11.5885 12.0262 11.3574 12.3472 11.0801 12.6681L15.6557 15.2817L25.5465 9.64192Z" fill="#1A9F29"/>
</svg>
