<svg width="231" height="40" viewBox="0 0 261 40" fill="none" xmlns="http://www.w3.org/2000/svg">
<rect x="0.5" y="0.5" width="260" height="39" rx="7.5" fill="black"/>
<path d="M52.2958 27.9213C55.2861 27.9213 57.1658 26.044 57.6784 24.3373L55.2434 23.356C54.8803 24.636 53.8123 25.5107 52.3599 25.5107C50.5443 25.5107 49.1346 24.1453 49.1346 22.0547C49.1346 19.964 50.5443 18.5987 52.3385 18.5987C53.791 18.5987 54.8162 19.4733 55.1793 20.7747L57.6143 19.8147C57.1017 18.0653 55.2221 16.188 52.2958 16.188C48.8996 16.188 46.4219 18.748 46.4219 22.076C46.4219 25.404 48.9423 27.9213 52.2958 27.9213Z" fill="white"/>
<path d="M61.8477 17.6813V16.4227H59.2846V27.6653H61.9972V21.2653C61.9972 19.7507 63.2361 18.7053 65.2012 18.7053V16.1667C63.7915 16.1667 62.6167 16.7853 61.8477 17.6813Z" fill="white"/>
<path d="M74.5265 16.4227L71.3439 25.4893L68.439 16.4227H65.6409L69.6138 27.6653H70.4682L68.9303 31.484H71.6003L73.0527 27.6653L77.346 16.4227H74.5265Z" fill="white"/>
<path d="M84.9846 16.1667C83.3826 16.1667 82.0797 16.8067 81.2039 17.8947V16.4227H78.6835V31.484H81.3962V26.4707C82.2506 27.388 83.4467 27.9213 84.9205 27.9213C88.1458 27.9213 90.4954 25.404 90.4954 22.0547C90.4954 18.684 88.2099 16.1667 84.9846 16.1667ZM84.5574 25.532C82.6137 25.532 81.2894 24.1027 81.2894 22.0547C81.2894 20.0067 82.6137 18.5773 84.5574 18.5773C86.4157 18.5773 87.7827 20.0493 87.7827 22.0547C87.7827 24.0387 86.4157 25.532 84.5574 25.532Z" fill="white"/>
<path d="M97.1988 27.6653H98.9717V25.2973H97.7328C96.5153 25.2973 95.8532 24.5933 95.8532 23.292V18.748H98.8862V16.4227H95.9386V13.5H93.29V15.2707C93.29 16.0387 92.9269 16.4227 92.1793 16.4227H91.154V18.748H93.1191V23.5907C93.1191 26.0653 94.5075 27.6653 97.1988 27.6653Z" fill="white"/>
<path d="M105.719 27.9213C109.222 27.9213 111.721 25.404 111.721 22.0547C111.721 18.684 109.222 16.1667 105.719 16.1667C102.194 16.1667 99.7168 18.684 99.7168 22.0547C99.7168 25.404 102.194 27.9213 105.719 27.9213ZM105.74 25.5107C103.775 25.5107 102.429 24.06 102.429 22.0547C102.429 20.028 103.775 18.5987 105.74 18.5987C107.684 18.5987 108.987 20.028 108.987 22.0333C108.987 24.06 107.663 25.5107 105.74 25.5107Z" fill="white"/>
<path d="M126.993 16.1667C125.092 16.1667 123.81 16.956 123.191 18.0013C122.55 16.828 121.418 16.1667 119.623 16.1667C118.107 16.1667 116.932 16.8067 116.227 17.66V16.4227H113.664V27.644H116.377V20.8387C116.398 19.772 117.253 18.5987 118.79 18.5773C120.307 18.5773 121.14 19.708 121.14 21.18V27.644H123.853V20.8387C123.874 19.7933 124.707 18.5987 126.266 18.5773C127.783 18.5773 128.595 19.7293 128.595 21.18V27.644H131.307V20.6893C131.307 18.1507 129.791 16.1667 126.993 16.1667Z" fill="white"/>
<path d="M141.271 16.4227V23.228C141.271 24.4653 140.288 25.4893 138.772 25.5107C137.255 25.5107 136.294 24.508 136.294 23.0573V16.4227H133.582V23.3987C133.582 26.0013 135.119 27.9213 137.982 27.9213C139.434 27.9213 140.652 27.3027 141.442 26.428V27.6653H143.984V16.4227H141.271Z" fill="white"/>
<path d="M150.469 27.9213C153.289 27.9213 155.126 26.5987 155.126 24.3587C155.126 20.2413 148.953 21.4147 148.953 19.3667C148.953 18.684 149.487 18.2573 150.491 18.2573C151.43 18.2573 152.093 18.6627 152.392 19.516L154.762 18.5987C154.293 17.0627 152.712 16.1667 150.533 16.1667C147.885 16.1667 146.176 17.4467 146.176 19.4947C146.176 23.356 152.349 22.332 152.349 24.5507C152.349 25.34 151.665 25.788 150.576 25.788C149.209 25.788 148.333 25.1693 148.013 24.124L145.642 25.0413C146.261 26.94 148.034 27.9213 150.469 27.9213Z" fill="white"/>
<path d="M35.4107 12.0917L24.214 5.5119C23.7096 5.21478 23.0805 5.21478 22.5732 5.5119L11.3765 12.0917C10.8692 12.3888 10.5547 12.9427 10.5547 13.5398V26.6994C10.5547 27.2936 10.8692 27.8475 11.3765 28.1475L22.5732 34.7274C22.8226 34.8745 23.106 34.9495 23.395 34.9495C23.6841 34.9495 23.9675 34.8716 24.2169 34.7274L35.4136 28.1475C35.9208 27.8503 36.2354 27.2965 36.2354 26.6994V13.5398C36.2354 12.9455 35.9208 12.3917 35.4136 12.0917H35.4107ZM23.6473 19.3032C23.4914 19.3955 23.2959 19.3955 23.14 19.3032L12.255 12.908L23.14 6.51286C23.293 6.42344 23.4942 6.42344 23.6473 6.51286L34.5322 12.908L23.6473 19.3032ZM22.5732 20.3013C22.6526 20.3475 22.7376 20.3878 22.8283 20.4196V33.5388L11.9433 27.1465C11.7874 27.0542 11.6882 26.884 11.6882 26.6994V13.9061L22.5732 20.3013Z" fill="white"/>
<g clip-path="url(#clip0_19096_87627)">
<path fill-rule="evenodd" clip-rule="evenodd" d="M218 10C223.523 10 228 14.4768 228 20C228 25.5232 223.523 30 218 30C212.477 30 208 25.5232 208 20C208 14.4768 212.477 10 218 10Z" fill="#50AF95"/>
<path fill-rule="evenodd" clip-rule="evenodd" d="M219.424 21.4506C219.345 21.4562 218.934 21.479 218.017 21.479C217.288 21.479 216.77 21.4586 216.588 21.4506C213.77 21.3353 211.667 20.8788 211.667 20.3322C211.667 19.7857 213.77 19.3298 216.588 19.2126V20.996C216.773 21.0083 217.3 21.0373 218.029 21.0373C218.905 21.0373 219.343 21.0034 219.422 20.9966V19.2138C222.234 19.3304 224.332 19.7869 224.332 20.3322C224.332 20.8776 222.234 21.334 219.422 21.45L219.424 21.4506ZM219.424 19.0294V17.4336H223.349V15H212.664V17.4336H216.588V19.0288C213.398 19.1651 211 19.753 211 20.4575C211 21.1619 213.398 21.7492 216.588 21.8861V27H219.424V21.8843C222.606 21.748 225 21.1607 225 20.4568C225 19.753 222.608 19.1657 219.424 19.0288L219.424 19.0294Z" fill="white"/>
</g>
<rect x="185" y="10" width="20" height="20" rx="10" fill="#627EEA"/>
<path d="M195.227 13V18.1755L199.601 20.1301L195.227 13Z" fill="white" fill-opacity="0.602"/>
<path d="M195.226 13L190.852 20.1301L195.226 18.1755V13Z" fill="white"/>
<path d="M195.227 23.4846V27.0012L199.604 20.9453L195.227 23.4846Z" fill="white" fill-opacity="0.602"/>
<path d="M195.226 27.0012V23.484L190.852 20.9453L195.226 27.0012Z" fill="white"/>
<path d="M195.227 22.6652L199.601 20.1254L195.227 18.1719V22.6652Z" fill="white" fill-opacity="0.2"/>
<path d="M190.852 20.1254L195.226 22.6652V18.1719L190.852 20.1254Z" fill="white" fill-opacity="0.602"/>
<rect x="162" y="10" width="20" height="20" rx="10" fill="#F7931A"/>
<path d="M176.635 18.7402C176.835 17.4054 175.818 16.6877 174.429 16.2088L174.88 14.4002L173.779 14.1264L173.34 15.8872C173.051 15.8146 172.754 15.7471 172.458 15.6796L172.9 13.9073L171.8 13.6328L171.349 15.4408C171.11 15.386 170.874 15.3325 170.646 15.2752L170.647 15.2695L169.129 14.8905L168.836 16.0661C168.836 16.0661 169.653 16.2534 169.636 16.2648C170.082 16.3763 170.162 16.6711 170.149 16.9055L169.635 18.9656C169.666 18.9733 169.705 18.9847 169.75 19.0019L169.633 18.9733L168.914 21.8594C168.859 21.9944 168.721 22.1975 168.409 22.1205C168.42 22.1364 167.609 21.9211 167.609 21.9211L167.062 23.1808L168.495 23.538C168.762 23.6049 169.023 23.675 169.279 23.7406L168.824 25.5695L169.924 25.8434L170.375 24.0348C170.675 24.1156 170.967 24.1908 171.252 24.2621L170.803 26.0631L171.903 26.3369L172.358 24.5118C174.236 24.8671 175.647 24.7238 176.241 23.026C176.72 21.6594 176.218 20.8704 175.23 20.3564C175.949 20.1909 176.491 19.7177 176.635 18.7402ZM174.12 22.2669C173.78 23.6342 171.478 22.8948 170.732 22.7095L171.337 20.2864C172.083 20.473 174.476 20.8417 174.12 22.2669ZM174.461 18.7204C174.15 19.9642 172.235 19.3318 171.614 19.177L172.162 16.98C172.782 17.1347 174.784 17.4232 174.461 18.7204Z" fill="white"/>
<g clip-path="url(#clip1_19096_87627)">
<path fill-rule="evenodd" clip-rule="evenodd" d="M241 10C246.523 10 251 14.4768 251 20C251 25.5232 246.523 30 241 30C235.477 30 231 25.5232 231 20C231 14.4768 235.477 10 241 10Z" fill="#2775CA"/>
<path d="M243.542 21.2917C243.542 19.8907 242.707 19.4103 241.036 19.2102C239.842 19.05 239.603 18.7298 239.603 18.1693C239.603 17.6088 240.001 17.2486 240.797 17.2486C241.513 17.2486 241.911 17.4888 242.11 18.0893C242.15 18.2094 242.269 18.2894 242.389 18.2894H243.025C243.184 18.2894 243.304 18.1693 243.304 18.0092V17.9692C243.145 17.0885 242.428 16.408 241.513 16.3279V15.3672C241.513 15.207 241.394 15.0869 241.195 15.0469H240.598C240.439 15.0469 240.32 15.167 240.28 15.3672V16.2879C239.086 16.448 238.33 17.2486 238.33 18.2494C238.33 19.5705 239.126 20.0908 240.797 20.291C241.911 20.4911 242.269 20.7313 242.269 21.3718C242.269 22.0124 241.712 22.4527 240.956 22.4527C239.922 22.4527 239.564 22.0123 239.444 21.4118C239.405 21.2518 239.285 21.1716 239.166 21.1716H238.489C238.33 21.1716 238.211 21.2917 238.211 21.4519V21.4919C238.37 22.4927 239.007 23.2132 240.32 23.4134V24.3742C240.32 24.5342 240.439 24.6543 240.638 24.6944H241.235C241.394 24.6944 241.513 24.5743 241.553 24.3742V23.4134C242.747 23.2132 243.542 22.3726 243.542 21.2917Z" fill="white"/>
<path d="M238.991 25.6474C235.919 24.5174 234.343 21.0063 235.485 17.8988C236.076 16.2038 237.376 14.9124 238.991 14.307C239.148 14.2263 239.227 14.1053 239.227 13.9034V13.3384C239.227 13.177 239.148 13.0559 238.991 13.0156C238.951 13.0156 238.872 13.0156 238.833 13.0559C235.091 14.2666 233.043 18.3428 234.225 22.1767C234.934 24.4366 236.627 26.172 238.833 26.8985C238.991 26.9791 239.148 26.8985 239.188 26.737C239.227 26.6967 239.227 26.6563 239.227 26.5756V26.0106C239.227 25.8895 239.109 25.7281 238.991 25.6474ZM243.166 13.0559C243.008 12.9752 242.85 13.0559 242.811 13.2174C242.772 13.2578 242.772 13.2981 242.772 13.3788V13.9438C242.772 14.1053 242.89 14.2666 243.008 14.3474C246.08 15.4773 247.656 18.9884 246.513 22.096C245.923 23.791 244.623 25.0824 243.008 25.6877C242.85 25.7684 242.772 25.8895 242.772 26.0913V26.6563C242.772 26.8178 242.85 26.9388 243.008 26.9791C243.047 26.9791 243.126 26.9791 243.166 26.9388C246.907 25.7281 248.955 21.652 247.774 17.8181C247.065 15.5177 245.332 13.7823 243.166 13.0559Z" fill="white"/>
</g>
<rect x="0.5" y="0.5" width="260" height="39" rx="7.5" stroke="black"/>
<defs>
<clipPath id="clip0_19096_87627">
<rect x="208" y="10" width="20" height="20" fill="white"/>
</clipPath>
<clipPath id="clip1_19096_87627">
<rect x="231" y="10" width="20" height="20" fill="white"/>
</clipPath>
</defs>
</svg>
