<svg width="40" height="40" viewBox="0 0 40 40" fill="none" xmlns="http://www.w3.org/2000/svg">
<circle cx="20" cy="20" r="19.5" fill="white" stroke="#F1F1F1"/>
<path d="M15.6812 31.2201L16.0902 28.6882L15.1792 28.6676H10.8291L13.8522 9.98453C13.8616 9.92813 13.8921 9.87554 13.9367 9.8382C13.9812 9.80085 14.0383 9.78027 14.0977 9.78027H21.4326C23.8677 9.78027 25.5482 10.2742 26.4255 11.249C26.8369 11.7063 27.0988 12.1842 27.2255 12.7101C27.3584 13.2619 27.3608 13.9211 27.231 14.7252L27.2216 14.7839V15.2991L27.6329 15.5263C27.9793 15.7054 28.2546 15.9104 28.4657 16.1452C28.8176 16.5361 29.0451 17.0331 29.1413 17.6222C29.2406 18.2282 29.2078 18.9492 29.0451 19.7655C28.8575 20.7045 28.5541 21.5223 28.1443 22.1914C27.7674 22.808 27.2873 23.3195 26.7172 23.7158C26.173 24.0923 25.5263 24.3781 24.7951 24.561C24.0867 24.7409 23.2789 24.8316 22.3929 24.8316H21.8221C21.4139 24.8316 21.0174 24.9749 20.7062 25.2317C20.3942 25.4939 20.1877 25.8521 20.1244 26.2439L20.0814 26.4718L19.3589 30.9343L19.326 31.0982C19.3174 31.15 19.3026 31.1759 19.2807 31.1934C19.2611 31.2094 19.233 31.2201 19.2056 31.2201H15.6812Z" fill="#253B80"/>
<path d="M28.0222 14.8438C28.0003 14.9802 27.9753 15.1197 27.9471 15.2629C26.9798 20.1035 23.6705 21.7757 19.4439 21.7757H17.2919C16.7751 21.7757 16.3395 22.1415 16.259 22.6385L15.1572 29.4492L14.8452 31.3798C14.7928 31.706 15.0508 32.0002 15.3886 32.0002H19.2054C19.6574 32.0002 20.0414 31.6801 20.1125 31.2456L20.1501 31.0566L20.8687 26.6117L20.9148 26.3678C20.9852 25.9318 21.3699 25.6117 21.8219 25.6117H22.3928C26.0907 25.6117 28.9856 24.1483 29.8317 19.9137C30.1851 18.1447 30.0021 16.6676 29.0669 15.6288C28.7838 15.3155 28.4327 15.0556 28.0222 14.8438Z" fill="#179BD7"/>
<path d="M27.0116 14.4507C26.8638 14.4088 26.7113 14.3707 26.5549 14.3364C26.3977 14.3028 26.2367 14.2731 26.0709 14.2472C25.4907 14.1557 24.8549 14.1123 24.1738 14.1123H18.4248C18.2832 14.1123 18.1487 14.1436 18.0283 14.2C17.7632 14.3242 17.5661 14.5688 17.5184 14.8684L16.2954 22.4184L16.2603 22.6387C16.3408 22.1418 16.7764 21.7759 17.2932 21.7759H19.4452C23.6718 21.7759 26.9811 20.103 27.9484 15.2632C27.9773 15.1199 28.0016 14.9804 28.0235 14.844C27.7787 14.7175 27.5136 14.6092 27.2282 14.517C27.1578 14.4942 27.0851 14.472 27.0116 14.4507Z" fill="#222D65"/>
<path d="M17.5179 14.8679C17.5656 14.5684 17.7626 14.3238 18.0277 14.2003C18.1489 14.1439 18.2826 14.1126 18.4242 14.1126H24.1732C24.8543 14.1126 25.4901 14.1561 26.0703 14.2475C26.2361 14.2735 26.3972 14.3032 26.5543 14.3367C26.7107 14.371 26.8632 14.4091 27.011 14.451C27.0845 14.4724 27.1572 14.4945 27.2284 14.5166C27.5138 14.6088 27.7789 14.7178 28.0237 14.8436C28.3114 13.0547 28.0213 11.8368 27.029 10.7339C25.935 9.5198 23.9605 9 21.434 9H14.0991C13.583 9 13.1427 9.36584 13.063 9.86354L10.0078 28.7387C9.9476 29.1121 10.2432 29.449 10.6295 29.449H15.1579L16.2949 22.418L17.5179 14.8679Z" fill="#253B80"/>
</svg>
