<svg width="40" height="41" viewBox="0 0 40 41" fill="none" xmlns="http://www.w3.org/2000/svg">
<path d="M16.9624 29.0518L17.2963 27.0442L16.5524 27.0278H13L15.4687 12.2137C15.4764 12.169 15.5013 12.1273 15.5377 12.0977C15.5741 12.0681 15.6207 12.0518 15.6693 12.0518H21.6591C23.6476 12.0518 25.0199 12.4434 25.7364 13.2163C26.0723 13.5789 26.2862 13.9578 26.3897 14.3748C26.4982 14.8124 26.5001 15.3351 26.3941 15.9727L26.3865 16.0192V16.4278L26.7224 16.6079C27.0053 16.7499 27.23 16.9124 27.4025 17.0986C27.6898 17.4086 27.8756 17.8026 27.9542 18.2698C28.0353 18.7502 28.0085 19.3219 27.8756 19.9692C27.7224 20.7137 27.4746 21.3622 27.14 21.8928C26.8322 22.3817 26.4401 22.7872 25.9746 23.1015C25.5302 23.4 25.002 23.6266 24.405 23.7717C23.8264 23.9143 23.1668 23.9862 22.4433 23.9862H21.9771C21.6438 23.9862 21.32 24.0998 21.0659 24.3035C20.8111 24.5114 20.6425 24.7954 20.5908 25.106L20.5556 25.2867L19.9656 28.8251L19.9388 28.9551C19.9317 28.9962 19.9196 29.0167 19.9017 29.0306C19.8858 29.0433 19.8628 29.0518 19.8404 29.0518H16.9624Z" fill="#253B80"/>
<path d="M27.3047 16.0518C27.2859 16.1631 27.2645 16.2769 27.2403 16.3938C26.4109 20.3438 23.5733 21.7084 19.9491 21.7084H18.1039C17.6606 21.7084 17.2872 22.0069 17.2181 22.4124L16.2733 27.9701L16.0058 29.5455C15.9609 29.8117 16.1822 30.0518 16.4718 30.0518H19.7446C20.1322 30.0518 20.4614 29.7905 20.5224 29.436L20.5546 29.2818L21.1708 25.6546L21.2104 25.4556C21.2707 25.0998 21.6006 24.8386 21.9882 24.8386H22.4776C25.6485 24.8386 28.1308 23.6445 28.8563 20.1889C29.1593 18.7454 29.0024 17.5401 28.2005 16.6924C27.9578 16.4367 27.6567 16.2247 27.3047 16.0518Z" fill="#179BD7"/>
<path d="M26.1398 15.3296C26.0142 15.2952 25.8845 15.2639 25.7516 15.2357C25.618 15.2082 25.481 15.1838 25.3401 15.1625C24.8468 15.0874 24.3064 15.0518 23.7274 15.0518H18.8401C18.7197 15.0518 18.6054 15.0774 18.503 15.1237C18.2777 15.2257 18.1102 15.4266 18.0696 15.6725L17.0299 21.8709L17 22.0518C17.0685 21.6438 17.4387 21.3434 17.8781 21.3434H19.7076C23.3006 21.3434 26.1139 19.97 26.9362 15.9966C26.9608 15.879 26.9814 15.7645 27 15.6525C26.7919 15.5486 26.5666 15.4597 26.3239 15.384C26.2641 15.3652 26.2023 15.3471 26.1398 15.3296Z" fill="#222D65"/>
<path d="M18.2202 15.93C18.2597 15.681 18.4227 15.4776 18.6421 15.3749C18.7423 15.3281 18.853 15.3021 18.9701 15.3021H23.7268C24.2903 15.3021 24.8163 15.3382 25.2964 15.4142C25.4336 15.4358 25.5669 15.4605 25.6969 15.4884C25.8263 15.5169 25.9525 15.5486 26.0747 15.5834C26.1356 15.6011 26.1957 15.6195 26.2546 15.6379C26.4908 15.7146 26.7101 15.8052 26.9126 15.9097C27.1507 14.4226 26.9107 13.4101 26.0896 12.4932C25.1845 11.4839 23.5508 11.0518 21.4604 11.0518H15.3915C14.9645 11.0518 14.6003 11.3559 14.5343 11.7696L12.0065 27.4612C11.9566 27.7717 12.2012 28.0518 12.5208 28.0518H16.2676L17.2083 22.2066L18.2202 15.93Z" fill="#253B80"/>
</svg>
