<svg width="184" height="60" viewBox="0 0 184 60" fill="none" xmlns="http://www.w3.org/2000/svg">
    <g clip-path="url(#clip0)">
        <path fill-rule="evenodd" clip-rule="evenodd" d="M14.6937 2.97376e-07V0.00681253C14.687 0.00681253 12.5638 3.09945e-07 11.9976 2.05048C11.4786 3.93066 10.016 9.1216 9.97556 9.26465H9.57115C9.57115 9.26465 8.07481 3.95791 7.54907 2.04367C6.98289 -0.00681197 4.85298 2.97376e-07 4.85298 2.97376e-07H0V15.6H4.85298V6.33538H5.25739L8.08829 15.6H11.4584L14.2893 6.34219H14.6937V15.6H19.5466V2.97376e-07H14.6937ZM32.4204 0C32.4204 0 30.9983 0.129432 30.3309 1.63493L26.8935 9.26465H26.489V0H21.6361V15.6H26.2194C26.2194 15.6 27.709 15.4638 28.3763 13.9651L31.7464 6.33538H32.1508V15.6H37.0038V0H32.4204V0ZM39.1607 7.0847V15.6H44.0137V10.6271H49.271C51.5628 10.6271 53.504 9.14882 54.225 7.0847H39.1607V7.0847Z" transform="translate(129.472 22.9204)" fill="#4DB45E"/>
        <path fill-rule="evenodd" clip-rule="evenodd" d="M10.7911 0H0C0.53922 2.97013 2.74328 5.35442 5.5944 6.13102C6.24146 6.30813 6.92223 6.4035 7.62322 6.4035H15.9407C16.0148 6.04927 16.0485 5.68823 16.0485 5.31355C16.0485 2.37748 13.6962 0 10.7911 0Z" transform="translate(167.952 22.9202)" fill="#03A7DE"/>
        <path d="M13.7777 0.273019L9.85534 10.5479L8.27321 1.80913C8.07544 0.819191 7.3503 0.273019 6.52628 0.273019H0.0988827L0 0.716783C1.31844 1.024 2.80168 1.5019 3.72459 2.01394C4.28493 2.32116 4.44973 2.59425 4.61454 3.34523L7.61399 15.3951H11.6352L17.766 0.273019H13.7777Z" transform="translate(66.2935 22.9204)" fill="#1A1F71"/>
        <path d="M19.3812 0.273019L16.2499 15.3951H20.0404L23.1387 0.273019H19.3812Z" transform="translate(66.2935 22.9204)" fill="#1A1F71"/>
        <path d="M28.1158 4.47178C28.1158 3.92561 28.6431 3.3453 29.7308 3.20876C30.2582 3.14049 31.7744 3.07222 33.4554 3.89147L34.1147 0.682715C33.1917 0.341357 32.0381 0 30.5878 0C26.8632 0 24.2264 2.04814 24.1934 5.01795C24.1604 7.20264 26.0722 8.39739 27.4895 9.11424C28.9727 9.86523 29.4672 10.309 29.4342 10.9917C29.4342 12.0158 28.2476 12.4595 27.1929 12.4595C25.2811 12.4937 24.1934 11.9134 23.3035 11.5037L22.6113 14.8149C23.5012 15.2245 25.1163 15.6 26.7973 15.6C30.7526 15.6 33.3566 13.586 33.3566 10.4114C33.4225 6.48579 28.0828 6.24684 28.1158 4.47178Z" transform="translate(66.2935 22.9204)" fill="#1A1F71"/>
        <path d="M39.0259 10.0359L41.0365 4.36936L42.1572 10.0359H39.0259ZM40.4762 0.273069C39.751 0.273069 39.1248 0.716834 38.8611 1.36541L33.1918 15.3611H37.1471L37.9382 13.1081H42.7834L43.2449 15.3611H46.7388L43.7063 0.238932H40.4762V0.273069Z" transform="translate(66.2935 22.9204)" fill="#1A1F71"/>
        <path d="M6.48779 5.76761V3.1851C6.50276 2.96791 6.47153 2.75 6.3962 2.5459C6.32086 2.3418 6.20315 2.15618 6.05089 2.00142C5.89864 1.84666 5.71534 1.72631 5.51322 1.64839C5.31109 1.57047 5.09478 1.53676 4.87868 1.54951C4.59583 1.53086 4.31318 1.58892 4.06025 1.71763C3.80731 1.84634 3.59337 2.04097 3.44075 2.28122C3.30164 2.04818 3.10259 1.8572 2.86458 1.72842C2.62657 1.59965 2.35843 1.53783 2.08842 1.54951C1.85305 1.53754 1.61866 1.58764 1.40848 1.69485C1.19829 1.80206 1.01961 1.96265 0.890146 2.1607V1.65281H2.28552e-07V5.76761H0.898705V3.50361C0.879589 3.3629 0.891616 3.21968 0.933927 3.08418C0.976239 2.94869 1.04779 2.82427 1.14346 2.71982C1.23914 2.61537 1.35657 2.53347 1.48738 2.47997C1.61818 2.42647 1.75912 2.4027 1.90012 2.41034C2.4907 2.41034 2.79026 2.79772 2.79026 3.495V5.78483H3.68897V3.50361C3.67063 3.36304 3.68321 3.22013 3.72581 3.08498C3.76841 2.94984 3.83999 2.82574 3.93551 2.72147C4.03102 2.6172 4.14813 2.53529 4.27856 2.48153C4.409 2.42777 4.54958 2.40347 4.69038 2.41034C5.29808 2.41034 5.58909 2.79772 5.58909 3.495V5.78483L6.48779 5.76761ZM19.7843 1.65281H18.3207V0.404595H17.422V1.65281H16.6089V2.4706H17.4391V4.36445C17.4391 5.31998 17.8072 5.88813 18.86 5.88813C19.2533 5.88946 19.639 5.77905 19.9726 5.56962L19.7159 4.80347C19.4772 4.94668 19.2062 5.02665 18.9284 5.0359C18.5005 5.0359 18.3379 4.76043 18.3379 4.34723V2.4706H19.7929L19.7843 1.65281ZM27.3763 1.54951C27.1592 1.54309 26.9445 1.59568 26.7547 1.70173C26.5649 1.80778 26.407 1.96337 26.2978 2.15209V1.65281H25.4162V5.76761H26.3064V3.46057C26.3064 2.78051 26.5974 2.40174 27.1623 2.40174C27.3527 2.39912 27.5417 2.43422 27.7186 2.50504L27.9925 1.6442C27.7892 1.57106 27.575 1.53321 27.3591 1.53229L27.3763 1.54951ZM15.8985 1.97993C15.3946 1.67862 14.8153 1.52923 14.2295 1.54951C13.1938 1.54951 12.5177 2.04879 12.5177 2.86659C12.5177 3.53804 13.0141 3.95124 13.9299 4.08037L14.3579 4.14063C14.8457 4.2095 15.0768 4.33862 15.0768 4.57105C15.0768 4.88956 14.7516 5.07033 14.1439 5.07033C13.6551 5.08456 13.1757 4.93296 12.783 4.63991L12.355 5.33719C12.8736 5.70132 13.4946 5.88841 14.1268 5.87091C15.3079 5.87091 15.9927 5.31137 15.9927 4.52801C15.9927 3.74464 15.4534 3.42613 14.5633 3.29701L14.1353 3.23675C13.7502 3.1851 13.4421 3.10762 13.4421 2.83216C13.4421 2.55669 13.7331 2.35009 14.2209 2.35009C14.6719 2.35535 15.1139 2.47688 15.5048 2.70303L15.8985 1.97993ZM39.7399 1.54951C39.5228 1.54309 39.3081 1.59568 39.1183 1.70173C38.9285 1.80778 38.7707 1.96337 38.6614 2.15209V1.65281H37.7798V5.76761H38.67V3.46057C38.67 2.78051 38.961 2.40174 39.5259 2.40174C39.7163 2.39912 39.9053 2.43422 40.0822 2.50504L40.3561 1.6442C40.1528 1.57106 39.9386 1.53321 39.7227 1.53229L39.7399 1.54951ZM28.2707 3.7016C28.2601 3.99076 28.3096 4.27897 28.4162 4.54776C28.5227 4.81656 28.6838 5.06003 28.8892 5.26261C29.0947 5.46518 29.3399 5.62239 29.6092 5.72417C29.8785 5.82595 30.166 5.87007 30.4532 5.8537C30.9877 5.88104 31.513 5.70598 31.9254 5.36302L31.4975 4.63991C31.1897 4.87592 30.8145 5.00574 30.4276 5.01008C30.0985 4.9833 29.7916 4.83293 29.5678 4.58888C29.344 4.34484 29.2197 4.025 29.2197 3.69299C29.2197 3.36099 29.344 3.04115 29.5678 2.7971C29.7916 2.55306 30.0985 2.40269 30.4276 2.37591C30.8145 2.38025 31.1897 2.51007 31.4975 2.74607L31.9254 2.02297C31.513 1.68001 30.9877 1.50494 30.4532 1.53229C30.166 1.51592 29.8785 1.56004 29.6092 1.66182C29.3399 1.7636 29.0947 1.92081 28.8892 2.12338C28.6838 2.32595 28.5227 2.56943 28.4162 2.83823C28.3096 3.10702 28.2601 3.39522 28.2707 3.68438V3.7016ZM36.6072 3.7016V1.65281H35.7171V2.15209C35.5659 1.95647 35.3707 1.7998 35.1474 1.69503C34.9242 1.59025 34.6794 1.54037 34.4332 1.54951C33.8657 1.54951 33.3215 1.77625 32.9202 2.17984C32.5189 2.58344 32.2935 3.13083 32.2935 3.7016C32.2935 4.27237 32.5189 4.81977 32.9202 5.22336C33.3215 5.62696 33.8657 5.8537 34.4332 5.8537C34.6794 5.86283 34.9242 5.81295 35.1474 5.70818C35.3707 5.6034 35.5659 5.44674 35.7171 5.25111V5.7504H36.6072V3.7016ZM33.2949 3.7016C33.3091 3.45939 33.3934 3.22665 33.5374 3.03202C33.6815 2.8374 33.879 2.68939 34.1056 2.60623C34.3322 2.52307 34.5781 2.50838 34.8129 2.56398C35.0477 2.61957 35.2613 2.74303 35.4272 2.91913C35.5931 3.09524 35.7043 3.31631 35.7469 3.55513C35.7895 3.79395 35.7617 4.04008 35.667 4.26322C35.5722 4.48637 35.4147 4.67678 35.2137 4.81101C35.0128 4.94524 34.7772 5.01742 34.5359 5.01868C34.3665 5.02084 34.1984 4.98771 34.0423 4.92137C33.8862 4.85503 33.7455 4.75692 33.6289 4.63322C33.5123 4.50951 33.4225 4.36288 33.365 4.20255C33.3075 4.04222 33.2836 3.87166 33.2949 3.7016V3.7016ZM22.5532 1.54951C21.9857 1.5575 21.4446 1.7919 21.0489 2.20114C20.6533 2.61039 20.4354 3.16096 20.4434 3.73173C20.4513 4.3025 20.6844 4.84672 21.0913 5.24467C21.4982 5.64261 22.0456 5.86169 22.6131 5.8537C23.2288 5.88548 23.8343 5.68607 24.3121 5.29415L23.8841 4.63131C23.5462 4.90388 23.1276 5.05534 22.6944 5.06173C22.4002 5.08718 22.1077 4.99618 21.8791 4.80809C21.6505 4.62 21.5039 4.34966 21.4705 4.05454H24.509C24.509 3.94264 24.509 3.83073 24.509 3.71021C24.509 2.41896 23.713 1.55812 22.566 1.55812L22.5532 1.54951ZM22.5532 2.35009C22.6864 2.34723 22.8189 2.3708 22.943 2.41944C23.0671 2.46808 23.1805 2.54085 23.2767 2.63358C23.3729 2.72631 23.45 2.83719 23.5035 2.95989C23.5571 3.08258 23.5861 3.21469 23.5889 3.34866H21.4491C21.4646 3.07236 21.587 2.81314 21.7902 2.6265C21.9934 2.43987 22.2611 2.34065 22.5361 2.35009H22.5532ZM44.8539 3.71021V2.62707e-07H43.998V2.15209C43.8468 1.95647 43.6516 1.7998 43.4284 1.69503C43.2051 1.59025 42.9603 1.54037 42.7141 1.54951C42.1466 1.54951 41.6024 1.77625 41.2011 2.17984C40.7998 2.58344 40.5744 3.13083 40.5744 3.7016C40.5744 4.27237 40.7998 4.81977 41.2011 5.22336C41.6024 5.62696 42.1466 5.8537 42.7141 5.8537C42.9603 5.86283 43.2051 5.81295 43.4284 5.70818C43.6516 5.6034 43.8468 5.44674 43.998 5.25111V5.7504H44.8539V3.71021ZM46.3389 5.16933C46.3946 5.16865 46.4498 5.17888 46.5015 5.19946C46.5507 5.21963 46.5957 5.24882 46.6342 5.28554C46.6718 5.32265 46.7023 5.36643 46.7241 5.41467C46.7457 5.46493 46.7569 5.51914 46.7569 5.57392C46.7569 5.62871 46.7457 5.68291 46.7241 5.73318C46.7023 5.78142 46.6718 5.82519 46.6342 5.86231C46.5957 5.89903 46.5507 5.92822 46.5015 5.94839C46.4503 5.97113 46.3949 5.98285 46.3389 5.98282C46.2578 5.98221 46.1785 5.95841 46.1103 5.91421C46.0421 5.87001 45.9878 5.80723 45.9538 5.73318C45.9323 5.68285 45.9213 5.62867 45.9213 5.57392C45.9213 5.51917 45.9323 5.465 45.9538 5.41467C45.9756 5.36643 46.006 5.32265 46.0436 5.28554C46.0822 5.24882 46.1271 5.21963 46.1763 5.19946C46.232 5.17716 46.2918 5.16689 46.3518 5.16933H46.3389ZM46.3389 5.89674C46.3816 5.897 46.4239 5.8882 46.463 5.87091C46.4998 5.85438 46.5332 5.83101 46.5615 5.80204C46.615 5.7433 46.6447 5.66652 46.6447 5.58683C46.6447 5.50715 46.615 5.43037 46.5615 5.37163C46.5333 5.34258 46.4999 5.3192 46.463 5.30276C46.4239 5.2856 46.3816 5.2768 46.3389 5.27694C46.2963 5.27716 46.2541 5.28594 46.2148 5.30276C46.1764 5.31862 46.1414 5.34203 46.1121 5.37163C46.0586 5.43037 46.0289 5.50715 46.0289 5.58683C46.0289 5.66652 46.0586 5.7433 46.1121 5.80204C46.1415 5.83155 46.1764 5.85496 46.2148 5.87091C46.258 5.88964 46.3048 5.89846 46.3518 5.89674H46.3389ZM46.3646 5.38454C46.4045 5.38259 46.4439 5.39477 46.4759 5.41897C46.489 5.42988 46.4993 5.44377 46.506 5.45948C46.5127 5.4752 46.5156 5.4923 46.5144 5.50936C46.515 5.52366 46.5126 5.53793 46.5075 5.55126C46.5023 5.5646 46.4945 5.57671 46.4844 5.58683C46.4596 5.60949 46.428 5.62314 46.3946 5.62557L46.5187 5.76761H46.4202L46.3047 5.62557H46.2662V5.76761H46.1849V5.38884L46.3646 5.38454ZM46.2704 5.45771V5.56101H46.3646C46.3813 5.56603 46.3992 5.56603 46.4159 5.56101C46.419 5.555 46.4205 5.54837 46.4205 5.54164C46.4205 5.53492 46.419 5.52828 46.4159 5.52227C46.419 5.51627 46.4205 5.50963 46.4205 5.5029C46.4205 5.49618 46.419 5.48954 46.4159 5.48354C46.3992 5.47851 46.3813 5.47851 46.3646 5.48354L46.2704 5.45771ZM41.5629 3.71021C41.5771 3.468 41.6615 3.23525 41.8055 3.04063C41.9496 2.846 42.1471 2.698 42.3737 2.61484C42.6003 2.53167 42.8462 2.51699 43.081 2.57259C43.3158 2.62818 43.5293 2.75164 43.6953 2.92774C43.8612 3.10385 43.9723 3.32492 44.0149 3.56374C44.0575 3.80256 44.0298 4.04869 43.935 4.27183C43.8403 4.49498 43.6828 4.68538 43.4818 4.81961C43.2809 4.95384 43.0453 5.02603 42.804 5.02729C42.6346 5.02945 42.4665 4.99631 42.3104 4.92998C42.1543 4.86364 42.0136 4.76553 41.897 4.64182C41.7804 4.51812 41.6906 4.37149 41.6331 4.21116C41.5756 4.05083 41.5517 3.88027 41.5629 3.71021V3.71021ZM11.5077 3.71021V1.65281H10.6176V2.15209C10.4664 1.95647 10.2711 1.7998 10.0479 1.69503C9.82467 1.59025 9.57986 1.54037 9.33369 1.54951C8.76619 1.54951 8.22193 1.77625 7.82064 2.17984C7.41936 2.58344 7.19392 3.13083 7.19392 3.7016C7.19392 4.27237 7.41936 4.81977 7.82064 5.22336C8.22193 5.62696 8.76619 5.8537 9.33369 5.8537C9.57986 5.86283 9.82467 5.81295 10.0479 5.70818C10.2711 5.6034 10.4664 5.44674 10.6176 5.25111V5.7504H11.5077V3.71021ZM8.19533 3.71021C8.20952 3.468 8.29384 3.23525 8.43789 3.04063C8.58194 2.846 8.77944 2.698 9.00607 2.61484C9.23269 2.53167 9.47855 2.51699 9.71338 2.57259C9.9482 2.62818 10.1617 2.75164 10.3277 2.92774C10.4936 3.10385 10.6047 3.32492 10.6473 3.56374C10.6899 3.80256 10.6622 4.04869 10.5674 4.27183C10.4727 4.49498 10.3152 4.68538 10.1142 4.81961C9.91324 4.95384 9.67764 5.02603 9.4364 5.02729C9.26624 5.03065 9.09724 4.99841 8.94012 4.9326C8.78301 4.8668 8.64121 4.76887 8.52371 4.64503C8.40622 4.5212 8.31559 4.37415 8.25759 4.21323C8.19959 4.0523 8.17547 3.88101 8.18677 3.71021H8.19533Z" transform="translate(2.58203 45.0171)" fill="#231F20"/>
        <path d="M13.4806 0H0V24.366H13.4806V0Z" transform="translate(18.186 15.3137)" fill="#FF5F00"/>
        <path d="M19.0417 15.4972C19.0392 13.1503 19.5677 10.8335 20.5872 8.7224C21.6067 6.61127 23.0905 4.76113 24.9261 3.31208C22.6533 1.51561 19.9238 0.398486 17.0496 0.0883952C14.1754 -0.221695 11.2724 0.287755 8.67243 1.55852C6.07248 2.82929 3.88044 4.8101 2.34686 7.27457C0.813269 9.73904 5.92221e-08 12.5877 5.92221e-08 15.4951C5.92221e-08 18.4024 0.813269 21.2511 2.34686 23.7156C3.88044 26.1801 6.07248 28.1609 8.67243 29.4317C11.2724 30.7024 14.1754 31.2119 17.0496 30.9018C19.9238 30.5917 22.6533 29.4746 24.9261 27.6781C23.091 26.2295 21.6076 24.38 20.5882 22.2697C19.5687 20.1594 19.0399 17.8435 19.0417 15.4972V15.4972Z" transform="translate(0 12.0024)" fill="#EB001B"/>
        <path d="M24.9283 15.499C24.9283 18.4066 24.1148 21.2555 22.581 23.72C21.0471 26.1846 18.8547 28.1654 16.2545 29.4359C13.6542 30.7065 10.7509 31.2157 7.87655 30.9051C5.00217 30.5946 2.27265 29.4769 6.53007e-07 27.6799C1.83434 26.23 3.31732 24.38 4.33705 22.2696C5.35678 20.1591 5.88664 17.8433 5.88664 15.4969C5.88664 13.1504 5.35678 10.8346 4.33705 8.72417C3.31732 6.61372 1.83434 4.76377 6.53007e-07 3.31387C2.27265 1.51684 5.00217 0.399173 7.87655 0.088637C10.7509 -0.221899 13.6542 0.287224 16.2545 1.55781C18.8547 2.82839 21.0471 4.80917 22.581 7.27373C24.1148 9.73828 24.9283 12.5872 24.9283 15.4947V15.499Z" transform="translate(24.9268 12)" fill="#F79E1B"/>
        <path d="M0.30813 0.602586V0.103302H0.509263V-1.05083e-06H-9.14209e-07V0.103302H0.218257V0.602586H0.30813ZM1.2967 0.602586V-1.05083e-06H1.14264L0.9629 0.430418L0.78316 -1.05083e-06H0.646211V0.602586H0.757477V0.150648L0.924379 0.542328H1.03993L1.20683 0.150648V0.606891L1.2967 0.602586Z" transform="translate(48.0737 36.4946)" fill="#F79E1B"/>
    </g>
    <defs>
        <clipPath id="clip0">
            <rect width="184" height="60" fill="white"/>
        </clipPath>
    </defs>
</svg>