<svg width="40" height="40" viewBox="0 0 40 40" fill="none" xmlns="http://www.w3.org/2000/svg">
<circle cx="20" cy="20" r="19.5" fill="white" stroke="#F1F1F1"/>
<path fill-rule="evenodd" clip-rule="evenodd" d="M33 19.5001C33 25.2989 28.3862 30 22.6951 30C19.4932 30 16.6322 28.5119 14.7422 26.1775C23.4142 26.1778 22.638 26.1775 22.754 26.1775C26.3406 26.145 29.2489 23.1621 29.2489 19.5001C29.2489 15.8379 26.3406 12.8553 22.754 12.8229C22.6729 12.8217 14.8599 12.8223 14.7422 12.8223C16.6324 10.4881 19.4932 9 22.6951 9C28.3862 9 33 13.7011 33 19.5001ZM21.1691 14.716V16.3391C21.1691 16.5246 21.0303 16.6752 20.8593 16.6752H10.2165C10.0455 16.6752 9.90675 16.5246 9.90675 16.3391V14.716C9.90675 14.5303 10.0454 14.3799 10.2165 14.3799H20.8593C21.0303 14.3799 21.1691 14.5303 21.1691 14.716ZM17.0768 18.6886V20.3118C17.0768 20.4973 16.9528 20.6478 16.7996 20.6478H7.27724C7.12405 20.6478 7 20.4973 7 20.3118V18.6886C7 18.5031 7.12405 18.3526 7.27724 18.3526H16.7996C16.9528 18.3526 17.0768 18.5031 17.0768 18.6886ZM21.1691 22.6613V24.2845C21.1691 24.47 21.0303 24.6205 20.8593 24.6205H10.2165C10.0455 24.6205 9.90675 24.47 9.90675 24.2845V22.6613C9.90675 22.4758 10.0454 22.3253 10.2165 22.3253H20.8593C21.0303 22.3253 21.1691 22.4758 21.1691 22.6613Z" fill="#FE8B00"/>
</svg>
