<svg width="32" height="32" viewBox="0 0 32 32" fill="none" xmlns="http://www.w3.org/2000/svg">
<g id="Icon/Outline/lock">
<path id="Mask" fill-rule="evenodd" clip-rule="evenodd" d="M15.9999 21.3332C15.2639 21.3332 14.6666 20.7358 14.6666 19.9998C14.6666 19.2638 15.2639 18.6665 15.9999 18.6665C16.7359 18.6665 17.3333 19.2638 17.3333 19.9998C17.3333 20.7358 16.7359 21.3332 15.9999 21.3332ZM15.9999 15.9998C13.7946 15.9998 11.9999 17.7945 11.9999 19.9998C11.9999 22.2052 13.7946 23.9998 15.9999 23.9998C18.2053 23.9998 19.9999 22.2052 19.9999 19.9998C19.9999 17.7945 18.2053 15.9998 15.9999 15.9998ZM23.9999 25.3332C23.9999 26.0692 23.4026 26.6665 22.6666 26.6665H9.33325C8.59725 26.6665 7.99992 26.0692 7.99992 25.3332V14.6665C7.99992 13.9305 8.59725 13.3332 9.33325 13.3332H10.6666H13.3333H18.6666H21.3333H22.6666C23.4026 13.3332 23.9999 13.9305 23.9999 14.6665V25.3332ZM13.3333 8.14784C13.3333 6.59584 14.5293 5.33317 15.9999 5.33317C17.4706 5.33317 18.6666 6.59584 18.6666 8.14784V10.6665H13.3333V8.14784ZM22.6666 10.6665H21.3333V8.14784C21.3333 5.1265 18.9413 2.6665 15.9999 2.6665C13.0586 2.6665 10.6666 5.1265 10.6666 8.14784V10.6665H9.33325C7.12792 10.6665 5.33325 12.4612 5.33325 14.6665V25.3332C5.33325 27.5385 7.12792 29.3332 9.33325 29.3332H22.6666C24.8719 29.3332 26.6666 27.5385 26.6666 25.3332V14.6665C26.6666 12.4612 24.8719 10.6665 22.6666 10.6665Z" fill="#231F20"/>
<mask id="mask0" mask-type="alpha" maskUnits="userSpaceOnUse" x="5" y="2" width="22" height="28">
<path id="Mask_2" fill-rule="evenodd" clip-rule="evenodd" d="M15.9999 21.3332C15.2639 21.3332 14.6666 20.7358 14.6666 19.9998C14.6666 19.2638 15.2639 18.6665 15.9999 18.6665C16.7359 18.6665 17.3333 19.2638 17.3333 19.9998C17.3333 20.7358 16.7359 21.3332 15.9999 21.3332ZM15.9999 15.9998C13.7946 15.9998 11.9999 17.7945 11.9999 19.9998C11.9999 22.2052 13.7946 23.9998 15.9999 23.9998C18.2053 23.9998 19.9999 22.2052 19.9999 19.9998C19.9999 17.7945 18.2053 15.9998 15.9999 15.9998ZM23.9999 25.3332C23.9999 26.0692 23.4026 26.6665 22.6666 26.6665H9.33325C8.59725 26.6665 7.99992 26.0692 7.99992 25.3332V14.6665C7.99992 13.9305 8.59725 13.3332 9.33325 13.3332H10.6666H13.3333H18.6666H21.3333H22.6666C23.4026 13.3332 23.9999 13.9305 23.9999 14.6665V25.3332ZM13.3333 8.14784C13.3333 6.59584 14.5293 5.33317 15.9999 5.33317C17.4706 5.33317 18.6666 6.59584 18.6666 8.14784V10.6665H13.3333V8.14784ZM22.6666 10.6665H21.3333V8.14784C21.3333 5.1265 18.9413 2.6665 15.9999 2.6665C13.0586 2.6665 10.6666 5.1265 10.6666 8.14784V10.6665H9.33325C7.12792 10.6665 5.33325 12.4612 5.33325 14.6665V25.3332C5.33325 27.5385 7.12792 29.3332 9.33325 29.3332H22.6666C24.8719 29.3332 26.6666 27.5385 26.6666 25.3332V14.6665C26.6666 12.4612 24.8719 10.6665 22.6666 10.6665Z" fill="white"/>
</mask>
<g mask="url(#mask0)">
<g id="&#240;&#159;&#142;&#168; Color">
<rect id="Base" width="32" height="32" fill="#AAAAAA"/>
</g>
</g>
</g>
</svg>
