<svg width="24" height="24" viewBox="0 0 24 24" fill="none" xmlns="http://www.w3.org/2000/svg">
    <path d="M8.05005 8.43869C8.6358 7.85312 9.5853 7.85312 10.171 8.43869" stroke="#1AA316" stroke-width="1.5" stroke-linecap="round" stroke-linejoin="round"/>
    <path d="M14.05 8.43869C14.6358 7.85312 15.5853 7.85312 16.171 8.43869" stroke="#1AA316" stroke-width="1.5" stroke-linecap="round" stroke-linejoin="round"/>
    <path d="M12.1111 15.5V23" stroke="#1AA316" stroke-width="1.5" stroke-linecap="round" stroke-linejoin="round"/>
    <path fill-rule="evenodd" clip-rule="evenodd" d="M4.61108 3.3249C4.61068 3.05472 4.75581 2.80526 4.99089 2.67209C5.22597 2.53891 5.51455 2.54266 5.74608 2.6819L8.36108 4.2499L11.5801 1.0299C11.7208 0.889142 11.9116 0.810059 12.1106 0.810059C12.3096 0.810059 12.5004 0.889142 12.6411 1.0299L15.8611 4.2499L18.4751 2.6819C18.7068 2.54282 18.9954 2.53914 19.2305 2.67224C19.4657 2.80535 19.6111 3.05468 19.6111 3.3249V7.9999C19.6111 12.142 16.2532 15.4999 12.1111 15.4999C7.96895 15.4999 4.61108 12.142 4.61108 7.9999V3.3249Z" stroke="#1AA316" stroke-width="1.5" stroke-linecap="round" stroke-linejoin="round"/>
    <path fill-rule="evenodd" clip-rule="evenodd" d="M3.25011 23C2.95187 23 2.68196 22.8234 2.56265 22.55C2.44334 22.2767 2.49731 21.9587 2.70011 21.74C3.93711 20.408 5.99211 18.5 7.61111 18.5C10.0964 18.5 12.1111 20.5147 12.1111 23H3.25011Z" stroke="#1AA316" stroke-width="1.5" stroke-linecap="round" stroke-linejoin="round"/>
    <path fill-rule="evenodd" clip-rule="evenodd" d="M20.9711 23C21.2693 23 21.5392 22.8234 21.6585 22.55C21.7779 22.2767 21.7239 21.9587 21.5211 21.74C20.2841 20.408 18.2291 18.5 16.6111 18.5C14.1258 18.5 12.1111 20.5147 12.1111 23H20.9711Z" stroke="#1AA316" stroke-width="1.5" stroke-linecap="round" stroke-linejoin="round"/>
</svg>