<svg width="20" height="20" viewBox="0 0 20 20" fill="none" xmlns="http://www.w3.org/2000/svg">
<path id="Mask" fill-rule="evenodd" clip-rule="evenodd" d="M11.6667 5.83333C11.6667 4.91417 10.9192 4.16667 10 4.16667C9.08084 4.16667 8.33334 4.91417 8.33334 5.83333C8.33334 6.7525 9.08084 7.5 10 7.5C10.9192 7.5 11.6667 6.7525 11.6667 5.83333ZM13.3333 5.83333C13.3333 7.67167 11.8383 9.16667 10 9.16667C8.16167 9.16667 6.66667 7.67167 6.66667 5.83333C6.66667 3.995 8.16167 2.5 10 2.5C11.8383 2.5 13.3333 3.995 13.3333 5.83333ZM4.16667 16.6667C4.16667 13.45 6.78417 10.8333 10 10.8333C13.2158 10.8333 15.8333 13.45 15.8333 16.6667C15.8333 17.1267 15.4608 17.5 15 17.5C14.5392 17.5 14.1667 17.1267 14.1667 16.6667C14.1667 14.3692 12.2975 12.5 10 12.5C7.70251 12.5 5.83334 14.3692 5.83334 16.6667C5.83334 17.1267 5.46084 17.5 5.00001 17.5C4.53917 17.5 4.16667 17.1267 4.16667 16.6667Z"/>
<path id="Mask_2" fill-rule="evenodd" clip-rule="evenodd" d="M11.6667 5.83333C11.6667 4.91417 10.9192 4.16667 10 4.16667C9.08084 4.16667 8.33334 4.91417 8.33334 5.83333C8.33334 6.7525 9.08084 7.5 10 7.5C10.9192 7.5 11.6667 6.7525 11.6667 5.83333ZM13.3333 5.83333C13.3333 7.67167 11.8383 9.16667 10 9.16667C8.16167 9.16667 6.66667 7.67167 6.66667 5.83333C6.66667 3.995 8.16167 2.5 10 2.5C11.8383 2.5 13.3333 3.995 13.3333 5.83333ZM4.16667 16.6667C4.16667 13.45 6.78417 10.8333 10 10.8333C13.2158 10.8333 15.8333 13.45 15.8333 16.6667C15.8333 17.1267 15.4608 17.5 15 17.5C14.5392 17.5 14.1667 17.1267 14.1667 16.6667C14.1667 14.3692 12.2975 12.5 10 12.5C7.70251 12.5 5.83334 14.3692 5.83334 16.6667C5.83334 17.1267 5.46084 17.5 5.00001 17.5C4.53917 17.5 4.16667 17.1267 4.16667 16.6667Z"/>
</svg>
