<svg width="22" height="20" viewBox="0 0 22 20" fill="none" xmlns="http://www.w3.org/2000/svg">
<path fill-rule="evenodd" clip-rule="evenodd" d="M3.50014 13.901H18.5001C18.7652 13.9012 19.0271 13.9581 19.2685 14.0677L20.3685 5.77517C20.4014 5.54499 20.3039 5.31556 20.1152 5.1796C19.9266 5.04364 19.6781 5.02363 19.4701 5.12766L15.9026 7.84433C15.7671 7.95521 15.5914 8.00417 15.4181 7.9793C15.2447 7.95443 15.0898 7.858 14.991 7.7135L11.4701 2.5635C11.3518 2.42761 11.1804 2.34961 11.0001 2.34961C10.8199 2.34961 10.6485 2.42761 10.5301 2.5635L7.00931 7.7135C6.91046 7.858 6.75553 7.95443 6.58223 7.9793C6.40893 8.00417 6.23314 7.95521 6.09764 7.84433L2.53014 5.1285C2.32219 5.02446 2.07368 5.04447 1.88505 5.18043C1.69642 5.31639 1.59886 5.54582 1.63181 5.776L2.73181 14.0685C2.97308 13.9586 3.23503 13.9015 3.50014 13.901Z" stroke-width="1.5" stroke-linecap="round" stroke-linejoin="round"/>
<path fill-rule="evenodd" clip-rule="evenodd" d="M18.5 13.9014H3.5C2.46447 13.9014 1.625 14.7408 1.625 15.7764V15.7764C1.625 16.8119 2.46447 17.6514 3.5 17.6514H18.5C19.5355 17.6514 20.375 16.8119 20.375 15.7764V15.7764C20.375 14.7408 19.5355 13.9014 18.5 13.9014Z" stroke-width="1.5" stroke-linecap="round" stroke-linejoin="round"/>
</svg>
