<svg width="24" height="24" viewBox="0 0 24 24" fill="none" xmlns="http://www.w3.org/2000/svg">
<path fill-rule="evenodd" clip-rule="evenodd" d="M12.593 6.79959L13.993 9.74959H16.37C16.6361 9.7449 16.8782 9.90262 16.9815 10.1479C17.0848 10.3931 17.0283 10.6766 16.839 10.8636L14.652 12.8096L15.861 15.5876C15.9704 15.8485 15.9008 16.15 15.6882 16.3366C15.4756 16.5232 15.1675 16.553 14.923 16.4106L12 14.7666L9.07704 16.4106C8.83261 16.553 8.52453 16.5232 8.3119 16.3366C8.09927 16.15 8.02967 15.8485 8.13904 15.5876L9.34804 12.8096L7.16504 10.8636C6.97574 10.6766 6.91933 10.3931 7.02258 10.1479C7.12584 9.90262 7.36797 9.7449 7.63404 9.74959H10.011L11.411 6.79959C11.5251 6.57841 11.7532 6.43945 12.002 6.43945C12.2509 6.43945 12.4789 6.57841 12.593 6.79959Z" stroke-width="1.5" stroke-linecap="round" stroke-linejoin="round"/>
<path fill-rule="evenodd" clip-rule="evenodd" d="M12 23.25C18.2132 23.25 23.25 18.2132 23.25 12C23.25 5.7868 18.2132 0.75 12 0.75C5.7868 0.75 0.75 5.7868 0.75 12C0.75 18.2132 5.7868 23.25 12 23.25Z" stroke-width="1.5" stroke-linecap="round" stroke-linejoin="round"/>
</svg>
