<?xml version="1.0" encoding="UTF-8" standalone="no"?>
<svg width="99px" height="94px" viewBox="0 0 99 94" version="1.1" xmlns="http://www.w3.org/2000/svg" xmlns:xlink="http://www.w3.org/1999/xlink">
    <!-- Generator: Sketch 44 (41411) - http://www.bohemiancoding.com/sketch -->
    <title>Combined Shape</title>
    <desc>Created with Sketch.</desc>
    <defs></defs>
    <g id="Презентация" stroke="none" stroke-width="1" fill="none" fill-rule="evenodd">
        <g id="Artboard" transform="translate(-1405.000000, -367.000000)" fill="#D8D8D8">
            <path d="M1464.16907,397.107916 C1465.32643,396.643591 1466.07042,396.401828 1466.07042,396.401828 C1469.38264,395.486071 1472.99239,395 1476.71825,395 C1483.64078,395 1490.17326,396.663195 1495.11284,399.683221 C1500.308,402.859345 1503.16907,407.169542 1503.16907,411.81971 L1503.16907,429.419355 C1503.16907,434.069523 1500.308,438.379719 1495.11284,441.556121 C1490.17326,444.576148 1483.64078,446.239065 1476.71825,446.239065 C1469.79546,446.239065 1463.26297,444.576148 1458.32367,441.556121 C1457.92495,441.31234 1457.54001,441.061875 1457.16907,440.805085 L1457.16907,443.419355 C1457.16907,448.069523 1454.308,452.379719 1449.11284,455.556121 C1444.17326,458.576148 1437.64078,460.239065 1430.71825,460.239065 C1423.79546,460.239065 1417.26297,458.576148 1412.32367,455.556121 C1408.65808,453.314919 1406.15649,450.508764 1405,447.417355 C1405,447.417355 1405,425.81971 1405,425.81971 C1405,425.81971 1405,429.600063 1405,423.342995 C1405,419.511613 1408.41899,416.394122 1412,414.179676 C1412,411.10048 1412,408.81971 1412,408.81971 C1412,408.81971 1412,412.600063 1412,406.342995 C1412,406.074148 1412.01683,405.808816 1412.04938,405.547065 C1412.03266,405.503884 1412.0162,405.460648 1412,405.417355 C1412,405.417355 1412,383.81971 1412,383.81971 C1412,383.81971 1412,387.600063 1412,381.342995 C1412,373.299049 1427.07042,368.401828 1427.07042,368.401828 C1430.38264,367.486071 1433.99239,367 1437.71825,367 C1444.64078,367 1451.17326,368.663195 1456.11284,371.683221 C1461.308,374.859345 1464.16907,379.169542 1464.16907,383.81971 L1464.16907,397.107916 Z M1447.77248,434.779769 C1451.9395,432.231925 1454.23441,428.931645 1454.23441,425.486654 C1454.23441,422.041663 1451.9395,418.741383 1447.77248,416.193539 C1443.34961,413.48932 1437.43468,412 1431.1172,412 C1424.79973,412 1418.8848,413.48932 1414.46193,416.193539 C1410.29491,418.741105 1408,422.041663 1408,425.486654 C1408,428.931645 1410.29491,432.232203 1414.46193,434.779769 C1418.8848,437.483988 1424.79973,438.973308 1431.1172,438.973308 C1437.43468,438.973308 1443.34961,437.483988 1447.77248,434.779769 Z M1454.77248,392.779769 C1458.9395,390.231925 1461.23441,386.931645 1461.23441,383.486654 C1461.23441,380.041663 1458.9395,376.741383 1454.77248,374.193539 C1450.34961,371.48932 1444.43468,370 1438.1172,370 C1431.79973,370 1425.8848,371.48932 1421.46193,374.193539 C1417.29491,376.741105 1415,380.041663 1415,383.486654 C1415,386.931645 1417.29491,390.232203 1421.46193,392.779769 C1425.8848,395.483988 1431.79973,396.973308 1438.1172,396.973308 C1444.43468,396.973308 1450.34961,395.483988 1454.77248,392.779769 Z M1493.77248,420.779769 C1497.9395,418.231925 1500.23441,414.931645 1500.23441,411.486654 C1500.23441,408.041663 1497.9395,404.741383 1493.77248,402.193539 C1489.34961,399.48932 1483.43468,398 1477.1172,398 C1470.79973,398 1464.8848,399.48932 1460.46193,402.193539 C1456.29491,404.741105 1454,408.041663 1454,411.486654 C1454,414.931645 1456.29491,418.232203 1460.46193,420.779769 C1464.8848,423.483988 1470.79973,424.973308 1477.1172,424.973308 C1483.43468,424.973308 1489.34961,423.483988 1493.77248,420.779769 Z M1500.23441,420.476627 L1500.23441,420 C1499.11904,421.269339 1497.7367,422.448963 1496.10379,423.511374 L1496.10379,428.100436 C1498.78373,425.852568 1500.23441,423.210844 1500.23441,420.476627 Z M1500.23441,429.349499 L1500.23441,428.87315 C1499.11904,430.142211 1497.7367,431.321835 1496.10379,432.384802 L1496.10379,436.973586 C1498.78373,434.72544 1500.23441,432.083993 1500.23441,429.349499 Z M1494.99258,428.958976 L1494.99258,424.188818 C1493.42301,425.098742 1491.70453,425.876177 1489.87104,426.512791 L1489.87104,431.689859 C1491.26533,431.141294 1492.57516,430.501625 1493.77248,429.769742 C1494.20085,429.507819 1494.60422,429.235897 1494.99258,428.958976 Z M1494.99258,437.831848 L1494.99258,433.061967 C1493.42301,433.971892 1491.70453,434.749327 1489.87104,435.385663 L1489.87104,440.563009 C1491.26533,440.014444 1492.57516,439.374775 1493.77248,438.642614 C1494.20085,438.380691 1494.60422,438.109047 1494.99258,437.831848 Z M1488.75984,432.100103 L1488.75984,426.876649 C1487.12498,427.38133 1485.41123,427.779352 1483.6383,428.060717 L1483.6383,433.409438 C1485.42901,433.098909 1487.14526,432.659779 1488.75984,432.100103 Z M1488.75984,440.973253 L1488.75984,435.749799 C1487.12498,436.254479 1485.41123,436.652502 1483.6383,436.933867 L1483.6383,442.282588 C1485.42901,441.972058 1487.14526,441.532928 1488.75984,440.973253 Z M1482.5271,433.584424 L1482.5271,428.219593 C1480.85835,428.436519 1479.14515,428.553454 1477.40556,428.56512 L1477.40556,433.958837 C1479.15293,433.946338 1480.86724,433.819126 1482.5271,433.584424 Z M1482.5271,442.457296 L1482.5271,437.092743 C1480.85835,437.309947 1479.14515,437.426604 1477.40556,437.438269 L1477.40556,442.831987 C1479.15293,442.81921 1480.86724,442.692276 1482.5271,442.457296 Z M1476.29436,433.95106 L1476.29436,428.557065 C1474.55255,428.523734 1472.83935,428.385413 1471.17282,428.145988 L1471.17282,433.506097 C1472.82935,433.765798 1474.54449,433.914952 1476.29436,433.95106 Z M1476.29436,442.823932 L1476.29436,437.430215 C1474.55255,437.397162 1472.83935,437.258562 1471.17282,437.019138 L1471.17282,442.379247 C1472.82935,442.63867 1474.54449,442.787824 1476.29436,442.823932 Z M1470.06162,433.314169 L1470.06162,427.969892 C1468.28647,427.662973 1466.56994,427.243841 1464.94008,426.711385 L1464.94008,431.912619 C1466.54855,432.505347 1468.26647,432.974475 1470.06162,433.314169 Z M1470.06162,442.18704 L1470.06162,436.843041 C1468.28647,436.536122 1466.56994,436.116991 1464.94008,435.584535 L1464.94008,440.785768 C1466.54855,441.378497 1468.26647,441.847346 1470.06162,442.18704 Z M1463.82887,431.474322 L1463.82887,426.326695 C1461.994,425.654251 1460.27886,424.83793 1458.72262,423.886343 C1458.71762,423.883288 1458.71262,423.879954 1458.70734,423.876899 L1458.70734,428.562898 C1459.25016,428.980363 1459.83187,429.384496 1460.46193,429.769742 C1461.50507,430.407466 1462.63405,430.975197 1463.82887,431.474322 Z M1463.82887,440.347194 L1463.82887,435.199845 C1461.994,434.527123 1460.27886,433.71108 1458.72262,432.75977 C1458.71762,432.756437 1458.71262,432.753104 1458.70734,432.750049 L1458.70734,437.436047 C1459.25016,437.853235 1459.83187,438.257646 1460.46193,438.642614 C1461.50507,439.280616 1462.63378,439.848346 1463.82887,440.347194 Z M1461.23441,392.476627 L1461.23441,392 C1460.11904,393.269339 1458.7367,394.448963 1457.10379,395.511374 L1457.10379,400.100436 C1459.78373,397.852568 1461.23441,395.210844 1461.23441,392.476627 Z M1455.99258,400.958976 L1455.99258,396.188818 C1454.42301,397.098742 1452.70453,397.876177 1450.87104,398.512791 L1450.87104,403.689859 C1452.26533,403.141294 1453.57516,402.501625 1454.77248,401.769742 C1455.20085,401.507819 1455.60422,401.235897 1455.99258,400.958976 Z M1449.75984,404.100103 L1449.75984,398.876649 C1448.12498,399.38133 1446.41123,399.779352 1444.6383,400.060717 L1444.6383,405.409438 C1446.42901,405.098909 1448.14526,404.659779 1449.75984,404.100103 Z M1443.5271,405.584424 L1443.5271,400.219593 C1441.85835,400.436519 1440.14515,400.553454 1438.40556,400.56512 L1438.40556,405.958837 C1440.15293,405.946338 1441.86724,405.819126 1443.5271,405.584424 Z M1437.29436,405.95106 L1437.29436,400.557065 C1435.55255,400.523734 1433.83935,400.385413 1432.17282,400.145988 L1432.17282,405.506097 C1433.82935,405.765798 1435.54449,405.914952 1437.29436,405.95106 Z M1431.06162,405.314169 L1431.06162,399.969892 C1429.28647,399.662973 1427.56994,399.243841 1425.94008,398.711385 L1425.94008,403.912619 C1427.54855,404.505347 1429.26647,404.974475 1431.06162,405.314169 Z M1424.82887,403.474322 L1424.82887,398.326695 C1422.994,397.654251 1421.27886,396.83793 1419.72262,395.886343 C1419.71762,395.883288 1419.71262,395.879954 1419.70734,395.876899 L1419.70734,400.562898 C1420.25016,400.980363 1420.83187,401.384496 1421.46193,401.769742 C1422.50507,402.407466 1423.63405,402.975197 1424.82887,403.474322 Z M1418.59613,399.634086 L1418.59613,395.153071 C1417.19435,394.185651 1415.99119,393.128239 1415,392 L1415,392.476627 C1415,395.023637 1416.25788,397.490931 1418.59613,399.634086 Z M1418.59613,408.507236 L1418.59613,404.02622 C1417.19435,403.058523 1415.99119,402.001389 1415,400.87315 L1415,401.349499 C1415,403.896787 1416.25788,406.364081 1418.59613,408.507236 Z M1454.23441,434.476627 L1454.23441,434 C1453.11904,435.269339 1451.7367,436.448963 1450.10379,437.511374 L1450.10379,442.100436 C1452.78373,439.852568 1454.23441,437.210844 1454.23441,434.476627 Z M1454.23441,443.349499 L1454.23441,442.87315 C1453.11904,444.142211 1451.7367,445.321835 1450.10379,446.384802 L1450.10379,450.973586 C1452.78373,448.72544 1454.23441,446.083993 1454.23441,443.349499 Z M1448.99258,442.958976 L1448.99258,438.188818 C1447.42301,439.098742 1445.70453,439.876177 1443.87104,440.512791 L1443.87104,445.689859 C1445.26533,445.141294 1446.57516,444.501625 1447.77248,443.769742 C1448.20085,443.507819 1448.60422,443.235897 1448.99258,442.958976 Z M1448.99258,451.831848 L1448.99258,447.061967 C1447.42301,447.971892 1445.70453,448.749327 1443.87104,449.385663 L1443.87104,454.563009 C1445.26533,454.014444 1446.57516,453.374775 1447.77248,452.642614 C1448.20085,452.380691 1448.60422,452.109047 1448.99258,451.831848 Z M1442.75984,446.100103 L1442.75984,440.876649 C1441.12498,441.38133 1439.41123,441.779352 1437.6383,442.060717 L1437.6383,447.409438 C1439.42901,447.098909 1441.14526,446.659779 1442.75984,446.100103 Z M1442.75984,454.973253 L1442.75984,449.749799 C1441.12498,450.254479 1439.41123,450.652502 1437.6383,450.933867 L1437.6383,456.282588 C1439.42901,455.972058 1441.14526,455.532928 1442.75984,454.973253 Z M1436.5271,447.584424 L1436.5271,442.219593 C1434.85835,442.436519 1433.14515,442.553454 1431.40556,442.56512 L1431.40556,447.958837 C1433.15293,447.946338 1434.86724,447.819126 1436.5271,447.584424 Z M1436.5271,456.457296 L1436.5271,451.092743 C1434.85835,451.309947 1433.14515,451.426604 1431.40556,451.438269 L1431.40556,456.831987 C1433.15293,456.81921 1434.86724,456.692276 1436.5271,456.457296 Z M1430.29436,447.95106 L1430.29436,442.557065 C1428.55255,442.523734 1426.83935,442.385413 1425.17282,442.145988 L1425.17282,447.506097 C1426.82935,447.765798 1428.54449,447.914952 1430.29436,447.95106 Z M1430.29436,456.823932 L1430.29436,451.430215 C1428.55255,451.397162 1426.83935,451.258562 1425.17282,451.019138 L1425.17282,456.379247 C1426.82935,456.63867 1428.54449,456.787824 1430.29436,456.823932 Z M1424.06162,447.314169 L1424.06162,441.969892 C1422.28647,441.662973 1420.56994,441.243841 1418.94008,440.711385 L1418.94008,445.912619 C1420.54855,446.505347 1422.26647,446.974475 1424.06162,447.314169 Z M1424.06162,456.18704 L1424.06162,450.843041 C1422.28647,450.536122 1420.56994,450.116991 1418.94008,449.584535 L1418.94008,454.785768 C1420.54855,455.378497 1422.26647,455.847346 1424.06162,456.18704 Z M1417.82887,445.474322 L1417.82887,440.326695 C1415.994,439.654251 1414.27886,438.83793 1412.72262,437.886343 C1412.71762,437.883288 1412.71262,437.879954 1412.70734,437.876899 L1412.70734,442.562898 C1413.25016,442.980363 1413.83187,443.384496 1414.46193,443.769742 C1415.50507,444.407466 1416.63405,444.975197 1417.82887,445.474322 Z M1417.82887,454.347194 L1417.82887,449.199845 C1415.994,448.527123 1414.27886,447.71108 1412.72262,446.75977 C1412.71762,446.756437 1412.71262,446.753104 1412.70734,446.750049 L1412.70734,451.436047 C1413.25016,451.853235 1413.83187,452.257646 1414.46193,452.642614 C1415.50507,453.280616 1416.63378,453.848346 1417.82887,454.347194 Z M1411.59613,441.634086 L1411.59613,437.153071 C1410.19435,436.185651 1408.99119,435.128239 1408,434 L1408,434.476627 C1408,437.023637 1409.25788,439.490931 1411.59613,441.634086 Z M1411.59613,450.507236 L1411.59613,446.02622 C1410.19435,445.058523 1408.99119,444.001389 1408,442.87315 L1408,443.349499 C1408,445.896787 1409.25788,448.364081 1411.59613,450.507236 Z M1448.56756,413.359072 C1448.97071,413.237632 1449.36827,413.108988 1449.75984,412.973253 L1449.75984,407.749799 C1448.12498,408.254479 1446.41123,408.652502 1444.6383,408.933867 L1444.6383,411.481208 C1446.02759,412.02395 1447.34305,412.651357 1448.56756,413.359072 L1448.56756,413.359072 Z M1438.40556,409.709483 C1440.18586,410.047528 1441.90147,410.503387 1443.5271,411.070617 L1443.5271,409.092743 C1441.85835,409.309947 1440.14515,409.426604 1438.40556,409.438269 L1438.40556,409.709483 Z M1425.94008,409.270918 L1425.94008,409.270918 C1427.50093,409.09185 1429.09862,409 1430.71825,409 C1430.83282,409 1430.94727,409.000456 1431.06162,409.001365 L1431.06162,408.843041 C1429.28647,408.536122 1427.56994,408.116991 1425.94008,407.584535 L1425.94008,409.270918 Z M1420.78761,410.211443 C1422.09505,409.878604 1423.44572,409.611674 1424.82887,409.413992 L1424.82887,407.199845 C1422.994,406.527123 1421.27886,405.71108 1419.72262,404.75977 C1419.71762,404.756437 1419.71262,404.753104 1419.70734,404.750049 L1419.70734,409.436047 C1420.05104,409.700199 1420.41033,409.959228 1420.78761,410.211443 Z M1415.51322,412.273808 L1415.51322,412.273808 C1416.24096,411.9257 1416.92453,411.623804 1417.52986,411.370099 C1416.57513,410.623597 1415.73007,409.831011 1415,409 L1415,409.476627 C1415,410.424251 1415.17412,411.360841 1415.51322,412.273808 Z" id="Combined-Shape"></path>
        </g>
    </g>
</svg>