<svg width="40" height="40" viewBox="0 0 40 40" fill="none" xmlns="http://www.w3.org/2000/svg">
<path fill-rule="evenodd" clip-rule="evenodd" d="M14.6562 14.044L18.7242 15.3L21.6852 12.85C21.8192 12.7277 22.0132 12.6969 22.1785 12.7717C22.3438 12.8465 22.4486 13.0126 22.4452 13.194L22.3262 17.532L26.0172 19.571C26.1748 19.6695 26.2608 19.8506 26.2377 20.035C26.2145 20.2195 26.0863 20.3736 25.9092 20.43L21.8732 21.874L20.4292 25.91C20.3732 26.0872 20.2191 26.2156 20.0348 26.2388C19.8504 26.262 19.6694 26.1758 19.5712 26.018L17.5312 22.327L13.1932 22.446C13.0118 22.4495 12.8457 22.3446 12.7709 22.1793C12.6961 22.014 12.7268 21.82 12.8492 21.686L15.3002 18.724L14.0442 14.656C13.9982 14.4836 14.0475 14.2998 14.1737 14.1736C14.2999 14.0474 14.4838 13.998 14.6562 14.044Z" stroke="white" stroke-width="1.5" stroke-linecap="round" stroke-linejoin="round"/>
<path d="M21.873 21.873L31.25 31.25" stroke="white" stroke-width="1.5" stroke-linecap="round" stroke-linejoin="round"/>
<path d="M26 10.25H29" stroke="white" stroke-width="1.5" stroke-linecap="round" stroke-linejoin="round"/>
<path d="M27.5 8.75V11.75" stroke="white" stroke-width="1.5" stroke-linecap="round" stroke-linejoin="round"/>
<path d="M10.25 28.25H13.25" stroke="white" stroke-width="1.5" stroke-linecap="round" stroke-linejoin="round"/>
<path d="M11.75 26.75V29.75" stroke="white" stroke-width="1.5" stroke-linecap="round" stroke-linejoin="round"/>
<path d="M17 11V8.75" stroke="white" stroke-width="1.5" stroke-linecap="round" stroke-linejoin="round"/>
<path d="M8.75 17.75H11" stroke="white" stroke-width="1.5" stroke-linecap="round" stroke-linejoin="round"/>
</svg>
