<?xml version="1.0" encoding="UTF-8" standalone="no"?>
<svg width="99px" height="114px" viewBox="0 0 99 114" version="1.1" xmlns="http://www.w3.org/2000/svg" xmlns:xlink="http://www.w3.org/1999/xlink">
    <!-- Generator: Sketch 44 (41411) - http://www.bohemiancoding.com/sketch -->
    <title>Combined Shape</title>
    <desc>Created with Sketch.</desc>
    <defs></defs>
    <g id="Презентация" stroke="none" stroke-width="1" fill="none" fill-rule="evenodd">
        <g id="Artboard" transform="translate(-1290.000000, -482.000000)" fill="#F6A623">
            <path d="M1350.27286,530.980836 C1354.03481,529.719462 1358.37647,529 1363,529 C1376.51058,529 1387.61428,535.143399 1388.87981,543 L1389,543 L1389,566 L1388.87981,566 C1387.61428,573.856601 1376.51058,580 1363,580 C1354.37434,580 1346.72973,577.495936 1342,573.640671 L1342,582 L1341.87981,582 C1340.61428,589.856601 1329.51058,596 1316,596 C1302.48942,596 1291.38572,589.856601 1290.12019,582 L1290,582 L1290,541 L1290.12019,541 C1290.744,537.127291 1293.75823,533.670846 1298.27286,531.161261 L1298.27286,496 L1298.39304,496 C1299.65857,488.143399 1310.76228,482 1324.27286,482 C1337.78344,482 1348.88714,488.143399 1350.15267,496 L1350.27286,496 L1350.27286,530.980836 Z M1380.14072,554.779769 C1384.24154,552.231925 1386.5,548.931645 1386.5,545.486654 C1386.5,542.041663 1384.24154,538.741383 1380.14072,536.19354 C1375.7881,533.48932 1369.96712,532 1363.75,532 C1357.53288,532 1351.7119,533.48932 1347.35928,536.19354 C1343.25846,538.741105 1341,542.041663 1341,545.486654 C1341,548.931645 1343.25846,552.232203 1347.35928,554.779769 C1351.7119,557.483988 1357.53288,558.973308 1363.75,558.973308 C1369.96712,558.973308 1375.7881,557.483988 1380.14072,554.779769 Z M1332.14072,552.432444 C1336.24154,549.979371 1338.5,546.801849 1338.5,543.485 C1338.5,540.16815 1336.24154,536.990628 1332.14072,534.537555 C1327.7881,531.933923 1321.96712,530.5 1315.75,530.5 C1309.53288,530.5 1303.7119,531.933923 1299.35928,534.537555 C1295.25846,536.99036 1293,540.16815 1293,543.485 C1293,546.801849 1295.25846,549.979639 1299.35928,552.432444 C1303.7119,555.036076 1309.53288,556.469999 1315.75,556.469999 C1321.96712,556.469999 1327.7881,555.036076 1332.14072,552.432444 Z M1340.77248,507.779769 C1344.9395,505.231925 1347.23441,501.931645 1347.23441,498.486654 C1347.23441,495.041663 1344.9395,491.741383 1340.77248,489.193539 C1336.34961,486.48932 1330.43468,485 1324.1172,485 C1317.79973,485 1311.8848,486.48932 1307.46193,489.193539 C1303.29491,491.741105 1301,495.041663 1301,498.486654 C1301,501.931645 1303.29491,505.232203 1307.46193,507.779769 C1311.8848,510.483988 1317.79973,511.973308 1324.1172,511.973308 C1330.43468,511.973308 1336.34961,510.483988 1340.77248,507.779769 Z M1347.23441,507.476627 L1347.23441,507 C1346.11904,508.269339 1344.7367,509.448963 1343.10379,510.511374 L1343.10379,515.100436 C1345.78373,512.852568 1347.23441,510.210844 1347.23441,507.476627 Z M1341.99258,515.958976 L1341.99258,511.188818 C1340.42301,512.098742 1338.70453,512.876177 1336.87104,513.512791 L1336.87104,518.689859 C1338.26533,518.141294 1339.57516,517.501625 1340.77248,516.769742 C1341.20085,516.507819 1341.60422,516.235897 1341.99258,515.958976 Z M1335.75984,519.100103 L1335.75984,513.876649 C1334.12498,514.38133 1332.41123,514.779352 1330.6383,515.060717 L1330.6383,520.409438 C1332.42901,520.098909 1334.14526,519.659779 1335.75984,519.100103 Z M1329.5271,520.584424 L1329.5271,515.219593 C1327.85835,515.436519 1326.14515,515.553454 1324.40556,515.56512 L1324.40556,520.958837 C1326.15293,520.946338 1327.86724,520.819126 1329.5271,520.584424 Z M1323.29436,520.95106 L1323.29436,515.557065 C1321.55255,515.523734 1319.83935,515.385413 1318.17282,515.145988 L1318.17282,520.506097 C1319.82935,520.765798 1321.54449,520.914952 1323.29436,520.95106 Z M1317.06162,520.314169 L1317.06162,514.969892 C1315.28647,514.662973 1313.56994,514.243841 1311.94008,513.711385 L1311.94008,518.912619 C1313.54855,519.505347 1315.26647,519.974475 1317.06162,520.314169 Z M1310.82887,518.474322 L1310.82887,513.326695 C1308.994,512.654251 1307.27886,511.83793 1305.72262,510.886343 C1305.71762,510.883288 1305.71262,510.879954 1305.70734,510.876899 L1305.70734,515.562898 C1306.25016,515.980363 1306.83187,516.384496 1307.46193,516.769742 C1308.50507,517.407466 1309.63405,517.975197 1310.82887,518.474322 Z M1304.59613,514.634086 L1304.59613,510.153071 C1303.19435,509.185651 1301.99119,508.128239 1301,507 L1301,507.476627 C1301,510.023637 1302.25788,512.490931 1304.59613,514.634086 Z M1339.23441,570.476627 L1339.23441,570 C1338.11904,571.269339 1336.7367,572.448963 1335.10379,573.511374 L1335.10379,578.100436 C1337.78373,575.852568 1339.23441,573.210844 1339.23441,570.476627 Z M1339.23441,579.349499 L1339.23441,578.87315 C1338.11904,580.142211 1336.7367,581.321835 1335.10379,582.384801 L1335.10379,586.973586 C1337.78373,584.72544 1339.23441,582.083993 1339.23441,579.349499 Z M1333.99258,578.958976 L1333.99258,574.188818 C1332.42301,575.098742 1330.70453,575.876177 1328.87104,576.512791 L1328.87104,581.689859 C1330.26533,581.141294 1331.57516,580.501625 1332.77248,579.769742 C1333.20085,579.507819 1333.60422,579.235897 1333.99258,578.958976 Z M1333.99258,587.831848 L1333.99258,583.061967 C1332.42301,583.971892 1330.70453,584.749327 1328.87104,585.385663 L1328.87104,590.563009 C1330.26533,590.014444 1331.57516,589.374775 1332.77248,588.642614 C1333.20085,588.380691 1333.60422,588.109047 1333.99258,587.831848 Z M1327.75984,582.100103 L1327.75984,576.876649 C1326.12498,577.38133 1324.41123,577.779352 1322.6383,578.060717 L1322.6383,583.409438 C1324.42901,583.098909 1326.14526,582.659779 1327.75984,582.100103 Z M1327.75984,590.973253 L1327.75984,585.749799 C1326.12498,586.254479 1324.41123,586.652502 1322.6383,586.933867 L1322.6383,592.282588 C1324.42901,591.972058 1326.14526,591.532928 1327.75984,590.973253 Z M1321.5271,583.584424 L1321.5271,578.219593 C1319.85835,578.436519 1318.14515,578.553454 1316.40556,578.56512 L1316.40556,583.958837 C1318.15293,583.946338 1319.86724,583.819126 1321.5271,583.584424 Z M1321.5271,592.457296 L1321.5271,587.092743 C1319.85835,587.309947 1318.14515,587.426604 1316.40556,587.438269 L1316.40556,592.831987 C1318.15293,592.81921 1319.86724,592.692276 1321.5271,592.457296 Z M1315.29436,583.95106 L1315.29436,578.557065 C1313.55255,578.523734 1311.83935,578.385413 1310.17282,578.145988 L1310.17282,583.506097 C1311.82935,583.765798 1313.54449,583.914952 1315.29436,583.95106 Z M1315.29436,592.823932 L1315.29436,587.430215 C1313.55255,587.397162 1311.83935,587.258562 1310.17282,587.019138 L1310.17282,592.379247 C1311.82935,592.63867 1313.54449,592.787824 1315.29436,592.823932 Z M1309.06162,583.314169 L1309.06162,577.969892 C1307.28647,577.662973 1305.56994,577.243841 1303.94008,576.711385 L1303.94008,581.912619 C1305.54855,582.505347 1307.26647,582.974475 1309.06162,583.314169 Z M1309.06162,592.18704 L1309.06162,586.843041 C1307.28647,586.536122 1305.56994,586.116991 1303.94008,585.584535 L1303.94008,590.785768 C1305.54855,591.378497 1307.26647,591.847346 1309.06162,592.18704 Z M1302.82887,581.474322 L1302.82887,576.326695 C1300.994,575.654251 1299.27886,574.83793 1297.72262,573.886343 C1297.71762,573.883288 1297.71262,573.879954 1297.70734,573.876899 L1297.70734,578.562898 C1298.25016,578.980363 1298.83187,579.384496 1299.46193,579.769742 C1300.50507,580.407466 1301.63405,580.975197 1302.82887,581.474322 Z M1302.82887,590.347194 L1302.82887,585.199845 C1300.994,584.527123 1299.27886,583.71108 1297.72262,582.75977 C1297.71762,582.756437 1297.71262,582.753104 1297.70734,582.750049 L1297.70734,587.436047 C1298.25016,587.853235 1298.83187,588.257646 1299.46193,588.642614 C1300.50507,589.280616 1301.63378,589.848346 1302.82887,590.347194 Z M1296.59613,577.634086 L1296.59613,573.153071 C1295.19435,572.185651 1293.99119,571.128239 1293,570 L1293,570.476627 C1293,573.023637 1294.25788,575.490931 1296.59613,577.634086 Z M1296.59613,586.507236 L1296.59613,582.02622 C1295.19435,581.058523 1293.99119,580.001389 1293,578.87315 L1293,579.349499 C1293,581.896787 1294.25788,584.364081 1296.59613,586.507236 Z M1339.23441,552.476627 L1339.23441,552 C1338.11904,553.269339 1336.7367,554.448963 1335.10379,555.511374 L1335.10379,560.100436 C1337.78373,557.852568 1339.23441,555.210844 1339.23441,552.476627 Z M1339.23441,561.349499 L1339.23441,560.87315 C1338.11904,562.142211 1336.7367,563.321835 1335.10379,564.384801 L1335.10379,568.973586 C1337.78373,566.72544 1339.23441,564.083993 1339.23441,561.349499 Z M1333.99258,560.958976 L1333.99258,556.188818 C1332.42301,557.098742 1330.70453,557.876177 1328.87104,558.512791 L1328.87104,563.689859 C1330.26533,563.141294 1331.57516,562.501625 1332.77248,561.769742 C1333.20085,561.507819 1333.60422,561.235897 1333.99258,560.958976 Z M1333.99258,569.831848 L1333.99258,565.061967 C1332.42301,565.971892 1330.70453,566.749327 1328.87104,567.385663 L1328.87104,572.563009 C1330.26533,572.014444 1331.57516,571.374775 1332.77248,570.642614 C1333.20085,570.380691 1333.60422,570.109047 1333.99258,569.831848 Z M1327.75984,564.100103 L1327.75984,558.876649 C1326.12498,559.38133 1324.41123,559.779352 1322.6383,560.060717 L1322.6383,565.409438 C1324.42901,565.098909 1326.14526,564.659779 1327.75984,564.100103 Z M1327.75984,572.973253 L1327.75984,567.749799 C1326.12498,568.254479 1324.41123,568.652502 1322.6383,568.933867 L1322.6383,574.282588 C1324.42901,573.972058 1326.14526,573.532928 1327.75984,572.973253 Z M1321.5271,565.584424 L1321.5271,560.219593 C1319.85835,560.436519 1318.14515,560.553454 1316.40556,560.56512 L1316.40556,565.958837 C1318.15293,565.946338 1319.86724,565.819126 1321.5271,565.584424 Z M1321.5271,574.457296 L1321.5271,569.092743 C1319.85835,569.309947 1318.14515,569.426604 1316.40556,569.438269 L1316.40556,574.831987 C1318.15293,574.81921 1319.86724,574.692276 1321.5271,574.457296 Z M1315.29436,565.95106 L1315.29436,560.557065 C1313.55255,560.523734 1311.83935,560.385413 1310.17282,560.145988 L1310.17282,565.506097 C1311.82935,565.765798 1313.54449,565.914952 1315.29436,565.95106 Z M1315.29436,574.823932 L1315.29436,569.430215 C1313.55255,569.397162 1311.83935,569.258562 1310.17282,569.019138 L1310.17282,574.379247 C1311.82935,574.63867 1313.54449,574.787824 1315.29436,574.823932 Z M1309.06162,565.314169 L1309.06162,559.969892 C1307.28647,559.662973 1305.56994,559.243841 1303.94008,558.711385 L1303.94008,563.912619 C1305.54855,564.505347 1307.26647,564.974475 1309.06162,565.314169 Z M1309.06162,574.18704 L1309.06162,568.843041 C1307.28647,568.536122 1305.56994,568.116991 1303.94008,567.584535 L1303.94008,572.785768 C1305.54855,573.378497 1307.26647,573.847346 1309.06162,574.18704 Z M1302.82887,563.474322 L1302.82887,558.326695 C1300.994,557.654251 1299.27886,556.83793 1297.72262,555.886343 C1297.71762,555.883288 1297.71262,555.879954 1297.70734,555.876899 L1297.70734,560.562898 C1298.25016,560.980363 1298.83187,561.384496 1299.46193,561.769742 C1300.50507,562.407466 1301.63405,562.975197 1302.82887,563.474322 Z M1302.82887,572.347194 L1302.82887,567.199845 C1300.994,566.527123 1299.27886,565.71108 1297.72262,564.75977 C1297.71762,564.756437 1297.71262,564.753104 1297.70734,564.750049 L1297.70734,569.436047 C1298.25016,569.853235 1298.83187,570.257646 1299.46193,570.642614 C1300.50507,571.280616 1301.63378,571.848346 1302.82887,572.347194 Z M1296.59613,559.634086 L1296.59613,555.153071 C1295.19435,554.185651 1293.99119,553.128239 1293,552 L1293,552.476627 C1293,555.023637 1294.25788,557.490931 1296.59613,559.634086 Z M1296.59613,568.507236 L1296.59613,564.02622 C1295.19435,563.058523 1293.99119,562.001389 1293,560.87315 L1293,561.349499 C1293,563.896787 1294.25788,566.364081 1296.59613,568.507236 Z M1386.23441,554.476627 L1386.23441,554 C1385.11904,555.269339 1383.7367,556.448963 1382.10379,557.511374 L1382.10379,562.100436 C1384.78373,559.852568 1386.23441,557.210844 1386.23441,554.476627 Z M1386.23441,563.349499 L1386.23441,562.87315 C1385.11904,564.142211 1383.7367,565.321835 1382.10379,566.384801 L1382.10379,570.973586 C1384.78373,568.72544 1386.23441,566.083993 1386.23441,563.349499 Z M1380.99258,562.958976 L1380.99258,558.188818 C1379.42301,559.098742 1377.70453,559.876177 1375.87104,560.512791 L1375.87104,565.689859 C1377.26533,565.141294 1378.57516,564.501625 1379.77248,563.769742 C1380.20085,563.507819 1380.60422,563.235897 1380.99258,562.958976 Z M1380.99258,571.831848 L1380.99258,567.061967 C1379.42301,567.971892 1377.70453,568.749327 1375.87104,569.385663 L1375.87104,574.563009 C1377.26533,574.014444 1378.57516,573.374775 1379.77248,572.642614 C1380.20085,572.380691 1380.60422,572.109047 1380.99258,571.831848 Z M1374.75984,566.100103 L1374.75984,560.876649 C1373.12498,561.38133 1371.41123,561.779352 1369.6383,562.060717 L1369.6383,567.409438 C1371.42901,567.098909 1373.14526,566.659779 1374.75984,566.100103 Z M1374.75984,574.973253 L1374.75984,569.749799 C1373.12498,570.254479 1371.41123,570.652502 1369.6383,570.933867 L1369.6383,576.282588 C1371.42901,575.972058 1373.14526,575.532928 1374.75984,574.973253 Z M1368.5271,567.584424 L1368.5271,562.219593 C1366.85835,562.436519 1365.14515,562.553454 1363.40556,562.56512 L1363.40556,567.958837 C1365.15293,567.946338 1366.86724,567.819126 1368.5271,567.584424 Z M1368.5271,576.457296 L1368.5271,571.092743 C1366.85835,571.309947 1365.14515,571.426604 1363.40556,571.438269 L1363.40556,576.831987 C1365.15293,576.81921 1366.86724,576.692276 1368.5271,576.457296 Z M1362.29436,567.95106 L1362.29436,562.557065 C1360.55255,562.523734 1358.83935,562.385413 1357.17282,562.145988 L1357.17282,567.506097 C1358.82935,567.765798 1360.54449,567.914952 1362.29436,567.95106 Z M1362.29436,576.823932 L1362.29436,571.430215 C1360.55255,571.397162 1358.83935,571.258562 1357.17282,571.019138 L1357.17282,576.379247 C1358.82935,576.63867 1360.54449,576.787824 1362.29436,576.823932 Z M1356.06162,567.314169 L1356.06162,561.969892 C1354.28647,561.662973 1352.56994,561.243841 1350.94008,560.711385 L1350.94008,565.912619 C1352.54855,566.505347 1354.26647,566.974475 1356.06162,567.314169 Z M1356.06162,576.18704 L1356.06162,570.843041 C1354.28647,570.536122 1352.56994,570.116991 1350.94008,569.584535 L1350.94008,574.785768 C1352.54855,575.378497 1354.26647,575.847346 1356.06162,576.18704 Z M1349.82887,565.474322 L1349.82887,560.326695 C1347.994,559.654251 1346.27886,558.83793 1344.72262,557.886343 C1344.71762,557.883288 1344.71262,557.879954 1344.70734,557.876899 L1344.70734,562.562898 C1345.25016,562.980363 1345.83187,563.384496 1346.46193,563.769742 C1347.50507,564.407466 1348.63405,564.975197 1349.82887,565.474322 Z M1349.82887,574.347194 L1349.82887,569.199845 C1347.994,568.527123 1346.27886,567.71108 1344.72262,566.75977 C1344.71762,566.756437 1344.71262,566.753104 1344.70734,566.750049 L1344.70734,571.436047 C1345.25016,571.853235 1345.83187,572.257646 1346.46193,572.642614 C1347.50507,573.280616 1348.63378,573.848346 1349.82887,574.347194 Z M1347.23441,516.349499 L1347.23441,515.87315 C1346.11904,517.142211 1344.7367,518.321835 1343.10379,519.384801 L1343.10379,523.973586 C1345.78373,521.72544 1347.23441,519.083993 1347.23441,516.349499 Z M1341.99258,524.831848 L1341.99258,520.061967 C1340.42301,520.971892 1338.70453,521.749327 1336.87104,522.385663 L1336.87104,527.563009 C1338.26533,527.014444 1339.57516,526.374775 1340.77248,525.642614 C1341.20085,525.380691 1341.60422,525.109047 1341.99258,524.831848 Z M1335.75984,527.973253 L1335.75984,522.749799 C1334.12498,523.254479 1332.41123,523.652502 1330.6383,523.933867 L1330.6383,529.282588 C1332.42901,528.972058 1334.14526,528.532928 1335.75984,527.973253 Z M1310.82887,527.347194 L1310.82887,522.199845 C1308.994,521.527123 1307.27886,520.71108 1305.72262,519.75977 C1305.71762,519.756437 1305.71262,519.753104 1305.70734,519.750049 L1305.70734,524.436047 C1306.25016,524.853235 1306.83187,525.257646 1307.46193,525.642614 C1308.50507,526.280616 1309.63378,526.848346 1310.82887,527.347194 Z M1304.59613,523.507236 L1304.59613,519.02622 C1303.19435,518.058523 1301.99119,517.001389 1301,515.87315 L1301,516.349499 C1301,518.896787 1302.25788,521.364081 1304.59613,523.507236 Z M1327.39191,529.697127 C1328.11232,529.636846 1328.82458,529.556748 1329.5271,529.457296 L1329.5271,524.092743 C1327.85835,524.309947 1326.14515,524.426604 1324.40556,524.438269 L1324.40556,528.913229 C1325.42616,529.135519 1326.42327,529.397241 1327.39191,529.697127 Z M1318.17282,528.070246 C1319.92194,528.170838 1321.63591,528.378663 1323.29436,528.688536 L1323.29436,524.430215 C1321.55255,524.397162 1319.83935,524.258562 1318.17282,524.019138 L1318.17282,528.070246 Z M1312.83198,528.098051 C1313.78404,528.033016 1314.7472,528 1315.71825,528 C1316.1678,528 1316.61569,528.007014 1317.06162,528.020958 L1317.06162,523.843041 C1315.28647,523.536122 1313.56994,523.116991 1311.94008,522.584535 L1311.94008,527.785768 C1312.23379,527.894004 1312.53116,527.998109 1312.83198,528.098051 Z M1342,559.908113 C1342.45754,560.502345 1342.99061,561.079085 1343.59613,561.634086 L1343.59613,557.153071 C1343.03158,556.763454 1342.49925,556.359241 1342,555.941683 L1342,559.908113 L1342,559.908113 Z M1341.59613,568.223366 C1342.13381,569.015613 1342.80278,569.780082 1343.59613,570.507236 L1343.59613,566.02622 C1342.87652,565.529448 1342.20925,565.009106 1341.59613,564.467674 L1341.59613,568.223366 Z M1347.23441,524.476627 L1347.23441,524 C1346.11904,525.269339 1344.7367,526.448963 1343.10379,527.511374 L1343.10379,532.100436 C1345.78373,529.852568 1347.23441,527.210844 1347.23441,524.476627 Z M1341.99258,532.958976 L1341.99258,528.188818 C1340.42301,529.098742 1338.70453,529.876177 1336.87104,530.512791 L1336.87104,535.689859 C1338.26533,535.141294 1339.57516,534.501625 1340.77248,533.769742 C1341.20085,533.507819 1341.60422,533.235897 1341.99258,532.958976 Z M1332.42261,531.734239 L1332.42261,531.734239 C1333.00431,532.0338 1333.56826,532.350264 1334.11284,532.683221 C1334.69099,533.036679 1335.24023,533.404183 1335.75984,533.784636 L1335.75984,530.876649 C1334.67996,531.210009 1333.56565,531.496832 1332.42261,531.734239 Z M1303.16011,530.111512 L1303.16011,530.111512 C1303.76809,529.86744 1304.26266,529.684547 1304.59613,529.565601 L1304.59613,527.153071 C1303.19435,526.185651 1301.99119,525.128239 1301,524 L1301,524.476627 C1301,526.439564 1301.74712,528.355154 1303.16011,530.111512 Z" id="Combined-Shape"></path>
        </g>
    </g>
</svg>