<?xml version="1.0" encoding="UTF-8" standalone="no"?>
<svg width="24px" height="18px" viewBox="0 0 24 18" version="1.1" xmlns="http://www.w3.org/2000/svg" xmlns:xlink="http://www.w3.org/1999/xlink">
    <!-- Generator: Sketch 43.2 (39069) - http://www.bohemiancoding.com/sketch -->
    <title>Shape</title>
    <desc>Created with Sketch.</desc>
    <defs></defs>
    <g id="Symbols" stroke="none" stroke-width="1" fill="none" fill-rule="evenodd">
        <g id="2-кнопки" transform="translate(-222.000000, -11.000000)" fill-rule="nonzero" fill="#FFFFFF">
            <g id="Group" transform="translate(222.000000, 11.000000)">
                <path d="M21.7637333,0.237866667 L2.23626667,0.237866667 C1.0032,0.237866667 0,1.24106667 0,2.4744 L0,15.1258667 C0,16.3589333 1.0032,17.3621333 2.23626667,17.3621333 L21.7637333,17.3621333 C22.9970667,17.3621333 24,16.3589333 24,15.1258667 L24,2.4744 C24,1.24106667 22.9968,0.237866667 21.7637333,0.237866667 Z M22.8277333,15.1258667 C22.8277333,15.7125333 22.3504,16.1898667 21.7634667,16.1898667 L2.23626667,16.1898667 C1.64933333,16.1898667 1.172,15.7125333 1.172,15.1258667 L1.172,6.43173333 L22.8277333,6.43173333 L22.8277333,15.1258667 Z M22.8277333,4.08746667 L1.17226667,4.08746667 L1.17226667,2.47413333 C1.17226667,1.8872 1.6496,1.40986667 2.23653333,1.40986667 L21.764,1.40986667 C22.3509333,1.40986667 22.8282667,1.8872 22.8282667,2.47413333 L22.8282667,4.08746667 L22.8277333,4.08746667 Z" id="Shape"></path>
            </g>
        </g>
    </g>
</svg>