<?xml version="1.0" encoding="UTF-8" standalone="no"?>
<svg width="91px" height="80px" viewBox="0 0 91 80" version="1.1" xmlns="http://www.w3.org/2000/svg" xmlns:xlink="http://www.w3.org/1999/xlink">
    <!-- Generator: Sketch 44 (41411) - http://www.bohemiancoding.com/sketch -->
    <title>Combined Shape</title>
    <desc>Created with Sketch.</desc>
    <defs></defs>
    <g id="Презентация" stroke="none" stroke-width="1" fill="none" fill-rule="evenodd">
        <g id="Artboard" transform="translate(-1305.000000, -424.000000)" fill="#D8D8D8">
            <path d="M1344.27122,491.901483 C1340.38632,493.234462 1335.84812,494 1331,494 C1317.816,494 1306.92392,488.338719 1305.2291,481 L1305,481 L1305,437 L1305.2291,437 C1306.92392,429.661281 1317.816,424 1331,424 C1344.184,424 1355.07608,429.661281 1356.7709,437 L1357,437 L1357,455.148941 C1358.22556,454.65359 1359.02158,454.395287 1359.02158,454.395287 C1362.32307,453.483803 1365.92112,453 1369.63491,453 C1376.53499,453 1383.04631,454.655435 1387.96988,457.661371 C1393.1482,460.822676 1396,465.112763 1396,469.741235 L1396,487.258765 C1396,491.887237 1393.1482,496.177324 1387.96988,499.338906 C1383.04631,502.344842 1376.53499,504 1369.63491,504 C1362.73454,504 1356.22322,502.344842 1351.29993,499.338906 C1347.9106,497.269573 1345.51966,494.716356 1344.27122,491.901483 Z M1347.77248,449.779769 C1351.9395,447.231925 1354.23441,443.931645 1354.23441,440.486654 C1354.23441,437.041663 1351.9395,433.741383 1347.77248,431.193539 C1343.34961,428.48932 1337.43468,427 1331.1172,427 C1324.79973,427 1318.8848,428.48932 1314.46193,431.193539 C1310.29491,433.741105 1308,437.041663 1308,440.486654 C1308,443.931645 1310.29491,447.232203 1314.46193,449.779769 C1318.8848,452.483988 1324.79973,453.973308 1331.1172,453.973308 C1337.43468,453.973308 1343.34961,452.483988 1347.77248,449.779769 Z M1386.77248,478.779769 C1390.9395,476.231925 1393.23441,472.931645 1393.23441,469.486654 C1393.23441,466.041663 1390.9395,462.741383 1386.77248,460.193539 C1382.34961,457.48932 1376.43468,456 1370.1172,456 C1363.79973,456 1357.8848,457.48932 1353.46193,460.193539 C1349.29491,462.741105 1347,466.041663 1347,469.486654 C1347,472.931645 1349.29491,476.232203 1353.46193,478.779769 C1357.8848,481.483988 1363.79973,482.973308 1370.1172,482.973308 C1376.43468,482.973308 1382.34961,481.483988 1386.77248,478.779769 Z M1393.23441,478.476627 L1393.23441,478 C1392.11904,479.269339 1390.7367,480.448963 1389.10379,481.511374 L1389.10379,486.100436 C1391.78373,483.852568 1393.23441,481.210844 1393.23441,478.476627 Z M1393.23441,487.349499 L1393.23441,486.87315 C1392.11904,488.142211 1390.7367,489.321835 1389.10379,490.384802 L1389.10379,494.973586 C1391.78373,492.72544 1393.23441,490.083993 1393.23441,487.349499 Z M1387.99258,486.958976 L1387.99258,482.188818 C1386.42301,483.098742 1384.70453,483.876177 1382.87104,484.512791 L1382.87104,489.689859 C1384.26533,489.141294 1385.57516,488.501625 1386.77248,487.769742 C1387.20085,487.507819 1387.60422,487.235897 1387.99258,486.958976 Z M1387.99258,495.831848 L1387.99258,491.061967 C1386.42301,491.971892 1384.70453,492.749327 1382.87104,493.385663 L1382.87104,498.563009 C1384.26533,498.014444 1385.57516,497.374775 1386.77248,496.642614 C1387.20085,496.380691 1387.60422,496.109047 1387.99258,495.831848 Z M1381.75984,490.100103 L1381.75984,484.876649 C1380.12498,485.38133 1378.41123,485.779352 1376.6383,486.060717 L1376.6383,491.409438 C1378.42901,491.098909 1380.14526,490.659779 1381.75984,490.100103 Z M1381.75984,498.973253 L1381.75984,493.749799 C1380.12498,494.254479 1378.41123,494.652502 1376.6383,494.933867 L1376.6383,500.282588 C1378.42901,499.972058 1380.14526,499.532928 1381.75984,498.973253 Z M1375.5271,491.584424 L1375.5271,486.219593 C1373.85835,486.436519 1372.14515,486.553454 1370.40556,486.56512 L1370.40556,491.958837 C1372.15293,491.946338 1373.86724,491.819126 1375.5271,491.584424 Z M1375.5271,500.457296 L1375.5271,495.092743 C1373.85835,495.309947 1372.14515,495.426604 1370.40556,495.438269 L1370.40556,500.831987 C1372.15293,500.81921 1373.86724,500.692276 1375.5271,500.457296 Z M1369.29436,491.95106 L1369.29436,486.557065 C1367.55255,486.523734 1365.83935,486.385413 1364.17282,486.145988 L1364.17282,491.506097 C1365.82935,491.765798 1367.54449,491.914952 1369.29436,491.95106 Z M1369.29436,500.823932 L1369.29436,495.430215 C1367.55255,495.397162 1365.83935,495.258562 1364.17282,495.019138 L1364.17282,500.379247 C1365.82935,500.63867 1367.54449,500.787824 1369.29436,500.823932 Z M1363.06162,491.314169 L1363.06162,485.969892 C1361.28647,485.662973 1359.56994,485.243841 1357.94008,484.711385 L1357.94008,489.912619 C1359.54855,490.505347 1361.26647,490.974475 1363.06162,491.314169 Z M1363.06162,500.18704 L1363.06162,494.843041 C1361.28647,494.536122 1359.56994,494.116991 1357.94008,493.584535 L1357.94008,498.785768 C1359.54855,499.378497 1361.26647,499.847346 1363.06162,500.18704 Z M1356.82887,489.474322 L1356.82887,484.326695 C1354.994,483.654251 1353.27886,482.83793 1351.72262,481.886343 C1351.71762,481.883288 1351.71262,481.879954 1351.70734,481.876899 L1351.70734,486.562898 C1352.25016,486.980363 1352.83187,487.384496 1353.46193,487.769742 C1354.50507,488.407466 1355.63405,488.975197 1356.82887,489.474322 Z M1356.82887,498.347194 L1356.82887,493.199845 C1354.994,492.527123 1353.27886,491.71108 1351.72262,490.75977 C1351.71762,490.756437 1351.71262,490.753104 1351.70734,490.750049 L1351.70734,495.436047 C1352.25016,495.853235 1352.83187,496.257646 1353.46193,496.642614 C1354.50507,497.280616 1355.63378,497.848346 1356.82887,498.347194 Z M1342.75984,461.100103 L1342.75984,455.876649 C1341.12498,456.38133 1339.41123,456.779352 1337.6383,457.060717 L1337.6383,462.409438 C1339.42901,462.098909 1341.14526,461.659779 1342.75984,461.100103 Z M1342.75984,469.973253 L1342.75984,464.749799 C1341.12498,465.254479 1339.41123,465.652502 1337.6383,465.933867 L1337.6383,471.282588 C1339.42901,470.972058 1341.14526,470.532928 1342.75984,469.973253 Z M1336.5271,462.584424 L1336.5271,457.219593 C1334.85835,457.436519 1333.14515,457.553454 1331.40556,457.56512 L1331.40556,462.958837 C1333.15293,462.946338 1334.86724,462.819126 1336.5271,462.584424 Z M1336.5271,471.457296 L1336.5271,466.092743 C1334.85835,466.309947 1333.14515,466.426604 1331.40556,466.438269 L1331.40556,471.831987 C1333.15293,471.81921 1334.86724,471.692276 1336.5271,471.457296 Z M1330.29436,462.95106 L1330.29436,457.557065 C1328.55255,457.523734 1326.83935,457.385413 1325.17282,457.145988 L1325.17282,462.506097 C1326.82935,462.765798 1328.54449,462.914952 1330.29436,462.95106 Z M1330.29436,471.823932 L1330.29436,466.430215 C1328.55255,466.397162 1326.83935,466.258562 1325.17282,466.019138 L1325.17282,471.379247 C1326.82935,471.63867 1328.54449,471.787824 1330.29436,471.823932 Z M1324.06162,462.314169 L1324.06162,456.969892 C1322.28647,456.662973 1320.56994,456.243841 1318.94008,455.711385 L1318.94008,460.912619 C1320.54855,461.505347 1322.26647,461.974475 1324.06162,462.314169 Z M1324.06162,471.18704 L1324.06162,465.843041 C1322.28647,465.536122 1320.56994,465.116991 1318.94008,464.584535 L1318.94008,469.785768 C1320.54855,470.378497 1322.26647,470.847346 1324.06162,471.18704 Z M1317.82887,460.474322 L1317.82887,455.326695 C1315.994,454.654251 1314.27886,453.83793 1312.72262,452.886343 C1312.71762,452.883288 1312.71262,452.879954 1312.70734,452.876899 L1312.70734,457.562898 C1313.25016,457.980363 1313.83187,458.384496 1314.46193,458.769742 C1315.50507,459.407466 1316.63405,459.975197 1317.82887,460.474322 Z M1317.82887,469.347194 L1317.82887,464.199845 C1315.994,463.527123 1314.27886,462.71108 1312.72262,461.75977 C1312.71762,461.756437 1312.71262,461.753104 1312.70734,461.750049 L1312.70734,466.436047 C1313.25016,466.853235 1313.83187,467.257646 1314.46193,467.642614 C1315.50507,468.280616 1316.63378,468.848346 1317.82887,469.347194 Z M1311.59613,456.634086 L1311.59613,452.153071 C1310.19435,451.185651 1308.99119,450.128239 1308,449 L1308,449.476627 C1308,452.023637 1309.25788,454.490931 1311.59613,456.634086 Z M1342.75984,479.100103 L1342.75984,473.876649 C1341.12498,474.38133 1339.41123,474.779352 1337.6383,475.060717 L1337.6383,480.409438 C1339.42901,480.098909 1341.14526,479.659779 1342.75984,479.100103 Z M1342.75984,487.973253 L1342.75984,482.749799 C1341.12498,483.254479 1339.41123,483.652502 1337.6383,483.933867 L1337.6383,489.282588 C1339.42901,488.972058 1341.14526,488.532928 1342.75984,487.973253 Z M1336.5271,480.584424 L1336.5271,475.219593 C1334.85835,475.436519 1333.14515,475.553454 1331.40556,475.56512 L1331.40556,480.958837 C1333.15293,480.946338 1334.86724,480.819126 1336.5271,480.584424 Z M1336.5271,489.457296 L1336.5271,484.092743 C1334.85835,484.309947 1333.14515,484.426604 1331.40556,484.438269 L1331.40556,489.831987 C1333.15293,489.81921 1334.86724,489.692276 1336.5271,489.457296 Z M1330.29436,480.95106 L1330.29436,475.557065 C1328.55255,475.523734 1326.83935,475.385413 1325.17282,475.145988 L1325.17282,480.506097 C1326.82935,480.765798 1328.54449,480.914952 1330.29436,480.95106 Z M1330.29436,489.823932 L1330.29436,484.430215 C1328.55255,484.397162 1326.83935,484.258562 1325.17282,484.019138 L1325.17282,489.379247 C1326.82935,489.63867 1328.54449,489.787824 1330.29436,489.823932 Z M1324.06162,480.314169 L1324.06162,474.969892 C1322.28647,474.662973 1320.56994,474.243841 1318.94008,473.711385 L1318.94008,478.912619 C1320.54855,479.505347 1322.26647,479.974475 1324.06162,480.314169 Z M1324.06162,489.18704 L1324.06162,483.843041 C1322.28647,483.536122 1320.56994,483.116991 1318.94008,482.584535 L1318.94008,487.785768 C1320.54855,488.378497 1322.26647,488.847346 1324.06162,489.18704 Z M1317.82887,478.474322 L1317.82887,473.326695 C1315.994,472.654251 1314.27886,471.83793 1312.72262,470.886343 C1312.71762,470.883288 1312.71262,470.879954 1312.70734,470.876899 L1312.70734,475.562898 C1313.25016,475.980363 1313.83187,476.384496 1314.46193,476.769742 C1315.50507,477.407466 1316.63405,477.975197 1317.82887,478.474322 Z M1317.82887,487.347194 L1317.82887,482.199845 C1315.994,481.527123 1314.27886,480.71108 1312.72262,479.75977 C1312.71762,479.756437 1312.71262,479.753104 1312.70734,479.750049 L1312.70734,484.436047 C1313.25016,484.853235 1313.83187,485.257646 1314.46193,485.642614 C1315.50507,486.280616 1316.63378,486.848346 1317.82887,487.347194 Z M1311.59613,474.634086 L1311.59613,470.153071 C1310.19435,469.185651 1308.99119,468.128239 1308,467 L1308,467.476627 C1308,470.023637 1309.25788,472.490931 1311.59613,474.634086 Z M1311.59613,483.507236 L1311.59613,479.02622 C1310.19435,478.058523 1308.99119,477.001389 1308,475.87315 L1308,476.349499 C1308,478.896787 1309.25788,481.364081 1311.59613,483.507236 Z M1311.59613,465.507236 L1311.59613,461.02622 C1310.19435,460.058523 1308.99119,459.001389 1308,457.87315 L1308,458.349499 C1308,460.896787 1309.25788,463.364081 1311.59613,465.507236 Z M1354.23441,449.476627 L1354.23441,449 C1353.11904,450.269339 1351.7367,451.448963 1350.10379,452.511374 L1350.10379,457.100436 C1352.78373,454.852568 1354.23441,452.210844 1354.23441,449.476627 Z M1348.99258,457.958976 L1348.99258,453.188818 C1347.42301,454.098742 1345.70453,454.876177 1343.87104,455.512791 L1343.87104,460.689859 C1345.26533,460.141294 1346.57516,459.501625 1347.77248,458.769742 C1348.20085,458.507819 1348.60422,458.235897 1348.99258,457.958976 Z M1350.59613,485.634086 L1350.59613,481.153071 C1349.19435,480.185651 1347.99119,479.128239 1347,478 L1347,478.476627 C1347,481.023637 1348.25788,483.490931 1350.59613,485.634086 Z M1350.59613,494.507236 L1350.59613,490.02622 C1349.19435,489.058523 1347.99119,488.001389 1347,486.87315 L1347,487.349499 C1347,489.896787 1348.25788,492.364081 1350.59613,494.507236 Z M1345,469.09045 L1345,469.09045 L1345,467.342995 C1345,465.959646 1345.44571,464.669362 1346.18382,463.481046 C1345.43626,463.808539 1344.66442,464.110311 1343.87104,464.385663 L1343.87104,469.563009 C1344.25393,469.412369 1344.63044,469.254859 1345,469.09045 Z M1345,478.217306 L1345,478.217306 L1345,473.097305 C1344.62886,473.241844 1344.25244,473.380364 1343.87104,473.512791 L1343.87104,478.689859 C1344.25393,478.539219 1344.63044,478.381709 1345,478.217306 Z M1345,487.09045 L1345,487.09045 L1345,481.970317 C1344.62886,482.114819 1344.25244,482.253294 1343.87104,482.385663 L1343.87104,487.563009 C1344.25393,487.412369 1344.63044,487.254859 1345,487.09045 Z" id="Combined-Shape"></path>
        </g>
    </g>
</svg>