<?xml version="1.0" encoding="UTF-8" standalone="no"?>
<svg width="53px" height="52px" viewBox="0 0 53 52" version="1.1" xmlns="http://www.w3.org/2000/svg" xmlns:xlink="http://www.w3.org/1999/xlink">
    <!-- Generator: Sketch 44 (41411) - http://www.bohemiancoding.com/sketch -->
    <title>Shape</title>
    <desc>Created with Sketch.</desc>
    <defs></defs>
    <g id="Презентация" stroke="none" stroke-width="1" fill="none" fill-rule="evenodd">
        <g id="Artboard" transform="translate(-1404.000000, -414.000000)" fill-rule="nonzero" fill="#1DB318">
            <path d="M1452.83546,448.419355 L1452.83546,447.943006 C1451.72009,449.212067 1450.33775,450.39169 1448.70484,451.454657 L1448.70484,456.043442 C1451.38478,453.795296 1452.83546,451.153849 1452.83546,448.419355 Z M1410.19718,455.577092 L1410.19718,451.096076 C1408.7954,450.128379 1407.59224,449.071245 1406.60105,447.943006 L1406.60105,448.419355 C1406.60105,450.966643 1407.85893,453.433937 1410.19718,455.577092 Z M1429.71825,414 C1436.64078,414 1443.17326,415.663195 1448.11284,418.683221 C1453.308,421.859345 1456.16907,426.169542 1456.16907,430.81971 L1456.16907,448.419355 C1456.16907,453.069523 1453.308,457.379719 1448.11284,460.556121 C1443.17326,463.576148 1436.64078,465.239065 1429.71825,465.239065 C1422.79546,465.239065 1416.26297,463.576148 1411.32367,460.556121 C1407.65808,458.314919 1405.15649,455.508764 1404,452.417355 C1404,452.417355 1404,430.81971 1404,430.81971 C1404,430.81971 1404,434.600063 1404,428.342995 C1404,420.299049 1419.07042,415.401828 1419.07042,415.401828 C1422.38264,414.486071 1425.99239,414 1429.71825,414 Z M1446.37353,440.112824 C1450.54054,437.564981 1452.83546,434.264701 1452.83546,430.81971 C1452.83546,427.374719 1450.54054,424.074438 1446.37353,421.526595 C1441.95066,418.822376 1436.03573,417.333056 1429.71825,417.333056 C1423.40078,417.333056 1417.48585,418.822376 1413.06298,421.526595 C1408.89596,424.074161 1406.60105,427.374719 1406.60105,430.81971 C1406.60105,434.264701 1408.89596,437.565259 1413.06298,440.112824 C1417.48585,442.817044 1423.40078,444.306364 1429.71825,444.306364 C1436.03573,444.306364 1441.95066,442.817044 1446.37353,440.112824 Z M1452.83546,439.546483 L1452.83546,439.069856 C1451.72009,440.339195 1450.33775,441.518819 1448.70484,442.58123 L1448.70484,447.170292 C1451.38478,444.922424 1452.83546,442.2807 1452.83546,439.546483 Z M1447.59363,448.028832 L1447.59363,443.258674 C1446.02406,444.168598 1444.30558,444.946033 1442.47209,445.582647 L1442.47209,450.759715 C1443.86638,450.21115 1445.17621,449.571481 1446.37353,448.839598 C1446.8019,448.577675 1447.20527,448.305753 1447.59363,448.028832 Z M1447.59363,456.901704 L1447.59363,452.131823 C1446.02406,453.041747 1444.30558,453.819183 1442.47209,454.455519 L1442.47209,459.632865 C1443.86638,459.0843 1445.17621,458.444631 1446.37353,457.712469 C1446.8019,457.450547 1447.20527,457.178903 1447.59363,456.901704 Z M1441.36089,451.169959 L1441.36089,445.946505 C1439.72603,446.451185 1438.01228,446.849208 1436.23935,447.130573 L1436.23935,452.479294 C1438.03006,452.168765 1439.74631,451.729635 1441.36089,451.169959 Z M1441.36089,460.043109 L1441.36089,454.819655 C1439.72603,455.324335 1438.01228,455.722357 1436.23935,456.003723 L1436.23935,461.352444 C1438.03006,461.041914 1439.74631,460.602784 1441.36089,460.043109 Z M1435.12815,452.65428 L1435.12815,447.289449 C1433.4594,447.506375 1431.7462,447.62331 1430.00661,447.634976 L1430.00661,453.028693 C1431.75398,453.016194 1433.46829,452.888982 1435.12815,452.65428 Z M1435.12815,461.527152 L1435.12815,456.162599 C1433.4594,456.379803 1431.7462,456.49646 1430.00661,456.508125 L1430.00661,461.901843 C1431.75398,461.889066 1433.46829,461.762132 1435.12815,461.527152 Z M1428.89541,453.020916 L1428.89541,447.626921 C1427.1536,447.59359 1425.4404,447.455268 1423.77387,447.215844 L1423.77387,452.575953 C1425.4304,452.835654 1427.14554,452.984808 1428.89541,453.020916 Z M1428.89541,461.893788 L1428.89541,456.50007 C1427.1536,456.467018 1425.4404,456.328418 1423.77387,456.088994 L1423.77387,461.449103 C1425.4304,461.708525 1427.14554,461.85768 1428.89541,461.893788 Z M1422.66267,452.384024 L1422.66267,447.039748 C1420.88752,446.732829 1419.17099,446.313697 1417.54113,445.781241 L1417.54113,450.982475 C1419.1496,451.575203 1420.86752,452.044331 1422.66267,452.384024 Z M1422.66267,461.256896 L1422.66267,455.912897 C1420.88752,455.605978 1419.17099,455.186847 1417.54113,454.654391 L1417.54113,459.855624 C1419.1496,460.448353 1420.86752,460.917202 1422.66267,461.256896 Z M1416.42992,450.544178 L1416.42992,445.396551 C1414.59505,444.724107 1412.87991,443.907786 1411.32367,442.956199 C1411.31867,442.953143 1411.31366,442.94981 1411.30839,442.946755 L1411.30839,447.632754 C1411.85121,448.050219 1412.43292,448.454352 1413.06298,448.839597 C1414.10612,449.477322 1415.2351,450.045053 1416.42992,450.544178 Z M1416.42992,459.41705 L1416.42992,454.269701 C1414.59505,453.596979 1412.87991,452.780936 1411.32367,451.829626 C1411.31867,451.826293 1411.31366,451.82296 1411.30839,451.819905 L1411.30839,456.505903 C1411.85121,456.923091 1412.43292,457.327502 1413.06298,457.712469 C1414.10612,458.350472 1415.23483,458.918202 1416.42992,459.41705 Z M1410.19718,446.703942 L1410.19718,442.222927 C1408.7954,441.255507 1407.59224,440.198095 1406.60105,439.069856 L1406.60105,439.546483 C1406.60105,442.093493 1407.85893,444.560787 1410.19718,446.703942 Z" id="Shape"></path>
        </g>
    </g>
</svg>