<svg width="64" height="65" viewBox="0 0 64 65" fill="none" xmlns="http://www.w3.org/2000/svg">
    <g filter="url(#filter0_d)">
        <circle cx="32" cy="32" r="32" fill="#0085BA"/>
        <circle cx="32" cy="32" r="31.5" stroke="#006799"/>
    </g>
    <path fill-rule="evenodd" clip-rule="evenodd" d="M48.6673 21.3877H30.6316C28.5008 21.3877 26.7668 23.1217 26.7668 25.2525L25 38.1352C25 40.266 26.734 42 28.8648 42H46.9006C49.0314 42 50.7654 40.266 50.7654 38.1352L52.5322 25.2525C52.5322 23.1217 50.7981 21.3877 48.6673 21.3877Z" fill="white"/>
    <path fill-rule="evenodd" clip-rule="evenodd" d="M46.9009 39.4246H28.8652C28.1553 39.4246 27.5769 38.8474 27.5769 38.1363L29.3437 25.5757L38.8769 32.7256C39.1062 32.8982 39.378 32.9832 39.6498 32.9832C39.9216 32.9832 40.1935 32.8982 40.4228 32.7256L49.956 25.5757L48.1892 38.1363C48.1892 38.8474 47.6108 39.4246 46.9009 39.4246Z" fill="#0895CD"/>
    <path fill-rule="evenodd" clip-rule="evenodd" d="M47.8082 23.9644L39.6496 30.0836L31.491 23.9644H47.8082Z" fill="#0895CD"/>
    <line x1="14" y1="29" x2="22" y2="29" stroke="white" stroke-width="2" stroke-linecap="round"/>
    <line x1="8" y1="34" x2="16" y2="34" stroke="white" stroke-width="2" stroke-linecap="round"/>
    <defs>
        <filter id="filter0_d" x="0" y="0" width="64" height="65" filterUnits="userSpaceOnUse" color-interpolation-filters="sRGB">
            <feFlood flood-opacity="0" result="BackgroundImageFix"/>
            <feColorMatrix in="SourceAlpha" type="matrix" values="0 0 0 0 0 0 0 0 0 0 0 0 0 0 0 0 0 0 127 0"/>
            <feOffset dy="1"/>
            <feColorMatrix type="matrix" values="0 0 0 0 0 0 0 0 0 0.403922 0 0 0 0 0.6 0 0 0 1 0"/>
            <feBlend mode="normal" in2="BackgroundImageFix" result="effect1_dropShadow"/>
            <feBlend mode="normal" in="SourceGraphic" in2="effect1_dropShadow" result="shape"/>
        </filter>
    </defs>
</svg>