<?xml version="1.0" encoding="UTF-8" standalone="no"?>
<svg width="120px" height="104px" viewBox="0 0 120 104" version="1.1" xmlns="http://www.w3.org/2000/svg" xmlns:xlink="http://www.w3.org/1999/xlink">
    <title>Shape</title>
    <desc>Created with Sketch.</desc>
    <defs></defs>
    <g id="Презентация" stroke="none" stroke-width="1" fill="none" fill-rule="evenodd">
        <g id="Artboard" transform="translate(-2254.000000, -1417.000000)" fill-rule="nonzero" fill="#FF001F">
            <path d="M2374,1448.2552 L2374,1453.6192 C2373.916,1453.9792 2373.82,1454.3512 2373.76,1454.7232 C2373.00477,1460.59124 2371.09613,1466.2519 2368.144,1471.3792 C2365.654,1475.46097 2362.79396,1479.30516 2359.6,1482.8632 C2355.5034,1487.56022 2351.0933,1491.97433 2346.4,1496.0752 C2342.092,1499.8192 2337.712,1503.4912 2333.2,1506.8752 C2327.2,1511.3872 2320.96,1515.6232 2314.84,1520.0032 C2314.42217,1520.37329 2313.79383,1520.37329 2313.376,1520.0032 C2307.988,1516.2112 2302.456,1512.5872 2297.212,1508.5912 C2291.692,1504.3792 2286.412,1499.9272 2281.084,1495.3912 C2274.38071,1489.68883 2268.34249,1483.24806 2263.084,1476.1912 C2259.09288,1470.85858 2256.32345,1464.71342 2254.972,1458.1912 C2254.552,1456.6552 2254.276,1455.2512 2254,1453.7872 L2254,1448.2552 C2254.072,1447.9432 2254.132,1447.6432 2254.204,1447.3312 C2254.732,1444.9312 2255.068,1442.5312 2255.824,1440.1312 C2258.35566,1432.19014 2263.82412,1425.51552 2271.112,1421.4712 C2277.89548,1417.51038 2285.87597,1416.11784 2293.6,1417.5472 C2301.13371,1418.79149 2308.00345,1422.60801 2313.04,1428.3472 C2313.28685,1428.68551 2313.49987,1429.04724 2313.676,1429.4272 C2314.984,1428.1192 2315.956,1427.1112 2316.976,1426.1632 C2329.90796,1414.0789 2349.97039,1414.01088 2362.984,1426.0072 C2367.86071,1430.43669 2371.30729,1436.21858 2372.884,1442.6152 C2373.412,1444.4512 2373.652,1446.3472 2374,1448.2552 Z" id="Shape"></path>
        </g>
    </g>
</svg>