<?xml version="1.0" encoding="UTF-8" standalone="no"?>
<svg width="100px" height="97px" viewBox="0 0 100 97" version="1.1" xmlns="http://www.w3.org/2000/svg" xmlns:xlink="http://www.w3.org/1999/xlink">
    <!-- Generator: Sketch 43.1 (39012) - http://www.bohemiancoding.com/sketch -->
    <title>Group</title>
    <desc>Created with Sketch.</desc>
    <defs></defs>
    <g id="Page-1" stroke="none" stroke-width="1" fill="none" fill-rule="evenodd">
        <g id="Artboard-2">
            <g id="Group">
                <path d="M10.4078348,39.3091215 C9.49594936,37.8042038 9,36.1856941 9,34.5 C9,26.4918711 20.1928813,20 34,20 C47.8071187,20 59,26.4918711 59,34.5 C59,36.4009656 58.3692921,38.2164916 57.222625,39.8800235 C58.3447109,40.3910922 59,41.106551 59,42.0976562 C59,48.3369141 59,50.4727575 59,53 C59,60.7319865 47.8071187,67 34,67 C20.1928813,67 9,60.7319865 9,53 C9,48.3150315 9,51.0546875 9,40.3486328 C9,39.899795 9.51760526,39.5612986 10.4078348,39.3091215 Z" id="Combined-Shape" fill="#FFFFFF"></path>
                <path d="M50.3735311,44.1128245 C45.9506625,46.8170437 40.0357252,48.3063641 33.7182543,48.3063641 C27.4007834,48.3063641 21.485846,46.8170437 17.0629774,44.1128245 C12.8959635,41.565259 10.60105,38.2647006 10.60105,34.8197099 C10.60105,31.3747191 12.8959635,28.0741607 17.0629774,25.5265952 C21.485846,22.822376 27.4007834,21.3330557 33.7182543,21.3330557 C40.0357252,21.3330557 45.9506625,22.822376 50.3735311,25.5265952 C54.540545,28.0744385 56.8354585,31.3747191 56.8354585,34.8197099 C56.8354585,38.2647006 54.540545,41.5649812 50.3735311,44.1128245 L50.3735311,44.1128245 L50.3735311,44.1128245 Z M56.8354585,43.5464828 C56.8354585,46.2806995 55.384782,48.9224239 52.7048365,51.1702921 L52.7048365,46.58123 C54.3377503,45.5188185 55.7200877,44.3391946 56.8354585,43.0698559 L56.8354585,43.5464828 L56.8354585,43.5464828 Z M56.8354585,52.4193547 C56.8354585,55.1538492 55.384782,57.7952958 52.7048365,60.0434418 L52.7048365,55.4546574 C54.3377503,54.3916904 55.7200877,53.2120665 56.8354585,51.9430055 L56.8354585,52.4193547 L56.8354585,52.4193547 Z M51.5936328,52.0288317 C51.2052671,52.3057531 50.8019001,52.5776749 50.3735311,52.8395975 C49.1762091,53.571481 47.8663777,54.2111499 46.4720949,54.7597153 L46.4720949,49.5826466 C48.305581,48.946033 50.0240575,48.1685978 51.5936328,47.2586736 L51.5936328,52.0288317 L51.5936328,52.0288317 Z M51.5936328,60.9017036 C51.2052671,61.1789028 50.8019001,61.4505468 50.3735311,61.7124694 C49.1762091,62.4446306 47.8663777,63.0842996 46.4720949,63.632865 L46.4720949,58.4555185 C48.305581,57.8191827 50.0240575,57.0417474 51.5936328,56.1318232 L51.5936328,60.9017036 L51.5936328,60.9017036 Z M45.3608911,55.1699589 C43.7463121,55.7296345 42.030058,56.1687646 40.2393532,56.4792943 L40.2393532,51.1305732 C42.0122788,50.8492078 43.7260327,50.4511854 45.3608911,49.9465052 L45.3608911,55.1699589 L45.3608911,55.1699589 Z M45.3608911,64.0431086 C43.7463121,64.6027842 42.030058,65.0419143 40.2393532,65.352444 L40.2393532,60.0037229 C42.0122788,59.7223574 43.7260327,59.324335 45.3608911,58.8196549 L45.3608911,64.0431086 L45.3608911,64.0431086 Z M39.1281495,56.6542797 C37.468289,56.8889824 35.7539795,57.016194 34.0066116,57.028693 L34.0066116,51.6349756 C35.746201,51.62331 37.4593993,51.5063752 39.1281495,51.2894489 L39.1281495,56.6542797 L39.1281495,56.6542797 Z M39.1281495,65.5271516 C37.468289,65.762132 35.7539795,65.8890659 34.0066116,65.9018426 L34.0066116,60.5081253 C35.746201,60.4964596 37.4593993,60.3798027 39.1281495,60.1625985 L39.1281495,65.5271516 L39.1281495,65.5271516 Z M32.8954079,57.0209158 C31.1455399,56.9848077 29.4303969,56.8356535 27.77387,56.5759529 L27.77387,51.2158439 C29.4403978,51.4552684 31.1535961,51.5935902 32.8954079,51.6269208 L32.8954079,57.0209158 L32.8954079,57.0209158 Z M32.8954079,65.8937877 C31.1455399,65.8576796 29.4303969,65.7085254 27.77387,65.4491026 L27.77387,60.0889936 C29.4403978,60.3284181 31.1535961,60.4670176 32.8954079,60.5000704 L32.8954079,65.8937877 L32.8954079,65.8937877 Z M26.6626663,56.3840244 C24.8675167,56.0443305 23.1495958,55.5752029 21.5411284,54.9824745 L21.5411284,49.7812412 C23.1709864,50.3136968 24.8875184,50.7328286 26.6626663,51.0397475 L26.6626663,56.3840244 L26.6626663,56.3840244 Z M26.6626663,65.2568964 C24.8675167,64.9172024 23.1495958,64.4483526 21.5411284,63.8556242 L21.5411284,58.6543909 C23.1709864,59.1868465 24.8875184,59.6059782 26.6626663,59.9128971 L26.6626663,65.2568964 L26.6626663,65.2568964 Z M20.4299247,54.5441777 C19.2351029,54.0450526 18.1061199,53.4773222 17.0629774,52.8395975 C16.4329249,52.4543518 15.8512098,52.0502188 15.3083868,51.6327536 L15.3083868,46.9467551 C15.313665,46.9498104 15.3186654,46.9531435 15.3236658,46.9561988 C16.8799066,47.9077862 18.5950495,48.724107 20.4299247,49.396551 L20.4299247,54.5441777 L20.4299247,54.5441777 Z M20.4299247,63.4170496 C19.2348251,62.9182023 18.1061199,62.3504718 17.0629774,61.7124694 C16.4329249,61.3275015 15.8512098,60.9230907 15.3083868,60.5059033 L15.3083868,55.8199048 C15.313665,55.8229601 15.3186654,55.8262931 15.3236658,55.8296262 C16.8799066,56.7809358 18.5950495,57.596979 20.4299247,58.2697007 L20.4299247,63.4170496 L20.4299247,63.4170496 Z M14.1971831,50.7039421 C11.8589326,48.5607873 10.60105,46.0934929 10.60105,43.5464828 L10.60105,43.0698559 C11.5922438,44.1980952 12.7953996,45.2555071 14.1971831,46.2229265 L14.1971831,50.7039421 L14.1971831,50.7039421 Z M14.1971831,59.5770918 C11.8589326,57.433937 10.60105,54.9666425 10.60105,52.4193547 L10.60105,51.9430055 C11.5922438,53.0712449 12.7953996,54.128379 14.1971831,55.0960762 L14.1971831,59.5770918 L14.1971831,59.5770918 Z M33.7182543,18 C29.9923882,18 26.382643,18.4860706 23.0704225,19.4018277 C23.0704225,19.4018277 8,24.2990494 8,32.3429947 C8,38.6000626 8,34.8197099 8,34.8197099 C8,34.8197099 8,56.417355 8,56.417355 C9.1564852,59.5087641 11.6580826,62.3149192 15.3236658,64.5561214 C20.2629663,67.5761476 26.7954551,69.2390646 33.7182543,69.2390646 C40.6407756,69.2390646 47.1732644,67.5761476 52.1128427,64.5561214 C57.3079978,61.3797194 60.1690696,57.0695229 60.1690696,52.4193547 L60.1690696,34.8197099 C60.1690696,30.1695417 57.3079978,25.8593452 52.1128427,22.683221 C47.1732644,19.6631948 40.6407756,18 33.7182543,18 Z" id="Shape" fill="#1DB318" fill-rule="nonzero"></path>
                <path d="M10.4078348,21.3091215 C9.49594936,19.8042038 9,18.1856941 9,16.5 C9,8.49187113 20.1928813,2 34,2 C47.8071187,2 59,8.49187113 59,16.5 C59,18.4009656 58.3692921,20.2164916 57.222625,21.8800235 C58.3447109,22.3910922 59,23.106551 59,24.0976562 C59,30.3369141 59,32.4727575 59,35 C59,42.7319865 47.8071187,49 34,49 C20.1928813,49 9,42.7319865 9,35 C9,30.3150315 9,33.0546875 9,22.3486328 C9,21.899795 9.51760526,21.5612986 10.4078348,21.3091215 Z" id="Combined-Shape" fill="#FFFFFF"></path>
                <path d="M50.3735311,26.1128245 C45.9506625,28.8170437 40.0357252,30.3063641 33.7182543,30.3063641 C27.4007834,30.3063641 21.485846,28.8170437 17.0629774,26.1128245 C12.8959635,23.565259 10.60105,20.2647006 10.60105,16.8197099 C10.60105,13.3747191 12.8959635,10.0741607 17.0629774,7.5265952 C21.485846,4.822376 27.4007834,3.3330557 33.7182543,3.3330557 C40.0357252,3.3330557 45.9506625,4.822376 50.3735311,7.5265952 C54.540545,10.0744385 56.8354585,13.3747191 56.8354585,16.8197099 C56.8354585,20.2647006 54.540545,23.5649812 50.3735311,26.1128245 L50.3735311,26.1128245 L50.3735311,26.1128245 Z M56.8354585,25.5464828 C56.8354585,28.2806995 55.384782,30.9224239 52.7048365,33.1702921 L52.7048365,28.58123 C54.3377503,27.5188185 55.7200877,26.3391946 56.8354585,25.0698559 L56.8354585,25.5464828 L56.8354585,25.5464828 Z M56.8354585,34.4193547 C56.8354585,37.1538492 55.384782,39.7952958 52.7048365,42.0434418 L52.7048365,37.4546574 C54.3377503,36.3916904 55.7200877,35.2120665 56.8354585,33.9430055 L56.8354585,34.4193547 L56.8354585,34.4193547 Z M51.5936328,34.0288317 C51.2052671,34.3057531 50.8019001,34.5776749 50.3735311,34.8395975 C49.1762091,35.571481 47.8663777,36.2111499 46.4720949,36.7597153 L46.4720949,31.5826466 C48.305581,30.946033 50.0240575,30.1685978 51.5936328,29.2586736 L51.5936328,34.0288317 L51.5936328,34.0288317 Z M51.5936328,42.9017036 C51.2052671,43.1789028 50.8019001,43.4505468 50.3735311,43.7124694 C49.1762091,44.4446306 47.8663777,45.0842996 46.4720949,45.632865 L46.4720949,40.4555185 C48.305581,39.8191827 50.0240575,39.0417474 51.5936328,38.1318232 L51.5936328,42.9017036 L51.5936328,42.9017036 Z M45.3608911,37.1699589 C43.7463121,37.7296345 42.030058,38.1687646 40.2393532,38.4792943 L40.2393532,33.1305732 C42.0122788,32.8492078 43.7260327,32.4511854 45.3608911,31.9465052 L45.3608911,37.1699589 L45.3608911,37.1699589 Z M45.3608911,46.0431086 C43.7463121,46.6027842 42.030058,47.0419143 40.2393532,47.352444 L40.2393532,42.0037229 C42.0122788,41.7223574 43.7260327,41.324335 45.3608911,40.8196549 L45.3608911,46.0431086 L45.3608911,46.0431086 Z M39.1281495,38.6542797 C37.468289,38.8889824 35.7539795,39.016194 34.0066116,39.028693 L34.0066116,33.6349756 C35.746201,33.62331 37.4593993,33.5063752 39.1281495,33.2894489 L39.1281495,38.6542797 L39.1281495,38.6542797 Z M39.1281495,47.5271516 C37.468289,47.762132 35.7539795,47.8890659 34.0066116,47.9018426 L34.0066116,42.5081253 C35.746201,42.4964596 37.4593993,42.3798027 39.1281495,42.1625985 L39.1281495,47.5271516 L39.1281495,47.5271516 Z M32.8954079,39.0209158 C31.1455399,38.9848077 29.4303969,38.8356535 27.77387,38.5759529 L27.77387,33.2158439 C29.4403978,33.4552684 31.1535961,33.5935902 32.8954079,33.6269208 L32.8954079,39.0209158 L32.8954079,39.0209158 Z M32.8954079,47.8937877 C31.1455399,47.8576796 29.4303969,47.7085254 27.77387,47.4491026 L27.77387,42.0889936 C29.4403978,42.3284181 31.1535961,42.4670176 32.8954079,42.5000704 L32.8954079,47.8937877 L32.8954079,47.8937877 Z M26.6626663,38.3840244 C24.8675167,38.0443305 23.1495958,37.5752029 21.5411284,36.9824745 L21.5411284,31.7812412 C23.1709864,32.3136968 24.8875184,32.7328286 26.6626663,33.0397475 L26.6626663,38.3840244 L26.6626663,38.3840244 Z M26.6626663,47.2568964 C24.8675167,46.9172024 23.1495958,46.4483526 21.5411284,45.8556242 L21.5411284,40.6543909 C23.1709864,41.1868465 24.8875184,41.6059782 26.6626663,41.9128971 L26.6626663,47.2568964 L26.6626663,47.2568964 Z M20.4299247,36.5441777 C19.2351029,36.0450526 18.1061199,35.4773222 17.0629774,34.8395975 C16.4329249,34.4543518 15.8512098,34.0502188 15.3083868,33.6327536 L15.3083868,28.9467551 C15.313665,28.9498104 15.3186654,28.9531435 15.3236658,28.9561988 C16.8799066,29.9077862 18.5950495,30.724107 20.4299247,31.396551 L20.4299247,36.5441777 L20.4299247,36.5441777 Z M20.4299247,45.4170496 C19.2348251,44.9182023 18.1061199,44.3504718 17.0629774,43.7124694 C16.4329249,43.3275015 15.8512098,42.9230907 15.3083868,42.5059033 L15.3083868,37.8199048 C15.313665,37.8229601 15.3186654,37.8262931 15.3236658,37.8296262 C16.8799066,38.7809358 18.5950495,39.596979 20.4299247,40.2697007 L20.4299247,45.4170496 L20.4299247,45.4170496 Z M14.1971831,32.7039421 C11.8589326,30.5607873 10.60105,28.0934929 10.60105,25.5464828 L10.60105,25.0698559 C11.5922438,26.1980952 12.7953996,27.2555071 14.1971831,28.2229265 L14.1971831,32.7039421 L14.1971831,32.7039421 Z M14.1971831,41.5770918 C11.8589326,39.433937 10.60105,36.9666425 10.60105,34.4193547 L10.60105,33.9430055 C11.5922438,35.0712449 12.7953996,36.128379 14.1971831,37.0960762 L14.1971831,41.5770918 L14.1971831,41.5770918 Z M33.7182543,0 C29.9923882,0 26.382643,0.4860706 23.0704225,1.4018277 C23.0704225,1.4018277 8,6.29904936 8,14.3429947 C8,20.6000626 8,16.8197099 8,16.8197099 C8,16.8197099 8,38.417355 8,38.417355 C9.1564852,41.5087641 11.6580826,44.3149192 15.3236658,46.5561214 C20.2629663,49.5761476 26.7954551,51.2390646 33.7182543,51.2390646 C40.6407756,51.2390646 47.1732644,49.5761476 52.1128427,46.5561214 C57.3079978,43.3797194 60.1690696,39.0695229 60.1690696,34.4193547 L60.1690696,16.8197099 C60.1690696,12.1695417 57.3079978,7.8593452 52.1128427,4.683221 C47.1732644,1.6631948 40.6407756,0 33.7182543,0 Z" id="Shape" fill="#1DB318" fill-rule="nonzero"></path>
                <path d="M49.4078348,50.3091215 C48.4959494,48.8042038 48,47.1856941 48,45.5 C48,37.4918711 59.1928813,31 73,31 C86.8071187,31 98,37.4918711 98,45.5 C98,47.4009656 97.3692921,49.2164916 96.222625,50.8800235 C97.3447109,51.3910922 98,52.106551 98,53.0976562 C98,59.3369141 98,61.4727575 98,64 C98,71.7319865 86.8071187,78 73,78 C59.1928813,78 48,71.7319865 48,64 C48,59.3150315 48,62.0546875 48,51.3486328 C48,50.899795 48.5176053,50.5612986 49.4078348,50.3091215 Z" id="Combined-Shape" fill="#FFFFFF"></path>
                <path d="M89.3735311,55.1128245 C84.9506625,57.8170437 79.0357252,59.3063641 72.7182543,59.3063641 C66.4007834,59.3063641 60.485846,57.8170437 56.0629774,55.1128245 C51.8959635,52.565259 49.60105,49.2647006 49.60105,45.8197099 C49.60105,42.3747191 51.8959635,39.0741607 56.0629774,36.5265952 C60.485846,33.822376 66.4007834,32.3330557 72.7182543,32.3330557 C79.0357252,32.3330557 84.9506625,33.822376 89.3735311,36.5265952 C93.540545,39.0744385 95.8354585,42.3747191 95.8354585,45.8197099 C95.8354585,49.2647006 93.540545,52.5649812 89.3735311,55.1128245 L89.3735311,55.1128245 L89.3735311,55.1128245 Z M95.8354585,54.5464828 C95.8354585,57.2806995 94.384782,59.9224239 91.7048365,62.1702921 L91.7048365,57.58123 C93.3377503,56.5188185 94.7200877,55.3391946 95.8354585,54.0698559 L95.8354585,54.5464828 L95.8354585,54.5464828 Z M95.8354585,63.4193547 C95.8354585,66.1538492 94.384782,68.7952958 91.7048365,71.0434418 L91.7048365,66.4546574 C93.3377503,65.3916904 94.7200877,64.2120665 95.8354585,62.9430055 L95.8354585,63.4193547 L95.8354585,63.4193547 Z M90.5936328,63.0288317 C90.2052671,63.3057531 89.8019001,63.5776749 89.3735311,63.8395975 C88.1762091,64.571481 86.8663777,65.2111499 85.4720949,65.7597153 L85.4720949,60.5826466 C87.305581,59.946033 89.0240575,59.1685978 90.5936328,58.2586736 L90.5936328,63.0288317 L90.5936328,63.0288317 Z M90.5936328,71.9017036 C90.2052671,72.1789028 89.8019001,72.4505468 89.3735311,72.7124694 C88.1762091,73.4446306 86.8663777,74.0842996 85.4720949,74.632865 L85.4720949,69.4555185 C87.305581,68.8191827 89.0240575,68.0417474 90.5936328,67.1318232 L90.5936328,71.9017036 L90.5936328,71.9017036 Z M84.3608911,66.1699589 C82.7463121,66.7296345 81.030058,67.1687646 79.2393532,67.4792943 L79.2393532,62.1305732 C81.0122788,61.8492078 82.7260327,61.4511854 84.3608911,60.9465052 L84.3608911,66.1699589 L84.3608911,66.1699589 Z M84.3608911,75.0431086 C82.7463121,75.6027842 81.030058,76.0419143 79.2393532,76.352444 L79.2393532,71.0037229 C81.0122788,70.7223574 82.7260327,70.324335 84.3608911,69.8196549 L84.3608911,75.0431086 L84.3608911,75.0431086 Z M78.1281495,67.6542797 C76.468289,67.8889824 74.7539795,68.016194 73.0066116,68.028693 L73.0066116,62.6349756 C74.746201,62.62331 76.4593993,62.5063752 78.1281495,62.2894489 L78.1281495,67.6542797 L78.1281495,67.6542797 Z M78.1281495,76.5271516 C76.468289,76.762132 74.7539795,76.8890659 73.0066116,76.9018426 L73.0066116,71.5081253 C74.746201,71.4964596 76.4593993,71.3798027 78.1281495,71.1625985 L78.1281495,76.5271516 L78.1281495,76.5271516 Z M71.8954079,68.0209158 C70.1455399,67.9848077 68.4303969,67.8356535 66.77387,67.5759529 L66.77387,62.2158439 C68.4403978,62.4552684 70.1535961,62.5935902 71.8954079,62.6269208 L71.8954079,68.0209158 L71.8954079,68.0209158 Z M71.8954079,76.8937877 C70.1455399,76.8576796 68.4303969,76.7085254 66.77387,76.4491026 L66.77387,71.0889936 C68.4403978,71.3284181 70.1535961,71.4670176 71.8954079,71.5000704 L71.8954079,76.8937877 L71.8954079,76.8937877 Z M65.6626663,67.3840244 C63.8675167,67.0443305 62.1495958,66.5752029 60.5411284,65.9824745 L60.5411284,60.7812412 C62.1709864,61.3136968 63.8875184,61.7328286 65.6626663,62.0397475 L65.6626663,67.3840244 L65.6626663,67.3840244 Z M65.6626663,76.2568964 C63.8675167,75.9172024 62.1495958,75.4483526 60.5411284,74.8556242 L60.5411284,69.6543909 C62.1709864,70.1868465 63.8875184,70.6059782 65.6626663,70.9128971 L65.6626663,76.2568964 L65.6626663,76.2568964 Z M59.4299247,65.5441777 C58.2351029,65.0450526 57.1061199,64.4773222 56.0629774,63.8395975 C55.4329249,63.4543518 54.8512098,63.0502188 54.3083868,62.6327536 L54.3083868,57.9467551 C54.313665,57.9498104 54.3186654,57.9531435 54.3236658,57.9561988 C55.8799066,58.9077862 57.5950495,59.724107 59.4299247,60.396551 L59.4299247,65.5441777 L59.4299247,65.5441777 Z M59.4299247,74.4170496 C58.2348251,73.9182023 57.1061199,73.3504718 56.0629774,72.7124694 C55.4329249,72.3275015 54.8512098,71.9230907 54.3083868,71.5059033 L54.3083868,66.8199048 C54.313665,66.8229601 54.3186654,66.8262931 54.3236658,66.8296262 C55.8799066,67.7809358 57.5950495,68.596979 59.4299247,69.2697007 L59.4299247,74.4170496 L59.4299247,74.4170496 Z M53.1971831,61.7039421 C50.8589326,59.5607873 49.60105,57.0934929 49.60105,54.5464828 L49.60105,54.0698559 C50.5922438,55.1980952 51.7953996,56.2555071 53.1971831,57.2229265 L53.1971831,61.7039421 L53.1971831,61.7039421 Z M53.1971831,70.5770918 C50.8589326,68.433937 49.60105,65.9666425 49.60105,63.4193547 L49.60105,62.9430055 C50.5922438,64.0712449 51.7953996,65.128379 53.1971831,66.0960762 L53.1971831,70.5770918 L53.1971831,70.5770918 Z M72.7182543,29 C68.9923882,29 65.382643,29.4860706 62.0704225,30.4018277 C62.0704225,30.4018277 47,35.2990494 47,43.3429947 C47,49.6000626 47,45.8197099 47,45.8197099 C47,45.8197099 47,67.417355 47,67.417355 C48.1564852,70.5087641 50.6580826,73.3149192 54.3236658,75.5561214 C59.2629663,78.5761476 65.7954551,80.2390646 72.7182543,80.2390646 C79.6407756,80.2390646 86.1732644,78.5761476 91.1128427,75.5561214 C96.3079978,72.3797194 99.1690696,68.0695229 99.1690696,63.4193547 L99.1690696,45.8197099 C99.1690696,41.1695417 96.3079978,36.8593452 91.1128427,33.683221 C86.1732644,30.6631948 79.6407756,29 72.7182543,29 Z" id="Shape" fill="#1DB318" fill-rule="nonzero"></path>
                <path d="M2.40783484,66.3091215 C1.49594936,64.8042038 1,63.1856941 1,61.5 C1,53.4918711 12.1928813,47 26,47 C39.8071187,47 51,53.4918711 51,61.5 C51,63.4009656 50.3692921,65.2164916 49.222625,66.8800235 C50.3447109,67.3910922 51,68.106551 51,69.0976562 C51,75.3369141 51,77.4727575 51,80 C51,87.7319865 39.8071187,94 26,94 C12.1928813,94 1,87.7319865 1,80 C1,75.3150315 1,78.0546875 1,67.3486328 C1,66.899795 1.51760526,66.5612986 2.40783484,66.3091215 Z" id="Combined-Shape" fill="#FFFFFF"></path>
                <path d="M42.3735311,71.1128245 C37.9506625,73.8170437 32.0357252,75.3063641 25.7182543,75.3063641 C19.4007834,75.3063641 13.485846,73.8170437 9.0629774,71.1128245 C4.8959635,68.565259 2.60105,65.2647006 2.60105,61.8197099 C2.60105,58.3747191 4.8959635,55.0741607 9.0629774,52.5265952 C13.485846,49.822376 19.4007834,48.3330557 25.7182543,48.3330557 C32.0357252,48.3330557 37.9506625,49.822376 42.3735311,52.5265952 C46.540545,55.0744385 48.8354585,58.3747191 48.8354585,61.8197099 C48.8354585,65.2647006 46.540545,68.5649812 42.3735311,71.1128245 L42.3735311,71.1128245 L42.3735311,71.1128245 Z M48.8354585,70.5464828 C48.8354585,73.2806995 47.384782,75.9224239 44.7048365,78.1702921 L44.7048365,73.58123 C46.3377503,72.5188185 47.7200877,71.3391946 48.8354585,70.0698559 L48.8354585,70.5464828 L48.8354585,70.5464828 Z M48.8354585,79.4193547 C48.8354585,82.1538492 47.384782,84.7952958 44.7048365,87.0434418 L44.7048365,82.4546574 C46.3377503,81.3916904 47.7200877,80.2120665 48.8354585,78.9430055 L48.8354585,79.4193547 L48.8354585,79.4193547 Z M43.5936328,79.0288317 C43.2052671,79.3057531 42.8019001,79.5776749 42.3735311,79.8395975 C41.1762091,80.571481 39.8663777,81.2111499 38.4720949,81.7597153 L38.4720949,76.5826466 C40.305581,75.946033 42.0240575,75.1685978 43.5936328,74.2586736 L43.5936328,79.0288317 L43.5936328,79.0288317 Z M43.5936328,87.9017036 C43.2052671,88.1789028 42.8019001,88.4505468 42.3735311,88.7124694 C41.1762091,89.4446306 39.8663777,90.0842996 38.4720949,90.632865 L38.4720949,85.4555185 C40.305581,84.8191827 42.0240575,84.0417474 43.5936328,83.1318232 L43.5936328,87.9017036 L43.5936328,87.9017036 Z M37.3608911,82.1699589 C35.7463121,82.7296345 34.030058,83.1687646 32.2393532,83.4792943 L32.2393532,78.1305732 C34.0122788,77.8492078 35.7260327,77.4511854 37.3608911,76.9465052 L37.3608911,82.1699589 L37.3608911,82.1699589 Z M37.3608911,91.0431086 C35.7463121,91.6027842 34.030058,92.0419143 32.2393532,92.352444 L32.2393532,87.0037229 C34.0122788,86.7223574 35.7260327,86.324335 37.3608911,85.8196549 L37.3608911,91.0431086 L37.3608911,91.0431086 Z M31.1281495,83.6542797 C29.468289,83.8889824 27.7539795,84.016194 26.0066116,84.028693 L26.0066116,78.6349756 C27.746201,78.62331 29.4593993,78.5063752 31.1281495,78.2894489 L31.1281495,83.6542797 L31.1281495,83.6542797 Z M31.1281495,92.5271516 C29.468289,92.762132 27.7539795,92.8890659 26.0066116,92.9018426 L26.0066116,87.5081253 C27.746201,87.4964596 29.4593993,87.3798027 31.1281495,87.1625985 L31.1281495,92.5271516 L31.1281495,92.5271516 Z M24.8954079,84.0209158 C23.1455399,83.9848077 21.4303969,83.8356535 19.77387,83.5759529 L19.77387,78.2158439 C21.4403978,78.4552684 23.1535961,78.5935902 24.8954079,78.6269208 L24.8954079,84.0209158 L24.8954079,84.0209158 Z M24.8954079,92.8937877 C23.1455399,92.8576796 21.4303969,92.7085254 19.77387,92.4491026 L19.77387,87.0889936 C21.4403978,87.3284181 23.1535961,87.4670176 24.8954079,87.5000704 L24.8954079,92.8937877 L24.8954079,92.8937877 Z M18.6626663,83.3840244 C16.8675167,83.0443305 15.1495958,82.5752029 13.5411284,81.9824745 L13.5411284,76.7812412 C15.1709864,77.3136968 16.8875184,77.7328286 18.6626663,78.0397475 L18.6626663,83.3840244 L18.6626663,83.3840244 Z M18.6626663,92.2568964 C16.8675167,91.9172024 15.1495958,91.4483526 13.5411284,90.8556242 L13.5411284,85.6543909 C15.1709864,86.1868465 16.8875184,86.6059782 18.6626663,86.9128971 L18.6626663,92.2568964 L18.6626663,92.2568964 Z M12.4299247,81.5441777 C11.2351029,81.0450526 10.1061199,80.4773222 9.0629774,79.8395975 C8.4329249,79.4543518 7.8512098,79.0502188 7.3083868,78.6327536 L7.3083868,73.9467551 C7.313665,73.9498104 7.3186654,73.9531435 7.3236658,73.9561988 C8.8799066,74.9077862 10.5950495,75.724107 12.4299247,76.396551 L12.4299247,81.5441777 L12.4299247,81.5441777 Z M12.4299247,90.4170496 C11.2348251,89.9182023 10.1061199,89.3504718 9.0629774,88.7124694 C8.4329249,88.3275015 7.8512098,87.9230907 7.3083868,87.5059033 L7.3083868,82.8199048 C7.313665,82.8229601 7.3186654,82.8262931 7.3236658,82.8296262 C8.8799066,83.7809358 10.5950495,84.596979 12.4299247,85.2697007 L12.4299247,90.4170496 L12.4299247,90.4170496 Z M6.1971831,77.7039421 C3.8589326,75.5607873 2.60105,73.0934929 2.60105,70.5464828 L2.60105,70.0698559 C3.5922438,71.1980952 4.7953996,72.2555071 6.1971831,73.2229265 L6.1971831,77.7039421 L6.1971831,77.7039421 Z M6.1971831,86.5770918 C3.8589326,84.433937 2.60105,81.9666425 2.60105,79.4193547 L2.60105,78.9430055 C3.5922438,80.0712449 4.7953996,81.128379 6.1971831,82.0960762 L6.1971831,86.5770918 L6.1971831,86.5770918 Z M25.7182543,45 C21.9923882,45 18.382643,45.4860706 15.0704225,46.4018277 C15.0704225,46.4018277 2.27373675e-13,51.2990494 1.47421661e-13,59.3429947 C8.55708776e-14,65.6000626 -2.4888263e-14,61.8197099 5.04425137e-15,61.8197099 C5.09950728e-14,61.8197099 5.09950728e-14,83.417355 4.51805178e-14,83.417355 C1.1564852,86.5087641 3.6580826,89.3149192 7.3236658,91.5561214 C12.2629663,94.5761476 18.7954551,96.2390646 25.7182543,96.2390646 C32.6407756,96.2390646 39.1732644,94.5761476 44.1128427,91.5561214 C49.3079978,88.3797194 52.1690696,84.0695229 52.1690696,79.4193547 L52.1690696,61.8197099 C52.1690696,57.1695417 49.3079978,52.8593452 44.1128427,49.683221 C39.1732644,46.6631948 32.6407756,45 25.7182543,45 Z" id="Shape" fill="#1DB318" fill-rule="nonzero"></path>
            </g>
        </g>
    </g>
</svg>