<?xml version="1.0" encoding="UTF-8" standalone="no"?>
<svg width="68px" height="21px" viewBox="0 0 68 21" version="1.1" xmlns="http://www.w3.org/2000/svg" xmlns:xlink="http://www.w3.org/1999/xlink">
    <!-- Generator: Sketch 44 (41411) - http://www.bohemiancoding.com/sketch -->
    <title>Group 9</title>
    <desc>Created with Sketch.</desc>
    <defs>
        <linearGradient x1="53.548112%" y1="27.5589229%" x2="73.86261%" y2="90.7426847%" id="linearGradient-1">
            <stop stop-color="#C8C8C8" offset="0%"></stop>
            <stop stop-color="#A39F9F" offset="100%"></stop>
        </linearGradient>
    </defs>
    <g id="Презентация" stroke="none" stroke-width="1" fill="none" fill-rule="evenodd">
        <g id="Artboard" transform="translate(-2213.000000, -1577.000000)">
            <g id="Group-9" transform="translate(2213.000000, 1577.000000)">
                <path d="M14.158604,4.19021477 C13.0153826,4.19021477 12.0887114,3.26331544 12.0887114,2.12009396 C12.0887114,0.977100671 13.0153826,0.0499731544 14.158604,0.0499731544 C15.3018255,0.0499731544 16.2287248,0.977100671 16.2287248,2.12009396 C16.2287248,3.26331544 15.3018255,4.19021477 14.158604,4.19021477" id="Fill-1" fill="#C8C8C8"></path>
                <path d="M18.9384564,20.5369128 L16.5064295,20.5369128 C16.3129262,20.5369128 16.2456107,20.4611544 16.199745,20.1880134 C16.0340805,19.2109128 15.1831678,18.4667919 14.158604,18.4667919 C13.145906,18.4667919 12.3025235,19.1944832 12.1238523,20.1553826 C12.0788993,20.3970336 12.0307517,20.5369128 11.8434094,20.5369128 L9.38308725,20.5369128 C9.15672483,20.5369128 9.06795973,20.4794094 8.9194094,20.2231544 C8.56708725,19.6120671 7.78234899,18.2522953 7.31593289,17.4433691 C6.85750336,16.6504161 6.3125906,16.429302 5.64924832,16.429302 C5.29715436,16.429302 4.91174497,16.4915973 4.48822819,16.5637047 C4.26460403,16.6015839 4.03824161,16.6205235 3.81142282,16.6205235 C2.35489933,16.6205235 0.898147651,15.8362416 0.294134228,14.2238658 C-0.472805369,12.1758792 0.32242953,10.0817987 1.96127517,8.92442953 C1.99824161,8.89841611 2.03155705,8.88700671 2.06236242,8.88700671 C2.2042953,8.88700671 2.29077852,9.12500671 2.40418792,9.25986577 C2.55684564,9.44287248 2.81332886,9.49330201 2.59700671,9.75480537 C2.02402685,10.4475839 1.59914094,11.3117315 1.63085906,12.2530067 C1.67991946,13.6835168 2.39574497,14.3153691 3.1469396,14.3153691 C3.35573154,14.3153691 3.56703356,14.2665369 3.76783893,14.1725235 C4.60004027,13.7825503 4.60711409,12.7121208 4.43255034,11.806443 C3.98324832,9.47002685 5.02218792,7.00559732 7.19887248,5.74896644 C8.10386577,5.22687248 9.09191946,4.97814765 10.0667383,4.97814765 L10.0719866,4.97814765 L18.245906,4.97814765 L18.2511544,4.97814765 C19.2259732,4.97814765 20.214255,5.22687248 21.1192483,5.74896644 C23.2133289,6.95836242 24.2584295,9.28724832 23.9346309,11.5426577 C23.8867114,11.8792349 23.8463221,12.1640134 23.8627517,12.4611141 C23.902,13.1634765 24.1657852,13.6782685 24.5365906,14.0424564 C24.6164564,14.120953 24.5835973,14.226604 24.4893557,14.2286577 C24.4809128,14.2288859 24.4724698,14.2291141 24.4640268,14.2291141 C24.059906,14.2291141 23.5321074,14.0328725 23.2299866,13.5833423 L23.222,13.5986309 C23.222,13.5986309 19.435906,20.1562953 19.3644832,20.279745 C19.2166174,20.5369128 19.1095973,20.5369128 18.9384564,20.5369128 M7.29608054,10.4069664 C6.8962953,10.4069664 6.57181208,10.7314497 6.57181208,11.1312349 C6.57181208,11.5314765 6.8962953,11.855047 7.29608054,11.855047 C7.69609396,11.855047 8.01989262,11.5314765 8.01989262,11.1312349 C8.01989262,10.7314497 7.69609396,10.4069664 7.29608054,10.4069664 M12.0887114,5.87766443 C11.7886443,5.87766443 11.5460805,6.12045638 11.5460805,6.42006711 C11.5460805,6.72013423 11.7886443,6.96315436 12.0887114,6.96315436 L16.2287248,6.96315436 C16.5287919,6.96315436 16.7720403,6.72013423 16.7720403,6.42006711 C16.7720403,6.12045638 16.5287919,5.87766443 16.2287248,5.87766443 L12.0887114,5.87766443" id="Fill-3" fill="url(#linearGradient-1)"></path>
                <path d="M2.80442953,8.76378523 C2.77065772,8.76378523 2.75308725,8.72522148 2.76997315,8.64763758 C2.82930201,8.37472483 2.79507383,8.05206711 2.67025503,7.73990604 C2.44183893,7.16897987 2.09020134,7.08820134 2.00303356,6.57181208 C1.91038926,6.02096644 2.30127517,5.50161074 2.86718121,5.43338255 C2.91008054,5.42813423 2.95252349,5.42562416 2.99451007,5.42562416 C3.49743624,5.42562416 3.93601342,5.78616107 4.00606711,6.29730201 C4.08775839,6.89948993 3.80777181,8.08469799 2.85143624,8.7455302 C2.83409396,8.75762416 2.81789262,8.76378523 2.80442953,8.76378523" id="Fill-5" fill="#C0BFBF"></path>
                <path d="M32.591396,7.61828188 C32.591396,6.76622819 31.9766577,6.02142282 31.0702953,6.02142282 C30.1317584,6.02142282 29.5706443,6.74455034 29.5706443,7.61828188 C29.5706443,8.47079195 30.1856107,9.21491275 31.0919732,9.21491275 C32.0302819,9.21491275 32.591396,8.49224161 32.591396,7.61828188 L32.591396,7.61828188 Z M27.9523356,7.61828188 C27.9523356,5.95684564 29.2902013,4.60802685 31.0919732,4.60802685 C32.8827919,4.60802685 34.2097047,5.93516779 34.2097047,7.61828188 C34.2097047,9.27971812 32.8720671,10.6285369 31.0702953,10.6285369 C29.2792483,10.6285369 27.9523356,9.30116779 27.9523356,7.61828188 L27.9523356,7.61828188 Z" id="Fill-15" fill="#9E9E9E"></path>
                <polyline id="Fill-16" fill="#9E9E9E" points="40.7340537 10.4989262 39.0942953 10.4989262 39.0942953 8.28710067 37.0764295 8.28710067 37.0764295 10.4989262 35.4366711 10.4989262 35.4366711 4.71618792 37.0764295 4.71618792 37.0764295 6.93873826 39.0942953 6.93873826 39.0942953 4.71618792 40.7340537 4.71618792 40.7340537 10.4989262"></polyline>
                <path d="M47.6273826,4.71618792 L47.6273826,10.4989262 L45.987396,10.4989262 L45.987396,6.11863087 L44.5201477,6.11863087 C44.5201477,9.94899329 43.8620537,10.5635034 42.4164832,10.5635034 C42.2006174,10.5635034 41.8012886,10.520604 41.5854228,10.4662953 L41.6935839,9.13961074 C41.7581611,9.14987919 41.963302,9.17178523 42.0388322,9.17178523 C42.6540268,9.17178523 42.9771409,8.81581208 42.9771409,4.71618792 L47.6273826,4.71618792" id="Fill-17" fill="#9E9E9E"></path>
                <path d="M52.5624027,8.45961074 L52.5624027,8.16844295 C52.2821879,8.03883221 51.9152617,7.95326174 51.5161611,7.95326174 C50.8147114,7.95326174 50.3832081,8.23302013 50.3832081,8.77291275 C50.3832081,9.21491275 50.7501342,9.47390604 51.2786174,9.47390604 C52.0446443,9.47390604 52.5624027,9.05312752 52.5624027,8.45961074 L52.5624027,8.45961074 Z M48.797302,8.81581208 C48.797302,7.5537047 49.757745,6.97068456 51.1277852,6.97068456 C51.7101208,6.97068456 52.1311275,7.06789262 52.5411812,7.20822819 L52.5411812,7.11147651 C52.5411812,6.43147651 52.1201745,6.05428188 51.3000671,6.05428188 C50.6743758,6.05428188 50.2321477,6.17271141 49.7032081,6.36667114 L49.2933826,5.1150604 C49.930255,4.83438926 50.5559463,4.65138255 51.5376107,4.65138255 C52.4330201,4.65138255 53.0801611,4.8884698 53.4902148,5.29852349 C53.9221745,5.73025503 54.115906,6.36667114 54.115906,7.14319463 L54.115906,10.4989262 L52.5302282,10.4989262 L52.5302282,9.8732349 C52.1311275,10.3154631 51.5807383,10.6066309 50.7823087,10.6066309 C49.6927114,10.6066309 48.797302,9.9809396 48.797302,8.81581208 L48.797302,8.81581208 Z" id="Fill-18" fill="#9E9E9E"></path>
                <path d="M56.5365235,2.52626846 L57.4965101,2.35330201 C57.6370738,2.79575839 57.8956107,3.07597315 58.3487919,3.07597315 C58.801745,3.07597315 59.0611946,2.79575839 59.2010738,2.35330201 L60.1612886,2.52626846 C60.0104564,3.56178523 59.3416376,4.16579866 58.3487919,4.16579866 C57.3564027,4.16579866 56.6875839,3.56178523 56.5365235,2.52626846 L56.5365235,2.52626846 Z M60.9918926,10.4989262 L59.4062148,10.4989262 L59.4062148,7.1324698 L57.1512617,10.4989262 L55.6084832,10.4989262 L55.6084832,4.71618792 L57.1943893,4.71618792 L57.1943893,8.09268456 L59.4493423,4.71618792 L60.9918926,4.71618792 L60.9918926,10.4989262 L60.9918926,10.4989262 Z" id="Fill-19" fill="#9E9E9E"></path>
                <polyline id="Fill-20" fill="#9E9E9E" points="67.833651 10.4989262 66.1938926 10.4989262 66.1938926 8.28710067 64.176255 8.28710067 64.176255 10.4989262 62.5367248 10.4989262 62.5367248 4.71618792 64.176255 4.71618792 64.176255 6.93873826 66.1938926 6.93873826 66.1938926 4.71618792 67.833651 4.71618792 67.833651 10.4989262"></polyline>
                <path d="M33.5732886,14.4935839 L33.5732886,20.2765503 L31.933302,20.2765503 L31.933302,15.8960268 L30.4660537,15.8960268 C30.4660537,19.7261611 29.8079597,20.3413557 28.3623893,20.3413557 C28.1465235,20.3413557 27.7471946,20.298 27.5313289,20.2441477 L27.6394899,18.9167785 C27.7040671,18.9279597 27.9092081,18.948953 27.9847383,18.948953 C28.5999329,18.948953 28.9232752,18.5932081 28.9232752,14.4935839 L33.5732886,14.4935839" id="Fill-21" fill="#9E9E9E"></path>
                <path d="M38.8731812,16.9317718 C38.7762013,16.1981477 38.3444698,15.7018389 37.6539732,15.7018389 C36.9742013,15.7018389 36.5322013,16.1874228 36.4023624,16.9317718 L38.8731812,16.9317718 L38.8731812,16.9317718 Z M34.7947785,17.3956779 C34.7947785,15.7449664 35.9710872,14.3851946 37.6539732,14.3851946 C39.5853557,14.3851946 40.4700403,15.885302 40.4700403,17.5250604 C40.4700403,17.6551275 40.4590872,17.8057315 40.4483624,17.9567919 L36.4238121,17.9567919 C36.5860537,18.7011409 37.1040403,19.089745 37.8374362,19.089745 C38.3878255,19.089745 38.7869262,18.9167785 39.2401074,18.4962282 L40.1786443,19.3263758 C39.6394362,19.9963356 38.8622282,20.4059329 37.8159866,20.4059329 C36.0783356,20.4059329 34.7947785,19.186953 34.7947785,17.3956779 L34.7947785,17.3956779 Z" id="Fill-22" fill="#9E9E9E"></path>
                <path d="M42.639651,12.3034362 L43.5998658,12.1304698 C43.7404295,12.5731544 43.9989664,12.8538255 44.4523758,12.8538255 C44.905557,12.8538255 45.1645503,12.5731544 45.3044295,12.1304698 L46.2644161,12.3034362 C46.1135839,13.3391812 45.4449933,13.9429664 44.4523758,13.9429664 C43.4599866,13.9429664 42.7907114,13.3391812 42.639651,12.3034362 L42.639651,12.3034362 Z M47.0954765,20.2765503 L45.5095705,20.2765503 L45.5095705,16.9103221 L43.2548456,20.2765503 L41.7120671,20.2765503 L41.7120671,14.4935839 L43.2979732,14.4935839 L43.2979732,17.8703087 L45.5531544,14.4935839 L47.0954765,14.4935839 L47.0954765,20.2765503 L47.0954765,20.2765503 Z" id="Fill-23" fill="#9E9E9E"></path>
                <polyline id="Fill-24" fill="#9E9E9E" points="48.6398523 14.4935839 50.2796107 14.4935839 50.2796107 16.8671946 52.3511007 14.4935839 54.2391275 14.4935839 52.1137852 16.8671946 54.5090738 20.2765503 52.5667383 20.2765503 51.0237315 18.0754497 50.2796107 18.8848322 50.2796107 20.2765503 48.6398523 20.2765503 48.6398523 14.4935839"></polyline>
                <path d="M58.5936376,18.2372349 L58.5936376,17.9458389 C58.3134228,17.8164564 57.9464966,17.7299732 57.5471678,17.7299732 C56.8461745,17.7299732 56.414443,18.0108725 56.414443,18.5505369 C56.414443,18.9925369 56.7813691,19.2510738 57.3096242,19.2510738 C58.0758792,19.2510738 58.5936376,18.8307517 58.5936376,18.2372349 L58.5936376,18.2372349 Z M54.8285369,18.5932081 C54.8285369,17.3311007 55.7885235,16.7480805 57.1587919,16.7480805 C57.7415839,16.7480805 58.1623624,16.8452886 58.5724161,16.9860805 L58.5724161,16.8891007 C58.5724161,16.2088725 58.1516376,15.8314497 57.3315302,15.8314497 C56.7058389,15.8314497 56.2633826,15.9498792 55.7346711,16.1438389 L55.3246174,14.8924564 C55.9612617,14.6120134 56.5871812,14.4287785 57.5690738,14.4287785 C58.4644832,14.4287785 59.1116242,14.6663221 59.521906,15.0759195 C59.9534094,15.5078792 60.1473691,16.1438389 60.1473691,16.9205906 L60.1473691,20.2765503 L58.5616913,20.2765503 L58.5616913,19.6504027 C58.1623624,20.0930872 57.6122013,20.3840268 56.8137718,20.3840268 C55.7239463,20.3840268 54.8285369,19.7587919 54.8285369,18.5932081 L54.8285369,18.5932081 Z" id="Fill-25" fill="#9E9E9E"></path>
            </g>
        </g>
    </g>
</svg>