<svg xmlns="http://www.w3.org/2000/svg" xmlns:xlink="http://www.w3.org/1999/xlink" version="1.1" x="0px" y="0px" width="24px" height="30px" viewBox="0 0 24 30" style="enable-background:new 0 0 24 24;" xml:space="preserve"><g><path d="M11.999,2.944c-4.993,0-9.056,4.063-9.056,9.057c0,4.993,4.063,9.056,9.056,9.056c4.995,0,9.058-4.063,9.058-9.056   C21.057,7.007,16.993,2.944,11.999,2.944z M11.999,20.385c-4.623,0-8.384-3.761-8.384-8.384c0-4.624,3.761-8.386,8.384-8.386   c4.625,0,8.387,3.762,8.387,8.386C20.385,16.624,16.623,20.385,11.999,20.385z"/><path d="M10.447,7.128c-0.129-0.128-0.346-0.128-0.475,0C9.909,7.191,9.874,7.275,9.874,7.365c0,0.089,0.035,0.174,0.098,0.238   l4.474,4.474L9.973,16.55c-0.063,0.063-0.099,0.148-0.099,0.239c0,0.089,0.035,0.173,0.097,0.236   c0.063,0.064,0.148,0.099,0.239,0.099c0.09,0,0.174-0.035,0.237-0.098l4.711-4.712c0.063-0.063,0.099-0.148,0.099-0.238   c0-0.09-0.035-0.175-0.099-0.237L10.447,7.128z"/></g></svg>