<svg viewBox="0 0 184 79.5" xmlns="http://www.w3.org/2000/svg">
    <g fill="none">
        <g fill="#95C11F">
            <path d="M51.1008 39.6998c0-6.3-5.1-11.4-11.4-11.4-6.3 0-11.4 5.1-11.4 11.4v28.3c0 6.3 5.1 11.4 11.4 11.4 6.3 0 11.4-5.1 11.4-11.4v-28.3zM79.7004 11.4c0-6.3-5.1-11.4-11.4-11.4-6.3 0-11.4 5.1-11.4 11.4V68c0 6.3 5.1 11.4 11.4 11.4 6.3 0 11.4-5.1 11.4-11.4V11.4zM22.8 68.1001c0-6.3-5.1-11.4-11.4-11.4-6.3-.1-11.4 5.1-11.4 11.4 0 6.3 5.1 11.4001 11.4 11.4001 6.3 0 11.4-5.1001 11.4-11.4001zM121.399 46c-1.3 0-2.4.8-2.9 2l-4.9 13c-.1.3-.4.3-.5.3-.1 0-.3 0-.5-.3l-4.9-13c-.4-1.2-1.6-2-2.8-2-1.2 0-2.2 1-2.2 2.2v17c0 .9.7 1.7 1.7 1.7.9 0 1.7-.8 1.7-1.7V51.8l5.2 13.8c.3.8 1.1 1.3 1.9 1.3.8 0 1.6-.5 1.9-1.3l5.2-13.8v13.5c0 .9.7 1.7 1.7 1.7.9 0 1.7-.8 1.7-1.7v-17c-.1-1.3-1.1-2.3-2.3-2.3zM133 51.2002c-4.5 0-7.5 3.1-7.5 8s2.9 8 7.5 8c4.5 0 7.5-3.1 7.5-8-.1-4.8-3-8-7.5-8zm0 13.2c-2.5 0-4.1-2-4.1-5.1 0-3.1 1.7-5.1 4.1-5.1 2.5 0 4.1 2.1 4.1 5.1 0 3-1.7 5.1-4.1 5.1zM149.4 51.2002c-1.9 0-3.3.6-4.4 1.9 0-.8-.7-1.5-1.5-1.5s-1.5.7-1.5 1.5v12.2c0 .9.7 1.6 1.6 1.6.9 0 1.6-.7 1.6-1.6v-7c0-2.7 1.4-4.2 3.9-4.2 1.6 0 2.6 1 2.6 2.5v8.7c0 .9.7 1.6 1.6 1.6.9 0 1.6-.7 1.6-1.6v-8.4c-.1-3.8-1.9-5.7-5.5-5.7zM168.698 61.5002c-.8 0-1.5.5-1.9 1.3-.6 1-1.6 1.5-3 1.5-1.8 0-3.2-.8-3.8-2.3-.2-.4 0-.8.1-1 .3-.4.9-.7 1.5-.7h6.2c.8 0 1.6-.4 2.1-.9.4-.5.6-1.1.5-1.8-.7-4-3.2-6.4-6.8-6.4-4.2 0-7.2 3.3-7.2 8 .2 5.1 2.8 8.1 7.4 8.1 3.1 0 5.3-1.5 6.3-4.1.1-.4.1-.8-.1-1.1-.5-.4-.9-.6-1.3-.6zm-5.4-7.4c1.3 0 2.5.6 3.2 1.7.2.3.1.7 0 .9-.2.4-.8.7-1.3.7h-3.7c-.5 0-1.1-.3-1.3-.7-.1-.2-.2-.6 0-.9.7-1.1 1.8-1.7 3.1-1.7zM183.799 52.1001c-.2-.3-.6-.5-1-.5-.9 0-1.8.6-2.1 1.5l-3.3 9.7-3.4-9.7c-.3-.9-1.2-1.5-2.2-1.5-.4 0-.9.2-1.1.6-.2.4-.3.8-.1 1.2l4.4 11.1c.5 1.3.5 2.8 0 4.1l-.1.3c-.4.8-.9 1.1-1.6 1.1h-.3c-.8-.2-1.5.4-1.5 1.2 0 .9.6 1.6 1.4 1.7h.7c2.5 0 3.6-1.5 4.6-4.1l5.9-15.3c0-.6 0-1.1-.3-1.4z"/>
        </g>
        <g fill="#575756">
            <path d="M22.8 11.4C22.8 5.1 17.7 0 11.4 0 5.1 0 0 5.1 0 11.4v27.8c0 6.3 5.1 11.4 11.4 11.4 6.3 0 11.4-5.1 11.4-11.4V11.4zM51.1008 11.4c0-6.3-5.1-11.4-11.4-11.4-6.3 0-11.4 5.1-11.4 11.4v.3c0 6.3 5.1 11.4 11.4 11.4 6.3 0 11.4-5.1 11.4-11.4v-.3zM127.501 34.8002c-.2-2.7-1.1-6.1-4.1-6.8 0 0-.1 0-.1-.1 0 0 0-.1.1-.1 2.9-1.2 4.4-4.1 4.4-7.1 0-5.7-5-8-10-8h-12.1c-1.4 0-2.4 1.1-2.4 2.4v22.4c0 .9.4 1.9 1.1 2.6.7.7 1.7 1.1 2.6 1.1h.1c.9 0 1.8-.3 2.5-1s1-1.6 1-2.5v-5.1c0-.4.2-.9.5-1.2.3-.3.8-.5 1.2-.5h3.9c3.5 0 4 3 4.2 5.8v1c.1 1 .5 1.9 1.3 2.6.8.7 1.7 1 2.7 1 .9 0 1.7-.4 2.4-1 .6-.7.9-1.6.8-2.5l-.2-2.4c.2-.1.2-.5.1-.6zm-11-10.9h-4.1c-.4 0-.9-.2-1.2-.5-.3-.3-.5-.8-.5-1.2v-2.1c0-.4.2-.9.5-1.2.3-.3.8-.5 1.2-.5h4.1c1.6 0 3 .7 3 2.8.1 2-1.7 2.7-3 2.7zM131.4 15.1c0-1.4 1.1-2.4 2.4-2.4h10.9c4.9-.1 10.3 1.2 10.3 7.1 0 1.7-.7 3.1-1.7 4.3-.4.4-1.8 1.4-1.8 1.4s1.6.9 2 1.1c1.7 1.3 2.7 3.3 2.7 5.7 0 6.8-5 8.9-11.1 8.9h-11.3c-1.3 0-2.4-1.1-2.4-2.4V15.1zm7.4 7.1c0 .4.2.9.5 1.2.3.3.8.5 1.2.5h4.1c1.3 0 3-.7 3-2.7 0-2.1-1.5-2.8-3-2.8h-4.1c-.4 0-.9.2-1.2.5-.3.3-.5.8-.5 1.2v2.1zm0 11.4c0 .4.2.9.5 1.2.3.3.8.5 1.2.5h4.3c2.4 0 4-.8 4-3.2 0-2.5-1.8-3.4-4-3.4h-4.3c-.4 0-.9.2-1.2.5-.3.3-.5.8-.5 1.2v3.2zM159.4 16.4c0-.9.4-1.9 1.1-2.6.7-.7 1.7-1.1 2.6-1.1.9 0 2 .4 2.7 1.1.7.7 1.1 1.5 1.1 2.3V21c.2.9.9 1 1.5.4l6.9-7.6c.4-.5.6-.6 1.3-.9.7-.3 1.7-.3 2.4-.1.6.2 1.3.6 1.8 1.6.5.9.6 2.3-.3 3.5l-4.9 5.5s-.2.2-.2.5c0 .2.2.5.2.5l7.2 10.5c.6.9 1.5 2.5.6 4.1-1 1.8-2.6 2.3-3.8 2.1-1.5-.2-2.1-1-2.4-1.3l-6.9-10.2c-.4-.7-1.2-1-2.1-.8-.8.2-1.2 1-1.2 1.7v6.8c0 1-.4 2-1.1 2.7-.7.7-1.7 1-2.6 1-.9 0-1.8-.4-2.5-1.1-.7-.7-1.1-1.6-1.1-2.5v-21h-.3z"/>
        </g>
    </g>
</svg>