<svg width="184" height="60" viewBox="0 0 184 60" fill="none" xmlns="http://www.w3.org/2000/svg">
    <path d="M30.8105 24.469C30.8105 20.586 27.7356 17.4426 23.9371 17.4426C20.1386 17.4426 17.0636 20.586 17.0636 24.469V41.9117C17.0636 45.7947 20.1386 48.9381 23.9371 48.9381C27.7356 48.9381 30.8105 45.7947 30.8105 41.9117V24.469ZM48.0543 7.0264C48.0543 3.14339 44.9793 0 41.1808 0C37.3823 0 34.3073 3.14339 34.3073 7.0264V41.9118C34.3073 45.7949 37.3823 48.9382 41.1808 48.9382C44.9793 48.9382 48.0543 45.7949 48.0543 41.9118V7.0264ZM13.747 41.9735C13.747 38.0905 10.672 34.9471 6.87348 34.9471C3.07498 34.8855 0 38.0905 0 41.9735C0 45.8565 3.07498 49 6.87348 49C10.672 49 13.747 45.8565 13.747 41.9735ZM73.1959 28.3521C72.4121 28.3521 71.7488 28.8452 71.4474 29.5848L68.493 37.5974C68.4327 37.7823 68.2518 37.7823 68.1915 37.7823C68.1312 37.7823 68.0106 37.7823 67.89 37.5974L64.9357 29.5848C64.6945 28.8452 63.971 28.3521 63.2474 28.3521C62.5239 28.3521 61.921 28.9685 61.921 29.7081V40.1861C61.921 40.7408 62.343 41.2339 62.946 41.2339C63.4886 41.2339 63.971 40.7408 63.971 40.1861V31.927L67.1062 40.4326C67.2871 40.9257 67.7695 41.2339 68.2518 41.2339C68.7342 41.2339 69.2165 40.9257 69.3974 40.4326L72.5327 31.927V40.2477C72.5327 40.8024 72.9547 41.2955 73.5576 41.2955C74.1003 41.2955 74.5826 40.8024 74.5826 40.2477V29.7697C74.5223 28.9685 73.9194 28.3521 73.1959 28.3521ZM80.1906 31.5573C77.4773 31.5573 75.6685 33.468 75.6685 36.4881C75.6685 39.5082 77.417 41.4189 80.1906 41.4189C82.9038 41.4189 84.7126 39.5082 84.7126 36.4881C84.6523 33.5296 82.9038 31.5573 80.1906 31.5573ZM80.1906 39.6931C78.6832 39.6931 77.7185 38.4604 77.7185 36.5497C77.7185 34.639 78.7435 33.4063 80.1906 33.4063C81.6979 33.4063 82.6626 34.7007 82.6626 36.5497C82.6626 38.3988 81.6376 39.6931 80.1906 39.6931ZM90.0787 31.5573C88.9331 31.5573 88.089 31.9271 87.4258 32.7283C87.4258 32.2353 87.0037 31.8038 86.5214 31.8038C86.039 31.8038 85.617 32.2353 85.617 32.7283V40.2478C85.617 40.8025 86.039 41.234 86.5817 41.234C87.1243 41.234 87.5464 40.8025 87.5464 40.2478V35.9334C87.5464 34.2692 88.3905 33.3447 89.8978 33.3447C90.8625 33.3447 91.4655 33.961 91.4655 34.8856V40.2478C91.4655 40.8025 91.8875 41.234 92.4302 41.234C92.9728 41.234 93.3949 40.8025 93.3949 40.2478V35.0705C93.3346 32.7283 92.2493 31.5573 90.0787 31.5573ZM101.714 37.9057C101.232 37.9057 100.81 38.2139 100.569 38.7069C100.207 39.3233 99.6039 39.6315 98.7598 39.6315C97.6745 39.6315 96.8304 39.1384 96.4686 38.2139C96.348 37.9673 96.4686 37.7208 96.5289 37.5975C96.7098 37.351 97.0716 37.1661 97.4333 37.1661H101.172C101.654 37.1661 102.136 36.9195 102.438 36.6114C102.679 36.3032 102.799 35.9334 102.739 35.5019C102.317 33.0365 100.81 31.5573 98.6392 31.5573C96.1069 31.5573 94.2981 33.5912 94.2981 36.4881C94.4186 39.6315 95.9863 41.4805 98.7598 41.4805C100.629 41.4805 101.955 40.556 102.558 38.9535C102.619 38.7069 102.619 38.4604 102.498 38.2755C102.197 38.029 101.955 37.9057 101.714 37.9057ZM98.4583 33.3447C99.2421 33.3447 99.9657 33.7145 100.388 34.3925C100.508 34.5774 100.448 34.8239 100.388 34.9472C100.267 35.1937 99.9054 35.3787 99.6039 35.3787H97.373C97.0716 35.3787 96.7098 35.1937 96.5892 34.9472C96.5289 34.8239 96.4686 34.5774 96.5892 34.3925C97.0113 33.7145 97.6745 33.3447 98.4583 33.3447ZM110.819 32.1119C110.699 31.927 110.457 31.8038 110.216 31.8038C109.674 31.8038 109.131 32.1736 108.95 32.7283L106.96 38.7069L104.91 32.7283C104.729 32.1736 104.187 31.8038 103.584 31.8038C103.343 31.8038 103.041 31.927 102.921 32.1736C102.8 32.4201 102.74 32.6666 102.86 32.9132L105.513 39.7547C105.815 40.5559 105.815 41.4805 105.513 42.2817L105.453 42.4666C105.212 42.9597 104.91 43.1446 104.488 43.1446H104.307C103.825 43.0213 103.403 43.3912 103.403 43.8842C103.403 44.4389 103.765 44.8704 104.247 44.932H104.669C106.177 44.932 106.84 44.0075 107.443 42.405L111 32.9748C111 32.605 111 32.2968 110.819 32.1119Z" transform="translate(37 6)" fill="#95C11F"/>
    <path d="M13.747 7.0264C13.747 3.14339 10.672 0 6.87348 0C3.07498 0 0 3.14339 0 7.0264V24.1609C0 28.044 3.07498 31.1873 6.87348 31.1873C10.672 31.1873 13.747 28.044 13.747 24.1609V7.0264ZM30.8105 7.0264C30.8105 3.14339 27.7356 0 23.9371 0C20.1386 0 17.0636 3.14339 17.0636 7.0264V7.2113C17.0636 11.0943 20.1386 14.2377 23.9371 14.2377C27.7356 14.2377 30.8105 11.0943 30.8105 7.2113V7.0264ZM76.875 21.4491C76.7544 19.785 76.2118 17.6894 74.403 17.2579C74.403 17.2579 74.3427 17.2579 74.3427 17.1963C74.3427 17.1963 74.3427 17.1347 74.403 17.1347C76.1515 16.395 77.0559 14.6076 77.0559 12.7586C77.0559 9.24538 74.0412 7.82778 71.0265 7.82778H63.731C62.8869 7.82778 62.2839 8.50576 62.2839 9.30702V23.1133C62.2839 23.668 62.5251 24.2843 62.9472 24.7158C63.3692 25.1472 63.9722 25.3938 64.5148 25.3938H64.5751C65.1177 25.3938 65.6604 25.2089 66.0824 24.7774C66.5045 24.346 66.6854 23.7913 66.6854 23.2365V20.0932C66.6854 19.8466 66.806 19.5384 66.9868 19.3535C67.1677 19.1686 67.4692 19.0454 67.7104 19.0454H70.0618C72.1721 19.0454 72.4736 20.8944 72.5942 22.6202V23.2365C72.6545 23.8529 72.8956 24.4076 73.378 24.8391C73.8603 25.2705 74.403 25.4554 75.0059 25.4554C75.5485 25.4554 76.0309 25.2089 76.453 24.8391C76.8147 24.4076 76.9956 23.8529 76.9353 23.2982L76.8147 21.8189C76.9353 21.7573 76.9353 21.5108 76.875 21.4491ZM70.2427 14.7309H67.7707C67.5295 14.7309 67.228 14.6076 67.0471 14.4227C66.8663 14.2378 66.7457 13.9296 66.7457 13.6831V12.3888C66.7457 12.1422 66.8663 11.8341 67.0471 11.6491C67.228 11.4642 67.5295 11.341 67.7707 11.341H70.2427C71.2074 11.341 72.0515 11.7724 72.0515 13.0668C72.1118 14.2995 71.0265 14.7309 70.2427 14.7309ZM79.2259 9.30689C79.2259 8.444 79.8891 7.82765 80.6729 7.82765H87.2449C90.1993 7.76602 93.4552 8.56727 93.4552 12.2037C93.4552 13.2515 93.0331 14.1144 92.4302 14.854C92.189 15.1006 91.3449 15.7169 91.3449 15.7169C91.3449 15.7169 92.3096 16.2717 92.5508 16.3949C93.5757 17.1962 94.1787 18.4289 94.1787 19.9081C94.1787 24.0993 91.164 25.3936 87.4861 25.3936H80.6729C79.8891 25.3936 79.2259 24.7157 79.2259 23.9144V9.30689ZM83.6876 13.683C83.6876 13.9295 83.8082 14.2377 83.9891 14.4226C84.1699 14.6075 84.4714 14.7308 84.7126 14.7308H87.1846C87.9684 14.7308 88.9934 14.2993 88.9934 13.0666C88.9934 11.7723 88.089 11.3409 87.1846 11.3409H84.7126C84.4714 11.3409 84.1699 11.4641 83.9891 11.649C83.8082 11.8339 83.6876 12.1421 83.6876 12.3886V13.683ZM83.6876 20.7094C83.6876 20.9559 83.8082 21.2641 83.9891 21.449C84.1699 21.6339 84.4714 21.7572 84.7126 21.7572H87.3052C88.7523 21.7572 89.717 21.2641 89.717 19.7849C89.717 18.244 88.6317 17.6893 87.3052 17.6893H84.7126C84.4714 17.6893 84.1699 17.8125 83.9891 17.9974C83.8082 18.1823 83.6876 18.4905 83.6876 18.7371V20.7094ZM96.1081 10.1081C96.1081 9.55343 96.3493 8.93708 96.7713 8.50564C97.1934 8.07419 97.7963 7.82765 98.3389 7.82765C98.8816 7.82765 99.5448 8.07419 99.9669 8.50564C100.389 8.93708 100.63 9.43016 100.63 9.92325V12.9434C100.751 13.4981 101.173 13.5597 101.535 13.1899L105.695 8.50564C105.936 8.19746 106.057 8.13583 106.479 7.95092C106.901 7.76602 107.504 7.76602 107.926 7.88929C108.287 8.01256 108.709 8.2591 109.011 8.87545C109.312 9.43016 109.373 10.2931 108.83 11.0327L105.876 14.4226C105.876 14.4226 105.755 14.5459 105.755 14.7308C105.755 14.854 105.876 15.039 105.876 15.039L110.217 21.5106C110.579 22.0654 111.121 23.0515 110.579 24.0377C109.976 25.1471 109.011 25.4553 108.287 25.332C107.383 25.2087 107.021 24.7157 106.84 24.5308L102.68 18.244C102.439 17.8125 101.957 17.6276 101.414 17.7509C100.932 17.8742 100.69 18.3672 100.69 18.7987V22.9899C100.69 23.6062 100.449 24.2226 100.027 24.654C99.6051 25.0855 99.0022 25.2704 98.4595 25.2704C97.9169 25.2704 97.3742 25.0238 96.9522 24.5924C96.5301 24.1609 96.289 23.6062 96.289 23.0515V10.1081H96.1081Z" transform="translate(37 6)" fill="#575756"/>
</svg>