<svg width="40" height="40" viewBox="0 0 40 40" fill="none" xmlns="http://www.w3.org/2000/svg">
<circle cx="20" cy="20" r="19.5" fill="white" stroke="#F1F1F1"/>
<path d="M22.5409 19.9886C22.5409 18.5622 21.3891 17.4075 19.9663 17.4075C18.5434 17.4075 17.3916 18.5622 17.3916 19.9886V26.3961C17.3916 27.8225 18.5434 28.9773 19.9663 28.9773C21.3891 28.9773 22.5409 27.8225 22.5409 26.3961V19.9886ZM29 13.5811C29 12.1547 27.8482 11 26.4254 11C25.0025 11 23.8507 12.1547 23.8507 13.5811V26.3962C23.8507 27.8226 25.0025 28.9773 26.4254 28.9773C27.8482 28.9773 29 27.8226 29 26.3962V13.5811ZM16.1493 26.4188C16.1493 24.9924 14.9975 23.8377 13.5746 23.8377C12.1518 23.8151 11 24.9924 11 26.4188C11 27.8452 12.1518 29 13.5746 29C14.9975 29 16.1493 27.8452 16.1493 26.4188Z" fill="#95C11F"/>
<path d="M16.3541 13.7036C16.3541 12.2095 15.1565 11 13.6771 11C12.1976 11 11 12.2095 11 13.7036V20.2964C11 21.7905 12.1976 23 13.6771 23C15.1565 23 16.3541 21.7905 16.3541 20.2964V13.7036ZM23 13.7036C23 12.2095 21.8024 11 20.323 11C18.8435 11 17.6459 12.2095 17.6459 13.7036V13.7747C17.6459 15.2688 18.8435 16.4783 20.323 16.4783C21.8024 16.4783 23 15.2688 23 13.7747V13.7036Z" fill="#575756"/>
</svg>
