<svg width="40" height="40" viewBox="0 0 40 40" fill="none" xmlns="http://www.w3.org/2000/svg">
<path d="M20 10C25.523 10 30 14.4773 30 19.9983V20.0017C30 25.5237 25.524 30 20 30C14.477 30 10 25.524 10 20C10 14.477 14.476 10 20 10Z" fill="#DB352A"/>
<path d="M17.6298 22.3867L15.9688 21.7807L18.6085 14.5113C18.6085 14.5113 18.8912 13.333 19.9998 13.333C21.1085 13.333 21.3968 14.5483 21.3968 14.5483L24.0232 21.7807L22.3618 22.3867L21.7135 20.601H18.2782L17.6298 22.3867ZM19.9958 15.871L18.8635 18.9897H21.1285L19.9958 15.871ZM15.6665 24.848H24.3332V26.6663H15.6665V24.848Z" fill="white"/>
</svg>
