<svg width="40" height="40" viewBox="0 0 40 40" fill="none" xmlns="http://www.w3.org/2000/svg">
<path d="M23.7456 13.9434H16.627V26.734H23.7456V13.9434Z" fill="#FF5F00"/>
<path d="M17.0565 20.3387C17.0565 17.7398 18.2768 15.4348 20.1525 13.9432C18.774 12.8585 17.0339 12.2031 15.1356 12.2031C10.6384 12.2031 7 15.8415 7 20.3387C7 24.8359 10.6384 28.4743 15.1356 28.4743C17.0339 28.4743 18.774 27.8189 20.1525 26.7342C18.2768 25.2653 17.0565 22.9376 17.0565 20.3387Z" fill="#EB001B"/>
<path d="M33.3278 20.3387C33.3278 24.8359 29.6894 28.4743 25.1922 28.4743C23.2939 28.4743 21.5538 27.8189 20.1753 26.7342C22.0736 25.2427 23.2713 22.9376 23.2713 20.3387C23.2713 17.7398 22.051 15.4348 20.1753 13.9432C21.5538 12.8585 23.2939 12.2031 25.1922 12.2031C29.6894 12.2031 33.3278 15.8641 33.3278 20.3387Z" fill="#F79E1B"/>
</svg>
