<?xml version="1.0" encoding="utf-8"?>
<svg width="45px" height="16px" viewBox="0 0 45 16" version="1.1" xmlns:xlink="http://www.w3.org/1999/xlink" xmlns="http://www.w3.org/2000/svg">
  <desc>Created with Lunacy</desc>
  <g id="pay-visa">
    <path d="M28.3201 0.597807C27.617 0.31883 26.5037 0 25.117 0C21.5819 0 19.1014 1.91298 19.0819 4.66289C19.0624 6.69544 20.8592 7.81134 22.2069 8.48886C23.5936 9.1863 24.0624 9.62469 24.0624 10.2424C24.0428 11.179 22.9491 11.6174 21.9139 11.6174C20.4882 11.6174 19.7264 11.3982 18.5546 10.8602L18.0858 10.641L17.6171 13.8093C18.4569 14.2079 19.9999 14.5466 21.6014 14.5666C25.3514 14.5666 27.7928 12.6735 27.8123 9.74425C27.8319 8.13018 26.8748 6.91463 24.8045 5.89836C23.5545 5.2607 22.7928 4.82231 22.7928 4.16472C22.8124 3.56692 23.4374 2.94918 24.8436 2.94918C25.9959 2.90933 26.8553 3.20823 27.4998 3.48721L27.8319 3.64662L28.3201 0.597807ZM5.332 9.86381L8.82807 0.25905L12.5976 0.25905L6.97261 14.3274L3.20311 14.3274L0 2.01262C2.26561 3.22816 4.29685 5.67917 4.94138 7.91098L5.332 9.86381ZM11.8163 14.3474L15.371 14.3474L17.6171 0.25905L14.0429 0.25905L11.8163 14.3474ZM37.4802 0.25905L34.7264 0.25905C33.867 0.25905 33.2225 0.518099 32.8514 1.43474L27.5389 14.3673L31.2889 14.3673C31.2889 14.3673 31.9139 12.6337 32.0311 12.255L36.6209 12.255C36.7185 12.7532 37.0506 14.3673 37.0506 14.3673L40.3513 14.3673L37.4802 0.25905ZM34.492 5.42012C34.492 5.42012 33.3592 8.54864 33.0662 9.36564L36.0349 9.36564C35.8982 8.64827 35.2146 5.28063 35.2146 5.28063L34.9607 4.06509C34.8512 4.40042 34.6885 4.8596 34.5862 5.14834L34.5861 5.14855L34.5859 5.14929C34.5242 5.32328 34.4846 5.4351 34.492 5.42012Z" transform="translate(3.814327 0.1773327)" id="Shape" fill="#00579F" fill-rule="evenodd" stroke="none" />
    <path d="M5.80075 0L0.0585934 0L0 0.278977C4.49216 1.45466 7.46089 4.26436 8.67182 7.65193L7.42183 1.17569C7.22652 0.278977 6.58199 0.0199269 5.80075 0L5.80075 0Z" transform="translate(0.0838806 0.4363824)" id="path17" fill="#FAA61A" stroke="none" />
  </g>
</svg>