<?xml version="1.0" encoding="utf-8"?>
<svg width="37px" height="10px" viewBox="0 0 37 10" version="1.1" xmlns:xlink="http://www.w3.org/1999/xlink" xmlns="http://www.w3.org/2000/svg">
  <desc>Created with Lunacy</desc>
  <g id="pay-mir">
    <path d="M9.87126 0.00436691L9.87126 0L13.1315 0L13.1315 10L9.87126 10L9.87126 4.0655L9.59957 4.0655L7.69777 10L5.43372 10L3.53192 4.06114L3.26023 4.06114L3.26023 10L0 10L0 0L3.26023 0C3.26023 0 4.69111 -0.00436672 5.07147 1.31004C5.42466 2.53712 6.4299 5.93886 6.4299 5.93886L6.70159 5.93886C6.72876 5.84716 7.71136 2.51965 8.06002 1.31441C8.43961 0.00266028 9.86096 0.00435463 9.87126 0.00436691ZM21.7802 0C21.7802 0 20.8247 0.0829695 20.3765 1.04804L18.0671 5.93886L17.7954 5.93886L17.7954 0L14.5352 0L14.5352 10L17.6143 10C17.6143 10 18.615 9.91266 19.0633 8.95197L21.3274 4.06114L21.599 4.06114L21.599 10L24.8593 10L24.8593 0L21.7802 0ZM26.3083 10L26.3083 4.54148L36.4286 4.54148C35.9441 5.86463 34.64 6.81223 33.1004 6.81223L29.5685 6.81223L29.5685 10L26.3083 10Z" id="Shape" fill="#4DB45E" fill-rule="evenodd" stroke="none" />
    <path d="M7.20436 -1.11023e-16L0 -1.11023e-16C0.359993 1.98784 1.83146 3.58359 3.73493 4.10334L3.73493 4.10334C4.16692 4.22188 4.62141 4.28571 5.0894 4.28571L10.6423 4.28571C10.6918 4.04863 10.7143 3.80699 10.7143 3.55623C10.7143 1.59119 9.14382 -1.11023e-16 7.20436 -1.11023e-16Z" transform="translate(25.71428 0)" id="Path" fill="#03A6DC" stroke="none" />
  </g>
</svg>