<?xml version="1.0" encoding="utf-8"?>
<svg width="26px" height="16px" viewBox="0 0 26 16" version="1.1" xmlns:xlink="http://www.w3.org/1999/xlink" xmlns="http://www.w3.org/2000/svg">
  <desc>Created with Lunacy</desc>
  <g id="pay-maestro">
    <path d="M6.9778 12.5403L0 12.5403L0 0L6.9778 0L6.9778 12.5403Z" transform="translate(9.419354 1.806452)" id="Path" fill="#6C6BBD" stroke="none" />
    <path d="M9.85702 7.97536C9.85702 10.5192 11.0481 12.7852 12.9029 14.2455C11.5465 15.3134 9.83471 15.9507 7.97435 15.9507C3.57013 15.9507 0 12.3801 0 7.97536C0 3.57063 3.57013 0 7.97435 0C9.83471 0 11.5465 0.63736 12.9029 1.7052C11.0481 3.1655 9.85702 5.4315 9.85702 7.97536" id="Path" fill="#EB001B" stroke="none" />
    <path d="M12.9034 7.97536C12.9034 3.57063 9.33324 0 4.92902 0C3.06866 0 1.35686 0.63736 0 1.7052C1.85529 3.1655 3.04635 5.4315 3.04635 7.97536C3.04635 10.5192 1.85529 12.7852 0 14.2455C1.35686 15.3134 3.06866 15.9507 4.92902 15.9507C9.33324 15.9507 12.9034 12.3801 12.9034 7.97536" transform="translate(12.90323 0)" id="Path" fill="#0099DF" stroke="none" />
  </g>
</svg>