<svg width="40" height="40" viewBox="0 0 40 40" fill="none" xmlns="http://www.w3.org/2000/svg">
<path d="M19.1146 15.5416L17.0746 25.0764H14.6083L16.6484 15.5416H19.1146ZM29.4919 21.6982L30.7905 18.1177L31.5378 21.6982H29.4919ZM32.2439 25.0764H34.5253L32.5346 15.5416H30.4284C29.9554 15.5416 29.5561 15.8169 29.3786 16.2411L25.6781 25.0764H28.2679L28.7823 23.6526H31.9468L32.2439 25.0764ZM25.8067 21.9633C25.8171 19.4467 22.3262 19.3081 22.3505 18.1839C22.3577 17.8417 22.6838 17.4781 23.3965 17.385C23.7505 17.3388 24.7237 17.3033 25.8289 17.8119L26.2616 15.79C25.6682 15.5744 24.9042 15.3672 23.9544 15.3672C21.5166 15.3672 19.8004 16.6634 19.786 18.5194C19.7706 19.8919 21.0108 20.6575 21.9457 21.114C22.9064 21.5815 23.2293 21.8808 23.2252 22.2987C23.2188 22.9389 22.4585 23.2208 21.7494 23.232C20.509 23.2516 19.7894 22.8972 19.2156 22.6298L18.7686 24.719C19.3449 24.9838 20.4085 25.2137 21.5121 25.2256C24.1029 25.2256 25.7982 23.9452 25.8067 21.9633ZM15.59 15.5416L11.5937 25.0764H8.98609L7.01975 17.4669C6.90019 16.9982 6.79646 16.8268 6.43312 16.6293C5.84099 16.3077 4.86163 16.0058 4 15.8186L4.05893 15.5416H8.25574C8.79064 15.5416 9.27184 15.8976 9.39324 16.5136L10.4319 22.0315L12.9988 15.5416H15.59Z" fill="#260F82"/>
</svg>
