<svg width="40" height="40" viewBox="0 0 40 40" fill="none" xmlns="http://www.w3.org/2000/svg">
<path d="M23.5646 13.7842H16.3853V26.6868H23.5646V13.7842Z" fill="#7673C0"/>
<path d="M16.841 20.2367C16.8383 17.7185 17.994 15.339 19.9749 13.7842C16.6107 11.1404 11.7796 11.5255 8.87682 14.6689C5.974 17.8123 5.974 22.6587 8.87682 25.8021C11.7796 28.9456 16.6107 29.3307 19.9749 26.6868C17.9946 25.1325 16.839 22.754 16.841 20.2367Z" fill="#EB001B"/>
<path d="M33.2487 20.2366C33.2479 23.3772 31.4545 26.2419 28.6296 27.6146C25.8048 28.9872 22.4443 28.627 19.9746 26.6867C21.954 25.1311 23.1097 22.753 23.1097 20.2354C23.1097 17.7179 21.954 15.3398 19.9746 13.7842C22.4443 11.8425 25.8057 11.4815 28.6314 12.8543C31.4571 14.2271 33.2509 17.0928 33.251 20.2343L33.2487 20.2366Z" fill="#00A1DF"/>
</svg>
