<svg width="40" height="40" viewBox="0 0 40 40" fill="none" xmlns="http://www.w3.org/2000/svg">
<path d="M22.0051 16.9099L20.0756 21.0904H19.8798V16H17.1388V24.6146H19.465C20.0758 24.6146 20.631 24.2594 20.8871 23.7047L22.8165 19.5242H23.0124V24.6146H25.7533V16H23.4272C22.8162 16 22.2611 16.3552 22.0051 16.9099ZM11.7217 17.1322L10.58 21.0904H10.3841L9.24236 17.1322C9.04897 16.4617 8.43522 16 7.73735 16H5V24.6146H7.74108V19.5242H7.93682L9.50303 24.6146H11.461L13.0272 19.5242H13.2231V24.6146H15.964V16H13.2267C12.5288 16 11.9152 16.4617 11.7217 17.1322ZM26.928 19.9157V24.6146H29.6637V21.8736H32.6058C33.884 21.8736 34.9684 21.0556 35.372 19.9157H26.928ZM32.6058 16H26.5366C26.905 18.0047 28.6592 19.5242 30.7704 19.5242H35.4836C35.5222 19.3344 35.5426 19.1379 35.5426 18.9368C35.5426 17.3148 34.2278 16 32.6058 16Z" fill="#1AA316"/>
</svg>
