<?xml version="1.0" encoding="utf-8"?>
<svg width="27px" height="16px" viewBox="0 0 27 16" version="1.1" xmlns:xlink="http://www.w3.org/1999/xlink" xmlns="http://www.w3.org/2000/svg">
  <desc>Created with Lunacy</desc>
  <g id="pay-mastercard">
    <path d="M7.07468 12.3141L0 12.3141L0 0L7.07468 0L7.07468 12.3141Z" transform="translate(9.481482 1.700741)" id="Shape" fill="#FF5F00" stroke="none" />
    <path d="M9.97447 7.80773C9.97447 10.3102 11.157 12.5624 13.0594 14.0139C11.6712 15.0649 9.92306 15.7156 8.07213 15.7156C3.59904 15.7156 0 12.2121 0 7.85778C0 3.50347 3.59904 0 8.07213 0C9.97447 0 11.6712 0.650644 13.0594 1.70168C11.157 3.05302 9.97447 5.30525 9.97447 7.80773" id="Shape" fill="#EB001B" stroke="none" />
    <path d="M13.0594 7.80878C13.0594 3.48162 9.46033 0 4.98724 0C3.08489 0 1.3882 0.646587 0 1.69107C1.90235 3.13346 3.08489 5.32191 3.08489 7.85852C3.08489 10.3951 1.90235 12.5836 0 14.026C1.3882 15.0705 3.1363 15.717 4.98724 15.717C9.46033 15.6176 13.0594 12.1359 13.0594 7.80878" transform="translate(13.06074 -2.4869E-14)" id="Shape" fill="#F79E1B" stroke="none" />
  </g>
</svg>