<svg width="86" height="24" viewBox="0 0 86 24" fill="none" xmlns="http://www.w3.org/2000/svg">
<rect width="86" height="24" rx="4" fill="black"/>
<g clip-path="url(#clip0_3351_33764)">
<path d="M20.4241 7H18.7555V15.4611H20.4241V7Z" fill="white"/>
<path d="M16.8389 7.47345H15.1704V15.9344H16.8389V7.47345Z" fill="white"/>
<path d="M13.2537 8.00202H11.5852V16.4645H13.2537V8.00202Z" fill="white"/>
<path d="M9.66852 8.53646H8L8.00001 17H9.66853L9.66852 8.53646Z" fill="white"/>
<path d="M64.4925 11.508L61.806 8.52094H60.2354V15.4369H61.8752V11.0244L64.3279 13.6387H64.631L67.0416 11.0244V15.4369H68.6814V8.52094H67.1108L64.4925 11.508Z" fill="white"/>
<path d="M76.4939 8.52094L72.4294 13.0161V8.52094H70.7896V15.4369H72.2919L76.3564 10.9418V15.4369H77.9962V8.52094H76.4939Z" fill="white"/>
<path d="M51.4028 11.0516C51.4028 12.1527 52.0049 13.0201 52.9292 13.3838L51.1961 15.4369H53.2032L54.7798 13.5691H56.4859V15.4369H58.1257V8.52094H53.9509C52.3943 8.52094 51.4028 9.58579 51.4028 11.0516ZM56.4869 10.0442V12.0892H54.2549C53.5103 12.0892 53.1109 11.6742 53.1109 11.0657C53.1109 10.4572 53.5243 10.0422 54.2549 10.0422L56.4869 10.0442Z" fill="white"/>
<path d="M43.7826 9.90413C43.6822 12.2827 43.1805 13.818 42.198 13.818H41.9521V15.4782L42.214 15.4923C44.184 15.6021 45.2729 13.8734 45.4515 10.0976H48.0427V15.4369H49.6796V8.52094H43.8378L43.7826 9.90413Z" fill="white"/>
<path d="M37.6097 8.42432C35.3918 8.42432 33.7962 9.95963 33.7962 11.9785C33.7962 14.0669 35.5323 15.5478 37.6097 15.5478C39.7734 15.5478 41.4544 13.9843 41.4544 11.9785C41.4544 9.97273 39.7734 8.42432 37.6097 8.42432ZM37.6097 13.8876C36.3563 13.8876 35.5022 13.0716 35.5022 11.9785C35.5022 10.8583 36.3573 10.0644 37.6097 10.0644C38.8622 10.0644 39.7453 10.8945 39.7453 11.9785C39.7453 13.0625 38.8501 13.8876 37.6097 13.8876Z" fill="white"/>
<path d="M32.057 8.53399H26.2694L26.2142 9.91718C26.1319 11.9099 25.6121 13.8048 24.6296 13.832L24.175 13.8461V17.0001L25.8289 16.9968V15.4379H31.5743V16.9968H33.2422V13.832H32.057V8.53399ZM30.4172 13.832H26.9177C27.5098 12.9334 27.827 11.6328 27.8822 10.1116H30.4172V13.832Z" fill="white"/>
</g>
<defs>
<clipPath id="clip0_3351_33764">
<rect width="70" height="10" fill="white" transform="translate(8 7)"/>
</clipPath>
</defs>
</svg>
