<svg width="168" height="24" viewBox="0 0 168 24" fill="none" xmlns="http://www.w3.org/2000/svg">
<g clip-path="url(#clip0_3351_33762)">
<path d="M29.8177 0H25.8133V20.3066H29.8177V0Z" fill="black"/>
<path d="M21.2133 1.13629H17.2089V21.4425H21.2133V1.13629Z" fill="black"/>
<path d="M12.6089 2.40485H8.60443V22.7149H12.6089V2.40485Z" fill="black"/>
<path d="M4.00446 3.6875H0L1.52588e-05 24H4.00447L4.00446 3.6875Z" fill="black"/>
<path d="M135.582 10.8272L129.134 3.65842H125.365V20.2567H129.301V9.66669L135.187 15.9409H135.914L141.7 9.66669V20.2567H145.635V3.65842H141.866L135.582 10.8272Z" fill="black"/>
<path d="M164.385 3.65842L154.631 14.4467V3.65842H150.695V20.2567H154.301L164.055 9.46843V20.2567H167.991V3.65842H164.385Z" fill="black"/>
<path d="M104.167 9.73197C104.167 12.3746 105.612 14.4564 107.83 15.3292L103.671 20.2567H108.488L112.272 15.7741H116.366V20.2567H120.302V3.65842H110.282C106.546 3.65842 104.167 6.21405 104.167 9.73197ZM116.369 7.31415V12.2223H111.012C109.225 12.2223 108.266 11.2262 108.266 9.76582C108.266 8.30546 109.258 7.30932 111.012 7.30932L116.369 7.31415Z" fill="black"/>
<path d="M85.8783 6.97808C85.6374 12.6865 84.4331 16.3713 82.0751 16.3713H81.485V20.3559L82.1137 20.3897C86.8417 20.6533 89.455 16.5043 89.8837 7.4423H96.1026V20.2567H100.031V3.65842H86.0107L85.8783 6.97808Z" fill="black"/>
<path d="M71.0634 3.42651C65.7404 3.42651 61.9108 7.11126 61.9108 11.9566C61.9108 16.9687 66.0776 20.5229 71.0634 20.5229C76.2562 20.5229 80.2906 16.7704 80.2906 11.9566C80.2906 7.1427 76.2562 3.42651 71.0634 3.42651ZM71.0634 16.5383C68.0551 16.5383 66.0054 14.5799 66.0054 11.9566C66.0054 9.26796 68.0575 7.36272 71.0634 7.36272C74.0693 7.36272 76.1888 9.355 76.1888 11.9566C76.1888 14.5581 74.0404 16.5383 71.0634 16.5383Z" fill="black"/>
<path d="M57.7369 3.68973H43.8467L43.7142 7.00939C43.5167 11.7918 42.2691 16.3397 39.9111 16.405L38.82 16.4389V24.0084L42.7893 24.0004V20.259H56.5784V24.0004H60.5814V16.405H57.7369V3.68973ZM53.8013 16.405H45.4026C46.8237 14.2483 47.5848 11.1269 47.7172 7.47603H53.8013V16.405Z" fill="black"/>
</g>
<defs>
<clipPath id="clip0_3351_33762">
<rect width="168" height="24" fill="white"/>
</clipPath>
</defs>
</svg>
