<?xml version="1.0" encoding="UTF-8" standalone="no"?>
<!DOCTYPE svg PUBLIC "-//W3C//DTD SVG 1.1//EN" "http://www.w3.org/Graphics/SVG/1.1/DTD/svg11.dtd">
<svg width="73.33333" height="16" viewBox="0 0 550 120" xmlns="http://www.w3.org/2000/svg">

<linearGradient id="a" x1="370" x2="290" gradientUnits="userSpaceOnUse">
<stop stop-color="#1F5CD7"/>
<stop stop-color="#02AEFF" offset="1"/>
</linearGradient>

<path d="m31 13h33c3 0 12-1 16 13 3 9 7 23 13 44h2c6-22 11-37 13-44 4-14 14-13 18-13h31v96h-32v-57h-2l-17 57h-24l-17-57h-3v57h-31m139-96h32v57h3l21-47c4-9 13-10 13-10h30v96h-32v-57h-2l-21 47c-4 9-14 10-14 10h-30m142-29v29h-30v-50h98c-4 12-18 21-34 21" fill="#0f754e"/>

<path d="m382 53c4-18-8-40-34-40h-68c2 21 20 40 39 40" fill="url(#a)"/>

    <g transform="matrix(7.51282,0,0,7.5,72.9082,11.8372)">
        <path d="M44.616,5.656L47.072,5.656C48.002,5.656 48.747,5.842 49.267,6.214C49.788,6.586 50.049,7.181 50.049,8C50.049,8.447 49.974,8.819 49.826,9.116C49.677,9.451 49.491,9.712 49.23,9.898C48.97,10.084 48.635,10.233 48.3,10.344C47.928,10.456 47.519,10.493 47.072,10.493L46.105,10.493L46.105,13.098L44.616,13.098L44.616,5.656ZM46.105,6.884L46.105,9.265L47.072,9.265C47.556,9.265 47.928,9.191 48.188,9.005C48.449,8.819 48.598,8.484 48.598,8.037C48.598,7.628 48.486,7.367 48.226,7.181C47.965,6.995 47.593,6.884 47.109,6.884L46.105,6.884Z" style="fill-rule:nonzero;"/>
    </g>
    <g transform="matrix(7.51282,0,0,7.5,72.9082,11.8372)">
        <path d="M52.765,5.656L54.551,5.656L57.156,13.098L55.667,13.098L55.035,11.274L52.058,11.274L51.426,13.098L50.198,13.098L52.765,5.656ZM54.626,10.047L53.547,6.958L52.467,10.047L54.626,10.047Z" style="fill-rule:nonzero;"/>
    </g>
    <g transform="matrix(7.51282,0,0,7.5,72.9082,11.8372)">
        <path d="M60.84,9.935L60.84,13.06L59.351,13.06L59.351,9.935L56.97,5.619L58.607,5.619L60.207,8.633L61.881,5.619L63.258,5.619L60.84,9.935Z" style="fill-rule:nonzero;"/>
    </g>

</svg>