<svg width="79" height="16" viewBox="0 0 79 16" fill="none" xmlns="http://www.w3.org/2000/svg">
<path fill-rule="evenodd" clip-rule="evenodd" d="M8.63964 4.03194C8.63963 4.0359 8.63962 4.03985 8.63962 4.04381V8.93451H13.5852C14.9256 8.9053 16.0031 7.80899 16.0031 6.46164C16.0031 5.1141 14.9253 4.01831 13.5847 3.98941C13.5557 2.64883 12.4599 1.57099 11.1124 1.57099C9.76511 1.57099 8.66946 2.64851 8.64022 3.98882L8.63964 4.03194Z" fill="#C0B5B5"/>
<path fill-rule="evenodd" clip-rule="evenodd" d="M9.20244 4.03326L9.20244 4.03459L9.20241 4.04381V8.37171H13.5498L13.573 8.3712C14.608 8.34865 15.4403 7.50227 15.4403 6.46164C15.4403 5.42086 14.6078 4.57439 13.5725 4.55208L13.0336 4.54046L13.022 4.00155C12.9996 2.96633 12.1532 2.13379 11.1124 2.13379C10.0718 2.13379 9.22546 2.96609 9.20288 4.0011L9.20244 4.02115V4.03326ZM8.64022 3.98882C8.66946 2.64851 9.76511 1.57099 11.1124 1.57099C12.4599 1.57099 13.5557 2.64883 13.5847 3.98941C14.9253 4.01831 16.0031 5.1141 16.0031 6.46164C16.0031 7.80899 14.9256 8.9053 13.5852 8.93451H8.63962V4.04381L8.63964 4.03194L8.64022 3.98882Z" fill="white"/>
<path fill-rule="evenodd" clip-rule="evenodd" d="M2.41786 7.36292C1.07754 7.33369 0 6.23803 0 4.89069C0 3.54316 1.07785 2.44738 2.41845 2.41846C2.44737 1.07786 3.54315 0 4.89069 0C6.23802 0 7.33369 1.07755 7.36291 2.41787L7.36352 7.36352L2.41786 7.36292Z" fill="#E20613"/>
<path fill-rule="evenodd" clip-rule="evenodd" d="M2.43013 6.80025L2.45154 6.80072H6.80072V2.45195L6.80024 2.43014C6.77768 1.39511 5.93131 0.5628 4.89069 0.5628C3.84991 0.5628 3.00345 1.39536 2.98112 2.43059L2.96949 2.9695L2.43059 2.98113C1.39535 3.00346 0.5628 3.84992 0.5628 4.89069C0.5628 5.93131 1.39511 6.77768 2.43013 6.80025ZM7.36291 2.41787C7.33369 1.07755 6.23802 0 4.89069 0C3.54315 0 2.44737 1.07786 2.41845 2.41846C1.07785 2.44738 0 3.54316 0 4.89069C0 6.23803 1.07754 7.33369 2.41786 7.36292L7.36352 7.36352L7.36291 2.41787Z" fill="#C0B5B5"/>
<path fill-rule="evenodd" clip-rule="evenodd" d="M8.93435 8.63981L8.93436 13.5855C8.90511 14.9258 7.80885 16.0033 6.46153 16.0033C5.11401 16.0033 4.01823 14.9254 3.98929 13.5849C2.6487 13.5559 1.57084 12.4602 1.57084 11.1126C1.57084 9.76529 2.64838 8.66963 3.9887 8.64041L8.93435 8.63981Z" fill="#C0B5B5"/>
<path fill-rule="evenodd" clip-rule="evenodd" d="M8.37155 9.20257L8.37156 13.5515L8.37109 13.5732C8.3485 14.6082 7.50214 15.4405 6.46153 15.4405C5.42076 15.4405 4.57431 14.6079 4.55196 13.5727L4.54033 13.0338L4.00143 13.0222C2.96619 12.9999 2.13364 12.1534 2.13364 11.1126C2.13364 10.072 2.96595 9.22564 4.00097 9.20307L4.02417 9.20257H8.37155ZM8.93436 13.5855C8.90511 14.9258 7.80885 16.0033 6.46153 16.0033C5.11401 16.0033 4.01823 14.9254 3.98929 13.5849C2.6487 13.5559 1.57084 12.4602 1.57084 11.1126C1.57084 9.76529 2.64838 8.66963 3.9887 8.64041L8.93435 8.63981L8.93436 13.5855Z" fill="white"/>
<path fill-rule="evenodd" clip-rule="evenodd" d="M13.5853 8.64037C14.9256 8.66958 16.0031 9.76525 16.0031 11.1126C16.0031 12.4601 14.9253 13.5559 13.5847 13.5848C13.5557 14.9254 12.46 16.0033 11.1124 16.0033C9.7651 16.0033 8.66944 14.9257 8.64021 13.5854L8.63963 13.5393C8.63962 13.5364 8.63962 13.5334 8.63962 13.5305V8.63977L13.5853 8.64037Z" fill="#C0B5B5"/>
<path fill-rule="evenodd" clip-rule="evenodd" d="M13.573 9.20303L13.5516 9.20257H9.20242V13.5305L9.20243 13.5374L9.20243 13.5393L9.20243 13.5525L9.20288 13.5731C9.22545 14.6082 10.0718 15.4405 11.1124 15.4405C12.1532 15.4405 12.9997 14.6079 13.022 13.5727L13.0336 13.0338L13.5725 13.0222C14.6078 12.9998 15.4403 12.1534 15.4403 11.1126C15.4403 10.072 14.608 9.22559 13.573 9.20303ZM8.64021 13.5854L8.63963 13.5393L8.63962 13.5305V8.63977L13.5853 8.64037C14.9256 8.66958 16.0031 9.76525 16.0031 11.1126C16.0031 12.4601 14.9253 13.5559 13.5847 13.5848C13.5557 14.9254 12.46 16.0033 11.1124 16.0033C9.7651 16.0033 8.66944 14.9257 8.64021 13.5854Z" fill="white"/>
<path d="M25.695 5.18H27.405V12.83H25.695V9.815C25.245 10.075 24.675 10.205 23.985 10.205C23.095 10.205 22.375 9.945 21.825 9.425C21.275 8.905 21 8.14 21 7.13V5.18H22.71V7.01C22.71 8.14 23.265 8.705 24.375 8.705C24.875 8.705 25.315 8.605 25.695 8.405V5.18Z" fill="#010101"/>
<path d="M33.9578 7.76C33.9578 7.33 33.8178 7 33.5378 6.77C33.2678 6.53 32.9078 6.41 32.4578 6.41C31.6478 6.41 31.1428 6.705 30.9428 7.295H29.3228C29.4428 6.635 29.7778 6.09 30.3278 5.66C30.8878 5.22 31.6178 5 32.5178 5C33.4678 5 34.2228 5.245 34.7828 5.735C35.3528 6.225 35.6378 6.91 35.6378 7.79V12.83H34.0478V11.96C33.4878 12.66 32.6978 13.01 31.6778 13.01C30.9178 13.01 30.2828 12.795 29.7728 12.365C29.2728 11.925 29.0228 11.34 29.0228 10.61C29.0228 9.85 29.2928 9.26 29.8328 8.84C30.3828 8.41 31.1378 8.195 32.0978 8.195H33.9578V7.76ZM32.0528 11.615C32.5828 11.615 33.0328 11.465 33.4028 11.165C33.7728 10.855 33.9578 10.45 33.9578 9.95V9.485H32.2178C31.7678 9.485 31.4078 9.58 31.1378 9.77C30.8778 9.95 30.7478 10.21 30.7478 10.55C30.7478 10.89 30.8678 11.155 31.1078 11.345C31.3478 11.525 31.6628 11.615 32.0528 11.615Z" fill="#010101"/>
<path d="M40.9316 11.495C41.4316 11.495 41.8166 11.37 42.0866 11.12C42.3666 10.87 42.5516 10.57 42.6416 10.22H44.3066C44.2166 11 43.8666 11.66 43.2566 12.2C42.6466 12.74 41.8666 13.01 40.9166 13.01C39.8066 13.01 38.9116 12.64 38.2316 11.9C37.5516 11.15 37.2116 10.185 37.2116 9.005C37.2116 7.835 37.5466 6.875 38.2166 6.125C38.8966 5.375 39.7966 5 40.9166 5C41.8866 5 42.6666 5.275 43.2566 5.825C43.8466 6.365 44.1916 7.01 44.2916 7.76H42.6266C42.5166 7.42 42.3216 7.13 42.0416 6.89C41.7716 6.64 41.3966 6.515 40.9166 6.515C40.3166 6.515 39.8366 6.745 39.4766 7.205C39.1266 7.665 38.9516 8.265 38.9516 9.005C38.9516 9.755 39.1316 10.36 39.4916 10.82C39.8516 11.27 40.3316 11.495 40.9316 11.495Z" fill="#010101"/>
<path d="M45.1325 6.68V5.18H51.7325V6.68H49.2875V12.83H47.5775V6.68H45.1325Z" fill="#010101"/>
<path d="M58.8911 12.83H57.1961V10.355H56.0411L54.2861 12.83H52.3661L54.3011 10.1C53.8311 9.89 53.4611 9.58 53.1911 9.17C52.9311 8.75 52.8011 8.28 52.8011 7.76C52.8011 7.01 53.0461 6.395 53.5361 5.915C54.0361 5.425 54.7311 5.18 55.6211 5.18H58.8911V12.83ZM54.8561 6.905C54.6161 7.125 54.4961 7.415 54.4961 7.775C54.4961 8.135 54.6161 8.425 54.8561 8.645C55.0961 8.865 55.4211 8.975 55.8311 8.975H57.1961V6.575H55.8311C55.4211 6.575 55.0961 6.685 54.8561 6.905Z" fill="#010101"/>
<path d="M60.9669 5.18H63.1269L65.5569 10.73L67.9869 5.18H70.1169V12.83H68.4669V7.595L66.1719 12.8H64.9119L62.6169 7.61V12.83H60.9669V5.18Z" fill="#010101"/>
<path d="M78.9826 5.18V12.83H77.3026V7.745L73.8376 12.83H72.1876V5.18H73.8676V10.28L77.3326 5.18H78.9826Z" fill="#010101"/>
</svg>
