<?xml version="1.0" encoding="utf-8"?>
<svg width="18px" height="18px" viewBox="0 0 18 18" version="1.1" xmlns:xlink="http://www.w3.org/1999/xlink" xmlns="http://www.w3.org/2000/svg">
  <desc>Created with Lunacy</desc>
  <g id="megafon">
    <g id="Group">
      <path d="M1.89818 0L1.89818 9.09818C1.89818 9.52364 1.57091 9.81818 1.17818 9.81818L0.0981818 9.81818C0.0327273 9.81818 0 9.88364 0 9.91636L0 17.5418C0.261818 17.5418 0.523636 17.6073 0.818182 17.6073C5.69455 17.6073 9.65455 13.6473 9.65455 8.77091C9.65455 4.28727 6.28364 0.523636 1.89818 0ZM0.621818 12.5345C0.621818 13.0909 1.08 13.6145 1.70182 13.6145C2.32364 13.6145 2.84727 13.1236 2.78182 12.5345C2.78182 11.9782 2.32364 11.4545 1.70182 11.4545C1.14545 11.4545 0.621818 11.9127 0.621818 12.5345ZM4.28727 13.6145C3.66545 13.6145 3.20727 13.0909 3.20727 12.5345C3.20727 11.9127 3.73091 11.4545 4.28727 11.4545C4.90909 11.4545 5.36727 11.9782 5.36727 12.5345C5.36727 13.0909 4.94182 13.6145 4.28727 13.6145ZM5.82545 12.5345C5.82545 13.0909 6.28364 13.6145 6.90545 13.6145C7.52727 13.6145 7.98545 13.0909 7.98545 12.5345C7.98545 11.9782 7.52727 11.4545 6.90545 11.4545C6.34909 11.4545 5.82545 11.9127 5.82545 12.5345Z" transform="translate(8.018182 0.2290909)" id="Shape" fill="#00B956" fill-rule="evenodd" stroke="none" />
      <path d="M0 8.83636C0 3.96 3.96 0 8.83636 0L8.80364 8.67273C8.80364 8.70545 8.77091 8.77091 8.70545 8.77091L7.62545 8.77091C7.29818 8.83636 6.97091 9.13091 6.97091 9.49091L6.97091 17.4436C2.97818 16.6255 0 13.1236 0 8.83636ZM6.05455 6.18545C6.05455 6.74182 6.51273 7.26545 7.13455 7.26545C7.72364 7.26545 8.21455 6.74182 8.21455 6.18545C8.21455 5.62909 7.75636 5.10545 7.13455 5.10545C6.57818 5.10545 6.05455 5.56364 6.05455 6.18545Z" transform="translate(0 0.1963636)" id="Shape_1_" fill="#00B956" fill-rule="evenodd" stroke="none" />
    </g>
  </g>
</svg>