<?xml version="1.0" encoding="utf-8"?>
<svg width="38px" height="14px" viewBox="0 0 38 14" version="1.1" xmlns:xlink="http://www.w3.org/1999/xlink" xmlns="http://www.w3.org/2000/svg">
  <desc>Created with Lunacy</desc>
  <g id="tele2">
    <path d="M32.3261 0.0594821L32.3261 3.02678C32.8896 3.0009 33.3479 3.20709 33.5574 3.62031C33.8851 4.27812 33.5445 5.25899 32.7581 6.17474C31.5398 7.58094 28.3292 10.471 28.3292 10.471L32.9547 10.3161C35.785 7.59387 36.7939 5.94226 36.9775 3.89078C37.0823 2.78135 36.6762 1.73662 35.8769 1.00118C35.0121 0.188182 33.7284 -0.146998 32.3261 0.0594821ZM32.3261 0.0594821L32.3257 0.059544L32.3261 0.0591266L32.3261 0.0594821ZM27.8838 5.87752L27.8838 5.87756L27.8834 5.87756L27.8838 5.87752ZM31.7885 0.110883C29.063 0.678533 27.7265 2.65236 27.8838 5.87752L30.7926 5.61961C30.662 3.80104 31.2255 3.36194 31.8015 3.12987L31.7885 0.110883ZM22.8522 1.68528L22.8522 4.35575L26.8616 3.93001L26.8616 1.13015L22.8522 1.68528ZM19.5765 2.1369L19.5765 13.7742L22.3279 13.7742L22.3279 1.74914L19.5765 2.1369ZM12.5267 13.7738L12.5267 3.11694L14.9247 2.78135L14.9247 13.7738L12.5267 13.7738ZM8.68758 3.64619L8.68758 5.90386L11.7274 5.56827L11.7274 3.23297L8.68758 3.64619ZM6.1849 3.99429L6.1849 13.7738L8.2944 13.7738L8.2944 3.69794L6.1849 3.99429ZM0 4.84577L0 6.84549L5.45113 6.25238L5.45113 4.09739L0 4.84577ZM22.8522 9.10358L22.8522 6.38135L25.4859 6.14928L25.4859 8.96167L22.8522 9.10358ZM1.74261 13.7738L1.74261 6.96153L3.7344 6.75534L3.7344 13.7738L1.74261 13.7738ZM8.68758 9.8649L8.68758 7.568L10.679 7.4002L10.679 9.76139L8.68758 9.8649ZM27.7528 10.9484L27.7657 13.7742L37.1478 13.7742L37.1478 10.6771L27.7528 10.9484ZM22.8522 13.7738L22.8522 11.1033L26.8616 10.9739L26.8616 13.7738L22.8522 13.7738ZM15.37 13.7738L15.37 11.3224L18.8427 11.2193L18.8427 13.7738L15.37 13.7738ZM8.68758 13.7738L8.68758 11.5157L11.7274 11.4251L11.7274 13.7738L8.68758 13.7738Z" transform="translate(0.2504348 0.1754474)" id="path0_fill" fill="#1F2229" fill-rule="evenodd" stroke="none" />
  </g>
</svg>