<?xml version="1.0" encoding="UTF-8" standalone="no"?>
<!-- Generator: Adobe Illustrator 26.4.1, SVG Export Plug-In . SVG Version: 6.00 Build 0)  -->

<svg
   version="1.0"
   id="svg5"
   x="0px"
   y="0px"
   viewBox="0 0 32.000001 32.000001"
   xml:space="preserve"
   sodipodi:docname="beeline.svg"
   width="32"
   height="32"
   inkscape:version="1.2.1 (9c6d41e410, 2022-07-14)"
   xmlns:inkscape="http://www.inkscape.org/namespaces/inkscape"
   xmlns:sodipodi="http://sodipodi.sourceforge.net/DTD/sodipodi-0.dtd"
   xmlns="http://www.w3.org/2000/svg"
   xmlns:svg="http://www.w3.org/2000/svg"><defs
   id="defs208" />
<style
   type="text/css"
   id="style198">
	.st0{fill:#FFC800;}
</style>
<sodipodi:namedview
   bordercolor="#666666"
   borderopacity="1.0"
   id="namedview7"
   inkscape:current-layer="layer1"
   inkscape:cx="241.76543"
   inkscape:cy="163.93683"
   inkscape:document-units="mm"
   inkscape:pagecheckerboard="0"
   inkscape:pageopacity="0.0"
   inkscape:pageshadow="2"
   inkscape:window-height="1027"
   inkscape:window-maximized="1"
   inkscape:window-width="1920"
   inkscape:window-x="1672"
   inkscape:window-y="-8"
   inkscape:zoom="1.8116734"
   pagecolor="#ffffff"
   showgrid="false"
   inkscape:showpageshadow="2"
   inkscape:deskcolor="#d1d1d1">
	</sodipodi:namedview>
<g
   id="layer1"
   transform="translate(25.890543,-68.63694)"
   inkscape:groupmode="layer"
   inkscape:label="Layer 1">
	<g
   id="g859"
   transform="matrix(0.49865178,0,0,0.51313088,-35.486552,64.700635)">
		<path
   id="path849"
   class="st0"
   d="M 51.33,68.08 C 67.7,68.31 81.16,55.23 81.4,38.86 81.16,22.49 67.7,9.41 51.33,9.64 34.95,9.41 21.49,22.49 21.25,38.86 c 0.24,16.37 13.7,29.45 30.08,29.22 z" />
		<path
   id="path851"
   d="m 64.27,60.63 c -10.21,5.73 -21.29,6.75 -28.37,3.32 9.41,5.43 20.98,5.52 30.47,0.22 9.37,-5.16 15.15,-15.05 15.04,-25.74 -0.48,7.66 -6.93,16.47 -17.14,22.2 z" />
		<path
   id="path853"
   d="m 55.14,11.78 c 2.07,3.48 -2.93,10.06 -11.18,14.68 -8.25,4.63 -16.61,5.55 -18.68,2.06 -0.09,-0.17 -0.17,-0.35 -0.23,-0.53 -0.39,-2.13 0.22,-4.31 1.65,-5.93 0.25,-0.35 0.51,-0.69 0.77,-1.02 2.42,-3.05 5.41,-5.6 8.81,-7.49 3.42,-1.92 7.19,-3.17 11.08,-3.67 0.44,-0.06 0.87,-0.11 1.29,-0.14 2.17,-0.39 4.4,0.18 6.11,1.57 0.15,0.15 0.27,0.31 0.38,0.47 z" />
		<path
   id="path855"
   d="m 67.93,15.55 c 3.62,6.08 -3.68,16.75 -16.29,23.82 -12.61,7.07 -25.77,7.88 -29.38,1.8 -0.6,-1.02 -0.94,-2.17 -0.99,-3.36 -0.16,4.18 0.61,8.34 2.25,12.19 0.25,0.59 0.53,1.17 0.82,1.75 l 0.04,0.07 c 1.13,1.85 2.76,3.35 4.71,4.31 7.08,3.68 19.04,2.42 30.23,-3.86 C 70.49,46 77.6,36.57 77.87,28.78 c 0.11,-2.13 -0.41,-4.25 -1.48,-6.1 -0.41,-0.6 -0.83,-1.18 -1.28,-1.73 -2.62,-3.28 -5.9,-5.96 -9.62,-7.88 0.99,0.62 1.83,1.47 2.44,2.48 l 0.01,0.01 z" />
	</g>
</g>
</svg>
