<?xml version="1.0" encoding="UTF-8"?>
<!DOCTYPE svg PUBLIC "-//W3C//DTD SVG 1.1//EN" "http://www.w3.org/Graphics/SVG/1.1/DTD/svg11.dtd">
<svg version="1.1" xmlns="http://www.w3.org/2000/svg" width="500" height="400">
<path d="M0 0 C165 0 330 0 500 0 C500 132 500 264 500 400 C335 400 170 400 0 400 C0 268 0 136 0 0 Z " fill="#000000" transform="translate(0,0)"/>
<path d="M0 0 C20.46 0 40.92 0 62 0 C62 23.43 62 46.86 62 71 C82.46 71 102.92 71 124 71 C124 91.46 124 111.92 124 133 C103.54 133 83.08 133 62 133 C62 167.65 62 202.3 62 238 C90.38 238 118.76 238 148 238 C148 258.79 148 279.58 148 301 C132.964375 301.12375 132.964375 301.12375 117.625 301.25 C114.4998291 301.28641602 111.3746582 301.32283203 108.15478516 301.36035156 C80.75232314 301.54635548 56.61398737 297.25684099 35 279 C34.20980469 278.35546875 33.41960937 277.7109375 32.60546875 277.046875 C15.57432145 262.56369462 3.04315365 241.3308215 0 219 C-0.53688577 211.8240781 -0.38030009 204.6110875 -0.34057617 197.4206543 C-0.33972863 195.26112886 -0.34020751 193.10160257 -0.34190369 190.94207764 C-0.34276012 185.11444404 -0.32519159 179.28699784 -0.30418181 173.45940757 C-0.28535603 167.35623371 -0.28365993 161.25305498 -0.28010559 155.14985657 C-0.27080242 143.60818459 -0.24621208 132.06659844 -0.21605712 120.52496415 C-0.18245922 107.37861292 -0.16601357 94.23225748 -0.15097082 81.08587396 C-0.11966095 54.05719085 -0.06467051 27.0286253 0 0 Z " fill="#FEFEFE" transform="translate(109,51)"/>
<path d="M0 0 C22.5026377 17.27338906 37.99638737 39.95773188 41.875 68.5625 C41.98680202 70.06064711 42.0665127 71.5613259 42.125 73.0625 C42.1765625 74.1453125 42.228125 75.228125 42.28125 76.34375 C42.53057405 86.23360413 41.28210591 95.43572657 39.125 105.0625 C38.88136719 106.16207031 38.63773438 107.26164062 38.38671875 108.39453125 C32.02925565 132.34800597 14.1794371 153.04638895 -6.890625 165.38671875 C-7.87546875 165.93972656 -8.8603125 166.49273437 -9.875 167.0625 C-10.57109375 167.46082031 -11.2671875 167.85914063 -11.984375 168.26953125 C-24.09165963 174.76296809 -37.4712821 178.41334721 -51.18017578 178.28955078 C-52.04970383 178.28984283 -52.91923187 178.29013489 -53.81510925 178.29043579 C-56.65028342 178.2890576 -59.48518502 178.27356861 -62.3203125 178.2578125 C-64.30142066 178.25407698 -66.28253068 178.25123256 -68.26364136 178.24923706 C-73.44870203 178.24164301 -78.6336486 178.22203131 -83.81866455 178.1998291 C-90.05547732 178.17565866 -96.29232849 178.16656954 -102.5291748 178.15492249 C-111.97786228 178.1356041 -121.42629996 178.09725206 -130.875 178.0625 C-130.875 157.2725 -130.875 136.4825 -130.875 115.0625 C-124.98785156 115.02511719 -119.10070312 114.98773438 -113.03515625 114.94921875 C-109.29359116 114.9189236 -105.55207275 114.88776562 -101.81054688 114.85351562 C-95.87884949 114.79929843 -89.94724443 114.74818425 -84.01538086 114.71606445 C-79.2300858 114.68995251 -74.4451028 114.64949467 -69.66000175 114.59931374 C-67.83931819 114.58269825 -66.01858071 114.57115099 -64.19783211 114.56488609 C-61.63684921 114.5551868 -59.07665518 114.52705939 -56.51586914 114.49487305 C-55.40023842 114.49702568 -55.40023842 114.49702568 -54.2620697 114.4992218 C-44.62462926 114.32920957 -36.66872636 110.90730701 -29.875 104.0625 C-22.65779844 94.31619362 -20.70505901 85.09962481 -21.875 73.0625 C-24.32629481 63.90959664 -28.78468396 56.6603212 -36.625 51.3125 C-44.80503321 46.6182764 -53.50159539 44.82696885 -62.875 46.0625 C-72.11138059 48.5657098 -80.08538272 53.34483182 -85.43359375 61.4140625 C-88.68856578 67.49902506 -90.02331654 73.27299399 -91.875 80.0625 C-112.335 80.0625 -132.795 80.0625 -153.875 80.0625 C-153.875 65.93854371 -153.875 65.93854371 -152.3125 59.3125 C-152.13686523 58.55372559 -151.96123047 57.79495117 -151.78027344 57.01318359 C-145.62150489 32.11416217 -129.43309243 10.7227838 -107.875 -2.9375 C-74.23668808 -23.08966167 -32.32507041 -22.72715035 0 0 Z " fill="#FDFDFD" transform="translate(403.875,103.9375)"/>
<path d="M0 0 C55.44 0 110.88 0 168 0 C168 20.79 168 41.58 168 63 C112.56 63 57.12 63 0 63 C0 42.21 0 21.42 0 0 Z " fill="#FCFCFC" transform="translate(273,289)"/>
<path d="M0 0 C20.46 0 40.92 0 62 0 C62 20.46 62 40.92 62 62 C41.54 62 21.08 62 0 62 C0 41.54 0 21.08 0 0 Z " fill="#FF3495" transform="translate(30,122)"/>
</svg>
