<?xml version="1.0" encoding="UTF-8"?>
<!DOCTYPE svg PUBLIC "-//W3C//DTD SVG 1.1//EN" "http://www.w3.org/Graphics/SVG/1.1/DTD/svg11.dtd">
<svg xmlns="http://www.w3.org/2000/svg" version="1.1" width="554px" height="550px" style="shape-rendering:geometricPrecision; text-rendering:geometricPrecision; image-rendering:optimizeQuality; fill-rule:evenodd; clip-rule:evenodd" xmlns:xlink="http://www.w3.org/1999/xlink">
<g><path style="opacity:0.998" fill="#fedc2d" d="M -0.5,-0.5 C 183.167,-0.5 366.833,-0.5 550.5,-0.5C 550.667,96.1672 550.5,192.834 550,289.5C 544.348,351.993 516.514,401.827 466.5,439C 403.268,476.112 339.934,512.946 276.5,549.5C 275.167,549.5 273.833,549.5 272.5,549.5C 208.896,512.36 145.23,475.193 81.5,438C 34.4218,402.352 7.08845,355.185 -0.5,296.5C -0.5,197.5 -0.5,98.5 -0.5,-0.5 Z"/></g>
<g><path style="opacity:1" fill="#333333" d="M 349.5,209.5 C 338.012,208.505 326.345,208.172 314.5,208.5C 314.168,246.67 314.501,284.67 315.5,322.5C 317.01,340.367 322.677,356.7 332.5,371.5C 293.996,371.832 255.663,371.499 217.5,370.5C 223.81,361.764 228.31,352.097 231,341.5C 233.023,332.275 234.189,322.941 234.5,313.5C 235.498,278.671 235.832,243.671 235.5,208.5C 223.322,208.172 211.322,208.505 199.5,209.5C 180.748,210.628 164.581,217.628 151,230.5C 150.5,202.169 150.333,173.835 150.5,145.5C 233.167,145.5 315.833,145.5 398.5,145.5C 398.667,173.835 398.5,202.169 398,230.5C 384.465,217.654 368.298,210.654 349.5,209.5 Z"/></g>
<g><path style="opacity:1" fill="#6e6532" d="M 199.5,209.5 C 211.322,208.505 223.322,208.172 235.5,208.5C 235.832,243.671 235.498,278.671 234.5,313.5C 234.5,278.833 234.5,244.167 234.5,209.5C 222.833,209.5 211.167,209.5 199.5,209.5 Z"/></g>
<g><path style="opacity:1" fill="#bda72f" d="M 349.5,209.5 C 338.167,209.5 326.833,209.5 315.5,209.5C 315.5,247.167 315.5,284.833 315.5,322.5C 314.501,284.67 314.168,246.67 314.5,208.5C 326.345,208.172 338.012,208.505 349.5,209.5 Z"/></g>
<g><path style="opacity:1" fill="#ccb22e" d="M 217.5,370.5 C 255.663,371.499 293.996,371.832 332.5,371.5C 293.998,372.831 255.331,372.831 216.5,371.5C 216.624,370.893 216.957,370.56 217.5,370.5 Z"/></g>
</svg>
