<svg id="logosandtypes_com" data-name="logosandtypes com" xmlns="http://www.w3.org/2000/svg" width="18px" height="18px" viewBox="0 0 150 150"><defs><style>.cls-1{fill:none;}.cls-2{fill:#00b9ee;}</style></defs><path class="cls-1" d="M0,.2H150v150H0Z" transform="translate(0 -0.2)"/><path class="cls-2" d="M102.65,55a38.29,38.29,0,0,0,11.14-26.89V20.72a8.5,8.5,0,0,0-17,0v7.37A21,21,0,0,1,76.07,49.44c-11.63,0-20.84-9.68-20.84-21.35V20.72a8.51,8.51,0,0,0-17,0v7.37a38.32,38.32,0,0,0,29.6,37.16V82.88A38.32,38.32,0,0,0,38.22,120v7.36a8.51,8.51,0,0,0,17,0V120a20.79,20.79,0,1,1,41.56,0v7.36a8.5,8.5,0,0,0,17,0V120c-.23-18-12.14-33.19-29.59-37.16V65.25A35.39,35.39,0,0,0,102.65,55" transform="translate(0 -0.2)"/><path class="cls-2" d="M76.13,134.08a14.55,14.55,0,1,0-14.54-14.55,14.56,14.56,0,0,0,14.54,14.55" transform="translate(0 -0.2)"/></svg>