<?xml version="1.0" encoding="UTF-8" standalone="no"?>
<!DOCTYPE svg PUBLIC "-//W3C//DTD SVG 1.1//EN" "http://www.w3.org/Graphics/SVG/1.1/DTD/svg11.dtd">
<svg width="40" height="16" viewBox="0 0 928 372" version="1.1" xmlns="http://www.w3.org/2000/svg" xmlns:xlink="http://www.w3.org/1999/xlink" xml:space="preserve" xmlns:serif="http://www.serif.com/" style="fill-rule:evenodd;clip-rule:evenodd;stroke-linejoin:round;stroke-miterlimit:2;">
    <g transform="matrix(1,0,0,1,-137,-214)">
        <path d="M575.014,395.782L575.014,503.249L540.928,503.249L540.928,237.905L631.331,237.905C653.118,237.45 674.207,245.725 689.87,260.876C705.716,275.129 714.64,295.565 714.324,316.875C714.777,338.303 705.837,358.893 689.87,373.191C674.062,388.266 654.549,395.796 631.331,395.782L575.014,395.782ZM575.014,270.551L575.014,363.198L632.178,363.198C644.843,363.574 657.097,358.589 665.904,349.479C674.658,340.968 679.603,329.264 679.603,317.055C679.603,304.845 674.658,293.142 665.904,284.63C657.204,275.325 644.912,270.193 632.178,270.551L575.014,270.551ZM792.87,315.774C818.065,315.774 837.952,322.507 852.532,335.972C867.112,349.437 874.395,367.899 874.381,391.357L874.381,503.249L841.777,503.249L841.777,478.055L840.295,478.055C826.18,498.803 807.408,509.177 783.978,509.177C763.978,509.177 747.246,503.249 733.78,491.393C720.702,480.379 713.273,464.028 713.583,446.932C713.583,428.146 720.682,413.206 734.881,402.112C749.08,391.018 768.036,385.457 791.748,385.429C811.988,385.429 828.658,389.134 841.756,396.544L841.756,388.753C841.834,377.099 836.658,366.009 827.677,358.583C818.665,350.453 806.912,346.013 794.776,346.155C775.736,346.155 760.668,354.186 749.574,370.249L719.553,351.342C736.067,327.63 760.506,315.774 792.87,315.774ZM748.77,447.673C748.724,456.468 752.941,464.761 760.076,469.903C767.613,475.832 776.973,478.975 786.561,478.796C800.94,478.772 814.737,473.042 824.903,462.874C836.195,452.246 841.84,439.776 841.84,425.464C831.212,416.996 816.392,412.761 797.38,412.761C783.534,412.761 771.988,416.099 762.743,422.775C753.406,429.55 748.77,437.786 748.77,447.673ZM1061.54,321.702L947.72,583.278L912.532,583.278L954.77,491.753L879.928,321.702L916.979,321.702L971.072,452.119L971.813,452.119L1024.42,321.702L1061.54,321.702Z" style="fill:rgb(36,36,36);fill-rule:nonzero;"/>
    </g>
    <g transform="matrix(1,0,0,1,-137,-214)">
        <path d="M437.272,372.641C437.284,362.253 436.406,351.883 434.646,341.646L290.891,341.646L290.891,400.355L373.227,400.355C369.824,419.294 358.818,436.041 342.783,446.678L342.783,484.787L391.922,484.787C420.694,458.259 437.272,419.028 437.272,372.641Z" style="fill:rgb(66,133,244);fill-rule:nonzero;"/>
    </g>
    <g transform="matrix(1,0,0,1,-137,-214)">
        <path d="M290.891,521.605C332.027,521.605 366.664,508.097 391.922,484.808L342.783,446.699C329.106,455.973 311.491,461.265 290.891,461.265C251.131,461.265 217.383,434.462 205.315,398.343L154.694,398.343L154.694,437.617C180.529,489.025 233.356,521.602 290.891,521.605Z" style="fill:rgb(52,168,83);fill-rule:nonzero;"/>
    </g>
    <g transform="matrix(1,0,0,1,-137,-214)">
        <path d="M205.315,398.343C198.937,379.42 198.937,358.917 205.315,339.994L205.315,300.721L154.694,300.721C133.068,343.754 133.068,394.584 154.694,437.617L205.315,398.343Z" style="fill:rgb(251,188,4);fill-rule:nonzero;"/>
    </g>
    <g transform="matrix(1,0,0,1,-137,-214)">
        <path d="M290.891,277.072C312.622,276.717 333.641,284.936 349.367,299.938L392.875,256.43C365.296,230.526 328.725,216.291 290.891,216.733C233.356,216.736 180.529,249.312 154.694,300.721L205.315,339.994C217.383,303.875 251.131,277.072 290.891,277.072Z" style="fill:rgb(234,67,53);fill-rule:nonzero;"/>
    </g>
</svg>
