<?xml version="1.0" encoding="UTF-8" standalone="no"?>
<!DOCTYPE svg PUBLIC "-//W3C//DTD SVG 1.1//EN" "http://www.w3.org/Graphics/SVG/1.1/DTD/svg11.dtd">
<svg width="38" height="16" viewBox="0 0 932 388" version="1.1" xmlns="http://www.w3.org/2000/svg" xmlns:xlink="http://www.w3.org/1999/xlink" xml:space="preserve" xmlns:serif="http://www.serif.com/" style="fill-rule:evenodd;clip-rule:evenodd;stroke-linejoin:round;stroke-miterlimit:2;">
    <g transform="matrix(1,0,0,1,-134,-206)">
        <path d="M307.125,259.359C296.306,272.161 278.996,282.258 261.687,280.816C259.523,263.506 267.997,245.114 277.915,233.755C288.733,220.592 307.666,211.216 322.992,210.495C324.795,228.526 317.763,246.196 307.125,259.359M322.812,284.241C297.749,282.799 276.292,298.486 264.391,298.486C252.311,298.486 234.099,284.963 214.265,285.323C188.481,285.684 164.5,300.289 151.337,323.549C124.291,370.069 144.305,438.947 170.45,476.812C183.252,495.564 198.578,516.119 218.773,515.398C237.886,514.677 245.459,502.957 268.538,502.957C291.798,502.957 298.47,515.398 318.664,515.037C339.58,514.677 352.743,496.285 365.545,477.533C380.15,456.256 386.1,435.521 386.461,434.439C386.1,434.078 346.071,418.752 345.711,372.593C345.35,334.007 377.265,315.615 378.707,314.533C360.676,287.848 332.548,284.963 322.812,284.241M467.6,231.952L467.6,513.054L511.235,513.054L511.235,416.949L571.638,416.949C626.813,416.949 665.579,379.084 665.579,324.27C665.579,269.456 627.534,231.952 573.081,231.952L467.6,231.952ZM511.235,268.735L561.541,268.735C599.406,268.735 621.043,288.93 621.043,324.45C621.043,359.971 599.406,380.346 561.361,380.346L511.235,380.346L511.235,268.735ZM745.276,515.218C772.683,515.218 798.107,501.334 809.646,479.336L810.548,479.336L810.548,513.054L850.937,513.054L850.937,373.134C850.937,332.564 818.482,306.42 768.536,306.42C722.196,306.42 687.938,332.925 686.676,369.347L725.983,369.347C729.229,352.038 745.276,340.678 767.274,340.678C793.96,340.678 808.925,353.12 808.925,376.019L808.925,391.525L754.472,394.771C703.805,397.836 676.398,418.572 676.398,454.634C676.398,491.056 704.706,515.218 745.276,515.218ZM756.996,481.86C733.736,481.86 718.951,470.681 718.951,453.552C718.951,435.882 733.195,425.604 760.422,423.981L808.925,420.916L808.925,436.783C808.925,463.108 786.567,481.86 756.996,481.86ZM904.85,589.505C947.403,589.505 967.417,573.277 984.907,524.053L1061.54,309.124L1017.18,309.124L965.794,475.189L964.893,475.189L913.505,309.124L867.886,309.124L941.813,513.775L937.846,526.216C931.175,547.313 920.356,555.427 901.063,555.427C897.637,555.427 890.966,555.066 888.261,554.705L888.261,588.423C890.786,589.144 901.604,589.505 904.85,589.505Z" style="fill-rule:nonzero;"/>
    </g>
</svg>
