<svg width="40" height="40" viewBox="0 0 40 40" fill="none" xmlns="http://www.w3.org/2000/svg">
<path d="M27.5289 14.7462C27.3397 14.4835 27.1505 14.2207 26.9614 13.958L16.4813 19.9259L11.4116 17.0358C11.2981 17.3736 11.2224 17.6738 11.1846 18.0116L16.5192 21.0519L27.5289 14.7462Z" fill="#1A9F29"/>
<path d="M16.4815 22.1778L11.0334 19.0625C10.9956 19.2501 10.9956 19.4753 10.9956 19.663C10.9956 24.5799 15.006 28.596 20.0001 28.596C24.9564 28.596 29.0046 24.6175 29.0046 19.663C29.0046 18.1992 28.6641 16.8105 28.0209 15.6094L16.4815 22.1778Z" fill="#1A9F29"/>
<path d="M26.2436 13.2069C25.9788 12.9441 25.7139 12.7565 25.4491 12.5312L16.4824 17.6734L12.1693 15.2337C12.018 15.4964 11.8667 15.7967 11.7153 16.0969L16.4446 18.7994L26.2436 13.2069Z" fill="#1A9F29"/>
<path d="M24.5408 11.9307C24.2003 11.7431 23.8598 11.5554 23.4814 11.4053L16.4821 15.4214L13.3419 13.6573C13.1149 13.8825 12.9257 14.1452 12.6987 14.408L16.4443 16.5474L24.5408 11.9307Z" fill="#1A9F29"/>
</svg>
