<svg width="32" height="16" viewBox="0 0 500 250.4" fill="none" xmlns="http://www.w3.org/2000/svg"><defs><style>.cls-1{fill:#fff;}.cls-2{fill:url(#_Безымянный_градиент);}</style><linearGradient id="_Безымянный_градиент" x1="105.37" y1="-777.13" x2="391.72" y2="-1102.01" gradientTransform="translate(0 1066.66)" gradientUnits="userSpaceOnUse"><stop offset="0" stop-color="#c7e701"/><stop offset=".24" stop-color="#0ada01"/><stop offset=".44" stop-color="#21de58"/><stop offset=".63" stop-color="#3ee3a9"/><stop offset=".81" stop-color="#37dabe"/><stop offset="1" stop-color="#15cae0"/></linearGradient></defs><path class="cls-2" d="m0,125.63C0,56.23,56.24,0,124.78,0h250.44c69.42,0,124.78,56.23,124.78,125.63s-56.24,124.76-124.78,124.76H125.66C56.24,251.27,0,195.04,0,125.63Z"/><g><path class="cls-1" d="m249.56,139.69v28.99h-16.7v-92.25h30.76c29,0,41.3,10.54,41.3,30.75s-14.06,32.51-41.3,32.51c0,0-14.06,0-14.06,0Zm0-48.32v33.39h15.82c14.94,0,22.85-5.27,22.85-17.57,0-11.42-7.03-15.81-22.85-15.81h-15.82Z"/><path class="cls-1" d="m313.71,107.18c4.39-3.51,12.3-6.15,23.73-6.15,19.33,0,29,6.15,29,23.72v43.05h-14.06v-11.42c-3.51,7.91-11.42,13.18-21.97,13.18-13.18,0-21.09-7.91-21.09-20.21,0-14.94,10.54-19.33,27.24-19.33h14.94v-2.64c0-9.66-4.39-12.3-13.18-12.3-12.3,0-19.33,4.39-23.73,11.42l-.88-19.33Zm36.91,37.78v-5.27h-13.18c-8.79,0-13.18,1.76-13.18,7.91,0,5.27,3.51,7.91,10.54,7.91,10.54,0,14.94-6.15,15.82-10.54Z"/><path class="cls-1" d="m373.46,101.91h16.7l17.57,44.81,14.94-44.81h15.82l-26.36,72.04c-6.15,15.81-11.42,19.33-20.21,19.33-4.39,0-8.79-.88-10.54-2.64v-14.06c1.76,1.76,5.27,3.51,7.91,3.51,4.39,0,7.91-3.51,10.54-12.3l-26.36-65.89Z"/><path class="cls-1" d="m98.42,107.18v20.21l26.36,16.69,64.15-46.56c-2.64-5.27-5.27-9.66-8.79-14.06l-55.36,40.41-26.36-16.69Z"/><path class="cls-1" d="m179.26,123.88v1.76c0,12.3-4.39,23.72-11.42,33.39s-17.57,15.81-29.88,19.33c-11.42,2.64-23.73,1.76-35.15-3.51-11.42-5.27-20.21-13.18-25.48-23.72-5.27-10.54-7.91-22.84-5.27-35.14,1.76-12.3,7.91-22.84,17.57-30.75,8.79-7.91,20.21-13.18,32.51-13.18,12.3-.88,23.73,2.64,34.27,9.66l14.06-9.66c-12.3-9.66-28.12-15.81-43.94-15.81s-31.63,5.27-43.94,14.94c-12.3,9.66-21.09,23.72-24.6,39.54-3.51,15.81-1.76,31.63,5.27,45.69s18.45,26.36,32.51,32.51c14.06,7.03,30.76,8.79,45.69,5.27,15.82-3.51,29-12.3,39.54-24.6,9.67-12.3,14.94-28.11,14.94-43.93,0-4.39,0-8.79-.88-12.3l-15.82,10.54Z"/></g></svg>