<?xml version="1.0" encoding="utf-8"?>
<svg width="96px" height="18px" viewBox="0 0 96 18" version="1.1" xmlns:xlink="http://www.w3.org/1999/xlink" xmlns="http://www.w3.org/2000/svg">
  <desc>Created with Lunacy</desc>
  <g id="content">
    <path d="M1.01739 8.72609C1.4087 9.15652 1.87826 9.46956 2.46522 9.70435C3.05217 9.93913 3.71739 10.0565 4.53913 10.0565C4.93044 10.0565 5.32174 10.0174 5.63478 9.97826C5.98696 9.93913 6.26087 9.86087 6.53478 9.74348C6.8087 9.66522 7.04348 9.54783 7.27826 9.46956C7.47391 9.35217 7.66957 9.27391 7.82609 9.19565L7.55217 8.6087C7.39565 8.68696 7.23913 8.76522 7.08261 8.84348C6.92609 8.92174 6.76957 8.96087 6.57391 9.03913C6.37826 9.07826 6.18261 9.15652 5.94783 9.15652C5.71304 9.19565 5.43913 9.19565 5.12609 9.19565C4.53913 9.19565 4.03044 9.07826 3.67826 8.84348C3.28696 8.6087 3.01304 8.29565 2.77826 7.94348C2.58261 7.55217 2.42609 7.08261 2.34783 6.57391C2.26957 6.02609 2.23044 5.47826 2.23044 4.85217C2.23044 4.38261 2.26957 3.87391 2.3087 3.36522C2.34783 2.85652 2.46522 2.42609 2.66087 2.03478C2.85652 1.64348 3.0913 1.33043 3.44348 1.05652C3.79565 0.821739 4.26522 0.665217 4.85217 0.665217C5.4 0.665217 5.86957 0.821739 6.26087 1.09565C6.65217 1.36957 6.88696 1.83913 7.00435 2.42609L7.63044 2.42609L7.63044 0.508696C7.43478 0.430435 7.23913 0.352174 7.00435 0.273913C6.76957 0.195652 6.53478 0.156522 6.26087 0.117391C5.98696 0.0782609 5.75217 0.0782609 5.47826 0.0391304C5.24348 0.0391304 5.0087 0 4.81304 0C3.95217 0 3.24783 0.117391 2.62174 0.352174C2.03478 0.586957 1.52609 0.93913 1.13478 1.36957C0.743478 1.8 0.469565 2.34783 0.273913 2.97391C0.0782609 3.6 0 4.34348 0 5.12609C0 5.86957 0.0782609 6.57391 0.273913 7.16087C0.391304 7.82609 0.665217 8.33478 1.01739 8.72609Z" transform="translate(23.75217 2.308696)" id="Path" fill="#1A9F29" stroke="none" />
    <path d="M6.53478 9.19565C6.18261 9.3913 5.71304 9.54783 5.24348 9.58696C4.73478 9.66522 4.22609 9.66522 3.63913 9.66522L0 9.66522L0 9.35217C0.0391304 9.35217 0.0782609 9.35217 0.195652 9.31304C0.313043 9.31304 0.391304 9.23478 0.430435 9.19565C0.508696 9.15652 0.547826 9.07826 0.547826 8.96087C0.586957 8.88261 0.586957 8.72609 0.586957 8.56956L0.586957 1.09565C0.586957 0.93913 0.547826 0.821739 0.547826 0.704348C0.508696 0.586957 0.469565 0.508696 0.430435 0.469565Q0.371739 0.41087 0.195652 0.352174C0.0782609 0.352174 0.0391304 0.313043 0 0.313043L0 0L7.2 0L7.2 2.15217L6.6913 2.15217C6.61304 1.8 6.49565 1.52609 6.41739 1.33043C6.33913 1.13478 6.22174 0.978261 6.06522 0.86087C5.94783 0.743478 5.75217 0.704348 5.51739 0.665217C5.28261 0.626087 4.96956 0.626087 4.61739 0.626087L3.44348 0.626087C3.13043 0.626087 2.93478 0.626087 2.81739 0.704348C2.7 0.782609 2.66087 0.93913 2.66087 1.17391L2.66087 3.48261L3.48261 3.48261C4.26522 3.48261 4.93043 3.52174 5.47826 3.63913C6.02609 3.75652 6.45652 3.91304 6.8087 4.14783C7.16087 4.42174 7.39565 4.69565 7.55217 5.08696C7.7087 5.47826 7.78696 5.9087 7.78696 6.45652Q7.78696 7.57174 7.43478 8.21739C7.23913 8.64783 6.92609 8.96087 6.53478 9.19565ZM2.73913 8.6087C2.73913 8.72609 2.77826 8.80435 2.85652 8.88261C2.93478 8.96087 3.05217 9 3.16957 9.03913C3.28696 9.07826 3.48261 9.07826 3.71739 9.11739C3.95217 9.11739 4.18696 9.07826 4.42174 9.03913Q4.71522 8.92174 5.0087 8.68696C5.20435 8.4913 5.32174 8.25652 5.43913 7.90435C5.55652 7.55217 5.59565 7.12174 5.59565 6.53478Q5.59565 5.24348 5.12609 4.65652C4.81304 4.26522 4.26522 4.06957 3.52174 4.06957L2.7 4.06957L2.7 8.13913C2.7 8.33478 2.73913 8.4913 2.73913 8.6087Z" transform="translate(57.79565 2.465217)" id="Shape" fill="#1A9F29" fill-rule="evenodd" stroke="none" />
    <path d="M2.97391 9.31304C3.0913 9.31304 3.13043 9.35217 3.16957 9.35217L3.16957 9.62609L0 9.62609L0 9.31304C0.0391304 9.31304 0.0782609 9.31304 0.195652 9.27391C0.313043 9.27391 0.391304 9.19565 0.430435 9.15652C0.508696 9.11739 0.547826 9.03913 0.547826 8.92174C0.586957 8.84348 0.586957 8.68696 0.586957 8.53043L0.586957 1.09565C0.586957 0.93913 0.547826 0.821739 0.547826 0.704348Q0.48913 0.528261 0.430435 0.469565Q0.371739 0.41087 0.195652 0.352174C0.0782609 0.352174 0.0391304 0.313043 0 0.313043L0 0L3.83478 0C4.30435 0 4.73478 0.0391304 5.16522 0.0782609C5.59565 0.117391 5.98696 0.234783 6.3 0.430435C6.61304 0.626087 6.88696 0.93913 7.08261 1.2913C7.23913 1.64348 7.35652 2.15217 7.35652 2.77826C7.35652 3.44348 7.23913 3.9913 7.04348 4.38261C6.84783 4.81304 6.57391 5.08696 6.22174 5.32174C5.86957 5.51739 5.47826 5.67391 5.0087 5.75217C4.53913 5.83044 4.06957 5.86957 3.56087 5.86957L2.58261 5.86957L2.58261 8.56956C2.58261 8.72609 2.62174 8.84348 2.62174 8.96087C2.66087 9.07826 2.7 9.15652 2.73913 9.19565C2.77826 9.23478 2.85652 9.27391 2.97391 9.31304ZM2.66087 0.86087C2.62174 0.93913 2.62174 1.01739 2.62174 1.09565L2.62174 5.24348L3.6 5.24348C4.18696 5.24348 4.61739 5.0087 4.85217 4.57826C5.08696 4.14783 5.20435 3.52174 5.20435 2.7C5.20435 2.3087 5.16522 1.95652 5.08696 1.68261C4.96957 1.4087 4.85217 1.17391 4.69565 1.01739C4.5 0.86087 4.34348 0.743478 4.1087 0.665217C3.87391 0.626087 3.63913 0.586957 3.40435 0.586957C3.2087 0.586957 3.0913 0.626087 2.97391 0.626087C2.85652 0.626087 2.77826 0.665217 2.73913 0.704348C2.7 0.743478 2.66087 0.782609 2.66087 0.86087Z" transform="translate(49.57826 2.465217)" id="Shape" fill="#1A9F29" fill-rule="evenodd" stroke="none" />
    <path d="M6.96522 7.43478L6.33913 7.43478C6.26087 7.82609 6.18261 8.1 6.10435 8.33478C6.02609 8.56956 5.94783 8.72609 5.7913 8.84348C5.67391 8.96087 5.47826 9.03913 5.24348 9.03913C5.0087 9.07826 4.69565 9.07826 4.26522 9.07826C3.87391 9.07826 3.56087 9.07826 3.36522 9.03913C3.13043 9 2.97391 8.96087 2.85652 8.88261C2.73913 8.80435 2.66087 8.68696 2.66087 8.56956C2.62174 8.41304 2.62174 8.25652 2.62174 8.02174L2.62174 4.96957L3.91304 4.96957C4.03043 4.96957 4.14783 4.96957 4.30435 4.96957C4.46087 4.96957 4.61739 5.0087 4.77391 5.0087C4.93044 5.0087 5.08696 5.04783 5.24348 5.08696C5.4 5.12609 5.51739 5.16522 5.63478 5.24348L5.63478 3.9913C5.51739 4.06957 5.4 4.1087 5.24348 4.14783C5.08696 4.18696 4.93044 4.22609 4.77391 4.22609C4.61739 4.26522 4.46087 4.26522 4.30435 4.26522C4.14783 4.26522 4.03043 4.26522 3.91304 4.26522L2.62174 4.26522L2.62174 1.05652C2.62174 0.86087 2.66087 0.704348 2.7 0.626087C2.77826 0.547826 2.89565 0.547826 3.0913 0.547826L4.14783 0.547826C4.5 0.547826 4.81304 0.547826 5.04783 0.586957C5.28261 0.626087 5.47826 0.665217 5.59565 0.782609C5.75217 0.9 5.86957 1.05652 5.94783 1.25217C6.02609 1.44783 6.14348 1.72174 6.22174 2.07391L6.73043 2.07391L6.73043 0L0.547826 0L0 0L0 0.313043C0.0391304 0.313043 0.0782609 0.352174 0.195652 0.352174C0.313044 0.391304 0.391304 0.430435 0.430435 0.469565C0.469565 0.508696 0.508696 0.586957 0.547826 0.704348C0.547826 0.821739 0.586957 0.93913 0.586957 1.09565L0.586957 8.53043C0.586957 8.68696 0.586957 8.84348 0.547826 8.92174C0.547826 9.03913 0.508696 9.11739 0.430435 9.15652C0.391304 9.19565 0.313044 9.27391 0.195652 9.27391C0.0782609 9.31304 0.0391304 9.31304 0 9.31304L0 9.62609L6.96522 9.62609L6.96522 7.43478L6.96522 7.43478Z" transform="translate(41.32174 2.465217)" id="Path" fill="#1A9F29" stroke="none" />
    <path d="M6.49565 9.19565C6.14348 9.3913 5.67391 9.54783 5.20435 9.58696C4.69565 9.66522 4.22609 9.66522 3.63913 9.66522L0 9.66522L0 9.31304C0.0391304 9.31304 0.0782609 9.31304 0.195652 9.27391C0.313043 9.27391 0.391304 9.19565 0.430435 9.15652C0.508696 9.11739 0.547826 9.03913 0.547826 8.92174C0.586957 8.80435 0.586957 8.68696 0.586957 8.53043L0.586957 1.09565C0.586957 0.93913 0.547826 0.821739 0.547826 0.704348C0.508696 0.586957 0.469565 0.508696 0.430435 0.469565Q0.371739 0.41087 0.195652 0.352174C0.0782609 0.352174 0.0391304 0.313043 0 0.313043L0 0L7.2 0L7.2 2.15217L6.6913 2.15217C6.61304 1.8 6.49565 1.52609 6.41739 1.33043C6.33913 1.13478 6.22174 0.978261 6.06522 0.86087C5.94783 0.743478 5.75217 0.704348 5.51739 0.665217C5.28261 0.626087 4.96956 0.626087 4.61739 0.626087L3.44348 0.626087C3.13043 0.626087 2.93478 0.626087 2.81739 0.704348C2.7 0.782609 2.66087 0.93913 2.66087 1.17391L2.66087 3.48261L3.48261 3.48261C4.26522 3.48261 4.93043 3.52174 5.47826 3.63913C6.02609 3.75652 6.45652 3.91304 6.8087 4.14783C7.16087 4.42174 7.39565 4.69565 7.55217 5.08696C7.7087 5.47826 7.78696 5.9087 7.78696 6.45652Q7.78696 7.57174 7.43478 8.21739C7.2 8.64783 6.88696 8.96087 6.49565 9.19565ZM2.7 8.6087C2.7 8.72609 2.73913 8.80435 2.81739 8.88261C2.89565 8.96087 3.01304 9 3.13043 9.03913C3.28696 9.07826 3.44348 9.07826 3.67826 9.11739C3.91304 9.11739 4.14783 9.07826 4.38261 9.03913C4.57826 8.96087 4.77391 8.84348 4.96956 8.68696C5.16522 8.4913 5.28261 8.25652 5.4 7.90435C5.51739 7.55217 5.55652 7.12174 5.55652 6.53478Q5.55652 5.24348 5.08696 4.65652C4.77391 4.26522 4.22609 4.06957 3.48261 4.06957L2.66087 4.06957L2.66087 8.13913C2.66087 8.33478 2.7 8.4913 2.7 8.6087Z" transform="translate(32.43913 2.465217)" id="Shape" fill="#1A9F29" fill-rule="evenodd" stroke="none" />
    <path d="M0 0L70.9435 0L70.9435 0.939131L0 0.939131L0 0Z" transform="translate(23.67391 14.86957)" id="Rectangle" fill="#1A9F29" stroke="none" />
    <path d="M0.586956 5.94783C0.782608 6.22174 0.93913 6.45652 1.13478 6.6913C1.2913 6.92609 1.48696 7.16087 1.64348 7.39565C1.8 7.63043 1.95652 7.86522 2.15217 8.1C2.34782 8.37391 2.50435 8.6087 2.66087 8.88261C2.81739 9.11739 2.93478 9.3913 3.05217 9.62609L6.33913 9.66522C5.98695 9.31304 5.67391 8.96087 5.32174 8.6087C5.00869 8.25652 4.73478 7.94348 4.53913 7.74783C4.22608 7.39565 3.95217 7.08261 3.71739 6.8087C3.44348 6.49565 3.20869 6.22174 2.97391 5.94783C2.73913 5.67391 2.50435 5.36087 2.30869 5.08696C2.11304 4.81304 1.87826 4.46087 1.68261 4.14783L1.83913 3.95217C2.07391 3.63913 2.34782 3.32609 2.66087 2.93478C2.97391 2.54348 3.28695 2.15217 3.63913 1.8C3.9913 1.4087 4.30435 1.05652 4.65652 0.743478C5.00869 0.430435 5.28261 0.195652 5.55652 0L3.28695 0C3.20869 0.195652 3.0913 0.430435 2.93478 0.704348C2.77826 0.978261 2.62174 1.2913 2.38696 1.60435C2.1913 1.91739 1.95652 2.26957 1.76087 2.62174C1.52609 2.97391 1.33043 3.28696 1.09565 3.6C0.860869 3.91304 0.665217 4.22609 0.469565 4.46087C0.273913 4.73478 0.117391 4.93043 0 5.12609C0.195652 5.4 0.391304 5.67391 0.586956 5.94783Z" transform="translate(88.35652 2.543478)" id="Path" fill="#1A9F29" stroke="none" />
    <path d="M3.16956 9.35217C3.13043 9.35217 3.0913 9.31304 2.97391 9.31304C2.85652 9.27391 2.77826 9.23478 2.73913 9.19565C2.7 9.15652 2.66087 9.07826 2.62174 8.96087C2.62174 8.84348 2.58261 8.72609 2.58261 8.56956L2.58261 1.13478C2.58261 0.978261 2.58261 0.821739 2.62174 0.743478C2.62174 0.626087 2.66087 0.547826 2.73913 0.508696C2.77826 0.469565 2.85652 0.430435 2.97391 0.391304C3.0913 0.352174 3.13043 0.352174 3.16956 0.352174L3.16956 0L0.547826 0L0 0L0 0.313043C0.0391304 0.313043 0.0782608 0.352174 0.195652 0.352174C0.313043 0.391304 0.391304 0.430435 0.430434 0.469565C0.469565 0.508696 0.508695 0.586957 0.547826 0.704348C0.547826 0.821739 0.586956 0.93913 0.586956 1.09565L0.586956 8.53043C0.586956 8.68696 0.586956 8.84348 0.547826 8.92174C0.547826 9.03913 0.508695 9.11739 0.430434 9.15652C0.391304 9.19565 0.313043 9.27391 0.195652 9.27391C0.0782608 9.31304 0.0391304 9.31304 0 9.31304L0 9.62609L3.16956 9.62609L3.16956 9.35217Z" transform="translate(85.5 2.465217)" id="Path" fill="#1A9F29" stroke="none" />
    <path d="M2.66087 6.14348C2.34783 7.12174 2.11304 7.90435 1.99565 8.45217C1.87826 9 1.8 9.3913 1.76087 9.66522L0 9.66522C0.0782609 9.5087 0.156522 9.35217 0.273913 9.15652C0.391304 8.96087 0.508696 8.68696 0.665217 8.37391C0.782609 8.06087 0.978261 7.63043 1.17391 7.16087C1.36957 6.6913 1.64348 6.06522 1.91739 5.36087L3.48261 1.52609C3.56087 1.36957 3.6 1.13478 3.6 0.9L3.6 0.704348Q3.5413 0.528261 3.48261 0.469565C3.44348 0.430435 3.36522 0.391304 3.24783 0.352174C3.13043 0.352174 3.0913 0.313043 3.05217 0.313043L3.05217 0L5.83043 0C5.86957 0.117391 5.86957 0.273913 5.9087 0.469565C5.94783 0.665217 5.98696 0.9 6.10435 1.17391L8.33478 7.51304C8.53043 8.1 8.72609 8.56956 8.88261 8.88261C9.03913 9.19565 9.15652 9.46957 9.27391 9.66522L6.8087 9.66522C6.8087 9.46957 6.73043 9.19565 6.61304 8.80435C6.53478 8.41304 6.37826 7.94348 6.18261 7.39565L5.75217 6.14348L2.66087 6.14348ZM5.51739 5.47826L4.22609 1.56522L2.85652 5.47826L5.51739 5.47826Z" transform="translate(65.62174 2.504348)" id="Shape" fill="#1A9F29" fill-rule="evenodd" stroke="none" />
    <path d="M3.16956 9.35217L3.0913 9.35217C3.05217 9.35217 3.01304 9.31304 2.89565 9.31304C2.77826 9.27391 2.7 9.23478 2.66087 9.19565C2.62174 9.15652 2.58261 9.07826 2.54348 8.96087C2.54348 8.84348 2.50435 8.72609 2.50435 8.56956L2.50435 4.85217L6.26087 4.85217L6.26087 8.53043C6.26087 8.68696 6.26087 8.84348 6.22174 8.92174C6.22174 9.03913 6.18261 9.11739 6.10435 9.15652C6.06522 9.19565 5.98695 9.27391 5.86956 9.27391C5.75217 9.31304 5.71304 9.31304 5.67391 9.31304L5.67391 9.62609L8.84348 9.62609L8.84348 9.31304C8.80435 9.31304 8.76521 9.27391 8.64782 9.27391C8.53043 9.23478 8.45217 9.19565 8.41304 9.15652C8.37391 9.11739 8.33478 9.03913 8.29565 8.92174C8.29565 8.80435 8.25652 8.68696 8.25652 8.53043L8.25652 6.61304L8.25652 6.53478L8.25652 3.01304L8.25652 2.97391L8.25652 1.05652C8.25652 0.9 8.25652 0.743478 8.29565 0.665217C8.29565 0.547826 8.33478 0.469565 8.41304 0.430435C8.45217 0.391304 8.53043 0.352174 8.64782 0.313043C8.76521 0.273913 8.80435 0.273913 8.84348 0.273913L8.84348 0L6.22174 0L5.75217 0L5.75217 0.313043C5.7913 0.313043 5.83043 0.352174 5.94782 0.352174C6.06522 0.391304 6.14348 0.430435 6.18261 0.469565C6.22174 0.508696 6.26087 0.586957 6.3 0.704348C6.3 0.821739 6.33913 0.93913 6.33913 1.09565L6.33913 4.18696L2.58261 4.18696L2.58261 1.09565C2.58261 0.93913 2.58261 0.782609 2.62174 0.704348C2.62174 0.586957 2.66087 0.508696 2.73913 0.469565C2.77826 0.430435 2.85652 0.391304 2.97391 0.352174C3.0913 0.313043 3.13043 0.313043 3.16956 0.313043L3.16956 0L0.547826 0L0 0L0 0.313043C0.0391304 0.313043 0.0782608 0.352174 0.195652 0.352174C0.313043 0.391304 0.391304 0.430435 0.430435 0.469565C0.469565 0.508696 0.508695 0.586957 0.547826 0.704348C0.547826 0.821739 0.586956 0.93913 0.586956 1.09565L0.586956 1.33043L0.586956 8.02174L0.586956 8.06087L0.586956 8.56956C0.586956 8.72609 0.586956 8.84348 0.547826 8.96087C0.547826 9.07826 0.508695 9.15652 0.430435 9.19565C0.391304 9.23478 0.313043 9.31304 0.195652 9.31304C0.0782608 9.35217 0.0391304 9.35217 0 9.35217L0 9.66522L3.16956 9.66522L3.16956 9.35217L3.16956 9.35217Z" transform="translate(75.44348 2.465217)" id="Path" fill="#1A9F29" stroke="none" />
    <path d="M16.9043 0.821739C16.7087 0.547826 16.513 0.273913 16.3174 0L5.47826 6.22174L0.234783 3.2087C0.117391 3.56087 0.0391304 3.87391 0 4.22609L5.51739 7.39565L16.9043 0.821739Z" transform="translate(0.3130435 2.66087)" id="Path" fill="#1A9F29" stroke="none" />
    <path d="M5.67391 6.84783L0.0391304 3.6C0 3.79565 0 4.03044 0 4.22609C0 9.35217 4.14783 13.5391 9.31304 13.5391C14.4391 13.5391 18.6261 9.3913 18.6261 4.22609C18.6261 2.7 18.2739 1.25217 17.6087 0L5.67391 6.84783Z" transform="translate(0.1173913 4.382609)" id="Path" fill="#1A9F29" stroke="none" />
    <path d="M15.0261 0.704348C14.7522 0.430435 14.4783 0.234783 14.2043 0L4.93043 5.36087L0.469565 2.81739C0.313043 3.0913 0.156522 3.40435 0 3.71739L4.8913 6.53478L15.0261 0.704348Z" transform="translate(0.8608696 1.173913)" id="Path" fill="#1A9F29" stroke="none" />
    <path d="M12.2478 0.547826C11.8957 0.352174 11.5435 0.156522 11.1522 0L3.91304 4.18696L0.665217 2.34783C0.430435 2.58261 0.234783 2.85652 0 3.13043L3.87391 5.36087L12.2478 0.547826Z" transform="translate(1.878261 0)" id="Path" fill="#1A9F29" stroke="none" />
  </g>
</svg>