<svg width="29" height="16" viewBox="0 0 75 42" fill="none" xmlns="http://www.w3.org/2000/svg">
<path d="M74.9999 15.6023V26.0826H71.2855V18.728H67.7291V26.0826H64.0146V15.6023H74.9999Z" fill="#050220"/>
<path d="M62.2762 21.4334C62.2762 24.4803 59.7209 26.5029 56.2962 26.5029C52.7399 26.5029 50.1582 24.3753 50.1582 19.5423C50.1582 15.3922 52.8189 11.9775 56.7441 11.925C58.4564 11.925 62.1709 11.8462 62.1709 11.8462L60.5112 14.8931C60.5112 14.8931 57.5607 14.8931 57.1656 14.8931C55.4796 14.8931 53.9253 16.1539 53.7146 17.9137C54.6103 17.0732 55.8221 16.5741 57.271 16.5741C60.3795 16.5479 62.2762 18.4653 62.2762 21.4334ZM58.4828 21.4334C58.4828 20.0676 57.5871 19.2533 56.3226 19.2533C55.0054 19.2533 54.1361 20.0676 54.1361 21.4334C54.1361 22.7205 55.0054 23.6661 56.3226 23.6661C57.6925 23.6661 58.4828 22.6417 58.4828 21.4334Z" fill="#050220"/>
<path d="M47.2336 22.9042C47.2336 22.9042 46.3379 23.4033 44.9944 23.5084C43.4664 23.5609 42.0966 22.6153 42.0966 20.9342C42.0966 19.3057 43.3084 18.3601 44.968 18.3601C45.9954 18.3601 47.3389 19.0431 47.3389 19.0431C47.3389 19.0431 48.3136 17.2832 48.8405 16.3902C47.9185 15.7072 46.654 15.3132 45.2051 15.3132C41.5434 15.3132 38.7246 17.6247 38.7246 20.8817C38.7246 24.1913 41.3853 26.4502 45.2051 26.3714C46.2852 26.3189 47.7604 25.9774 48.6561 25.3995L47.2336 22.9042Z" fill="#050220"/>
<path d="M0 9.14062L5.11064 18.2288V23.771L0 32.8592V9.14062Z" fill="#473997"/>
<path d="M19.6523 14.9192L24.4469 12.0037H34.2467L19.6523 20.8817V14.9192Z" fill="#E40240"/>
<path d="M19.6263 9.08818L19.6526 21.1182L14.5156 17.9925V0L19.6263 9.08818Z" fill="#FFAD13"/>
<path d="M34.2469 12.0038H24.4471L19.6263 9.08818L14.5156 0L34.2469 12.0038Z" fill="#FE5611"/>
<path d="M19.6526 32.9118V27.0544L14.5156 23.9812V42L19.6526 32.9118Z" fill="#58B124"/>
<path d="M24.4204 30.0224L5.11064 18.2288L0 9.14062L34.2466 29.9962L24.4204 30.0224Z" fill="#3874B3"/>
<path d="M14.5156 42.0001L19.6526 32.9119L24.4208 30.0226L34.2469 29.9963L14.5156 42.0001Z" fill="#1E6721"/>
<path d="M0 32.8593L14.568 23.9813L9.66807 21.0132L5.11064 23.7712L0 32.8593Z" fill="#842991"/>
</svg>
