<?xml version="1.0" encoding="UTF-8" standalone="no"?>
<!DOCTYPE svg PUBLIC "-//W3C//DTD SVG 1.1//EN" "http://www.w3.org/Graphics/SVG/1.1/DTD/svg11.dtd">
<svg width="39" height="16" viewBox="0 0 104 43" version="1.1" xmlns="http://www.w3.org/2000/svg" xmlns:xlink="http://www.w3.org/1999/xlink" xml:space="preserve" xmlns:serif="http://www.serif.com/" style="fill-rule:evenodd;clip-rule:evenodd;stroke-linejoin:round;stroke-miterlimit:2;">
    <g transform="matrix(1,0,0,1,-68,-4)">
        <path d="M109.9,25.5C109.9,36.7 100.9,45.7 89.7,45.7C78.5,45.7 69.5,36.7 69.5,25.5C69.5,14.3 78.5,5.3 89.7,5.3C100.9,5.3 109.9,14.3 109.9,25.5Z" style="fill:rgb(255,56,21);fill-rule:nonzero;"/>
    </g>
    <g transform="matrix(1,0,0,1,-68,-4)">
        <path d="M86.4,13.3C88,12.7 89.8,12.4 91.9,12.4L96.8,12.4L96.8,38.2L92.2,38.2L92.2,29.3L89.4,29.3L85.5,38.2L80.5,38.2L85,28.2C84.1,27.7 83.4,27.1 82.8,26.4C82.2,25.7 81.8,24.9 81.5,24C81.2,23.1 81.1,22.2 81.1,21.1L81.1,20.8C81.1,18.8 81.6,17.2 82.6,16C83.5,14.7 84.7,13.9 86.4,13.3ZM88.2,25.1C89,25.4 89.9,25.5 90.9,25.5L92.1,25.5L92.1,16L90.8,16C89.3,16 88,16.4 87,17.1C86,17.8 85.5,18.9 85.5,20.7L85.5,20.8C85.5,22 85.8,22.9 86.2,23.6C86.8,24.3 87.5,24.8 88.2,25.1Z" style="fill:white;"/>
    </g>
    <g transform="matrix(1,0,0,1,-68,-4)">
        <path d="M119.5,15.2L126.1,15.2C128.6,15.2 130.6,15.7 132,16.7C133.4,17.7 134.1,19.3 134.1,21.5C134.1,22.7 133.9,23.7 133.5,24.5C133.1,25.4 132.6,26.1 131.9,26.6C131.2,27.1 130.3,27.5 129.4,27.8C128.4,28.1 127.3,28.2 126.1,28.2L123.5,28.2L123.5,35.2L119.5,35.2L119.5,15.2ZM123.5,18.5L123.5,24.9L126.1,24.9C127.4,24.9 128.4,24.7 129.1,24.2C129.8,23.7 130.2,22.8 130.2,21.6C130.2,20.5 129.9,19.8 129.2,19.3C128.5,18.8 127.5,18.5 126.2,18.5L123.5,18.5Z" style="fill-rule:nonzero;"/>
    </g>
    <g transform="matrix(1,0,0,1,-68,-4)">
        <path d="M141.4,15.2L146.2,15.2L153.2,35.2L149.2,35.2L147.5,30.3L139.5,30.3L137.8,35.2L134.5,35.2L141.4,15.2ZM146.4,27L143.5,18.7L140.6,27L146.4,27Z" style="fill-rule:nonzero;"/>
    </g>
    <g transform="matrix(1,0,0,1,-68,-4)">
        <path d="M163.1,26.7L163.1,35.1L159.1,35.1L159.1,26.7L152.7,15.1L157.1,15.1L161.4,23.2L165.9,15.1L169.6,15.1L163.1,26.7Z" style="fill-rule:nonzero;"/>
    </g>
</svg>
