<svg width="24" height="24" viewBox="0 0 24 24" fill="none" xmlns="http://www.w3.org/2000/svg">
<path d="M10.833 10.8757C10.4188 10.8757 10.083 11.2115 10.083 11.6257C10.083 12.0399 10.4188 12.3757 10.833 12.3757V10.8757ZM22.6455 11.6257L23.1758 12.1561C23.4687 11.8632 23.4687 11.3883 23.1758 11.0954L22.6455 11.6257ZM19.3027 13.9079C19.0098 14.2008 19.0098 14.6757 19.3027 14.9686C19.5956 15.2615 20.0704 15.2615 20.3633 14.9686L19.3027 13.9079ZM20.3633 8.2829C20.0704 7.99001 19.5956 7.99001 19.3027 8.2829C19.0098 8.5758 19.0098 9.05067 19.3027 9.34356L20.3633 8.2829ZM17.13 15.4007C17.3113 15.0283 17.1564 14.5794 16.7839 14.3981C16.4115 14.2168 15.9626 14.3718 15.7813 14.7442L17.13 15.4007ZM15.6599 8.26929C15.855 8.63466 16.3094 8.77267 16.6748 8.57754C17.0401 8.38241 17.1781 7.92803 16.983 7.56266L15.6599 8.26929ZM10.833 12.3757H22.6455V10.8757H10.833V12.3757ZM20.3633 14.9686L23.1758 12.1561L22.1152 11.0954L19.3027 13.9079L20.3633 14.9686ZM23.1758 11.0954L20.3633 8.2829L19.3027 9.34356L22.1152 12.1561L23.1758 11.0954ZM15.7813 14.7442C14.3398 17.7056 11.0564 19.293 7.84012 18.5835L7.51698 20.0483C11.4104 20.9072 15.385 18.9856 17.13 15.4007L15.7813 14.7442ZM7.84012 18.5835C4.62384 17.874 2.31304 15.0525 2.25127 11.7594L0.751532 11.7876C0.826312 15.7739 3.62359 19.1894 7.51698 20.0483L7.84012 18.5835ZM2.25127 11.7594C2.18949 8.46639 4.39284 5.5602 7.58025 4.73054L7.2024 3.27891C3.34396 4.28323 0.676752 7.80126 0.751532 11.7876L2.25127 11.7594ZM7.58025 4.73054C10.7677 3.90089 14.1083 5.36404 15.6599 8.26929L16.983 7.56266C15.1048 4.04578 11.0608 2.2746 7.2024 3.27891L7.58025 4.73054Z" fill="white"/>
</svg>
