<svg width="12" height="12" viewBox="0 0 12 12" fill="none" xmlns="http://www.w3.org/2000/svg">
<path d="M7.72603 6.19178C7.61644 6.08219 7.61644 5.91781 7.72603 5.80822L11.8356 1.69863C11.9452 1.58904 12 1.42466 12 1.31507C12 1.20548 11.9452 1.0411 11.8356 0.931507L11.0685 0.164384C10.9589 0.0547945 10.7945 0 10.6849 0C10.5205 0 10.411 0.0547945 10.3014 0.164384L6.19178 4.27397C6.08219 4.38356 5.91781 4.38356 5.80822 4.27397L1.69863 0.164384C1.58904 0.0547945 1.42466 0 1.31507 0C1.20548 0 1.0411 0.0547945 0.931507 0.164384L0.164384 0.931507C0.0547945 1.0411 0 1.20548 0 1.31507C0 1.42466 0.0547945 1.58904 0.164384 1.69863L4.27397 5.80822C4.38356 5.91781 4.38356 6.08219 4.27397 6.19178L0.164384 10.3014C0.0547945 10.411 0 10.5753 0 10.6849C0 10.7945 0.0547945 10.9589 0.164384 11.0685L0.931507 11.8356C1.0411 11.9452 1.20548 12 1.31507 12C1.42466 12 1.58904 11.9452 1.69863 11.8356L5.80822 7.72603C5.91781 7.61644 6.08219 7.61644 6.19178 7.72603L10.3014 11.8356C10.411 11.9452 10.5753 12 10.6849 12C10.7945 12 10.9589 11.9452 11.0685 11.8356L11.8356 11.0685C11.9452 10.9589 12 10.7945 12 10.6849C12 10.5753 11.9452 10.411 11.8356 10.3014L7.72603 6.19178Z" fill="#D43C57"/>
</svg>
