<svg width="22" height="24" viewBox="0 0 22 24" fill="none" xmlns="http://www.w3.org/2000/svg">
    <path fill-rule="evenodd" clip-rule="evenodd" d="M11.9167 22.5415H3.20833C2.9552 22.5415 2.75 22.3363 2.75 22.0832V9.70817C2.75 9.20191 3.16041 8.7915 3.66667 8.7915H11C11.5063 8.7915 11.9167 9.20191 11.9167 9.70817V22.5415Z" stroke="#44444A" stroke-width="1.5" stroke-linecap="round" stroke-linejoin="round"/>
    <path d="M10.084 8.79159V2.37492C10.084 1.86866 10.4944 1.45825 11.0007 1.45825H18.334C18.8402 1.45825 19.2507 1.86866 19.2507 2.37492V22.0833C19.2507 22.3364 19.0454 22.5416 18.7923 22.5416H11.9173" stroke="#44444A" stroke-width="1.5" stroke-linecap="round" stroke-linejoin="round"/>
    <path d="M2.75 11.5415H6.41667" stroke="#44444A" stroke-width="1.5" stroke-linecap="round" stroke-linejoin="round"/>
    <path d="M10.084 6.95825H13.7507" stroke="#44444A" stroke-width="1.5" stroke-linecap="round" stroke-linejoin="round"/>
    <path d="M10.084 4.20825H15.584" stroke="#44444A" stroke-width="1.5" stroke-linecap="round" stroke-linejoin="round"/>
    <path d="M2.75 14.2915H4.58333" stroke="#44444A" stroke-width="1.5" stroke-linecap="round" stroke-linejoin="round"/>
</svg>