<svg width="55" height="27" viewBox="0 0 55 27" fill="none" xmlns="http://www.w3.org/2000/svg">
<path fill-rule="evenodd" clip-rule="evenodd" d="M46 13.8235C48.2091 13.8235 50 12.0722 50 9.91176C50 7.75136 48.2091 6 46 6C43.7909 6 42 7.75136 42 9.91176C42 12.0722 43.7909 13.8235 46 13.8235Z" stroke="#44444A" stroke-width="1.5" stroke-linecap="round" stroke-linejoin="round"/>
<path fill-rule="evenodd" clip-rule="evenodd" d="M46 14.9412C41.5817 14.9412 38 18.4439 38 22.7647V25H54V22.7647C54.0004 20.6896 53.1577 18.6995 51.6573 17.2322C50.1569 15.7649 48.1219 14.9408 46 14.9412V14.9412Z" stroke="#44444A" stroke-width="1.5" stroke-linecap="round" stroke-linejoin="round"/>
<path fill-rule="evenodd" clip-rule="evenodd" d="M11.9167 25.5418H3.20833C2.9552 25.5418 2.75 25.3365 2.75 25.0834V12.7084C2.75 12.2022 3.16041 11.7917 3.66667 11.7917H11C11.5063 11.7917 11.9167 12.2022 11.9167 12.7084V25.5418Z" stroke="#44444A" stroke-width="1.5" stroke-linecap="round" stroke-linejoin="round"/>
<path d="M10.084 11.7917V5.37504C10.084 4.86878 10.4944 4.45837 11.0007 4.45837H18.334C18.8402 4.45837 19.2507 4.86878 19.2507 5.37504V25.0834C19.2507 25.3365 19.0454 25.5417 18.7923 25.5417H11.9173" stroke="#44444A" stroke-width="1.5" stroke-linecap="round" stroke-linejoin="round"/>
<path d="M2.75 14.5417H6.41667" stroke="#44444A" stroke-width="1.5" stroke-linecap="round" stroke-linejoin="round"/>
<path d="M10.084 9.95837H13.7507" stroke="#44444A" stroke-width="1.5" stroke-linecap="round" stroke-linejoin="round"/>
<path d="M10.084 7.20837H15.584" stroke="#44444A" stroke-width="1.5" stroke-linecap="round" stroke-linejoin="round"/>
<path d="M2.75 17.2917H4.58333" stroke="#44444A" stroke-width="1.5" stroke-linecap="round" stroke-linejoin="round"/>
</svg>
