<svg width="40" height="40" viewBox="0 0 40 40" fill="none" xmlns="http://www.w3.org/2000/svg">
<path fill-rule="evenodd" clip-rule="evenodd" d="M0 20C0 8.95428 8.95508 0 20 0C31.0449 0 40 8.95428 40 20C40 31.0457 31.0449 40 20 40C8.95508 40 0 31.0457 0 20ZM19.9844 20.3211C22.9336 20.3211 25.332 18.0066 25.332 15.1613C25.332 12.3151 22.9336 10 19.9844 10C17.0371 10 14.6387 12.3151 14.6387 15.1613C14.6387 18.0066 17.0371 20.3211 19.9844 20.3211ZM25.2676 23.2925C24.3008 23.8786 23.252 24.2943 22.1641 24.5336L25.1523 27.419C25.7637 28.0089 25.7637 28.9667 25.1523 29.5572C24.541 30.1476 23.5488 30.1476 22.9375 29.5572L20 26.7217L17.0625 29.5572C16.9355 29.6802 16.791 29.7776 16.6367 29.8493C16.4219 29.9495 16.1875 29.9997 15.9551 29.9997C15.5547 29.9997 15.1543 29.8521 14.8477 29.5572C14.2363 28.9667 14.2363 28.0095 14.8477 27.419L17.8359 24.5336C16.748 24.2943 15.6992 23.878 14.7324 23.2925C14 22.8472 13.7793 21.9143 14.2402 21.2075C14.7012 20.4997 15.668 20.2866 16.4004 20.7319C18.5898 22.061 21.4082 22.0613 23.5996 20.7319C24.332 20.2866 25.2988 20.4997 25.7598 21.2075C26.2207 21.9137 26 22.8472 25.2676 23.2925Z" fill="#0085BA"/>
<path fill-rule="evenodd" clip-rule="evenodd" d="M19.9852 13.0247C21.206 13.0247 22.199 13.9829 22.199 15.1613C22.199 16.3387 21.206 17.2976 19.9852 17.2976C18.7654 17.2976 17.7715 16.3387 17.7715 15.1613C17.7715 13.9829 18.7654 13.0247 19.9852 13.0247Z" fill="#0085BA"/>
</svg>
