<svg width="16" height="15" viewBox="0 0 16 15" fill="none" xmlns="http://www.w3.org/2000/svg">
    <path d="M14.8686 14.4824L10.4157 13.2698C8.17642 14.4322 5.4668 14.2601 3.39004 12.8086C1.25628 11.3172 0.167392 8.73855 0.58987 6.17373C1.01233 3.609 2.87101 1.51336 5.37052 0.780706C5.38006 0.777911 5.38965 0.775409 5.39927 0.773199C7.94347 0.0283608 10.6915 0.835478 12.4243 2.84035C14.1108 4.79164 14.5303 7.52435 13.523 9.88149L15.4483 13.7785C15.5354 13.9549 15.511 14.166 15.386 14.3178C15.2609 14.4697 15.0584 14.5341 14.8686 14.4824Z" stroke="#0085BA" stroke-linecap="round" stroke-linejoin="round"/>
    <path d="M9.625 5C9.83211 5 10 5.16789 10 5.375C10 5.58211 9.83211 5.75 9.625 5.75C9.41789 5.75 9.25 5.58211 9.25 5.375C9.25 5.16789 9.41789 5 9.625 5" stroke="#0085BA" stroke-linecap="round" stroke-linejoin="round"/>
    <path d="M5.625 5C5.83211 5 6 5.16789 6 5.375C6 5.58211 5.83211 5.75 5.625 5.75C5.41789 5.75 5.25 5.58211 5.25 5.375C5.25 5.16789 5.41789 5 5.625 5" stroke="#0085BA" stroke-linecap="round" stroke-linejoin="round"/>
    <path d="M5 9C5.1058 10.1899 6.22042 11.0791 7.5 10.9944C8.77958 11.0791 9.8942 10.1899 10 9" stroke="#0085BA" stroke-linecap="round" stroke-linejoin="round"/>
</svg>