<svg width="55" height="17" viewBox="0 0 55 17" fill="none" xmlns="http://www.w3.org/2000/svg">
<path fill-rule="evenodd" clip-rule="evenodd" d="M15.1644 0.92041V0.927223C15.1577 0.927223 13.0345 0.92041 12.4683 2.97089C11.9493 4.85107 10.4867 10.042 10.4463 10.1851H10.0419C10.0419 10.1851 8.54552 4.87832 8.01977 2.96408C7.45359 0.913598 5.32368 0.92041 5.32368 0.92041H0.470703V16.5204H5.32368V7.25579H5.72809L8.559 16.5204H11.9291L14.76 7.2626H15.1644V16.5204H20.0173V0.92041H15.1644ZM32.8911 0.92041C32.8911 0.92041 31.469 1.04984 30.8016 2.55534L27.3642 10.1851H26.9597V0.92041H22.1068V16.5204H26.6901C26.6901 16.5204 28.1797 16.3842 28.847 14.8855L32.2171 7.25579H32.6215V16.5204H37.4745V0.92041H32.8911ZM39.6314 8.00511V16.5204H44.4844V11.5475H49.7417C52.0335 11.5475 53.9747 10.0692 54.6958 8.00511H39.6314Z" fill="#4DB45E"/>
<path fill-rule="evenodd" clip-rule="evenodd" d="M49.7423 0.920166H38.9512C39.4904 3.8903 41.6945 6.27458 44.5456 7.05119C45.1926 7.2283 45.8734 7.32367 46.5744 7.32367H54.8918C54.966 6.96944 54.9997 6.60839 54.9997 6.23372C54.9997 3.29764 52.6473 0.920166 49.7423 0.920166Z" fill="#03A7DE"/>
</svg>
