<svg width="34" height="34" viewBox="0 0 34 34" fill="none" xmlns="http://www.w3.org/2000/svg">
    <path d="M17.0001 24.0833C18.5584 24.0833 19.8334 22.8083 19.8334 21.25C19.8334 19.6917 18.5584 18.4167 17.0001 18.4167C15.4417 18.4167 14.1667 19.6917 14.1667 21.25C14.1667 22.8083 15.4417 24.0833 17.0001 24.0833ZM25.5001 11.3333H24.0834V8.49999C24.0834 4.58999 20.9101 1.41666 17.0001 1.41666C13.0901 1.41666 9.91675 4.58999 9.91675 8.49999H12.6084C12.6084 6.07749 14.5776 4.10832 17.0001 4.10832C19.4226 4.10832 21.3917 6.07749 21.3917 8.49999V11.3333H8.50008C6.94175 11.3333 5.66675 12.6083 5.66675 14.1667V28.3333C5.66675 29.8917 6.94175 31.1667 8.50008 31.1667H25.5001C27.0584 31.1667 28.3334 29.8917 28.3334 28.3333V14.1667C28.3334 12.6083 27.0584 11.3333 25.5001 11.3333ZM25.5001 28.3333H8.50008V14.1667H25.5001V28.3333Z" fill="black" />
</svg>