<svg width="100%" height="100%" viewBox="0 0 9 9" fill="none" xmlns="http://www.w3.org/2000/svg">
    <path d="M4.05 2.25H4.95V3.15H4.05V2.25Z" fill="#0085BA"/>
    <path d="M4.05 4.05H4.95V6.75H4.05V4.05Z" fill="#0085BA"/>
    <path fill-rule="evenodd" clip-rule="evenodd" d="M0 4.5C0 2.016 2.01599 0 4.5 0C6.98401 0 9 2.016 9 4.5C9 6.984 6.98401 9 4.5 9C2.01599 9 0 6.984 0 4.5ZM0.9 4.5C0.9 6.4845 2.51548 8.1 4.5 8.1C6.48452 8.1 8.1 6.4845 8.1 4.5C8.1 2.5155 6.48452 0.9 4.5 0.9C2.51548 0.9 0.9 2.5155 0.9 4.5Z" fill="#0085BA"/>
</svg>