<svg width="40" height="40" viewBox="0 0 40 40" fill="none" xmlns="http://www.w3.org/2000/svg">
    <circle cx="20" cy="20" r="19.5" fill="#0085BA" stroke="#006799"/>
    <path fill-rule="evenodd" clip-rule="evenodd" d="M14.6562 14.0439L18.7242 15.2999L21.6852 12.8499C21.8192 12.7276 22.0132 12.6968 22.1785 12.7716C22.3438 12.8464 22.4486 13.0125 22.4452 13.1939L22.3262 17.5319L26.0172 19.5709C26.1748 19.6694 26.2608 19.8505 26.2377 20.0349C26.2145 20.2193 26.0863 20.3735 25.9092 20.4299L21.8732 21.8739L20.4292 25.9099C20.3732 26.0871 20.2191 26.2155 20.0348 26.2387C19.8504 26.2619 19.6694 26.1757 19.5712 26.0179L17.5312 22.3269L13.1932 22.4459C13.0118 22.4494 12.8457 22.3445 12.7709 22.1792C12.6961 22.0139 12.7268 21.8199 12.8492 21.6859L15.3002 18.7239L14.0442 14.6559C13.9982 14.4835 14.0475 14.2996 14.1737 14.1735C14.2999 14.0473 14.4838 13.9979 14.6562 14.0439Z" stroke="white" stroke-width="1.5" stroke-linecap="round" stroke-linejoin="round"/>
    <path d="M21.873 21.873L31.25 31.25" stroke="white" stroke-width="1.5" stroke-linecap="round" stroke-linejoin="round"/>
    <path d="M26 10.25H29" stroke="white" stroke-width="1.5" stroke-linecap="round" stroke-linejoin="round"/>
    <path d="M27.5 8.75V11.75" stroke="white" stroke-width="1.5" stroke-linecap="round" stroke-linejoin="round"/>
    <path d="M10.25 28.25H13.25" stroke="white" stroke-width="1.5" stroke-linecap="round" stroke-linejoin="round"/>
    <path d="M11.75 26.75V29.75" stroke="white" stroke-width="1.5" stroke-linecap="round" stroke-linejoin="round"/>
    <path d="M17 11V8.75" stroke="white" stroke-width="1.5" stroke-linecap="round" stroke-linejoin="round"/>
    <path d="M8.75 17.75H11" stroke="white" stroke-width="1.5" stroke-linecap="round" stroke-linejoin="round"/>
</svg>