<svg width="30" height="30" viewBox="0 0 30 30" fill="none" xmlns="http://www.w3.org/2000/svg">
<circle cx="15" cy="15" r="14.5" fill="white" stroke="#F1F1F1"/>
<path d="M15.5023 10.5V12.5476H14.7827V10.5H15.5023ZM15.4136 18.3369V20.25H14.6986V18.3369H15.4136ZM16.1192 16.9352C16.1192 16.7674 16.0818 16.6213 16.007 16.4968C15.9354 16.3695 15.817 16.2553 15.6519 16.154C15.4868 16.0498 15.2656 15.9529 14.9883 15.8632C14.5896 15.733 14.2407 15.5869 13.9416 15.4249C13.6456 15.26 13.4151 15.0575 13.25 14.8173C13.088 14.5743 13.007 14.272 13.007 13.9103C13.007 13.5544 13.0942 13.2463 13.2687 12.9859C13.4463 12.7255 13.6924 12.5245 14.007 12.3827C14.3217 12.2409 14.6893 12.17 15.1098 12.17C15.4338 12.17 15.7251 12.2149 15.9836 12.3046C16.2453 12.3943 16.4681 12.5259 16.6519 12.6995C16.8357 12.8731 16.9759 13.0872 17.0724 13.3418C17.1721 13.5935 17.222 13.8828 17.222 14.2098H16.1005C16.1005 14.0246 16.0771 13.8597 16.0304 13.715C15.9868 13.5675 15.9213 13.4431 15.8341 13.3418C15.7469 13.2376 15.641 13.1581 15.5164 13.1031C15.3949 13.0481 15.2562 13.0206 15.1005 13.0206C14.8793 13.0206 14.697 13.0597 14.5537 13.1378C14.4104 13.213 14.3045 13.3172 14.236 13.4503C14.1706 13.5834 14.1379 13.7353 14.1379 13.906C14.1379 14.0709 14.1721 14.2155 14.2407 14.34C14.3092 14.4644 14.426 14.5772 14.5911 14.6785C14.7593 14.7768 14.9899 14.8766 15.2827 14.9779C15.6846 15.111 16.0319 15.26 16.3248 15.4249C16.6207 15.5869 16.8481 15.788 17.007 16.0281C17.169 16.2654 17.25 16.5648 17.25 16.9265C17.25 17.2997 17.1565 17.6165 16.9696 17.8769C16.7858 18.1373 16.5273 18.3355 16.1939 18.4715C15.8637 18.6046 15.479 18.6711 15.0397 18.6711C14.7625 18.6711 14.4868 18.6378 14.2126 18.5713C13.9416 18.5018 13.6955 18.389 13.4743 18.2328C13.2531 18.0765 13.0771 17.8697 12.9463 17.6122C12.8154 17.3518 12.75 17.0335 12.75 16.6574H13.8808C13.8808 16.8831 13.9136 17.0711 13.979 17.2216C14.0444 17.372 14.1332 17.4907 14.2453 17.5775C14.3575 17.6643 14.4821 17.7265 14.6192 17.7641C14.7593 17.8017 14.8995 17.8205 15.0397 17.8205C15.2734 17.8205 15.4696 17.7843 15.6285 17.712C15.7905 17.6368 15.912 17.5326 15.993 17.3995C16.0771 17.2635 16.1192 17.1088 16.1192 16.9352Z" fill="#007CBA"/>
<path d="M21.8469 9.83061C19.5707 7.07361 15.8096 6.04097 12.4447 7.24924C9.07993 8.45751 6.83485 11.6469 6.83252 15.2221V17.5371" stroke="#0085BA" stroke-width="1.5" stroke-linecap="round" stroke-linejoin="round"/>
<path d="M9.14453 21.0391C11.5283 23.565 15.2117 24.3813 18.4395 23.0991C21.6673 21.8168 23.7863 18.6954 23.7869 15.2222V13.6809" stroke="#0085BA" stroke-width="1.5" stroke-linecap="round" stroke-linejoin="round"/>
<path d="M3.75 14.4514L6.83261 17.534L9.91522 14.4514" stroke="#0085BA" stroke-width="1.5" stroke-linecap="round" stroke-linejoin="round"/>
<path d="M26.8693 16.7635L23.7867 13.6809L20.7041 16.7635" stroke="#0085BA" stroke-width="1.5" stroke-linecap="round" stroke-linejoin="round"/>
</svg>
