<svg width="3" height="10" viewBox="0 0 3 10" fill="none" xmlns="http://www.w3.org/2000/svg">
    <path fill-rule="evenodd" clip-rule="evenodd" d="M0.791992 8.83398C0.791992 8.63704 0.839437 8.4589 0.934326 8.29956C1.02922 8.14022 1.15544 8.0131 1.31299 7.91821C1.47054 7.82332 1.646 7.77588 1.83936 7.77588C2.12939 7.77588 2.37646 7.87793 2.58057 8.08203C2.78467 8.28613 2.88672 8.53678 2.88672 8.83398C2.88672 9.02734 2.84017 9.20369 2.74707 9.36304C2.65397 9.52238 2.52775 9.6495 2.36841 9.74438C2.20907 9.83927 2.03271 9.88672 1.83936 9.88672C1.646 9.88672 1.47054 9.83927 1.31299 9.74438C1.15544 9.6495 1.02922 9.52238 0.934326 9.36304C0.839437 9.20369 0.791992 9.02734 0.791992 8.83398ZM0.791992 5.04736C0.791992 4.854 0.839437 4.67855 0.934326 4.521C1.02922 4.36344 1.15544 4.23722 1.31299 4.14233C1.47054 4.04744 1.646 4 1.83936 4C2.12939 4 2.37646 4.10205 2.58057 4.30615C2.78467 4.51025 2.88672 4.75732 2.88672 5.04736C2.88672 5.24072 2.84017 5.41618 2.74707 5.57373C2.65397 5.73128 2.52775 5.8575 2.36841 5.95239C2.20907 6.04728 2.03271 6.09473 1.83936 6.09473C1.646 6.09473 1.47054 6.04728 1.31299 5.95239C1.15544 5.8575 1.02922 5.73128 0.934326 5.57373C0.839437 5.41618 0.791992 5.24072 0.791992 5.04736ZM0.934326 0.731689C0.839437 0.891032 0.791992 1.06738 0.791992 1.26074C0.791992 1.45768 0.839437 1.63672 0.934326 1.79785C1.02922 1.95898 1.15544 2.0861 1.31299 2.1792C1.47054 2.2723 1.646 2.31885 1.83936 2.31885C2.03271 2.31885 2.20907 2.2723 2.36841 2.1792C2.52775 2.0861 2.65397 1.95898 2.74707 1.79785C2.84017 1.63672 2.88672 1.45768 2.88672 1.26074C2.88672 0.967122 2.78467 0.718262 2.58057 0.51416C2.37646 0.310059 2.12939 0.208008 1.83936 0.208008C1.646 0.208008 1.47054 0.255452 1.31299 0.350342C1.15544 0.445231 1.02922 0.572347 0.934326 0.731689Z" fill="#44444A"/>
</svg>