<svg width="17" height="15" viewBox="0 0 17 15" fill="none" xmlns="http://www.w3.org/2000/svg">
<path d="M12.4989 10.8571C12.4989 10.581 12.2751 10.3571 11.9989 10.3571V6.64286C12.2751 6.64286 12.4989 6.419 12.4989 6.14286V3.79906C12.5176 3.39611 12.3059 3.06522 12.0348 2.85221C11.7602 2.63647 11.3981 2.5139 11.0166 2.50032C11.0107 2.50011 11.0048 2.5 10.9988 2.5H2.00046C1.99452 2.5 1.98859 2.50011 1.98266 2.50032C1.60125 2.5139 1.23914 2.63651 0.964623 2.85235C0.693625 3.06542 0.482185 3.39638 0.501126 3.79928V13.2009C0.482476 13.6037 0.693894 13.9345 0.964846 14.1475C1.23926 14.3633 1.60117 14.4859 1.98241 14.4997C1.98843 14.4999 1.99444 14.5 2.00046 14.5H10.9988C11.0048 14.5 11.0107 14.4999 11.0166 14.4997C11.3981 14.4861 11.7602 14.3635 12.0348 14.1478C12.3059 13.9348 12.5176 13.6039 12.4989 13.2009V10.8571Z" stroke="#0085BA" stroke-linecap="round" stroke-linejoin="round"/>
<path d="M8.96122 3.78019L8.96115 3.78047C8.87535 4.12011 8.58788 4.49976 8.11775 4.5H8.1175H4.8825H4.88225C4.41212 4.49976 4.12465 4.12011 4.03885 3.78047L4.03878 3.78019L3.53489 1.78081C3.53486 1.7807 3.53483 1.78059 3.5348 1.78048L3.53473 1.78019L4.01957 1.658C3.98092 1.50547 4.0002 1.33766 4.07136 1.2072C4.14251 1.07674 4.25683 0.999611 4.37845 1L8.96122 3.78019ZM8.96122 3.78019L9.46511 1.78081L8.96122 3.78019ZM8.62092 0.500001H4.37908L8.98043 1.658C9.01908 1.50547 8.9998 1.33766 8.92865 1.2072C8.85749 1.07674 8.74317 0.999611 8.62155 1V0.500001H8.62092Z" fill="#F1F1F1" stroke="#0085BA" stroke-linecap="round" stroke-linejoin="round"/>
<path d="M9.49375 7.875H17V9.125H9.49375V11L7 8.5L9.49375 6V7.875V7.875Z" fill="#0085BA"/>
</svg>
