<svg width="32" height="32" viewBox="0 0 32 32" fill="none" xmlns="http://www.w3.org/2000/svg">
    <path fill-rule="evenodd" clip-rule="evenodd" d="M14.9646 9.19951C15.2291 9.49163 15.6048 9.65829 15.999 9.65829C16.3931 9.65829 16.7689 9.49163 17.0333 9.19951L17.7021 8.46357C18.097 8.02622 18.7246 7.88475 19.2691 8.11034C19.8136 8.33593 20.1571 8.87973 20.1267 9.46813L20.0764 10.4641C20.0561 10.8578 20.2036 11.2416 20.4825 11.5203C20.7613 11.799 21.1452 11.9465 21.539 11.9262L22.5354 11.8747C23.1244 11.8442 23.6687 12.188 23.8941 12.7327C24.1196 13.2775 23.9774 13.9051 23.5391 14.2996L22.8029 14.9681C22.51 15.2319 22.3428 15.6074 22.3428 16.0015C22.3428 16.3955 22.51 16.7711 22.8029 17.0349L23.5391 17.7034C23.9774 18.0978 24.1196 18.7255 23.8941 19.2702C23.6687 19.815 23.1244 20.1587 22.5354 20.1283L21.539 20.0768C21.145 20.0564 20.7608 20.2041 20.482 20.4831C20.2031 20.7621 20.0557 21.1462 20.0764 21.5401L20.1267 22.5361C20.1571 23.1245 19.8136 23.6683 19.2691 23.8939C18.7246 24.1194 18.097 23.978 17.7021 23.5406L17.0333 22.8047C16.7689 22.5126 16.3931 22.3459 15.999 22.3459C15.6048 22.3459 15.2291 22.5126 14.9646 22.8047L14.2971 23.5406C13.9017 23.9775 13.2743 24.1186 12.7299 23.8931C12.1855 23.6677 11.8417 23.1244 11.8712 22.5361L11.9215 21.5401C11.9447 21.145 11.7986 20.7587 11.5197 20.4778C11.2408 20.197 10.8555 20.048 10.4601 20.0682L9.46377 20.1197C8.87523 20.1492 8.33172 19.8056 8.10619 19.2613C7.88066 18.7171 8.02184 18.09 8.45883 17.6948L9.19505 17.0263C9.48722 16.7621 9.65393 16.3867 9.65393 15.9929C9.65393 15.5991 9.48722 15.2237 9.19505 14.9595L8.45883 14.291C8.02569 13.8958 7.8863 13.2719 8.11009 12.7301C8.33388 12.1883 8.87299 11.8444 9.45886 11.8698L10.4552 11.9213C10.8496 11.9427 11.2346 11.7957 11.5142 11.5168C11.7939 11.238 11.9419 10.8535 11.9215 10.4592L11.8712 9.46322C11.8417 8.8749 12.1855 8.33159 12.7299 8.10615C13.2743 7.8807 13.9017 8.02183 14.2971 8.45866L14.9646 9.19951Z" stroke="white" stroke-width="1.5" stroke-linecap="round" stroke-linejoin="round"/>
    <path fill-rule="evenodd" clip-rule="evenodd" d="M15.9998 18.7569C17.5246 18.7569 18.7607 17.5213 18.7607 15.9971C18.7607 14.4729 17.5246 13.2373 15.9998 13.2373C14.4751 13.2373 13.239 14.4729 13.239 15.9971C13.239 17.5213 14.4751 18.7569 15.9998 18.7569Z" stroke="white" stroke-width="1.5" stroke-linecap="round" stroke-linejoin="round"/>
<!--  stroke="#0085BA"  -->
</svg>