<svg width="50" height="39" viewBox="0 0 50 39" fill="none" xmlns="http://www.w3.org/2000/svg">
<path d="M9.06982 38.7847V36.2022C9.08479 35.985 9.05356 35.7671 8.97823 35.563C8.90289 35.3589 8.78518 35.1733 8.63292 35.0185C8.48067 34.8638 8.29738 34.7434 8.09525 34.6655C7.89312 34.5876 7.67681 34.5538 7.46071 34.5666C7.17786 34.5479 6.89521 34.606 6.64228 34.7347C6.38934 34.8634 6.1754 35.0581 6.02279 35.2983C5.88367 35.0653 5.68462 34.8743 5.44661 34.7455C5.2086 34.6167 4.94046 34.5549 4.67045 34.5666C4.43508 34.5546 4.20069 34.6047 3.99051 34.7119C3.78032 34.8191 3.60164 34.9797 3.47218 35.1778V34.6699H2.58203V38.7847H3.48074V36.5207C3.46162 36.38 3.47365 36.2368 3.51596 36.1013C3.55827 35.9658 3.62982 35.8414 3.72549 35.7369C3.82117 35.6325 3.93861 35.5506 4.06941 35.4971C4.20021 35.4436 4.34115 35.4198 4.48215 35.4274C5.07273 35.4274 5.37229 35.8148 5.37229 36.5121V38.8019H6.271V36.5207C6.25266 36.3801 6.26524 36.2372 6.30784 36.1021C6.35044 35.9669 6.42202 35.8428 6.51754 35.7386C6.61305 35.6343 6.73016 35.5524 6.8606 35.4986C6.99103 35.4449 7.13162 35.4206 7.27241 35.4274C7.88011 35.4274 8.17112 35.8148 8.17112 36.5121V38.8019L9.06982 38.7847ZM22.3664 34.6699H20.9028V33.4217H20.0041V34.6699H19.1909V35.4877H20.0212V37.3815C20.0212 38.3371 20.3892 38.9052 21.442 38.9052C21.8353 38.9065 22.221 38.7961 22.5547 38.5867L22.2979 37.8206C22.0592 37.9638 21.7883 38.0437 21.5105 38.053C21.0825 38.053 20.9199 37.7775 20.9199 37.3643V35.4877H22.3749L22.3664 34.6699ZM29.9583 34.5666C29.7413 34.5602 29.5265 34.6128 29.3367 34.7188C29.1469 34.8249 28.9891 34.9805 28.8798 35.1692V34.6699H27.9983V38.7847H28.8884V36.4777C28.8884 35.7976 29.1794 35.4188 29.7443 35.4188C29.9347 35.4162 30.1237 35.4513 30.3006 35.5221L30.5745 34.6613C30.3712 34.5881 30.1571 34.5503 29.9412 34.5494L29.9583 34.5666ZM18.4805 34.997C17.9767 34.6957 17.3974 34.5463 16.8115 34.5666C15.7759 34.5666 15.0997 35.0659 15.0997 35.8837C15.0997 36.5551 15.5961 36.9683 16.512 37.0975L16.9399 37.1577C17.4278 37.2266 17.6589 37.3557 17.6589 37.5881C17.6589 37.9066 17.3336 38.0874 16.7259 38.0874C16.2371 38.1017 15.7578 37.95 15.365 37.657L14.9371 38.3543C15.4556 38.7184 16.0766 38.9055 16.7088 38.888C17.89 38.888 18.5747 38.3285 18.5747 37.5451C18.5747 36.7617 18.0355 36.4432 17.1453 36.3141L16.7174 36.2538C16.3322 36.2022 16.0241 36.1247 16.0241 35.8492C16.0241 35.5738 16.3151 35.3672 16.803 35.3672C17.2539 35.3724 17.6959 35.494 18.0868 35.7201L18.4805 34.997ZM42.3219 34.5666C42.1049 34.5602 41.8901 34.6128 41.7003 34.7188C41.5105 34.8249 41.3527 34.9805 41.2434 35.1692V34.6699H40.3619V38.7847H41.252V36.4777C41.252 35.7976 41.543 35.4188 42.1079 35.4188C42.2983 35.4162 42.4873 35.4513 42.6643 35.5221L42.9381 34.6613C42.7349 34.5881 42.5207 34.5503 42.3048 34.5494L42.3219 34.5666ZM30.8527 36.7187C30.8421 37.0079 30.8917 37.2961 30.9982 37.5649C31.1047 37.8337 31.2658 38.0771 31.4713 38.2797C31.6767 38.4823 31.9219 38.6395 32.1912 38.7413C32.4606 38.843 32.748 38.8872 33.0353 38.8708C33.5697 38.8981 34.095 38.7231 34.5074 38.3801L34.0795 37.657C33.7718 37.893 33.3965 38.0228 33.0096 38.0272C32.6806 38.0004 32.3736 37.85 32.1498 37.606C31.926 37.3619 31.8017 37.0421 31.8017 36.7101C31.8017 36.3781 31.926 36.0582 32.1498 35.8142C32.3736 35.5701 32.6806 35.4198 33.0096 35.393C33.3965 35.3973 33.7718 35.5272 34.0795 35.7632L34.5074 35.0401C34.095 34.6971 33.5697 34.522 33.0353 34.5494C32.748 34.533 32.4606 34.5771 32.1912 34.6789C31.9219 34.7807 31.6767 34.9379 31.4713 35.1405C31.2658 35.343 31.1047 35.5865 30.9982 35.8553C30.8917 36.1241 30.8421 36.4123 30.8527 36.7015V36.7187ZM39.1893 36.7187V34.6699H38.2991V35.1692C38.148 34.9736 37.9527 34.8169 37.7295 34.7121C37.5062 34.6073 37.2614 34.5575 37.0153 34.5666C36.4478 34.5666 35.9035 34.7933 35.5022 35.1969C35.1009 35.6005 34.8755 36.1479 34.8755 36.7187C34.8755 37.2895 35.1009 37.8369 35.5022 38.2405C35.9035 38.644 36.4478 38.8708 37.0153 38.8708C37.2614 38.8799 37.5062 38.83 37.7295 38.7253C37.9527 38.6205 38.148 38.4638 38.2991 38.2682V38.7675H39.1893V36.7187ZM35.8769 36.7187C35.8911 36.4765 35.9754 36.2437 36.1195 36.0491C36.2635 35.8545 36.461 35.7065 36.6876 35.6233C36.9143 35.5402 37.1601 35.5255 37.3949 35.5811C37.6298 35.6367 37.8433 35.7601 38.0092 35.9362C38.1752 36.1123 38.2863 36.3334 38.3289 36.5722C38.3715 36.811 38.3437 37.0572 38.249 37.2803C38.1543 37.5035 37.9967 37.6939 37.7958 37.8281C37.5948 37.9623 37.3592 38.0345 37.118 38.0358C36.9485 38.0379 36.7805 38.0048 36.6244 37.9385C36.4683 37.8721 36.3275 37.774 36.2109 37.6503C36.0944 37.5266 36.0045 37.38 35.947 37.2196C35.8895 37.0593 35.8657 36.8888 35.8769 36.7187ZM25.1352 34.5666C24.5677 34.5746 24.0266 34.809 23.631 35.2182C23.2353 35.6275 23.0175 36.178 23.0254 36.7488C23.0334 37.3196 23.2664 37.8638 23.6733 38.2618C24.0802 38.6597 24.6276 38.8788 25.1952 38.8708C25.8109 38.9026 26.4164 38.7032 26.8941 38.3112L26.4662 37.6484C26.1282 37.921 25.7096 38.0724 25.2765 38.0788C24.9822 38.1043 24.6897 38.0133 24.4611 37.8252C24.2326 37.6371 24.086 37.3667 24.0525 37.0716H27.091C27.091 36.9597 27.091 36.8478 27.091 36.7273C27.091 35.436 26.295 34.5752 25.1481 34.5752L25.1352 34.5666ZM25.1352 35.3672C25.2684 35.3643 25.4009 35.3879 25.525 35.4365C25.6492 35.4852 25.7626 35.5579 25.8588 35.6507C25.9549 35.7434 26.032 35.8543 26.0856 35.977C26.1391 36.0997 26.1681 36.2318 26.1709 36.3657H24.0311C24.0466 36.0894 24.1691 35.8302 24.3722 35.6436C24.5754 35.457 24.8431 35.3577 25.1181 35.3672H25.1352ZM47.4359 36.7273V33.0171H46.58V35.1692C46.4289 34.9736 46.2336 34.8169 46.0104 34.7121C45.7872 34.6073 45.5423 34.5575 45.2962 34.5666C44.7287 34.5666 44.1844 34.7933 43.7831 35.1969C43.3818 35.6005 43.1564 36.1479 43.1564 36.7187C43.1564 37.2895 43.3818 37.8369 43.7831 38.2405C44.1844 38.644 44.7287 38.8708 45.2962 38.8708C45.5423 38.8799 45.7872 38.83 46.0104 38.7253C46.2336 38.6205 46.4289 38.4638 46.58 38.2682V38.7675H47.4359V36.7273ZM48.9209 38.1864C48.9766 38.1857 49.0318 38.196 49.0836 38.2166C49.1327 38.2367 49.1777 38.2659 49.2162 38.3026C49.2538 38.3397 49.2843 38.3835 49.3061 38.4318C49.3278 38.482 49.339 38.5362 49.339 38.591C49.339 38.6458 49.3278 38.7 49.3061 38.7503C49.2843 38.7985 49.2538 38.8423 49.2162 38.8794C49.1777 38.9161 49.1327 38.9453 49.0836 38.9655C49.0323 38.9882 48.9769 38.9999 48.9209 38.9999C48.8398 38.9993 48.7605 38.9755 48.6924 38.9313C48.6242 38.8871 48.5699 38.8243 48.5358 38.7503C48.5144 38.6999 48.5033 38.6458 48.5033 38.591C48.5033 38.5363 48.5144 38.4821 48.5358 38.4318C48.5576 38.3835 48.5881 38.3397 48.6257 38.3026C48.6642 38.2659 48.7092 38.2367 48.7583 38.2166C48.8141 38.1942 48.8738 38.184 48.9338 38.1864H48.9209ZM48.9209 38.9138C48.9637 38.9141 49.006 38.9053 49.0451 38.888C49.0819 38.8715 49.1153 38.8481 49.1435 38.8191C49.197 38.7604 49.2267 38.6836 49.2267 38.6039C49.2267 38.5242 49.197 38.4475 49.1435 38.3887C49.1153 38.3597 49.0819 38.3363 49.0451 38.3198C49.0059 38.3027 48.9636 38.2939 48.9209 38.294C48.8783 38.2943 48.8361 38.303 48.7968 38.3198C48.7584 38.3357 48.7235 38.3591 48.6941 38.3887C48.6406 38.4475 48.6109 38.5242 48.6109 38.6039C48.6109 38.6836 48.6406 38.7604 48.6941 38.8191C48.7235 38.8486 48.7584 38.872 48.7968 38.888C48.84 38.9067 48.8868 38.9156 48.9338 38.9138H48.9209ZM48.9466 38.4016C48.9866 38.3997 49.0259 38.4119 49.0579 38.4361C49.071 38.447 49.0813 38.4609 49.088 38.4766C49.0947 38.4923 49.0976 38.5094 49.0964 38.5265C49.097 38.5407 49.0947 38.555 49.0895 38.5684C49.0844 38.5817 49.0765 38.5938 49.0665 38.6039C49.0416 38.6266 49.01 38.6402 48.9766 38.6427L49.1007 38.7847H49.0023L48.8867 38.6427H48.8482V38.7847H48.7669V38.4059L48.9466 38.4016ZM48.8525 38.4748V38.5781H48.9466C48.9634 38.5831 48.9812 38.5831 48.998 38.5781C49.001 38.5721 49.0026 38.5655 49.0026 38.5587C49.0026 38.552 49.001 38.5454 48.998 38.5394C49.001 38.5334 49.0026 38.5267 49.0026 38.52C49.0026 38.5133 49.001 38.5066 48.998 38.5006C48.9812 38.4956 48.9634 38.4956 48.9466 38.5006L48.8525 38.4748ZM44.145 36.7273C44.1592 36.4851 44.2435 36.2523 44.3875 36.0577C44.5316 35.8631 44.7291 35.7151 44.9557 35.6319C45.1823 35.5488 45.4282 35.5341 45.663 35.5897C45.8978 35.6453 46.1114 35.7687 46.2773 35.9448C46.4433 36.1209 46.5544 36.342 46.597 36.5808C46.6396 36.8196 46.6118 37.0658 46.5171 37.2889C46.4224 37.5121 46.2648 37.7025 46.0639 37.8367C45.8629 37.9709 45.6273 38.0431 45.386 38.0444C45.2166 38.0465 45.0485 38.0134 44.8924 37.9471C44.7364 37.8807 44.5956 37.7826 44.479 37.6589C44.3625 37.5352 44.2726 37.3886 44.2151 37.2282C44.1576 37.0679 44.1337 36.8974 44.145 36.7273ZM14.0897 36.7273V34.6699H13.1996V35.1692C13.0484 34.9736 12.8532 34.8169 12.6299 34.7121C12.4067 34.6073 12.1619 34.5575 11.9157 34.5666C11.3482 34.5666 10.804 34.7933 10.4027 35.1969C10.0014 35.6005 9.77595 36.1479 9.77595 36.7187C9.77595 37.2895 10.0014 37.8369 10.4027 38.2405C10.804 38.644 11.3482 38.8708 11.9157 38.8708C12.1619 38.8799 12.4067 38.83 12.6299 38.7253C12.8532 38.6205 13.0484 38.4638 13.1996 38.2682V38.7675H14.0897V36.7273ZM10.7774 36.7273C10.7916 36.4851 10.8759 36.2523 11.0199 36.0577C11.164 35.8631 11.3615 35.7151 11.5881 35.6319C11.8147 35.5488 12.0606 35.5341 12.2954 35.5897C12.5302 35.6453 12.7438 35.7687 12.9097 35.9448C13.0756 36.1209 13.1868 36.342 13.2294 36.5808C13.272 36.8196 13.2442 37.0658 13.1495 37.2889C13.0547 37.5121 12.8972 37.7025 12.6962 37.8367C12.4953 37.9709 12.2597 38.0431 12.0184 38.0444C11.8483 38.0477 11.6793 38.0155 11.5222 37.9497C11.365 37.8839 11.2232 37.786 11.1057 37.6621C10.9882 37.5383 10.8976 37.3912 10.8396 37.2303C10.7816 37.0694 10.7575 36.8981 10.7688 36.7273H10.7774Z" fill="#231F20"/>
<path d="M31.6661 3.31378H18.1855V27.6798H31.6661V3.31378Z" fill="#FF5F00"/>
<path d="M19.0417 15.4996C19.0392 13.1526 19.5677 10.8358 20.5872 8.72472C21.6067 6.61359 23.0905 4.76345 24.9261 3.3144C22.6533 1.51793 19.9238 0.400805 17.0496 0.0907145C14.1754 -0.219376 11.2724 0.290074 8.67243 1.56084C6.07248 2.83161 3.88044 4.81242 2.34686 7.27689C0.813269 9.74136 5.92221e-08 12.5901 5.92221e-08 15.4974C5.92221e-08 18.4048 0.813269 21.2535 2.34686 23.7179C3.88044 26.1824 6.07248 28.1632 8.67243 29.434C11.2724 30.7047 14.1754 31.2142 17.0496 30.9041C19.9238 30.594 22.6533 29.4769 24.9261 27.6804C23.091 26.2318 21.6076 24.3824 20.5882 22.272C19.5687 20.1617 19.0399 17.8458 19.0417 15.4996Z" fill="#EB001B"/>
<path d="M49.8541 15.499C49.8541 18.4066 49.0406 21.2555 47.5068 23.72C45.9729 26.1846 43.7805 28.1654 41.1802 29.4359C38.58 30.7065 35.6767 31.2157 32.8023 30.9051C29.9279 30.5946 27.1984 29.4769 24.9258 27.6799C26.7601 26.23 28.2431 24.38 29.2628 22.2696C30.2826 20.1591 30.8124 17.8433 30.8124 15.4969C30.8124 13.1504 30.2826 10.8346 29.2628 8.72417C28.2431 6.61372 26.7601 4.76377 24.9258 3.31387C27.1984 1.51684 29.9279 0.399173 32.8023 0.0886369C35.6767 -0.221899 38.58 0.287224 41.1802 1.55781C43.7805 2.82839 45.9729 4.80917 47.5068 7.27373C49.0406 9.73828 49.8541 12.5872 49.8541 15.4947V15.499Z" fill="#F79E1B"/>
<path d="M48.3823 25.0972V24.5979H48.5835V24.4946H48.0742V24.5979H48.2925V25.0972H48.3823ZM49.3709 25.0972V24.4946H49.2169L49.0371 24.925L48.8574 24.4946H48.7204V25.0972H48.8317V24.6452L48.9986 25.0369H49.1141L49.281 24.6452V25.1015L49.3709 25.0972Z" fill="#F79E1B"/>
</svg>
