<svg width="40" height="40" viewBox="0 0 40 40" fill="none" xmlns="http://www.w3.org/2000/svg">
<path fill-rule="evenodd" clip-rule="evenodd" d="M20 0C8.95508 0 0 8.95428 0 20C0 31.0457 8.95508 40 20 40C31.0449 40 40 31.0457 40 20C40 8.95428 31.0449 0 20 0ZM21.6289 25.6469C21.4316 25.8547 21.0469 25.8967 21.0469 25.8967H19.7715C19.7715 25.8967 16.959 26.0627 14.4805 23.5308C11.7773 20.7685 9.39258 15.288 9.39258 15.288C9.39258 15.288 9.33398 15.1379 9.33398 14.985C9.33398 14.9013 9.35156 14.8167 9.4043 14.7554C9.57227 14.5598 10.0293 14.5474 10.0293 14.5474L13.0781 14.528C13.0781 14.528 13.3633 14.5741 13.5703 14.7226C13.7402 14.8455 13.834 15.0739 13.834 15.0739C13.834 15.0739 14.041 15.5848 14.3633 16.2449C14.5391 16.6061 14.748 17.0118 14.9785 17.403C16.2539 19.563 16.8457 20.0352 17.2773 19.8037C17.9082 19.4667 17.7188 16.7505 17.7188 16.7505C17.7188 16.7505 17.7227 16.423 17.6621 16.0615C17.6191 15.7959 17.541 15.5119 17.4023 15.3259C17.2148 15.0744 16.9023 14.9546 16.666 14.8981C16.584 14.8781 16.5098 14.866 16.4551 14.8588C16.2832 14.8362 16.5645 14.445 16.9297 14.2699C17.4785 14.0067 18.4473 13.9913 19.5918 14.0026C20.4844 14.0118 20.7402 14.066 21.0898 14.149C21.8984 14.3405 21.873 14.9542 21.8184 16.2784C21.8027 16.675 21.7832 17.1354 21.7832 17.6672C21.7832 18.4056 21.6484 19.4453 22.1914 19.7904C22.4258 19.9379 22.9961 19.8119 24.4238 17.4316C25.1016 16.3029 25.6094 14.9766 25.6094 14.9766C25.6094 14.9766 25.6445 14.9039 25.7031 14.8218C25.752 14.7558 25.8164 14.6838 25.8926 14.6386C26.0684 14.5352 26.3066 14.5669 26.3066 14.5669L29.5137 14.5474C29.5137 14.5474 30.4785 14.4338 30.6328 14.8619C30.7969 15.3094 30.2734 16.3562 28.9629 18.0707C27.7207 19.6976 27.1152 20.2965 27.1719 20.8262C27.2129 21.2133 27.6055 21.5634 28.3594 22.2505C30.0645 23.8053 30.418 24.5622 30.4766 24.6564C31.1836 25.8066 29.6934 25.8967 29.6934 25.8967L26.8438 25.9357C26.8438 25.9357 26.2324 26.0544 25.4277 25.5117C25.0059 25.2275 24.5938 24.7632 24.2012 24.3212C23.5996 23.6463 23.0469 23.023 22.5742 23.1703C21.7793 23.4182 21.8027 25.0968 21.8027 25.0968C21.8027 25.0968 21.8105 25.4563 21.6289 25.6469Z" fill="#0085BA"/>
</svg>
