<svg width="20" height="20" viewBox="0 0 20 20" fill="none" xmlns="http://www.w3.org/2000/svg">
    <rect width="20" height="20" fill="black" fill-opacity="0"/>
    <path fill-rule="evenodd" clip-rule="evenodd" d="M10 0C4.48047 0 0 4.48 0 10C0 15.52 4.48047 20 10 20C15.5195 20 20 15.52 20 10C20 4.48 15.5195 0 10 0ZM10 18C5.58984 18 2 14.41 2 10C2 5.59 5.58984 2 10 2C14.4102 2 18 5.59 18 10C18 14.41 14.4102 18 10 18ZM8 12.17L14.5898 5.58L16 7L8 15L4 11L5.41016 9.59L8 12.17Z" fill="#0085BA"/>
</svg>