<svg width="48" height="17" viewBox="0 0 48 17" fill="none" xmlns="http://www.w3.org/2000/svg">
<path d="M14.0707 1.19331L10.1483 11.4682L8.56618 2.72942C8.36841 1.73948 7.64327 1.19331 6.81925 1.19331H0.391851L0.292969 1.63707C1.61141 1.94429 3.09465 2.42219 4.01756 2.93423C4.5779 3.24145 4.7427 3.51454 4.90751 4.26552L7.90696 16.3154H11.9282L18.0589 1.19331H14.0707Z" fill="#1A1F71"/>
<path d="M19.6741 1.19331L16.5428 16.3154H20.3334L23.4317 1.19331H19.6741Z" fill="#1A1F71"/>
<path d="M28.4087 5.39207C28.4087 4.8459 28.9361 4.26559 30.0238 4.12905C30.5512 4.06077 32.0674 3.9925 33.7484 4.81176L34.4076 1.603C33.4847 1.26165 32.3311 0.920288 30.8808 0.920288C27.1562 0.920288 24.5193 2.96843 24.4864 5.93824C24.4534 8.12293 26.3651 9.31768 27.7825 10.0345C29.2657 10.7855 29.7601 11.2293 29.7272 11.912C29.7272 12.9361 28.5406 13.3798 27.4858 13.3798C25.5741 13.414 24.4864 12.8337 23.5964 12.424L22.9042 15.7352C23.7942 16.1448 25.4093 16.5203 27.0903 16.5203C31.0456 16.5203 33.6495 14.5063 33.6495 11.3317C33.7154 7.40608 28.3758 7.16713 28.4087 5.39207Z" fill="#1A1F71"/>
<path d="M39.3189 10.9562L41.3295 5.28965L42.4501 10.9562H39.3189ZM40.7691 1.19336C40.044 1.19336 39.4177 1.63712 39.154 2.2857L33.4848 16.2814H37.4401L38.2311 14.0284H43.0764L43.5379 16.2814H47.0317L43.9993 1.15922H40.7691V1.19336Z" fill="#1A1F71"/>
</svg>
