<svg width="52" height="67" viewBox="0 0 52 67" fill="none" xmlns="http://www.w3.org/2000/svg">
    <path d="M45 22.3333H41.8333V16C41.8333 7.26 34.74 0.166667 26 0.166667C17.26 0.166667 10.1666 7.26 10.1666 16V22.3333H6.99996C3.51663 22.3333 0.666626 25.1833 0.666626 28.6667V60.3333C0.666626 63.8167 3.51663 66.6667 6.99996 66.6667H45C48.4833 66.6667 51.3333 63.8167 51.3333 60.3333V28.6667C51.3333 25.1833 48.4833 22.3333 45 22.3333ZM26 50.8333C22.5166 50.8333 19.6666 47.9833 19.6666 44.5C19.6666 41.0167 22.5166 38.1667 26 38.1667C29.4833 38.1667 32.3333 41.0167 32.3333 44.5C32.3333 47.9833 29.4833 50.8333 26 50.8333ZM35.8166 22.3333H16.1833V16C16.1833 10.585 20.585 6.18333 26 6.18333C31.415 6.18333 35.8166 10.585 35.8166 16V22.3333Z" fill="#F2994A" />
</svg>