<svg width="20" height="20" viewBox="0 0 20 20" fill="none" xmlns="http://www.w3.org/2000/svg">
    <path fill-rule="evenodd" clip-rule="evenodd" d="M10.0001 0C4.47791 0 0 4.5904 0 10.2532C0 14.7833 2.86533 18.6266 6.83867 19.9824C7.33844 20.0773 7.52192 19.76 7.52192 19.4891C7.52192 19.2446 7.51265 18.437 7.50834 17.5802C4.72631 18.2005 4.13927 16.3705 4.13927 16.3705C3.68437 15.1854 3.02894 14.8702 3.02894 14.8702C2.12163 14.2339 3.09733 14.2469 3.09733 14.2469C4.10151 14.3193 4.63026 15.3035 4.63026 15.3035C5.52217 16.871 6.96965 16.4178 7.5403 16.1559C7.63006 15.4932 7.88922 15.0409 8.1752 14.7848C5.95405 14.5256 3.61913 13.6464 3.61913 9.71766C3.61913 8.59825 4.00977 7.6836 4.64947 6.96556C4.54564 6.70731 4.20335 5.66448 4.74635 4.25218C4.74635 4.25218 5.58609 3.97661 7.49708 5.30317C8.29476 5.07599 9.15024 4.96206 10.0001 4.95816C10.8499 4.96206 11.7061 5.07599 12.5052 5.30317C14.4139 3.97661 15.2525 4.25218 15.2525 4.25218C15.7968 5.66448 15.4544 6.70731 15.3505 6.96556C15.9917 7.6836 16.3797 8.59825 16.3797 9.71766C16.3797 13.6557 14.0403 14.5228 11.8135 14.7767C12.1722 15.0949 12.4918 15.7188 12.4918 16.6754C12.4918 18.0473 12.4802 19.1514 12.4802 19.4891C12.4802 19.762 12.6602 20.0817 13.1671 19.981C17.1383 18.6237 20 14.7818 20 10.2532C20 4.5904 15.5227 0 10.0001 0Z" fill="#565656"/>
</svg>