<svg width="40" height="40" viewBox="0 0 40 40" fill="none" xmlns="http://www.w3.org/2000/svg">
<circle opacity="0.5" cx="20" cy="20" r="20" fill="#0085BA"/>
<path fill-rule="evenodd" clip-rule="evenodd" d="M23.5566 22.7865H24.4141L29.8301 28.2133L28.2129 29.8305L22.7871 24.4146V23.5571L22.4941 23.2532C21.2559 24.3169 19.6504 24.9572 17.9023 24.9572C14.0059 24.9572 10.8477 21.7988 10.8477 17.9023C10.8477 14.0059 14.0059 10.8475 17.9023 10.8475C21.7988 10.8475 24.957 14.0059 24.957 17.9023C24.957 19.6498 24.3164 21.2561 23.2539 22.4935L23.5566 22.7865ZM13.0176 17.9023C13.0176 20.6049 15.1992 22.7865 17.9023 22.7865C20.6035 22.7865 22.7852 20.6049 22.7852 17.9023C22.7852 15.1997 20.6035 13.0182 17.9023 13.0182C15.1992 13.0182 13.0176 15.1997 13.0176 17.9023Z" fill="white"/>
</svg>
