<svg width="20" height="20" viewBox="0 0 20 20" fill="none" xmlns="http://www.w3.org/2000/svg">
    <path fill-rule="evenodd" clip-rule="evenodd" d="M10 0C4.4707 0 0 4.47021 0 10C0 15.5298 4.4707 20 10 20C15.5293 20 20 15.5298 20 10C20 4.47021 15.5293 0 10 0ZM12.5898 6L10 8.58984L7.41016 6L6 7.41016L8.58984 10L6 12.5898L7.41016 14L10 11.4102L12.5898 14L14 12.5898L11.4102 10L14 7.41016L12.5898 6ZM2 10C2 14.4102 5.58984 18 10 18C14.4102 18 18 14.4102 18 10C18 5.58984 14.4102 2 10 2C5.58984 2 2 5.58984 2 10Z" fill="#D43C57"/>
</svg>