<svg width="9" height="9" viewBox="0 0 9 9" fill="none" xmlns="http://www.w3.org/2000/svg">
<rect width="9" height="9" fill="black" fill-opacity="0"/>
<path fill-rule="evenodd" clip-rule="evenodd" d="M0 4.5C0 2.01601 2.01599 0 4.5 0C6.98401 0 9 2.01601 9 4.5C9 6.98399 6.98401 9 4.5 9C2.01599 9 0 6.98399 0 4.5ZM4.95007 6.3V7.2H4.05005V6.3H4.95007ZM4.5 8.09999C2.5155 8.09999 0.900024 6.4845 0.900024 4.5C0.900024 2.51549 2.5155 0.899994 4.5 0.899994C6.4845 0.899994 8.09998 2.51549 8.09998 4.5C8.09998 6.4845 6.4845 8.09999 4.5 8.09999ZM2.69995 3.60001C2.69995 2.6055 3.50549 1.8 4.5 1.8C5.49451 1.8 6.29993 2.6055 6.29993 3.60001C6.29993 4.17732 5.94446 4.48801 5.59827 4.79051C5.2699 5.07748 4.94995 5.35709 4.94995 5.85001H4.04993C4.04993 5.03043 4.47388 4.70546 4.84668 4.41975C5.13904 4.19563 5.3999 3.99565 5.3999 3.60001C5.3999 3.105 4.995 2.7 4.5 2.7C4.005 2.7 3.59998 3.105 3.59998 3.60001H2.69995Z" fill="#0085BA"/>
</svg>
