<?xml version="1.0" encoding="UTF-8" standalone="no"?>
<svg width="32px" height="27px" viewBox="0 0 32 27" version="1.1" xmlns="http://www.w3.org/2000/svg" xmlns:xlink="http://www.w3.org/1999/xlink" xmlns:sketch="http://www.bohemiancoding.com/sketch/ns">
    <!-- Generator: Sketch 3.1.1 (8761) - http://www.bohemiancoding.com/sketch -->
    <title>Fill 1 + Fill 3 + Fill 6</title>
    <desc>Created with Sketch.</desc>
    <defs>
        <linearGradient x1="53.548112%" y1="27.5589229%" x2="73.86261%" y2="90.7426847%" id="linearGradient-1">
            <stop stop-color="#51A94C" offset="0%"></stop>
            <stop stop-color="#257F61" offset="100%"></stop>
        </linearGradient>
    </defs>
    <g id="Page-1" stroke="none" stroke-width="1" fill="none" fill-rule="evenodd" sketch:type="MSPage">
        <g id="Fill-1-+-Fill-3-+-Fill-6" sketch:type="MSLayerGroup">
            <path d="M18.3845926,5.5089 C16.9001481,5.5089 15.6968889,4.2903 15.6968889,2.7873 C15.6968889,1.2846 16.9001481,0.0657 18.3845926,0.0657 C19.869037,0.0657 21.0725926,1.2846 21.0725926,2.7873 C21.0725926,4.2903 19.869037,5.5089 18.3845926,5.5089" id="Fill-1" fill="#51A94C" sketch:type="MSShapeGroup"></path>
            <path d="M24.5911111,27 L21.4331852,27 C21.1819259,27 21.0945185,26.9004 21.034963,26.5413 C20.8198519,25.2567 19.714963,24.2784 18.3845926,24.2784 C17.0696296,24.2784 15.9745185,25.2351 15.7425185,26.4984 C15.6841481,26.8161 15.6216296,27 15.3783704,27 L12.1837037,27 C11.8897778,27 11.7745185,26.9244 11.5816296,26.5875 C11.1241481,25.7841 10.1051852,23.9964 9.49955556,22.9329 C8.9042963,21.8904 8.19674074,21.5997 7.33540741,21.5997 C6.87822222,21.5997 6.37777778,21.6816 5.82785185,21.7764 C5.53748148,21.8262 5.24355556,21.8511 4.94903704,21.8511 C3.05777778,21.8511 1.16622222,20.82 0.381925926,18.7002 C-0.613925926,16.0077 0.418666667,13.2546 2.54666667,11.733 C2.59466667,11.6988 2.63792593,11.6838 2.67792593,11.6838 C2.86222222,11.6838 2.97451852,11.9967 3.12177778,12.174 C3.32,12.4146 3.65303704,12.4809 3.37214815,12.8247 C2.62814815,13.7355 2.07644444,14.8716 2.11762963,16.1091 C2.18133333,17.9898 3.11081481,18.8205 4.08622222,18.8205 C4.35733333,18.8205 4.6317037,18.7563 4.89244444,18.6327 C5.97303704,18.12 5.98222222,16.7127 5.75555556,15.522 C5.17214815,12.4503 6.52118519,9.2103 9.34755556,7.5582 C10.5226667,6.8718 11.8056296,6.5448 13.0714074,6.5448 L13.0782222,6.5448 L23.6918519,6.5448 L23.6986667,6.5448 C24.9644444,6.5448 26.2477037,6.8718 27.4228148,7.5582 C30.1419259,9.1482 31.498963,12.21 31.0785185,15.1752 C31.0162963,15.6177 30.9638519,15.9921 30.9851852,16.3827 C31.0361481,17.3061 31.3786667,17.9829 31.8601481,18.4617 C31.9638519,18.5649 31.9211852,18.7038 31.7988148,18.7065 C31.7878519,18.7068 31.7768889,18.7071 31.7659259,18.7071 C31.2411852,18.7071 30.5558519,18.4491 30.1635556,17.8581 L30.1531852,17.8782 C30.1531852,17.8782 25.237037,26.4996 25.1442963,26.6619 C24.9522963,27 24.8133333,27 24.5911111,27 M9.47377778,13.6821 C8.95466667,13.6821 8.53333333,14.1087 8.53333333,14.6343 C8.53333333,15.1605 8.95466667,15.5859 9.47377778,15.5859 C9.99318519,15.5859 10.4136296,15.1605 10.4136296,14.6343 C10.4136296,14.1087 9.99318519,13.6821 9.47377778,13.6821 M15.6968889,7.7274 C15.3072593,7.7274 14.9922963,8.0466 14.9922963,8.4405 C14.9922963,8.835 15.3072593,9.1545 15.6968889,9.1545 L21.0725926,9.1545 C21.4622222,9.1545 21.7780741,8.835 21.7780741,8.4405 C21.7780741,8.0466 21.4622222,7.7274 21.0725926,7.7274 L15.6968889,7.7274" id="Fill-3" fill="url(#linearGradient-1)" sketch:type="MSShapeGroup"></path>
            <path d="M3.64148148,11.5218 C3.59762963,11.5218 3.57481481,11.4711 3.59674074,11.3691 C3.67377778,11.0103 3.62933333,10.5861 3.46725926,10.1757 C3.17066667,9.4251 2.71407407,9.3189 2.60088889,8.64 C2.48059259,7.9158 2.98814815,7.233 3.72296296,7.1433 C3.77866667,7.1364 3.83377778,7.1331 3.8882963,7.1331 C4.54133333,7.1331 5.11081481,7.6071 5.20177778,8.2791 C5.30785185,9.0708 4.9442963,10.629 3.70251852,11.4978 C3.68,11.5137 3.65896296,11.5218 3.64148148,11.5218" id="Fill-5" fill="#51A94C" sketch:type="MSShapeGroup"></path>
        </g>
    </g>
</svg>