<svg width="89" height="49" viewBox="0 0 89 49" fill="none" xmlns="http://www.w3.org/2000/svg">
<path d="M3.72967 9.07557C3.7295 9.30622 3.66806 9.53274 3.55156 9.73231L7.08407 11.756C7.20006 11.5562 7.36705 11.3902 7.56824 11.2748C7.76942 11.1593 7.99769 11.0986 8.23006 11.0986C8.46243 11.0986 8.6907 11.1593 8.89189 11.2748C9.09307 11.3902 9.26007 11.5562 9.37606 11.756L12.9086 9.73076C12.7916 9.53134 12.7301 9.30474 12.7301 9.07402C12.7301 8.8433 12.7916 8.61669 12.9086 8.41728L11.9711 7.87839C11.8136 8.14484 11.7106 8.43951 11.668 8.74552C11.6254 9.05153 11.644 9.36288 11.7227 9.66175L9.91429 10.7039C9.46513 10.2669 8.8613 10.0222 8.23241 10.0222C7.60351 10.0222 6.99968 10.2669 6.55052 10.7039L4.74052 9.6633C4.84378 9.27608 4.84378 8.86885 4.74052 8.48163L6.54661 7.44729C6.80889 7.70269 7.12664 7.89505 7.47546 8.00962C7.82428 8.12418 8.19491 8.1579 8.55891 8.10819C8.9229 8.05849 9.27058 7.92667 9.57527 7.72285C9.87996 7.51904 10.1336 7.24865 10.3166 6.93244L9.37918 6.39355C9.26319 6.59341 9.0962 6.7594 8.89501 6.87482C8.69383 6.99024 8.46556 7.05101 8.23319 7.05101C8.00082 7.05101 7.77255 6.99024 7.57136 6.87482C7.37018 6.7594 7.20318 6.59341 7.08719 6.39355L3.55078 8.41805C3.6681 8.6176 3.72984 8.84453 3.72967 9.07557Z" fill="url(#paint0_linear)"/>
<path d="M11.9748 3.59308L12.9122 3.0542C13.0282 3.2544 13.1953 3.42071 13.3967 3.53636C13.5981 3.652 13.8267 3.7129 14.0594 3.7129C14.292 3.7129 14.5206 3.652 14.722 3.53636C14.9234 3.42071 15.0905 3.2544 15.2065 3.0542L16.1439 3.59308C15.8287 4.13339 15.3141 4.53076 14.7089 4.70109V6.77134C15.3135 6.94147 15.8278 7.33823 16.1432 7.87779L15.2057 8.41668C15.0898 8.21682 14.9228 8.05083 14.7216 7.93541C14.5204 7.81999 14.2921 7.75922 14.0597 7.75922C13.8274 7.75922 13.5991 7.81999 13.3979 7.93541C13.1967 8.05083 13.0297 8.21682 12.9138 8.41668L11.9763 7.87779C12.2913 7.33809 12.8053 6.94106 13.4098 6.77056V4.70032C12.805 4.5298 12.2904 4.13283 11.9748 3.59308ZM17.8008 4.53904C17.5875 4.90205 17.475 5.31478 17.475 5.73505C17.475 6.15532 17.5875 6.56805 17.8008 6.93106L18.7382 6.39218C18.6213 6.19262 18.5598 5.96589 18.5598 5.73505C18.5598 5.50421 18.6213 5.27748 18.7382 5.07792L17.8008 4.53904ZM9.56092 5.73621C9.56108 5.9669 9.49962 6.19351 9.38281 6.39295L10.3202 6.93106C10.5335 6.56815 10.6458 6.15556 10.6458 5.73544C10.6458 5.31532 10.5335 4.90273 10.3202 4.53981L9.38281 5.08257C9.49909 5.2811 9.56053 5.50657 9.56092 5.73621Z" fill="url(#paint1_linear)"/>
<path d="M17.4735 12.4097C17.4739 11.9904 17.586 11.5787 17.7985 11.2164L18.7359 11.7553C18.6193 11.9548 18.5579 12.1813 18.5579 12.412C18.5579 12.6427 18.6193 12.8692 18.7359 13.0687L17.7985 13.6076C17.585 13.244 17.4728 12.8305 17.4735 12.4097ZM14.0613 10.3883C13.8289 10.3883 13.6006 10.3276 13.3994 10.2122C13.1982 10.0967 13.0312 9.93067 12.9153 9.73076L9.38281 11.756C9.49964 11.9556 9.56118 12.1823 9.56118 12.4132C9.56118 12.644 9.49964 12.8707 9.38281 13.0703L10.3202 13.6092C10.6379 13.0709 10.7273 12.4294 10.5686 11.8258L12.3763 10.7899C12.6648 11.0685 13.0186 11.2713 13.4059 11.38V15.3801L14.0598 15.7546L14.7128 15.3801V11.3761C15.3176 11.2058 15.8319 10.8087 16.1471 10.2689L15.2097 9.72998C15.0936 9.93033 14.9263 10.0967 14.7246 10.2123C14.523 10.3279 14.2942 10.3886 14.0613 10.3883Z" fill="url(#paint2_linear)"/>
<path d="M0.324218 14.557L1.26164 15.0958C1.37747 14.8954 1.54454 14.7289 1.74596 14.6131C1.94739 14.4973 2.17603 14.4364 2.4088 14.4364C2.64157 14.4364 2.87022 14.4973 3.07165 14.6131C3.27307 14.7289 3.44014 14.8954 3.55597 15.0958L4.49339 14.557C4.17833 14.0164 3.66366 13.6187 3.05836 13.4482V11.3787C3.44721 11.2704 3.80235 11.0666 4.09108 10.7863L5.89717 11.8222C5.81818 12.1217 5.79947 12.4337 5.8421 12.7404C5.88472 13.0471 5.98785 13.3424 6.14559 13.6095L7.08301 13.0667C6.96617 12.8673 6.90462 12.6407 6.90462 12.41C6.90462 12.1792 6.96617 11.9527 7.08301 11.7532L3.5505 9.72949C3.43456 9.92953 3.26754 10.0957 3.06628 10.2112C2.86502 10.3268 2.63662 10.3876 2.40412 10.3876C2.17161 10.3876 1.94322 10.3268 1.74195 10.2112C1.54069 10.0957 1.37367 9.92953 1.25773 9.72949L0.320313 10.2684C0.635981 10.8104 1.15223 11.2087 1.75925 11.3787V13.449C1.15408 13.6193 0.639426 14.0167 0.324218 14.557Z" fill="url(#paint3_linear)"/>
<path d="M4.81864 15.7506C4.81851 16.1713 4.70583 16.5844 4.49211 16.9477L3.55469 16.4089C3.67159 16.2093 3.73318 15.9826 3.73318 15.7517C3.73318 15.5209 3.67159 15.2942 3.55469 15.0946L4.49211 14.5557C4.70567 14.9183 4.81836 15.3306 4.81864 15.7506ZM8.23084 17.7735C8.46343 17.7735 8.69192 17.8343 8.89326 17.9499C9.0946 18.0655 9.26167 18.2317 9.37762 18.4318L14.0561 15.7506L13.4023 15.3761L9.91585 17.3765C9.65329 17.1214 9.33535 16.9294 8.98641 16.8151C8.63747 16.7009 8.2668 16.6675 7.90284 16.7175C7.53888 16.7675 7.19129 16.8996 6.88673 17.1036C6.58218 17.3076 6.32874 17.5782 6.14587 17.8945L7.08329 18.4334C7.19911 18.2328 7.36621 18.0662 7.56772 17.9504C7.76922 17.8345 7.99797 17.7735 8.23084 17.7735ZM8.23084 14.8069C8.65401 14.8063 9.06957 14.6953 9.4358 14.4849C9.80204 14.2744 10.1061 13.9721 10.3174 13.6082L9.37996 13.0693C9.26397 13.2692 9.09698 13.4352 8.89579 13.5506C8.69461 13.666 8.46634 13.7268 8.23397 13.7268C8.0016 13.7268 7.77333 13.666 7.57214 13.5506C7.37096 13.4352 7.20397 13.2692 7.08798 13.0693L6.15056 13.6121C6.36177 13.9744 6.66501 14.2754 7.03004 14.4851C7.39507 14.6948 7.80911 14.8057 8.23084 14.8069Z" fill="url(#paint4_linear)"/>
<path d="M1.08564 15.7507C1.08556 15.5206 1.14674 15.2946 1.26297 15.0955L0.325554 14.5566C0.11234 14.9197 0 15.3324 0 15.7527C0 16.1729 0.11234 16.5856 0.325554 16.9487L1.26297 16.4059C1.14656 16.2069 1.08538 15.9808 1.08564 15.7507Z" fill="#B70E0C"/>
<path d="M7.09316 19.7477L3.56144 21.7722C3.44571 21.5715 3.2786 21.4046 3.07701 21.2886C2.87543 21.1725 2.64653 21.1114 2.41349 21.1114C2.18045 21.1114 1.95155 21.1725 1.74997 21.2886C1.54838 21.4046 1.38127 21.5715 1.26554 21.7722L0.328125 21.2333C0.510731 20.9167 0.764042 20.6457 1.0686 20.4414C1.37316 20.237 1.72085 20.1047 2.08498 20.0545C2.44911 20.0043 2.81998 20.0377 3.1691 20.152C3.51821 20.2663 3.83629 20.4585 4.09889 20.7138L5.90655 19.6787C5.74857 19.0751 5.83759 18.434 6.15418 17.8954L7.0916 18.4343C6.97477 18.6338 6.91323 18.8606 6.91323 19.0914C6.91323 19.3222 6.97477 19.5489 7.0916 19.7485L7.09316 19.7477ZM2.41388 18.1474C2.83671 18.147 3.25202 18.0363 3.61811 17.8263C3.98421 17.6163 4.28822 17.3144 4.49964 16.951L3.56222 16.4082C3.44628 16.6079 3.27939 16.7737 3.07835 16.8891C2.87731 17.0044 2.64921 17.0651 2.41701 17.0651C2.18481 17.0651 1.95671 17.0044 1.75566 16.8891C1.55462 16.7737 1.38773 16.6079 1.27179 16.4082L0.334374 16.9471C0.544826 17.3103 0.847652 17.6123 1.21258 17.823C1.5775 18.0336 1.99174 18.1455 2.41388 18.1474Z" fill="#E5005B"/>
<path d="M26.3616 13.4464V11.3762C26.9667 11.2055 27.481 10.8078 27.7959 10.2674L26.8585 9.72852C26.7426 9.92892 26.5756 10.0954 26.3742 10.2112C26.1727 10.327 25.9441 10.388 25.7113 10.388C25.4785 10.388 25.2499 10.327 25.0485 10.2112C24.847 10.0954 24.68 9.92892 24.5641 9.72852L21.0332 11.753C21.15 11.9526 21.2116 12.1793 21.2116 12.4101C21.2116 12.641 21.15 12.8677 21.0332 13.0673L21.9706 13.6062C22.129 13.3393 22.2326 13.0441 22.2755 12.7373C22.3184 12.4306 22.2997 12.1185 22.2206 11.8189L24.0251 10.7815C24.3138 11.0613 24.6686 11.2647 25.0571 11.3731V13.4441C24.4523 13.6144 23.938 14.0115 23.6228 14.5513L24.5602 15.0902C24.6762 14.8902 24.8432 14.724 25.0445 14.6085C25.2457 14.4929 25.4741 14.4321 25.7066 14.4321C25.9391 14.4321 26.1675 14.4929 26.3688 14.6085C26.5701 14.724 26.7371 14.8902 26.853 15.0902L27.7904 14.5513C27.4761 14.0135 26.964 13.6174 26.3616 13.4464Z" fill="url(#paint5_linear)"/>
<path d="M27.0336 15.7494C27.0334 15.9801 26.972 16.2066 26.8555 16.4062L27.7929 16.945C28.0062 16.5819 28.1187 16.169 28.1187 15.7486C28.1187 15.3283 28.0062 14.9154 27.7929 14.5522L26.8555 15.0911C26.9722 15.2912 27.0336 15.5183 27.0336 15.7494Z" fill="#00A8B0"/>
<path d="M24.5596 16.4061L23.6222 16.945C23.4088 16.582 23.2964 16.1693 23.2964 15.749C23.2964 15.3287 23.4088 14.916 23.6222 14.553L24.5596 15.0919C24.4427 15.2914 24.3811 15.5182 24.3811 15.749C24.3811 15.9799 24.4427 16.2066 24.5596 16.4061ZM18.1969 17.3723L14.7074 15.3749L14.0566 15.7509L18.7344 18.4314C18.8501 18.231 19.0171 18.0645 19.2184 17.9486C19.4198 17.8328 19.6484 17.7718 19.8811 17.7718C20.1139 17.7718 20.3425 17.8328 20.5438 17.9486C20.7452 18.0645 20.9122 18.231 21.0279 18.4314L21.9653 17.8925C21.6505 17.3521 21.1361 16.9544 20.5311 16.7837V14.7119C21.135 14.5416 21.6487 14.1452 21.9638 13.6063L21.0263 13.0674C20.9103 13.2669 20.7433 13.4325 20.5423 13.5477C20.3413 13.6629 20.1132 13.7235 19.8811 13.7235C19.649 13.7235 19.421 13.6629 19.22 13.5477C19.019 13.4325 18.852 13.2669 18.7359 13.0674L17.7985 13.6063C18.1136 14.1452 18.6273 14.5416 19.2312 14.7119V16.7837C18.8424 16.8913 18.4869 17.0936 18.1969 17.3723Z" fill="url(#paint6_linear)"/>
<path d="M27.7967 21.2301L26.8593 21.769C26.7433 21.569 26.5763 21.4028 26.375 21.2873C26.1738 21.1717 25.9454 21.1109 25.7129 21.1109C25.4804 21.1109 25.252 21.1717 25.0507 21.2873C24.8494 21.4028 24.6824 21.569 24.5665 21.769L21.0332 19.7445C21.15 19.5449 21.2116 19.3182 21.2116 19.0874C21.2116 18.8566 21.15 18.6298 21.0332 18.4303L21.9706 17.8914C22.1283 18.1577 22.2314 18.4524 22.2741 18.7585C22.3167 19.0645 22.298 19.3759 22.219 19.6747L24.0283 20.7114C24.2907 20.4567 24.6085 20.2651 24.9571 20.1511C25.3057 20.0371 25.676 20.0039 26.0396 20.0539C26.4032 20.1039 26.7504 20.2358 27.0547 20.4395C27.359 20.6433 27.6123 20.9135 27.7951 21.2294L27.7967 21.2301ZM25.7101 18.1418C26.1332 18.1415 26.5487 18.0306 26.9149 17.8205C27.2811 17.6104 27.5852 17.3083 27.7967 16.9446L26.8593 16.4058C26.7432 16.6056 26.5761 16.7716 26.3748 16.887C26.1736 17.0024 25.9453 17.0631 25.7129 17.0631C25.4805 17.0631 25.2521 17.0024 25.0509 16.887C24.8497 16.7716 24.6826 16.6056 24.5665 16.4058L23.6291 16.9446C23.84 17.3078 24.1433 17.6096 24.5086 17.8199C24.874 18.0301 25.2886 18.1414 25.7109 18.1426L25.7101 18.1418Z" fill="url(#paint7_linear)"/>
<path d="M14.0605 20.0349C13.4318 20.0348 12.828 20.2792 12.3786 20.7157L10.5702 19.6798C10.6734 19.2928 10.6734 18.8859 10.5702 18.4989L14.0605 16.4977L17.5501 18.4958C17.471 18.7955 17.4523 19.1077 17.4952 19.4146C17.5381 19.7214 17.6417 20.0168 17.8 20.2838L18.7375 19.7449C18.6206 19.5454 18.559 19.3186 18.559 19.0878C18.559 18.8569 18.6206 18.6302 18.7375 18.4307L14.0605 15.751L9.38281 18.433C9.49964 18.6326 9.56118 18.8593 9.56118 19.0901C9.56118 19.3209 9.49964 19.5477 9.38281 19.7472L12.9161 21.7717C13.032 21.5717 13.1991 21.4055 13.4003 21.29C13.6016 21.1745 13.83 21.1136 14.0625 21.1136C14.295 21.1136 14.5234 21.1745 14.7246 21.29C14.9259 21.4055 15.0929 21.5717 15.2089 21.7717L16.1463 21.229C15.9345 20.866 15.6304 20.5646 15.2643 20.3551C14.8982 20.1455 14.4831 20.0351 14.0605 20.0349Z" fill="url(#paint8_linear)"/>
<path d="M21.9662 24.5692L21.0288 25.112C20.9131 24.9115 20.7461 24.745 20.5447 24.6292C20.3434 24.5134 20.1147 24.4524 19.882 24.4524C19.6493 24.4524 19.4207 24.5134 19.2193 24.6292C19.0179 24.745 18.851 24.9115 18.7352 25.112L17.7978 24.5731C18.0087 24.2087 18.3127 23.906 18.6791 23.6955C19.0455 23.485 19.4614 23.3742 19.8847 23.3742C20.3081 23.3742 20.724 23.485 21.0904 23.6955C21.4568 23.906 21.7608 24.2087 21.9717 24.5731L21.9662 24.5692ZM24.3793 22.4261C24.379 22.1956 24.4405 21.9692 24.5574 21.7701L21.0241 19.7456C20.908 19.9451 20.7411 20.1107 20.54 20.2259C20.339 20.3411 20.111 20.4017 19.8789 20.4017C19.6468 20.4017 19.4188 20.3411 19.2177 20.2259C19.0167 20.1107 18.8498 19.9451 18.7337 19.7456L17.7963 20.2845C17.9794 20.6004 18.233 20.8705 18.5376 21.074C18.8422 21.2776 19.1897 21.4092 19.5535 21.4588C19.9172 21.5085 20.2876 21.4747 20.6362 21.3603C20.9849 21.2458 21.3025 21.0537 21.5647 20.7986L23.3716 21.8345C23.2926 22.1342 23.2739 22.4465 23.3165 22.7534C23.3591 23.0603 23.4622 23.3559 23.62 23.6232L24.5574 23.0805C24.4416 22.8815 24.3804 22.6559 24.3801 22.4261H24.3793ZM15.3793 22.4261C15.3794 22.6568 15.3179 22.8834 15.2012 23.0828L16.1386 23.6217C16.3525 23.2587 16.4652 22.8458 16.4652 22.4253C16.4652 22.0048 16.3525 21.5919 16.1386 21.2289L15.2012 21.7717C15.3194 21.9707 15.3822 22.1973 15.3832 22.4284L15.3793 22.4261Z" fill="url(#paint9_linear)"/>
<path d="M8.2424 23.3706C7.81871 23.371 7.40261 23.4823 7.03602 23.6931C6.66944 23.904 6.36532 24.207 6.1543 24.5717L7.09172 25.1105C7.20744 24.9098 7.37455 24.7429 7.57614 24.6269C7.77773 24.5108 8.00663 24.4497 8.23966 24.4497C8.4727 24.4497 8.7016 24.5108 8.90318 24.6269C9.10477 24.7429 9.27189 24.9098 9.38761 25.1105L10.325 24.5717C10.1143 24.2079 9.81106 23.9055 9.44555 23.6947C9.08003 23.4839 8.66513 23.3721 8.2424 23.3706Z" fill="url(#paint10_linear)"/>
<path d="M4.49133 23.6255C4.70534 23.2617 4.81829 22.848 4.81864 22.4268C4.8172 22.2276 4.79096 22.0294 4.74052 21.8367L6.54896 20.8008C6.99838 21.2378 7.60247 21.4826 8.23163 21.4826C8.86078 21.4826 9.46487 21.2378 9.91429 20.8008L11.7219 21.8359C11.6429 22.1355 11.6241 22.4477 11.6668 22.7545C11.7094 23.0613 11.8126 23.3567 11.9704 23.6239L12.9078 23.085C12.7909 22.8855 12.7293 22.6588 12.7293 22.4279C12.7293 22.1971 12.7909 21.9704 12.9078 21.7708L9.37684 19.7471C9.26074 19.9466 9.0938 20.1122 8.89277 20.2274C8.69175 20.3426 8.46373 20.4032 8.23163 20.4032C7.99952 20.4032 7.7715 20.3426 7.57048 20.2274C7.36946 20.1122 7.20251 19.9466 7.08641 19.7471L3.55469 21.7723C3.67159 21.9719 3.73318 22.1986 3.73318 22.4295C3.73318 22.6603 3.67159 22.887 3.55469 23.0866L4.49133 23.6255Z" fill="url(#paint11_linear)"/>
<path d="M17.7963 6.93L18.7337 6.39111C18.8497 6.59132 19.0168 6.75763 19.2182 6.87327C19.4196 6.98892 19.6482 7.04981 19.8808 7.04981C20.1135 7.04981 20.3421 6.98892 20.5435 6.87327C20.7449 6.75763 20.912 6.59132 21.028 6.39111L24.5597 8.41484C24.4428 8.61425 24.3812 8.84085 24.3812 9.07158C24.3812 9.3023 24.4428 9.5289 24.5597 9.72832L21.0288 11.7528C20.913 11.5524 20.7459 11.3859 20.5445 11.2701C20.343 11.1543 20.1144 11.0933 19.8816 11.0933C19.6489 11.0933 19.4202 11.1543 19.2188 11.2701C19.0174 11.3859 18.8503 11.5524 18.7345 11.7528L17.797 11.2147C17.9797 10.8982 18.2331 10.6275 18.5376 10.4233C18.8421 10.2191 19.1897 10.0869 19.5537 10.0368C19.9178 9.98672 20.2885 10.0201 20.6375 10.1344C20.9865 10.2486 21.3045 10.4407 21.567 10.696L23.3739 9.66086C23.3231 9.46872 23.2968 9.271 23.2958 9.07235C23.2968 8.87269 23.3231 8.67394 23.3739 8.48074L21.5678 7.44717C21.3054 7.7028 20.9875 7.89533 20.6384 8.00995C20.2894 8.12458 19.9185 8.15825 19.5543 8.10838C19.19 8.05851 18.8422 7.92643 18.5374 7.72229C18.2327 7.51814 17.9791 7.24737 17.7963 6.93077V6.93ZM15.3871 9.07545C15.3869 9.3061 15.3255 9.53261 15.209 9.73219L16.1464 10.2711C16.3598 9.90807 16.4722 9.49534 16.4722 9.07507C16.4722 8.6548 16.3598 8.24206 16.1464 7.87905L15.209 8.41794C15.3259 8.61762 15.3874 8.8445 15.3871 9.07545Z" fill="url(#paint12_linear)"/>
<path d="M6.1543 4.53993C6.36525 4.17575 6.66921 3.87323 7.03554 3.66286C7.40187 3.4525 7.81761 3.34173 8.24083 3.34173C8.66406 3.34173 9.0798 3.4525 9.44613 3.66286C9.81246 3.87323 10.1164 4.17575 10.3274 4.53993L9.38995 5.08269C9.27412 4.88263 9.10718 4.71644 8.90598 4.60087C8.70478 4.48531 8.47642 4.42445 8.24396 4.42445C8.01149 4.42445 7.78314 4.48531 7.58194 4.60087C7.38073 4.71644 7.2138 4.88263 7.09796 5.08269L6.1543 4.53993ZM11.9796 1.20117C11.7658 1.5639 11.6531 1.97657 11.6531 2.3968C11.6531 2.81703 11.7658 3.22969 11.9796 3.59242L12.917 3.05354C12.8001 2.85398 12.7385 2.62725 12.7385 2.39641C12.7385 2.16557 12.8001 1.93884 12.917 1.73928L11.9796 1.20117Z" fill="url(#paint13_linear)"/>
<path d="M12.9136 1.73972C13.0295 1.54003 13.1964 1.37418 13.3975 1.25886C13.5985 1.14354 13.8266 1.08283 14.0588 1.08283C14.291 1.08283 14.5191 1.14354 14.7201 1.25886C14.9212 1.37418 15.0881 1.54003 15.204 1.73972L16.1414 1.19695C15.9305 0.83313 15.6266 0.530922 15.2605 0.320783C14.8944 0.110644 14.479 0 14.0561 0C13.6332 0 13.2177 0.110644 12.8516 0.320783C12.4855 0.530922 12.1817 0.83313 11.9707 1.19695L12.9136 1.73972Z" fill="#DEDC00"/>
<path d="M1.26789 8.41796C1.38383 8.21793 1.55084 8.05176 1.75211 7.93622C1.95337 7.82068 2.18177 7.75984 2.41427 7.75984C2.64678 7.75984 2.87517 7.82068 3.07644 7.93622C3.2777 8.05176 3.44472 8.21793 3.56066 8.41796L7.09316 6.39269C6.97633 6.19311 6.91479 5.96639 6.91479 5.73556C6.91479 5.50474 6.97633 5.27802 7.09316 5.07843L6.15574 4.53955C5.83848 5.07797 5.74915 5.71925 5.90733 6.32291L4.0942 7.36113C3.83167 7.10665 3.51394 6.91516 3.16536 6.80134C2.81678 6.68751 2.44657 6.65436 2.08309 6.70443C1.71961 6.75449 1.37249 6.88644 1.0683 7.09018C0.764117 7.29391 0.51093 7.56403 0.328125 7.87986L1.26789 8.41796Z" fill="url(#paint14_linear)"/>
<path d="M1.08509 9.07551C1.08527 8.84486 1.1467 8.61833 1.2632 8.41877L0.325782 7.87988C0.112422 8.24304 0 8.65589 0 9.07628C0 9.49667 0.112422 9.90953 0.325782 10.2727L1.2632 9.72992C1.1471 9.53104 1.08568 9.30537 1.08509 9.07551Z" fill="#EC6608"/>
<path d="M25.7109 6.67872C25.082 6.67845 24.4781 6.92318 24.029 7.36027L22.2206 6.32437C22.2994 6.02543 22.3179 5.71398 22.275 5.40792C22.2321 5.10186 22.1287 4.80724 21.9706 4.54102L21.0332 5.0799C21.1498 5.27956 21.2112 5.50625 21.2112 5.73703C21.2112 5.96781 21.1498 6.19449 21.0332 6.39416L24.5649 8.41788C24.681 8.21821 24.8479 8.05238 25.049 7.93709C25.2501 7.8218 25.4783 7.7611 25.7105 7.7611C25.9428 7.7611 26.1709 7.8218 26.372 7.93709C26.5731 8.05238 26.7401 8.21821 26.8561 8.41788L27.7936 7.87899C27.5828 7.51532 27.2795 7.213 26.914 7.00234C26.5485 6.79168 26.1336 6.68008 25.7109 6.67872Z" fill="url(#paint15_linear)"/>
<path d="M27.0367 9.07608C27.037 9.30644 26.9758 9.53277 26.8594 9.73205L27.7968 10.2709C28.0102 9.90792 28.1226 9.49519 28.1226 9.07492C28.1226 8.65465 28.0102 8.24191 27.7968 7.87891L26.8594 8.41779C26.9762 8.61773 27.0374 8.84493 27.0367 9.07608Z" fill="#76B82A"/>
<path d="M21.9678 4.53817L21.0304 5.07706C20.9143 4.87757 20.7473 4.71192 20.5463 4.59675C20.3453 4.48158 20.1172 4.42095 19.8851 4.42095C19.653 4.42095 19.425 4.48158 19.224 4.59675C19.023 4.71192 18.856 4.87757 18.7399 5.07706L17.8025 4.53817C18.0135 4.17435 18.3173 3.87214 18.6834 3.662C19.0495 3.45186 19.465 3.34122 19.8879 3.34122C20.3108 3.34122 20.7262 3.45186 21.0923 3.662C21.4585 3.87214 21.7623 4.17435 21.9732 4.53817H21.9678ZM15.3863 2.39815C15.3864 2.62823 15.3252 2.85425 15.209 3.05334L16.1464 3.59222C16.3598 3.22921 16.4722 2.81648 16.4722 2.39621C16.4722 1.97594 16.3598 1.5632 16.1464 1.2002L15.209 1.74296C15.3254 1.94197 15.3865 2.16804 15.3863 2.39815Z" fill="url(#paint16_linear)"/>
<path d="M21.0293 26.4227C21.1461 26.2233 21.2077 25.9967 21.2077 25.766C21.2077 25.5353 21.1461 25.3087 21.0293 25.1093L21.9667 24.5665C22.1805 24.9295 22.2932 25.3424 22.2932 25.7629C22.2932 26.1834 22.1805 26.5963 21.9667 26.9593L21.0293 26.4227ZM27.7951 23.6229L26.8577 23.084C26.7418 23.284 26.5747 23.4502 26.3735 23.5657C26.1722 23.6813 25.9438 23.7421 25.7113 23.7421C25.4788 23.7421 25.2504 23.6813 25.0491 23.5657C24.8479 23.4502 24.6809 23.284 24.5649 23.084L23.6275 23.6267C23.8385 23.9907 24.1425 24.2931 24.5087 24.5033C24.875 24.7136 25.2906 24.8243 25.7137 24.8243C26.1367 24.8243 26.5524 24.7136 26.9186 24.5033C27.2849 24.2931 27.5888 23.9907 27.7998 23.6267L27.7951 23.6229Z" fill="url(#paint17_linear)"/>
<path d="M27.0336 22.4259C27.0334 22.6565 26.972 22.8831 26.8555 23.0826L27.7929 23.6215C28.0063 23.2585 28.1187 22.8458 28.1187 22.4255C28.1187 22.0052 28.0063 21.5925 27.7929 21.2295L26.8555 21.7684C26.9724 21.9681 27.0338 22.1949 27.0336 22.4259Z" fill="#0090D7"/>
<path d="M0.325781 23.6258L1.2632 23.0869C1.3794 23.286 1.5463 23.4514 1.74716 23.5663C1.94802 23.6812 2.17579 23.7417 2.40763 23.7417C2.63947 23.7417 2.86724 23.6812 3.0681 23.5663C3.26897 23.4514 3.43586 23.286 3.55206 23.0869L4.48948 23.6258C4.27827 23.9891 3.97442 24.2907 3.60849 24.5005C3.24257 24.7102 2.82746 24.8206 2.4049 24.8206C1.98234 24.8206 1.56723 24.7102 1.2013 24.5005C0.835372 24.2907 0.531526 23.9891 0.320312 23.6258H0.325781ZM6.91115 25.765C6.9108 25.5354 6.97142 25.3097 7.08691 25.1106L6.14949 24.5718C5.93636 24.9348 5.82406 25.3475 5.82406 25.7678C5.82406 26.188 5.93636 26.6007 6.14949 26.9638L7.08691 26.421C6.97078 26.2217 6.90987 25.9953 6.91037 25.765H6.91115Z" fill="url(#paint18_linear)"/>
<path d="M1.0863 22.4262C1.08593 22.1964 1.14685 21.9706 1.26285 21.7718L0.325431 21.2329C0.112295 21.596 0 22.0087 0 22.4289C0 22.8491 0.112295 23.2618 0.325431 23.6249L1.26285 23.0861C1.14619 22.8855 1.08527 22.6578 1.0863 22.4262Z" fill="url(#paint19_linear)"/>
<path d="M27.5113 35.3464H14.7132V29.4761L18.2004 27.4764C18.4627 27.7313 18.7802 27.9233 19.1288 28.0376C19.4774 28.1519 19.8477 28.1855 20.2114 28.1358C20.5751 28.0861 20.9224 27.9545 21.2269 27.7509C21.5314 27.5474 21.7849 27.2773 21.968 26.9615L21.0306 26.4188C20.9444 26.5694 20.829 26.7016 20.691 26.8078C20.5531 26.914 20.3954 26.992 20.2269 27.0375C20.0585 27.0829 19.8827 27.0948 19.7096 27.0725C19.5365 27.0501 19.3695 26.9941 19.2183 26.9074C19.0672 26.8208 18.9348 26.7053 18.8288 26.5677C18.7227 26.4301 18.6452 26.273 18.6006 26.1055C18.556 25.938 18.5453 25.7633 18.5689 25.5917C18.5926 25.42 18.6503 25.2547 18.7386 25.1053L17.8012 24.5664C17.6439 24.8329 17.541 25.1276 17.4985 25.4336C17.456 25.7396 17.4747 26.0509 17.5536 26.3498L14.7163 27.9781V24.7308C15.3206 24.5605 15.8346 24.1637 16.1498 23.6243L15.2124 23.0854C15.0964 23.2855 14.9294 23.4517 14.7281 23.5672C14.5269 23.6827 14.2985 23.7436 14.066 23.7436C13.8335 23.7436 13.6051 23.6827 13.4038 23.5672C13.2026 23.4517 13.0355 23.2855 12.9196 23.0854L11.9822 23.6243C12.2975 24.1639 12.8118 24.5607 13.4164 24.7308V27.9796L10.5792 26.3513C10.6296 26.1591 10.6559 25.9614 10.6573 25.7628C10.6571 25.3436 10.5453 24.9319 10.3331 24.5695L9.39568 25.1084C9.57127 25.4101 9.61893 25.7686 9.52817 26.1052C9.43741 26.4417 9.21568 26.7287 8.91174 26.903C8.6078 27.0773 8.24656 27.1246 7.90749 27.0345C7.56842 26.9444 7.27928 26.7243 7.10369 26.4227L6.16628 26.9654C6.35017 27.2785 6.60345 27.5459 6.90693 27.7474C7.2104 27.9488 7.5561 28.0791 7.91783 28.1282C8.27955 28.1774 8.64781 28.1442 8.99468 28.0311C9.34155 27.918 9.65794 27.7281 9.91986 27.4756L13.4086 29.4761V35.3464H0.608947C0.493546 35.3464 0.382872 35.3919 0.301271 35.4729C0.219671 35.5539 0.173828 35.6638 0.173828 35.7783C0.173828 35.8928 0.219671 36.0027 0.301271 36.0837C0.382872 36.1647 0.493546 36.2102 0.608947 36.2102H13.3844C13.3 36.7243 13.0445 37.1954 12.6587 37.5485C11.8314 38.3184 10.3604 38.658 8.40436 38.5309C7.60509 38.4702 6.80123 38.5153 6.01395 38.665C5.97376 38.6654 5.93401 38.6733 5.89677 38.6883L5.88661 38.6929C3.64618 39.193 2.76188 40.6034 2.5994 41.5548C2.58539 41.6394 2.60571 41.7261 2.65593 41.7958C2.70615 41.8656 2.78217 41.9128 2.86734 41.927C2.88542 41.93 2.9037 41.9316 2.92203 41.9317C2.99911 41.9314 3.07363 41.9041 3.13239 41.8546C3.19115 41.8051 3.23037 41.7365 3.24309 41.6611C3.25559 41.5905 3.45245 40.529 4.70781 39.8095C4.59766 40.1196 4.56876 40.4608 4.54064 40.8066C4.5008 41.3021 4.45471 41.8634 4.15395 42.4767C4.1327 42.5152 4.11954 42.5576 4.11529 42.6013C4.11103 42.645 4.11576 42.6891 4.12919 42.7309C4.14262 42.7727 4.16447 42.8114 4.19342 42.8446C4.22236 42.8778 4.2578 42.9048 4.29757 42.924C4.33735 42.9432 4.38064 42.9542 4.42481 42.9562C4.46899 42.9583 4.51313 42.9515 4.55456 42.9361C4.59599 42.9208 4.63384 42.8972 4.66582 42.8669C4.69781 42.8366 4.72325 42.8001 4.74062 42.7598C5.09528 42.0371 5.14761 41.3835 5.19058 40.8585C5.25464 40.0739 5.28979 39.6397 6.12331 39.2954C6.44371 39.2317 6.76815 39.19 7.09432 39.1706C6.71701 39.6304 6.63342 40.2654 6.54749 40.9237C6.42563 41.8727 6.27408 43.0528 5.26011 44.2454C5.2323 44.2782 5.21129 44.3162 5.19827 44.3571C5.18524 44.398 5.18046 44.441 5.1842 44.4837C5.18793 44.5265 5.20011 44.568 5.22004 44.6061C5.23997 44.6442 5.26725 44.678 5.30034 44.7056C5.33342 44.7331 5.37166 44.754 5.41286 44.7669C5.45407 44.7799 5.49743 44.7846 5.54048 44.7809C5.58354 44.7772 5.62543 44.7651 5.66378 44.7453C5.70212 44.7255 5.73617 44.6985 5.76397 44.6656C6.90293 43.3281 7.06854 42.0418 7.20056 41.0082C7.34664 39.8715 7.45445 39.3566 8.40749 39.1814C10.555 39.3124 12.1353 38.9248 13.1055 38.0222C13.2055 37.9273 13.2992 37.826 13.386 37.7191C13.1188 38.489 12.5704 39.3636 11.4432 40.3065C10.8656 40.7822 10.246 41.2052 9.59176 41.5703C8.58091 42.1635 7.8505 42.5923 7.58647 44.0779C7.57148 44.1625 7.59096 44.2496 7.64061 44.3199C7.69027 44.3903 7.76605 44.4382 7.85129 44.4532C7.87006 44.4569 7.88917 44.4587 7.90831 44.4586C7.98497 44.4584 8.05911 44.4314 8.11769 44.3824C8.17627 44.3333 8.21555 44.2653 8.2286 44.1903C8.4403 42.9978 8.9676 42.6892 9.92298 42.1278L10.1995 41.965C9.98469 42.4698 9.87611 42.973 9.77456 43.4382C9.5402 44.5237 9.34022 45.4542 8.05596 46.2931C7.99683 46.3311 7.95171 46.3871 7.92736 46.4527C7.90302 46.5184 7.90075 46.59 7.9209 46.657C7.94105 46.724 7.98254 46.7827 8.03914 46.8243C8.09574 46.8659 8.16441 46.8882 8.23485 46.8878C8.29808 46.8875 8.35989 46.8692 8.41296 46.8351C9.92532 45.8512 10.1745 44.6928 10.4159 43.5739C10.4432 43.4452 10.4706 43.3188 10.5003 43.1916C10.569 43.5351 10.669 43.8732 10.7659 44.1996C10.9807 44.9215 11.2026 45.6682 11.0783 46.3707C11.0634 46.4553 11.0828 46.5423 11.1325 46.6127C11.1822 46.6831 11.2579 46.731 11.3432 46.7459C11.362 46.749 11.3811 46.7506 11.4002 46.7506C11.4769 46.7506 11.5511 46.7238 11.6098 46.6749C11.6686 46.626 11.708 46.5581 11.7213 46.4831C11.872 45.6302 11.6283 44.8091 11.3924 44.0143C11.0323 42.8024 10.7213 41.7556 11.8681 40.795C12.829 39.9893 13.4094 39.2171 13.7601 38.5092C13.8336 39.3566 13.9328 40.1026 14.0343 40.7732C14.2687 42.3116 13.8781 42.7838 13.436 43.332C12.9938 43.8802 12.4837 44.4997 12.5767 46.0783C12.5816 46.1608 12.6181 46.2382 12.6787 46.2948C12.7392 46.3515 12.8192 46.383 12.9024 46.3831H12.9219C13.0083 46.3779 13.0891 46.3389 13.1465 46.2746C13.2039 46.2103 13.2333 46.1261 13.2282 46.0404C13.15 44.7129 13.532 44.2399 13.9398 43.7398C14.1032 43.55 14.2511 43.3475 14.382 43.1343C14.582 44.9176 14.3984 46.2885 12.8196 48.489C12.7695 48.5589 12.7494 48.6457 12.7637 48.7304C12.7781 48.815 12.8257 48.8905 12.8962 48.9403C12.9666 48.99 13.0541 49.01 13.1393 48.9957C13.2246 48.9815 13.3007 48.9342 13.3508 48.8643C15.4975 45.8698 15.2366 44.2299 14.8046 41.5153C14.6609 40.6135 14.4921 39.573 14.3921 38.3045C14.7499 39.0449 15.2366 39.6001 15.692 40.1165C16.8419 41.4207 17.8348 42.5465 16.3755 46.3094C16.3445 46.3895 16.3467 46.4786 16.3817 46.5571C16.4167 46.6356 16.4816 46.6971 16.5622 46.7281C16.5997 46.7422 16.6394 46.7496 16.6794 46.7498C16.7455 46.7498 16.8101 46.73 16.8646 46.6929C16.9191 46.6558 16.961 46.6032 16.9849 46.542C17.7387 44.5989 17.8668 43.2637 17.6684 42.2542C18.1168 42.8342 18.4105 43.6212 18.2519 45.106C18.2473 45.1483 18.2511 45.1911 18.2631 45.2319C18.2751 45.2727 18.2951 45.3107 18.3219 45.3439C18.3488 45.377 18.3819 45.4045 18.4195 45.4249C18.4571 45.4453 18.4984 45.4582 18.541 45.4627H18.5761C18.6566 45.4626 18.7341 45.433 18.794 45.3797C18.8538 45.3263 18.8917 45.2529 18.9003 45.1735C18.9536 44.7142 18.9594 44.2507 18.9175 43.7902C19.3354 44.2159 19.7924 44.6121 20.1729 44.8253C20.2483 44.8672 20.3375 44.8778 20.4207 44.8547C20.504 44.8316 20.5747 44.7767 20.6174 44.7021C20.6385 44.665 20.652 44.6242 20.6572 44.582C20.6624 44.5397 20.6591 44.4969 20.6476 44.4559C20.636 44.4149 20.6164 44.3766 20.5899 44.3431C20.5634 44.3096 20.5306 44.2817 20.4932 44.2609C19.8151 43.8817 18.7472 42.7101 18.384 42.1402C18.3789 42.132 18.3731 42.1243 18.3668 42.117C18.0918 41.6897 17.7551 41.3711 17.4294 41.0702C17.191 40.8583 16.9697 40.628 16.7677 40.3817C16.7646 40.3781 16.7612 40.3747 16.7575 40.3716C16.5716 40.1343 16.3748 39.9064 16.1787 39.6877C15.7045 39.1504 15.2217 38.6022 14.8968 37.8478C15.5897 38.4495 16.6458 38.6735 17.7785 38.7999H17.7895C19.3878 38.9744 19.6182 40.1181 19.8854 41.4439C19.9971 41.9968 20.1127 42.5706 20.3424 43.0722C20.3784 43.1503 20.4442 43.2109 20.5253 43.2408C20.6064 43.2707 20.6961 43.2674 20.7748 43.2316C20.8534 43.1958 20.9145 43.1305 20.9446 43.05C20.9747 42.9695 20.9714 42.8804 20.9353 42.8024C20.7377 42.3728 20.6346 41.8611 20.5252 41.3199C20.4643 41.0198 20.401 40.7128 20.3197 40.4112C20.5947 40.5523 20.8806 40.6678 21.165 40.781C21.9133 41.0795 22.5594 41.3369 22.8351 42.003C22.8597 42.0625 22.9016 42.1134 22.9554 42.1492C23.0093 42.185 23.0727 42.204 23.1375 42.2038C23.1795 42.2039 23.2212 42.1957 23.2601 42.1798C23.3401 42.1471 23.4039 42.0843 23.4373 42.0051C23.4706 41.9258 23.471 41.8367 23.4382 41.7572C23.0586 40.8376 22.2188 40.5026 21.4071 40.1793C20.7588 39.9211 20.1471 39.6769 19.7557 39.1519C19.7073 39.0868 19.6549 39.0232 19.5995 38.962C21.647 39.1473 23.6132 39.4978 24.1608 41.5005C24.1792 41.569 24.2197 41.6295 24.2762 41.6728C24.3327 41.7162 24.4019 41.7398 24.4733 41.7401C24.5023 41.74 24.5312 41.736 24.5592 41.7285C24.6426 41.7057 24.7134 41.651 24.7563 41.5765C24.7992 41.5019 24.8106 41.4136 24.7881 41.3307C24.0624 38.672 21.3642 38.4533 18.9839 38.2595C16.5412 38.061 14.9749 37.8423 14.7499 36.2055H27.5113C27.6267 36.2055 27.7374 36.16 27.819 36.079C27.9006 35.998 27.9464 35.8882 27.9464 35.7736C27.9464 35.6591 27.9006 35.5493 27.819 35.4683C27.7374 35.3873 27.6267 35.3418 27.5113 35.3418V35.3464Z" fill="#213A8F"/>
<path d="M40.88 13.807V18.2965H40.3453V13.807H38.8945V13.334H42.3299V13.8077L40.88 13.807Z" fill="black"/>
<path d="M43.5818 18.2965V13.334H46.6931V13.8077H44.1173V15.557H46.3095V16.0316H44.1173V17.8235H46.6931V18.2965H43.5818Z" fill="black"/>
<path d="M50.9389 18.2965V13.807H48.5666V18.2965H48.0319V13.334H51.4767V18.2965H50.9389Z" fill="black"/>
<path d="M56.092 18.2965V13.807H54.3884V15.5051C54.3884 17.5986 53.8818 18.2965 52.9243 18.2965H52.6738V17.8227H52.8077C53.4269 17.8227 53.8701 17.4118 53.8701 15.3477V13.334H56.6291V18.2965H56.092Z" fill="black"/>
<path d="M61.3203 18.2965V14.2458L58.7719 18.2965H58.2653V13.334H58.8001V17.3769L61.3484 13.334H61.855V18.2965H61.3203Z" fill="black"/>
<path d="M67.0058 19.496V18.2965H63.4936V13.334H64.026V17.8235H66.3982V13.334H66.933V17.8235H67.5319V19.4968L67.0058 19.496Z" fill="black"/>
<path d="M72.0751 18.2965L71.6743 17.1745H69.4821L69.0836 18.2965H68.5137L70.3582 13.334H70.8084L72.6451 18.2965H72.0751ZM70.5876 14.0931L69.6481 16.7139H71.5208L70.5876 14.0931Z" fill="black"/>
<path d="M40.9653 27.1476C40.7279 27.1503 40.4924 27.1062 40.2724 27.0176C40.0525 26.9291 39.8526 26.798 39.6845 26.6319C39.2147 26.1667 39.2147 25.6766 39.2147 24.6244C39.2147 23.5722 39.2147 23.083 39.6845 22.6162C39.8527 22.4503 40.0526 22.3193 40.2725 22.2307C40.4924 22.1422 40.728 22.0979 40.9653 22.1005C41.8665 22.1005 42.5312 22.6433 42.7042 23.5784H42.1561C42.0223 22.9713 41.5924 22.5704 40.9661 22.5704C40.8056 22.5687 40.6464 22.5986 40.4977 22.6585C40.349 22.7184 40.2139 22.8071 40.1002 22.9194C39.787 23.2396 39.7487 23.5815 39.7487 24.6206C39.7487 25.6596 39.7839 26 40.1002 26.321C40.2139 26.4332 40.349 26.5219 40.4977 26.5818C40.6464 26.6418 40.8056 26.6717 40.9661 26.6699C41.5924 26.6699 42.0364 26.2721 42.1702 25.6658H42.705C42.5421 26.604 41.8594 27.1476 40.9653 27.1476Z" fill="black"/>
<path d="M47.4831 24.6244C47.4831 25.6138 47.4682 26.1752 47.0133 26.6319C46.6704 26.9626 46.2107 27.1476 45.7321 27.1476C45.2535 27.1476 44.7938 26.9626 44.4508 26.6319C43.9936 26.1791 43.9811 25.6138 43.9811 24.6244V24.2367C43.9811 23.6443 44.0234 23.0372 44.4508 22.6123C44.7938 22.2816 45.2535 22.0966 45.7321 22.0966C46.2107 22.0966 46.6704 22.2816 47.0133 22.6123C47.4494 23.0442 47.4831 23.6723 47.4831 24.2786V24.6244ZM46.9476 24.3593C46.9476 23.7738 46.9264 23.2574 46.596 22.9302C46.4824 22.8174 46.3475 22.7279 46.1989 22.6668C46.0503 22.6057 45.891 22.5743 45.7301 22.5743C45.5693 22.5743 45.41 22.6057 45.2614 22.6668C45.1128 22.7279 44.9778 22.8174 44.8642 22.9302C44.5119 23.2784 44.5119 23.7948 44.5119 24.481V24.9749C44.5119 25.5123 44.5401 26.0008 44.8642 26.321C44.9778 26.4338 45.1128 26.5233 45.2614 26.5844C45.41 26.6455 45.5693 26.6769 45.7301 26.6769C45.891 26.6769 46.0503 26.6455 46.1989 26.5844C46.3475 26.5233 46.4824 26.4338 46.596 26.321C46.9405 25.9798 46.9476 25.4425 46.9476 24.871V24.3593Z" fill="black"/>
<path d="M52.4796 28.3052V27.1057H48.9667V22.1432H49.5014V26.6319H51.8736V22.1416H52.4092V26.6319H53.0073V28.3052H52.4796Z" fill="black"/>
<path d="M57.3564 27.1057V23.0551L54.808 27.1057H54.3014V22.1432H54.8362V26.1869L57.3838 22.1432H57.8911V27.1057H57.3564Z" fill="black"/>
<path d="M62.6465 27.1057L62.2449 25.9837H60.0527L59.6519 27.1057H59.0811L60.9257 22.1432H61.3759L63.2133 27.1057H62.6465ZM61.159 22.9023L60.2195 25.5231H62.0922L61.159 22.9023Z" fill="black"/>
<path d="M67.5162 27.1057V22.6162H65.8126V24.3174C65.8126 26.4109 65.3061 27.1088 64.3486 27.1088H64.0949V26.6319H64.2288C64.8481 26.6319 65.292 26.221 65.292 24.1569V22.1409H68.051V27.1034L67.5162 27.1057Z" fill="black"/>
<path d="M71.5686 27.1057H69.6896V22.1432H70.2243V24.1863H71.5686C72.5081 24.1863 73.1172 24.7725 73.1172 25.6503C73.1172 26.528 72.4979 27.1057 71.5686 27.1057ZM71.52 24.6586H70.2243V26.6319H71.52C72.1886 26.6319 72.5762 26.269 72.5762 25.6487C72.5762 25.0284 72.1886 24.6586 71.52 24.6586Z" fill="black"/>
<path d="M77.3206 27.1057V24.84H74.9414V27.1057H74.4059V22.1432H74.9414V24.3678H77.3206V22.1416H77.8554V27.1041L77.3206 27.1057Z" fill="black"/>
<path d="M81.3738 27.1057H79.4948V22.1432H80.0295V24.1863H81.3745C82.314 24.1863 82.9224 24.7725 82.9224 25.6503C82.9224 26.528 82.3023 27.1057 81.3738 27.1057ZM80.0287 24.6586V26.6319H81.3284C81.997 26.6319 82.3837 26.269 82.3837 25.6487C82.3837 25.0284 81.9931 24.6586 81.3284 24.6586H80.0287ZM83.5949 27.1057V22.1432H84.1296V27.1057H83.5949Z" fill="black"/>
<path d="M88.3816 27.1057L87.1634 25.0214L85.9389 27.1057H85.333L86.8683 24.5616L85.4316 22.1416H86.0517L87.1634 24.1011L88.2759 22.1416H88.8952L87.4523 24.5616L89.0009 27.1057H88.3816Z" fill="black"/>
<path d="M40.88 31.1765V35.6652H40.3453V31.1765H38.8945V30.7027H42.3299V31.1765H40.88Z" fill="black"/>
<path d="M43.5818 35.6652V30.7027H46.6931V31.1765H44.1173V32.9273H46.3095V33.4011H44.1173V35.193H46.6931V35.6652H43.5818Z" fill="black"/>
<path d="M50.776 35.6652L49.5578 33.5818L48.3333 35.6652H47.7273L49.2626 33.1204L47.826 30.7027H48.4461L49.5578 32.6621L50.6703 30.7027H51.2896L49.8467 33.1219L51.3953 35.6652H50.776Z" fill="black"/>
<path d="M55.5095 35.6652V33.4011H53.1302V35.6652H52.5955V30.7027H53.1302V32.9273H55.5095V30.7027H56.0442V35.6652H55.5095Z" fill="black"/>
<path d="M61.0431 33.184C61.0431 34.1741 61.0282 34.7348 60.5734 35.1922C60.2304 35.5229 59.7707 35.7079 59.2921 35.7079C58.8135 35.7079 58.3538 35.5229 58.0109 35.1922C57.5529 34.7386 57.5411 34.1741 57.5411 33.184V32.8009C57.5411 32.2078 57.5834 31.6014 58.0109 31.1726C58.3538 30.842 58.8135 30.6569 59.2921 30.6569C59.7707 30.6569 60.2304 30.842 60.5734 31.1726C61.0095 31.6045 61.0431 32.2326 61.0431 32.8397V33.184ZM60.5076 32.9188C60.5076 32.3334 60.4872 31.817 60.1561 31.4897C60.0425 31.3769 59.9075 31.2874 59.7589 31.2264C59.6103 31.1653 59.451 31.1338 59.2902 31.1338C59.1293 31.1338 58.97 31.1653 58.8214 31.2264C58.6728 31.2874 58.5379 31.3769 58.4243 31.4897C58.072 31.8379 58.072 32.3543 58.072 33.0405V33.536C58.072 34.0726 58.1002 34.5603 58.4243 34.8813C58.5379 34.9941 58.6728 35.0836 58.8214 35.1447C58.97 35.2058 59.1293 35.2372 59.2902 35.2372C59.451 35.2372 59.6103 35.2058 59.7589 35.1447C59.9075 35.0836 60.0425 34.9941 60.1561 34.8813C60.5013 34.5394 60.5076 34.002 60.5076 33.4313V32.9188Z" fill="black"/>
<path d="M65.357 35.6652V31.1765H63.6533V32.8777C63.6533 34.9713 63.1468 35.6691 62.1893 35.6691H61.9364V35.1953H62.0695C62.6888 35.1953 63.1327 34.7836 63.1327 32.7203V30.7027H65.8917V35.6652H65.357Z" fill="black"/>
<path d="M70.8929 33.184C70.8929 34.1741 70.8788 34.7348 70.4232 35.1922C70.0802 35.5229 69.6206 35.7079 69.1419 35.7079C68.6633 35.7079 68.2036 35.5229 67.8607 35.1922C67.4027 34.7386 67.391 34.1741 67.391 33.184V32.8009C67.391 32.2078 67.4325 31.6014 67.8607 31.1726C68.2036 30.842 68.6633 30.6569 69.1419 30.6569C69.6206 30.6569 70.0802 30.842 70.4232 31.1726C70.8593 31.6045 70.8929 32.2326 70.8929 32.8397V33.184ZM70.3582 32.9188C70.3582 32.3334 70.3371 31.817 70.0059 31.4897C69.8923 31.3769 69.7573 31.2874 69.6087 31.2264C69.4602 31.1653 69.3009 31.1338 69.14 31.1338C68.9791 31.1338 68.8198 31.1653 68.6712 31.2264C68.5226 31.2874 68.3877 31.3769 68.2741 31.4897C67.9226 31.8379 67.9226 32.3543 67.9226 33.0405V33.536C67.9226 34.0726 67.9507 34.5603 68.2741 34.8813C68.3877 34.9941 68.5226 35.0836 68.6712 35.1447C68.8198 35.2058 68.9791 35.2372 69.14 35.2372C69.3009 35.2372 69.4602 35.2058 69.6087 35.1447C69.7573 35.0836 69.8923 34.9941 70.0059 34.8813C70.3512 34.5394 70.3582 34.002 70.3582 33.4313V32.9188Z" fill="black"/>
<path d="M72.9442 31.1765V35.6652H72.4094V30.7027H75.4221V31.1765H72.9442Z" fill="black"/>
<path d="M79.7336 35.6652V31.6161L77.1852 35.6652H76.6779V30.7027H77.2126V34.7464L79.7625 30.7027H80.2699V35.6652H79.7336Z" fill="black"/>
<path d="M84.9611 35.6652V31.6161L82.4135 35.6652H81.9062V30.7027H82.4409V34.7464L84.9893 30.7027H85.4958V35.6652H84.9611ZM83.7014 30.3926C83.1165 30.3926 82.7157 30.1351 82.6734 29.5141H83.1236C83.1518 29.856 83.3585 30.0297 83.7014 30.0297C84.0443 30.0297 84.2494 29.856 84.2784 29.5141H84.7293C84.687 30.1313 84.2854 30.3926 83.7014 30.3926Z" fill="black"/>
<defs>
<linearGradient id="paint0_linear" x1="3.55078" y1="9.07479" x2="12.9086" y2="9.07479" gradientUnits="userSpaceOnUse">
<stop stop-color="#EC6608"/>
<stop offset="1" stop-color="#F9B000"/>
</linearGradient>
<linearGradient id="paint1_linear" x1="9.38281" y1="5.73544" x2="18.7406" y2="5.73544" gradientUnits="userSpaceOnUse">
<stop stop-color="#FFED00"/>
<stop offset="1" stop-color="#BCCF00"/>
</linearGradient>
<linearGradient id="paint2_linear" x1="9.38281" y1="12.7408" x2="18.7406" y2="12.7408" gradientUnits="userSpaceOnUse">
<stop stop-color="#EC6608"/>
<stop offset="1" stop-color="#C8D400"/>
</linearGradient>
<linearGradient id="paint3_linear" x1="0.324218" y1="12.4138" x2="7.09004" y2="12.4138" gradientUnits="userSpaceOnUse">
<stop stop-color="#E40428"/>
<stop offset="1" stop-color="#EC6608"/>
</linearGradient>
<linearGradient id="paint4_linear" x1="3.55234" y1="15.7513" x2="14.0561" y2="15.7513" gradientUnits="userSpaceOnUse">
<stop stop-color="#B70E0C"/>
<stop offset="1" stop-color="#C80973"/>
</linearGradient>
<linearGradient id="paint5_linear" x1="21.0293" y1="12.4105" x2="27.7959" y2="12.4105" gradientUnits="userSpaceOnUse">
<stop stop-color="#65B32E"/>
<stop offset="1" stop-color="#C8D400"/>
</linearGradient>
<linearGradient id="paint6_linear" x1="14.0566" y1="15.7494" x2="24.5596" y2="15.7494" gradientUnits="userSpaceOnUse">
<stop stop-color="#0081A7"/>
<stop offset="1" stop-color="#76B82A"/>
</linearGradient>
<linearGradient id="paint7_linear" x1="21.0309" y1="19.0878" x2="27.7967" y2="19.0878" gradientUnits="userSpaceOnUse">
<stop stop-color="#76B82A"/>
<stop offset="1" stop-color="#0081A7"/>
</linearGradient>
<linearGradient id="paint8_linear" x1="9.38125" y1="18.761" x2="18.7398" y2="18.761" gradientUnits="userSpaceOnUse">
<stop stop-color="#C80973"/>
<stop offset="1" stop-color="#007BC4"/>
</linearGradient>
<linearGradient id="paint9_linear" x1="15.2012" y1="22.4268" x2="24.5582" y2="22.4268" gradientUnits="userSpaceOnUse">
<stop stop-color="#213A8F"/>
<stop offset="1" stop-color="#009FE3"/>
</linearGradient>
<linearGradient id="paint10_linear" x1="6.15508" y1="24.2406" x2="10.3313" y2="24.2406" gradientUnits="userSpaceOnUse">
<stop stop-color="#831F82"/>
<stop offset="1" stop-color="#5C2483"/>
</linearGradient>
<linearGradient id="paint11_linear" x1="429.401" y1="1104.31" x2="1549.9" y2="1104.31" gradientUnits="userSpaceOnUse">
<stop stop-color="#831F82"/>
<stop offset="1" stop-color="#5C2483"/>
</linearGradient>
<linearGradient id="paint12_linear" x1="15.2043" y1="9.07235" x2="24.5629" y2="9.07235" gradientUnits="userSpaceOnUse">
<stop stop-color="#C8D400"/>
<stop offset="1" stop-color="#65B32E"/>
</linearGradient>
<linearGradient id="paint13_linear" x1="6.1543" y1="3.14038" x2="12.9201" y2="3.14038" gradientUnits="userSpaceOnUse">
<stop stop-color="#FDC300"/>
<stop offset="1" stop-color="#FFD500"/>
</linearGradient>
<linearGradient id="paint14_linear" x1="0.328125" y1="6.47876" x2="7.09316" y2="6.47876" gradientUnits="userSpaceOnUse">
<stop stop-color="#EF7D00"/>
<stop offset="1" stop-color="#FFD500"/>
</linearGradient>
<linearGradient id="paint15_linear" x1="21.0309" y1="6.47635" x2="27.7959" y2="6.47635" gradientUnits="userSpaceOnUse">
<stop stop-color="#BCCF00"/>
<stop offset="1" stop-color="#FFED00"/>
</linearGradient>
<linearGradient id="paint16_linear" x1="15.2035" y1="3.13863" x2="21.9678" y2="3.13863" gradientUnits="userSpaceOnUse">
<stop stop-color="#C8D400"/>
<stop offset="1" stop-color="#A2C617"/>
</linearGradient>
<linearGradient id="paint17_linear" x1="1843.78" y1="1273.53" x2="2430.18" y2="1273.53" gradientUnits="userSpaceOnUse">
<stop stop-color="#213A8F"/>
<stop offset="1" stop-color="#009FE3"/>
</linearGradient>
<linearGradient id="paint18_linear" x1="0.325781" y1="25.0253" x2="7.09082" y2="25.0253" gradientUnits="userSpaceOnUse">
<stop stop-color="#E50071"/>
<stop offset="1" stop-color="#831F82"/>
</linearGradient>
<linearGradient id="paint19_linear" x1="-4.35073" y1="22.4293" x2="4.66177" y2="22.4293" gradientUnits="userSpaceOnUse">
<stop stop-color="#E94190"/>
<stop offset="1" stop-color="#A71680"/>
</linearGradient>
</defs>
</svg>
