<?xml version="1.0" encoding="UTF-8" standalone="no"?>
<svg width="18px" height="35px" viewBox="0 0 18 35" version="1.1" xmlns="http://www.w3.org/2000/svg" xmlns:xlink="http://www.w3.org/1999/xlink" xmlns:sketch="http://www.bohemiancoding.com/sketch/ns">
    <!-- Generator: Sketch 3.1.1 (8761) - http://www.bohemiancoding.com/sketch -->
    <title>Fill 1 + Fill 3 + Fill 6 + Fill 1 + Fill 3 + Fill 7</title>
    <desc>Created with Sketch.</desc>
    <defs>
        <linearGradient x1="53.548112%" y1="27.5589229%" x2="73.86261%" y2="90.7426847%" id="linearGradient-1">
            <stop stop-color="#51A94C" offset="0%"></stop>
            <stop stop-color="#257F61" offset="100%"></stop>
        </linearGradient>
        <linearGradient x1="53.548112%" y1="27.5589229%" x2="73.86261%" y2="90.7426847%" id="linearGradient-2">
            <stop stop-color="#A09D9D" offset="0%"></stop>
            <stop stop-color="#757A77" offset="100%"></stop>
        </linearGradient>
    </defs>
    <g id="Page-1" stroke="none" stroke-width="1" fill="none" fill-rule="evenodd" sketch:type="MSPage">
        <g id="Fill-1-+-Fill-3-+-Fill-6-+-Fill-1-+-Fill-3-+-Fill-7" sketch:type="MSLayerGroup">
            <g id="Fill-1-+-Fill-3-+-Fill-6" sketch:type="MSShapeGroup">
                <path d="M10.3413333,3.0605 C9.50633333,3.0605 8.8295,2.3835 8.8295,1.5485 C8.8295,0.713666667 9.50633333,0.0365 10.3413333,0.0365 C11.1763333,0.0365 11.8533333,0.713666667 11.8533333,1.5485 C11.8533333,2.3835 11.1763333,3.0605 10.3413333,3.0605" id="Fill-1" fill="#51A94C"></path>
                <path d="M13.8325,15 L12.0561667,15 C11.9148333,15 11.8656667,14.9446667 11.8321667,14.7451667 C11.7111667,14.0315 11.0896667,13.488 10.3413333,13.488 C9.60166667,13.488 8.98566667,14.0195 8.85516667,14.7213333 C8.82233333,14.8978333 8.78716667,15 8.65033333,15 L6.85333333,15 C6.688,15 6.62316667,14.958 6.51466667,14.7708333 C6.25733333,14.3245 5.68416667,13.3313333 5.3435,12.7405 C5.00866667,12.1613333 4.61066667,11.9998333 4.12616667,11.9998333 C3.869,11.9998333 3.5875,12.0453333 3.27816667,12.098 C3.11483333,12.1256667 2.9495,12.1395 2.78383333,12.1395 C1.72,12.1395 0.656,11.5666667 0.214833333,10.389 C-0.345333333,8.89316667 0.2355,7.36366667 1.4325,6.51833333 C1.4595,6.49933333 1.48383333,6.491 1.50633333,6.491 C1.61,6.491 1.67316667,6.66483333 1.756,6.76333333 C1.8675,6.897 2.05483333,6.93383333 1.89683333,7.12483333 C1.47833333,7.63083333 1.168,8.262 1.19116667,8.9495 C1.227,9.99433333 1.74983333,10.4558333 2.2985,10.4558333 C2.451,10.4558333 2.60533333,10.4201667 2.752,10.3515 C3.35983333,10.0666667 3.365,9.28483333 3.2375,8.62333333 C2.90933333,6.91683333 3.66816667,5.11683333 5.258,4.199 C5.919,3.81766667 6.64066667,3.636 7.35266667,3.636 L7.3565,3.636 L13.3266667,3.636 L13.3305,3.636 C14.0425,3.636 14.7643333,3.81766667 15.4253333,4.199 C16.9548333,5.08233333 17.7181667,6.78333333 17.4816667,8.43066667 C17.4466667,8.6765 17.4171667,8.8845 17.4291667,9.1015 C17.4578333,9.6145 17.6505,9.9905 17.9213333,10.2565 C17.9796667,10.3138333 17.9556667,10.391 17.8868333,10.3925 C17.8806667,10.3926667 17.8745,10.3928333 17.8683333,10.3928333 C17.5731667,10.3928333 17.1876667,10.2495 16.967,9.92116667 L16.9611667,9.93233333 C16.9611667,9.93233333 14.1958333,14.722 14.1436667,14.8121667 C14.0356667,15 13.9575,15 13.8325,15 M5.329,7.60116667 C5.037,7.60116667 4.8,7.83816667 4.8,8.13016667 C4.8,8.4225 5.037,8.65883333 5.329,8.65883333 C5.62116667,8.65883333 5.85766667,8.4225 5.85766667,8.13016667 C5.85766667,7.83816667 5.62116667,7.60116667 5.329,7.60116667 M8.8295,4.293 C8.61033333,4.293 8.43316667,4.47033333 8.43316667,4.68916667 C8.43316667,4.90833333 8.61033333,5.08583333 8.8295,5.08583333 L11.8533333,5.08583333 C12.0725,5.08583333 12.2501667,4.90833333 12.2501667,4.68916667 C12.2501667,4.47033333 12.0725,4.293 11.8533333,4.293 L8.8295,4.293" id="Fill-3" fill="url(#linearGradient-1)"></path>
                <path d="M2.04833333,6.401 C2.02366667,6.401 2.01083333,6.37283333 2.02316667,6.31616667 C2.0665,6.11683333 2.0415,5.88116667 1.95033333,5.65316667 C1.7835,5.23616667 1.52666667,5.17716667 1.463,4.8 C1.39533333,4.39766667 1.68083333,4.01833333 2.09416667,3.9685 C2.1255,3.96466667 2.1565,3.96283333 2.18716667,3.96283333 C2.5545,3.96283333 2.87483333,4.22616667 2.926,4.5995 C2.98566667,5.03933333 2.78116667,5.905 2.08266667,6.38766667 C2.07,6.3965 2.05816667,6.401 2.04833333,6.401" id="Fill-5" fill="#51A94C"></path>
            </g>
            <g id="Fill-1-+-Fill-3-+-Fill-7" transform="translate(0.000000, 20.000000)" sketch:type="MSShapeGroup">
                <path d="M10.3413333,3.0605 C9.50633333,3.0605 8.8295,2.3835 8.8295,1.5485 C8.8295,0.713666667 9.50633333,0.0365 10.3413333,0.0365 C11.1763333,0.0365 11.8533333,0.713666667 11.8533333,1.5485 C11.8533333,2.3835 11.1763333,3.0605 10.3413333,3.0605" id="Fill-1" fill="#A09D9D"></path>
                <path d="M13.8325,15 L12.0561667,15 C11.9148333,15 11.8656667,14.9446667 11.8321667,14.7451667 C11.7111667,14.0315 11.0896667,13.488 10.3413333,13.488 C9.60166667,13.488 8.98566667,14.0195 8.85516667,14.7213333 C8.82233333,14.8978333 8.78716667,15 8.65033333,15 L6.85333333,15 C6.688,15 6.62316667,14.958 6.51466667,14.7708333 C6.25733333,14.3245 5.68416667,13.3313333 5.3435,12.7405 C5.00866667,12.1613333 4.61066667,11.9998333 4.12616667,11.9998333 C3.869,11.9998333 3.5875,12.0453333 3.27816667,12.098 C3.11483333,12.1256667 2.9495,12.1395 2.78383333,12.1395 C1.72,12.1395 0.656,11.5666667 0.214833333,10.389 C-0.345333333,8.89316667 0.2355,7.36366667 1.4325,6.51833333 C1.4595,6.49933333 1.48383333,6.491 1.50633333,6.491 C1.61,6.491 1.67316667,6.66483333 1.756,6.76333333 C1.8675,6.897 2.05483333,6.93383333 1.89683333,7.12483333 C1.47833333,7.63083333 1.168,8.262 1.19116667,8.9495 C1.227,9.99433333 1.74983333,10.4558333 2.2985,10.4558333 C2.451,10.4558333 2.60533333,10.4201667 2.752,10.3515 C3.35983333,10.0666667 3.365,9.28483333 3.2375,8.62333333 C2.90933333,6.91683333 3.66816667,5.11683333 5.258,4.199 C5.919,3.81766667 6.64066667,3.636 7.35266667,3.636 L7.3565,3.636 L13.3266667,3.636 L13.3305,3.636 C14.0425,3.636 14.7643333,3.81766667 15.4253333,4.199 C16.9548333,5.08233333 17.7181667,6.78333333 17.4816667,8.43066667 C17.4466667,8.6765 17.4171667,8.8845 17.4291667,9.1015 C17.4578333,9.6145 17.6505,9.9905 17.9213333,10.2565 C17.9796667,10.3138333 17.9556667,10.391 17.8868333,10.3925 C17.8806667,10.3926667 17.8745,10.3928333 17.8683333,10.3928333 C17.5731667,10.3928333 17.1876667,10.2495 16.967,9.92116667 L16.9611667,9.93233333 C16.9611667,9.93233333 14.1958333,14.722 14.1436667,14.8121667 C14.0356667,15 13.9575,15 13.8325,15 M5.329,7.60116667 C5.037,7.60116667 4.8,7.83816667 4.8,8.13016667 C4.8,8.4225 5.037,8.65883333 5.329,8.65883333 C5.62116667,8.65883333 5.85766667,8.4225 5.85766667,8.13016667 C5.85766667,7.83816667 5.62116667,7.60116667 5.329,7.60116667 M8.8295,4.293 C8.61033333,4.293 8.43316667,4.47033333 8.43316667,4.68916667 C8.43316667,4.90833333 8.61033333,5.08583333 8.8295,5.08583333 L11.8533333,5.08583333 C12.0725,5.08583333 12.2501667,4.90833333 12.2501667,4.68916667 C12.2501667,4.47033333 12.0725,4.293 11.8533333,4.293 L8.8295,4.293" id="Fill-3" fill="url(#linearGradient-2)"></path>
                <path d="M2.04833333,6.401 C2.02366667,6.401 2.01083333,6.37283333 2.02316667,6.31616667 C2.0665,6.11683333 2.0415,5.88116667 1.95033333,5.65316667 C1.7835,5.23616667 1.52666667,5.17716667 1.463,4.8 C1.39533333,4.39766667 1.68083333,4.01833333 2.09416667,3.9685 C2.1255,3.96466667 2.1565,3.96283333 2.18716667,3.96283333 C2.5545,3.96283333 2.87483333,4.22616667 2.926,4.5995 C2.98566667,5.03933333 2.78116667,5.905 2.08266667,6.38766667 C2.07,6.3965 2.05816667,6.401 2.04833333,6.401" id="Fill-5" fill="#A09D9D"></path>
            </g>
        </g>
    </g>
</svg>