<svg width="81" height="95" viewBox="0 0 81 95" fill="none" xmlns="http://www.w3.org/2000/svg">
<rect width="81" height="95" fill="black" fill-opacity="0"/>
<rect width="80.0003" height="93.9999" fill="black" fill-opacity="0" transform="translate(0 0.00012207)"/>
<rect width="453.03" height="373.295" fill="black" fill-opacity="0" transform="translate(10 49.7728) scale(0.133333 -0.133333)"/>
<rect width="76.3004" height="75.439" fill="black" fill-opacity="0" transform="translate(39.709 10.0587) scale(0.133333 -0.133333)"/>
<rect width="76.3004" height="75.439" fill="black" fill-opacity="0" transform="translate(39.709 10.0587) scale(0.133333 -0.133333)"/>
<path d="M39.709 5.02967C39.709 2.25234 41.9865 0.000176559 44.7955 0.000176559C47.6044 0.000176559 49.8824 2.25234 49.8824 5.02967C49.8824 7.80699 47.6044 10.0587 44.7955 10.0587C41.9865 10.0587 39.709 7.80699 39.709 5.02967" fill="url(#paint0_linear)"/>
<rect width="453.03" height="283.498" fill="black" fill-opacity="0" transform="translate(10 49.7728) scale(0.133333 -0.133333)"/>
<rect width="453.03" height="283.498" fill="black" fill-opacity="0" transform="translate(10 49.7728) scale(0.133333 -0.133333)"/>
<path d="M49.8784 16.7957H39.7051C38.968 16.7957 38.3715 16.205 38.3715 15.4763C38.3715 14.7482 38.968 14.1585 39.7051 14.1585H49.8784C50.6157 14.1585 51.2137 14.7482 51.2137 15.4763C51.2137 16.205 50.6157 16.7957 49.8784 16.7957ZM27.9281 28.6804C26.9459 28.6804 26.1484 27.8944 26.1484 26.922C26.1484 25.9508 26.9459 25.1627 27.9281 25.1627C28.9111 25.1627 29.7073 25.9508 29.7073 26.922C29.7073 27.8944 28.9111 28.6804 27.9281 28.6804ZM14.0074 29.6474C13.9292 27.3606 14.9736 25.2612 16.3813 23.5775C16.9129 22.9426 16.2828 22.8203 15.9075 22.3757C15.568 21.9762 15.3267 21.2063 14.8192 21.5604C10.7923 24.3723 8.83782 29.4601 10.7226 34.4354C12.4376 38.9624 16.9508 40.8021 21.0286 40.1199C24.0306 39.6153 26.2527 39.3078 27.9769 42.2573C29.1231 44.2226 31.0515 47.5261 31.9173 49.0106C32.2827 49.6332 32.5004 49.7728 33.0567 49.7728C34.722 49.7728 38.837 49.7728 39.1027 49.7728C39.5627 49.7728 39.6809 49.4328 39.7916 48.846C40.2307 46.5115 42.3034 44.7433 44.7916 44.7433C47.3094 44.7433 49.4001 46.5516 49.8075 48.925C49.92 49.5888 50.0857 49.7728 50.5607 49.7728C50.7546 49.7728 54.8779 49.7728 56.537 49.7728C56.9576 49.7728 57.2207 49.7728 57.584 49.1481C57.7593 48.8481 67.063 32.9162 67.063 32.9162L67.0826 32.8794C67.8407 33.9947 69.1769 34.4679 70.1773 34.4473C70.4089 34.4419 70.4896 34.1852 70.2933 33.9947C69.3822 33.1101 68.734 31.8595 68.6375 30.153C68.5972 29.4308 68.6964 28.7389 68.8142 27.9214C69.6098 22.4417 67.0417 16.7838 61.8959 13.8456C59.6684 12.5751 57.2349 11.9709 54.8354 11.9731H34.7494C32.3499 11.9709 29.9169 12.5751 27.6895 13.8456C22.3408 16.8986 19.788 22.8863 20.8916 28.5624C21.3209 30.7626 21.3037 33.3634 19.2583 34.3109C16.9902 35.3611 14.1614 34.0878 14.0074 29.6474" fill="url(#paint1_linear)"/>
<rect width="37.4109" height="60.8243" fill="black" fill-opacity="0" transform="translate(14.8887 21.1703) scale(0.133333 -0.133333)"/>
<rect width="37.4109" height="60.8243" fill="black" fill-opacity="0" transform="translate(14.8887 21.1703) scale(0.133333 -0.133333)"/>
<path d="M19.8438 15.1781C19.6574 13.8326 18.4073 12.9166 17.0454 13.079C15.6548 13.2447 14.6943 14.5068 14.9221 15.8451C15.1361 17.0994 16.0002 17.2953 16.5614 18.683C16.868 19.4414 16.9523 20.2249 16.8063 20.888C16.7482 21.1521 16.8559 21.2297 17.0067 21.1258C19.3562 19.5204 20.0447 16.6409 19.8438 15.1781" fill="url(#paint2_linear)"/>
<rect width="80.0003" height="36" fill="black" fill-opacity="0" transform="translate(0 58)"/>
<rect width="600.003" height="123.767" fill="black" fill-opacity="0" transform="translate(0 74.5023) scale(0.133333 -0.133333)"/>
<path d="M9.30569 68.4995C9.30569 66.8002 8.07256 65.3151 6.25445 65.3151C4.3718 65.3151 3.24624 66.757 3.24624 68.4995C3.24624 70.1991 4.47983 71.6834 6.29794 71.6834C8.18013 71.6834 9.30569 70.2423 9.30569 68.4995ZM0 68.4995C0 65.1862 2.68369 62.4963 6.29794 62.4963C9.89022 62.4963 12.5519 65.143 12.5519 68.4995C12.5519 71.8128 9.8687 74.5023 6.25445 74.5023C2.66171 74.5023 0 71.8554 0 68.4995" fill="#5AC147"/>
<path d="M25.638 74.2437H22.3487V69.8329H18.301V74.2437H15.0117V62.7122H18.301V67.1441H22.3487V62.7122H25.638V74.2437Z" fill="#5AC147"/>
<path d="M39.4675 62.7124V74.2438H36.1778V65.5089H33.2345C33.2345 73.1472 31.9144 74.3727 29.0147 74.3727C28.5817 74.3727 27.7807 74.2874 27.3477 74.1789L27.5646 71.5333C27.6942 71.5537 28.1057 71.5972 28.2572 71.5972C29.4912 71.5972 30.1394 70.8877 30.1394 62.7124H39.4675" fill="#5AC147"/>
<path d="M49.367 70.1769V69.5966C48.8049 69.3379 48.0689 69.1673 47.2683 69.1673C45.8613 69.1673 44.9957 69.7254 44.9957 70.8017C44.9957 71.6833 45.7317 72.1997 46.7918 72.1997C48.3284 72.1997 49.367 71.3607 49.367 70.1769ZM41.8145 70.8876C41.8145 68.3706 43.7411 67.2081 46.4893 67.2081C47.6574 67.2081 48.5019 67.4018 49.3245 67.6818V67.4889C49.3245 66.1327 48.4799 65.3802 46.8349 65.3802C45.5798 65.3802 44.6927 65.6167 43.6316 66.0033L42.8096 63.5077C44.0871 62.9477 45.3422 62.583 47.3114 62.583C49.1075 62.583 50.4056 63.0558 51.2282 63.8735C52.0946 64.7341 52.4833 66.0033 52.4833 67.552V74.2437H49.3025V72.996C48.5019 73.8782 47.3979 74.4587 45.7963 74.4587C43.6106 74.4587 41.8145 73.2107 41.8145 70.8876" fill="#5AC147"/>
<path d="M57.3382 58.3448L59.2638 58C59.5458 58.8825 60.0644 59.4412 60.9735 59.4412C61.8821 59.4412 62.4025 58.8825 62.6831 58L64.6092 58.3448C64.3067 60.4099 62.9651 61.6145 60.9735 61.6145C58.9828 61.6145 57.6412 60.4099 57.3382 58.3448ZM66.2754 74.2437H63.0946V67.5307L58.5713 74.2437H55.4766V62.7122H58.6578V69.4454L63.1811 62.7122H66.2754V74.2437Z" fill="#5AC147"/>
<path d="M80.0003 74.2437H76.7111V69.8329H72.6638V74.2437H69.375V62.7122H72.6638V67.1441H76.7111V62.7122H80.0003V74.2437Z" fill="#5AC147"/>
<rect width="490.706" height="123.768" fill="black" fill-opacity="0" transform="translate(7.20898 94) scale(0.133333 -0.133333)"/>
<path d="M19.3288 82.2098V93.7423H16.0391V85.0067H13.0959C13.0959 92.6447 11.7758 93.8712 8.87604 93.8712C8.44303 93.8712 7.642 93.785 7.20898 93.6775L7.42595 91.0307C7.55549 91.053 7.96699 91.0947 8.1185 91.0947C9.35254 91.0947 10.0011 90.3855 10.0011 82.2098H19.3288Z" fill="#5AC147"/>
<path d="M29.9603 87.0721C29.7658 85.6092 28.8998 84.6191 27.5147 84.6191C26.1511 84.6191 25.2645 85.5879 25.004 87.0721H29.9603ZM21.7793 87.9973C21.7793 84.7054 24.1389 81.9938 27.5147 81.9938C31.3889 81.9938 33.1635 84.9853 33.1635 88.2551C33.1635 88.5146 33.1416 88.815 33.1201 89.1163H25.047C25.3725 90.6005 26.4115 91.3755 27.8827 91.3755C28.9867 91.3755 29.7873 91.0307 30.6964 90.1917L32.579 91.8474C31.4974 93.1832 29.9384 94 27.8397 94C24.354 94 21.7793 91.5692 21.7793 87.9973Z" fill="#5AC147"/>
<path d="M37.5169 77.8424L39.4431 77.4976C39.725 78.3801 40.2436 78.9401 41.1532 78.9401C42.0622 78.9401 42.5817 78.3801 42.8623 77.4976L44.788 77.8424C44.4854 79.9079 43.1443 81.1122 41.1532 81.1122C39.1625 81.1122 37.8199 79.9079 37.5169 77.8424V77.8424ZM46.4551 93.7423H43.2738V87.0295L38.751 93.7423H35.6562V82.2098H38.8375V88.9439L43.3613 82.2098H46.4551V93.7423Z" fill="#5AC147"/>
<path d="M49.5508 82.2098H52.84V86.9433L56.9953 82.2098H60.7826L56.5193 86.9433L61.3241 93.7423H57.4279L54.3327 89.3527L52.84 90.9667V93.7423H49.5508V82.2098Z" fill="#5AC147"/>
<path d="M69.5194 89.6753V89.094C68.9573 88.8363 68.2212 88.6639 67.4202 88.6639C66.0141 88.6639 65.148 89.2238 65.148 90.3001C65.148 91.1817 65.8841 91.6972 66.9437 91.6972C68.4808 91.6972 69.5194 90.8591 69.5194 89.6753ZM61.9668 90.3854C61.9668 87.8684 63.8925 86.7059 66.6411 86.7059C67.8102 86.7059 68.6543 86.8997 69.4768 87.1806V86.9868C69.4768 85.6305 68.6327 84.8778 66.9877 84.8778C65.7326 84.8778 64.845 85.1142 63.7844 85.5008L62.9619 83.0052C64.239 82.4461 65.4945 82.0808 67.4641 82.0808C69.2603 82.0808 70.5584 82.5545 71.3814 83.3713C72.247 84.2325 72.6361 85.5008 72.6361 87.0499V93.7422H69.4553V92.4935C68.6543 93.3761 67.5507 93.9564 65.9491 93.9564C63.7629 93.9564 61.9668 92.7095 61.9668 90.3854Z" fill="#5AC147"/>
<defs>
<linearGradient id="paint0_linear" x1="53.18" y1="13.3191" x2="76.2257" y2="36.6285" gradientUnits="userSpaceOnUse">
<stop stop-color="#5AC147"/>
<stop offset="1" stop-color="#2F8084"/>
</linearGradient>
<linearGradient id="paint1_linear" x1="39.1454" y1="27.1911" x2="62.1926" y2="50.5021" gradientUnits="userSpaceOnUse">
<stop stop-color="#5AC147"/>
<stop offset="1" stop-color="#2F8084"/>
</linearGradient>
<linearGradient id="paint2_linear" x1="33.4848" y1="32.7879" x2="56.5317" y2="56.0987" gradientUnits="userSpaceOnUse">
<stop stop-color="#5AC147"/>
<stop offset="1" stop-color="#2F8084"/>
</linearGradient>
</defs>
</svg>
