<svg width="111" height="37" viewBox="0 0 111 37" fill="none" xmlns="http://www.w3.org/2000/svg">
<path d="M58.543 17.9609C58.543 16.7319 57.644 15.6577 56.3186 15.6577C54.9461 15.6577 54.1256 16.7006 54.1256 17.9609C54.1256 19.1903 55.0249 20.2638 56.3503 20.2638C57.7224 20.2638 58.543 19.2215 58.543 17.9609ZM51.759 17.9609C51.759 15.5645 53.7155 13.6189 56.3503 13.6189C58.9691 13.6189 60.9095 15.5333 60.9095 17.9609C60.9095 20.3574 58.9534 22.3027 56.3186 22.3027C53.6994 22.3027 51.759 20.3883 51.759 17.9609Z" fill="#5AC147"/>
<path d="M70.449 22.1163H68.0511V18.9261H65.1003V22.1163H62.7024V13.7757H65.1003V16.9812H68.0511V13.7757H70.449V22.1163Z" fill="#5AC147"/>
<path d="M80.531 13.776V22.1165H78.1328V15.7987H75.9872C75.9872 21.3234 75.0248 22.2097 72.9109 22.2097C72.5952 22.2097 72.0112 22.148 71.6956 22.0696L71.8537 20.156C71.9482 20.1708 72.2481 20.2023 72.3586 20.2023C73.2582 20.2023 73.7307 19.6891 73.7307 13.776H80.531Z" fill="#5AC147"/>
<path d="M87.7478 19.175V18.7553C87.3381 18.5682 86.8015 18.4448 86.2179 18.4448C85.1921 18.4448 84.5611 18.8485 84.5611 19.6269C84.5611 20.2646 85.0977 20.6381 85.8705 20.6381C86.9907 20.6381 87.7478 20.0313 87.7478 19.175ZM82.2419 19.689C82.2419 17.8685 83.6465 17.0277 85.6499 17.0277C86.5015 17.0277 87.1172 17.1679 87.7168 17.3704V17.2308C87.7168 16.2499 87.1011 15.7057 85.9019 15.7057C84.9869 15.7057 84.3402 15.8767 83.5667 16.1563L82.9674 14.3512C83.8987 13.9462 84.8137 13.6824 86.2492 13.6824C87.5586 13.6824 88.505 14.0244 89.1046 14.6158C89.7363 15.2383 90.0196 16.1563 90.0196 17.2765V22.1165H87.7008V21.2141C87.1172 21.8521 86.3123 22.272 85.1447 22.272C83.5513 22.272 82.2419 21.3694 82.2419 19.689Z" fill="#5AC147"/>
<path d="M93.5588 10.6169L94.9626 10.3674C95.1682 11.0058 95.5462 11.4099 96.209 11.4099C96.8713 11.4099 97.2507 11.0058 97.4553 10.3674L98.8595 10.6169C98.6389 12.1105 97.6608 12.9818 96.209 12.9818C94.7577 12.9818 93.7797 12.1105 93.5588 10.6169ZM100.074 22.1163H97.7553V17.2609L94.4577 22.1163H92.2017V13.7757H94.5208V18.6458L97.8183 13.7757H100.074V22.1163Z" fill="#5AC147"/>
<path d="M110.08 22.1163H107.682V18.9261H104.732V22.1163H102.334V13.7757H104.732V16.9812H107.682V13.7757H110.08V22.1163Z" fill="#5AC147"/>
<path d="M60.5945 27.8786V36.22H58.1963V29.9016H56.0506C56.0506 35.4261 55.0883 36.3132 52.9743 36.3132C52.6587 36.3132 52.0747 36.2508 51.759 36.1731L51.9172 34.2587C52.0116 34.2748 52.3116 34.305 52.4221 34.305C53.3217 34.305 53.7945 33.792 53.7945 27.8786H60.5945Z" fill="#5AC147"/>
<path d="M68.3449 31.3958C68.2031 30.3377 67.5718 29.6216 66.562 29.6216C65.5679 29.6216 64.9216 30.3223 64.7317 31.3958H68.3449ZM62.3809 32.065C62.3809 29.6839 64.101 27.7227 66.562 27.7227C69.3864 27.7227 70.6801 29.8864 70.6801 32.2514C70.6801 32.4391 70.6641 32.6564 70.6484 32.8743H64.7631C65.0003 33.9478 65.7578 34.5084 66.8303 34.5084C67.6352 34.5084 68.2188 34.259 68.8815 33.6521L70.254 34.8497C69.4654 35.8159 68.3289 36.4066 66.7989 36.4066C64.2579 36.4066 62.3809 34.6485 62.3809 32.065Z" fill="#5AC147"/>
<path d="M73.8535 24.7196L75.2577 24.4702C75.4632 25.1085 75.8413 25.5135 76.5044 25.5135C77.1671 25.5135 77.5458 25.1085 77.7504 24.4702L79.1542 24.7196C78.9336 26.2135 77.9559 27.0845 76.5044 27.0845C75.0531 27.0845 74.0744 26.2135 73.8535 24.7196ZM80.3695 36.2198H78.0504V31.3645L74.7532 36.2198H72.4971V27.8784H74.8162V32.7491L78.1141 27.8784H80.3695V36.2198Z" fill="#5AC147"/>
<path d="M82.6267 27.8784H85.0246V31.3021L88.0539 27.8784H90.8148L87.7068 31.3021L91.2096 36.2198H88.3692L86.1128 33.0448L85.0246 34.2122V36.2198H82.6267V27.8784Z" fill="#5AC147"/>
<path d="M97.1841 33.279V32.8586C96.7744 32.6721 96.2378 32.5474 95.6538 32.5474C94.6287 32.5474 93.9974 32.9524 93.9974 33.7309C93.9974 34.3686 94.5339 34.7414 95.3064 34.7414C96.427 34.7414 97.1841 34.1352 97.1841 33.279ZM91.6782 33.7926C91.6782 31.9721 93.0821 31.1313 95.0859 31.1313C95.9381 31.1313 96.5535 31.2714 97.1531 31.4746V31.3344C97.1531 30.3535 96.5378 29.809 95.3385 29.809C94.4235 29.809 93.7765 29.98 93.0033 30.2596L92.4037 28.4546C93.3347 28.0502 94.25 27.786 95.6858 27.786C96.9952 27.786 97.9416 28.1286 98.5416 28.7194C99.1726 29.3423 99.4562 30.2596 99.4562 31.3801V36.2206H97.1374V35.3174C96.5534 35.9557 95.7489 36.3755 94.5813 36.3755C92.9876 36.3755 91.6782 35.4736 91.6782 33.7926Z" fill="#5AC147"/>
<path d="M21.658 3.63775C21.658 1.62894 23.3183 -2.0504e-05 25.3661 -2.0504e-05C27.4138 -2.0504e-05 29.0744 1.62894 29.0744 3.63775C29.0744 5.64656 27.4138 7.27521 25.3661 7.27521C23.3183 7.27521 21.658 5.64656 21.658 3.63775Z" fill="url(#paint0_linear)"/>
<path d="M29.0718 12.148H21.6553C21.1179 12.148 20.6831 11.7207 20.6831 11.1937C20.6831 10.6671 21.1179 10.2406 21.6553 10.2406H29.0718C29.6092 10.2406 30.0452 10.6671 30.0452 11.1937C30.0452 11.7207 29.6092 12.148 29.0718 12.148ZM13.0697 20.7441C12.3538 20.7441 11.7724 20.1756 11.7724 19.4723C11.7724 18.7698 12.3538 18.1998 13.0697 18.1998C13.7864 18.1998 14.3668 18.7698 14.3668 19.4723C14.3668 20.1756 13.7864 20.7441 13.0697 20.7441ZM2.92146 21.4435C2.86445 19.7895 3.62579 18.271 4.65206 17.0532C5.03957 16.594 4.58019 16.5055 4.30664 16.184C4.05916 15.895 3.88319 15.3382 3.51322 15.5943C0.577561 17.6281 -0.847238 21.308 0.526783 24.9066C1.77706 28.181 5.06721 29.5116 8.03993 29.0182C10.2285 28.6532 11.8483 28.4308 13.1053 30.5641C13.9409 31.9855 15.3467 34.375 15.9779 35.4487C16.2443 35.899 16.403 36 16.8086 36C18.0226 36 21.0224 36 21.2161 36C21.5515 36 21.6377 35.7541 21.7183 35.3296C22.0385 33.6411 23.5495 32.3622 25.3634 32.3622C27.1989 32.3622 28.723 33.6701 29.02 35.3868C29.1021 35.8669 29.2228 36 29.5691 36C29.7105 36 32.7164 36 33.9259 36C34.2325 36 34.4243 36 34.6892 35.5481C34.8169 35.3312 41.5995 23.8078 41.5995 23.8078L41.6138 23.7812C42.1664 24.5879 43.1405 24.9301 43.8698 24.9152C44.0386 24.9113 44.0975 24.7257 43.9544 24.5879C43.2901 23.948 42.8176 23.0435 42.7473 21.8092C42.7179 21.2868 42.7902 20.7864 42.8761 20.1951C43.4561 16.2317 41.5839 12.1394 37.8326 10.0142C36.2087 9.09532 34.4347 8.65829 32.6854 8.65985H18.0426C16.2933 8.65829 14.5196 9.09532 12.8958 10.0142C8.99654 12.2224 7.13552 16.5533 7.9401 20.6587C8.25306 22.2501 8.24047 24.1313 6.74939 24.8165C5.09594 25.5762 3.03371 24.6552 2.92146 21.4435Z" fill="url(#paint1_linear)"/>
<path d="M7.17704 10.9777C7.04112 10.0046 6.12985 9.34202 5.13698 9.45947C4.12322 9.57932 3.42302 10.4921 3.58908 11.4601C3.74509 12.3673 4.37502 12.5091 4.78412 13.5128C5.00764 14.0613 5.06912 14.628 4.96264 15.1076C4.92033 15.2987 4.99885 15.3548 5.10873 15.2796C6.82157 14.1185 7.32346 12.0357 7.17704 10.9777Z" fill="url(#paint2_linear)"/>
<defs>
<linearGradient id="paint0_linear" x1="31.4785" y1="9.63343" x2="48.1451" y2="26.6242" gradientUnits="userSpaceOnUse">
<stop stop-color="#5AC147"/>
<stop offset="1" stop-color="#2F8084"/>
</linearGradient>
<linearGradient id="paint1_linear" x1="21.2473" y1="19.6669" x2="37.915" y2="36.6588" gradientUnits="userSpaceOnUse">
<stop stop-color="#5AC147"/>
<stop offset="1" stop-color="#2F8084"/>
</linearGradient>
<linearGradient id="paint2_linear" x1="17.1214" y1="23.7147" x2="33.789" y2="40.7064" gradientUnits="userSpaceOnUse">
<stop stop-color="#5AC147"/>
<stop offset="1" stop-color="#2F8084"/>
</linearGradient>
</defs>
</svg>
