<svg width="20" height="20" viewBox="0 0 20 20" fill="none" xmlns="http://www.w3.org/2000/svg">
<path d="M11.7998 13.6008H11.1998C10.5371 13.6008 9.9998 13.0635 9.9998 12.4008V9.40078C9.9998 9.06941 9.73118 8.80078 9.3998 8.80078H8.7998" stroke="#0085BA" stroke-width="1.5" stroke-linecap="round" stroke-linejoin="round"/>
<path d="M9.70039 5.7998C9.53471 5.7998 9.40039 5.93412 9.40039 6.0998C9.40039 6.26549 9.53471 6.3998 9.70039 6.3998C9.86608 6.3998 10.0004 6.26549 10.0004 6.0998C10.0004 5.93412 9.86608 5.7998 9.70039 5.7998V5.7998" stroke="#0085BA" stroke-width="1.5" stroke-linecap="round" stroke-linejoin="round"/>
<path fill-rule="evenodd" clip-rule="evenodd" d="M10 19C14.9706 19 19 14.9706 19 10C19 5.02944 14.9706 1 10 1C5.02944 1 1 5.02944 1 10C1 14.9706 5.02944 19 10 19Z" stroke="#0085BA" stroke-width="1.5" stroke-linecap="round" stroke-linejoin="round"/>
</svg>
