<svg width="20" height="20" viewBox="0 0 20 20" fill="none" xmlns="http://www.w3.org/2000/svg">
<path d="M4.20364 1.87994C4.49653 1.58705 4.49653 1.11217 4.20364 0.819279C3.91074 0.526386 3.43587 0.526386 3.14298 0.819279L4.20364 1.87994ZM1.68457 3.33835L1.15424 2.80802C1.01359 2.94867 0.93457 3.13943 0.93457 3.33835C0.93457 3.53726 1.01359 3.72802 1.15424 3.86868L1.68457 3.33835ZM3.14298 5.85741C3.43587 6.15031 3.91074 6.15031 4.20364 5.85741C4.49653 5.56452 4.49653 5.08965 4.20364 4.79675L3.14298 5.85741ZM10.5234 4.08835C10.9376 4.08835 11.2734 3.75256 11.2734 3.33835C11.2734 2.92413 10.9376 2.58835 10.5234 2.58835V4.08835ZM3.14298 0.819279L1.15424 2.80802L2.2149 3.86868L4.20364 1.87994L3.14298 0.819279ZM1.15424 3.86868L3.14298 5.85741L4.20364 4.79675L2.2149 2.80802L1.15424 3.86868ZM1.68457 4.08835H10.5234V2.58835H1.68457V4.08835Z" fill="#FF510D"/>
<path fill-rule="evenodd" clip-rule="evenodd" d="M8.44113 10.5163C10.4576 10.5163 12.0922 9.699 12.0922 8.69078C12.0922 7.68256 10.4576 6.86523 8.44113 6.86523C6.42469 6.86523 4.79004 7.68256 4.79004 8.69078C4.79004 9.699 6.42469 10.5163 8.44113 10.5163Z" stroke="#FF510D" stroke-width="1.5" stroke-linecap="round" stroke-linejoin="round"/>
<path d="M12.0918 10.5427L12.0918 8.81836" stroke="#FF510D" stroke-width="1.5" stroke-linecap="round" stroke-linejoin="round"/>
<path d="M4.78906 8.81836V15.9177C4.78906 16.926 6.42354 17.7433 8.44016 17.7433C8.89994 17.744 9.35862 17.6985 9.80932 17.6076" stroke="#FF510D" stroke-width="1.5" stroke-linecap="round" stroke-linejoin="round"/>
<path opacity="0.5" d="M4.78906 14.0918C4.78906 15.1001 6.42354 15.9173 8.44016 15.9173C8.89994 15.9181 9.35862 15.8726 9.80932 15.7816" stroke="#FF510D" stroke-linecap="round" stroke-linejoin="round"/>
<path opacity="0.5" d="M4.78906 12.2666C4.78906 13.2749 6.42354 14.0921 8.44016 14.0921C8.89994 14.0929 9.35862 14.0474 9.80932 13.9564" stroke="#FF510D" stroke-linecap="round" stroke-linejoin="round"/>
<path opacity="0.5" d="M4.78906 10.4414C4.78906 11.4497 6.42354 12.267 8.44016 12.267C8.89994 12.2677 9.35862 12.2222 9.80932 12.1313" stroke="#FF510D" stroke-linecap="round" stroke-linejoin="round"/>
<path fill-rule="evenodd" clip-rule="evenodd" d="M14.8298 15.0046C16.8462 15.0046 18.4809 14.1873 18.4809 13.1791C18.4809 12.1708 16.8462 11.3535 14.8298 11.3535C12.8134 11.3535 11.1787 12.1708 11.1787 13.1791C11.1787 14.1873 12.8134 15.0046 14.8298 15.0046Z" stroke="#FF510D" stroke-width="1.5" stroke-linecap="round" stroke-linejoin="round"/>
<path d="M11.1787 13.1797V16.8308C11.1787 17.8391 12.8132 18.6563 14.8298 18.6563C16.8464 18.6563 18.4809 17.8391 18.4809 16.8308V13.1797" stroke="#FF510D" stroke-width="1.5" stroke-linecap="round" stroke-linejoin="round"/>
<path opacity="0.5" d="M18.4809 15.0049C18.4809 16.0132 16.8464 16.8304 14.8298 16.8304C12.8132 16.8304 11.1787 16.0132 11.1787 15.0049" stroke="#FF510D" stroke-linecap="round" stroke-linejoin="round"/>
</svg>
