<svg width="14" height="14" viewBox="0 0 14 14" fill="none" xmlns="http://www.w3.org/2000/svg">
<path d="M8.20019 9.4002H7.80019C7.35837 9.4002 7.0002 9.04202 7.0002 8.6002V6.6002C7.0002 6.37928 6.82111 6.2002 6.6002 6.2002H6.2002" stroke="#AAAAAA" stroke-linecap="round" stroke-linejoin="round"/>
<path d="M6.80059 4.2002C6.69013 4.2002 6.60059 4.28974 6.60059 4.4002C6.60059 4.51065 6.69013 4.6002 6.80059 4.6002C6.91104 4.6002 7.00059 4.51065 7.00059 4.4002C7.00059 4.28974 6.91104 4.2002 6.80059 4.2002V4.2002" stroke="#AAAAAA" stroke-linecap="round" stroke-linejoin="round"/>
<path fill-rule="evenodd" clip-rule="evenodd" d="M7 13C10.3137 13 13 10.3137 13 7C13 3.68629 10.3137 1 7 1C3.68629 1 1 3.68629 1 7C1 10.3137 3.68629 13 7 13Z" stroke="#AAAAAA" stroke-linecap="round" stroke-linejoin="round"/>
</svg>
