<svg width="24" height="24" viewBox="0 0 24 24" fill="none" xmlns="http://www.w3.org/2000/svg">
<path d="M4.93824 2.15045C5.23113 1.85755 5.23113 1.38268 4.93824 1.08979C4.64535 0.796894 4.17047 0.796894 3.87758 1.08979L4.93824 2.15045ZM2.02142 4.0066L1.49109 3.47627C1.1982 3.76917 1.1982 4.24404 1.49109 4.53693L2.02142 4.0066ZM3.87758 6.92342C4.17047 7.21631 4.64535 7.21631 4.93824 6.92342C5.23113 6.63052 5.23113 6.15565 4.93824 5.86276L3.87758 6.92342ZM12.628 4.7566C13.0422 4.7566 13.378 4.42082 13.378 4.0066C13.378 3.59239 13.0422 3.2566 12.628 3.2566V4.7566ZM3.87758 1.08979L1.49109 3.47627L2.55175 4.53693L4.93824 2.15045L3.87758 1.08979ZM1.49109 4.53693L3.87758 6.92342L4.93824 5.86276L2.55175 3.47627L1.49109 4.53693ZM2.02142 4.7566H12.628V3.2566H2.02142V4.7566Z" fill="#FF510D"/>
<path fill-rule="evenodd" clip-rule="evenodd" d="M10.1287 12.6206C12.5485 12.6206 14.5101 11.6398 14.5101 10.4299C14.5101 9.22005 12.5485 8.23926 10.1287 8.23926C7.70902 8.23926 5.74744 9.22005 5.74744 10.4299C5.74744 11.6398 7.70902 12.6206 10.1287 12.6206Z" stroke="#FF510D" stroke-width="1.5" stroke-linecap="round" stroke-linejoin="round"/>
<path d="M14.5098 12.6522L14.5097 10.583" stroke="#FF510D" stroke-width="1.5" stroke-linecap="round" stroke-linejoin="round"/>
<path d="M5.74695 10.583V19.1022C5.74695 20.3122 7.70832 21.2929 10.1283 21.2929C10.68 21.2937 11.2304 21.2392 11.7713 21.13" stroke="#FF510D" stroke-width="1.5" stroke-linecap="round" stroke-linejoin="round"/>
<path opacity="0.5" d="M5.74695 16.9111C5.74695 18.1211 7.70832 19.1018 10.1283 19.1018C10.68 19.1027 11.2304 19.0481 11.7713 18.939" stroke="#FF510D" stroke-linecap="round" stroke-linejoin="round"/>
<path opacity="0.5" d="M5.74695 14.7207C5.74695 15.9307 7.70832 16.9114 10.1283 16.9114C10.68 16.9122 11.2304 16.8577 11.7713 16.7485" stroke="#FF510D" stroke-linecap="round" stroke-linejoin="round"/>
<path opacity="0.5" d="M5.74695 12.5312C5.74695 13.7412 7.70832 14.7219 10.1283 14.7219C10.68 14.7228 11.2304 14.6682 11.7713 14.5591" stroke="#FF510D" stroke-linecap="round" stroke-linejoin="round"/>
<path fill-rule="evenodd" clip-rule="evenodd" d="M17.7956 18.0063C20.2154 18.0063 22.1769 17.0255 22.1769 15.8157C22.1769 14.6058 20.2154 13.625 17.7956 13.625C15.3759 13.625 13.4143 14.6058 13.4143 15.8157C13.4143 17.0255 15.3759 18.0063 17.7956 18.0063Z" stroke="#FF510D" stroke-width="1.5" stroke-linecap="round" stroke-linejoin="round"/>
<path d="M13.4143 15.8164V20.1977C13.4143 21.4077 15.3757 22.3884 17.7956 22.3884C20.2156 22.3884 22.1769 21.4077 22.1769 20.1977V15.8164" stroke="#FF510D" stroke-width="1.5" stroke-linecap="round" stroke-linejoin="round"/>
<path opacity="0.5" d="M22.1769 18.0068C22.1769 19.2168 20.2156 20.1975 17.7956 20.1975C15.3757 20.1975 13.4143 19.2168 13.4143 18.0068" stroke="#FF510D" stroke-linecap="round" stroke-linejoin="round"/>
</svg>
