<svg width="20" height="20" viewBox="0 0 20 20" fill="none" xmlns="http://www.w3.org/2000/svg">
<path d="M11.5 13H11C10.4477 13 10 12.5523 10 12V9.5C10 9.22386 9.77614 9 9.5 9H9" stroke="#0085BA" stroke-width="1.5" stroke-linecap="round" stroke-linejoin="round"/>
<path d="M9.75 6.5C9.61193 6.5 9.5 6.61193 9.5 6.75C9.5 6.88807 9.61193 7 9.75 7C9.88807 7 10 6.88807 10 6.75C10 6.61193 9.88807 6.5 9.75 6.5V6.5" stroke="#0085BA" stroke-width="1.5" stroke-linecap="round" stroke-linejoin="round"/>
<path fill-rule="evenodd" clip-rule="evenodd" d="M10 17.5C14.1421 17.5 17.5 14.1421 17.5 10C17.5 5.85786 14.1421 2.5 10 2.5C5.85786 2.5 2.5 5.85786 2.5 10C2.5 14.1421 5.85786 17.5 10 17.5Z" stroke="#0085BA" stroke-width="1.5" stroke-linecap="round" stroke-linejoin="round"/>
</svg>
