<svg
        xmlns:dc="http://purl.org/dc/elements/1.1/"
        xmlns:cc="http://creativecommons.org/ns#"
        xmlns:rdf="http://www.w3.org/1999/02/22-rdf-syntax-ns#"
        xmlns:svg="http://www.w3.org/2000/svg"
        xmlns="http://www.w3.org/2000/svg"
        version="1.1"
        id="svg4794"
        viewBox="0 0 40 40.000002"
        height="40"
        width="40">
    <defs
            id="defs4796" />
    <metadata
            id="metadata4799">
        <rdf:RDF>
            <cc:Work
                    rdf:about="">
                <dc:format>image/svg+xml</dc:format>
                <dc:type
                        rdf:resource="http://purl.org/dc/dcmitype/StillImage" />
                <dc:title></dc:title>
            </cc:Work>
        </rdf:RDF>
    </metadata>
    <g
            transform="translate(0,-1012.3622)"
            id="layer1">
        <path
                id="path4715"
                d="m 17.387553,1047.2583 c -0.693305,-2.7838 -1.259684,-5.0778 -1.258617,-5.0975 0.001,-0.019 1.144846,-0.036 2.541718,-0.036 2.168617,0 2.539769,0.01 2.539769,0.068 0,0.038 -0.549819,2.2722 -1.221833,4.9659 -0.672012,2.6937 -1.235607,4.9569 -1.25244,5.0292 -0.01686,0.072 -0.04348,0.1317 -0.05933,0.1317 -0.01585,0 -0.595972,-2.2778 -1.289278,-5.0616 z m -9.9272387,-2.8654 c 0.024585,-0.069 4.5620607,-8.5308 4.8054527,-8.9617 l 0.09062,-0.1605 1.798145,1.9312 c 0.988985,1.0621 1.798155,1.9445 1.798155,1.961 0,0.025 -1.431646,0.9186 -7.4127775,4.6232 -0.6279524,0.3889 -1.0956353,0.6518 -1.0795739,0.6068 z m 18.1930867,-2.5671 -4.264006,-2.6445 1.803123,-1.9373 c 1.153278,-1.239 1.818332,-1.9203 1.845324,-1.8906 0.02316,0.025 1.088829,1.9959 2.368049,4.3783 1.27922,2.3825 2.375446,4.4233 2.436045,4.5351 0.06065,0.112 0.102383,0.2035 0.09285,0.2035 -0.0091,0 -1.936158,-1.19 -4.281369,-2.6445 z m 2.10695,-9.4411 c 0,-1.7798 0.01554,-2.7522 0.04399,-2.7522 0.04988,0 11.875549,2.6717 12.000973,2.7113 0.0447,0.014 0.07345,0.035 0.0638,0.045 -0.01351,0.014 -12.046323,2.7484 -12.096885,2.7484 -0.0061,0 -0.01189,-1.2383 -0.01189,-2.752 z m -22.9999519,1.3472 c -2.565532,-0.741 -4.65081236,-1.3614 -4.63395846,-1.3786 0.03769,-0.039 9.41182986,-2.7358 9.42961786,-2.7131 0.0071,0.01 0.02631,1.2386 0.04297,2.7325 l 0.03017,2.7163 -0.102098,-0.01 c -0.05618,0 -2.2011652,-0.6111 -4.7667063,-1.3521 z m 7.5217639,-4.3985 c -0.228011,-0.3874 -4.8345577,-9.0082 -4.8211782,-9.0226 0.029055,-0.031 8.4886032,5.2271 8.4901782,5.2774 0.002,0.054 -3.522231,3.8529 -3.573413,3.8529 -0.01768,0 -0.06075,-0.049 -0.0956,-0.1077 z m 10.893735,-1.8255 c -1.790058,-1.9233 -1.798673,-1.9336 -1.692978,-2.0056 0.05841,-0.04 1.890765,-1.1758 4.071846,-2.5245 2.181082,-1.3487 4.054527,-2.5075 4.163219,-2.5752 0.179379,-0.1116 0.194546,-0.1144 0.164353,-0.029 -0.05272,0.1481 -4.855853,9.068 -4.882917,9.068 -0.01341,0 -0.833958,-0.87 -1.823523,-1.9332 z m -7.024317,-5.043 c 0.06309,-0.2738 2.477959,-9.9467 2.49906,-10.0103 0.01219,-0.037 0.02997,-0.058 0.03952,-0.048 0.0091,0.01 0.551332,2.1619 1.20388,4.7813 0.652537,2.6193 1.224149,4.9077 1.270251,5.0854 l 0.08381,0.3232 -2.56345,0 -2.563438,0 0.03038,-0.1317 z"
                style="fill:#2ba8e0" />
    </g>
</svg>